<?xml version="1.0" encoding="UTF-8"?>
<!DOCTYPE svg PUBLIC "-//W3C//DTD SVG 1.1//EN" "http://www.w3.org/Graphics/SVG/1.1/DTD/svg11.dtd">
<!-- Creator: CorelDRAW -->
<svg xmlns="http://www.w3.org/2000/svg" xml:space="preserve" width="0.14in" height="0.14in" version="1.1" style="shape-rendering:geometricPrecision; text-rendering:geometricPrecision; image-rendering:optimizeQuality; fill-rule:evenodd; clip-rule:evenodd"
viewBox="0 0 140 140"
 xmlns:xlink="http://www.w3.org/1999/xlink"
 xmlns:xodm="http://www.corel.com/coreldraw/odm/2003">
 <defs>
  <style type="text/css">
   <![CDATA[
    .str0 {stroke:#1C2335;stroke-width:2.91;stroke-miterlimit:2.61313}
    .fil0 {fill:none}
    .fil1 {fill:#1C2335}
   ]]>
  </style>
 </defs>
 <g id="Layer_x0020_1">
  <metadata id="CorelCorpID_0Corel-Layer"/>
  <rect class="fil0" width="140" height="140"/>
  <g>
   <path class="fil0 str0" d="M134 88.98c10.48,-35.35 -9.67,-72.5 -45.02,-82.99 -35.35,-10.48 -72.5,9.67 -82.99,45.02 -10.48,35.35 9.67,72.5 45.02,82.99 35.35,10.48 72.5,-9.67 82.99,-45.02z"/>
  </g>
  <g id="_2562076800288">
   <path class="fil1" d="M25.73 110.06c0,-2.04 1.45,-3.2 2.61,-4.36 0.87,-0.87 2.62,-2.61 3.49,-3.2l5.81 5.52c-0.58,0.87 -4.94,5.24 -5.52,5.53 -1.45,0.87 -3.2,0.87 -4.36,0 -1.16,-0.87 -2.04,-2.33 -2.04,-3.49l0 0zm63.68 -86.94l2.61 0c3.49,0 7.27,0.87 10.18,2.33 4.07,2.04 5.81,3.78 8.72,6.69 0.29,0.58 0.87,1.17 1.16,1.75 2.91,4.65 4.65,9.01 4.94,13.67l0 2.62c-0.29,2.32 -0.58,4.36 -1.17,6.69 -1.74,6.11 -5.23,9.6 -9.3,13.67 -2.62,2.61 -4.94,4.94 -8.43,6.69 -5.52,2.62 -11.63,3.78 -18.32,2.04 -9.02,-2.04 -2.33,-2.33 -13.38,2.33 -2.04,0.87 -2.04,0.87 -3.49,2.33l-13.08 13.09c-1.46,1.45 1.45,1.45 -2.04,4.94 -0.87,0.87 -1.45,1.45 -2.32,2.33l-9.31 9.3c-1.45,1.46 -2.91,3.49 -5.81,3.49 -4.94,0 -7.27,-3.49 -7.27,-6.69l0 -0.87c0,-1.45 0.58,-2.61 1.16,-3.78l11.63 -11.34c1.74,-1.75 3.49,-4.07 5.23,-4.07 1.74,0 0.87,0.87 2.33,-0.58 0.87,-0.87 3.49,-4.07 4.65,-4.07 0.87,0 1.45,0.58 1.45,1.45 0,0.87 -4.07,4.65 -4.94,5.23l2.91 2.91 14.25 -14.25 -2.91 -2.62c-0.29,0.58 -4.94,5.24 -5.52,5.53 -1.74,0.87 -2.91,-0.87 -2.04,-2.04 1.45,-2.04 5.81,-5.24 6.69,-7.27l4.36 -9.3c0,-0.58 -5.53,-11.34 0,-22.39 0.87,-1.75 4.36,-7.85 5.81,-7.85 0.58,0 1.74,0 1.74,1.45 0,0.87 -0.87,1.45 -1.16,1.74 -1.46,1.45 -2.62,3.78 -3.49,5.24 -2.04,4.36 -2.33,6.98 -2.33,11.63 0,4.36 2.62,12.8 6.11,15.99 0.87,0.29 0.87,0.58 1.45,1.17 3.78,2.61 9.89,4.94 14.54,4.94 6.11,0 10.46,-1.16 14.83,-4.36 2.33,-1.74 6.98,-6.69 8.72,-8.72 0.58,-0.58 0.87,-1.17 1.45,-1.75 4.36,-6.4 5.53,-15.7 2.04,-22.97 -0.29,-0.58 -0.58,-1.16 -0.87,-1.74 -0.58,-0.87 -0.87,-1.16 -1.17,-2.04 -7.27,-10.18 -22.39,-13.09 -32.28,-5.52l-4.07 2.91c-0.87,0.29 -1.74,-0.29 -1.74,-1.46 0,-0.87 0.87,-1.45 1.45,-1.74 3.49,-3.2 6.11,-4.65 10.76,-5.81 1.45,-0.58 3.2,-0.87 5.23,-0.87l0 0zm-52.93 74.44l5.81 5.81 -2.61 2.91 -5.81 -5.81 2.61 -2.91zm2.04 -1.75c0.29,-0.58 2.33,-2.61 2.62,-2.61 1.16,0 2.04,1.74 2.91,2.61 0.58,0.29 0.87,0.87 1.45,1.17l0.87 1.45c0.29,0.29 0.29,-0.29 0.29,0.29 0,0.58 -2.04,2.32 -2.33,2.61l-5.81 -5.52 0 0zm22.1 -19.77c0.29,-1.16 2.91,-5.81 3.2,-7.27 0,0 4.65,6.4 7.27,6.98l0 0.58c-1.46,0.29 -5.81,2.62 -6.98,2.91l-3.49 -3.2 0 0z"/>
   <path class="fil1" d="M84.47 70.22l2.91 -2.91 2.61 2.33c-0.87,0.29 -2.04,0.58 -2.61,0.58 -0.87,0 -2.04,0 -2.91,0zm-3.2 -0.87c-0.87,-0.29 -1.45,-0.29 -2.91,-1.16 -0.87,-0.58 -2.33,-1.17 -2.62,-1.75l5.24 -5.52 4.36 4.36 -4.07 4.07zm11.34 -0.58l-3.2 -3.49 5.23 -5.52 4.36 4.36c-0.58,0.58 -2.04,1.74 -2.91,2.62 -1.16,0.87 -2.04,1.16 -3.49,2.04zm-19.19 -4.36c-0.58,-0.87 -1.16,-1.75 -1.74,-2.62 -0.29,-0.58 -0.87,-2.33 -1.16,-2.91l4.07 -4.07 4.36 4.07 -5.53 5.53zm13.96 -1.17l-4.36 -4.36 5.23 -5.23 4.36 4.07 -5.23 5.52zm13.67 -1.45l-4.36 -4.07 5.52 -5.24 3.49 3.49c-0.58,1.45 -3.49,5.23 -4.65,5.81l0 0zm-31.11 -6.11c0,-1.17 -0.29,-2.04 0,-2.91 0,-0.87 0.29,-1.74 0.29,-2.61l2.61 2.61 -2.91 2.91 0 0zm11.05 1.16l-4.07 -4.07 5.24 -5.52 4.36 4.07 -5.52 5.52zm23.26 -6.4l2.62 -2.91c0.29,2.33 0.29,3.49 -0.29,5.23l-2.33 -2.33zm-9.3 5.24l-4.36 -4.07 5.24 -5.53 4.36 4.36 -5.23 5.24zm-20.07 -4.94l-3.49 -3.49c2.33,-4.65 3.49,-4.65 4.36,-6.11l4.36 4.07 -5.24 5.52zm28.5 -12.21c0.29,0.58 0.58,0.87 0.87,1.17 0.58,1.16 1.75,3.2 2.04,4.36l-4.07 4.36 -4.36 -4.36 5.53 -5.53zm-15.12 11.05l-4.07 -4.36 5.52 -5.23 4.07 4.07 -5.52 5.52zm-6.11 -6.4l-4.07 -4.07c0.87,-1.45 4.36,-4.36 6.11,-4.65l3.49 3.2 -5.52 5.52zm13.67 -1.16l-4.07 -4.36 4.07 -4.07c1.45,0.58 4.65,2.04 5.24,2.91l-5.24 5.53zm-6.11 -6.4l-2.61 -2.33c2.04,-0.29 3.2,-0.29 5.23,-0.29l-2.61 2.62 -0 0zm-22.68 18.32c0,4.07 1.45,8.43 4.07,11.63 6.4,8.14 18.03,9.89 26.17,3.78 3.2,-2.33 5.81,-5.23 8.14,-8.14 4.65,-4.94 5.81,-13.96 2.91,-20.06 -1.45,-2.62 -2.04,-3.49 -4.07,-5.52 -6.11,-6.11 -15.7,-7.27 -22.68,-3.2 -3.78,2.33 -10.18,8.72 -11.92,11.92 -1.74,2.91 -2.62,6.11 -2.62,9.6l0 0z"/>
   <path class="fil1" d="M80.98 108.31c0,-1.74 0.87,-4.36 2.61,-4.36 0.58,0 4.07,3.49 4.65,4.36 0,0 0,0 0,0l1.45 1.46c0.87,0.87 0.58,0.58 0.58,1.16 0,2.04 -3.2,2.33 -4.65,2.33 -2.33,0 -4.65,-2.62 -4.65,-4.94zm12.21 1.74c-0.29,-0.87 -0.58,-0.87 -0.58,-1.45 0.29,-0.87 8.72,-7.27 9.89,-8.14 0.58,-0.58 1.16,-1.16 1.74,-1.45 1.17,-0.87 1.45,-1.45 2.33,-1.45 3.78,0 5.52,5.81 0.87,7.56l-4.65 1.74c-1.74,0.58 -3.2,1.17 -4.65,1.75 -0.87,0.29 -1.74,0.58 -2.61,0.87 -0.58,0.29 -1.75,0.58 -2.33,0.58l0 -0zm-2.91 -3.78l-2.33 -2.33c0.87,-1.45 2.04,-2.61 3.2,-4.07 1.16,-1.45 7.56,-10.18 9.01,-10.46 3.2,-1.46 5.24,1.45 5.24,3.2 0,2.62 -2.62,3.78 -4.94,5.81 -1.45,1.17 -9.3,7.85 -10.18,7.85l0 0zm-4.36 -4.36c-0.58,-0.29 -1.16,-0.58 -1.74,-0.87 0,-0.58 0.58,-2.04 0.87,-2.91l3.49 -9.01c0.87,-2.33 0.87,-4.07 3.49,-4.94 2.04,-0.58 4.65,1.16 4.65,4.07 0,0.58 -8.14,10.47 -9.3,11.92 -0.58,0.58 -1.17,1.17 -1.46,1.75l0 -0zm-7.85 6.11c0,5.81 6.11,10.46 12.5,6.98 1.16,-0.58 0.58,-0.87 3.2,-1.74l14.54 -5.52c2.33,-0.87 4.65,-2.91 4.65,-5.82 0,-2.04 0,-3.2 -1.75,-4.94 -1.74,-1.74 -2.04,-1.16 -3.49,-2.04 0.87,-2.04 0.29,-5.24 -1.45,-6.69 -1.74,-2.04 -4.94,-2.61 -6.98,-1.74 -0.58,-2.62 -2.91,-5.24 -6.11,-5.24 -3.2,0 -5.52,1.46 -6.69,4.65 -0.87,2.91 -5.53,15.7 -6.11,16.57 -1.45,1.45 -2.32,3.2 -2.32,5.52l0 0z"/>
  </g>
 </g>
</svg>
