<?xml version="1.0" encoding="UTF-8"?>
<!DOCTYPE svg PUBLIC "-//W3C//DTD SVG 1.1//EN" "http://www.w3.org/Graphics/SVG/1.1/DTD/svg11.dtd">
<!-- Creator: CorelDRAW -->
<svg xmlns="http://www.w3.org/2000/svg" xml:space="preserve" width="0.14in" height="0.14in" version="1.1" style="shape-rendering:geometricPrecision; text-rendering:geometricPrecision; image-rendering:optimizeQuality; fill-rule:evenodd; clip-rule:evenodd"
viewBox="0 0 140 140"
 xmlns:xlink="http://www.w3.org/1999/xlink"
 xmlns:xodm="http://www.corel.com/coreldraw/odm/2003">
 <defs>
  <style type="text/css">
   <![CDATA[
    .str0 {stroke:#1C2335;stroke-width:1.77;stroke-miterlimit:2.61313}
    .str1 {stroke:#1C2335;stroke-width:0.88;stroke-miterlimit:2.61313}
    .fil0 {fill:none}
    .fil2 {fill:none;fill-rule:nonzero}
    .fil1 {fill:#1C2335}
    .fil3 {fill:#1C2335;fill-rule:nonzero}
   ]]>
  </style>
 </defs>
 <g id="Layer_x0020_1">
  <metadata id="CorelCorpID_0Corel-Layer"/>
  <rect class="fil0" width="140" height="140"/>
  <g id="_1819801996448">
   <g>
    <path class="fil0 str0" d="M134.7 89.19c10.6,-35.73 -9.78,-73.29 -45.51,-83.89 -35.73,-10.6 -73.29,9.78 -83.89,45.51 -10.6,35.73 9.78,73.29 45.51,83.89 35.73,10.6 73.29,-9.78 83.89,-45.51z"/>
   </g>
   <g id="_2562358809600">
    <g>
     <g>
      <path class="fil0 str1" d="M61.99 96.09c0.59,0 0.88,0 1.47,0.3l5.29 1.76c0.88,0.3 1.76,0.3 2.35,0l5.59 -1.76c0.88,-0.3 1.76,-0.3 2.65,0l5.58 1.47c0.3,0 0.59,0 0.88,-0.29 0.3,0 0.59,-0.59 0.59,-0.89l0 -12.34c0,-1.18 -0.88,-2.06 -2.06,-2.06l-28.81 0c-0.88,0 -2.06,0.88 -2.06,2.06l0 12.34c0,0.3 0.29,0.89 0.59,0.89 0.3,0.29 0.88,0.29 1.18,0.29l5.29 -1.47c0.59,-0.3 0.88,-0.3 1.47,-0.3zm7.94 3.24c-0.3,0 -0.88,0 -1.47,-0.3l-5.29 -1.76c-0.88,-0.3 -1.47,-0.3 -2.35,0l-5.29 1.47c-0.88,0.3 -1.47,0.3 -2.06,-0.29 -0.59,-0.3 -0.88,-1.18 -0.88,-1.77l0 -12.34c0,-1.76 1.47,-3.23 2.94,-3.23l28.81 0c1.76,0 3.23,1.47 3.23,3.23l0 12.34c0,0.59 -0.59,1.47 -1.17,1.77 -0.59,0.59 -1.18,0.59 -1.76,0.29l-5.59 -1.47c-0.59,-0.3 -1.47,-0.3 -2.06,0l-5.59 1.76c-0.3,0.3 -0.88,0.3 -1.47,0.3z"/>
      <path id="_1" class="fil1" d="M61.99 96.09c0.59,0 0.88,0 1.47,0.3l5.29 1.76c0.88,0.3 1.76,0.3 2.35,0l5.59 -1.76c0.88,-0.3 1.76,-0.3 2.65,0l5.58 1.47c0.3,0 0.59,0 0.88,-0.29 0.3,0 0.59,-0.59 0.59,-0.89l0 -12.34c0,-1.18 -0.88,-2.06 -2.06,-2.06l-28.81 0c-0.88,0 -2.06,0.88 -2.06,2.06l0 12.34c0,0.3 0.29,0.89 0.59,0.89 0.3,0.29 0.88,0.29 1.18,0.29l5.29 -1.47c0.59,-0.3 0.88,-0.3 1.47,-0.3zm7.94 3.24c-0.3,0 -0.88,0 -1.47,-0.3l-5.29 -1.76c-0.88,-0.3 -1.47,-0.3 -2.35,0l-5.29 1.47c-0.88,0.3 -1.47,0.3 -2.06,-0.29 -0.59,-0.3 -0.88,-1.18 -0.88,-1.77l0 -12.34c0,-1.76 1.47,-3.23 2.94,-3.23l28.81 0c1.76,0 3.23,1.47 3.23,3.23l0 12.34c0,0.59 -0.59,1.47 -1.17,1.77 -0.59,0.59 -1.18,0.59 -1.76,0.29l-5.59 -1.47c-0.59,-0.3 -1.47,-0.3 -2.06,0l-5.59 1.76c-0.3,0.3 -0.88,0.3 -1.47,0.3z"/>
     </g>
     <g>
      <path class="fil0 str1" d="M55.52 73.16l0 2.65c0,0.88 0.59,1.47 1.47,1.47 0.88,0 1.47,-0.59 1.47,-1.47l0 -2.65 -2.94 0 0 0zm1.47 5.29c-1.47,0 -2.65,-1.18 -2.65,-2.65l0 -3.23c0,-0.3 0.29,-0.3 0.59,-0.3l4.12 0c0.29,0 0.29,0 0.29,0.3l0 3.23c0,1.47 -0.88,2.65 -2.35,2.65l0 0z"/>
      <path id="_1_0" class="fil1" d="M55.52 73.16l0 2.65c0,0.88 0.59,1.47 1.47,1.47 0.88,0 1.47,-0.59 1.47,-1.47l0 -2.65 -2.94 0 0 0zm1.47 5.29c-1.47,0 -2.65,-1.18 -2.65,-2.65l0 -3.23c0,-0.3 0.29,-0.3 0.59,-0.3l4.12 0c0.29,0 0.29,0 0.29,0.3l0 3.23c0,1.47 -0.88,2.65 -2.35,2.65l0 0z"/>
     </g>
     <g>
      <path class="fil0 str1" d="M57 82.27c-0.3,0 -0.59,-0.29 -0.59,-0.59l0 -3.82c0,-0.3 0.3,-0.59 0.59,-0.59 0.29,0 0.59,0.3 0.59,0.59l0 3.82c0,0.3 -0.29,0.59 -0.59,0.59z"/>
      <path id="_1_1" class="fil1" d="M57 82.27c-0.3,0 -0.59,-0.29 -0.59,-0.59l0 -3.82c0,-0.3 0.3,-0.59 0.59,-0.59 0.29,0 0.59,0.3 0.59,0.59l0 3.82c0,0.3 -0.29,0.59 -0.59,0.59z"/>
     </g>
     <g>
      <path class="fil0 str1" d="M61.99 73.16l0 2.65c0,0.88 0.59,1.47 1.47,1.47 0.88,0 1.47,-0.59 1.47,-1.47l0 -2.65 -2.94 0 0 0zm1.47 5.29c-1.47,0 -2.65,-1.18 -2.65,-2.65l0 -3.23c0,-0.3 0.3,-0.3 0.59,-0.3l4.11 0c0.3,0 0.59,0 0.59,0.3l0 3.23c0,1.47 -1.18,2.65 -2.65,2.65l-0 0z"/>
      <path id="_1_2" class="fil1" d="M61.99 73.16l0 2.65c0,0.88 0.59,1.47 1.47,1.47 0.88,0 1.47,-0.59 1.47,-1.47l0 -2.65 -2.94 0 0 0zm1.47 5.29c-1.47,0 -2.65,-1.18 -2.65,-2.65l0 -3.23c0,-0.3 0.3,-0.3 0.59,-0.3l4.11 0c0.3,0 0.59,0 0.59,0.3l0 3.23c0,1.47 -1.18,2.65 -2.65,2.65l-0 0z"/>
     </g>
     <g>
      <path class="fil0 str1" d="M63.46 82.27c-0.29,0 -0.59,-0.29 -0.59,-0.59l0 -3.82c0,-0.3 0.29,-0.59 0.59,-0.59 0.3,0 0.59,0.3 0.59,0.59l0 3.82c0,0.3 -0.3,0.59 -0.59,0.59z"/>
      <path id="_1_3" class="fil1" d="M63.46 82.27c-0.29,0 -0.59,-0.29 -0.59,-0.59l0 -3.82c0,-0.3 0.29,-0.59 0.59,-0.59 0.3,0 0.59,0.3 0.59,0.59l0 3.82c0,0.3 -0.3,0.59 -0.59,0.59z"/>
     </g>
     <g>
      <path class="fil0 str1" d="M68.46 73.16l0 2.65c0,0.88 0.59,1.47 1.47,1.47 0.88,0 1.47,-0.59 1.47,-1.47l0 -2.65 -2.94 0 0 0zm1.47 5.29c-1.47,0 -2.35,-1.18 -2.35,-2.65l0 -3.23c0,-0.3 0,-0.3 0.29,-0.3l4.11 0c0.3,0 0.59,0 0.59,0.3l0 3.23c0,1.47 -1.18,2.65 -2.65,2.65l0 0z"/>
      <path id="_1_4" class="fil1" d="M68.46 73.16l0 2.65c0,0.88 0.59,1.47 1.47,1.47 0.88,0 1.47,-0.59 1.47,-1.47l0 -2.65 -2.94 0 0 0zm1.47 5.29c-1.47,0 -2.35,-1.18 -2.35,-2.65l0 -3.23c0,-0.3 0,-0.3 0.29,-0.3l4.11 0c0.3,0 0.59,0 0.59,0.3l0 3.23c0,1.47 -1.18,2.65 -2.65,2.65l0 0z"/>
     </g>
     <g>
      <path class="fil0 str1" d="M69.93 82.27c-0.3,0 -0.59,-0.29 -0.59,-0.59l0 -3.82c0,-0.3 0.3,-0.59 0.59,-0.59 0.29,0 0.59,0.3 0.59,0.59l0 3.82c0,0.3 -0.29,0.59 -0.59,0.59z"/>
      <path id="_1_5" class="fil1" d="M69.93 82.27c-0.3,0 -0.59,-0.29 -0.59,-0.59l0 -3.82c0,-0.3 0.3,-0.59 0.59,-0.59 0.29,0 0.59,0.3 0.59,0.59l0 3.82c0,0.3 -0.29,0.59 -0.59,0.59z"/>
     </g>
     <g>
      <path class="fil0 str1" d="M76.1 81.1l7.05 0 0.59 -4.41 -8.23 0 0.59 4.41 0 0zm7.64 1.17l-7.94 0c-0.3,0 -0.59,-0.29 -0.59,-0.59l-0.88 -5.59c0,0 0,-0.29 0,-0.29 0.3,0 0.3,-0.3 0.59,-0.3l9.41 0c0.29,0 0.29,0.3 0.59,0.3 0,0 0,0.29 0,0.29l-0.88 5.59c0,0.3 0,0.59 -0.29,0.59z"/>
      <path id="_1_6" class="fil1" d="M76.1 81.1l7.05 0 0.59 -4.41 -8.23 0 0.59 4.41 0 0zm7.64 1.17l-7.94 0c-0.3,0 -0.59,-0.29 -0.59,-0.59l-0.88 -5.59c0,0 0,-0.29 0,-0.29 0.3,0 0.3,-0.3 0.59,-0.3l9.41 0c0.29,0 0.29,0.3 0.59,0.3 0,0 0,0.29 0,0.29l-0.88 5.59c0,0.3 0,0.59 -0.29,0.59z"/>
     </g>
     <g>
      <path class="fil0 str1" d="M77.28 75.51l4.7 0 0.59 -4.41 -5.88 0 0.59 4.41 -0 0zm5.29 1.18l-5.88 0c-0.3,0 -0.59,-0.3 -0.59,-0.59l-0.59 -5.58c0,0 0,-0.3 0.3,-0.3 0,0 0.29,-0.29 0.29,-0.29l7.06 0c0.29,0 0.29,0.29 0.29,0.29 0.3,0 0.3,0.3 0.3,0.3l-0.59 5.58c0,0.3 -0.3,0.59 -0.59,0.59l0 0z"/>
      <path id="_1_7" class="fil1" d="M77.28 75.51l4.7 0 0.59 -4.41 -5.88 0 0.59 4.41 -0 0zm5.29 1.18l-5.88 0c-0.3,0 -0.59,-0.3 -0.59,-0.59l-0.59 -5.58c0,0 0,-0.3 0.3,-0.3 0,0 0.29,-0.29 0.29,-0.29l7.06 0c0.29,0 0.29,0.29 0.29,0.29 0.3,0 0.3,0.3 0.3,0.3l-0.59 5.58c0,0.3 -0.3,0.59 -0.59,0.59l0 0z"/>
     </g>
     <g>
      <path class="fil0 str1" d="M56.7 75.51l-1.76 0c-0.3,0 -0.59,-0.29 -0.59,-0.59 0,-0.3 0.29,-0.59 0.59,-0.59l1.76 0c0,0 0.3,0.3 0.3,0.59 0,0.29 -0.3,0.59 -0.3,0.59z"/>
      <path id="_1_8" class="fil1" d="M56.7 75.51l-1.76 0c-0.3,0 -0.59,-0.29 -0.59,-0.59 0,-0.3 0.29,-0.59 0.59,-0.59l1.76 0c0,0 0.3,0.3 0.3,0.59 0,0.29 -0.3,0.59 -0.3,0.59z"/>
     </g>
     <g>
      <path class="fil0 str1" d="M63.17 75.51l-1.76 0c-0.3,0 -0.59,-0.29 -0.59,-0.59 0,-0.3 0.3,-0.59 0.59,-0.59l1.76 0c0.29,0 0.29,0.3 0.29,0.59 0,0.29 0,0.59 -0.29,0.59z"/>
      <path id="_1_9" class="fil1" d="M63.17 75.51l-1.76 0c-0.3,0 -0.59,-0.29 -0.59,-0.59 0,-0.3 0.3,-0.59 0.59,-0.59l1.76 0c0.29,0 0.29,0.3 0.29,0.59 0,0.29 0,0.59 -0.29,0.59z"/>
     </g>
     <g>
      <path class="fil0 str1" d="M69.63 75.51l-1.76 0c-0.29,0 -0.29,-0.29 -0.29,-0.59 0,-0.3 0,-0.59 0.29,-0.59l1.76 0c0.3,0 0.3,0.3 0.3,0.59 0,0.29 0,0.59 -0.3,0.59z"/>
      <path id="_1_10" class="fil1" d="M69.63 75.51l-1.76 0c-0.29,0 -0.29,-0.29 -0.29,-0.59 0,-0.3 0,-0.59 0.29,-0.59l1.76 0c0.3,0 0.3,0.3 0.3,0.59 0,0.29 0,0.59 -0.3,0.59z"/>
     </g>
     <g>
      <path class="fil0 str1" d="M86.98 87.27l-33.8 0c-0.29,0 -0.59,-0.3 -0.59,-0.59 0,-0.29 0.29,-0.29 0.59,-0.29l33.8 0c0.3,0 0.59,0 0.59,0.29 0,0.3 -0.29,0.59 -0.59,0.59z"/>
      <path id="_1_11" class="fil1" d="M86.98 87.27l-33.8 0c-0.29,0 -0.59,-0.3 -0.59,-0.59 0,-0.29 0.29,-0.29 0.59,-0.29l33.8 0c0.3,0 0.59,0 0.59,0.29 0,0.3 -0.29,0.59 -0.59,0.59z"/>
     </g>
     <g>
      <path class="fil0 str1" d="M73.75 104.02l-7.64 0c-0.3,0 -0.3,0 -0.3,-0.29l-2.06 -6.47c0,-0.29 0,-0.59 0.29,-0.59 0.3,0 0.59,0 0.59,0.29l2.06 6.17 6.76 0 1.76 -6.17c0,-0.29 0.29,-0.29 0.59,-0.29 0.3,0 0.59,0.29 0.3,0.59l-1.76 6.47c0,0.29 -0.3,0.29 -0.59,0.29z"/>
      <path id="_1_12" class="fil1" d="M73.75 104.02l-7.64 0c-0.3,0 -0.3,0 -0.3,-0.29l-2.06 -6.47c0,-0.29 0,-0.59 0.29,-0.59 0.3,0 0.59,0 0.59,0.29l2.06 6.17 6.76 0 1.76 -6.17c0,-0.29 0.29,-0.29 0.59,-0.29 0.3,0 0.59,0.29 0.3,0.59l-1.76 6.47c0,0.29 -0.3,0.29 -0.59,0.29z"/>
     </g>
     <g>
      <path class="fil0 str1" d="M61.99 104.02c-0.88,0 -1.47,0.59 -1.47,1.47 0,0.88 0.59,1.47 1.47,1.47l16.17 0c0.88,0 1.47,-0.59 1.47,-1.47 0,-0.88 -0.59,-1.47 -1.47,-1.47l-16.17 0zm16.17 3.82l-16.17 0c-1.47,0 -2.65,-0.88 -2.65,-2.35 0,-1.47 1.18,-2.35 2.65,-2.35l16.17 0c1.47,0 2.35,0.88 2.35,2.35 0,1.47 -0.88,2.35 -2.35,2.35z"/>
      <path id="_1_13" class="fil1" d="M61.99 104.02c-0.88,0 -1.47,0.59 -1.47,1.47 0,0.88 0.59,1.47 1.47,1.47l16.17 0c0.88,0 1.47,-0.59 1.47,-1.47 0,-0.88 -0.59,-1.47 -1.47,-1.47l-16.17 0zm16.17 3.82l-16.17 0c-1.47,0 -2.65,-0.88 -2.65,-2.35 0,-1.47 1.18,-2.35 2.65,-2.35l16.17 0c1.47,0 2.35,0.88 2.35,2.35 0,1.47 -0.88,2.35 -2.35,2.35z"/>
     </g>
    </g>
    <g>
     <path class="fil2 str1" d="M115.78 106.67l-6.47 0 0 -10.29 0.3 0c0,0 0,0 0,0 0.29,0 0.59,0 0.59,-0.29 0,0 0.3,-0.3 0.3,-0.3l0 -49.97 5.29 0c0.29,0 0.59,-0.59 0.59,-0.88l0 -4.11c0,-0.3 -0.3,-0.59 -0.3,-0.88l-45.85 -18.81c0,-0.29 -0.3,-0.29 -0.59,0l-45.56 18.81c-0.3,0.29 -0.59,0.59 -0.59,0.88l0 4.11c0,0.29 0.59,0.88 0.88,0.88l5 0 0 49.97c0,0 0.29,0.3 0.29,0.3 0.3,0.29 0.3,0.29 0.59,0.29 0,0 0,0 0,0l0.29 0 0 10.29 -6.17 0c-0.29,0 -0.88,0.59 -0.88,0.88l0 5.59c0,0.29 0.59,0.59 0.88,0.59l91.41 0c0.3,0 0.59,-0.29 0.59,-0.59l0 -5.59c0,-0.29 -0.3,-0.88 -0.59,-0.88l0 0zm-7.94 0l0 0 -2.35 0 0 -11.17c0.29,0.3 0.88,0.3 1.17,0.3l1.18 0.29 0 10.58 0 0zm-27.34 0l0 0 -1.47 0 -18.22 0 -1.47 0 -6.76 0 -16.76 0 0 -11.76c1.18,-0.59 2.06,-1.47 2.65,-2.65 0,0 0,0 0,-0.3 0.3,0 0.3,-0.29 0.3,-0.59 0,0 0,0 0,0 0,-0.3 0.59,-0.3 0.88,-0.3 0,0 0,0 0,0 0,0 0,0 0.3,0 0.88,0 1.76,-0.59 1.76,-1.47 0,0 0,0 0,0 0,0 0,0 0,0 0.29,0 0.29,0 0.29,-0.3 0,0 0,0 0,0 -0.88,-7.93 -2.65,-12.05 -6.17,-17.34 0.3,-0.29 0.3,-0.88 0.3,-1.17 0.29,0 0.59,0 0.88,0 7.35,0 13.23,-5.88 13.23,-13.23l0 -4.7c3.52,0.88 7.05,1.47 10.58,1.76 0.59,0.59 1.47,0.88 2.35,1.17 1.47,2.35 4.41,3.24 6.76,2.35 0.59,0.29 1.47,0.29 2.06,0.29 1.76,0 3.82,-0.88 4.7,-2.65 0.88,-0.29 1.76,-0.59 2.35,-1.17 3.53,-0.3 7.06,-0.88 10.58,-1.76l0 4.7 0 0c0,7.35 5.88,13.23 13.23,13.23 0.3,0 0.59,0 0.88,0 0,0.29 0.3,0.88 0.3,1.17 -3.53,5.29 -5.29,9.41 -5.88,17.34 0,0 0,0 0,0 0,0.3 0,0.3 0,0.3 0,0 0,0 0,0 0,0 0,0 0,0 0.29,0.88 0.88,1.47 1.76,1.47 0.29,0 0.29,0 0.59,0 0,0 0,0 0,0 0.3,0 0.59,0 0.59,0.3 0,0.29 0.29,0.59 0.29,0.59 0,0.3 0,0.3 0,0.3 0.59,1.18 1.47,2.06 2.65,2.65l0 11.76 -18.81 0 -4.7 0zm28.51 -11.76l0 0 -1.17 -0.3c-0.88,-9.41 -0.59,-16.46 1.17,-23.81 0,0 0,0 0,0l0 24.1 0 0zm-4.11 -0.88l0 0c0,0 0,0 0,0 -0.88,-0.59 -1.76,-1.47 -2.06,-2.35 0.3,-8.23 1.47,-13.52 4.41,-19.7 0,0 0,0 0,0 -1.17,6.76 -1.76,13.52 -0.88,22.34 -0.59,0 -0.88,0 -1.47,-0.3zm-4.7 -4.41l0 0c0,0 0,0 0,0 -0.3,0 -0.59,0 -0.88,-0.3 0.88,-7.64 2.64,-11.46 5.88,-16.75 0,0 0,0 0.29,0 -2.65,5.58 -3.53,10.58 -4.11,17.34 -0.3,-0.3 -0.88,-0.3 -1.18,-0.3l0 0zm-60.55 0l0 0c0,0 0,0 0,0 -0.3,0 -0.88,0 -1.18,0.3 -0.29,-6.76 -1.47,-11.76 -3.82,-17.34 0,0 0,0 0,0 3.23,5.29 5,9.11 5.88,16.75 -0.3,0.3 -0.59,0.3 -0.88,0.3l0 0zm1.47 -39.09l0 0c-1.17,6.76 -4.11,12.64 -8.82,16.76 -0.29,-0.59 -0.59,-1.18 -0.88,-1.76 2.35,-4.41 3.82,-10.58 4.41,-17.05 1.47,0.59 3.23,1.47 5.29,2.06zm-6.76 18.22l0 0c-0.3,-0.29 -0.59,-0.29 -0.88,-0.59 4.7,-4.12 7.94,-10.29 8.82,-17.34 1.76,0.59 3.82,1.17 5.58,1.47 -2.06,6.76 -6.76,12.64 -13.52,16.46l0 0zm-3.53 -1.17l0 0c0.3,0.29 0.59,0.59 0.88,0.88 0,0 0,0 0,0 0,0 0,0 0,0 0,0 0,0.29 0,0.29 0.59,0.59 1.47,0.88 2.35,1.47 0,0 0,0 0,0 0,0 0,0 0,0 0.3,0 0.59,0 0.59,0.3 0,0 0,0 0,0 0,0.3 0,0.59 0,0.59 -1.47,-0.29 -2.65,-1.17 -3.82,-2.35l0 -1.17 0 0zm17.93 -13.82l0 0 0 3.82c0,6.46 -5.29,11.76 -11.76,11.76 -0.3,0 -0.59,0 -0.88,0 6.17,-3.82 10.58,-9.11 12.64,-15.58l0 0zm0.88 -2.35l0 0c-5.29,-1.17 -9.7,-2.65 -14.11,-4.7 2.64,0.59 5.29,1.17 7.93,1.76 5.29,0.59 10.29,1.17 15.29,1.47 0.29,0 0.29,0 0.29,0.3 0,0.88 0,2.06 0.59,2.94 -3.23,-0.29 -6.76,-0.88 -10,-1.76zm10 -7.06l0 0c1.76,2.35 3.82,3.53 6.46,3.53 0.59,0 1.18,0 1.76,-0.29 -2.35,2.35 -5,2.94 -7.93,1.47 -0.88,-1.18 -1.18,-3.23 -0.3,-4.7l0 0zm20.28 -0.29l0 0c0,0 0.3,0 0.3,0 0.88,1.47 0.88,3.23 0,4.7 0,0 0,0 0,0 -2.06,-2.64 -4.7,-3.82 -8.23,-3.23 2.35,-2.35 5,-2.94 7.94,-1.47zm-18.22 9.41l0 0c0,0 0,0 0,0 -0.88,-0.59 -1.17,-1.76 -1.47,-2.65 1.18,0.3 2.06,0.59 2.94,0.59 2.06,0 4.11,-0.88 5.88,-2.94 -0.3,2.35 -1.47,4.11 -3.23,5.29 0,0 0,0 0,0 -0.88,0.29 -1.47,0.59 -2.35,0.88 -0.59,-0.3 -1.18,-0.59 -1.77,-1.18l0 0zm8.82 -4.7l0 0c1.47,2.94 1.18,5.59 -1.17,7.94 -1.76,0.59 -3.53,0.3 -4.7,-1.18 3.23,-0.88 5.29,-3.23 5.88,-6.76zm1.18 -0.88l0 0c2.94,1.76 4.11,4.12 3.82,7.35 -1.17,1.47 -2.94,2.06 -4.41,1.76 2.06,-2.65 2.06,-5.59 0.59,-9.11l0 -0zm0.59 -1.17l0 0c3.23,-0.3 5.59,0.88 7.35,3.82 0,0 0,0 0,0 0,1.76 -1.18,3.23 -2.65,3.82 0,-3.24 -1.47,-5.88 -4.7,-7.65l0 0zm8.82 3.53l0 0c0,-0.3 0,-0.3 0,-0.3 5,-0.3 10.29,-0.88 15.28,-1.47 2.65,-0.59 5.29,-1.18 7.94,-1.47 -4.11,1.76 -8.52,3.23 -13.23,4.11 0,0.29 0,0 0,0.29 0,0 -0.29,0 -0.29,0 0,0 -0.3,0 -0.3,0 -0.29,0 -0.29,0 -0.29,0 0,0 0,0 -0.3,0 -3.23,0.88 -6.47,1.18 -9.7,1.77 0.59,-0.89 0.88,-2.06 0.88,-2.94l0 0zm24.1 20.87l0 0c0,0 0,-0.29 0,-0.59 0,0 0,0 0,0 0.3,-0.3 0.3,-0.3 0.59,-0.3 0,0 0,0 0,0 0,0 0,0 0,0 0.89,-0.59 1.77,-0.88 2.35,-1.76 0.29,-0.29 0.59,-0.59 0.88,-0.88l0 1.18c-0.88,1.18 -2.35,2.06 -3.82,2.35l0 0zm-7.64 -20.28l0 0c1.17,7.06 4.41,13.23 9.11,17.34 -0.29,0.3 -0.59,0.3 -1.17,0.59 -6.76,-3.52 -11.46,-9.7 -13.52,-16.46 2.06,-0.29 3.82,-0.88 5.59,-1.47l0 0zm9.99 16.46l0 0c-4.41,-4.11 -7.64,-9.99 -8.82,-16.76 2.06,-0.59 3.82,-1.47 5.59,-2.06 0.3,6.46 1.76,12.64 4.11,17.05 0,0.59 -0.29,1.18 -0.88,1.76zm-16.46 -13.52l0 0c2.06,6.47 6.47,11.76 12.64,15.58 -0.3,0 -0.59,0 -0.89,0 -6.46,0 -11.76,-5.29 -11.76,-11.76l0 -3.82 0 0zm17.93 -3.23l0 0c0,0 0,0 0,0l0 12.64c0,0 0,0.29 0,0.29 -2.06,-4.11 -3.23,-9.7 -3.52,-15.58 1.17,-0.59 2.35,-1.17 3.52,-1.76l0 4.41 0 0zm-6.46 -4.7l0 0c0.29,0 0.29,0 0.29,0 -2.35,0.29 -4.41,0.88 -6.76,1.17 -4.7,0.59 -9.41,1.18 -14.4,1.47 0.59,-0.88 0.59,-1.76 0.59,-2.64l20.28 0zm-31.74 -1.47l0 0c0.59,-3.23 2.65,-5 5.88,-5.58 0,0 0,0 0,0 1.76,0.59 2.65,2.06 2.94,3.53 -3.24,-0.88 -6.17,-0.3 -8.82,2.06zm-1.18 0l0 0c-1.76,-2.94 -1.47,-5.58 0.88,-7.93 0.3,-0.3 1.47,-0.59 2.94,-0.3 0.88,0.3 1.47,0.88 1.76,1.47 -3.23,0.88 -5,3.24 -5.58,6.76l-0 0zm-1.47 0.59l0 0c-2.94,-1.47 -4.12,-3.82 -3.82,-7.06 0.88,-1.17 2.06,-2.06 3.53,-2.06 0.3,0 0.59,0.3 0.88,0.3 -2.06,2.65 -2.06,5.59 -0.59,8.82zm-0.59 1.47l0 0c-3.24,0.3 -5.59,-0.59 -7.35,-3.53 0,-1.76 1.18,-3.53 2.65,-4.11 0,3.23 1.47,5.88 4.7,7.64l0 0zm-9.41 2.06l0 0c-4.7,-0.3 -9.7,-0.88 -14.4,-1.47 -2.35,-0.3 -4.7,-0.88 -7.06,-1.18l21.17 0c-0.3,0.88 0,1.76 0.29,2.65zm-23.81 -0.59l0 0c-0.3,5.88 -1.47,11.46 -3.53,15.58 0,0 0,-0.29 0,-0.29l0 -12.64c0,0 0,0 0,0l0 -4.41c1.18,0.59 2.35,1.17 3.53,1.76l0 -0zm-3.53 47.03l0 0 0 -24.1c0,0 0,0 0,0 1.76,7.35 2.06,14.4 1.47,23.81l-1.47 0.29 0 0zm1.76 -22.93l0 0c0,0 0,0 0,0 2.94,6.17 4.41,11.46 4.7,19.7 -0.59,0.88 -1.47,1.76 -2.35,2.35 0,0 0,0 0,0 -0.29,0.3 -0.88,0.3 -1.47,0.3 0.88,-8.82 0.59,-15.58 -0.88,-22.34zm-7.64 -30.86l0 0 44.97 -18.81 44.97 18.81 0 3.23 -33.22 0c0,-0.59 -0.3,-0.88 -0.59,-1.47 0,-2.65 -1.77,-5 -4.41,-5.58 -0.3,-0.88 -1.18,-1.76 -2.94,-2.35 -1.76,-0.59 -2.94,-0.29 -3.82,0 -2.35,-0.88 -5.29,0 -6.76,2.35 -2.64,0.59 -4.41,2.94 -4.11,5.58 -0.3,0.59 -0.59,0.88 -0.88,1.47l-33.22 0 0 -3.23 0 0zm7.06 54.96l0 0 1.17 0c0.3,-0.29 0.88,-0.29 1.47,-0.59l0 11.17 -2.65 0 0 -10.58zm82.89 16.17l0 0 -89.94 0 0 -4.12 6.46 0 3.82 0 24.69 0 19.99 0 24.69 0 4.12 0 6.17 0 0 4.12z"/>
     <path id="_1_14" class="fil3" d="M115.78 106.67l-6.47 0 0 -10.29 0.3 0c0,0 0,0 0,0 0.29,0 0.59,0 0.59,-0.29 0,0 0.3,-0.3 0.3,-0.3l0 -49.97 5.29 0c0.29,0 0.59,-0.59 0.59,-0.88l0 -4.11c0,-0.3 -0.3,-0.59 -0.3,-0.88l-45.85 -18.81c0,-0.29 -0.3,-0.29 -0.59,0l-45.56 18.81c-0.3,0.29 -0.59,0.59 -0.59,0.88l0 4.11c0,0.29 0.59,0.88 0.88,0.88l5 0 0 49.97c0,0 0.29,0.3 0.29,0.3 0.3,0.29 0.3,0.29 0.59,0.29 0,0 0,0 0,0l0.29 0 0 10.29 -6.17 0c-0.29,0 -0.88,0.59 -0.88,0.88l0 5.59c0,0.29 0.59,0.59 0.88,0.59l91.41 0c0.3,0 0.59,-0.29 0.59,-0.59l0 -5.59c0,-0.29 -0.3,-0.88 -0.59,-0.88l0 0zm-7.94 0l0 0 -2.35 0 0 -11.17c0.29,0.3 0.88,0.3 1.17,0.3l1.18 0.29 0 10.58 0 0zm-27.34 0l0 0 -1.47 0 -18.22 0 -1.47 0 -6.76 0 -16.76 0 0 -11.76c1.18,-0.59 2.06,-1.47 2.65,-2.65 0,0 0,0 0,-0.3 0.3,0 0.3,-0.29 0.3,-0.59 0,0 0,0 0,0 0,-0.3 0.59,-0.3 0.88,-0.3 0,0 0,0 0,0 0,0 0,0 0.3,0 0.88,0 1.76,-0.59 1.76,-1.47 0,0 0,0 0,0 0,0 0,0 0,0 0.29,0 0.29,0 0.29,-0.3 0,0 0,0 0,0 -0.88,-7.93 -2.65,-12.05 -6.17,-17.34 0.3,-0.29 0.3,-0.88 0.3,-1.17 0.29,0 0.59,0 0.88,0 7.35,0 13.23,-5.88 13.23,-13.23l0 -4.7c3.52,0.88 7.05,1.47 10.58,1.76 0.59,0.59 1.47,0.88 2.35,1.17 1.47,2.35 4.41,3.24 6.76,2.35 0.59,0.29 1.47,0.29 2.06,0.29 1.76,0 3.82,-0.88 4.7,-2.65 0.88,-0.29 1.76,-0.59 2.35,-1.17 3.53,-0.3 7.06,-0.88 10.58,-1.76l0 4.7 0 0c0,7.35 5.88,13.23 13.23,13.23 0.3,0 0.59,0 0.88,0 0,0.29 0.3,0.88 0.3,1.17 -3.53,5.29 -5.29,9.41 -5.88,17.34 0,0 0,0 0,0 0,0.3 0,0.3 0,0.3 0,0 0,0 0,0 0,0 0,0 0,0 0.29,0.88 0.88,1.47 1.76,1.47 0.29,0 0.29,0 0.59,0 0,0 0,0 0,0 0.3,0 0.59,0 0.59,0.3 0,0.29 0.29,0.59 0.29,0.59 0,0.3 0,0.3 0,0.3 0.59,1.18 1.47,2.06 2.65,2.65l0 11.76 -18.81 0 -4.7 0zm28.51 -11.76l0 0 -1.17 -0.3c-0.88,-9.41 -0.59,-16.46 1.17,-23.81 0,0 0,0 0,0l0 24.1 0 0zm-4.11 -0.88l0 0c0,0 0,0 0,0 -0.88,-0.59 -1.76,-1.47 -2.06,-2.35 0.3,-8.23 1.47,-13.52 4.41,-19.7 0,0 0,0 0,0 -1.17,6.76 -1.76,13.52 -0.88,22.34 -0.59,0 -0.88,0 -1.47,-0.3zm-4.7 -4.41l0 0c0,0 0,0 0,0 -0.3,0 -0.59,0 -0.88,-0.3 0.88,-7.64 2.64,-11.46 5.88,-16.75 0,0 0,0 0.29,0 -2.65,5.58 -3.53,10.58 -4.11,17.34 -0.3,-0.3 -0.88,-0.3 -1.18,-0.3l0 0zm-60.55 0l0 0c0,0 0,0 0,0 -0.3,0 -0.88,0 -1.18,0.3 -0.29,-6.76 -1.47,-11.76 -3.82,-17.34 0,0 0,0 0,0 3.23,5.29 5,9.11 5.88,16.75 -0.3,0.3 -0.59,0.3 -0.88,0.3l0 0zm1.47 -39.09l0 0c-1.17,6.76 -4.11,12.64 -8.82,16.76 -0.29,-0.59 -0.59,-1.18 -0.88,-1.76 2.35,-4.41 3.82,-10.58 4.41,-17.05 1.47,0.59 3.23,1.47 5.29,2.06zm-6.76 18.22l0 0c-0.3,-0.29 -0.59,-0.29 -0.88,-0.59 4.7,-4.12 7.94,-10.29 8.82,-17.34 1.76,0.59 3.82,1.17 5.58,1.47 -2.06,6.76 -6.76,12.64 -13.52,16.46l0 0zm-3.53 -1.17l0 0c0.3,0.29 0.59,0.59 0.88,0.88 0,0 0,0 0,0 0,0 0,0 0,0 0,0 0,0.29 0,0.29 0.59,0.59 1.47,0.88 2.35,1.47 0,0 0,0 0,0 0,0 0,0 0,0 0.3,0 0.59,0 0.59,0.3 0,0 0,0 0,0 0,0.3 0,0.59 0,0.59 -1.47,-0.29 -2.65,-1.17 -3.82,-2.35l0 -1.17 0 0zm17.93 -13.82l0 0 0 3.82c0,6.46 -5.29,11.76 -11.76,11.76 -0.3,0 -0.59,0 -0.88,0 6.17,-3.82 10.58,-9.11 12.64,-15.58l0 0zm0.88 -2.35l0 0c-5.29,-1.17 -9.7,-2.65 -14.11,-4.7 2.64,0.59 5.29,1.17 7.93,1.76 5.29,0.59 10.29,1.17 15.29,1.47 0.29,0 0.29,0 0.29,0.3 0,0.88 0,2.06 0.59,2.94 -3.23,-0.29 -6.76,-0.88 -10,-1.76zm10 -7.06l0 0c1.76,2.35 3.82,3.53 6.46,3.53 0.59,0 1.18,0 1.76,-0.29 -2.35,2.35 -5,2.94 -7.93,1.47 -0.88,-1.18 -1.18,-3.23 -0.3,-4.7l0 0zm20.28 -0.29l0 0c0,0 0.3,0 0.3,0 0.88,1.47 0.88,3.23 0,4.7 0,0 0,0 0,0 -2.06,-2.64 -4.7,-3.82 -8.23,-3.23 2.35,-2.35 5,-2.94 7.94,-1.47zm-18.22 9.41l0 0c0,0 0,0 0,0 -0.88,-0.59 -1.17,-1.76 -1.47,-2.65 1.18,0.3 2.06,0.59 2.94,0.59 2.06,0 4.11,-0.88 5.88,-2.94 -0.3,2.35 -1.47,4.11 -3.23,5.29 0,0 0,0 0,0 -0.88,0.29 -1.47,0.59 -2.35,0.88 -0.59,-0.3 -1.18,-0.59 -1.77,-1.18l0 0zm8.82 -4.7l0 0c1.47,2.94 1.18,5.59 -1.17,7.94 -1.76,0.59 -3.53,0.3 -4.7,-1.18 3.23,-0.88 5.29,-3.23 5.88,-6.76zm1.18 -0.88l0 0c2.94,1.76 4.11,4.12 3.82,7.35 -1.17,1.47 -2.94,2.06 -4.41,1.76 2.06,-2.65 2.06,-5.59 0.59,-9.11l0 -0zm0.59 -1.17l0 0c3.23,-0.3 5.59,0.88 7.35,3.82 0,0 0,0 0,0 0,1.76 -1.18,3.23 -2.65,3.82 0,-3.24 -1.47,-5.88 -4.7,-7.65l0 0zm8.82 3.53l0 0c0,-0.3 0,-0.3 0,-0.3 5,-0.3 10.29,-0.88 15.28,-1.47 2.65,-0.59 5.29,-1.18 7.94,-1.47 -4.11,1.76 -8.52,3.23 -13.23,4.11 0,0.29 0,0 0,0.29 0,0 -0.29,0 -0.29,0 0,0 -0.3,0 -0.3,0 -0.29,0 -0.29,0 -0.29,0 0,0 0,0 -0.3,0 -3.23,0.88 -6.47,1.18 -9.7,1.77 0.59,-0.89 0.88,-2.06 0.88,-2.94l0 0zm24.1 20.87l0 0c0,0 0,-0.29 0,-0.59 0,0 0,0 0,0 0.3,-0.3 0.3,-0.3 0.59,-0.3 0,0 0,0 0,0 0,0 0,0 0,0 0.89,-0.59 1.77,-0.88 2.35,-1.76 0.29,-0.29 0.59,-0.59 0.88,-0.88l0 1.18c-0.88,1.18 -2.35,2.06 -3.82,2.35l0 0zm-7.64 -20.28l0 0c1.17,7.06 4.41,13.23 9.11,17.34 -0.29,0.3 -0.59,0.3 -1.17,0.59 -6.76,-3.52 -11.46,-9.7 -13.52,-16.46 2.06,-0.29 3.82,-0.88 5.59,-1.47l0 0zm9.99 16.46l0 0c-4.41,-4.11 -7.64,-9.99 -8.82,-16.76 2.06,-0.59 3.82,-1.47 5.59,-2.06 0.3,6.46 1.76,12.64 4.11,17.05 0,0.59 -0.29,1.18 -0.88,1.76zm-16.46 -13.52l0 0c2.06,6.47 6.47,11.76 12.64,15.58 -0.3,0 -0.59,0 -0.89,0 -6.46,0 -11.76,-5.29 -11.76,-11.76l0 -3.82 0 0zm17.93 -3.23l0 0c0,0 0,0 0,0l0 12.64c0,0 0,0.29 0,0.29 -2.06,-4.11 -3.23,-9.7 -3.52,-15.58 1.17,-0.59 2.35,-1.17 3.52,-1.76l0 4.41 0 0zm-6.46 -4.7l0 0c0.29,0 0.29,0 0.29,0 -2.35,0.29 -4.41,0.88 -6.76,1.17 -4.7,0.59 -9.41,1.18 -14.4,1.47 0.59,-0.88 0.59,-1.76 0.59,-2.64l20.28 0zm-31.74 -1.47l0 0c0.59,-3.23 2.65,-5 5.88,-5.58 0,0 0,0 0,0 1.76,0.59 2.65,2.06 2.94,3.53 -3.24,-0.88 -6.17,-0.3 -8.82,2.06zm-1.18 0l0 0c-1.76,-2.94 -1.47,-5.58 0.88,-7.93 0.3,-0.3 1.47,-0.59 2.94,-0.3 0.88,0.3 1.47,0.88 1.76,1.47 -3.23,0.88 -5,3.24 -5.58,6.76l-0 0zm-1.47 0.59l0 0c-2.94,-1.47 -4.12,-3.82 -3.82,-7.06 0.88,-1.17 2.06,-2.06 3.53,-2.06 0.3,0 0.59,0.3 0.88,0.3 -2.06,2.65 -2.06,5.59 -0.59,8.82zm-0.59 1.47l0 0c-3.24,0.3 -5.59,-0.59 -7.35,-3.53 0,-1.76 1.18,-3.53 2.65,-4.11 0,3.23 1.47,5.88 4.7,7.64l0 0zm-9.41 2.06l0 0c-4.7,-0.3 -9.7,-0.88 -14.4,-1.47 -2.35,-0.3 -4.7,-0.88 -7.06,-1.18l21.17 0c-0.3,0.88 0,1.76 0.29,2.65zm-23.81 -0.59l0 0c-0.3,5.88 -1.47,11.46 -3.53,15.58 0,0 0,-0.29 0,-0.29l0 -12.64c0,0 0,0 0,0l0 -4.41c1.18,0.59 2.35,1.17 3.53,1.76l0 -0zm-3.53 47.03l0 0 0 -24.1c0,0 0,0 0,0 1.76,7.35 2.06,14.4 1.47,23.81l-1.47 0.29 0 0zm1.76 -22.93l0 0c0,0 0,0 0,0 2.94,6.17 4.41,11.46 4.7,19.7 -0.59,0.88 -1.47,1.76 -2.35,2.35 0,0 0,0 0,0 -0.29,0.3 -0.88,0.3 -1.47,0.3 0.88,-8.82 0.59,-15.58 -0.88,-22.34zm-7.64 -30.86l0 0 44.97 -18.81 44.97 18.81 0 3.23 -33.22 0c0,-0.59 -0.3,-0.88 -0.59,-1.47 0,-2.65 -1.77,-5 -4.41,-5.58 -0.3,-0.88 -1.18,-1.76 -2.94,-2.35 -1.76,-0.59 -2.94,-0.29 -3.82,0 -2.35,-0.88 -5.29,0 -6.76,2.35 -2.64,0.59 -4.41,2.94 -4.11,5.58 -0.3,0.59 -0.59,0.88 -0.88,1.47l-33.22 0 0 -3.23 0 0zm7.06 54.96l0 0 1.17 0c0.3,-0.29 0.88,-0.29 1.47,-0.59l0 11.17 -2.65 0 0 -10.58zm82.89 16.17l0 0 -89.94 0 0 -4.12 6.46 0 3.82 0 24.69 0 19.99 0 24.69 0 4.12 0 6.17 0 0 4.12z"/>
    </g>
   </g>
  </g>
 </g>
</svg>
