<?xml version="1.0" encoding="UTF-8"?>
<!DOCTYPE svg PUBLIC "-//W3C//DTD SVG 1.1//EN" "http://www.w3.org/Graphics/SVG/1.1/DTD/svg11.dtd">
<!-- Creator: CorelDRAW -->
<svg xmlns="http://www.w3.org/2000/svg" xml:space="preserve" width="0.14in" height="0.14in" version="1.1" style="shape-rendering:geometricPrecision; text-rendering:geometricPrecision; image-rendering:optimizeQuality; fill-rule:evenodd; clip-rule:evenodd"
viewBox="0 0 140 140"
 xmlns:xlink="http://www.w3.org/1999/xlink"
 xmlns:xodm="http://www.corel.com/coreldraw/odm/2003">
 <defs>
  <style type="text/css">
   <![CDATA[
    .str0 {stroke:#1C2335;stroke-width:4.22;stroke-miterlimit:2.61313}
    .fil0 {fill:none}
    .fil1 {fill:#1C2335}
   ]]>
  </style>
 </defs>
 <g id="Layer_x0020_1">
  <metadata id="CorelCorpID_0Corel-Layer"/>
  <g id="_1819809412704">
   <g>
    <path class="fil0 str0" d="M134 88.98c10.48,-35.35 -9.67,-72.5 -45.01,-82.98 -35.35,-10.48 -72.5,9.67 -82.98,45.01 -10.48,35.35 9.67,72.5 45.01,82.98 35.35,10.48 72.5,-9.67 82.98,-45.01z"/>
   </g>
   <g id="_2562232270320">
    <path class="fil1" d="M40.27 101.62l18.61 0 0.87 2.91 -20.35 0c0,-1.17 0.58,-1.75 0.87,-2.91l0 0zm-6.98 -5.23c0.29,-0.29 0.29,-0.29 0.58,-0.29l31.4 0c0.87,0 0.87,1.45 -2.04,2.33 -2.61,0.87 -19.48,0.58 -23.55,0.58 -1.74,0 -5.52,-0.29 -6.11,-1.74 -0.58,-0.87 -0.29,-0.58 -0.29,-0.87zm3.49 -5.81l20.64 0c1.17,0 2.33,0.29 2.33,1.45l0 1.45 -22.97 0 0 -2.91 0 0zm51.46 -2.62c0,-6.4 -1.17,-8.14 4.65,-8.14 1.46,0 2.33,0.29 3.2,1.45l-1.17 2.33c-1.16,2.62 -3.49,4.36 -6.69,4.36zm25.59 -24.43c0,4.36 -0.87,11.92 -2.04,15.99 -1.17,4.94 -2.62,9.02 -5.52,12.8 -6.11,7.85 -22.68,7.56 -29.37,0.87 -0.29,-0.29 -0.87,-0.58 -0.58,-1.45 0,-0.58 0.58,-0.87 1.16,-1.16 1.45,0 15.41,0 18.03,0 3.78,0 6.98,-2.33 8.43,-5.24l6.98 -15.41c0.58,-1.16 0.87,-2.33 1.45,-3.2l1.45 -3.2 0 0zm-18.32 24.43c0.58,-1.17 1.16,-1.17 2.04,-3.49l5.52 -11.63c0.58,-1.45 4.94,-11.05 5.24,-11.63 1.16,-1.45 2.04,-1.74 4.07,-1.74 -0.29,1.45 -9.31,20.06 -10.47,23.55 -1.16,2.61 -2.91,4.65 -6.4,4.94l0 0zm2.04 -9.59c-0.87,-0.29 -1.16,-0.58 -1.74,-0.87 -0.87,-0.29 -1.75,-0.58 -2.33,-0.58 0,-2.32 0.58,-6.39 -0.58,-8.14 -0.87,-1.75 -3.2,-2.91 -5.81,-2.91l-20.64 0c-2.04,0 -4.36,0.58 -5.24,2.04 -1.45,-0.87 -2.33,-2.04 -5.23,-2.04l-11.34 0c-0.87,0 -1.75,1.74 -0.58,2.62 1.74,0.87 11.05,-0.29 13.67,0.58 2.61,0.87 2.04,3.78 2.04,7.56 0,1.45 0,3.2 0,4.65 0,2.04 -0.29,3.49 1.74,3.49 1.45,0 0.87,-3.2 0.87,-4.07 0,-1.74 0,-9.01 0.29,-10.17 0.58,-1.17 1.75,-1.75 3.2,-1.75l21.52 0c4.36,0 3.49,3.49 3.49,8.14 -2.91,0 -5.52,2.33 -5.52,4.94l0 6.11 -8.14 0c-2.04,0 -3.78,2.04 -3.78,3.49 0,2.61 0.87,3.49 3.2,5.52 0.87,0.58 3.78,2.33 5.23,2.61 -0.58,0.58 -0.58,1.46 -0.87,2.33 -0.29,0.87 -0.58,1.74 -0.87,2.62l-17.44 0c0,-1.17 -0.58,-1.75 -0.58,-2.91 1.74,-0.29 2.61,-0.58 4.36,-1.45 3.78,-2.04 2.32,-6.69 -0.87,-6.69l-3.2 0c0,-3.49 0.87,-2.91 7.56,-2.91 2.61,0 1.74,-2.62 0.58,-2.62l-6.69 0c-1.45,0 -2.04,0.58 -2.91,0.87 -0.58,-0.29 -1.45,-0.87 -2.32,-0.87l-21.81 0c0,-4.36 0.87,-7.27 -1.75,-9.59 -3.78,-3.49 -3.78,2.04 -3.78,-6.69 0,-5.52 9.6,-0.87 9.6,-4.36 0,-2.04 -2.62,-1.46 -5.81,-1.46 -2.04,0 -3.78,0.87 -4.94,2.04 -1.45,1.46 -1.45,2.62 -1.45,5.53 0,5.23 0.29,2.61 -2.61,4.36 -1.46,0.58 -2.91,2.04 -2.91,4.36l0 23.84c0,0.58 0.58,1.17 1.16,1.17l8.14 0c1.45,0 1.74,-2.62 -0.29,-2.62l-6.11 0 0 -21.81c0,-2.91 2.62,-2.91 4.65,-2.91 2.04,0 3.49,0.87 3.49,2.91l0 10.76c-5.52,0 -5.23,7.56 3.2,8.14 -0.29,1.17 -0.87,2.33 -1.16,3.49 -0.29,1.16 -2.33,5.23 0,5.23 1.74,0 1.74,-2.04 2.33,-3.2l22.1 0c0.58,2.04 0.58,3.2 2.32,3.2 1.17,0 1.46,-1.45 0.58,-3.2l15.7 0c0,0.58 -1.45,3.2 1.17,3.2 1.16,0 1.45,-2.33 1.74,-3.2l13.67 0c2.33,0 3.2,0.29 3.2,-1.75 0,-1.45 -2.33,-0.87 -2.91,-0.87l-12.79 0c0,-1.45 0.87,-2.62 0.87,-4.07 0.87,0 2.33,0.29 3.2,0.29 5.23,0.87 11.05,0 15.7,-2.32 0,1.16 0.58,2.32 0.87,3.2l1.75 6.11c0.29,0.87 0.58,2.62 1.74,2.62 2.91,0 0.87,-3.78 0.29,-6.11 -0.58,-1.46 -0.87,-2.33 -1.17,-3.49l-1.16 -3.78c1.45,-0.58 4.65,-4.94 5.23,-6.4 0.87,-1.45 1.46,-2.62 2.04,-4.07 2.91,-7.27 4.07,-17.16 4.07,-25.88 0,-4.94 -7.85,-5.52 -10.76,-0.87 -0.87,1.17 -1.74,3.2 -2.33,4.65l-3.49 7.56c-0.29,0.58 -0.29,0.87 -0.58,1.45l-2.04 4.94 0 0z"/>
    <path class="fil1" d="M31.26 52.19c7.85,0 14.54,-1.45 20.64,-3.78 13.09,-4.94 13.09,-9.59 24.43,-3.49 3.78,2.33 1.74,2.33 8.72,-2.33 2.04,-1.16 3.78,-2.33 5.81,-3.49l0 15.7 -59.6 0 0 -2.62 0 0zm-2.62 -21.22l0 25.3c0,1.16 0.87,1.45 2.04,1.45l60.77 0c1.17,0 2.04,-0.29 2.04,-1.45l0 -25.3c0,-0.58 -0.58,-1.17 -1.45,-1.17l-18.9 0c-2.04,0 -2.33,2.91 0.58,2.91l17.15 0c0,3.78 0.58,2.62 -2.91,4.65l-8.72 5.81 -2.62 -1.17c-0.87,-0.58 -1.74,-0.87 -2.61,-1.45 -9.02,-3.78 -11.92,0.87 -22.68,5.24 -5.52,2.04 -13.67,3.49 -20.06,3.49l0 -16.57 35.76 0c2.62,0 2.33,-2.91 0.29,-2.91l-37.22 0c-0.58,0 -1.46,0.58 -1.46,1.17l0 0z"/>
   </g>
  </g>
  <rect class="fil0" width="140" height="140"/>
 </g>
</svg>
