<?xml version="1.0" encoding="UTF-8"?>
<!DOCTYPE svg PUBLIC "-//W3C//DTD SVG 1.1//EN" "http://www.w3.org/Graphics/SVG/1.1/DTD/svg11.dtd">
<!-- Creator: CorelDRAW -->
<svg xmlns="http://www.w3.org/2000/svg" xml:space="preserve" width="0.14in" height="0.14in" version="1.1" style="shape-rendering:geometricPrecision; text-rendering:geometricPrecision; image-rendering:optimizeQuality; fill-rule:evenodd; clip-rule:evenodd"
viewBox="0 0 140 140"
 xmlns:xlink="http://www.w3.org/1999/xlink"
 xmlns:xodm="http://www.corel.com/coreldraw/odm/2003">
 <defs>
  <style type="text/css">
   <![CDATA[
    .str0 {stroke:#1C2335;stroke-width:3.33;stroke-miterlimit:2.61313}
    .str1 {stroke:#1C2335;stroke-width:3;stroke-miterlimit:2.61313}
    .fil0 {fill:none}
    .fil1 {fill:#1C2335;fill-rule:nonzero}
   ]]>
  </style>
 </defs>
 <g id="Layer_x0020_1">
  <metadata id="CorelCorpID_0Corel-Layer"/>
  <g id="_1819796678240">
   <circle class="fil0 str0" transform="matrix(0.606319 0.179846 -0.179846 0.606319 70.0023 69.9977)" r="107.11"/>
   <g id="_2134955341040">
    <g>
     <path class="fil1" d="M78.49 18.59c1.47,0.59 2.95,1.77 3.83,3.54 2.65,4.43 4.13,9.74 4.43,15.05 0.89,5.61 -3.24,9.74 -7.38,10.33 -0.29,0.3 -0.29,0.3 -0.59,0.3 0,2.65 0,5.31 0,7.96 0.3,0 0.59,0 0.89,0 6.49,0 12.98,0 19.47,0 2.36,0 3.25,-0.88 3.25,-3.54 0,-7.67 0,-15.64 0,-23.6 0,-0.3 0,-0.59 0,-0.89 0.3,-0.89 0.59,-1.18 1.18,-1.18 0.88,0 1.18,0.59 1.18,1.18 0,0.3 0,0.59 0,0.89 0,7.96 0,15.64 0,23.6 0,3.83 -2.36,6.2 -5.61,6.2 -10.62,0 -20.95,0 -31.57,0 -7.37,0 -13.57,6.2 -14.46,13.87 -0.89,8.26 3.83,15.93 11.21,17.7 1.18,0.3 2.36,0.3 3.54,0.3 2.95,0.3 5.9,0 8.56,0.3 2.65,0 4.72,1.47 5.9,3.83 1.47,2.65 1.18,5.31 -0.3,7.96 -1.18,2.36 -3.25,3.54 -5.9,3.54 -4.13,0 -8.26,0 -12.39,0 -12.09,0 -24.19,0 -36.29,0 -0.29,0 -0.59,0 -0.88,0 -0.59,0 -1.18,-0.59 -1.18,-1.18 0,-0.89 0.59,-1.18 1.18,-1.48 0.29,0 0.59,0 0.88,0 16.23,0 32.46,0 48.69,0 2.36,0 4.13,-1.47 4.72,-3.83 0.59,-3.24 -1.47,-6.49 -4.43,-6.49 -2.95,0 -5.9,0 -8.85,0 -7.97,0 -14.75,-5.9 -16.52,-14.75 -2.07,-10.03 4.72,-20.65 14.16,-22.13 2.66,-0.3 5.9,0 8.56,-0.3 0.89,0 1.77,0 2.65,0 0,-2.65 0,-5.31 0,-7.96 -0.89,-0.3 -1.77,-0.59 -2.65,-0.89 -4.13,-1.77 -5.9,-5.9 -5.31,-10.92 0.59,-4.13 1.77,-8.26 3.54,-11.8 0.3,-0.89 0.59,-1.47 1.18,-2.36 0.89,-1.48 2.06,-2.66 3.54,-3.25 0.59,0 1.18,0 1.77,0l0 0zm0.3 18.88l0 0c0,0.3 0,0.3 0.3,0.3 0,-0.3 0,-0.3 0,-0.3 0.59,-0.89 1.47,-0.89 1.77,-0.59 0.59,0.59 0.59,1.48 0,2.07 -0.3,0.59 -0.59,1.18 -1.18,1.48 -1.18,1.18 -0.89,2.95 -0.89,4.72 3.54,-0.59 6.2,-3.54 5.9,-7.08 -0.29,-5.61 -2.06,-10.62 -4.72,-15.34 -0.29,-0.3 -0.59,-0.89 -1.18,-1.18 -0.89,-0.89 -1.48,-0.89 -2.36,0 -0.59,0.59 -1.18,1.18 -1.48,1.77 -2.36,4.43 -3.83,8.85 -4.43,13.87 -0.3,4.13 2.36,7.38 5.9,7.97 0,-0.59 0,-1.48 0,-2.07 0,-0.89 0,-1.48 -0.59,-2.07 -0.59,-0.89 -1.18,-1.47 -1.77,-2.36 -0.3,-0.59 -0.3,-1.18 0.3,-1.77 0.59,-0.3 0.89,-0.3 1.48,0.3 0.3,0 0.3,0.3 0.3,0.59 0.3,0 0.3,0 0.3,-0.3 0,-1.48 0,-2.95 0,-4.43 0,-0.89 0.29,-1.48 1.18,-1.48 0.89,0 1.18,0.3 1.18,1.48 0,1.48 0,2.95 0,4.43l0 0z"/>
     <path id="_1" class="fil1" d="M82.32 21.83l-0.3 0.3 0 0 0 0 0 -0.3 -0.3 0 0 -0.3 0 0 -0.3 -0.29 0 0 0 -0.3 -0.3 0 0 0 0 -0.3 -0.29 0 0 -0.3 -0.3 0 0 -0.3 0 0 -0.3 0 0 -0.3 -0.3 0 0 0 0 -0.3 -0.3 0 0 0 -0.3 -0.29 0 0 -0.3 0 0 0 -0.29 -0.3 0 0 -0.3 0 0 0 -0.3 -0.3 0.3 -0.3 0 0 0.3 0 0 0.3 0.29 0 0.3 0 0 0 0.3 0.3 0 0 0.3 0 0 0.3 0 0 0.3 0 0 0.29 0.3 0 0 0 0.3 0.3 0 0 0.29 0.3 0 0 0 0 0.3 0.3 0 0 0 0.3 0.3 0 0 0.3 0.3 0 0 0.3 0 0 0.3 0.29 0 0 0 0.3 0 0 0 0zm4.72 15.34l-0.3 0 0 0 0 -0.59 -0.3 -0.29 0 -0.59 0 -0.59 0 -0.3 -0.3 -0.59 0 -0.59 0 -0.3 -0.3 -0.59 0 -0.59 0 -0.3 -0.29 -0.59 0 -0.59 -0.3 -0.3 0 -0.59 0 -0.3 -0.3 -0.59 0 -0.59 -0.3 -0.3 -0.3 -0.59 0 -0.3 -0.3 -0.59 0 -0.3 -0.3 -0.59 -0.29 -0.3 0 -0.59 -0.3 -0.29 -0.3 -0.59 0 -0.3 -0.3 -0.59 -0.3 -0.3 -0.3 -0.59 0.3 -0.3 0.3 0.59 0.3 0.3 0.3 0.59 0.3 0.3 0 0.59 0.29 0.3 0.3 0.59 0 0.29 0.3 0.59 0.3 0.59 0 0.3 0.3 0.59 0 0.3 0.3 0.59 0 0.59 0.3 0.3 0 0.59 0.29 0.3 0 0.59 0.3 0.59 0 0.3 0.3 0.59 0 0.59 0 0.3 0.3 0.59 0 0.59 0 0.3 0 0.59 0.3 0.59 0 0.3 0 0.59 0 0.59 0 0 0 -0zm-7.67 10.62l0 -0.3 0 0 0.3 -0.29 0.3 0 0.59 0 0.3 -0.3 0.3 0 0.59 -0.3 0.3 -0.3 0.3 0 0.29 -0.3 0.3 -0.3 0.3 -0.3 0.3 -0.29 0.3 -0.3 0.3 -0.3 0.3 -0.3 0.3 -0.3 0.29 -0.3 0.3 -0.3 0.3 -0.3 0 -0.59 0.3 -0.29 0.3 -0.3 0 -0.59 0.3 -0.3 0 -0.59 0 -0.3 0.3 -0.59 0 -0.3 0 -0.59 0 -0.59 0 -0.3 0 -0.59 0.29 0 0 0.59 0 0.3 0 0.59 0 0.59 0 0.59 0 0.3 -0.29 0.59 0 0.3 0 0.59 -0.3 0.3 -0.3 0.59 0 0.3 -0.3 0.59 -0.3 0.29 -0.3 0.3 -0.3 0.3 -0.29 0.59 -0.3 0.3 -0.3 0.3 -0.3 0.3 -0.3 0.3 -0.3 0.3 -0.3 0 -0.3 0.29 -0.59 0.3 -0.29 0.3 -0.3 0 -0.3 0.3 -0.59 0 -0.3 0.3 -0.59 0 -0.3 0 0 0 0 -0zm-0.29 0l-0.59 0 0.3 -0.3 0 0 0 0 0 0 0 0 0 0 0 0 0 0 0 0 0.3 0 0 0 0 0 0 0 0 0 0 0 0 0 0 0 0 0 0 0 0 0 0 0 0 0 0 0 0 0 0 0 0 0 0 0 0.3 0 0 0 0 0 0 0 0 0 0 0 0 0.3 0 0 0 0 0 0 0 0 0 0 0 0 0 0 0 0 0 0 0 0 -0.3 0 0 0 0 0 0 0 0 0 0 0 0 0 0 0 0 0 0 0 0 0 0 0 0 0.3 0 0 0 0 0 0 0 0 0 0 -0.3 0 0 0 0 0 0 0 0.3 -0.3 0 0zm-0.59 0l0 -0.3 0.3 0 -0.3 0.3zm0.3 7.67l0 0.59 -0.3 -0.3 0 -0.3 0 0 0 -0.3 0 -0.3 0 -0.29 0 -0.3 0 -0.3 0 -0.3 0 -0.3 0 0 0 -0.3 0 -0.3 0 -0.29 0 -0.3 0 -0.3 0 -0.3 0 0 0 -0.3 0 -0.3 0 -0.3 0 -0.3 0 -0.29 0 -0.3 0 0 0 -0.3 0 -0.3 0 -0.3 0 -0.3 0 -0.3 0 0 0 -0.29 0 -0.3 0.59 0 0 0.3 0 0.29 0 0 0 0.3 0 0.3 0 0.3 0 0.3 0 0.3 0 0 0 0.3 0 0.29 0 0.3 0 0.3 0 0.3 0 0.3 0 0 0 0.3 0 0.3 0 0.3 0 0.29 0 0.3 0 0.3 0 0 0 0.3 0 0.3 0 0.3 0 0.3 0 0.29 0 0.3 0 0.3 0 0 0 0.3 -0.3 -0.3 0 0zm0 0.59l-0.3 0 0 -0.3 0.3 0.3zm0.89 -0.3l0 0.3 0 0 0 0 0 0 0 0 0 0 0 0 0 0 -0.3 0 0 0 0 0 0 0 0 0 0 0 0 0 0 0 0 0 0 0 -0.3 0 0 0 0 0 0 0 0 0 0 0 0 0 0 0 0 0 0 0 0 0 -0.3 0 0 0 0 0 0 0 0 0 0 -0.59 0 0 0 0 0 0 0.3 0 0 0 0 0 0 0 0 0 0 0 0 0 0 0 0 0 0 0 0.3 0.29 0 0 0 0 0 0 0 0 0 0 0 0 0 0 0 0 0 0 0 0 0 0 0.3 0 0 0 0 0 0 0 0 0 0 0 0 0 0 0 0 0zm19.47 0l0 0.3 0 0 -0.59 0 -0.59 0 -0.59 0 -0.59 0 -0.59 0 -0.59 0 -0.59 0 -0.59 0 -0.59 0 -0.59 0 -0.88 0 -0.59 0 -0.59 0 -0.59 0 -0.59 0 -0.59 0 -0.59 0 -0.59 0 -0.59 0 -0.59 0 -0.59 0 -0.59 0 -0.59 0 -0.59 0 -0.59 0 -0.89 0 -0.59 0 -0.59 0 -0.59 0 -0.59 0 -0.59 0 -0.59 0 0 -0.3 0.59 0 0.59 0 0.59 0 0.59 0 0.59 0 0.59 0 0.89 0 0.59 0 0.59 0 0.59 0 0.59 0 0.59 0 0.59 0 0.59 0 0.59 0 0.59 0 0.59 0 0.59 0 0.59 0 0.59 0 0.59 0 0.88 0 0.59 0 0.59 0 0.59 0 0.59 0 0.59 0 0.59 0 0.59 0 0.59 0 0.59 0 0.59 0 0 0zm2.95 -3.54l0.59 0 0 0 0 0.3 0 0.3 0 0.3 0 0 0 0.3 0 0.3 -0.3 0 0 0.3 0 0.3 0 0 0 0.29 -0.29 0 0 0.3 0 0 -0.3 0.3 0 0 0 0 -0.3 0.3 0 0 -0.3 0.3 0 0 -0.3 0 0 0 -0.3 0 0 0.3 -0.3 0 0 0 -0.3 0 -0.29 0 0 0 -0.3 0 -0.3 0 0 -0.3 0.3 0 0.3 0 0 -0.3 0.29 0 0 0 0.3 0 0 0 0.3 0 0 0 0.3 0 0 -0.3 0.3 0 0 0 0 0 0.3 -0.3 0 0 0 0 0.3 -0.3 0 0 0 -0.29 0 0 0 -0.3 0.3 0 0 -0.3 0 0 0 -0.3 0 0 0 -0.3 0 -0.3 0 0 0 -0.3 0 -0.3 0 0 -0 0zm0 -23.6l0.59 0 0 0 0 0.59 0 0.89 0 0.59 0 0.89 0 0.59 0 0.89 0 0.89 0 0.59 0 0.89 0 0.59 0 0.89 0 0.59 0 0.88 0 0.59 0 0.89 0 0.59 0 0.89 0 0.59 0 0.89 0 0.59 0 0.89 0 0.59 0 0.89 0 0.59 0 0.89 0 0.59 0 0.89 0 0.59 0 0.89 0 0.59 0 0.89 0 0.59 -0.59 0 0 -0.59 0 -0.89 0 -0.59 0 -0.89 0 -0.59 0 -0.89 0 -0.59 0 -0.89 0 -0.59 0 -0.89 0 -0.59 0 -0.89 0 -0.59 0 -0.89 0 -0.59 0 -0.89 0 -0.59 0 -0.89 0 -0.59 0 -0.88 0 -0.59 0 -0.89 0 -0.59 0 -0.89 0 -0.59 0 -0.89 0 -0.89 0 -0.59 0 -0.89 0 -0.59 0 -0.89 0 -0.59 0 0zm0.3 -0.89l0.3 0 0 0 0 0 0 0 0 0 0 0 0 0 0 0 0 0 0 0.3 0 0 0 0 0 0 0 0 0 0 0 0 0 0 0 0 0 0 0 0 0 0.3 0 0 0 0 0 0 0 0 0 0 0 0 0 0 0 0 0 0.3 0 0 0 0 0 0 0 0 -0.59 0 0 0 0 0 0 0 0 0 0 -0.3 0 0 0 0 0 0 0 0 0 0 0 0 0 0 0 0 0 0 0 -0.3 0 0 0 0 0 0 0 0 0 0 0 0 0 0 0 0 0 -0.3 0 0 0 0 0 0 0 0 0 0 0 0 0.3 0 0 0 0 0 0 0zm1.18 -1.47l0 0.59 0 0 0 0 0 0 0 0 0 0 -0.3 0 0 0 0 0 0 0 0 0 0 0 0 0 0 0 -0.3 0 0 0 0 0 0 0 0 0.29 0 0 0 0 0 0 0 0 0 0 -0.3 0 0 0 0 0.3 0 0 0 0 0 0 0 0 0 0 0 0.3 0 0 -0.3 0 0 -0.3 0 0 0 0 0 0 0 -0.3 0 0 0 0 0 0 0 -0.29 0 0 0 0 0.3 0 0 0 0 0 0 -0.3 0 0 0 0 0 0 0.3 0 0 0 0 0 0 -0.3 0 0 0.3 0 0 0 0 0 0 0 0 0 0.3 0 0 0 0 0 0 0 0 0 0 0zm0 0.59l0 0 0 0 0 0zm1.47 0.89l-0.59 0 0 0 0 0 0 0 0 -0.3 0 0 0 0 0 0 0 0 0 0 0 0 0 -0.3 0 0 0 0 0 0 -0.29 0 0 0 0 0 0 0 0 0 0 -0.29 0 0 0 0 0 0 0 0 -0.3 0 0 0 0 0 0 0 0 0 0 0 0 0 -0.3 0 0 0 0 -0.59 0.3 0 0 0 0 0 0 0 0 0 0.3 0 0 0 0 0.29 0 0 0 0 0.29 0 0 0 0 0 0 0 0 0 0 0.3 0.3 0 0 0 0 0 0 0 0 0 0 0.3 0 0 0 0 0 0 0 0 0 0.3 0 0 0.3 0 0 0 0 0.3 0 0 0 0 0 0zm0 0.89l-0.59 0 0 0 0 0 0 0 0 0 0 0 0 -0.3 0 0 0 0 0 0 0 0 0 0 0 0 0 0 0 0 0 0 0 0 0 -0.3 0 0 0 0 0 0 0 0 0 0 0 0 0 0 0 0 0 0 0 0 0 -0.3 0 0 0 0 0 0 0 0 0 0 0.59 0 0 0 0 0 0 0 0 0 0 0 0 0.3 0 0 0 0 0 0 0 0 0 0 0 0 0 0 0 0 0 0 0 0 0 0.3 0 0 0 0 0 0 0 0 0 0 0 0 0 0 0 0 0 0 0 0 0 0.3 0 0 0 0 0 0 0 0 0 0zm0 23.6l-0.59 0 0 0 0 -0.88 0 -0.59 0 -0.89 0 -0.59 0 -0.89 0 -0.59 0 -0.89 0 -0.59 0 -0.89 0 -0.59 0 -0.89 0 -0.59 0 -0.89 0 -0.59 0 -0.89 0 -0.59 0 -0.89 0 -0.59 0 -0.89 0 -0.59 0 -0.89 0 -0.59 0 -0.89 0 -0.59 0 -0.88 0 -0.59 0 -0.89 0 -0.59 0 -0.89 0 -0.59 0 -0.89 0 -0.59 0.59 0 0 0.59 0 0.89 0 0.59 0 0.89 0 0.59 0 0.89 0 0.59 0 0.88 0 0.59 0 0.89 0 0.59 0 0.89 0 0.59 0 0.89 0 0.59 0 0.89 0 0.59 0 0.89 0 0.59 0 0.89 0 0.59 0 0.89 0 0.59 0 0.89 0 0.59 0 0.89 0 0.59 0 0.89 0 0.59 0 0.89 0 0.59 0 0.88 0 0zm-5.9 6.49l0 -0.59 0 0 0.3 0 0.29 0 0.3 0 0.3 0 0.3 0 0 -0.3 0.3 0 0.3 0 0.3 0 0.29 -0.29 0.3 0 0 -0.3 0.3 0 0.3 -0.3 0 0 0.3 -0.3 0.3 -0.3 0 0 0.3 -0.3 0 -0.3 0.3 -0.3 0 -0.29 0.29 -0.3 0 0 0 -0.3 0.3 -0.3 0 -0.3 0 -0.3 0 -0.59 0 -0.3 0 -0.29 0 -0.3 0.59 0 0 0.3 0 0.29 0 0.59 -0.3 0.3 0 0.3 0 0.3 0 0.3 -0.29 0.3 0 0.3 0 0.29 -0.3 0.3 0 0.3 -0.3 0.3 -0.3 0.3 0 0 -0.3 0.3 -0.3 0.3 0 0 -0.3 0.3 -0.29 0.29 -0.3 0 -0.3 0.3 0 0 -0.3 0 -0.3 0.3 -0.3 0 -0.3 0 -0.3 0.3 -0.29 0 -0.3 0 -0.3 0 -0.3 0 0 0 0 0zm-31.57 0l0 -0.59 0 0 1.18 0 0.88 0 0.89 0 1.18 0 0.89 0 0.89 0 0.89 0 1.18 0 0.88 0 0.89 0 1.18 0 0.89 0 0.89 0 1.18 0 0.89 0 0.88 0 1.18 0 0.89 0 0.89 0 1.18 0 0.89 0 0.88 0 1.18 0 0.89 0 0.89 0 1.18 0 0.89 0 0.89 0 1.18 0 0.89 0 0.89 0 1.18 0 0 0.59 -1.18 0 -0.89 0 -0.89 0 -1.18 0 -0.89 0 -0.89 0 -1.18 0 -0.89 0 -0.89 0 -1.18 0 -0.88 0 -0.89 0 -1.18 0 -0.89 0 -0.89 0 -1.18 0 -0.88 0 -0.89 0 -1.18 0 -0.89 0 -0.89 0 -1.18 0 -0.89 0 -0.88 0 -1.18 0 -0.89 0 -0.89 0 -0.89 0 -1.18 0 -0.89 0 -0.88 0 -1.18 0 0 0zm-14.17 13.87l-0.59 -0.3 0 0 0.3 -0.59 0 -0.89 0.3 -0.59 0 -0.59 0.3 -0.89 0.3 -0.59 0.3 -0.59 0.3 -0.89 0.29 -0.59 0.3 -0.59 0.3 -0.59 0.59 -0.59 0.3 -0.59 0.59 -0.59 0.3 -0.3 0.59 -0.59 0.59 -0.59 0.3 -0.3 0.59 -0.3 0.59 -0.59 0.59 -0.3 0.59 -0.3 0.59 -0.3 0.59 -0.29 0.59 -0.3 0.59 -0.3 0.89 0 0.59 -0.3 0.59 0 0.89 -0.3 0.59 0 0.59 0 0 0.59 -0.59 0 -0.59 0 -0.89 0 -0.59 0.3 -0.59 0 -0.59 0.3 -0.59 0.3 -0.59 0 -0.59 0.3 -0.59 0.29 -0.59 0.3 -0.59 0.59 -0.59 0.3 -0.59 0.3 -0.3 0.59 -0.59 0.3 -0.59 0.59 -0.3 0.59 -0.59 0.3 -0.3 0.59 -0.3 0.59 -0.59 0.59 -0.3 0.59 -0.3 0.59 -0.29 0.59 -0.3 0.59 -0.3 0.89 0 0.59 -0.3 0.59 0 0.89 -0.3 0.59 0 0.89 0 0 0 0zm10.92 17.11l0 0.59 0 0 -0.89 -0.29 -0.59 -0.3 -0.59 -0.3 -0.59 0 -0.59 -0.59 -0.59 -0.3 -0.59 -0.3 -0.59 -0.3 -0.59 -0.59 -0.59 -0.3 -0.59 -0.59 -0.3 -0.59 -0.59 -0.59 -0.3 -0.3 -0.59 -0.59 -0.29 -0.59 -0.3 -0.59 -0.3 -0.59 -0.3 -0.89 -0.3 -0.59 -0.3 -0.59 -0.3 -0.59 -0.29 -0.89 0 -0.59 -0.3 -0.88 0 -0.59 -0.3 -0.89 0 -0.59 0 -0.89 0 -0.59 0 -0.89 0 -0.89 0.59 0.3 0 0.59 -0.3 0.89 0 0.59 0.3 0.89 0 0.59 0 0.89 0 0.59 0.3 0.59 0.3 0.88 0 0.59 0.29 0.59 0.3 0.59 0.3 0.88 0.3 0.59 0.3 0.59 0.3 0.59 0.3 0.59 0.59 0.59 0.29 0.29 0.59 0.59 0.29 0.59 0.59 0.3 0.59 0.59 0.59 0.3 0.3 0.59 0.59 0.3 0.59 0.3 0.59 0.3 0.59 0.3 0.89 0.3 0.59 0.29 0.59 0 0 0zm3.54 0.59l0 0.3 0 0 0 0 -0.3 0 0 0 -0.3 0 0 0 0 0 -0.3 0 0 0 -0.3 0 0 0 0 0 -0.3 0 0 0 0 0 -0.3 0 0 0 -0.29 0 0 0 0 0 -0.3 0 0 0 0 0 -0.3 -0.3 0 0 -0.3 0 0 0 0 0 -0.3 0 0 0 -0.3 0 0 0 0 0 0 -0.59 0 0 0.3 0 0 0 0.3 0.3 0 0 0 0 0.3 0 0 0 0 0 0.3 0 0 0 0 0 0.3 0 0 0 0.29 0 0 0 0 0 0.3 0 0 0 0 0 0.3 0 0 0 0.3 0 0 0 0 0 0.3 0.3 0 0 0 0 0.3 0 0 0 0.3 0 0 0 0 0 0 0zm8.56 0l0 0.3 0 0 -0.3 0 0 0 -0.3 0 -0.29 0 -0.3 0 -0.3 0 -0.3 0 -0.3 0 -0.3 0 -0.3 0 -0.3 0 -0.29 0 -0.3 0 0 0 -0.3 0 -0.3 0 -0.3 0 -0.3 0 -0.3 0 -0.29 0 -0.3 0 -0.3 0 -0.3 0 -0.3 0 -0.3 0 -0.3 0 0 0 -0.3 0 -0.29 0 -0.3 0 -0.3 0 -0.3 0 0 -0.3 0.3 0 0.3 0 0.3 0 0.29 0 0.3 0 0 0 0.3 0 0.3 0 0.3 0 0.3 0 0.3 0 0.3 0 0.29 0 0.3 0 0.3 0 0.3 0 0.3 0 0.3 0 0 0 0.3 0 0.29 0 0.3 0 0.3 0 0.3 0 0.3 0 0.3 0 0.3 0 0.3 0 0.29 0 0.3 0 0.3 0 0 0 0 0zm6.2 4.13l-0.3 0.3 0 0 -0.3 -0.3 0 -0.29 0 0 -0.3 -0.3 0 -0.3 -0.3 -0.3 0 0 -0.3 -0.3 0 0 -0.29 -0.3 0 -0.3 -0.3 0 0 -0.29 -0.3 0 -0.3 -0.3 0 0 -0.3 0 0 -0.3 -0.3 0 -0.3 0 0 -0.3 -0.29 0 -0.3 0 0 -0.3 -0.3 0 -0.3 0 -0.3 0 0 0 -0.3 0 -0.3 0 -0.3 -0.3 -0.29 0 0 -0.3 0.29 0 0.3 0 0.3 0 0.3 0 0.3 0 0 0 0.3 0.3 0.3 0 0.3 0 0 0 0.29 0.3 0.3 0 0.3 0 0 0.3 0.3 0 0.3 0.3 0 0 0.3 0.3 0 0 0.3 0.3 0.29 0 0 0.29 0.3 0 0 0.3 0.3 0.3 0 0 0.3 0.3 0 0.3 0.3 0.3 0 0 0.3 0.3 0 0.29 0 0zm-0.3 7.97l-0.3 -0.3 0 0 0 -0.3 0.3 0 0 -0.3 0 -0.3 0.3 -0.29 0 0 0 -0.3 0.3 -0.3 0 -0.3 0 -0.3 0 0 0 -0.3 0 -0.3 0 -0.29 0.3 -0.3 0 0 0 -0.3 0 -0.3 0 -0.3 0 -0.3 -0.3 0 0 -0.3 0 -0.3 0 -0.29 0 -0.3 0 0 -0.3 -0.3 0 -0.3 0 -0.3 -0.3 -0.3 0 0 0 -0.3 0.3 -0.29 0 0.29 0.3 0.3 0 0.3 0 0 0.3 0.3 0 0.3 0 0.3 0 0.3 0.29 0.29 0 0.3 0 0 0 0.3 0 0.3 0 0.3 0 0.3 0 0.3 0 0.3 0 0 0 0.29 0 0.3 0 0.3 -0.29 0.3 0 0.3 0 0.3 0 0 -0.3 0.3 0 0.29 0 0.3 -0.3 0.3 0 0.3 0 0 -0.3 0.3 0 0zm-6.2 3.83l0 -0.59 0 0 0.3 0 0.3 0 0 0 0.3 0 0.3 0 0.3 0 0 -0.3 0.29 0 0.3 0 0.3 0 0 0 0.3 -0.3 0.3 0 0 0 0.3 -0.3 0 0 0.3 0 0.3 -0.29 0 0 0.29 -0.3 0 0 0.3 -0.3 0 0 0.3 -0.3 0.3 0 0 -0.3 0.3 0 0 -0.3 0 -0.3 0.3 0 0 -0.29 0.3 -0.3 0.29 0.3 0 0.29 -0.29 0.3 0 0 -0.3 0.3 0 0.3 -0.3 0 0 0.3 -0.3 0.3 -0.3 0 0 0.3 -0.3 0 0 0.29 -0.3 0 -0.29 0.3 0 0 -0.3 0.3 -0.3 0 0 0 -0.3 0.3 -0.3 0 0 0 -0.3 0 -0.3 0.3 -0.3 0 0 0 -0.29 0 -0.3 0 -0.3 0 0 0.3 -0.3 0 -0.3 0 -0.3 0 0 0 0 0zm-12.39 0l0 -0.59 0 0 0.3 0 0.3 0 0.59 0 0.3 0 0.3 0 0.59 0 0.3 0 0.3 0 0.59 0 0.29 0 0.3 0 0.59 0 0.3 0 0.3 0 0.59 0 0.3 0 0.3 0 0.59 0 0.3 0 0.3 0 0.3 0 0.59 0 0.29 0 0.3 0 0.59 0 0.3 0 0.3 0 0.59 0 0.3 0 0.3 0 0.59 0 0.3 0 0 0.59 -0.3 0 -0.59 0 -0.3 0 -0.3 0 -0.59 0 -0.3 0 -0.3 0 -0.59 0 -0.3 0 -0.29 0 -0.59 0 -0.3 0 -0.3 0 -0.3 0 -0.59 0 -0.3 0 -0.3 0 -0.59 0 -0.3 0 -0.3 0 -0.59 0 -0.3 0 -0.29 0 -0.59 0 -0.3 0 -0.3 0 -0.59 0 -0.3 0 -0.3 0 -0.59 0 -0.3 0 -0.3 0 0 0zm-36.29 0l0 -0.59 0 0 1.18 0 1.18 0 1.18 0 0.89 0 1.18 0 1.18 0 1.18 0 1.18 0 1.18 0 0.89 0 1.18 0 1.18 0 1.18 0 1.18 0 1.18 0 0.89 0 1.18 0 1.18 0 1.18 0 1.18 0 0.89 0 1.18 0 1.18 0 1.18 0 1.18 0 1.18 0 0.89 0 1.18 0 1.18 0 1.18 0 1.18 0 1.18 0 0 0.59 -1.18 0 -1.18 0 -1.18 0 -1.18 0 -1.18 0 -0.89 0 -1.18 0 -1.18 0 -1.18 0 -1.18 0 -1.18 0 -0.89 0 -1.18 0 -1.18 0 -1.18 0 -1.18 0 -0.89 0 -1.18 0 -1.18 0 -1.18 0 -1.18 0 -1.18 0 -0.89 0 -1.18 0 -1.18 0 -1.18 0 -1.18 0 -1.18 0 -0.89 0 -1.18 0 -1.18 0 -1.18 0 0 0zm-0.88 0l0 -0.59 0 0 0 0 0 0 0 0 0.29 0 0 0 0 0 0 0 0 0 0 0 0 0 0 0 0 0 0 0 0 0 0.3 0 0 0 0 0 0 0 0 0 0 0 0 0 0 0 0 0 0 0 0 0 0.3 0 0 0 0 0 0 0 0 0 0 0 0 0 0 0.59 0 0 0 0 0 0 0 0 0 0 0 0 -0.3 0 0 0 0 0 0 0 0 0 0 0 0 0 0 0 0 0 0 0 0 0 -0.3 0 0 0 0 0 0 0 0 0 0 0 0 0 0 0 0 0 0 0 0 0 -0.29 0 0 0 0 0 0 0 0 0zm-1.48 -1.48l0.59 0 0 0 0 0 0 0 0 0 0 0 0 0.3 0 0 0 0 0 0 0 0 0 0 0 0 0 0.3 0.3 0 0 0 0 0 0 0 0 0 0 0 0 0 0 0 0 0 0 0.3 0.3 0 0 0 0 0 0 0 0 0 0 0 0.3 0 0 0 0 0 0 0 0 0.59 0 0 0 0 -0.3 0 0 0 0 -0.3 0 0 -0.3 0 0 0 0 0 0 0 0 0 -0.3 0 0 0 0 0 0 -0.3 0 0 0 0 -0.3 0 0 0 0 0 0 -0.3 0 0 0 0 0 0 0 -0.29 0 0 0 0 0 0 -0.3 -0.3 0 0 0 0 0 0 0 0 0 -0zm1.48 -1.77l0 0.59 0 0 0 0 0 0 0 0 -0.3 0 0 0 0 0 0 0 0 0 0 0.3 0 0 -0.3 0 0 0 0 0 0 0 0 0 0 0 0 0 0 0 0 0 -0.3 0.3 0 0 0 0 0 0 0 0 0 0 0 0 0 0.3 0 0 0 0 0 0 0 0 0 0.29 -0.59 0 0 -0.29 0 0 0.3 0 0 -0.3 0 0 0 0 0 0 0 -0.3 0 0 0 0 0 0 0 0 0 -0.3 0 0 0.3 0 0 0 0 0 0 0 0 -0.3 0 0 0.3 0 0 0 0 0 0 0 0.29 0 0 0 0 0 0 0 0 0 0.3 0 0 0 0 -0.3 0 0 0 0zm0.88 0l0 0.59 0 0 0 0 0 0 0 0 0 0 0 0 0 0 -0.29 0 0 0 0 0 0 0 0 0 0 0 0 0 0 0 0 0 0 0 0 0 -0.3 0 0 0 0 0 0 0 0 0 0 0 0 0 0 0 0 0 0 0 0 0 0 0 -0.3 0 0 0 0 0 0 -0.59 0 0 0 0 0 0 0.3 0 0 0 0 0 0 0 0 0 0 0 0 0 0 0 0 0 0 0 0 0 0.3 0 0 0 0 0 0 0 0 0 0 0 0 0 0 0 0 0 0 0 0.29 0 0 0 0 0 0 0 0 0 0 0 0 0 0 0 0 0zm48.69 0l0 0.59 0 0 -1.77 0 -1.47 0 -1.48 0 -1.47 0 -1.48 0 -1.48 0 -1.47 0 -1.77 0 -1.48 0 -1.47 0 -1.48 0 -1.48 0 -1.47 0 -1.48 0 -1.77 0 -1.47 0 -1.48 0 -1.47 0 -1.48 0 -1.48 0 -1.47 0 -1.48 0 -1.77 0 -1.47 0 -1.48 0 -1.48 0 -1.47 0 -1.48 0 -1.47 0 -1.77 0 -1.48 0 -1.48 0 0 -0.59 1.48 0 1.48 0 1.77 0 1.47 0 1.48 0 1.47 0 1.48 0 1.48 0 1.47 0 1.77 0 1.48 0 1.47 0 1.48 0 1.48 0 1.47 0 1.48 0 1.47 0 1.77 0 1.48 0 1.47 0 1.48 0 1.48 0 1.47 0 1.48 0 1.77 0 1.47 0 1.48 0 1.48 0 1.47 0 1.48 0 1.47 0 1.77 0 0 0zm4.43 -3.83l0.59 0.29 0 0 0 0.3 -0.3 0 0 0.3 0 0.3 0 0.3 -0.3 0 0 0.3 -0.29 0.3 0 0 0 0.29 -0.3 0.3 0 0 -0.3 0.3 0 0 -0.3 0.3 0 0 -0.3 0.3 0 0 -0.3 0.3 -0.3 0 0 0 -0.3 0.3 -0.29 0 0 0 -0.3 0 -0.3 0.3 -0.3 0 0 0 -0.3 0 -0.3 0 -0.3 0 0 0 0 -0.59 0 0 0.3 0 0.3 0 0 0 0.3 0 0.3 0 0.3 0 0 0 0.3 -0.29 0 0 0.29 0 0.3 -0.3 0 0 0.3 0 0 -0.3 0.3 0 0 0 0.3 -0.3 0 0 0.3 -0.3 0 0 0 -0.3 0.3 0 0 -0.3 0.3 -0.29 0 0 0 -0.3 0 -0.3 0.29 0 0 -0.3 0 -0.3 0 -0.3 0 0 0 0zm-4.13 -5.9l0 -0.59 0 0 0.3 0 0.3 0 0.3 0.3 0.3 0 0.29 0 0.3 0.29 0.3 0 0 0 0.3 0.3 0.3 0 0.3 0.3 0 0.3 0.3 0 0.3 0.3 0 0.3 0.29 0.3 0 0 0.3 0.29 0 0.3 0.3 0.3 0 0.3 0 0.3 0.3 0.3 0 0.3 0 0.3 0 0.29 0 0.3 0 0.3 0 0.3 0 0.3 0 0.3 0 0.3 -0.59 -0.3 0 0 0.3 -0.3 0 -0.3 0 -0.3 0 -0.3 0 -0.3 0 -0.29 -0.3 -0.3 0 -0.3 0 -0.3 0 -0.3 -0.3 0 0 -0.3 0 -0.3 -0.3 -0.3 0 0 -0.3 -0.29 0 -0.3 -0.3 -0.3 -0.29 0 0 -0.3 -0.3 0 -0.3 -0.3 0 0 -0.3 -0.3 -0.3 0 -0.3 0 0 -0.3 -0.3 0 -0.29 0 -0.3 0 -0.3 0 0 0 0 0zm-8.85 0l0 -0.59 0 0 0.3 0 0.3 0 0.29 0 0.3 0 0.3 0 0.3 0 0.3 0 0.3 0 0.3 0 0.29 0 0.3 0 0.3 0 0.3 0 0.3 0 0 0 0.3 0 0.3 0 0.3 0 0.29 0 0.3 0 0.3 0 0.3 0 0.3 0 0.3 0 0.3 0 0.29 0 0.3 0 0.3 0 0 0 0.3 0 0.3 0 0.3 0 0 0.59 -0.3 0 -0.3 0 -0.3 0 0 0 -0.3 0 -0.3 0 -0.29 0 -0.3 0 -0.3 0 -0.3 0 -0.3 0 -0.3 0 -0.3 0 -0.29 0 -0.3 0 -0.3 0 -0.3 0 0 0 -0.3 0 -0.3 0 -0.3 0 -0.3 0 -0.29 0 -0.3 0 -0.3 0 -0.3 0 -0.3 0 -0.3 0 -0.3 0 -0.29 0 -0.3 0 -0.3 0 0 0zm-16.82 -15.05l0.59 0 0 0 0.3 0.89 0 0.59 0.3 0.89 0.3 0.59 0.3 0.89 0.29 0.59 0.3 0.89 0.3 0.59 0.59 0.59 0.3 0.59 0.3 0.59 0.59 0.59 0.59 0.59 0.3 0.59 0.59 0.59 0.59 0.3 0.59 0.59 0.59 0.59 0.59 0.3 0.59 0.3 0.59 0.3 0.59 0.59 0.59 0.3 0.59 0.3 0.59 0 0.89 0.29 0.59 0.3 0.89 0 0.59 0.3 0.59 0 0.89 0 0.59 0 0 0.59 -0.59 0 -0.89 0 -0.59 -0.3 -0.89 0 -0.59 -0.3 -0.89 0 -0.59 -0.29 -0.59 -0.3 -0.89 -0.3 -0.59 -0.3 -0.59 -0.3 -0.59 -0.3 -0.59 -0.59 -0.59 -0.3 -0.59 -0.59 -0.59 -0.3 -0.59 -0.59 -0.59 -0.59 -0.59 -0.59 -0.3 -0.59 -0.59 -0.59 -0.3 -0.59 -0.59 -0.59 -0.3 -0.59 -0.3 -0.59 -0.29 -0.89 -0.3 -0.59 -0.3 -0.89 -0.3 -0.88 -0.3 -0.59 -0.3 -0.89 -0.3 -0.89 0 0 0 -0zm14.46 -22.42l0 0.59 0 0 -0.89 0.3 -0.89 0 -0.88 0.3 -0.89 0.29 -0.59 0.3 -0.89 0.59 -0.59 0.3 -0.89 0.59 -0.59 0.3 -0.59 0.59 -0.89 0.59 -0.59 0.59 -0.59 0.89 -0.59 0.59 -0.3 0.59 -0.59 0.89 -0.59 0.59 -0.3 0.89 -0.3 0.89 -0.59 0.89 -0.3 0.89 -0.3 0.88 0 0.89 -0.29 0.89 -0.3 0.89 0 0.89 0 0.89 0 0.89 0 0.89 0 1.18 0 0.89 0.3 0.89 -0.59 0 0 -0.89 -0.3 -0.89 0 -1.18 0 -0.89 0 -0.89 0 -0.89 0.3 -1.18 0 -0.89 0.29 -0.89 0.3 -0.88 0.3 -0.89 0.3 -0.89 0.3 -0.89 0.59 -0.89 0.3 -0.59 0.59 -0.89 0.3 -0.89 0.59 -0.59 0.59 -0.89 0.59 -0.59 0.59 -0.59 0.89 -0.59 0.59 -0.59 0.59 -0.59 0.89 -0.3 0.88 -0.59 0.59 -0.3 0.88 -0.59 0.89 -0.3 0.89 0 0.89 -0.29 0.89 -0.3 0 0 0 0zm8.56 0l0 0.3 0 0 0 0 -0.29 0 -0.3 0 -0.3 0 -0.3 0 -0.3 0 -0.3 0 -0.3 0 -0.29 0 -0.3 0 -0.3 0 -0.3 0 -0.3 0 -0.3 0 -0.3 0 0 0 -0.3 0 -0.29 0 -0.3 0 -0.3 0 -0.3 0 -0.3 0 -0.3 0 -0.3 0 -0.29 0 -0.3 0.29 -0.3 0 -0.3 0 0 0 -0.3 0 -0.3 0 -0.3 0 0 -0.59 0.3 0 0 0 0.3 0 0.3 0 0.3 0 0.3 0 0.3 0 0.29 0 0.3 0 0.3 0 0.3 0 0.3 0 0.3 0 0.3 0 0.29 0 0.3 0 0 0 0.3 0 0.3 0 0.3 0 0.3 0 0.3 0 0.3 0 0.29 0 0.3 0 0.3 0 0.3 0 0.3 0 0.3 0 0.3 0 0 0 0.29 0 0 0 0 0zm2.36 0l0.59 0 -0.3 0.3 0 0 -0.29 0 0 0 0 0 0 0 -0.3 0 0 0 0 0 -0.3 0 0 0 0 0 0 0 -0.3 0 0 0 0 0 0 0 -0.3 0 0 0 0 0 0 0 -0.3 0 0 0 0 0 -0.3 0 0 0 0 0 0 0 -0.3 0 0 0 0 0 0 0 -0.29 0 0 -0.3 0.29 0 0 0 0 0 0 0 0.3 0 0 0 0 0 0 0 0.3 0 0 0 0 0 0.3 0 0 0 0 0 0 0 0.3 0 0 0 0 0 0 0 0.3 0 0 0 0 0 0 0 0.3 0 0 0 0 0 0.3 0 0 0 0 0 0 0 0.29 0 0 0 -0.29 0 -0 0zm0.59 0l0 0.3 -0.3 0 0.3 -0.3zm-0.3 -7.67l0 -0.59 0.3 0.3 0 0.3 0 0.3 0 0.3 0 0 0 0.29 0 0.3 0 0.3 0 0.3 0 0.3 0 0.3 0 0 0 0.3 0 0.3 0 0.29 0 0.3 0 0.3 0 0.3 0 0 0 0.3 0 0.3 0 0.3 0 0.29 0 0.3 0 0.3 0 0 0 0.3 0 0.3 0 0.3 0 0.3 0 0.3 0 0.29 0 0 -0.59 0 0 0 0 -0.29 0 -0.3 0 -0.3 0 -0.3 0 -0.3 0 -0.3 0 0 0 -0.3 0 -0.3 0 -0.29 0 -0.3 0 -0.3 0 -0.3 0 0 0 -0.3 0 -0.3 0 -0.3 0 -0.29 0 -0.3 0 -0.3 0 0 0 -0.3 0 -0.3 0 -0.3 0 -0.3 0 -0.3 0 -0.29 0 0 0 -0.3 0 -0.3 0 -0.3 0.3 0.3 0 0zm0 -0.59l0.3 0 0 0.3 -0.3 -0.3zm-2.66 -0.29l0.3 -0.59 0 0 0 0 0 0.29 0 0 0.3 0 0 0 0 0 0 0 0.3 0 0 0 0 0 0 0 0.3 0.3 0 0 0 0 0.3 0 0 0 0 0 0 0 0.3 0 0 0 0 0 0 0 0.3 0 0 0.3 0 0 0.29 0 0 0 0 0 0 0 0.3 0 0 0 0 0 0 0.59 -0.3 0 0 0 0 0 0 0 -0.29 -0.3 0 0 0 0 0 0 -0.3 0 0 0 0 0 0 0 -0.3 0 0 0 0 0 -0.3 0 0 -0.3 0 0 0 0 -0.3 0 0 0 0 0 0 0 -0.3 0 0 0 0 0 -0.3 -0.29 0 0 0 0 0 0 -0.3 0 0 0 0 0zm0.3 -0.59l0 0 0 0 0 0zm-5.9 -10.92l0.59 0.29 0 0 0 0.3 -0.3 0.59 0 0.3 0 0.59 0 0.3 0 0.59 0 0.3 0.3 0.59 0 0.3 0 0.59 0 0.3 0.29 0.3 0 0.29 0.3 0.59 0 0.29 0.3 0.3 0 0.3 0.3 0.3 0.3 0.59 0 0.3 0.3 0.3 0.3 0.3 0.29 0.29 0.3 0 0.3 0.3 0.3 0.3 0.3 0.3 0.3 0.3 0.3 0 0.3 0.3 0.29 0.3 0.59 0 -0.29 0.59 -0.3 -0.3 -0.59 0 -0.3 -0.3 -0.3 -0.3 -0.3 -0.3 -0.3 0 -0.3 -0.3 -0.3 -0.29 -0.29 -0.3 -0.3 -0.3 -0.3 -0.3 -0.3 -0.3 -0.3 -0.3 0 -0.59 -0.3 -0.3 -0.3 -0.3 0 -0.29 -0.29 -0.59 0 -0.3 -0.3 -0.3 0 -0.59 0 -0.3 -0.3 -0.59 0 -0.3 0 -0.3 0 -0.59 0 -0.59 0 -0.3 0 -0.59 0 -0.3 0 -0.59 0 -0.59 0 0 0 0zm3.54 -11.8l0.3 0.3 0 0 0 0.3 -0.3 0.59 0 0.3 -0.3 0.29 0 0.3 -0.3 0.3 0 0.3 -0.3 0.59 0 0.3 0 0.3 -0.29 0.3 0 0.59 -0.3 0.3 0 0.29 0 0.3 -0.3 0.3 0 0.59 -0.3 0.3 0 0.3 0 0.3 0 0.59 -0.3 0.3 0 0.3 0 0.29 -0.3 0.59 0 0.3 0 0.3 0 0.59 -0.3 0.3 0 0.3 0 0.3 0 0.59 -0.59 -0.3 0.3 -0.3 0 -0.3 0 -0.3 0 -0.59 0 -0.3 0.3 -0.29 0 -0.59 0 -0.3 0 -0.3 0.3 -0.3 0 -0.59 0 -0.3 0.3 -0.3 0 -0.59 0 -0.3 0.3 -0.3 0 -0.29 0 -0.59 0.3 -0.3 0 -0.3 0.29 -0.3 0 -0.3 0.3 -0.59 0 -0.3 0 -0.3 0.3 -0.29 0 -0.59 0.3 -0.29 0 -0.3 0.3 -0.3 0 -0.3 0.3 -0.59 0 0 0 0zm1.18 -2.07l0.3 0.3 0 0 0 0 0 0 0 0 0 0.3 0 0 0 0 -0.3 0 0 0.3 0 0 0 0 0 0 0 0 0 0.3 -0.3 0 0 0 0 0 0 0.3 0 0 0 0 0 0 0 0.3 -0.3 0 0 0 0 0 0 0.29 0 0 0 0 0 0 0 0 0 0.3 -0.3 0 0 0 -0.3 -0.3 0 0 0 0 0 0 0 -0.29 0.3 0 0 0 0 0 0 -0.3 0 0 0 0 0 0 0 0 0.3 -0.3 0 0 0 0 0 0 0 -0.3 0 0 0 0 0 0 0.3 -0.3 0 0 0 0 0 0 0 -0.3 0 0 0 0 0.3 0 0 0 0 -0.3 0 0 0 0 0 0zm3.83 -3.54l0 0.3 0.3 0 -0.3 0.3 0 0 -0.3 0 0 0 -0.3 0.3 0 0 -0.3 0 0 0 -0.29 0.3 0 0 0 0 -0.3 0.29 0 0 -0.3 0 0 0.3 0 0 -0.3 0 0 0.3 0 0 -0.3 0 0 0.3 -0.3 0 0 0.3 0 0 -0.3 0.3 0 0 0 0 -0.3 0.3 0 0 0 0.29 0 0 -0.29 0.3 -0.3 -0.3 0 -0.29 0.3 0 0 -0.3 0 0 0.29 -0.3 0 0 0 -0.3 0.3 0 0 0 0 -0.3 0.3 0 0 -0.3 0 0 0.3 -0.3 0 0 0.3 0 0 -0.29 0 0 0.3 0 0 -0.3 0.3 0 0 0 0.3 -0.3 0 0 0.29 0 0 -0.3 0 0 0.3 0 0 0 0.3 -0.3 0 0 0.3 0 0 0zm0 0l0 0 0 0 0 0zm1.77 0l-0.3 0.3 0.3 0 -0.3 0 0 0 0 0 0 0 0 0 0 0 -0.3 0 0 0 0 0 0 0 0 0 0 0 -0.3 0 0 0 0 0 0 0 0 0 0 0 -0.3 0 0 0 0 0 0 0 0 0 0 0 -0.3 0 0 0 0 0 0 0 0 0 0 0 -0.29 0 0 0 0 -0.3 0 0 0.29 0 0 0 0 0 0 0 0 0 0 0 0.3 0 0 0 0 0 0 0 0 0 0 0 0.3 0 0 0 0 0 0 0 0 0 0 0 0.3 0 0 0 0 0 0 0 0 0 0 0 0.3 0 0 0 0 0 0 0 0 0 0 0 0.3 0 0 0zm0 0l0 0 0 0 0 0zm0.3 19.18l0 0 0 0 0 0 0 0 0 0zm0 0.3l-0.3 0 0 -0.3 0.3 0.3zm0 -0.3l0.3 0.3 -0.3 0.3 0 0 0 0 0 0 0 0 0 0 0 0 0 -0.3 0 0 0 0 0 0 0 0 0 0 0 0 0 0 0 0 0 0 0 0 0 0 0 0 0 0 0 0 0 0 0 0 0 0 0 0 0 0 0 0 0 0 0 0 0 0 0 0 0 0 0 -0.3 0 0 0 0 0 0 0 0 0 0 0 0 0 0 0 0 0 0 0 0 0 0 0 0 0.3 0 0 0 0 0 0 0 0 0 0 0 0 0 0 0 0 0 0 0 0 0 0 0 0 0 0 0 0 0 0 0 0 0 0 0 0 0 0 0 -0.3 0zm0.3 0.3l0 0.3 -0.3 0 0.3 -0.3zm0 -0.59l0.29 0.3 0 0 0 0 0 0 0 0 0 0 0 0 0 0 0 0 0 0 0 0 0 0 0 0 0 0.3 0 0 0 0 0 0 0 0 0 0 0 0 0 0 0 0 0 0 0 0 0 0 0 0 0 0 -0.29 0 0 0 0 0 0 0 0 0 0 0 0 0 -0.3 -0.3 0 0 0 0 0 0 0 0 0 0 0 0 0 0 0 0 0 0 0 0 0 0 0 0 0 0 0 0 0 0 0 0 0 0 0 0 0 0 0 0 0 0 0 0 0.3 0 0 -0.3 0 0 0 0 0 0 0 0 0 0 0 0 0 0 0 0 0 0zm0 0l0 0 0 0 0 0zm2.06 -0.3l-0.3 0.3 0 0 0 0 0 0 -0.3 0 0 0 0 0 0 -0.3 0 0 0 0 0 0 0 0 -0.29 0 0 0 0 0 0 0 0 0 0 0 -0.3 0 0 0 0 0 0 0 0 0.3 0 0 0 0 -0.3 0 0 0 0 0 0 0 0 0 -0.3 0.3 0 0 0 0 0 0 -0.3 -0.3 0 0 0 0 0 -0.3 0.3 0 0 0 0 0 0 0 0.3 -0.3 0 0 0 0 0 0 0 0 0.3 0 0 0 0 0 0 0 0.3 0 0 0 0 0 0 0 0.29 0 0 0 0 0 0 0 0 0 0.3 0 0 0 0 0 0 0 0.3 0.3 0 0 0 0 0 0zm0 2.36l-0.59 -0.3 0 0 0.3 0 0 -0.3 0 0 0 0 0 0 0 -0.29 0 0 0.3 0 0 0 0 0 0 -0.3 0 0 0 0 0 0 0 0 0 0 0 -0.3 0 0 0 0 0 0 0 0 0 0 0 -0.3 0 0 0 0 0 0 -0.3 0 0 0 0 0 0 -0.3 0 0 0 0 0.3 -0.3 0 0 0 0 0 0 0.3 0.3 0 0 0 0 0 0 0 0.3 0 0 0 0 0 0 0 0.3 0 0 0 0 0 0 0 0.3 0 0 0 0 0 0 0 0.3 0 0 0 0 0 0 0 0.29 0 0 0 0 0 0.3 -0.3 0 0 0 0 0 0 0.3 0 0 0 0 0 0zm-0.59 -0.3l0 0 0 0 0 0zm-0.59 1.77l-0.29 -0.59 0 0 0 0 0 0 0 0 0 0 0.29 0 0 0 0 0 0 -0.3 0 0 0 0 0 0 0 0 0 0 0.3 0 0 -0.3 0 0 0 0 0 0 0 0 0 0 0 0 0 -0.3 0 0 0.3 0 0 0 0 0 0 0 0 -0.3 0 0 0 0 0 0 0 0 0.59 0.3 0 0 -0.3 0 0 0 0 0 0 0.3 0 0 0 0 0 0 0 0 0 0 -0.3 0.3 0 0 0 0 0 0 0 0 0 0 0 0.3 0 0 0 0 -0.29 0 0 0 0 0 0 0 0 0.3 0 0 0 0 0 0 -0.3 0 0 0 0 0 0 0.29 0 0 0 0 -0 0zm-1.18 4.13l0 0.59 -0.3 -0.3 0 -0.3 0 0 0 -0.3 0 0 0 -0.29 0 0 0 -0.3 0 0 0 -0.3 0 0 0 -0.3 0 0 0 -0.3 0 -0.3 0 0 0 -0.3 0 0 0 -0.29 0 0 0 -0.3 0.3 0 0 -0.3 0 0 0 -0.3 0 0 0.3 -0.3 0 0 0 -0.3 0.29 0 0 -0.3 0.3 0 0 -0.29 0.3 0.59 0 0 -0.3 0.29 0 0 -0.3 0 0 0.3 0 0 0 0.3 0 0 -0.29 0 0 0.3 0 0 0 0.3 0 0 0 0.3 0 0 0 0.3 0 0 0 0.29 0 0 0 0.3 0 0 0 0.3 0 0 0 0.3 0 0 0 0.3 0 0 0 0.3 0 0 0 0.3 0 0 0 0.3 -0.3 -0.3 0 -0zm0 0.59l-0.3 0 0 -0.3 0.3 0.3zm5.61 -7.38l0.59 0 0 0 0 0.3 0 0.3 0 0.3 -0.3 0.3 0 0.3 0 0.3 0 0.59 -0.3 0.29 0 0.3 0 0.3 -0.3 0.3 0 0.3 -0.3 0.3 -0.3 0.3 0 0.3 -0.3 0 -0.29 0.29 0 0.3 -0.3 0.3 -0.3 0 -0.3 0.3 -0.3 0.3 -0.3 0 -0.3 0.3 0 0 -0.3 0.3 -0.29 0 -0.59 0.29 -0.3 0 -0.3 0 -0.3 0.3 -0.3 0 0 -0.59 0.3 0 0.3 0 0.3 -0.3 0.3 0 0.29 0 0.3 -0.29 0.3 0 0.3 -0.3 0.3 0 0.3 -0.3 0 0 0.3 -0.3 0.3 -0.3 0.29 0 0 -0.3 0.3 -0.3 0.3 -0.29 0 0 0.3 -0.3 0 -0.3 0.3 -0.3 0 -0.3 0.3 -0.3 0 -0.3 0 -0.3 0.3 -0.29 0 -0.3 0 -0.3 0 -0.3 0 -0.3 0 -0.3 0 -0.3 0 0zm-4.72 -15.05l0.59 -0.3 0 0 0.29 0.59 0 0.3 0.3 0.3 0.3 0.59 0.3 0.3 0 0.59 0.3 0.59 0.3 0.3 0.3 0.59 0 0.3 0.29 0.59 0 0.3 0.3 0.59 0.3 0.29 0 0.59 0.3 0.59 0 0.29 0.3 0.59 0 0.59 0 0.3 0.3 0.59 0 0.3 0.3 0.59 0 0.59 0 0.59 0 0.3 0.3 0.59 0 0.59 0 0.3 0 0.59 0 0.59 0.29 0.59 -0.59 0 0 -0.59 0 -0.59 0 -0.3 -0.29 -0.59 0 -0.59 0 -0.59 0 -0.3 -0.3 -0.59 0 -0.3 0 -0.59 -0.3 -0.59 0 -0.3 0 -0.59 -0.3 -0.59 0 -0.29 -0.3 -0.59 0 -0.3 -0.3 -0.59 0 -0.3 -0.3 -0.59 -0.3 -0.59 0 -0.3 -0.29 -0.59 0 -0.3 -0.3 -0.59 -0.3 -0.3 -0.3 -0.59 0 -0.3 -0.3 -0.59 -0.3 -0.3 -0.3 -0.59 -0.29 -0.3 0 0 0 0zm-0.89 -1.18l0.3 -0.3 0 0 0 0 0 0 0 0 0 0 0.29 0 0 0 0 0 0 0.3 0 0 0 0 0 0 0 0 0.3 0 0 0 0 0.3 0 0 0 0 0 0 0 0 0 0 0.3 0 0 0.3 0 0 0 0 0 0 0 0 0 0 0 0 0 0.3 0 0 0.3 0 0 0 -0.59 0.3 0 0 0 0 0 0 0 -0.3 0 0 0 0 0 0 0 0 0 0 -0.3 0 0 -0.3 0 0 0 0 0 0 0 0 0 0 0 0 0 0 0 -0.3 -0.3 0 0 0 0 0 0 0 0 0 0 0 0 0 0 -0.3 -0.3 0 0 0 0 0 0 0 0 0 0 0 0 0zm0.3 -0.3l0 0 -0.59 -0.59 0.59 0.59zm-2.66 0.3l-0.3 -0.3 0 0 0.3 -0.29 0 0 0 0 0 0 0.3 -0.3 0 0 0 0 0.3 0 0 0 0 0 0.3 0 0 -0.3 0 0 0 0 0.3 0 0 0 0 0 0.29 0 0 0 0 0 0.3 0.3 0 0 0 0 0.3 0 0 0 0 0 0 0 0.3 0.3 0 0 0 0 0.3 0 0 0.29 -0.3 0.3 0 0 -0.3 -0.3 0 0 0 0 0 0 -0.3 0 0 0 0 -0.29 0 0 -0.3 0 0 0 0 0 0 0 0 0 -0.29 0 0 0 0 0 0 0 -0.3 0 0 0 0 0 0 0 -0.3 0 0 0 0 0.29 0 0 -0.3 0 0 0 0 0 0 0 -0.3 0.3 0 0 0 0zm0 0l0 0 -0.59 0.59 0.59 -0.59zm-1.18 1.77l-0.59 -0.3 0 0 0.3 -0.3 0 0 0 0 0 0 0 0 0 -0.29 0 0 0.3 0 0 0 0 0 0 -0.3 0 0 0 0 0 0 0.3 0 0 -0.3 0 0 0 0 0 0 0 0 0 0 0.3 -0.3 0 0 0 0 0 0 0 0 0 -0.3 0.3 0 0 0 0 0 0 0 0 0 0.3 0.3 0 0 0 0 0 0 0 0.3 -0.3 0 0 0 0 0 0 0 0 0 0 0.3 0 0 -0.3 0 0 0 0 0 0 0 0 0.3 0 0 0 0 -0.3 0 0 0 0 0 0 0.29 0 0 0 0 0 0 -0.3 0 0 0.3 0 0 0 0 0 0 0 0 0 0.3 0 0 0 0zm-4.43 13.57l-0.3 0 0 0 0 -0.29 0 -0.59 0 -0.59 0 -0.3 0.3 -0.59 0 -0.3 0 -0.59 0.3 -0.3 0 -0.59 0 -0.3 0.3 -0.59 0 -0.3 0 -0.59 0.3 -0.3 0 -0.59 0.3 -0.3 0 -0.59 0.3 -0.3 0 -0.59 0.29 -0.29 0 -0.59 0.3 -0.3 0 -0.59 0.3 -0.3 0.3 -0.59 0 -0.3 0.3 -0.3 0.3 -0.59 0 -0.3 0.3 -0.59 0.29 -0.3 0 -0.3 0.59 0.3 -0.29 0.3 -0.3 0.3 0 0.59 -0.3 0.3 -0.3 0.3 0 0.59 -0.3 0.3 -0.3 0.59 0 0.3 -0.3 0.29 0 0.59 -0.29 0.3 0 0.59 -0.3 0.3 0 0.59 -0.3 0.3 0 0.59 -0.3 0.3 0 0.59 -0.3 0.3 0 0.59 0 0.3 -0.3 0.59 0 0.3 0 0.59 -0.3 0.3 0 0.59 0 0.29 0 0.59 0 0.3 -0.3 0.59 0 0.3 0 0 0 0zm5.31 7.97l0.59 0 -0.3 0.3 -0.29 0 -0.3 -0.3 -0.3 0 -0.59 0 -0.3 -0.3 -0.3 0 -0.3 -0.3 -0.3 0 -0.3 -0.3 -0.29 -0.3 -0.3 0 0 -0.29 -0.3 -0.3 -0.3 -0.3 -0.3 -0.3 -0.3 0 0 -0.3 -0.3 -0.3 0 -0.3 -0.29 -0.29 0 -0.59 -0.3 -0.3 0 -0.3 -0.3 -0.3 0 -0.3 0 -0.3 0 -0.3 0 -0.59 -0.3 -0.3 0 -0.29 0.3 -0.3 0 -0.59 0.3 0 0 0.59 0 0.3 0 0.29 0 0.3 0 0.3 0 0.3 0.3 0.59 0 0.3 0 0.3 0.29 0.3 0 0.3 0 0.29 0.3 0.3 0 0.3 0.3 0.3 0.3 0 0 0.3 0.3 0.3 0.3 0.3 0.3 0.29 0 0 0.29 0.3 0.3 0.3 0.3 0 0.3 0.3 0.3 0 0.3 0.3 0.3 0 0.3 0 0.29 0.3 0.3 0 0.3 0 -0.3 0.3 0 0zm0.59 0l0 0.3 -0.3 0 0.3 -0.3zm-0.59 -2.07l0.59 0 0 0 0 0 0 0 0 0.3 0 0 0 0 0 0 0 0 0 0.3 0 0 0 0 0 0 0 0 0 0.3 0 0 0 0 0 0 0 0.3 0 0 0 0 0 0 0 0 0 0.3 0 0 0 0 0 0 0 0.29 0 0 0 0 0 0 0 0 0 0.3 0 0 -0.59 0 0 0 0 -0.3 0 0 0 0 0 0 0 0 0 -0.29 0 0 0 0 0 0 0 -0.3 0 0 0 0 0 0 0 0 0 -0.3 0 0 0 0 0 0 0 -0.3 0 0 0 0 0 0 0 0 0 -0.3 0 0 0 0 0 0 0 -0.3 0 0 0 0 0 0 0 0zm-0.59 -2.06l0.3 -0.3 0 0 0.3 0 0 0 0 0.3 0 0 0 0 0 0 0 0 0.3 0.29 0 0 0 0 0 0 0 0.3 0 0 0 0 0 0 0 0.3 0.3 0 0 0 0 0 0 0.3 0 0 0 0 0 0 0 0.3 0 0 0 0 0 0 0 0.3 0 0 0 0 0 0.3 0 0 -0.59 0 0 -0.3 0 0 0 0 0 0 0 -0.3 0 0 0 0 0 0 0 0 0 -0.3 0 0 0 0 0 0 0 0 0 -0.3 0 0 0 0 0 0 0 0 0 -0.3 0 0 0 0 -0.3 0 0 0 0 -0.3 0 0 0 0 0 0 0 0 0 -0.29 -0.3 0 0 0 0 0 0 0zm-1.47 -2.07l0.29 -0.3 0 0 0 0 0 0 0 0 0.3 0.3 0 0 0 0 0 0 0 0.3 0 0 0.3 0 0 0 0 0.3 0 0 0 0 0 0 0.3 0 0 0.3 0 0 0 0 0 0 0 0.29 0.3 0 0 0 0 0 0 0 0 0.3 0 0 0.3 0 0 0 0 0.3 0 0 0 0 -0.3 0.3 0 0 0 0 0 -0.3 0 0 -0.3 0 0 0 0 0 0 -0.3 0 0 -0.3 0 0 0 0 -0.3 0 0 0 0 0 0 -0.3 0 0 -0.29 0 0 0 0 0 0 0 -0.3 -0.3 0 0 0 0 0 0 -0.3 0 0 0 0 -0.29 0 0 -0.3 0 0 0 0 0 0 0 0zm0 -2.07l0.29 0.3 0 0 0 0 0 0 0 0.3 0 0 0 0 0 0 0 0 -0.29 0 0 0 0 0 0 0.3 0 0 0 0 0 0 0 0 0 0 0 0 0 0.3 0 0 0 0 0 0 0 0 0 0 0 0 0 0.3 0 0 0 0 0.29 0 0 0 0 0 0 0.3 0 0 -0.29 0.29 0 0 -0.3 -0.29 0 0 0 0 0 0 0 -0.3 0 0 0 0 0 0 0 0 0 -0.3 0 0 0 0 0 0 0 -0.3 0 0 0 0 0 0 0 -0.3 0 0 0 0 0 0 0 0 0 -0.3 0 0 0 0 0.3 0 0 0 0 -0.3 0 0 0 0 0 0 0 0zm0.29 0.3l0 0 0 0 0 0zm1.77 -0.3l-0.3 0.3 0 0 -0.29 0 0 0 0 0 0 0 0 0 0 0 0 0 -0.3 -0.3 0 0 0 0 0 0 0 0 0 0 0 0 0 0 -0.3 0 0 0 0 0 0 0 0 0 0 0 0 0 0 0 -0.3 0 0 0 0 0 0 0.3 0 0 0 0 0 0 -0.3 0 0 0 -0.3 -0.3 0.3 0 0 0 0 -0.3 0 0 0 0 0 0 0.3 0 0 0 0 0 0 0 0 0 0.3 0 0 0 0 -0.29 0 0 0.3 0 0 0.29 0 0 0 0 0 0 0.3 0 0 0 0 0 0 0 0 0 0.29 0 0 0 0 0.3 0 0 0 0 0 0 0.3 0 0 0zm0 0l0 0 -0.3 0 0.3 0zm0 0.59l0.3 0.59 -0.3 -0.29 0 0 0 0 0 0 0 0 -0.3 0 0 0 0 0 0 0 0 0 0 0 0 0 0 -0.3 0 0 0 0 0 0 0 0 0 0 0 0 0 0 0 0 0 0 0 0 0 0 0 0 0 0 0 0 0 0 0 0 0 -0.3 0 0 0 0 0 0 0.3 -0.3 0 0 0 0 0 0 0 0 0 0.3 0 0 0 0 0 0 0 0 0 0 0 0 0 0 0 0 0 0 0 0 0 0 0 0 0 0.3 0.3 0 0 0 0 0 0 0 0 0 0 0 0 0 0 0 0 0 0 0 0 0 0 0 0 0 0 0 -0.3 0 0 -0zm0.3 0.59l-0.3 0 0 -0.29 0.3 0.29zm-0.3 -0.59l0.59 0 0 0.3 0 0 -0.3 0 0 0 0 0 0 0 0 0 0 0 0 0 0 0 0 0 0 0 0 0 0 0 0 0 0 0 0 0 0 0 0 0 0 0 0 0 0 0 0 0 0 0 0 0 0 0 0 0 0 0.3 0 0 0 0 0 0 0 0 0 0 -0.29 -0.59 0 0 0 0 0 0 0 0 0 0 0 0 0 0 0 0 0 0 0 0 0 0 0 0 0 0 0 0 0 0 0 0 0 0 0 0 0 0 0 0 0 0 0.29 0 0 0 0 0 0 0 0 0 0 0 0 0 0 0 0 0 0 0 0 0 -0.29 0 -0 0zm0.59 0l0 0.3 0 0 0 -0.3zm-0.59 -4.43l0.59 0 0 0 0 0.3 0 0 0 0.3 0 0 0 0.3 0 0 0 0.3 0 0 0 0 0 0.3 0 0 0 0.29 0 0 0 0.3 0 0 0 0.3 0 0 0 0.3 0 0 0 0.3 0 0 0 0.3 0 0 0 0.3 0 0 0 0 0 0.29 0 0 0 0.3 0 0 0 0.3 0 0 -0.59 0 0 0 0 -0.3 0 0 0 -0.3 0 0 0 -0.29 0 0 0 0 0 -0.3 0 0 0 -0.3 0 0 0 -0.3 0 0 0 -0.3 0 0 0 -0.3 0 0 0 -0.3 0 0 0 -0.29 0 0 0 -0.3 0 0 0 0 0 -0.3 0 0 0 -0.3 0 0 0 -0.3 0 0 0 -0.3 0 0zm1.48 -1.77l0 0.59 0 0 0 0 0 0 -0.3 0 0 0 0 0 0 0 0 0 0 0 0 0 -0.3 0 0 0 0 0 0 0 0 0 0 0.3 0 0 0 0 0 0 -0.3 0 0 0 0 0 0 0.3 0 0 0 0 0 0 0 0.3 0 0 0 0 0 0 0 0.3 0 0 0 0 -0.59 0 0 0 0 0 0 -0.3 0 0 0.3 0 0 -0.3 0 0 0 0 0 -0.3 0 0 0 0 0 0 0 -0.3 0 0 0 0 0.3 0 0 -0.29 0 0 0 0 0 0 0 0 0.3 0 0 -0.3 0 0 0 0 0 0 0.3 0 0 0 0 0 0 0 0.3 0 0 0 0 0 0 -0zm1.48 1.77l-0.59 0 0 0 0 0 0 0 0 -0.3 0 0 0 0 0 0 0 -0.3 0 0 0 0 0 0 0 -0.29 0 0 0 0 -0.29 0 0 0 0 0 0 -0.3 0 0 0 0 0 0 0 0 0 0 0 0 -0.3 0 0 0 0 0 0 0 0 0 0 0 -0.3 0 0 0 0 0 0 -0.59 0 0 0 0 0.3 0 0 0 0 0 0 0 0.3 0 0 0 0 0 0 0 0.29 0.3 0 0 0 0 0 0 0 0 0 0.29 0.3 0 0 0 0 0 0 0 0 0.3 0 0 0 0 0 0.3 0 0 0 0 0.3 0.3 0 0 0 0 0 0.3 0 0 0 0 0 0 0 0zm-0.3 4.43l0 0.3 -0.3 -0.3 0 0 0 -0.3 0 0 0 0 0 -0.29 0 0 0 -0.3 0 0 0 -0.3 0 0 0 -0.3 0 0 0 -0.3 0 0 0 -0.3 0 0 0 -0.3 0 0 0 -0.29 0 0 0 -0.3 0 0 0 0 0 -0.3 0 0 0 -0.3 0 0 0 -0.3 0 0 0 -0.3 0 0 0 -0.3 0.59 0 0 0.3 0 0 0 0.3 0 0 0 0.3 0 0 0 0.3 0 0 0 0.3 0 0 0 0 0 0.3 0 0 0 0.29 0 0 0 0.3 0 0 0 0.3 0 0 0 0.3 0 0 0 0.3 0 0 0 0.3 0 0 0 0.3 0 0 0 0.29 0 0 0 0 0 0.3 0 0 -0.3 0 0 0zm0 0.3l-0.3 0 0 -0.3 0.3 0.3z"/>
    </g>
    <g>
     <path class="fil1" d="M114.48 97.96c0,0.3 0,0.59 -0.3,0.89 -0.59,3.83 -2.95,6.2 -7.08,7.37 0,0.3 0,0.59 0,1.18 0,2.66 0,5.31 0,7.97 0,0.88 -0.29,1.47 -1.18,1.47 -0.59,0 -1.18,-0.59 -1.18,-1.47 0,-2.95 0,-5.61 0,-8.26 0,-0.3 0,-0.59 0,-0.89 -3.54,-0.89 -5.9,-3.24 -7.08,-7.08 -0.59,-2.07 -0.3,-4.43 0.3,-6.49 0.59,-3.83 1.48,-7.38 2.95,-10.92 0.89,-1.18 1.47,-2.36 2.65,-3.54 1.48,-1.77 3.54,-1.77 5.02,0 0.89,1.18 1.77,2.36 2.36,3.83 1.77,3.83 2.95,7.96 3.54,12.39 0,0.3 0,0.59 0,0.59 0,1.18 0,2.06 0,2.95l0 0zm-7.38 5.61l0 0c2.66,-0.59 4.43,-2.66 5.02,-5.31 0.3,-2.36 0,-4.43 -0.59,-6.79 -0.59,-3.54 -1.48,-7.08 -3.54,-10.33 -1.48,-2.36 -2.66,-2.36 -4.13,0 -1.47,2.36 -2.06,5.02 -2.95,7.96 -0.59,2.66 -1.18,5.31 -1.18,7.97 0.3,3.24 2.36,5.9 5.02,6.49 0,-0.89 0,-1.48 0,-2.07 0.3,-0.89 0,-1.48 -0.59,-2.36 -0.59,-0.59 -1.18,-1.18 -1.77,-2.07 -0.3,-0.59 -0.3,-1.18 0.3,-1.77 0.59,-0.3 1.18,-0.3 1.48,0.3 0.3,0 0.3,0.3 0.59,0.59 0,-0.59 0,-0.89 0,-1.18 0,-1.18 0,-2.65 0,-3.83 0.3,-0.89 0.59,-1.18 1.18,-1.18 0.89,0 1.18,0.3 1.18,1.18 0,0.3 0,0.89 0,1.18 0,1.18 0,2.36 0,3.83 0.3,-0.3 0.3,-0.3 0.3,-0.3 0.89,-0.89 1.48,-0.89 2.07,-0.59 0.3,0.59 0.3,1.48 -0.3,2.07 -0.59,0.89 -1.18,1.47 -1.48,2.36 -0.3,0.3 -0.59,0.59 -0.59,0.89 0,0.89 0,1.77 0,2.95l0 0z"/>
     <path id="_1_22" class="fil1" d="M114.48 99.14l-0.3 -0.3 0 0 0 0 0 0 0 0 0 0 0 0 0 0 0 -0.3 0 0 0 0 0 0 0 0 0 0 0 0 0 0 0 0 0 -0.3 0 0 0 0 0 0 0 0 0 0 0 0 0 0 0 0 0 0 0 -0.3 0 0 0.3 0 0 0 0 0 0 0 0 0 0.3 0 0 0 0 0 0 0.3 0 0 0 0 0 0 0 0 0 0 0 0 0 0 0 0 0 0.3 0 0 0 0 0 0 0 0 0 0 0 0 0 0 0 0 -0.3 0 0 0.3 0 0 0 0 0 0 0 0 0 0 0 0 0 0 0 0 0 0 0 0.3 0 0zm0 0l0 0 0 0 0 0zm-7.08 7.08l-0.59 0 0.3 -0.3 0.3 0 0.3 -0.3 0.59 0 0.29 -0.3 0.3 0 0.3 -0.29 0.3 0 0.3 -0.3 0.3 0 0.3 -0.3 0.3 0 0.29 -0.3 0 -0.3 0.3 0 0.3 -0.3 0.3 -0.3 0.3 -0.29 0 0 0.3 -0.3 0 -0.3 0.3 -0.3 0.29 -0.3 0 -0.3 0.3 0 0 -0.3 0.3 -0.3 0 -0.29 0 -0.3 0.3 -0.3 0 -0.59 0 -0.3 0.3 -0.3 0.3 0.3 0 0.3 0 0.3 -0.3 0.3 0 0.29 -0.3 0.3 0 0.3 0 0.3 -0.3 0.3 -0.3 0.3 0 0.3 -0.3 0.3 0 0.29 -0.29 0.3 -0.3 0.3 0 0.3 -0.3 0 -0.3 0.3 -0.3 0.3 -0.3 0.3 -0.3 0 0 0.29 -0.29 0.3 -0.3 0 -0.3 0.3 -0.3 0 -0.59 0.3 -0.3 0 -0.3 0.3 -0.3 0 -0.3 0.3 -0.29 0 -0.59 0.3 0.29 -0.3 0 0zm-0.59 0l0 -0.3 0.3 0 -0.3 0.3zm0.59 1.18l-0.59 0 0 0 0 -0.3 0 0 0 0 0 0 0 0 0 0 0 0 0 0 0 -0.3 0 0 0 0 0 0 0 0 0 0 0 0 0 0 0 0 0 -0.3 0 0 0 0 0 0 0 0 0 0 0 0 0 0 0 -0.3 0 0 0 0 0 0 0 0 0 0 0 0 0.59 0 0 0 0 0 0 0 0 0 0 0 0 0 0 0.3 0 0 0 0 0 0 0 0 0 0 0 0 0 0 0 0.3 0 0 0 0 0 0 0 0 0 0 0 0 0 0 0 0 0 0.3 0 0 0 0 0 0 0 0 0 0 0 0 0 0 0 0.3 0 0zm0 7.97l-0.59 0 0 0 0 -0.3 0 -0.3 0 -0.3 0 -0.3 0 -0.3 0 -0.3 0 0 0 -0.3 0 -0.29 0 -0.3 0 -0.3 0 -0.3 0 0 0 -0.3 0 -0.3 0 -0.3 0 -0.29 0 -0.3 0 -0.3 0 0 0 -0.3 0 -0.3 0 -0.3 0 -0.3 0 -0.29 0 0 0 -0.3 0 -0.3 0 -0.3 0 -0.3 0 -0.3 0 0 0.59 0 0 0 0 0.3 0 0.3 0 0.3 0 0.3 0 0.3 0 0 0 0.29 0 0.3 0 0.3 0 0.3 0 0.3 0 0 0 0.3 0 0.3 0 0.29 0 0.3 0 0.3 0 0.3 0 0 0 0.3 0 0.3 0 0.3 0 0.29 0 0.3 0 0 0 0.3 0 0.3 0 0.3 0 0.3 0 0.3 0 0.3 0 0zm-1.48 1.77l0 -0.59 0 0 0.3 0 0 0 0 0 0 0 0 0 0 0 0.3 0 0 0 0 0 0 -0.3 0 0 0 0 0 0 0 0 0 0 0.3 0 0 0 0 0 0 -0.3 0 0 0 0 0 0 0 0 0 0 0 -0.3 0 0 0 0 0 0 0 -0.29 0 0 0 0 0 0 0.59 0 0 0 0 0 0 0 0 0.29 0 0 0 0 0 0.3 0 0 0 0 -0.3 0 0 0.3 0 0 0 0 0 0 0 0.3 0 0 0 0 -0.3 0 0 0 0 0.3 0 0 0 0 0 0 -0.3 0 0 0 0 0 0 0 -0.29 0 0 0.3 0 0 0 0 -0.3 0 0 0 -0 0zm-1.18 -1.77l0.29 0 0 0 0 0 0 0 0 0 0 0.29 0 0 0 0 0 0 0 0.3 0 0 0.3 0 0 0 0 0 0 0 0 0.3 0 0 0 0 0 0 0 0 0 0 0.3 0 0 0 0 0.3 0 0 0 0 0 0 0 0 0.3 0 0 0 0 0 0 0 0 0 0 0 0 0.59 0 0 0 0 0 0 -0.3 0 0 -0.3 0 0 0 0 0 0 -0.3 0 0 0 0 0 0 0 -0.3 0 0 -0.3 0 0 0 0 0 0 0 0 0 -0.3 -0.29 0 0 0 0 0 0 -0.29 0 0 0 0 0 -0.3 0 0 0 0 0 0 0 -0.3 0 0 0 0 0 0 0 0zm0 -8.26l0.29 0 0 0 0 0.3 0 0.3 0 0.3 0 0.29 0 0 0 0.3 0 0.3 0 0.3 0 0.3 0 0.3 0 0.3 0 0 0 0.29 0 0.3 0 0.3 0 0.3 0 0.3 0 0.3 0 0 0 0.3 0 0.3 0 0.29 0 0.3 0 0.3 0 0.3 0 0 0 0.3 0 0.3 0 0.3 0 0.29 0 0.3 0 0.3 -0.29 0 0 -0.3 0 -0.3 0 -0.29 0 -0.3 0 -0.3 0 -0.3 0 0 0 -0.3 0 -0.3 0 -0.3 0 -0.29 0 -0.3 0 -0.3 0 0 0 -0.3 0 -0.3 0 -0.3 0 -0.3 0 -0.3 0 -0.29 0 0 0 -0.3 0 -0.3 0 -0.3 0 -0.3 0 -0.3 0 -0.3 0 0 0 -0.29 0 -0.3 0 -0.3 0 -0.3 0 0zm0 -0.59l0.29 -0.59 0 0.3 0 0 0 0 0 0 0 0 0 0 0 0 0 0 0 0.3 0 0 0 0 0 0 0 0 0 0 0 0 0 0 0 0 0 0.3 0 0 0 0 0 0 0 0 0 0 0 0 0 0 0 0 0 0.3 0 0 0 0 0 0 0 0 0 0 0 0 -0.29 0 0 0 0 0 0 0 0 0 0 0 0 0 0 -0.3 0 0 0 0 0 0 0 0 0 0 0 0 0 0 0 0 0 -0.3 0 0 0 0 0 0 0 0 0 0 0 0 0 0 0 0 0 -0.3 0 0 0 0 0 0 0 0 0 0 0 0 0 0 0 0.3 0 0zm0.29 -0.59l0 0 0 0.3 0 -0.3zm-7.37 -6.49l0.3 -0.29 0 0 0 0.29 0.3 0.3 0 0.59 0.3 0.3 0 0.3 0.3 0.3 0 0.3 0.29 0.3 0 0.29 0.3 0 0 0.3 0.3 0.3 0.3 0.3 0 0.3 0.3 0.3 0.3 0 0 0.3 0.3 0.3 0.29 0 0.3 0.29 0.3 0 0 0.3 0.3 0 0.3 0.3 0.3 0 0.3 0.3 0.3 0 0.29 0.3 0.3 0 0.3 0 0.3 0.3 0.59 0 -0.3 0.59 -0.3 -0.3 -0.3 0 -0.29 0 -0.3 -0.3 -0.3 0 -0.3 -0.3 -0.3 0 -0.3 -0.3 -0.3 0 -0.3 -0.3 -0.29 0 -0.3 -0.29 -0.3 0 -0.3 -0.3 -0.3 -0.3 0 -0.3 -0.3 0 -0.3 -0.3 -0.29 -0.3 0 -0.3 -0.3 -0.3 -0.3 -0.29 0 -0.3 -0.3 0 0 -0.3 -0.3 -0.59 0 -0.3 -0.3 -0.3 0 -0.3 -0.3 -0.3 0 -0.29 0 -0.3 0 0 0 -0zm0 -6.78l0.3 0 0 0 0 0.3 0 0.29 0 0 0 0.3 0 0.3 0 0 0 0.3 0 0.3 -0.3 0 0 0.3 0 0.3 0 0.29 0 0 0 0.3 0 0.3 0 0 0 0.3 0 0.3 0 0 0 0.3 0 0.3 0 0 0 0.3 0 0.29 0 0 0 0.3 0 0.3 0 0 0.3 0.3 0 0.3 0 0 0 0.3 -0.3 0.3 -0.3 -0.3 0 -0.3 0 -0.3 0 0 0 -0.3 0 -0.3 0 0 0 -0.3 0 -0.29 0 -0.3 -0.3 0 0 -0.3 0 -0.3 0 0 0 -0.3 0.3 -0.3 0 -0.3 0 0 0 -0.3 0 -0.29 0 0 0 -0.3 0 -0.3 0 0 0 -0.3 0 -0.3 0 -0.3 0 0 0.3 -0.3 0 -0.29 0 0 0 -0.3 0 0zm3.24 -10.92l0.3 0.3 0 0 0 0.3 -0.3 0.3 0 0.29 -0.29 0.3 0 0.3 -0.3 0.3 0 0.3 -0.3 0.59 0 0.3 0 0.3 -0.3 0.3 0 0.29 0 0.3 -0.3 0.3 0 0.3 0 0.59 -0.3 0.3 0 0.3 0 0.3 -0.3 0.3 0 0.29 0 0.59 -0.29 0.3 0 0.3 0 0.3 0 0.3 0 0.3 -0.3 0.59 0 0.3 0 0.29 0 0.3 -0.3 0.3 -0.3 0 0 -0.3 0 -0.3 0.3 -0.59 0 -0.29 0 -0.3 0 -0.3 0.3 -0.3 0 -0.59 0 -0.3 0 -0.3 0.3 -0.3 0 -0.29 0 -0.3 0 -0.59 0.29 -0.3 0 -0.3 0 -0.3 0.3 -0.3 0 -0.3 0 -0.59 0.3 -0.3 0 -0.29 0.3 -0.3 0 -0.3 0 -0.3 0.3 -0.3 0 -0.3 0.3 -0.59 0 -0.3 0.3 -0.3 0 -0.29 0.29 -0.3 0 0 0 0zm2.36 -3.83l0.3 0.29 0 0 0 0.3 -0.3 0 0 0 0 0.3 0 0 -0.3 0.3 0 0 0 0 0 0.3 -0.3 0 0 0 0 0.3 -0.3 0 0 0.3 0 0 0 0 -0.29 0.3 0 0 0 0.29 0 0 -0.3 0 0 0.3 0 0 0 0.3 0 0 -0.3 0 0 0.3 0 0 0 0.3 -0.3 0 0 0 0 0.3 -0.3 -0.3 0 0 0 -0.3 0 0 0.3 -0.3 0 0 0 0 0 -0.3 0 0 0.3 -0.3 0 0 0 -0.29 0 0 0.3 0 0 -0.3 0 0 0 -0.3 0.3 0 0 0 0 -0.3 0 0 0.29 -0.3 0 0 0 0 0.3 -0.3 0 0 0 -0.3 0 0 0.3 0 0 -0.3 0 0 0.3 0 0 -0.29 0 0zm5.61 0l-0.59 0.29 0 0 0 0 0 -0.29 -0.3 0 0 0 -0.3 -0.3 0 0 -0.3 -0.3 -0.3 0 0 0 -0.29 0 0 0 -0.3 -0.3 0 0 -0.3 0 0 0 -0.3 0 0 0 -0.3 0 0 0 -0.3 0 0 0.3 -0.3 0 0 0 -0.3 0 0 0 -0.29 0.3 0 0 -0.3 0.3 0 0 -0.3 0 0 0.29 -0.3 0 -0.3 -0.29 0.3 0 0 -0.3 0.3 0 0 -0.3 0.3 0 0 -0.3 0.3 0 0 0 0.29 -0.3 0.3 0 0 0 0.3 0 0 0 0.3 0 0.3 -0.3 0 0 0.3 0 0.3 0.3 0 0 0.3 0 0 0 0.29 0 0.3 0 0 0.3 0.3 0 0 0 0.3 0.3 0 0 0.3 0.3 0.3 0 0 0.3 0.3 0 0 0 0 0zm2.36 4.13l-0.29 0 0 0 0 0 -0.3 -0.3 0 0 0 0 0 -0.3 -0.3 0 0 -0.3 0 0 0 -0.3 0 0 -0.3 0 0 -0.29 0 0 0 -0.3 -0.3 0 0 0 0 -0.3 0 0 -0.3 -0.3 0 0 0 0 -0.3 -0.3 0 0 0 -0.3 0 0 -0.3 0 0 -0.3 0 0 -0.29 -0.3 0 0 0 0 -0.3 -0.29 0.59 -0.3 0 0.3 0 0 0.3 0 0 0.29 0 0 0 0 0.3 0.3 0 0 0 0.3 0.29 0 0 0 0 0.3 0 0 0.3 0.3 0 0 0 0.3 0.3 0 0 0 0 0.3 0 0 0.3 0.3 0 0 0 0.29 0 0 0.3 0 0 0.3 0 0 0 0.3 0 0 0.3 0.3 0 0 0 0.3 0 0 -0 0zm3.54 12.39l-0.59 0 0 0 0 -0.29 0 -0.3 -0.3 -0.59 0 -0.3 0 -0.59 0 -0.3 0 -0.3 -0.3 -0.59 0 -0.3 0 -0.3 0 -0.59 -0.3 -0.3 0 -0.29 0 -0.59 -0.3 -0.3 0 -0.3 0 -0.59 -0.3 -0.3 0 -0.3 -0.3 -0.3 0 -0.59 0 -0.3 -0.29 -0.3 0 -0.59 -0.3 -0.29 0 -0.3 -0.3 -0.3 0 -0.59 -0.3 -0.3 0 -0.3 -0.3 -0.3 0 -0.59 0.3 0 0.3 0.3 0 0.3 0.3 0.3 0 0.59 0.3 0.3 0 0.3 0.29 0.59 0 0.29 0.3 0.3 0 0.3 0 0.59 0.3 0.3 0 0.3 0.3 0.59 0 0.3 0 0.3 0.3 0.59 0 0.3 0 0.29 0.3 0.59 0 0.3 0 0.3 0.3 0.59 0 0.3 0 0.3 0 0.59 0.3 0.3 0 0.59 0 0.3 0 0.3 0 0.59 0.29 0.29 0 0 0 0zm0 0l0 0 0 0 0 0zm0 0.59l-0.3 0 0 0 0 0 0 0 0 0 0 0 0 0 0 0 0 0 -0.3 0 0 0 0 0 0 0 0 0 0 0 0 0 0 0 0 -0.3 0 0 0 0 0 0 0 0 0 0 0 0 0 0 0 0 0 0 0 0 0 0 0 0 0 -0.3 0 0 0 0 0 0 0.59 0 0 0 0 0 0 0 0 0 0 0 0 0 0 0 0 0 0 0.3 0 0 0 0 0 0 0 0 0 0 0 0 0 0 0 0 0 0 0 0 0 0 0 0 0 0 0 0 0 0 0 0.3 0 0 0 0 0 0 0 0 0 0 0 0 0 0 0 0 0 0zm0 0l0 0 0 0 0 0zm0 2.95l-0.3 0 0 0 0 0 0 -0.3 0 0 0 0 0 -0.3 0 0 0 0 0 0 0 -0.3 0 0 0 0 0 -0.3 0 0 0 0 0 -0.3 0 0 0 0 0 0 0 -0.29 0 0 0 0 0 -0.3 0 0 0 0 0 -0.3 0 0 0 0 0 -0.3 0 0 0 0 0 0 0 -0.3 0.3 0 0 0.3 0 0 0 0 0 0 0 0.3 0 0 0 0 0 0.3 0 0 0 0 0 0.3 0 0 0 0 0 0.29 0 0 0 0 0 0 0 0.3 0 0 0 0 0 0.3 0 0 0 0 0 0.3 0 0 0 0 0 0 0 0.3 0 0 0 0 0 0.3 0 0 0 0zm0 0l0 0 0 0 0 0zm-7.67 5.61l0 0 0 0 0 0 0 -0.3 0 0.3zm0 0.3l-0.3 0 0 -0.3 0.3 0.3zm4.72 -5.9l0.59 0.3 0 0 0 0.29 -0.3 0.3 0 0 0 0.3 0 0.3 -0.3 0.3 0 0.3 0 0 -0.29 0.3 0 0.3 -0.3 0.29 0 0 -0.3 0.3 0 0.3 -0.3 0 0 0.3 -0.3 0.3 0 0 -0.3 0.3 -0.3 0 0 0.3 -0.29 0 -0.3 0.29 -0.3 0 0 0.3 -0.3 0 -0.3 0 -0.3 0.3 0 0 -0.3 0 -0.3 0 -0.29 0.3 0 -0.59 0.29 0 0.3 0 0 -0.3 0.3 0 0.3 0 0 -0.3 0.3 0 0.3 0 0 -0.3 0.3 0 0.3 0 0 -0.29 0.29 0 0.3 -0.3 0 -0.3 0.3 0 0 -0.3 0.3 0 0 -0.3 0.3 -0.3 0 0 0.3 -0.3 0 -0.29 0 0 0.3 -0.3 0 -0.3 0 -0.3 0.29 0 0 -0.3 0 -0.3 0 -0.3 0 -0.3 0 0 0 0zm-0.3 -6.2l0.3 -0.3 0 0 0 0.3 0 0.3 0 0 0.3 0.3 0 0.3 0 0 0 0.3 0 0.29 0 0 0 0.3 0.3 0.3 0 0.3 0 0 0 0.3 0 0.3 0 0 0 0.3 0 0.29 0 0 0 0.3 0 0.3 0 0.3 0 0 0 0.3 0 0.3 0 0 0 0.3 0 0.3 0 0.29 0 0 0 0.3 0 0.3 -0.59 -0.3 0 0 0.3 -0.3 0 -0.29 0 0 0 -0.3 0 -0.3 0 0 0 -0.3 0 -0.3 0 0 0 -0.3 0 -0.3 0 0 0 -0.3 0 -0.29 0 0 -0.3 -0.3 0 -0.3 0 -0.3 0 0 0 -0.3 0 -0.3 0 0 0 -0.3 0 -0.29 -0.3 0 0 -0.3 0 -0.3 0 0 0 -0.3 0 -0.3 0 0 0 0 0 0zm-3.54 -10.33l0.3 -0.3 0 0 0 0.3 0.3 0.3 0.3 0.3 0 0.29 0.29 0.3 0 0.3 0.3 0.3 0 0.3 0.3 0.3 0 0.3 0 0.59 0.3 0.3 0 0.29 0.3 0.3 0 0.3 0 0.3 0.3 0.3 0 0.3 0 0.3 0.3 0.59 0 0.29 0 0.3 0.3 0.3 0 0.3 0 0.3 0.29 0.3 0 0.3 0 0.59 0 0.3 0.3 0.29 0 0.3 0 0.3 -0.3 0.3 -0.29 -0.59 0 -0.3 0 -0.3 0 -0.3 -0.3 -0.29 0 -0.3 0 -0.3 0 -0.59 -0.3 -0.3 0 -0.3 0 -0.3 -0.3 -0.3 0 -0.3 0 -0.29 -0.3 -0.3 0 -0.3 0 -0.3 -0.3 -0.59 0 -0.3 -0.3 -0.3 0 -0.3 0 -0.29 -0.3 -0.3 0 -0.3 -0.29 -0.3 0 -0.3 -0.3 -0.3 0 -0.3 -0.3 -0.3 0 -0.29 -0.3 -0.3 0 -0.3 0 0zm-3.83 0l-0.3 -0.3 0 0 0 -0.3 0.3 -0.3 0 0 0.3 -0.3 0 0 0.3 -0.29 0 0 0.29 -0.3 0 0 0 -0.3 0.3 0 0 0 0.3 0 0 -0.3 0.3 0 0 0 0.3 0 0 0 0.3 0.3 0 0 0.3 0 0 0 0.3 0.3 0 0 0.29 0.3 0 0 0.3 0.29 0 0 0 0.3 0.3 0 0 0.3 0.3 0.3 -0.3 0.3 -0.3 -0.3 0 -0.3 -0.3 0 0 -0.3 -0.29 0 0 -0.3 0 0 -0.3 -0.29 0 0 -0.3 0 0 -0.3 0 0 -0.3 0 0 0 0 0 -0.3 0 0 0 0 0 -0.3 0 0 0 0 0 -0.3 0.3 0 0 -0.3 0 0 0.29 0 0 -0.29 0.3 0 0 -0.3 0.3 0 0 -0.3 0.3 0 0.3 0 0zm-2.95 7.67l-0.3 -0.29 0 0 0 0 0 -0.3 0 -0.3 0 -0.3 0.3 -0.3 0 -0.3 0 -0.3 0 0 0.3 -0.29 0 -0.3 0 -0.3 0.3 -0.3 0 -0.3 0 -0.3 0 0 0.3 -0.3 0 -0.3 0 -0.29 0.3 -0.3 0 -0.3 0 0 0.3 -0.3 0 -0.3 0 -0.3 0.3 -0.3 0 0 0.29 -0.29 0 -0.3 0 -0.3 0.3 -0.3 0 0 0.3 -0.3 0.3 0.3 0 0.3 -0.3 0 0 0.3 -0.3 0.3 0 0.29 0 0 -0.3 0.3 0 0.3 -0.29 0.3 0 0.3 0 0 -0.3 0.3 0 0.3 0 0.29 -0.3 0.3 0 0 0 0.3 0 0.3 -0.3 0.3 0 0.3 0 0.3 -0.3 0 0 0.3 0 0.29 0 0.3 -0.3 0.3 0 0.3 0 0 0 0.3 -0.3 0.3 0 0.3 0 0.29 0 0zm-1.18 7.97l-0.59 0 0 0 0 0 0 -0.3 0 -0.3 0 -0.3 0 -0.3 0 -0.29 0 -0.3 0.29 -0.3 0 -0.3 0 -0.3 0 0 0 -0.3 0 -0.3 0 -0.3 0 -0.29 0 -0.3 0.3 -0.3 0 -0.3 0 0 0 -0.3 0 -0.3 0.3 -0.3 0 -0.29 0 -0.3 0 -0.3 0 0 0.3 -0.3 0 -0.3 0 -0.3 0 -0.3 0 -0.3 0.3 -0.29 0.3 0.29 0 0.3 0 0.3 -0.3 0 0 0.3 0 0.3 0 0.3 0 0.3 -0.3 0.3 0 0.29 0 0 0 0.3 0 0.3 -0.3 0.3 0 0.3 0 0.3 0 0 0 0.3 0 0.29 0 0.3 -0.3 0.3 0 0.3 0 0.3 0 0.3 0 0 0 0.3 0 0.3 0 0.29 0 0.3 0 0.3 0 0.3 0 0 0 0.3 0 0 0 0zm4.72 6.49l0.29 0 -0.29 0.3 -0.3 -0.3 -0.3 0 0 0 -0.3 0 -0.3 -0.3 -0.3 0 -0.3 -0.3 -0.29 0 0 -0.3 -0.3 0 -0.3 -0.3 -0.3 0 0 -0.3 -0.3 -0.3 -0.3 0 0 -0.29 -0.3 -0.3 0 -0.3 -0.3 0 0 -0.3 -0.29 -0.3 0 -0.3 -0.3 -0.3 0 -0.29 0 -0.3 -0.3 -0.3 0 -0.3 0 -0.3 0 -0.3 0 -0.3 -0.3 -0.29 0 -0.3 0.59 0 0 0.3 0 0.29 0 0.3 0 0.3 0.3 0.3 0 0.3 0 0.3 0 0.3 0.3 0 0 0.29 0.3 0.3 0 0.3 0 0.3 0.3 0 0 0.3 0.29 0.3 0.3 0 0 0.3 0.3 0.29 0 0 0.3 0.3 0.3 0 0 0.3 0.3 0 0.3 0.3 0.29 0 0 0.3 0.3 0 0.3 0 0.3 0 0.3 0.3 0 0 0 0.3 0 0zm0.29 0l0 0.3 -0.29 0 0.29 -0.3zm-0.29 -2.07l0.29 0 0 0 0 0 0 0 0 0.3 0 0 0 0 0 0 0 0 0 0.3 0 0 0 0 0 0 0 0 0 0.3 0 0 0 0 0 0 0 0 0 0.29 0 0 0 0 0 0 0 0.3 0 0 0 0 0 0 0 0 0 0.3 0 0 0 0 0 0 0 0 0 0.3 -0.29 0 0 -0.3 0 0 0 0 0 0 0 0 0 -0.3 0 0 0 0 0 0 0 0 0 -0.3 0 0 0 0 0 0 0 -0.29 0 0 0 0 0 0 0 0 0 -0.3 0 0 0 0 0 0 0 0 0 -0.3 0 0 0 0 0 0 0 -0.3 0 0 0 0 0 0 0 0zm0.29 0l0 0 0 0 0 0zm-1.18 -2.07l0.3 -0.29 0 0 0.29 0 0 0 0 0 0 0.29 0 0 0.3 0 0 0 0 0.3 0 0 0 0 0 0 0 0.3 0 0 0.3 0 0 0 0 0.3 0 0 0 0 0 0 0 0.3 0 0 0 0 0 0 0 0.3 0 0 0 0 0 0.3 0 0 0 0 0 0 0 0.29 0 0 -0.3 0 0 0 0 -0.29 0 0 0 0 0 0 0 -0.3 0 0 0 0 0 0 0 -0.3 0 0 0 0 -0.3 0 0 0 0 -0.3 0 0 0 0 0 0 0 -0.3 0 0 0 0 0 0 0 0 0 -0.3 -0.29 0 0 0 0 0 0 0 0 -0.3 0 0 0 0 -0.3 0 0 0zm-1.48 -2.06l0.3 -0.3 0 0 0 0 0 0 0.3 0 0 0.3 0 0 0 0 0 0 0 0 0.3 0.3 0 0 0 0 0 0 0 0.3 0 0 0.3 0 0 0 0 0 0 0.3 0 0 0 0 0.29 0 0 0.29 0 0 0 0 0 0 0 0 0.3 0.3 0 0 0 0 0 0 0 0.3 0 0 -0.3 0.3 0 0 0 -0.3 0 0 0 0 -0.29 0 0 0 0 -0.3 0 0 0 0 0 0 -0.3 -0.3 0 0 0 0 0 0 0 0 0 -0.29 -0.3 0 0 0 0 0 0 -0.3 0 0 0 0 -0.3 0 0 -0.3 0 0 0 0 0 0 0 0 -0.3 -0.3 0 0 0 0 0 0 0 0zm0.3 -2.07l0.3 0.3 0 0 -0.3 0 0 0 0 0 0 0 0 0.3 0 0 0 0 0 0 0 0 0 0 0 0 -0.3 0.3 0 0 0 0 0 0 0 0 0 0 0 0 0 0.3 0 0 0 0 0 0 0 0 0 0 0.3 0 0 0.3 0 0 0 0 0 0 0 0 0 0 0 0.3 -0.3 0.29 0 -0.29 0 0 -0.3 0 0 0 0 -0.3 0 0 0 0 0 0 0 0 0 -0.3 0 0 0 0 0 0 0 -0.3 0 0 0 0 0 0 0 -0.3 0 0 0 0 0 0 0 0 0 -0.3 0 0 0.3 0 0 0 0 0 0 -0.3 0 0 0 0 0 0 0.3 0 0 0zm1.77 0l-0.3 0.3 0 0 0 0 -0.3 0 0 0 0 0 0 0 0 0 0 -0.3 0 0 0 0 -0.3 0 0 0 0 0 0 0 0 0 0 0 0 0 0 0 -0.3 0 0 0 0 0 0 0 0 0 0 0 0 0 0 0 -0.3 0 0 0 0 0.3 0 0 0 0 0 0 0 0 -0.29 -0.3 0 -0.29 0 0 0 0 0 0 0.29 0 0 0 0 0 0 0 0 0 0.3 0 0 -0.3 0 0 0 0 0 0 0.3 0 0 0 0 0 0 0 0 0.3 0.3 0 0 0 0 0 0 0 0 0 0 0 0.3 0 0 0 0 0 0 0 0 0.29 0.3 0 0 0 0 0zm0 0l0 0 0 0 0 0zm0.3 0.89l0.29 0 -0.29 0 0 0 0 0 0 0 0 0 -0.3 0 0 0 0 0 0 0 0 0 0 0 0 -0.3 0 0 0 0 0 0 0 0 0 0 0 0 0 0 -0.3 0 0 0 0 0 0 0 0 0 0 0 0 0 0 -0.3 0 0 0 0 0 0 0 0 0 0 0 0 0.3 -0.3 0 0 0 0 0 0 0 0 0 0 0 0 0 0 0 0 0 0 0 0.3 0 0 0 0 0 0 0.3 0 0 0 0 0 0 0 0 0 0 0 0 0 0 0 0 0 0 0 0 0 0 0.3 0 0 0 0 0.29 0 0 0 0 0 0 0 0 0 -0.29 0.3zm0.29 0l0 0.59 -0.29 -0.59 0.29 0zm-0.29 -1.18l0.29 0 0 0 0 0 0 0 0 0 0 0 0 0 0 0.3 0 0 0 0 0 0 0 0 0 0 0 0 0 0 0 0 0 0.3 0 0 0 0 0 0 0 0 0 0 0 0 0 0 0 0 0 0.3 0 0 0 0 0 0 0 0 0 0 0 0 0 0.3 0 0 -0.29 0 0 0 0 -0.3 0 0 0 0 0 0 0 0 0 0 0 0 0 -0.3 0 0 0 0 0 0 0 0 0 0 0 0 0 0 0 0 0 -0.3 0 0 0 0 0 0 0 0 0 0 0 0 0 0 0 0 0 -0.3 0 0 0 0 0 0 0 0 0 0 0 0zm0.29 0l0 0 0 0 0 0zm-0.29 -3.83l0.29 0 0 0 0 0 0 0.3 0 0 0 0.3 0 0 0 0 0 0.3 0 0 0 0.3 0 0 0 0 0 0.29 0 0 0 0.3 0 0 0 0 0 0.3 0 0 0 0.3 0 0 0 0.3 0 0 0 0 0 0.3 0 0 0 0.3 0 0 0 0 0 0.29 0 0 0 0.3 0 0 -0.29 0 0 0 0 -0.3 0 0 0 -0.29 0 0 0 0 0 -0.3 0 0 0 -0.3 0 0 0 0 0 -0.3 0 0 0 -0.3 0 0 0 -0.3 0 0 0 0 0 -0.3 0 0 0 -0.29 0 0 0 0 0 -0.3 0 0 0 -0.3 0 0 0 0 0 -0.3 0 0 0 -0.3 0 0 0 0zm0 0l0 0 0 0 0 0zm1.18 -1.48l0 0.3 0 0 0 0 0 0.3 0 0 0 0 -0.3 0 0 0 0 0 0 0 0 0 0 0 0 0 -0.29 0 0 0 0 0 0 0 0 0 0 0.3 0 0 0 0 0 0 0 0 0 0 -0.3 0 0 0 0 0.3 0 0 0 0 0 0 0 0 0 0.3 0 0 0 0 -0.3 0 0 0 0 -0.3 0 0 0 0 0 0 0 -0.3 0 0 0 0 0 0 0 -0.3 0 0 0 0 0.3 0 0 0 0 -0.3 0 0 0 0 0 0 0 0 0.3 0 0 0 0 -0.3 0 0 0 0 0.29 0 0 0 0 0 0 0 0.3 0 0 0 0 0 0 0 0 0zm0 0l0 0 0 0 0 0zm1.48 1.48l-0.59 0 0 0 0 0 0 0 0 -0.3 0 0 0 0 0 0 0 0 0 0 0 -0.3 0 0 0 0 0 0 0 0 0 0 0 0 0 -0.3 -0.3 0 0 0 0 0 0 0 0 0 0 0 0 0 0 0 0 0 -0.3 0 0 0 0 0 0 0 0 0 0 0 -0.3 -0.29 0 -0.3 0.3 0 0 0 0 0 0 0 0.3 0 0 0 0 0 0 0 0 0 0.3 0 0 0.3 0 0 0 0 0 0 0.3 0 0 0 0 0 0 0.29 0 0 0 0 0 0 0 0.3 0 0 0.3 0 0 0 0 0 0 0.3 0 0 0 0 0 0 0 0.3 0 0 0 0 0 0zm-0.59 0l0 0 0 0 0 0zm0.59 1.18l-0.59 0 0 0 0 0 0 0 0 0 0 -0.3 0 0 0 0 0 0 0 0 0 0 0 0 0 0 0 -0.3 0 0 0 0 0 0 0 0 0 0 0 0 0 0 0 0 0 -0.3 0 0 0 0 0 0 0 0 0 0 0 0 0 0 0 -0.3 0 0 0 0 0 0 0.59 0 0 0 0 0 0 0 0 0.3 0 0 0 0 0 0 0 0 0 0 0 0 0 0 0 0.3 0 0 0 0 0 0 0 0 0 0 0 0 0 0 0 0 0 0.3 0 0 0 0 0 0 0 0 0 0 0 0 0 0 0 0.3 0 0 0 0 0 0 0 0zm-0.3 3.54l0.3 0.59 -0.59 -0.3 0 0 0 -0.3 0 0 0 -0.29 0 0 0 -0.3 0 0 0 0 0 -0.3 0 0 0 -0.3 0 0 0 -0.3 0 0 0 0 0 -0.3 0 0 0 -0.3 0 0 0 0 0 -0.3 0 0 0 -0.29 0 0 0 0 0 -0.3 0 0 0 0 0 -0.3 0 0 0 -0.3 0 0 0.59 0 0 0 0 0.3 0 0 0 0.3 0 0 0 0 0 0.3 0 0 0 0 0 0.29 0 0 0 0.3 0 0 0 0 0 0.3 0 0 0 0.3 0 0 0 0 0 0.3 0 0 0 0.3 0 0 0 0.3 0 0 0 0 0 0.3 0 0 0 0.29 0 0 0 0.3 0 0 -0.3 -0.3 0 0zm0.3 0.59l-0.59 0.3 0 -0.59 0.59 0.3 0 0zm0 -0.89l0.3 0.3 0 0 0 0 0 0 0 0 0 0 0 0 0 0 0 0 0 0 0 0.3 0 0 0 0 0 0 0 0 0 0 0 0 0 0 -0.3 0 0 0 0 0 0 0 0 0 0 0 0 0 0 0 0 0 0 0 0 0 0 0 0 0 0 0 0 0.3 0 0 -0.3 -0.59 0 0 0 0 0 0 0 0 0 0 0 0 0 0 0 0 0 0 0 0 0 0 0 0 0 0 0 0 0 0 0.3 0 0 -0.3 0 0 0 0 0 0 0 0 0 0 0 0 0 0 0 0 0 0 0 0 0 0 0 0 0 0 0 0 0 0 0 0 0 0zm2.07 -0.3l-0.3 0.3 0 0 0 0 0 0 0 0 -0.3 0 0 -0.3 0 0 0 0 0 0 0 0 0 0 0 0 -0.3 0 0 0 0 0 0 0 0 0 0 0 0 0 -0.3 0 0 0 0 0 0 0.3 0 0 0 0 -0.3 0 0 0 0 0 0 0 0 0.3 -0.3 0 0 0 0 0 -0.29 -0.3 0 0 0 0 0.29 -0.3 0 0 0 0 0 0 0.3 0 0 -0.29 0 0 0 0 0 0 0.3 0 0 0 0 0 0 0 0.3 0 0 -0.3 0 0 0 0 0 0 0.3 0 0 0.3 0 0 0 0 0.3 0 0 0 0 0 0 0 0 0 0.3 0 0 0.29 0 0 0 0zm-0.3 0.3l0 0 -0.3 -0.3 0.3 0.3zm0.3 2.07l-0.3 -0.3 0 0 0 -0.3 0 0 0 0 0 0 0 0 0.3 -0.3 0 0 0 0 0 0 0 -0.3 0 0 0 0 0 0 0 0 0 0 0 -0.29 0 0 0 0 0 0 0 0 0 0 0 -0.3 0 0 0 0 0 0 0 0 0 0 0 0 -0.3 -0.3 0 0 0 0 0 0 0.3 -0.3 0 0 0 0 0.3 0 0 0 0 0.3 0 0 0 0 0 0 0 0.3 0 0 0.29 0 0 0 0 0.3 0 0 0 0 0 0 0 0.29 0 0 0 0 -0.29 0.3 0 0 0 0 0 0 0 0.3 0 0 0 0 0 0 0 0.3 -0.3 0 0 0 0 0 0 0.3 0 0zm-1.77 2.07l-0.3 -0.3 0 0 0 0 0 0 0 0 0.3 -0.3 0 0 0 0 0 0 0 -0.3 0.3 0 0 0 0 0 0 0 0 -0.3 0 0 0.3 0 0 0 0 -0.3 0 0 0 0 0.3 0 0 -0.3 0 0 0 0 0 0 0 -0.3 0.3 0 0 0 0 0 0 -0.29 0 0 0.29 0 0 0 0.3 0.29 0 0 0 0 -0.3 0 0 0.3 0 0 0 0 0 0 -0.29 0.3 0 0 0 0 0 0 0 0.3 0 0 -0.3 0 0 0 0 0.3 0 0 0 0 -0.3 0 0 0.3 0 0 0 0 0 0 0 0.3 -0.3 0 0 0 0 0 0 0.3 0 0 -0.3 0 0 0 0 0 0 0zm0 0l0 0 0 0.29 0 -0.29zm-0.3 0.88l-0.59 0 0 0 0 0 0 0 0 0 0.3 0 0 -0.3 0 0 0 0 0 0 0 0 0 0 0 0 0 0 0 -0.3 0 0 0 0 0 0 0 0 0 0 0 0 0 0 0 0 0 -0.29 0 0 0 0 0 0 0.3 0 0 0 0 0 0 0 0 0 0 0 0 -0.3 0.3 0.3 0 0.29 0 0 0 0 0 0 0 0 0 0 0 0 0 0 0 0 0 0 0 0 -0.3 0 0 0.3 0 0 0 0 0 0 0 0 0 0 0 0 0 0 0 0 0 0 0 0 0 0.3 0 0 0 0 0 0 0 0 0 0 0 0 0 0 0 0 0 0 0 0zm0 0l0 0 0 0 0 0zm-0.3 2.66l0 0.59 -0.3 -0.3 0 -0.3 0 0 0 0 0 -0.3 0 0 0 0 0 0 0 -0.3 0 0 0 0 0 -0.29 0 0 0 0 0 -0.3 0 0 0 0 0 0 0 -0.3 0 0 0 0 0 -0.3 0 0 0 0 0 -0.3 0 0 0 0 0 0 0 -0.3 0 0 0 0 0 -0.3 0 0 0.59 0 0 0 0 0.3 0 0 0 0 0 0.3 0 0 0 0 0 0 0 0.3 0 0 0 0 0 0.3 0 0 0 0 0 0.3 0 0 0 0 0 0 0 0.3 0 0 0 0 0 0.29 0 0 0 0 0 0.3 0 0 0 0 0 0 0 0.3 0 0 0 0 0 0.3 -0.3 -0.3 0 0zm0 0.59l-0.3 0 0 -0.3 0.3 0.3z"/>
    </g>
    <g>
     <path class="fil1" d="M114.48 55.17c0,1.18 -0.3,2.07 -0.59,3.24 -2.07,6.49 -7.38,10.62 -13.57,10.92 -4.13,0 -7.96,0 -12.09,0 -0.3,0 -0.59,0 -0.89,-0.29 -0.3,-0.3 -0.59,-0.89 -0.3,-1.48 0,-0.3 0.59,-0.59 0.89,-0.59 0.59,-0.3 1.18,-0.3 1.77,-0.3 3.54,0 7.37,0.3 10.92,0 6.78,-0.3 11.8,-6.2 11.8,-13.57 0,-7.97 0,-15.93 0,-23.9 0,-0.3 0,-0.59 0,-0.89 0,-0.88 0,-1.47 0.59,-1.77 0.59,-0.3 1.18,0.3 1.47,0.89 0,9.15 0,18.29 0,27.73l0 0z"/>
     <path id="_1_23" class="fil1 str1" d="M114.19 58.42l-0.59 0 0 0 0 -0.29 0 0 0 0 0 -0.3 0.3 0 0 0 0 -0.3 0 0 0 0 0 -0.3 0 0 0 0 0 -0.3 0 0 0 0 0 -0.3 0.3 0 0 -0.3 0 0 0 0 0 -0.29 0 0 0 0 0 -0.3 0 0 0 0 0 -0.3 0 0 0 0 0 -0.3 0.3 0 0 0 0.29 0 0 0 0 0.3 0 0 0 0 0 0.3 0 0 0 0 -0.29 0.3 0 0 0 0.29 0 0 0 0 0 0.3 0 0 0 0 0 0.3 0 0 0 0 0 0.3 0 0 0 0 -0.3 0.3 0 0 0 0 0 0.3 0 0 0 0 0 0.3 0 0 0 0 0 0.29 0 0 0 0 0 0zm-13.87 11.21l0 -0.59 0 0 0.59 0 0.59 0 0.59 -0.3 0.29 0 0.59 0 0.59 -0.29 0.59 0 0.59 -0.3 0.59 -0.3 0.29 0 0.59 -0.3 0.59 -0.3 0.3 -0.3 0.59 -0.3 0.3 -0.3 0.59 -0.29 0.3 -0.59 0.59 -0.3 0.3 -0.3 0.3 -0.59 0.59 -0.3 0.3 -0.59 0.3 -0.3 0.29 -0.59 0.3 -0.3 0.3 -0.59 0.3 -0.59 0.3 -0.59 0.3 -0.59 0.3 -0.59 0 -0.3 0.3 -0.59 0.59 0 -0.3 0.59 -0.3 0.59 -0.3 0.59 -0.3 0.59 0 0.59 -0.3 0.59 -0.3 0.59 -0.59 0.3 -0.3 0.59 -0.29 0.59 -0.3 0.3 -0.59 0.59 -0.3 0.3 -0.3 0.3 -0.59 0.59 -0.3 0.3 -0.59 0.3 -0.3 0.29 -0.59 0.3 -0.59 0.3 -0.3 0.3 -0.59 0.3 -0.59 0.3 -0.59 0.3 -0.59 0 -0.3 0.3 -0.59 0 -0.59 0.29 -0.59 0 -0.59 0 -0.59 0.3 -0.59 0 0 0 0 0zm-12.09 0l0 -0.59 0 0 0.59 0 0.3 0 0.29 0 0.3 0 0.59 0 0.3 0 0.3 0 0.59 0 0.3 0 0.3 0 0.3 0 0.59 0 0.3 0 0.29 0 0.3 0 0.59 0 0.3 0 0.3 0 0.3 0 0.59 0 0.3 0 0.3 0 0.3 0 0.59 0 0.29 0 0.3 0 0.59 0 0.3 0 0.3 0 0.3 0 0.59 0 0.3 0 0 0.59 -0.3 0 -0.59 0 -0.3 0 -0.3 0 -0.3 0 -0.59 0 -0.3 0 -0.29 0 -0.59 0 -0.3 0 -0.3 0 -0.3 0 -0.59 0 -0.3 0 -0.3 0 -0.3 0 -0.59 0 -0.3 0 -0.29 0 -0.3 0 -0.59 0 -0.3 0 -0.3 0 -0.3 0 -0.59 0 -0.3 0 -0.3 0 -0.59 0 -0.3 0 -0.29 0 -0.3 0 -0.59 0 0 0zm0 0l0 0 0 0 0 0zm-1.18 -0.59l0.3 -0.3 0 0 0.3 0 0 0 0 0 0 0 0 0 0 0 0 0 0 0 0 0 0 0.3 0 0 0 0 0 0 0 0 0.3 0 0 0 0 0 0 0 0 0 0 0 0 0 0 0 0 0 0.29 0 0 0 0 0 0 0 0 0 0 0 0 0 0 0 0 0 0 0.59 0 0 0 0 0 0 0 0 0 0 0 0 0 0 -0.29 0 0 0 0 0 0 0 0 -0.3 0 0 0 0 -0.3 0 0 0 0 0 0 0 0 0 0 0 0 0 0 0 -0.3 0 0 0 0 0 0 0 0 0 0 0 0 0 0 -0.29 -0.3 0 0 0 0 0 0 -0zm0 0l0 0 0 0 0 0zm-0.3 -1.47l0.3 0.29 0 0 0 0 0 0 0 0 0 0 0 0 0 0 0 0 0 0 0 0.3 0 0 0 0 0 0 0 0 0.3 0 0 0 0 0 0 0.3 0 0 0 0 0 0 0 0 0 0 0 0 0 0 0 0 0 0.3 0 0 0 0 0 0 0 0 0 0 0 0 -0.3 0.3 0 0 0 0 0 0 0 0 0 0 0 -0.3 0 0 0 0 0 0 0 0 -0.3 0 0 0 0 -0.3 0 0 0 0 0 0 0 0 0 0 0 -0.3 0 0 0 0 0 0 0 0 0 0 0 -0.3 0 0 0 0 0 0 0 0 0 0 0 -0.29 0 0 0 0zm0.3 0.29l0 0 0 0 0 0zm0.89 -1.18l0 0.3 0 0 0 0 0 0 0 0 0 0 -0.3 0.29 0 0 0 0 0 0 0 0 0 0 0 0 0 0 0 0 0 0 -0.3 0 0 0 0 0 0 0 0 0.3 0 0 0 0 0 0 0 0 0 0 0 0 0 0 0 0 0 0 0 0 -0.3 0.3 0 0 0 0 -0.3 -0.3 0 0 0 0 0 0 0 0 0 -0.3 0 0 0 0 0.3 0 0 0 0 0 0 0 0 -0.29 0 0 0 0 0 0 0 0 0.3 0 0 0 0 0 0 0 0 -0.3 0 0 0 0 0 0 0.3 0 0 0 0 0 0 0 0 0 0 0 0 0 0.3 0 0 0zm0 0l0 0 -0.3 0 0.3 0zm1.77 -0.3l0 0.59 0 0 -0.3 0 0 0 0 0 0 0 0 0 -0.3 0 0 0 0 0 0 0 0 0 0 0 -0.3 0 0 0 0 0 0 0 0 0 -0.3 0 0 0 0 0 0 0 0 0 0 0 -0.3 0 0 0 0 0 0 0 0 0 0 0 -0.3 0 0 0 0 0 0 0 0 -0.3 0 0 0 0 0 0 0 0 0 0 0.3 -0.3 0 0 0 0 0 0 0 0 0.3 0 0 0 0 0 0 0 0 0 0.3 0 0 0 0 0 0 0 0 0 0.3 0 0 0 0 0 0 0 0 0 0 0 0.3 0 0 0 0 0 0 0 0 0 0.3 0 0 0 0 0zm10.91 0l0 0.59 0 0 -0.3 0 -0.29 0 -0.3 0 -0.3 0 -0.59 0 -0.3 0 -0.3 0 -0.3 0 -0.3 0 -0.3 0 -0.59 0 -0.29 0 -0.3 0 -0.3 0 -0.3 0 -0.59 0 -0.3 0 -0.3 0 -0.3 0 -0.29 0 -0.3 0 -0.59 0 -0.3 0 -0.3 0 -0.3 0 -0.3 0 -0.59 0 -0.3 0 -0.3 0 -0.29 0 -0.3 0 -0.3 0 0 -0.59 0.3 0 0.3 0 0.29 0 0.3 0 0.3 0 0.59 0 0.3 0 0.3 0 0.3 0.3 0.3 0 0.59 0 0.3 0 0.29 0 0.3 0 0.3 0 0.3 0 0.59 0 0.3 0 0.3 0 0.3 0 0.29 0 0.59 0 0.3 0 0.3 0 0.3 -0.3 0.3 0 0.3 0 0.59 0 0.3 0 0.3 0 0.29 0 0.3 0 0 0zm11.51 -13.28l0.3 0 0 0 0 0.89 0 0.59 0 0.59 0 0.89 -0.3 0.59 0 0.59 -0.3 0.59 -0.29 0.59 0 0.59 -0.3 0.59 -0.3 0.59 -0.3 0.59 -0.3 0.59 -0.59 0.3 -0.3 0.59 -0.3 0.59 -0.3 0.3 -0.59 0.59 -0.29 0.3 -0.59 0.3 -0.59 0.59 -0.3 0.3 -0.59 0.3 -0.59 0.3 -0.59 0.29 -0.3 0 -0.59 0.3 -0.59 0.3 -0.59 0 -0.59 0 -0.89 0.3 -0.59 0 0 -0.59 0.59 0 0.59 0 0.59 -0.3 0.59 0 0.59 -0.3 0.59 0 0.59 -0.3 0.59 -0.29 0.3 -0.3 0.59 -0.3 0.59 -0.3 0.3 -0.3 0.59 -0.3 0.3 -0.59 0.29 -0.3 0.59 -0.59 0.3 -0.3 0.3 -0.59 0.3 -0.29 0.3 -0.59 0.3 -0.59 0.3 -0.59 0.3 -0.59 0.29 -0.29 0.3 -0.59 0 -0.89 0.3 -0.59 0 -0.59 0 -0.59 0.3 -0.59 0 -0.59 0 -0.89 0 0 0 -0zm0 -23.9l0.3 0 0 0 0 0.59 0 0.89 0 0.59 0 0.89 0 0.89 0 0.59 0 0.89 0 0.59 0 0.89 0 0.59 0 0.89 0 0.59 0 0.88 0 0.89 0 0.59 0 0.89 0 0.59 0 0.89 0 0.59 0 0.89 0 0.59 0 0.89 0 0.59 0 0.89 0 0.89 0 0.59 0 0.89 0 0.59 0 0.89 0 0.59 0 0.89 0 0.59 -0.3 0 0 -0.59 0 -0.89 0 -0.59 0 -0.89 0 -0.59 0 -0.89 0 -0.59 0 -0.89 0 -0.89 0 -0.59 0 -0.89 0 -0.59 0 -0.89 0 -0.59 0 -0.89 0 -0.59 0 -0.89 0 -0.59 0 -0.89 0 -0.88 0 -0.59 0 -0.89 0 -0.59 0 -0.89 0 -0.59 0 -0.89 0 -0.59 0 -0.89 0 -0.89 0 -0.59 0 -0.89 0 -0.59 0 0zm0 -0.89l0.3 0 0 0 0 0 0 0 0 0 0 0 0 0 0 0 0 0 0 0.3 0 0 0 0 0 0 0 0 0 0 0 0 0 0 0 0 0 0 0 0.3 0 0 0 0 0 0 0 0 0 0 0 0 0 0 0 0 0 0 0 0 0 0.3 0 0 0 0 0 0 -0.3 0 0 0 0 0 0 0 0 -0.3 0 0 0 0 0 0 0 0 0 0 0 0 0 0 0 0 0 0 0 0 0 -0.3 0 0 0 0 0 0 0 0 0 0 0 0 0 0 0 0 0 0 0 0 0 -0.3 0 0 0 0 0 0 0 0 0 0 0 0 0 0zm0.89 -2.06l0 0.59 0 0 0 0 0 0 0 0 0 0 0 0 -0.3 0.29 0 0 0 0 0 0 0 0 0 0 0 0 0 0 0 0.3 0 0 0 0 0 0 0 0 0 0 -0.3 0 0 0.3 0 0 0 0 0 0 0 0 0 0.3 0 0 0 0 0 0 0 0 0 0.3 0 0 -0.29 0 0 0 0 -0.3 0 0 0 0 0 0 0 0 0 -0.3 0 0 0 0 0 0 0 -0.3 0 0 0 0 0 0 0 -0.3 0 0 0 0 0 0 0.29 0 0 -0.29 0 0 0 0 0 0 0 0 0 -0.3 0.3 0 0 0 0 0 0 0 0 0 0.3 0 0 -0.3 0 0 0 0zm0 0.59l0 0 0 0 0 0zm1.77 0.59l-0.3 0 0 0 0 0 0 0 -0.3 0 0 -0.3 0 0 0 0 0 0 0 0 0 0 0 0 -0.3 -0.29 0 0 0 0 0 0 0 0 0 0 0 0 -0.3 0 0 0 0 0 0 0 0 0 0 0 0 0 0 0 -0.3 0 0 0 0 0 0 0 0 0 0 0 -0.29 0 0 -0.59 0 0 0 0 0.29 0 0 0 0 0 0 0 0.3 0 0 0 0 0 0 0 0 0 0.3 0 0 0 0 0 0 0 0 0.29 0.3 0 0 0 0 0 0 0 0 0 0 0 0.3 0 0 0.3 0 0 0 0 0 0 0 0 0.3 0 0 0.3 0 0 0 0 0 0.3 0 0zm0 -0.3l0 0 0 0.3 0 -0.3zm0 28.03l-0.3 0 0 0 0 -0.89 0 -0.89 0 -0.89 0 -0.89 0 -0.88 0 -0.89 0 -0.89 0 -0.89 0 -0.89 0 -0.89 0 -0.89 0 -0.59 0 -0.89 0 -0.89 0 -0.88 0 -0.89 0 -0.89 0 -0.89 0 -0.89 0 -0.89 0 -0.89 0 -0.89 0 -0.89 0 -0.89 0 -0.88 0 -0.89 0 -0.89 0 -0.89 0 -0.89 0 -0.89 0 -0.89 0 -0.59 0.3 0 0 0.59 0 0.89 0 0.89 0 0.89 0 0.89 0 0.89 0 0.89 0 0.88 0 0.89 0 0.89 0 0.89 0 0.89 0 0.89 0 0.89 0 0.89 0 0.89 0 0.89 0 0.88 0 0.89 0 0.89 0 0.59 0 0.89 0 0.89 0 0.89 0 0.89 0 0.89 0 0.89 0 0.88 0 0.89 0 0.89 0 0.89 0 0.89 0 0zm0 0l0 0 0 0 0 0z"/>
    </g>
    <g>
     <path class="fil1" d="M41.31 18.59c1.18,0.3 2.36,0.89 3.24,1.48 0.89,0.88 1.18,2.36 2.07,2.95 0.89,0.89 2.36,1.18 3.24,2.07 1.48,1.47 2.07,3.24 1.77,5.31 -0.3,2.06 -1.77,3.24 -3.54,3.24 -5.31,0.3 -10.33,0.3 -15.35,0 -2.65,0 -4.43,-2.36 -3.83,-5.02 0.59,-2.65 2.07,-4.43 4.43,-5.02 0.29,-0.29 0.59,-0.59 0.59,-0.59 1.18,-2.36 2.65,-3.83 5.01,-4.43 0,0 0.3,0 0.3,0 0.59,0 1.48,0 2.07,0l0 0zm-1.18 12.69l0 0c2.65,0 5.02,0 7.67,0 1.18,0 1.77,-0.88 1.48,-2.36 -0.3,-1.77 -1.48,-2.95 -2.95,-2.95 -0.89,-0.3 -1.48,-0.59 -1.77,-1.47 -0.59,-2.07 -2.36,-3.54 -4.43,-3.54 -1.77,0 -3.54,1.48 -4.13,3.54 -0.3,0.89 -0.89,1.18 -1.47,1.47 -1.77,0 -2.66,1.18 -3.25,2.66 -0.59,1.77 0.3,2.65 1.77,2.65 2.36,0 4.72,0 7.08,0l0 0z"/>
     <path id="_1_24" class="fil1 str1" d="M44.56 19.77l-0.3 0.59 0 0 0 0 0 -0.3 -0.3 0 0 0 0 0 -0.3 -0.3 0 0 0 0 0 0 -0.29 0 0 0 0 -0.3 -0.3 0 0 0 0 0 -0.3 0 0 0 0 -0.3 -0.3 0 0 0 0 0 -0.3 0 0 0 0 0 -0.3 -0.3 0 0 0 0 -0.3 0 0 0 0 0 -0.29 0 0 -0.29 0.29 -0.3 0 0 0 0 0.3 0 0 0 0 0.3 0.3 0 0 0 0 0 0.3 0 0 0 0 0.29 0.3 0 0 0 0 0 0.3 0 0 0 0 0 0.3 0.3 0 0 0 0 0.29 0 0 0 0 0 0.3 0.3 0 0 0 0 0.3 0 0 0 0 0.3 0 0 0.3 0 0 0 0 0 0 0zm2.36 3.24l-0.3 0.3 0 0 -0.3 0 0 0 0 -0.3 0 0 -0.3 0 0 -0.3 0 0 0 0 -0.3 -0.3 0 0 0 -0.29 0 0 -0.3 0 0 -0.3 0 0 0 0 0 -0.3 -0.3 0 0 0 0 -0.3 0 0 -0.29 0 0 -0.3 0 0 0 0 0 -0.3 -0.3 0 0 0 0 0 0 -0.3 -0.3 0 0 0 0.3 -0.59 0 0.3 0.3 0 0 0 0 0.3 0 0 0.29 0 0 0.3 0 0 0 0 0.3 0.3 0 0 0 0 0 0.3 0.3 0 0 0 0 0.29 0 0 0 0 0.3 0.3 0 0 0 0.3 0 0 0.3 0 0 0.3 0 0 0 0 0.3 0 0 0.3 0 0 0 0 0.3 0.3 0 0 0 0 0 0zm2.95 2.07l-0.3 0.3 0 0 0 0 0 -0.3 -0.3 0 0 0 0 0 0 -0.3 -0.29 0 0 0 0 0 -0.3 0 0 -0.3 0 0 -0.3 0 0 0 0 0 -0.3 0 0 -0.3 -0.3 0 0 0 0 0 -0.3 0 0 -0.3 0 0 -0.3 0 0 0 0 0 -0.3 -0.3 0 0 0 0 -0.29 0 0 -0.29 0 0 0.29 -0.3 0 0 0 0 0.3 0.3 0 0 0 0 0 0 0.3 0 0 0.29 0 0 0.3 0 0 0 0 0 0.3 0.3 0 0 0 0 0.3 0 0 0 0.3 0 0 0.3 0 0 0.3 0 0 0 0 0 0.29 0.3 0 0 0 0 0.3 0 0 0 0 0.3 0.3 0 0 0 0 0.3 0 0zm2.07 5.31l-0.59 0 0 0 0 -0.3 0 -0.3 0 0 0 -0.3 0 0 0 -0.3 0 -0.3 0 0 0 -0.29 0 0 0 -0.3 0 0 0 -0.3 0 -0.3 0 0 -0.3 -0.3 0 0 0 -0.3 0 0 -0.3 -0.3 0 0 0 -0.29 0 0 -0.3 -0.3 0 0 0 -0.3 -0.3 0 0 -0.3 0 0 -0.3 0 0 -0.3 -0.29 0 0.29 -0.3 0.3 0 0 0 0.3 0.3 0 0 0 0.3 0.3 0 0 0.3 0.3 0 0 0.3 0 0 0 0.3 0.3 0 0 0.29 0 0.3 0.3 0 0 0.3 0 0 0 0.3 0 0 0 0.3 0.29 0.3 0 0 0 0.3 0 0.29 0 0 0 0.3 0 0.3 0 0 0 0.3 0 0.3 0 0 0 0.3 0 0 0 0zm-3.84 3.54l-0.3 -0.3 0 0 0.3 0 0.3 0 0 -0.3 0.3 0 0 0 0.3 0 0 0 0.3 0 0 0 0.3 -0.3 0 0 0.3 0 0 0 0 -0.29 0.29 0 0 0 0.3 -0.3 0 0 0 -0.3 0.3 0 0 0 0 -0.3 0 0 0.3 -0.3 0 0 0 -0.3 0 0 0.3 -0.3 0 -0.29 0 0 0 -0.3 0 0 0.59 0 0 0.3 -0.3 0 0 0.29 0 0.3 0 0 0 0.3 -0.3 0 0 0.3 0 0.3 -0.3 0 0 0.3 0 0 -0.3 0.3 0 0 0 0 -0.29 0.29 0 0 -0.3 0.3 0 0 -0.3 0 0 0.3 -0.3 0 0 0 -0.3 0 0 0.3 -0.3 0 0 0 -0.3 0 -0.29 0 0 0 -0.3 0 0 0 0 0 -0 0zm-15.34 0l0 -0.3 0 0 0.3 0 0.59 0 0.3 0 0.59 0 0.59 0 0.3 0 0.59 0 0.59 0 0.3 0 0.59 0 0.3 0 0.59 0 0.59 0 0.3 0 0.59 0 0.59 0 0.3 0 0.59 0 0.3 0 0.59 0 0.59 0 0.3 0 0.59 0 0.59 0 0.3 0 0.59 0 0.29 0 0.59 0 0.59 0 0.3 0 0.59 0 0.3 0 0.3 0.3 -0.59 0 -0.59 0 -0.3 0 -0.59 0 -0.59 0 -0.3 0 -0.59 0 -0.3 0 -0.59 0 -0.59 0 -0.3 0 -0.59 0 -0.59 0 -0.29 0 -0.59 0 -0.3 0 -0.59 0 -0.59 0 -0.3 0 -0.59 0 -0.59 0 -0.3 0 -0.59 0 -0.3 0 -0.59 0 -0.59 0 -0.3 0 -0.59 0 -0.59 0 -0.3 0 -0.59 0 -0.3 0 0 0 0 0zm-4.13 -5.61l0.59 0.3 0 0 0 0.3 0 0 0 0.3 0 0.3 0 0.29 0 0.3 0 0 0 0.3 0 0.3 0 0.3 0 0 0.3 0.3 0 0.3 0 0 0.3 0.3 0 0 0 0.29 0.3 0.3 0 0 0.3 0.3 0 0 0.3 0 0 0.3 0.29 0 0.3 0 0 0.3 0.3 0 0.3 0 0 0 0.3 0 0.3 0.3 0.3 0 0 0.3 -0.3 0 -0.3 0 -0.3 0 -0.3 0 0 0 -0.3 -0.3 -0.3 0 -0.29 0 0 -0.3 -0.3 0 -0.3 -0.3 0 0 -0.3 -0.3 0 0 -0.3 -0.3 0 -0.3 -0.3 0 0 -0.29 0 -0.3 -0.3 0 0 -0.3 0 -0.3 0 -0.3 -0.3 -0.3 0 0 0 -0.3 0 -0.3 0 -0.29 0 -0.3 0 -0.3 0 -0.3 0 -0.3 0 0 0 0zm4.43 -5.02l0.3 0.3 0 0 -0.3 0.3 0 0 -0.3 0 -0.29 0.3 0 0 -0.3 0 -0.3 0.29 0 0 -0.3 0 0 0.3 -0.3 0 0 0.3 -0.3 0 0 0 -0.3 0.3 0 0 -0.29 0.3 0 0 0 0.3 -0.3 0.3 0 0 -0.3 0.29 0 0 0 0.3 0 0.3 -0.3 0 0 0.3 0 0.3 0 0 -0.3 0.3 0 0.3 0 0.3 -0.59 -0.3 0.3 0 0 -0.3 0 -0.3 0 -0.3 0.3 -0.3 0 0 0 -0.3 0.3 -0.3 0 0 0 -0.29 0.3 -0.3 0 0 0 -0.3 0.29 -0.3 0 0 0.3 -0.3 0 0 0.3 -0.3 0 0 0.3 -0.3 0 0 0.3 -0.29 0 0 0.3 0 0.3 -0.3 0 0 0.29 -0.3 0.3 0 0 0 0.3 -0.3 0.3 0 0 0 0 0 0 0zm0 0l0 0 0 0 0 0zm0.89 -0.59l0.3 0.3 0 0 0 0 0 0 0 0 0 0 0 0 -0.3 0.3 0 0 0 0 0 0 0 0 0 0 0 0 0 0 0 0 0 0 0 0 -0.3 0.3 0 0 0 0 0 0 0 0 0 0 0 0 0 0 0 0 0 0 -0.29 0 0 0 0 0 0 0 0 0 0 0 -0.3 -0.3 0 0 0.3 0 0 0 0 0 0 0 0 0 0 0 0 0 0 0 0 -0.3 0 0 0 0 0 0 0.29 0 0 0 0 0 0 0 0 0 0 0 0 0 0 0 0 0 0 0 0 0 0 0 0 -0.3 0 0 0 0 0 0 0 0 0.3 0 0 0 0 0zm0.3 0.3l0 0 0 -0.3 0 0.3zm4.72 -4.72l0 0.59 0 0 -0.3 0 0 0 -0.3 0 -0.29 0.3 0 0 -0.3 0 0 0 -0.3 0.3 -0.3 0 0 0 -0.3 0.3 0 0 -0.3 0 0 0.3 -0.3 0 0 0.29 -0.3 0 0 0.3 -0.29 0 0 0.3 -0.3 0 0 0.3 -0.3 0 0 0.3 -0.3 0 0 0.3 0 0.3 -0.3 0 0 0.29 0 0.3 -0.3 0 0 0.3 -0.3 -0.3 0 -0.3 0 0 0.3 -0.29 0 -0.3 0 0 0.3 -0.3 0 -0.3 0.3 0 0 -0.3 0.3 0 0 -0.3 0.3 -0.3 0 0 0.3 -0.29 0 0 0.29 -0.3 0 0 0.3 0 0 -0.3 0.3 0 0 -0.3 0.3 0 0.3 0 0 -0.3 0.3 0 0.3 0 0 -0.3 0.3 0 0.29 0 0 0 0.3 -0.3 0.3 0 0 0 0 0zm0 0.59l0 0 0 0 0 0zm0.3 -0.59l0 0.3 0 0 0 0 0 0 0 0 0 0 0 0 0 0 0 0 0 0 0 0 0 0 0 0 0 0 0 0 0 0.3 0 0 0 0 0 0 0 0 0 0 0 0 0 0 0 0 0 0 0 0 0 0 -0.3 0 0 0 0 0 0 0 0 0 0 0 0 0 0 -0.59 0 0 0 0 0 0 0 0 0 0 0 0 0 0 0 0 0 0 0 0 0 0 0 0 0 0 0 0 0 0 0 0 0 0 0 0 0 0 0 0 0 0 0 0 0 0 0 0 0 0 0 0 0 0 0 0 0 0 0 0 0 0 0 0 0.3 0 0 0zm-0.3 0l0.3 0 0 0 -0.3 0zm2.66 0l-0.3 0.3 0 0 0 0 0 0 0 0 -0.3 0 0 0 0 0 0 0 0 0 -0.3 0 0 0 0 0 0 0 -0.3 0 0 0 0 0 0 0 -0.3 0 0 0 0 0 0 0 -0.29 0 0 0 0 0 0 0 -0.3 0 0 0 0 0 0 0 -0.3 0 0 0 0 0 0 0 0 -0.3 0 0 0 0 0 0 0.3 0 0 0 0 0 0 0 0.3 0 0 0 0 0 0 0 0.29 0 0 0 0 0 0 0 0.3 0 0 0 0 0 0 0 0.3 0 0 0 0 0 0 0 0.3 0 0 0 0 0 0 0 0 0 0.3 0 0 0 0 0 0 0 0.3 0zm-0.3 0l0.3 0 0 0 -0.3 0zm-1.18 12.98l0 0 0 0 0 0 0 -0.29 0 0.29zm7.67 -0.29l0 0.59 0 0 -0.29 0 -0.3 0 -0.3 0 -0.3 0 0 0 -0.3 0 -0.3 0 -0.3 0 -0.29 0 0 0 -0.3 0 -0.3 0 -0.3 0 0 0 -0.3 0 -0.3 0 -0.3 0 -0.3 0 0 0 -0.29 0 -0.3 0 -0.3 0 -0.3 0 0 0 -0.3 0 -0.3 0 -0.3 0 -0.29 0 0 0 -0.3 0 -0.3 0 -0.3 0 0 -0.59 0.3 0 0.3 0 0.3 0 0 0 0.29 0 0.3 0 0.3 0 0.3 0 0 0 0.3 0 0.3 0 0.3 0 0.29 0 0 0 0.3 0 0.3 0 0.3 0 0.3 0 0 0 0.3 0 0.3 0 0.3 0 0 0 0.29 0 0.3 0 0.3 0 0.3 0 0 0 0.3 0 0.3 0 0.3 0 0.29 0 0 0zm1.18 -2.07l0.59 0 0 0 0 0 0 0.3 0 0 0 0.3 0 0 0 0.29 0 0 0 0 0 0.3 0 0 0 0.3 0 0 0 0 -0.3 0.3 0 0 0 0 0 0.3 0 0 -0.29 0 0 0 0 0.3 -0.3 0 0 0 0 0 -0.3 0 0 0 0 0 -0.3 0.3 0 0 -0.3 0 0 0 0 0 0 -0.59 0 0 0 0 0.3 0 0 0 0 0 0.3 0 0 0 0 0 0.3 -0.3 0 0 0 0 0 0 0 0 0.3 0 0 -0.3 0 0 0 0 0 0 0 0 0 -0.3 0 0 0 0 0.29 -0.3 0 0 0 0 0 -0.3 0 0 0 0 0 -0.3 0 0 -0.29 0 0 -0.29 0 0 -0 0zm-2.95 -2.65l0.3 -0.59 0 0 0 0 0.3 0 0 0 0.3 0 0 0 0.29 0.3 0 0 0.3 0 0 0 0.3 0.3 0 0 0 0 0.3 0 0 0.3 0.3 0 0 0 0 0.3 0.3 0 0 0.3 0 0 0.3 0 0 0.3 0 0 0 0.3 0.3 0 0 0.29 0 0 0 0.3 0 0 0.29 0.3 0 0 0 0.3 -0.59 0 0 0 0 -0.3 0 0 0 -0.3 0 0 -0.3 -0.3 0 0 0 0 0 -0.29 0 0 -0.29 -0.3 0 0 0 0 0 -0.3 -0.3 0 0 0 0 -0.3 -0.3 0 0 0 0 -0.3 -0.3 0 0 0 -0.3 0 0 0 0 -0.3 -0.3 0 0 0 -0.3 0 0 0 -0.29 0 0 0 -0.3 0 0 0 0 0zm-1.77 -1.77l0.59 0 0 0 0 0 0 0 0 0 0 0.3 0 0 0 0 0.3 0 0 0 0 0.29 0 0 0 0 0 0 0 0 0 0 0 0 0.3 0.3 0 0 0 0 0 0 0 0 0 0 0 0 0.3 0 0 0 0 0 0 0.3 0 0 0.3 0 0 0 0 0 0 0 0.3 0 -0.3 0.59 0 -0.3 0 0 0 0 -0.3 0 0 0 0 0 0 0 -0.3 0 0 0 0 0 0 0 -0.3 0 0 -0.3 0 0 0 0 0 0 -0.3 0 0 0 0 -0.29 0 0 0 0 0 0 -0.3 -0.3 0 0 0 0 0 0 0 -0.3 0 0 0 0 0 0 0 -0.3 -0.29 0 0 0 -0 0zm0 0l0 0 0.3 0.3 -0.3 -0.3zm-4.13 -3.25l0 -0.59 0 0 0.3 0 0.3 0 0 0 0.3 0 0.29 0.3 0 0 0.3 0 0 0 0.3 0 0.3 0.3 0 0 0.3 0 0 0 0.3 0.3 0 0 0.3 0.3 0 0 0.29 0 0 0.3 0.3 0 0 0.29 0.3 0 0 0.3 0 0 0.3 0.3 0 0.3 0.3 0 0 0.3 0 0 0 0.3 0.3 0.3 0 0.3 -0.59 0 0 -0.3 0 0 0 -0.3 0 0 -0.3 -0.3 0 -0.3 0 0 -0.3 -0.3 0 0 0 -0.3 -0.3 0 0 0 -0.3 -0.3 0 0 -0.3 -0.29 0 0 0 0 -0.29 -0.3 0 0 -0.3 0 0 -0.3 -0.3 0 0 0 -0.3 0 -0.3 0 0 -0.3 -0.3 0 0 0 -0.3 0 0 0 -0.3 0 -0.29 0 0 0 0 0zm-4.13 3.25l-0.3 0 0 0 0 -0.3 0 -0.3 0.3 0 0 -0.3 0 -0.3 0.3 0 0 -0.3 0 0 0.3 -0.29 0 -0.3 0.29 0 0 -0.3 0 0 0.3 0 0 -0.3 0.3 0 0 -0.3 0.3 0 0.3 0 0 -0.3 0.3 0 0 0 0.3 -0.3 0 0 0.3 0 0.29 0 0 0 0.3 0 0 -0.3 0.3 0 0.3 0 0 0 0 0.59 0 0 -0.3 0 0 0 -0.3 0 0 0 -0.3 0 -0.29 0.3 0 0 -0.3 0 0 0 -0.3 0 0 0.3 -0.3 0 0 0 -0.3 0.3 0 0 -0.3 0 0 0.3 0 0 -0.3 0.3 0 0 -0.3 0.3 0 0 0 0.3 -0.29 0 0 0.29 0 0 -0.3 0.3 0 0 0 0.3 0 0.3 -0.3 0 0 0 0 0zm-1.48 1.48l-0.3 -0.3 0 0 0.3 0 0 0 0 0 0 0 0.3 0 0 0 0 -0.3 0 0 0 0 0.3 0 0 0 0 0 0 0 0 0 0 0 0 0 0.3 0 0 -0.3 0 0 0 0 0 0 0 0 0 0 0 -0.3 0 0 0 0 0.29 0 0 0 0 -0.3 0 0 0 0 0 0 0.3 0 0 0 0 0.3 0 0 0 0 0 0.3 0 0 0 0 0 0 -0.3 0.3 0 0 0 0 0 0 0 0 0 0.3 0 0 -0.29 0 0 0 0 0 0 0 0 0.3 -0.3 0 0 0 0 0 0 0 -0.3 0 0 0 0 0 0 0 -0.3 0 0 0 0 0 0 0 0 0zm-2.95 2.65l-0.59 0 0 0 0.3 -0.3 0 0 0 -0.3 0 0 0 -0.3 0.29 0 0 -0.29 0 0 0 0 0.3 -0.3 0 0 0 -0.3 0 0 0.3 0 0 -0.3 0 0 0.3 0 0 -0.3 0.3 0 0 0 0 -0.3 0.3 0 0 0 0.3 0 0 0 0.3 -0.3 0 0 0.29 0 0 0 0 0 0.3 0 0 0 0.3 0.3 -0.3 0.3 0 0 -0.3 0 0 0 -0.29 0 0 0 0 0 -0.3 0 0 0.3 -0.3 0 0 0 0 0 -0.3 0 0 0.3 0 0 -0.3 0 0 0 0 0.3 0 0 -0.3 0 0 0.3 0 0 0 0 -0.3 0.29 0 0 0 0.3 0 0 -0.3 0.3 0 0 0 0 0 0.3 0 0 0 0 0 0zm1.47 2.36l0 0.59 0 0 -0.3 0 0 0 -0.29 0 0 0 -0.3 -0.3 0 0 0 0 -0.3 0 0 0 -0.3 0 0 -0.3 0 0 0 0 -0.3 0 0 -0.3 0 0 0 0 -0.3 -0.3 0 0 0 0 0 -0.3 0 0 0 -0.3 0 0 0 -0.29 0 0 0 -0.3 0 0 0 -0.3 0 0 0 -0.3 0 0 0.59 0 0 0.3 0 0 -0.3 0.3 0 0 0 0.3 0 0 0 0 0 0.29 0 0 0 0 0 0.3 0.3 0 0 0 0 0.3 0 0 0 0 0 0 0 0.3 0.3 0 0 0 0 0 0 0 0 0 0.3 0.3 0 0 0 0 0.3 0 0 0 0.3 0 0 0 0 0 0.3 0 0 0 -0 0zm7.08 0l0 0.59 0 0 0 0 -0.3 0 -0.3 0 -0.3 0 -0.3 0 0 0 -0.29 0 -0.3 0 -0.3 0 0 0 -0.3 0 -0.3 0 -0.3 0 0 0 -0.3 0 -0.29 0 -0.3 0 0 0 -0.3 0 -0.3 0 -0.3 0 -0.3 0 0 0 -0.3 0 -0.3 0 -0.29 0 0 0 -0.3 0 -0.3 0 -0.3 0 0 0 -0.3 0 0 -0.59 0.3 0 0 0 0.3 0 0.3 0 0.3 0 0 0 0.29 0 0.3 0 0.3 0 0 0 0.3 0 0.3 0 0.3 0 0.3 0 0 0 0.3 0 0.29 0 0.3 0 0 0 0.3 0 0.3 0 0.3 0 0 0 0.3 0 0.3 0 0.29 0 0 0 0.3 0 0.3 0 0.3 0 0.3 0 0 0 0 0z"/>
    </g>
    <g>
     <path class="fil1" d="M51.93 116.84c-8.26,0 -16.52,0 -24.78,0 -0.3,0 -0.59,0 -0.89,0 -0.3,-0.3 -0.59,-0.89 -0.89,-1.18 0,-0.88 0.3,-1.18 1.18,-1.47 0.29,0 0.59,0 0.88,0 16.23,0 32.46,0 48.69,0 6.79,0 12.69,-5.02 14.46,-12.39 2.06,-9.74 -4.72,-19.47 -13.87,-19.77 -3.24,0 -6.2,0 -9.15,0 -3.54,0 -6.49,-2.95 -7.08,-6.79 -0.3,-3.83 2.06,-7.38 5.6,-8.26 0.59,-0.3 1.18,-0.3 1.48,-0.3 4.43,0 8.56,0 12.98,0 0,0 0.3,0 0.59,0.3 0.3,0.3 0.89,0.59 0.89,0.89 0,0.59 -0.59,0.89 -0.89,1.18 -0.3,0.29 -0.59,0.29 -0.89,0.29 -4.13,0 -8.26,0 -12.39,0 -2.36,0 -4.43,1.48 -4.72,3.84 -0.89,3.24 1.18,6.2 4.43,6.2 2.95,0.29 5.9,0 8.85,0.29 7.96,0 14.75,5.9 16.23,14.46 2.36,10.62 -4.43,21.24 -14.46,22.42 -0.59,0.3 -1.47,0.3 -2.36,0.3 -7.96,0 -15.93,0 -23.9,0l-0 0z"/>
     <path id="_1_25" class="fil1 str1" d="M27.15 117.13l0 -0.59 0 0 0.88 0 0.89 0 0.59 0 0.89 0 0.59 0 0.89 0 0.89 0 0.59 0 0.89 0 0.89 0 0.59 0 0.89 0 0.59 0 0.89 0 0.89 0 0.59 0 0.89 0 0.88 0 0.59 0 0.89 0 0.59 0 0.89 0 0.89 0 0.59 0 0.89 0 0.89 0 0.59 0 0.89 0 0.59 0 0.89 0 0.89 0 0.59 0 0 0.59 -0.59 0 -0.89 0 -0.89 0 -0.59 0 -0.89 0 -0.59 0 -0.89 0 -0.89 0 -0.59 0 -0.89 0 -0.89 0 -0.59 0 -0.89 0 -0.59 0 -0.88 0 -0.89 0 -0.59 0 -0.89 0 -0.89 0 -0.59 0 -0.89 0 -0.59 0 -0.89 0 -0.89 0 -0.59 0 -0.89 0 -0.89 0 -0.59 0 -0.89 0 -0.59 0 -0.89 0 -0.88 0 0 0zm-0.89 -0.3l0.3 -0.3 0 0 0 0 0 0 0 0 0 0 0 0 0 0 0 0 0 0 0 0 0 0 0 0 0 0 0 0 0 0 0.29 0 0 0 0 0 0 0 0 0 0 0 0 0 0 0 0 0 0 0 0.3 0 0 0 0 0 0 0 0 0 0 0 0 0 0 0 0 0.59 0 0 0 0 0 0 0 0 0 0 0 0 0 0 0 0 -0.3 0 0 0 0 0 0 0 0 0 0 0 0 0 0 0 0 0 0 0 -0.29 0 0 0 0 0 0 0 0 0 0 0 0 0 0 0 -0.3 0 0 0 0 0 0 -0.3 0 0 0 0 0 0 0 0zm0 0l0 0 0 0 0 0zm-0.89 -1.18l0.3 -0.29 0 0 0 0 0 0.29 0 0 0 0 0 0 0 0 0 0 0 0 0 0 0.3 0 0 0.3 0 0 0 0 0 0 0 0 0 0 0 0 0 0 0 0.3 0 0 0.29 0 0 0 0 0 0 0 0 0 0 0 0 0 0 0.3 0 0 0.3 0 0 0 0 0 -0.3 0.3 0 0 0 0 0 0 -0.29 0 0 0 0 0 0 -0.3 0 0 0 0 0 0 0 0 -0.3 0 0 0 0 0 0 -0.3 0 0 0 0 0 0 0 0 -0.3 0 0 0 0 -0.3 0 0 0 0 0 0 0 0 0 0 0 -0.3 0 0 0 0 0 0 0 0 0 0zm0.89 -1.47l0.3 0.3 0 0 -0.3 0 0 0 0 0 0 0 0 0 0 0 0 0.3 -0.3 0 0 0 0 0 0 0 0 0 0 0 0 0 0 0 0 0 -0.3 0 0 0.29 0 0 0 0 0 0 0 0 0 0 0 0 0 0 0 0 0 0.3 0 0 0 0 0 0 0 0 0 0 -0.3 0.3 0 -0.3 -0.3 0 0 0 0 0 0 -0.3 0.3 0 0 0 0 0 0 0 0 -0.29 0 0 0 0 0 0 0 0 0 -0.3 0 0 0.3 0 0 0 0 0 0 0 0 -0.3 0 0 0.3 0 0 0 0 0 0 0 0 0 0.3 0 0 0 0 0 0 0 0 0 0 0zm0.3 0.3l0 0 -0.89 0.3 0.89 -0.3zm0.88 -0.59l0 0.59 0 0 0 0 0 0 -0.29 0 0 0 0 0 0 0 0 0 0 0 0 0 0 0 0 0 0 0 -0.3 0 0 0 0 0 0 0 0 0 0 0 0 0 0 0 0 0 0 0 -0.3 0 0 0 0 0 0 0 0 0 0 0 0 0 0 0 0 0 0 0 -0.3 -0.3 0.3 0 0 0 0 -0.3 0 0 0 0 0 0 0 0 0 0 0 0 0.3 0 0 0 0 0 0 0 0 0 0 0 0 0 0 0 0 0 0 0 0.3 0 0 0 0 0 0 0 0 0 0 0 0 0 0 0 0 0 0.29 0 0 0 0 0 0 0 0 0 0 0zm48.69 0l0 0.59 0 0 -1.47 0 -1.77 0 -1.48 0 -1.47 0 -1.48 0 -1.48 0 -1.47 0 -1.48 0 -1.77 0 -1.47 0 -1.48 0 -1.48 0 -1.47 0 -1.48 0 -1.77 0 -1.47 0 -1.48 0 -1.47 0 -1.48 0 -1.48 0 -1.77 0 -1.48 0 -1.48 0 -1.47 0 -1.48 0 -1.48 0 -1.47 0 -1.77 0 -1.48 0 -1.47 0 -1.48 0 -1.48 0 0 -0.59 1.48 0 1.48 0 1.47 0 1.48 0 1.77 0 1.47 0 1.48 0 1.48 0 1.47 0 1.48 0 1.48 0 1.77 0 1.48 0 1.48 0 1.47 0 1.48 0 1.47 0 1.77 0 1.48 0 1.47 0 1.48 0 1.48 0 1.47 0 1.77 0 1.48 0 1.47 0 1.48 0 1.48 0 1.47 0 1.48 0 1.77 0 1.47 0 0 0zm14.16 -12.1l0.3 0 0 0 0 0.89 -0.3 0.59 -0.3 0.59 0 0.89 -0.29 0.59 -0.3 0.59 -0.3 0.59 -0.3 0.59 -0.59 0.59 -0.3 0.59 -0.3 0.3 -0.59 0.59 -0.3 0.59 -0.29 0.3 -0.59 0.59 -0.59 0.3 -0.29 0.59 -0.59 0.29 -0.59 0.3 -0.59 0.3 -0.3 0.3 -0.59 0.3 -0.59 0.3 -0.59 0.3 -0.59 0.3 -0.59 0 -0.59 0.29 -0.59 0 -0.88 0.3 -0.59 0 -0.59 0 -0.59 0 0 -0.59 0.59 0 0.59 0 0.59 0 0.59 0 0.59 -0.3 0.59 0 0.59 -0.3 0.59 -0.29 0.59 0 0.59 -0.3 0.59 -0.3 0.59 -0.3 0.3 -0.3 0.59 -0.3 0.59 -0.59 0.3 -0.3 0.59 -0.29 0.59 -0.59 0.3 -0.3 0.29 -0.59 0.59 -0.59 0.3 -0.3 0.3 -0.59 0.3 -0.59 0.3 -0.59 0.3 -0.59 0.3 -0.59 0.29 -0.59 0.3 -0.59 0.3 -0.59 0 -0.89 0.3 -0.59 0 0 0 0zm-13.57 -19.47l0 -0.59 0 0 0.89 0 0.89 0.3 0.59 0 0.89 0.29 0.89 0.3 0.88 0.3 0.59 0.3 0.88 0.3 0.59 0.59 0.59 0.59 0.89 0.3 0.59 0.59 0.59 0.59 0.59 0.59 0.3 0.89 0.59 0.59 0.59 0.59 0.3 0.89 0.59 0.59 0.3 0.89 0.3 0.89 0.3 0.88 0.3 0.89 0 0.89 0.3 0.89 0 0.89 0.29 0.89 0 0.89 0 0.89 -0.29 0.89 0 0.88 -0.3 0.89 -0.3 0 0 -0.89 0.3 -0.88 0 -0.89 0 -0.89 0 -0.89 0 -0.89 0 -0.89 -0.3 -0.89 -0.3 -0.89 0 -0.89 -0.3 -0.59 -0.3 -0.88 -0.59 -0.89 -0.3 -0.59 -0.3 -0.89 -0.59 -0.59 -0.59 -0.59 -0.29 -0.89 -0.59 -0.59 -0.59 -0.59 -0.59 -0.3 -0.88 -0.59 -0.59 -0.59 -0.59 -0.3 -0.89 -0.3 -0.59 -0.59 -0.89 -0.3 -0.59 0 -0.89 -0.3 -0.89 -0.3 -0.59 0 -0.89 0 0 0 0 0zm-9.15 0l0 -0.59 0 0 0.3 0 0.3 0 0.29 0 0.3 0 0.3 0 0.3 0 0.3 0 0.3 0 0 0 0.3 0 0.29 0 0.3 0 0.3 0 0.3 0 0.3 0 0.3 0 0.3 0 0.3 0 0.29 0 0.3 0 0.3 0 0.3 0 0.3 0 0.3 0 0.3 0 0.29 0 0.3 0 0.3 0 0.3 0 0.3 0 0.3 0 0.3 0 0 0.59 -0.3 0 -0.3 0 -0.3 0 -0.3 0 -0.3 0 -0.3 0 -0.29 0 -0.3 0 -0.3 0 -0.3 0 -0.3 0 -0.3 0 -0.3 0 -0.29 0 -0.3 0 -0.3 0 -0.3 0 -0.3 0 -0.3 0 -0.3 0 -0.3 0 -0.29 0 0 0 -0.3 0 -0.3 0 -0.3 0 -0.3 0 -0.3 0 -0.3 0 -0.29 0 -0.3 0 -0.3 0 0 0zm-7.08 -7.08l0.3 0 0 0 0 0.3 0.3 0.3 0 0.3 0 0.3 0 0.3 0.3 0.29 0 0.3 0.3 0.3 0 0.3 0.3 0.3 0 0.3 0.29 0.3 0 0.29 0.3 0.3 0.3 0.3 0.3 0.3 0 0 0.3 0.3 0.3 0.3 0.3 0 0.29 0.3 0.3 0 0.3 0.3 0 0 0.3 0.29 0.3 0 0.3 0 0.3 0.3 0.59 0 0.3 0 0.29 0 0.3 0 0 0.59 -0.3 0 -0.59 0 -0.29 0 -0.3 -0.3 -0.3 0 -0.3 0 -0.3 -0.29 -0.3 0 -0.3 -0.3 -0.3 0 -0.29 -0.3 -0.3 0 -0.3 -0.3 -0.3 -0.3 -0.3 0 0 -0.3 -0.3 -0.3 -0.3 -0.3 -0.29 -0.29 0 -0.3 -0.3 -0.3 -0.3 -0.3 0 -0.3 -0.3 -0.3 0 -0.3 -0.3 -0.29 0 -0.3 0 -0.3 -0.3 -0.3 0 -0.59 0 -0.3 0 -0.3 0 0zm5.31 -8.56l0.3 0.59 0 0 -0.3 0 -0.3 0 -0.3 0.3 -0.3 0 -0.29 0.29 -0.3 0 -0.3 0.3 -0.3 0 -0.3 0.3 0 0.3 -0.3 0.3 -0.3 0 -0.3 0.3 0 0.3 -0.29 0.3 -0.3 0.29 0 0.3 -0.3 0 0 0.3 -0.3 0.3 0 0.3 0 0.3 -0.3 0.59 0 0.3 0 0.3 -0.3 0.29 0 0.3 0 0.3 0 0.3 0 0.3 0 0.3 0 0.59 -0.3 0 0 -0.3 0 -0.59 0 -0.3 0 -0.3 0 -0.3 0 -0.59 0 -0.3 0 -0.3 0.3 -0.29 0 -0.3 0.3 -0.3 0 -0.3 0 -0.3 0.3 -0.3 0.3 -0.3 0 -0.29 0.3 -0.3 0 -0.3 0.3 -0.3 0.29 -0.3 0.3 -0.3 0.3 -0.3 0 0 0.3 -0.3 0.3 -0.29 0.3 0 0.3 -0.3 0.3 0 0.29 -0.3 0.3 0 0.3 -0.3 0.3 0 0 0 0 0zm1.77 -0.3l0.3 0.59 0 0 -0.3 0 0 0 0 0 0 0 0 0 -0.3 0 0 0 0 0 0 0 0 0 0 0 -0.3 0 0 0 0 0 0 0 0 0 -0.3 0 0 0 0 0 0 0 0 0 0 0 -0.3 0 0 0 0 0.3 0 0 0 0 0 0 -0.3 0 0 0 0 0 0 0 -0.29 -0.59 0.29 0 0 0 0 0 0 0 0 0 0.3 0 0 0 0 0 0 0 0 0 0.3 0 0 0 0 0 0 0 0 0 0 0 0.3 0 0 0 0 0 0 0 0 0 0.3 0 0 0 0 0 0 0 0 0 0.3 0 0 0 0 0 0 0 0 -0.3 0 0 0 0zm12.98 0l0 0.59 0 0 -0.59 0 -0.3 0 -0.3 0 -0.59 0 -0.3 0 -0.59 0 -0.29 0 -0.3 0 -0.59 0 -0.3 0 -0.3 0 -0.59 0 -0.3 0 -0.3 0 -0.59 0 -0.3 0 -0.3 0 -0.59 0 -0.29 0 -0.3 0 -0.59 0 -0.3 0 -0.3 0 -0.59 0 -0.3 0 -0.3 0 -0.59 0 -0.3 0 -0.3 0 -0.59 0 -0.29 0 -0.3 0 -0.3 -0.59 0.59 0 0.3 0 0.59 0 0.3 0 0.29 0 0.59 0 0.3 0 0.3 0 0.59 0 0.3 0 0.3 0 0.59 0 0.3 0 0.3 0 0.59 0 0.3 0 0.29 0 0.59 0 0.3 0 0.3 0 0.59 0 0.3 0 0.3 0 0.59 0 0.3 0 0.3 0 0.59 0 0.3 0 0.59 0 0.3 0 0.29 0 0.59 0 0 0 0 0zm0 0l0 0 0 0 0 0zm0.59 0.3l-0.3 0.3 0 0 0 0 0 0 0 0 0 0 0 0 0 0 0 0 0 0 0 0 0 0 0 0 0 0 0 0 0 0 0 0 0 0 0 0 0 0 0 0 0 0 -0.3 0 0 0 0 0 0 0 0 0 0 0 0 0 0 0 0 0 0 0 0 0 0 0 0 -0.59 0 0 0 0 0 0 0 0 0 0 0 0 0 0 0 0 0 0 0 0 0 0 0 0 0.3 0 0 0 0 0 0 0 0 0 0 0 0 0 0 0 0 0 0 0 0 0 0.3 0 0 0.29 0 0 0 0 0 0 0 0 0 0 0 0 0 0 0 0 0 0zm0.89 1.18l-0.3 0 0 0 0 0 0 0 0 0 0 0 0 0 0 0 0 0 0 0 0 0 0 0 0 -0.29 0 0 -0.3 0 0 0 0 0 0 0 0 0 0 0 0 0 0 -0.3 0 0 0 0 -0.3 0 0 0 0 0 0 0 0 0 0 0 0 -0.3 0 0 0 0 -0.29 0 0.29 -0.3 0 0 0.3 0 0 0 0 0 0 0 0 0.3 0 0 0 0 0 0 0.3 0 0 0 0 0 0 0 0 0.3 0 0 0 0 0 0 0 0 0.3 0 0 0 0 0 0 0.3 0 0 0 0 0 0 0 0 0 0 0 0.29 0 0 0 0 0 0 0 0 0 0zm-0.59 1.48l-0.3 -0.3 0 0 0 0 0 0 0 -0.3 0 0 0 0 0 0 0 0 0.3 0 0 0 0 0 0 0 0 -0.29 0 0 0 0 0 0 0 0 0 0 0 0 0.3 0 0 0 0 -0.3 0 0 0 0 0 0 0 0 0 0 0 0 0 0 0 0 0 0 0 -0.3 0 0 0.3 0 0 0.3 0 0 0 0 0 0 0 0 0 0 0 0.3 0 0 0 0 0 0 0 0 0 0 0 0.29 0 0 0 0 0 0 -0.3 0 0 0 0 0 0 0.3 0 0 0 0 0 0 0 0 -0.3 0 0 0 0 0.3 0 0 0 0 0 0 0 0 0 0 0 0zm-1.18 0.3l0 -0.59 0 0 0 0 0 0 0 0 0 0 0.3 0 0 0 0 0 0 0 0 0 0 0 0 0 0 0 0 0 0.3 0 0 0 0 0 0 0 0 0 0 0 0 0 0 0 0 0 0 0 0 0 0 0 0 0 0.3 0 0 0 0 0 0 0 0 0 0 0 0.3 0.3 0 0 -0.3 0 0 0 0 0 0 0 0 0 0 0.3 0 0 0 0 -0.3 0 0 0 0 0 0 0 0 0 0 0 0 0 0 0 0 0 -0.3 0 0 0 0 0 0 0 0 0 0 0 0 0 0 0 0 0 -0.3 0 0 0 0 0 0 0 0 0 0 0 0 0zm0 -0.59l0 0 0 0 0 0zm-12.39 0.59l0 -0.59 0 0 0.3 0 0.29 0 0.59 0 0.3 0 0.3 0 0.59 0 0.3 0 0.3 0 0.3 0 0.59 0 0.3 0 0.3 0 0.59 0 0.29 0 0.3 0 0.59 0 0.3 0 0.3 0 0.59 0 0.3 0 0.3 0 0.59 0 0.3 0 0.3 0 0.59 0 0.29 0 0.3 0 0.59 0 0.3 0 0.3 0 0.59 0 0.3 0 0 0.59 -0.3 0 -0.59 0 -0.3 0 -0.3 0 -0.59 0 -0.3 0 -0.29 0 -0.59 0 -0.3 0 -0.3 0 -0.59 0 -0.3 0 -0.3 0 -0.59 0 -0.3 0 -0.3 0 -0.59 0 -0.3 0 -0.29 0 -0.59 0 -0.3 0 -0.3 0 -0.59 0 -0.3 0 -0.3 0 -0.3 0 -0.59 0 -0.3 0 -0.3 0 -0.59 0 -0.29 0 -0.3 0 0 0zm-4.72 3.54l-0.3 -0.3 0 0 0 0 0 -0.3 0.3 -0.3 0 0 0 -0.3 0 -0.3 0.29 0 0 -0.3 0.3 -0.3 0 0 0 -0.29 0.3 0 0 -0.3 0.3 0 0 -0.3 0.3 0 0 -0.3 0.3 0 0.3 -0.3 0 0 0.3 0 0 0 0.29 -0.3 0.3 0 0 0 0.3 0 0.3 -0.3 0.3 0 0 0 0.3 0 0.3 0 0.29 0 0 0.59 -0.29 0 -0.3 0 -0.3 0 0 0 -0.3 0 -0.3 0 0 0 -0.3 0.3 0 0 -0.3 0 -0.29 0 0 0.3 -0.3 0 0 0 -0.3 0.3 0 0 -0.3 0 0 0.3 -0.3 0 0 0.3 0 0 -0.3 0.3 0 0 -0.3 0.3 0 0 0 0.29 0 0.3 -0.3 0 0 0.3 0 0 0 0.3 -0.29 0.3 0 0 0 0zm4.43 6.19l0 0.3 0 0 -0.3 0 -0.3 0 -0.3 0 -0.3 0 -0.3 0 -0.29 -0.3 -0.3 0 -0.3 -0.3 0 0 -0.3 -0.3 -0.3 0 -0.3 -0.29 0 -0.3 -0.3 0 -0.29 -0.3 0 -0.3 -0.3 -0.3 0 0 -0.3 -0.3 0 -0.3 0 -0.29 -0.3 -0.3 0 -0.3 0 -0.3 0 -0.3 -0.3 -0.3 0 -0.3 0 -0.3 0 -0.29 0.3 -0.3 0 -0.3 0 -0.59 0.3 0.3 0 0.3 0 0.29 0 0.3 0 0.3 0 0.3 0 0.3 0 0.3 0 0.3 0 0 0.3 0.3 0 0.29 0 0.3 0.3 0.3 0 0.3 0 0 0.29 0.3 0 0.3 0.3 0.3 0.3 0 0 0.29 0.3 0 0.3 0.3 0 0 0.3 0.3 0.3 0 0.29 0.3 0 0 0.3 0 0.3 0 0.3 0.3 0.3 0 0.3 0 0 0 0 0zm8.85 0l0 0.3 0 0 -0.3 0 -0.3 0 -0.29 0 -0.3 0 -0.3 0 -0.3 0 -0.3 0 -0.3 0 -0.3 0 -0.3 0 -0.29 0 0 0 -0.3 0 -0.3 0 -0.3 0 -0.3 0 -0.3 0 -0.3 0 -0.29 0 -0.3 0 -0.3 0 -0.3 0 -0.3 0 -0.3 0 -0.3 0 -0.3 0 0 0 -0.29 0 -0.3 0 -0.3 0 -0.3 0 -0.3 0 0 -0.3 0.3 0 0.3 0 0.3 0 0.3 0 0.29 0 0 0 0.3 0 0.3 0 0.3 0 0.3 0 0.3 0 0.3 0 0.3 0 0.29 0 0.3 0 0.3 0 0.3 0 0.3 0 0.3 0 0.3 0 0 0 0.29 0 0.3 0 0.3 0 0.3 0 0.3 0 0.3 0 0.3 0 0.3 0 0.29 0 0.3 0 0.3 0 0 0zm16.52 14.76l-0.3 0.29 0 0 -0.3 -0.88 -0.3 -0.89 0 -0.59 -0.29 -0.89 -0.3 -0.59 -0.3 -0.89 -0.3 -0.59 -0.59 -0.59 -0.3 -0.59 -0.3 -0.59 -0.59 -0.89 -0.3 -0.59 -0.59 -0.3 -0.3 -0.59 -0.59 -0.59 -0.59 -0.59 -0.59 -0.3 -0.59 -0.59 -0.59 -0.3 -0.59 -0.3 -0.59 -0.59 -0.59 -0.3 -0.59 -0.29 -0.59 -0.3 -0.89 -0.3 -0.59 0 -0.59 -0.3 -0.89 -0.3 -0.59 0 -0.59 0 -0.89 -0.3 -0.59 0 0 -0.3 0.59 0 0.89 0 0.59 0 0.89 0.3 0.59 0 0.89 0.3 0.59 0.3 0.59 0.3 0.89 0.3 0.59 0.3 0.59 0.29 0.59 0.3 0.59 0.3 0.59 0.59 0.59 0.3 0.59 0.59 0.59 0.59 0.59 0.59 0.3 0.3 0.59 0.59 0.3 0.59 0.59 0.89 0.3 0.59 0.59 0.59 0.3 0.59 0.3 0.89 0.3 0.59 0.29 0.89 0.3 0.59 0.3 0.89 0.3 0.89 0 0.59 0 0zm-14.46 22.72l-0.3 -0.59 0 0 0.89 0 0.89 -0.3 0.89 -0.3 0.88 -0.29 0.89 -0.3 0.89 -0.3 0.59 -0.3 0.89 -0.59 0.59 -0.59 0.59 -0.59 0.89 -0.59 0.59 -0.59 0.59 -0.59 0.59 -0.59 0.59 -0.89 0.3 -0.59 0.59 -0.89 0.59 -0.89 0.3 -0.59 0.3 -0.89 0.3 -0.89 0.3 -0.89 0.29 -0.89 0.3 -0.88 0 -1.18 0.3 -0.89 0 -0.89 0 -0.89 0 -0.89 0 -1.18 -0.3 -0.89 0 -0.89 0.3 -0.3 0.3 1.18 0 0.89 0 0.88 0 1.18 0 0.89 0 0.89 0 1.18 -0.3 0.89 -0.3 0.88 0 0.89 -0.3 0.89 -0.59 0.89 -0.29 0.89 -0.3 0.89 -0.59 0.89 -0.3 0.89 -0.59 0.59 -0.59 0.89 -0.59 0.59 -0.59 0.59 -0.59 0.89 -0.89 0.59 -0.59 0.59 -0.89 0.3 -0.59 0.59 -0.89 0.29 -0.89 0.59 -0.59 0.3 -0.89 0.3 -0.89 0.3 -0.89 0.3 -0.89 0 0 0 0 0zm-2.66 0.3l0 -0.59 0 0 0 0 0 0 0 0 0.3 0 0 0 0 0 0.3 0 0 0 0 0 0 0 0.3 0 0 0 0 0 0 0 0.3 0 0 0 0 0 0.29 0 0 0 0 0 0 0 0.3 0 0 0 0 0 0 0 0.3 0 0 0 0 0 0.3 -0.3 0 0 0 0 0 0 0.3 0.59 -0.3 0 0 0 0 0 -0.3 0 0 0 0 0 0 0 -0.3 0 0 0 0 0 -0.3 0 0 0 0 0 0 0 -0.29 0 0 0 0 0 0 0 -0.3 0.3 0 0 0 0 -0.3 0 0 0 0 0 0 0 -0.3 0 0 0 0 0 -0.3 0 0 0 0 0 0 0 0 0zm-23.9 0l0 -0.59 0 0 0.89 0 0.59 0 0.89 0 0.59 0 0.89 0 0.59 0 0.88 0 0.59 0 0.89 0 0.59 0 0.89 0 0.59 0 0.89 0 0.59 0 0.89 0 0.59 0 0.89 0 0.89 0 0.59 0 0.89 0 0.59 0 0.89 0 0.59 0 0.89 0 0.59 0 0.89 0 0.59 0 0.89 0 0.59 0 0.88 0 0.59 0 0.89 0 0 0.59 -0.89 0 -0.59 0 -0.88 0 -0.59 0 -0.89 0 -0.59 0 -0.89 0 -0.59 0 -0.89 0 -0.59 0 -0.89 0 -0.59 0 -0.89 0 -0.59 0 -0.89 0 -0.89 0 -0.59 0 -0.89 0 -0.59 0 -0.89 0 -0.59 0 -0.89 0 -0.59 0 -0.89 0 -0.59 0 -0.88 0 -0.59 0 -0.89 0 -0.59 0 -0.89 0 -0.59 0 -0.89 0 0 0z"/>
    </g>
    <g>
     <path class="fil1" d="M36.88 84.68c0,1.77 0,3.25 0,4.72 0,1.48 -0.29,2.07 -1.18,2.07 -0.59,0 -1.18,-0.59 -1.18,-2.07 0,-1.47 0,-2.95 0,-4.72 -0.3,0 -0.59,0 -1.18,-0.3 -5.02,-1.47 -8.26,-6.49 -7.96,-12.39 0.59,-5.9 2.06,-11.51 4.43,-16.82 0.59,-1.18 1.48,-2.65 2.36,-3.83 2.36,-2.65 4.72,-2.65 7.08,0 1.77,2.07 2.95,4.72 3.83,7.67 1.48,4.13 2.66,8.26 2.95,12.69 0.59,6.49 -2.95,11.51 -8.56,12.98 -0.3,0 -0.3,0 -0.59,0l0 -0zm-2.36 -2.65l0 0c0.3,-2.36 0.59,-4.72 -1.48,-6.49 -0.59,-0.59 -0.89,-1.18 -1.18,-1.48 -0.59,-0.88 -0.59,-1.47 0,-2.06 0.29,-0.59 0.88,-0.3 1.77,0.3 0.3,0.3 0.59,0.89 0.89,1.47 0,-2.36 0,-4.72 0,-6.78 0,-1.18 0.59,-1.77 1.18,-1.77 0.89,0 1.18,0.59 1.18,1.77 0,2.06 0,3.83 0,5.9 0,0.3 0,0.3 0,0.89 0.59,-0.59 0.89,-0.89 1.18,-1.47 0.59,-0.59 1.18,-0.89 1.77,-0.3 0.59,0.59 0.59,1.18 0,2.06 -0.89,0.89 -1.77,2.07 -2.65,2.95 0,0.3 -0.3,0.59 -0.3,0.89 0,1.48 0,2.65 0,4.13 0.3,0 0.59,0 0.89,0 3.83,-1.18 6.49,-5.02 5.9,-9.44 -0.3,-5.31 -1.77,-10.62 -3.83,-15.64 -0.59,-1.48 -1.48,-2.65 -2.36,-3.83 -1.18,-1.77 -2.36,-1.77 -3.54,-0.3 -0.59,0.89 -1.18,1.77 -1.77,2.65 -2.36,5.02 -3.54,10.04 -4.43,15.64 -0.3,2.66 0,5.31 1.48,7.38 1.47,2.07 3.24,3.25 5.31,3.54l-0 0z"/>
     <path id="_1_26" class="fil1" d="M37.18 89.4l-0.59 0 0 0 0 -0.3 0 0 0 -0.29 0 0 0 -0.3 0 0 0 0 0 -0.3 0 0 0 -0.3 0 0 0 -0.3 0 0 0 -0.3 0 0 0 -0.3 0 0 0 -0.29 0 0 0 -0.3 0 0 0 -0.3 0 0 0 -0.3 0 0 0 -0.3 0 0 0 -0.3 0 0 0 -0.3 0 0 0 -0.3 0.59 0 0 0.3 0 0 0 0.3 0 0 0 0.3 0 0 0 0.3 0 0 0 0.3 0 0 0 0.3 0 0 0 0.3 0 0 0 0.29 0 0 0 0.3 0 0 0 0.3 0 0 0 0.3 0 0 0 0.3 0 0 0 0.3 0 0 0 0 0 0.3 0 0 0 0.29 0 0 0 0.3 0 0zm-1.48 2.36l0 -0.59 0 0 0 0 0.3 0 0 0 0 0 0 0 0 0 0 0 0.29 0 0 -0.3 0 0 0 0 0 0 0 0 0 0 0 0 0.3 0 0 -0.3 0 0 0 0 0 0 0 0 0 -0.3 0 0 0 0 0 -0.29 0 0 0 0 0 -0.3 0 0 0 0 0 -0.3 0 0 0.59 0 0 0 0 0.3 0 0 0 0.3 0 0 0 0 0 0.29 0 0 0 0 -0.3 0.3 0 0 0 0 0 0.3 0 0 0 0 0 0 0 0.3 0 0 -0.29 0 0 0 0 0.3 0 0 0 0 -0.3 0 0 0 0 0 0 0 -0.3 0 0 0.3 0 0 0 0 -0.3 0 0 0 0 0zm-1.18 -2.36l0.3 0 0 0 0 0.3 0 0 0 0 0 0.3 0 0 0 0 0 0.3 0 0 0 0 0 0 0.3 0.3 0 0 0 0 0 0 0 0.3 0 0 0 0 0 0 0 0 0 0 0.3 0 0 0 0 0.29 0 0 0 0 0 0 0 0 0.29 0 0 0 0 0 0 0 0 0 0 0.59 0 0 0 0 -0.29 0 0 -0.3 0 0 0 0 -0.3 0 0 0 0 0 0 0 0 0 -0.3 -0.3 0 0 0 0 0 0 0 0 0 -0.3 -0.3 0 0 0 0 0 0 -0.3 0 0 0 0 0 -0.3 0 0 0 0 0 -0.3 0 0 0 -0.3 0 0 0 0 0 -0.29 0 0 0 -0zm0 -4.43l0.3 -0.59 0 0.3 0 0.3 0 0 0 0.3 0 0 0 0.3 0 0 0 0.29 0 0 0 0.3 0 0 0 0.3 0 0 0 0.3 0 0 0 0.3 0 0 0 0.3 0 0 0 0.3 0 0 0 0.29 0 0 0 0.3 0 0 0 0.3 0 0 0 0.3 0 0 0 0.3 0 0 0 0.3 0 0 -0.3 0 0 0 0 -0.3 0 0 0 -0.3 0 0 0 -0.3 0 0 0 -0.3 0 0 0 -0.3 0 0 0 -0.29 0 0 0 -0.3 0 0 0 -0.3 0 0 0 -0.3 0 0 0 -0.3 0 0 0 -0.3 0 0 0 -0.3 0 0 0 -0.29 0 0 0 -0.3 0 0 0 -0.3 0 0 0 -0.3 0 0.3 0 0zm0.3 -0.59l0 0.3 0 0 0 -0.3zm-1.48 0.3l0 -0.59 0 0 0 0 0.3 0 0 0 0 0 0 0 0 0.3 0 0 0 0 0 0 0.3 0 0 0 0 0 0 0 0 0 0 0 0 0 0.3 0 0 0 0 0 0 0 0 0 0 0 0 0 0 0 0.3 0 0 0 0 0 0 0 0 0 0 0 0 0 0.3 0 -0.3 0.59 0 0 0 0 0 0 0 0 0 0 -0.3 0 0 0 0 0 0 0 0 0 0 0 0 0 -0.3 0 0 0 0 0 0 -0.3 0 0 0 0 0 0 0 0 -0.3 0 0 0 0 0 0 0 0 0 0 0 0 0 -0.3 0 0 0 0 0 0 0 0 0 0 0zm-7.96 -12.69l0.3 0 0 0 0 0.59 0 0.59 0 0.59 0 0.59 0 0.3 0 0.59 0.3 0.59 0 0.3 0 0.59 0.29 0.59 0.3 0.3 0 0.59 0.3 0.29 0.3 0.59 0 0.29 0.3 0.3 0.3 0.59 0.3 0.3 0.29 0.3 0.3 0.3 0.3 0.59 0.3 0.3 0.59 0.3 0.3 0.29 0.3 0.3 0.3 0 0.59 0.3 0.3 0.3 0.59 0.3 0.29 0 0.59 0.3 0.3 0 0 0.59 -0.59 -0.3 -0.3 0 -0.59 -0.3 -0.29 0 -0.59 -0.3 -0.3 -0.3 -0.59 -0.29 -0.3 -0.3 -0.3 -0.3 -0.59 -0.3 -0.3 -0.3 -0.3 -0.3 -0.3 -0.59 -0.3 -0.3 -0.29 -0.3 -0.3 -0.59 -0.3 -0.29 -0.3 -0.59 -0.3 -0.3 0 -0.59 -0.3 -0.3 0 -0.59 -0.3 -0.59 0 -0.3 -0.3 -0.59 0 -0.59 0 -0.3 -0.29 -0.59 0 -0.59 0 -0.59 0 -0.59 0.29 -0.59 0 0 0 0zm4.13 -16.82l0.59 0.3 0 0 -0.3 0.59 -0.3 0.3 0 0.59 -0.29 0.59 -0.3 0.3 0 0.59 -0.3 0.59 -0.3 0.3 0 0.59 -0.3 0.59 0 0.59 -0.3 0.3 0 0.59 -0.3 0.59 0 0.59 -0.3 0.3 0 0.59 -0.29 0.59 0 0.59 -0.3 0.59 0 0.29 0 0.59 -0.3 0.59 0 0.59 0 0.59 -0.3 0.29 0 0.59 0 0.59 0 0.59 -0.3 0.59 0 0.59 0 0.29 -0.3 0 0 -0.59 0 -0.29 0 -0.59 0 -0.59 0.3 -0.59 0 -0.59 0 -0.59 0.3 -0.59 0 -0.29 0 -0.59 0.3 -0.59 0 -0.59 0 -0.59 0.3 -0.29 0 -0.59 0.3 -0.59 0 -0.59 0.29 -0.59 0 -0.29 0.3 -0.59 0 -0.59 0.3 -0.59 0 -0.3 0.3 -0.59 0 -0.59 0.3 -0.59 0.3 -0.3 0 -0.59 0.3 -0.59 0.3 -0.3 0.29 -0.59 0 -0.59 0 0 0 0zm2.65 -4.13l0.3 0.3 0 0 0 0.29 -0.3 0 0 0.3 0 0 -0.29 0 0 0.3 0 0 0 0 -0.3 0.3 0 0 0 0.3 -0.3 0 0 0.3 0 0 0 0 -0.3 0.3 0 0 0 0.3 0 0 -0.3 0.29 0 0 0 0 0 0.3 -0.3 0 0 0.3 0 0 0 0.3 0 0 -0.3 0.3 0 0 0 0 0 0.3 -0.59 -0.3 0.3 0 0 -0.3 0 0 0 -0.3 0 0 0.3 -0.3 0 0 0 -0.3 0 0 0.3 0 0 -0.29 0 0 0 -0.3 0.3 0 0 -0.3 0 0 0 -0.3 0.3 0 0 0 0 -0.3 0.3 0 0 -0.3 0 0 0 -0.3 0.29 0 0 0 0 -0.3 0.3 0 0 -0.29 0 0 0.3 0 0 -0.3 0 0 0 0zm7.08 0l-0.3 0.3 0 0 0 -0.3 -0.29 0 -0.3 -0.3 0 -0.3 -0.3 0 -0.3 -0.3 -0.3 0 0 -0.3 -0.3 0 -0.3 0 0 0 -0.29 -0.3 -0.3 0 -0.3 0 0 0 -0.3 0 -0.3 0 0 0 -0.3 0 -0.3 0 0 0.3 -0.3 0 -0.29 0 -0.3 0.3 0 0 -0.3 0 -0.3 0.3 0 0.3 -0.3 0 -0.3 0.3 0 0.3 -0.3 0 -0.29 -0.3 0.29 -0.3 0 0 0.3 -0.3 0.3 -0.3 0 0 0.3 -0.3 0.3 0 0.3 -0.3 0 0 0.3 -0.29 0.29 0 0.3 0 0.3 0 0 -0.3 0.3 0 0.3 0 0.3 0 0.3 0 0 0.3 0.3 0 0.29 0 0.3 0 0.3 0.29 0 0 0.3 0 0.3 0.3 0.3 0 0.3 0.3 0 0.3 0.29 0 0.3 0.3 0 0.3 0 0zm4.13 7.96l-0.3 0 0 0 -0.29 -0.3 0 0 0 -0.3 -0.3 -0.29 0 -0.3 0 -0.3 -0.3 -0.3 0 -0.3 0 -0.3 -0.3 0 0 -0.3 0 -0.29 -0.3 -0.3 0 -0.3 0 -0.3 -0.3 -0.3 0 0 -0.3 -0.3 0 -0.3 0 -0.3 -0.29 -0.29 0 0 -0.3 -0.3 0 -0.3 -0.3 -0.3 0 0 -0.3 -0.3 0 -0.3 -0.3 -0.3 0 0 -0.3 -0.29 -0.3 -0.3 0.3 -0.3 0.3 0.3 0.3 0 0 0.3 0.3 0.29 0 0.3 0.3 0.3 0 0 0.3 0.3 0 0.3 0.29 0.3 0 0.3 0.3 0 0 0.29 0.3 0.3 0 0.3 0.3 0.3 0 0.3 0 0 0.3 0.3 0 0.3 0 0.3 0.3 0.29 0 0.3 0.3 0.3 0 0.3 0 0 0.29 0.3 0 0.3 0 0.3 0 0.29 0.3 0.3 0 0.3 0 0zm2.95 12.69l-0.59 0 0 0 0 -0.3 0 -0.59 0 -0.3 0 -0.59 -0.3 -0.3 0 -0.3 0 -0.59 0 -0.29 0 -0.3 -0.3 -0.59 0 -0.3 0 -0.3 0 -0.59 -0.3 -0.3 0 -0.3 0 -0.59 -0.3 -0.3 0 -0.3 0 -0.59 -0.29 -0.3 0 -0.29 0 -0.59 -0.3 -0.3 0 -0.3 0 -0.59 -0.3 -0.3 0 -0.3 -0.3 -0.3 0 -0.59 0 -0.3 -0.3 -0.3 0 -0.59 0.3 0 0.3 0.3 0 0.3 0 0.59 0.3 0.3 0 0.3 0.3 0.59 0 0.3 0 0.3 0.29 0.59 0 0.3 0 0.29 0.3 0.59 0 0.3 0 0.3 0.3 0.59 0 0.3 0 0.3 0.3 0.59 0 0.3 0 0.3 0.3 0.59 0 0.3 0 0.29 0 0.59 0 0.29 0.3 0.3 0 0.59 0 0.3 0 0.59 0 0.3 0.3 0.3 0 0.59 0 0 0 0zm-8.85 13.28l-0.3 -0.59 0 0 0.59 -0.3 0.59 0 0.59 -0.3 0.3 0 0.59 -0.29 0.59 -0.3 0.3 -0.3 0.29 -0.3 0.59 -0.3 0.3 -0.3 0.3 -0.3 0.59 -0.3 0.3 -0.29 0.3 -0.3 0.3 -0.59 0.3 -0.3 0.3 -0.3 0.29 -0.59 0 -0.3 0.3 -0.59 0.3 -0.59 0 -0.3 0.3 -0.59 0 -0.59 0.3 -0.59 0 -0.3 0 -0.59 0 -0.59 0 -0.59 0 -0.59 0 -0.59 0 -0.59 0.59 0 0 0.59 0 0.59 0 0.59 0 0.59 0 0.59 -0.3 0.59 0 0.59 0 0.59 -0.3 0.3 0 0.59 -0.3 0.59 -0.3 0.59 0 0.3 -0.29 0.59 -0.3 0.3 -0.3 0.59 -0.3 0.3 -0.3 0.59 -0.3 0.3 -0.3 0.3 -0.59 0.59 -0.3 0.29 -0.29 0.3 -0.59 0.3 -0.3 0.3 -0.59 0.3 -0.3 0 -0.59 0.3 -0.59 0.3 -0.59 0.3 -0.3 0 -0.59 0.29 0 0 0 0zm0 0l0 0 0 0 0 0zm-0.3 -0.3l-0.59 0 0.29 -0.3 0 0 0 0 0 0 0 0 0 0 0 0 0 0 0 0 0 0 0 0 0 0 0.3 0 0 0 0 0 0 0 0 0 0 0 0 0 0 0 0 0 0 0 0 0 0 0 0 0 0 0 0 0 0 0 0 0 0 0 0 0 0 0 0 0 0.3 0.59 0 0 0 0 0 0 0 0 0 0 0 0 0 0 -0.3 0 0 0 0 0 0 0 0 0 0 0 0 0 0 0 0 0 0 0 0 0 0 0 0 0 0 0 0 0 0 0 0 0 0 0 0 0 0 0 0 0 0 0 -0.3 0 0 0 0 0 0.3 -0.29 0 -0zm-0.59 0l0 0 0.29 -0.3 -0.29 0.3zm-2.07 -2.65l0 0 0 0 0 0 -0.3 0 0.3 0zm0.3 0l0 0.3 -0.3 0 0.3 -0.3zm-2.07 -6.49l0.3 -0.3 0 0 0.3 0.3 0 0 0.3 0.3 0.3 0.3 0 0 0.3 0.3 0 0.3 0 0 0.3 0.29 0 0.3 0 0 0 0.3 0.3 0.3 0 0 0 0.3 0 0.3 0 0.3 0 0 0 0.29 0 0.3 0 0.3 0 0.3 0 0 0 0.3 0 0.3 0 0.3 0 0 0 0.3 0 0.29 0 0.3 0 0.3 0 0 -0.59 0 0 -0.3 0.29 0 0 -0.3 0 -0.29 0 -0.3 0 0 0 -0.3 0 -0.3 0 -0.3 0 0 0 -0.3 0 -0.3 0 -0.3 0 0 0 -0.29 -0.29 -0.3 0 0 0 -0.3 0 -0.3 0 0 0 -0.3 0 -0.3 -0.3 0 0 -0.3 0 -0.29 -0.3 0 0 -0.3 -0.3 0 0 -0.3 -0.3 0 0 -0.3 -0.3 -0.3 0 0 0 0zm0 0l0 0 0 0 0 0zm-1.18 -1.48l0.3 -0.29 0 0 0 0 0 0 0.29 0.29 0 0 0 0 0 0 0 0 0 0 0 0.3 0 0 0.3 0 0 0 0 0 0 0.3 0 0 0 0 0 0 0 0 0.3 0 0 0 0 0.3 0 0 0 0 0 0 0 0 0 0 0.3 0 0 0.3 0 0 0 0 0 0 0 0 -0.3 0.3 0 0 0 0 0 0 0 0 -0.3 0 0 0 0 -0.3 0 0 0 0 0 0 0 0 0 0 -0.3 -0.3 0 0 0 0 0 0 0 0 0 0 0 -0.3 0 0 -0.29 0 0 0 0 0 0 0 0 -0.3 0 0 0 0 0 0 -0.3 0 0 0 0 -0.3 0 0 0 0zm0 0l0 0 0.3 0.3 -0.3 -0.3zm0 -2.36l0.3 0.59 0 0 0 0 0 0 0 0 0 0 0 0 -0.3 0.3 0 0 0 0 0 0 0 0 0 0 0 0 0 0.3 0 0 0 0 0 0 0 0 0 0 0 0.3 0 0 0 0 0 0 0 0 0 0 0 0.29 0 0 0.3 0 0 0 0 0 0 0.3 0 0 0 0 -0.3 0.3 0 0 0 0 0 -0.3 -0.3 0 0 0 0 0 0 -0.3 0 0 0 0 0 0 0 -0.29 0 0 0 0 0 0 0 -0.3 -0.3 0 0 0 0.3 0 0 -0.3 0 0 0 0 0 0 0 -0.3 0 0 0 0 0 0 0 -0.3 0 0 0.3 0 0 0 0 0 0 -0.3 0 0 0 0zm0 0l0 0 0 0 0 0zm2.06 0.59l-0.29 0.3 0 0 0 -0.3 0 0 -0.3 0 0 0 0 0 0 0 0 -0.3 0 0 -0.3 0 0 0 0 0 0 0 0 0 0 0 0 0 -0.3 0 0 0 0 0 0 0 0 0 0 0 0 0 -0.3 0 0 0 0 0 0 0 0 0 0 0 0 0 -0.3 0 0 0.3 0 0 -0.3 -0.59 0 0 0.3 0 0 0 0 0 0 0 0 0 0.3 -0.3 0 0 0 0 0 0 0 0 0.3 0 0 0 0 0 0 0 0.3 0 0 0 0 0 0 0 0.3 0 0 0.3 0 0 0 0 0 0 0.3 0 0 0 0 0 0 0.29 0 0 0.29 0 0 0 0 0.3 0 0 0 0zm-0.3 0.3l0 0 0 0 0 0zm1.18 1.18l0.3 0 -0.3 0 0 0 0 0 -0.3 0 0 0 0 -0.3 0 0 0 0 0 0 0 0 -0.3 0 0 -0.29 0 0 0 0 0 0 0 0 0 0 0 0 -0.3 -0.3 0 0 0 0 0 0 0 0 0 0 0 0 0 0 0 -0.3 -0.29 0 0 0 0 0 0 0 0 0 0 0 0.29 -0.3 0 0 0 0 0 0 0 0 0.3 0 0 0 0 0 0 0.3 0 0 0 0 0 0 0 0 0 0 0.3 0 0 0 0 0.3 0 0 0 0 0 0 0 0 0 0 0.3 0.3 0 0 0 0 0 0 0 0 0 0 0 0 0 0.29 0.3 0 0 0 0 0 -0.3 0.3zm0.3 0l0 0.59 -0.3 -0.59 0.3 0zm-0.3 -6.78l0.3 0 0 0 0 0.29 0 0 0 0.3 0 0.3 0 0 0 0.3 0 0.3 0 0.3 0 0 0 0.3 0 0.3 0 0 0 0.29 0 0.3 0 0 0 0.3 0 0.3 0 0 0 0.3 0 0.3 0 0.3 0 0 0 0.29 0 0.3 0 0 0 0.3 0 0.3 0 0.3 0 0 0 0.3 0 0.3 0 0.3 -0.3 0 0 -0.3 0 -0.3 0 -0.3 0 0 0 -0.3 0 -0.3 0 -0.3 0 0 0 -0.3 0 -0.29 0 0 0 -0.3 0 -0.3 0 -0.3 0 0 0 -0.3 0 -0.3 0 0 0 -0.3 0 -0.29 0 0 0 -0.3 0 -0.3 0 0 0 -0.3 0 -0.3 0 -0.3 0 0 0 -0.3 0 -0.3 0 0 0 -0.29 0 0zm1.18 -2.07l0 0.59 0 0 0 0 0 0 0 0 -0.3 0 0 0 0 0 0 0 0 0 0 0.3 0 0 -0.3 0 0 0 0 0 0 0 0 0 0 0 0 0 0 0.3 0 0 0 0 0 0 -0.3 0 0 0 0 0.3 0 0 0 0 0 0 0 0.3 0 0 0 0 0 0.3 0 0 -0.3 0 0 0 0 -0.3 0 0 0 0 0 -0.3 0 0 0 0 0 -0.3 0 0 0 0 0 -0.3 0 0 0 0 0 0 0.3 -0.3 0 0 0 0 0 0 0 0 0 -0.3 0.3 0 0 0 0 0 0 0 0 0 0.3 0 0 0 0 0 0 0 0.3 0 0 -0.29 0 0 0 0 0 -0zm1.48 2.07l-0.59 0 0 0 0 0 0 0 0 -0.3 0 0 0 0 0 -0.3 0 0 0 0 0 0 0 -0.3 0 0 0 0 0 0 0 0 0 -0.3 -0.3 0 0 0 0 0 0 0 0 0 0 0 0 0 0 -0.3 0 0 -0.3 0 0 0 0 0 0 0 0 0 0 0 -0.3 0 0 0 0 -0.59 0 0 0.3 0 0 0.3 0 0 0 0 0.3 0 0 0 0 0 0 0 0.3 0 0 0 0 0 0 0.3 0 0 0.29 0 0 0 0 0 0 0.3 0 0 0 0 0 0.3 0 0 0 0 0.3 0 0 0.3 0 0 0 0 0 0.29 0 0 0 0 0 0.3 0 0 0 0 0 0zm0 5.9l-0.59 0 0 0 0 -0.3 0 0 0 -0.3 0 -0.3 0 0 0 -0.3 0 -0.3 0 0 0 -0.3 0 0 0 -0.29 0 -0.3 0 0 0 -0.3 0 0 0 -0.3 0 -0.3 0 0 0 -0.3 0 0 0 -0.3 0 -0.29 0 0 0 -0.3 0 0 0 -0.3 0 -0.3 0 0 0 -0.3 0 -0.3 0 0 0 -0.3 0.59 0 0 0.3 0 0 0 0.3 0 0.3 0 0 0 0.3 0 0.3 0 0 0 0.3 0 0 0 0.29 0 0.3 0 0 0 0.3 0 0 0 0.3 0 0.3 0 0 0 0.3 0 0 0 0.3 0 0.29 0 0 0 0.3 0 0 0 0.3 0 0.3 0 0 0 0.3 0 0.3 0 0 0 0.3 0 0zm-0.59 0l0 0 0 0 0 0zm0.29 0.59l0.3 0.3 -0.3 0 0 0 0 -0.3 0 0 0 0 0 0 0 0 0 0 0 0 0 0 -0.29 0 0 0 0 -0.29 0 0 0 0 0 0 0 0 0 0 0 0 0 0 0 0 0 0 0 0 0 -0.3 0 0 0 0 0 0 0 0 0 0 0 0 0 0 0 0 0 0 0.59 0 0 0 0 0 0 0 0 0 0 0 0 0 0 0 0 0 0 0 0 0 0 0 0 0.3 0 0 0 0 0 0 0 0 0 0 0 0 0 0 0 0 0 0 0 0 0 0 0 0.29 0 0 0 0 0 0 0 0 0 0 0 0 0 0 0 0 -0.3 0 -0 0zm0.3 0.3l-0.3 0.59 0 -0.59 0.3 0zm0.59 -1.47l0.3 0.3 0 0 0 0 0 0 0 0 0 0 0 0 0 0.29 0 0 0 0 -0.3 0 0 0 0 0 0 0 0 0 0 0.3 0 0 0 0 0 0 0 0 -0.29 0 0 0 0 0 0 0.3 0 0 0 0 0 0 0 0 0 0 -0.3 0 0 0.3 0 0 0 0 0 0 -0.3 -0.3 0 0 0 0 0 0 0 -0.3 0 0 0.3 0 0 0 0 0 0 0 0 0 0 -0.3 0 0 0 0 0 0 0 0 0.3 0 0 0 0 -0.29 0 0 0 0 0 0 0 0 0 0 0 0 0.29 0 0 -0.3 0 0 0 0 0 0 0 0 0 0 0 0 0 0zm0 0l0 0 -0.29 0.59 0.29 -0.59zm2.07 -0.59l-0.3 0.59 0 0 0 -0.3 0 0 0 0 0 0 -0.3 0 0 0 0 0 0 0 0 0 0 0 0 0 -0.3 0 0 0 0 0 0 0 0 0 0 0 0 0 -0.29 0 0 0 0 0 0 0 0 0 0 0 0 0.3 -0.3 0 0 0 0 0 0 0 0 0 0 0.3 -0.3 0 -0.3 -0.3 0 -0.3 0.3 0 0 0 0 0 0 0 0 -0.3 0.3 0 0 0 0 0 0 0 0.3 0 0 0 0 -0.3 0 0 0 0 0.29 0 0 0 0 0 0 0 0.3 0 0 0 0 0 0 0 0 0 0.3 0 0 0 0 0.3 0 0 0.3 0 0 0 0 0 0 0 0 0 0 0zm0 2.36l-0.3 -0.29 0 0 0 0 0 0 0.3 0 0 -0.3 0 0 0 0 0 0 0 -0.3 0 0 0 0 0 0 0 0 0 0 0 -0.3 0 0 0 0 0 0 0 0 0 0 0 -0.3 0 0 0 0 0 0 0 0 0 0 0 -0.3 0 0 0 0 0 0 -0.3 0 0 0 0 0 0.3 -0.59 0 0 0.3 0.3 0 0 0 0 0 0 0 0 0 0.3 0 0 0.3 0 0 0 0 0.3 0 0 0 0 0 0 0 0.3 0 0 0 0 0 0.3 0 0 0 0 0 0 0 0.29 0 0 -0.3 0 0 0 0 0.3 0 0 0 0 0 0.3 0 0 -0.3 0 0 0 0 0 0 0zm0 0l0 0 0 0 0 0zm-2.36 3.25l-0.3 -0.3 0 0 0 0 0 -0.3 0.3 0 0 0 0 -0.3 0 0 0.29 0 0 -0.3 0 0 0 0 0.3 -0.29 0 0 0 0 0 -0.3 0.3 0 0 0 0 -0.3 0 0 0.3 0 0 -0.3 0 0 0.3 0 0 -0.3 0 0 0 0 0.3 -0.3 0 0 0 0 0 -0.3 0.3 0 0 0 0 -0.3 0.29 0.3 0 0.3 0 0 -0.29 0 0 0.3 0 0 0 0 -0.3 0.3 0 0 0 0 0 0.3 -0.3 0 0 0 0 0.3 0 0 -0.3 0 0 0.3 0 0 0 0 -0.3 0.29 0 0 0 0 0 0.3 -0.3 0 0 0 0 0.3 0 0 -0.3 0 0 0.3 0 0 0 0 -0.29 0.3 0 0 0 0zm-0.3 0.59l-0.59 0 0 0 0 0 0 0 0 -0.3 0 0 0 0 0.29 0 0 0 0 0 0 0 0 0 0 0 0 -0.3 0 0 0 0 0 0 0 0 0 0 0 0 0 0 0 0 0 0 0 0 0 0 0 -0.3 0 0 0.3 0 0 0 0 0 0 0 0 0 0 0 0 0 0.3 0.3 0 0 0 0 0 0 0 0 0 0 0 0 0 0 0 0 0 0.3 -0.3 0 0 0 0 0 0 0 0 0 0 0 0 0 0 0 0 0 0 0 0 0 0 0 0 0 0 0 0 0 0 0.3 0 0 0 0 0 0 0 0 0 0 0 0 0 0 0 0 0 0zm0 0l0 0 0 0 0 0zm-0.3 3.83l0 0.59 -0.29 -0.3 0 0 0 -0.3 0 0 0 -0.3 0 0 0 -0.29 0 0 0 0 0 -0.3 0 0 0 -0.3 0 0 0 -0.3 0 0 0 -0.3 0 0 0 -0.3 0 0 0 0 0 -0.3 0 0 0 -0.29 0 0 0 -0.3 0 0 0 -0.3 0 0 0 0 0 -0.3 0 0 0 -0.3 0 0 0.59 0 0 0 0 0.3 0 0 0 0.3 0 0 0 0 0 0.3 0 0 0 0.3 0 0 0 0.29 0 0 0 0.3 0 0 0 0 0 0.3 0 0 0 0.3 0 0 0 0.3 0 0 0 0.3 0 0 0 0.3 0 0 0 0 0 0.29 0 0 0 0.3 0 0 0 0.3 0 0 -0.3 -0.3 -0 0zm0 0.59l-0.29 0 0 -0.3 0.29 0.3zm0.89 -0.59l0 0.59 0 0 0 0 0 0 0 0 0 0 0 0 -0.29 0 0 0 0 0 0 0 0 0 0 0 0 0 0 0 0 0 0 0 0 0 0 0 0 0 -0.3 0 0 0 0 0 0 0 0 0 0 0 0 0 0 0 0 0 0 0 0 0 -0.3 0 0 0 0 0 0 -0.59 0 0 0 0 0 0 0 0 0.3 0 0 0 0 0 0 0 0 0 0 0 0 0 0 0 0 0 0 0 0 0 0 0 0.3 0 0 0 0 0 0 0 0 0 0 0 0 0 0 0 0 0 0 0 0 0 0 0 0 0 0 0 0.29 0 0 0 0 0zm0 0.59l0 0 0 -0.3 0 0.3zm5.9 -9.74l0.3 0 0 0 0 0.59 0 0.29 0 0.3 0 0.59 0 0.3 0 0.3 0 0.59 -0.3 0.3 0 0.3 -0.29 0.59 0 0.3 -0.3 0.3 0 0.29 -0.3 0.3 0 0.59 -0.3 0.3 -0.3 0.3 -0.3 0.3 0 0.3 -0.3 0.3 -0.29 0.3 -0.3 0 -0.3 0.29 -0.3 0.3 -0.3 0.3 -0.3 0.3 -0.3 0 -0.3 0.3 -0.29 0 -0.59 0.3 -0.3 0 -0.3 0.3 0 -0.59 0.3 0 0.3 -0.3 0.29 0 0.3 -0.3 0.3 0 0.3 -0.3 0.3 -0.3 0.3 0 0.3 -0.3 0.3 -0.3 0.29 -0.3 0.3 -0.29 0.3 0 0 -0.3 0.3 -0.3 0.3 -0.3 0 -0.3 0.3 -0.3 0.3 -0.59 0 -0.3 0.29 -0.29 0 -0.3 0 -0.3 0.3 -0.3 0 -0.59 0 -0.3 0.3 -0.3 0 -0.3 0 -0.59 0 -0.3 0 -0.29 0 -0.59 0 0 0 0zm-4.13 -15.64l0.59 -0.3 0 0 0 0.59 0.3 0.59 0.3 0.3 0 0.59 0.3 0.29 0.3 0.59 0 0.59 0.3 0.29 0 0.59 0.29 0.59 0 0.3 0.3 0.59 0 0.59 0.3 0.3 0 0.59 0.3 0.59 0 0.3 0 0.59 0.3 0.59 0 0.3 0.3 0.59 0 0.59 0 0.3 0 0.59 0.3 0.59 0 0.59 0 0.3 0 0.59 0.29 0.59 0 0.59 0 0.3 0 0.59 -0.29 0 0 -0.3 -0.3 -0.59 0 -0.59 0 -0.59 0 -0.3 -0.3 -0.59 0 -0.59 0 -0.59 0 -0.3 -0.3 -0.59 0 -0.59 0 -0.3 -0.3 -0.59 0 -0.59 0 -0.3 -0.3 -0.59 0 -0.59 -0.3 -0.3 0 -0.59 -0.29 -0.59 0 -0.3 -0.3 -0.59 0 -0.59 -0.3 -0.29 0 -0.59 -0.3 -0.3 0 -0.59 -0.3 -0.59 -0.3 -0.3 0 -0.59 -0.3 -0.3 -0.3 -0.59 0 0 0 0zm-2.06 -3.84l0.29 -0.29 0 0 0 0 0 0.29 0.3 0 0 0.3 0 0 0.3 0 0 0.3 0 0 0 0.3 0.3 0 0 0 0 0.3 0 0 0.3 0.3 0 0 0 0 0 0.3 0.3 0 0 0.29 0 0 0 0.3 0.3 0 0 0 0 0.3 0 0 0 0.3 0.29 0 0 0.3 0 0 0 0 0.3 0.3 0 0 -0.59 0.3 0 0 0 -0.3 0 0 0 -0.3 -0.3 0 0 -0.3 0 0 0 0 0 -0.3 -0.29 0 0 -0.3 0 0 0 0 -0.3 -0.3 0 0 0 -0.29 0 0 -0.3 0 0 -0.3 0 0 0 -0.3 -0.3 0 0 0 0 -0.3 0 0 -0.3 -0.3 0 0 0 0 0 -0.3 -0.3 0 0 0 0 -0.3 0 0 0 0zm-3.25 0l-0.3 -0.29 0 0 0 -0.3 0 0 0.3 0 0 -0.3 0.3 0 0 -0.3 0 0 0.3 0 0 0 0.3 -0.3 0 0 0.3 0 0 0 0 0 0.29 0 0 0 0.3 0 0 0 0.3 0 0 0 0 0 0.3 0 0 0.3 0.3 0 0 0 0.3 0.3 0 0 0 0 0.3 0.3 0 0 0.3 0.3 0 0 -0.3 0.29 -0.3 0 0 -0.29 0 0 -0.3 0 0 -0.3 0 0 -0.3 0 0 -0.3 0 0 -0.3 0 0 0 0 0 -0.3 0 0 0 0 0 -0.3 -0.3 0 0.3 0 0 -0.29 0 0 0 0 0 -0.3 0 0 0 0 0 -0.3 0.3 0 0 0 0 -0.3 0 0 0.3 -0.3 0 0 0.29 0 0 0 0zm-1.77 2.66l-0.3 -0.3 0 0 0 -0.3 0 0 0 0 0 0 0.3 -0.3 0 0 0 0 0 -0.3 0 0 0 0 0.29 0 0 -0.3 0 0 0 0 0 -0.29 0 0 0.3 0 0 0 0 -0.3 0 0 0 0 0.3 0 0 -0.3 0 0 0 0 0 -0.3 0.3 0 0 0 0 0 0 -0.3 0 0 0.3 0 0.3 0.3 0 0 -0.3 0.3 0 0 0 0 0 0 0 0.3 -0.3 0 0 0 0 0 0 0.3 0 0 -0.3 0 0 0 0 0.29 0 0 0 0 0 0 -0.3 0.3 0 0 0 0 0 0 0 0.3 0 0 -0.3 0 0 0.3 0 0 0 0 0 0 0 0.3 -0.29 0 0 0 0 0.3 0 0zm-4.43 15.34l-0.29 0 0 0 0 -0.59 0 -0.59 0 -0.3 0.29 -0.59 0 -0.59 0 -0.59 0.3 -0.3 0 -0.59 0 -0.59 0.3 -0.3 0 -0.59 0 -0.59 0.3 -0.3 0 -0.59 0.3 -0.59 0 -0.3 0.3 -0.59 0 -0.59 0.3 -0.3 0 -0.59 0.3 -0.59 0 -0.3 0.29 -0.59 0 -0.59 0.3 -0.29 0.3 -0.59 0 -0.3 0.3 -0.59 0.3 -0.59 0 -0.3 0.3 -0.59 0.3 -0.3 0.29 0.3 -0.29 0.3 0 0.59 -0.3 0.29 -0.3 0.59 0 0.3 -0.3 0.59 -0.3 0.3 0 0.59 -0.3 0.59 0 0.3 -0.3 0.59 0 0.59 -0.29 0.3 0 0.59 -0.3 0.3 0 0.59 -0.3 0.59 0 0.3 -0.3 0.59 0 0.59 0 0.3 -0.3 0.59 0 0.59 -0.3 0.3 0 0.59 0 0.59 0 0.3 -0.3 0.59 0 0.59 0 0.59 -0.3 0.3 0 0.59 0 0 0 0zm1.48 7.38l-0.3 0.29 0 0 -0.3 -0.29 0 -0.3 -0.3 0 0 -0.3 -0.29 -0.3 0 -0.3 0 -0.3 -0.3 0 0 -0.3 0 -0.29 0 -0.3 -0.3 0 0 -0.3 0 -0.3 0 -0.3 0 -0.3 0 -0.3 -0.3 0 0 -0.3 0 -0.29 0 -0.3 0 -0.3 0 -0.3 0 0 0 -0.3 0 -0.3 0 -0.3 0 -0.29 0 -0.3 0 -0.3 0.3 0 0 -0.3 0.3 0 0 0.3 0 0.3 0 0.3 0 0 0 0.29 0 0.3 0 0.3 0 0.3 0 0 0 0.3 0 0.3 0 0.3 0 0.29 0 0 0 0.3 0 0.3 0 0.3 0 0.3 0.3 0 0 0.3 0 0.3 0 0.3 0 0 0.29 0.29 0 0.3 0 0 0.3 0.3 0 0.3 0 0.3 0.3 0 0 0.3 0.3 0.3 0 0zm4.72 3.54l0.59 0 -0.3 0.3 -0.3 0 0 0 -0.29 0 -0.3 -0.3 0 0 -0.3 0 -0.3 0 0 0 -0.3 -0.3 -0.3 0 0 0 -0.3 -0.3 -0.3 0 0 0 -0.29 -0.3 0 0 -0.3 0 -0.3 -0.3 0 0 -0.3 -0.29 0 0 -0.3 -0.3 0 0 -0.3 -0.3 0 0 -0.3 -0.3 0 0 -0.29 -0.3 0 0 -0.3 -0.3 0 -0.3 0 0 0.3 -0.3 0 0 0.29 0.3 0 0.3 0 0 0.3 0.3 0 0 0.3 0.3 0 0 0.3 0.3 0 0 0.3 0.3 0 0 0.3 0 0 0.3 0.3 0 0 0.29 0.29 0 0 0 0.3 0.3 0.3 0 0 0 0.3 0 0 0.3 0.3 0 0.3 0 0 0 0.3 0.3 0.3 0 0 0 0.29 0 0.3 0 0 0 -0.3 0.3 0 0zm0.59 0l0 0.3 -0.3 0 0.3 -0.3z"/>
    </g>
    <g>
     <path class="fil1" d="M35.7 95.3c0.89,0 1.47,0.89 1.47,1.77 0,0.89 -0.59,1.77 -1.47,1.48 -0.89,0 -1.48,-0.59 -1.48,-1.48 0,-0.89 0.89,-1.77 1.48,-1.77z"/>
     <path id="_1_27" class="fil1" d="M37.48 97.07l-0.3 0 0 0 0 0 0 -0.3 0 0 -0.3 0 0 0 0 0 0 -0.3 0 0 0 0 0 0 0 -0.3 0 0 0 0 0 0 -0.3 0 0 -0.3 0 0 0 0 0 0 0 0 0 0 -0.3 0 0 -0.29 0 0 0 0 0 0 -0.3 0 0 0 0 0 0 0 -0.3 0 0 0 0 -0.59 0.3 0 0 0 0 0 0 0 0.3 0 0 0.29 0 0 0.3 0 0 0 0 0 0 0 0.3 0 0 0.3 0 0 0 0 0 0 0.3 0.3 0 0 0 0 0 0 0 0.3 0 0 0.3 0 0 0 0 0.3 0 0 0 0 0 0.3 0 0 0 0 0 0.3 0 0 0 0 0 0zm-1.77 1.77l0 -0.3 0 0 0 0 0.3 0 0 0 0 0 0 0 0 -0.3 0.29 0 0 0 0 0 0 0 0 0 0.3 0 0 0 0 0 0 -0.3 0 0 0 0 0 0 0.3 0 0 0 0 -0.3 0 0 0 0 0 0 0 0 0 -0.3 0 0 0 0 0 0 0.3 -0.3 0 0 0 0 0.3 0 0 0 0 0.3 0 0 0 0 0 0.3 0 0 0 0 0 0 -0.3 0.3 0 0 0 0 0 0.3 0 0 0 0 -0.3 0 0 0 0 0.3 0 0 0 0 -0.3 0 0 0 0 0.3 0 0 -0.3 0 0 0 0 0 0 0 -0.29 0 0 0 0 0 -0.3 0 0 0 0 0zm-1.77 -1.77l0.59 0 0 0 0 0 0 0 0 0 0 0.3 0 0 0 0 0 0 0 0.3 0 0 0 0 0 0 0.3 0 0 0.29 0 0 0 0 0 0 0 0 0 0 0.3 0.3 0 0 0 0 0 0 0 0 0 0 0.3 0 0 0 0 0 0 0.3 0.3 0 0 0 0 0 0 0 0 0.3 0 0 0 0 -0.3 0 0 0 0 0 -0.3 0 0 0 0 0 0 0 -0.3 -0.3 0 0 0 0 0 0 -0.3 0 0 0 0 -0.3 0 0 0 0 -0.3 0 0 -0.3 0 0 0 0 0 -0.29 0 0 0 0 0 0 0 -0.3 -0.29 0 0 0 0 -0.3 0 0 0 0 0 0 -0 0zm0.59 0l0 0 0 0 0 0zm1.18 -2.07l0 0.59 0 0 0 0 0 0 0 0 -0.3 0 0 0 0 0 0 0 0 0 -0.3 0 0 0 0 0.3 0 0 0 0 0 0 -0.3 0 0 0 0 0 0 0.3 0 0 0 0 0 0 -0.3 0 0 0.3 0 0 0 0 0 0 0 0 0 0.3 0 0 0 0 0 0 0 0.3 -0.59 0 0 -0.3 0 0 0 0 0.3 -0.3 0 0 0 0 0 -0.3 0 0 0 0 0 0 0 -0.3 0 0 0.3 0 0 0 0 -0.3 0 0 0 0 0.3 0 0 -0.3 0 0 0 0 0.3 0 0 0 0 0 0 0 0.3 0 0 -0.29 0 0 0 0 0.29 0 0 0 0 0 0 0 0 -0z"/>
    </g>
   </g>
  </g>
  <rect class="fil0" width="140" height="140"/>
 </g>
</svg>
