<?xml version="1.0" encoding="UTF-8"?>
<!DOCTYPE svg PUBLIC "-//W3C//DTD SVG 1.1//EN" "http://www.w3.org/Graphics/SVG/1.1/DTD/svg11.dtd">
<!-- Creator: CorelDRAW -->
<svg xmlns="http://www.w3.org/2000/svg" xml:space="preserve" width="0.14in" height="0.14in" version="1.1" style="shape-rendering:geometricPrecision; text-rendering:geometricPrecision; image-rendering:optimizeQuality; fill-rule:evenodd; clip-rule:evenodd"
viewBox="0 0 140 140"
 xmlns:xlink="http://www.w3.org/1999/xlink"
 xmlns:xodm="http://www.corel.com/coreldraw/odm/2003">
 <defs>
  <style type="text/css">
   <![CDATA[
    .str0 {stroke:#1C2335;stroke-width:3.28;stroke-miterlimit:2.61313}
    .str1 {stroke:#1C2335;stroke-width:0.89;stroke-miterlimit:2.61313}
    .fil0 {fill:none}
    .fil2 {fill:none;fill-rule:nonzero}
    .fil3 {fill:#1C2335;fill-rule:nonzero}
    .fil1 {fill:#677266;fill-rule:nonzero}
   ]]>
  </style>
   <clipPath id="id0">
    <path d="M-0 0l140 0 0 140 -140 0 0 -140z"/>
   </clipPath>
 </defs>
 <g id="Layer_x0020_1">
  <metadata id="CorelCorpID_0Corel-Layer"/>
  <g>
  </g>
  <g style="clip-path:url(#id0)">
   <g id="_1782894624720">
    <g>
     <g>
      <path class="fil0 str0" d="M135.48 89.42c10.72,-36.15 -9.9,-74.17 -46.06,-84.9 -36.15,-10.72 -74.17,9.9 -84.9,46.06 -10.72,36.15 9.9,74.17 46.06,84.9 36.15,10.72 74.17,-9.9 84.9,-46.06z"/>
     </g>
     <g id="_2134955310352">
      <g>
       <path class="fil1" d="M49.4 46.43c0,0 -0.3,0 -0.3,0 0,0.3 -0.3,0.6 -0.6,1.19 0,1.78 0,3.27 0.3,5.06 0,1.49 0.89,2.68 2.38,2.98 0,-1.79 0,-3.57 0,-5.65 0,0 -0.3,-0.3 -0.3,-0.59 -0.89,-0.6 -1.49,-1.79 -1.49,-2.98l0 0zm41.05 0c0,1.19 -0.3,2.38 -1.19,2.98 -0.3,0.3 -0.3,0.59 -0.3,0.59 0,2.08 0,3.87 0,5.65 1.49,-0.3 2.68,-1.49 2.98,-3.27 0,-1.49 0,-3.27 0,-4.76 0,-0.59 -0.3,-1.19 -1.49,-1.19l0 -0zm-62.47 70.2l4.17 0c-0.3,-2.68 -0.3,-5.06 -0.3,-7.73l-3.87 0 0 7.73 0 0zm41.94 -79.43c1.78,-1.78 3.27,-3.27 4.16,-5.65 0.6,-1.48 0,-2.97 -1.78,-3.57 -1.49,-0.6 -2.98,-0.6 -4.76,0 -1.49,0.59 -2.38,2.08 -1.49,3.57 0.89,2.38 2.38,3.87 3.87,5.65zm31.23 79.43l11.01 0 0 -7.73 -11.01 0 0 7.73zm-62.17 -37.78c-0.6,0.3 -0.89,0.3 -0.89,0.6 -4.17,2.68 -6.84,6.25 -8.63,10.71 -2.08,5.06 -1.48,10.41 -1.48,15.76 0,0 0,0 0,0l3.87 0c0,-2.38 0,-4.46 0,-6.84 0,-3.57 2.08,-5.95 5.65,-5.95 0.59,0 0.89,0 1.48,0l0 -14.28 0 0zm20.23 -9.22c0,2.38 0,4.46 0,6.54 0.59,4.17 3.57,6.84 7.44,7.14 2.38,0.3 4.76,0.3 6.84,0 3.57,-0.3 5.65,-2.38 6.84,-5.35 0.89,-2.68 0.3,-5.36 0.6,-8.33 -1.49,1.19 -2.38,2.08 -3.28,2.98 -4.46,4.17 -10.71,4.17 -15.17,0 -0.89,-0.89 -2.08,-1.79 -3.27,-2.98l0 0zm0.3 -32.13c-2.08,0 -4.17,0 -6.25,0 -0.89,0 -0.89,0.3 -0.89,0.89 0,2.68 0,5.06 0,7.74 0,1.19 0,1.19 1.19,1.19 2.97,0 5.65,-1.19 8.33,-2.68 2.98,-1.78 6.25,-2.68 9.82,-2.08 2.38,0.3 4.76,1.19 6.84,2.38 2.38,1.48 5.06,2.38 8.03,2.38 0.89,0 1.19,-0.3 1.19,-1.19 0,-2.68 0,-5.06 0,-7.74 0,-0.59 -0.3,-0.89 -0.89,-0.89 -3.57,0 -7.14,0 -10.71,0 -1.78,0 -2.98,0.3 -4.17,1.48 -0.89,1.49 -2.97,1.19 -4.17,0 -0.3,-0.3 -0.59,-0.59 -0.89,-0.89 -0.3,-0.3 -0.89,-0.59 -1.19,-0.59 -2.08,0 -4.17,0 -6.25,0l0 0zm-24.99 69.01c0,2.38 0,4.76 0,7.14 0,2.08 0.89,2.97 3.27,2.97 2.98,0 6.25,0 9.22,0 2.38,0 3.27,-0.89 3.27,-2.97 0,-4.76 0,-9.52 0,-14.58 0,-2.08 -0.89,-2.98 -2.98,-2.98 -3.27,0 -6.54,0 -9.52,0 -2.08,0 -3.27,0.89 -3.27,2.98 0,2.38 0,4.76 0,7.44zm19.33 -31.53c0,1.19 0,2.38 0,3.57 0,3.27 1.19,6.24 3.57,8.63 3.87,3.87 7.74,7.74 11.6,11.6 0.89,0.59 1.19,0.59 1.78,0 3.87,-3.87 7.74,-7.74 11.6,-11.6 3.57,-3.27 3.87,-7.74 3.57,-12.2l-1.19 0 -1.19 0c0,0.3 0,0.59 0,0.89 -0.3,5.35 -4.17,9.52 -9.22,10.41 -2.38,0.3 -4.76,0 -7.14,0 -5.35,0 -9.52,-3.87 -10.71,-8.93 0,-0.89 0,-1.48 -0.3,-2.38l-2.38 0 -0 0zm32.43 -24.69c-0.59,0 -0.89,-0.3 -1.19,-0.3 -2.68,0 -5.35,-0.89 -7.73,-2.68 -5.06,-2.97 -9.82,-2.97 -14.58,0.3 -2.08,1.19 -4.17,2.08 -6.54,2.38 -0.89,0 -1.49,0 -2.38,0.3 0,1.19 0,2.68 0,3.87 0,4.46 1.79,8.03 4.76,11.01 2.08,2.08 3.87,3.87 5.95,5.65 3.28,2.98 7.44,2.98 11.01,0 1.79,-1.78 3.87,-3.57 5.65,-5.65 2.38,-2.08 3.87,-4.76 4.46,-7.74 0.3,-2.38 0.3,-4.76 0.59,-7.14zm11.9 66.33l0 -1.19c0,-7.14 0,-14.57 0,-22.01 0,-6.25 0,-12.79 0,-19.34 0,-1.19 0,-1.19 -1.19,-1.19 -2.38,0 -4.46,0 -6.84,0 -1.19,0 -1.19,0 -1.19,1.49 0,1.48 0,2.97 0,4.46 0,3.87 -1.48,7.44 -4.46,10.41 -3.87,3.87 -7.74,7.73 -11.6,11.6 -0.3,0.3 -0.59,0.3 -0.89,0.6 -0.3,0.59 -0.6,0.89 -0.6,1.19 0,4.46 0,8.93 0,13.09 0,0.3 0,0.59 0,0.89l26.78 0zm-71.39 2.98c-1.19,-0.59 -1.79,-1.49 -1.79,-2.98 0,-5.95 0,-11.9 0,-17.55 0.3,-10.11 4.76,-17.85 13.39,-23.2 0.3,-0.3 0.6,-0.59 0.6,-1.19 0,-0.59 0,-1.19 0,-1.78 0.3,-1.79 1.78,-2.68 3.57,-2.98 2.68,0 5.35,0 8.03,0 0.89,0.3 2.08,0.59 2.68,1.49 0.3,0.59 0.89,0.89 1.79,0.89 0.3,-0.3 0.89,0 1.19,0 0,-1.78 0.3,-3.57 0,-5.06 0,-0.3 0,-0.59 -0.3,-0.89 -2.08,-1.78 -3.27,-4.17 -4.17,-6.84 0,-0.59 -0.3,-0.89 -0.89,-0.89 -2.98,-0.6 -5.06,-3.27 -5.06,-6.25 0,-1.49 0,-3.27 0,-4.76 0,-2.08 1.19,-3.57 2.98,-3.87 0.59,-0.3 0.59,-0.59 0.59,-1.19 0,-3.87 0,-7.74 0,-11.9 0,-5.95 4.46,-10.41 10.41,-10.11 1.19,0 1.78,0.3 1.78,1.19 0,0.89 -0.59,1.49 -1.78,1.49 -3.27,0 -6.55,2.08 -7.44,5.65 -0.3,1.78 0,3.87 -0.3,5.65l12.2 0c-0.3,0 -0.3,-0.3 -0.3,-0.59 -2.38,-4.46 -0.59,-8.33 4.17,-8.93 1.78,-0.3 3.27,0 5.06,0.3 3.27,0.89 4.76,4.17 3.27,7.44 0,0.59 -0.3,1.19 -0.59,2.08l11.9 0c0,-2.38 0.3,-4.46 -0.3,-6.55 -1.19,-2.97 -3.87,-5.06 -7.14,-5.06 -4.17,0 -8.33,0 -12.5,0 -0.3,0 -0.59,0 -0.89,0 -0.89,0 -1.48,-0.59 -1.48,-1.49 0,-0.59 0.59,-1.19 1.48,-1.19 0.89,0 1.79,0 2.38,0 3.57,0 7.14,0 10.41,0 6.55,0 10.71,4.17 10.71,10.71 0,3.87 0,8.03 0,12.2 0.3,0 0.3,0 0.3,0 2.98,0.89 3.87,1.79 3.87,5.06 0,1.19 0,2.68 0,3.87 0,3.27 -2.38,5.65 -5.35,6.24 -0.89,0 -0.89,0.3 -1.19,0.89 -0.89,2.68 -2.08,5.06 -3.87,6.84 -0.3,0.3 -0.6,0.89 -0.6,1.49 0,1.19 0,2.68 0,4.46 0.89,0 1.49,0 2.38,-0.3 0.3,0 0.3,0 0.59,-0.3 0.59,-1.19 1.78,-1.78 2.98,-1.78 2.68,0 5.35,0 7.73,0 2.38,0.3 3.87,1.48 3.57,3.87 0,1.19 0.3,1.78 1.49,2.38 1.48,0.89 2.68,2.08 4.17,3.27 0.59,0.6 0.59,1.49 0.3,2.08 -0.59,0.6 -1.49,0.6 -2.08,0 -1.19,-0.89 -2.38,-1.78 -3.57,-2.97l0 27.37 10.71 0c0,0 0.3,0 0.3,0 0,-5.06 0.3,-9.81 -1.19,-14.57 -0.6,-1.49 -1.49,-2.98 -2.08,-4.46 -0.6,-1.19 -0.3,-1.78 0.3,-2.38 0.89,-0.3 1.49,0 2.08,0.89 2.38,3.87 3.57,8.03 3.57,12.49 0,6.54 0,12.79 0,19.04 0,1.49 -0.59,2.08 -1.79,2.68l-56.22 0c-0.3,-0.3 -0.6,-0.59 -0.89,-0.89 -0.3,-1.19 0.59,-2.08 1.78,-2.08 3.27,0 6.55,0 9.82,0 0.3,0 0.59,0 1.19,0l0 -1.19c0,-3.87 -0.3,-7.74 0,-11.6 0,-1.19 -0.3,-1.78 -1.19,-2.68 -4.17,-4.17 -8.33,-8.33 -12.5,-12.49 -2.08,-2.08 -3.27,-4.46 -3.57,-7.14 -0.3,-2.68 -0.3,-5.06 -0.3,-7.44 0,-0.89 -0.3,-1.19 -1.19,-1.19 -2.38,0 -4.46,0 -6.84,0 -1.19,0 -1.49,0 -1.49,1.49 0,5.95 0,11.9 0,17.85 0,0.3 0.3,0.6 0.3,0.89l3.87 0c0,-0.3 0,-0.59 0,-1.19 0,-2.38 0,-4.76 0,-7.14 0,-0.89 0.59,-1.49 1.49,-1.49 0.59,0 1.19,0.59 1.19,1.49 0.3,0.3 0,0.59 0,0.89 0,2.08 0.3,4.46 0,6.84 0,0.59 0.3,0.89 0.89,0.89 2.38,0.89 3.87,2.98 3.87,5.35 0,5.06 0,10.11 0,15.47 0,2.08 -1.49,4.17 -3.87,5.06 -0.3,0 -0.3,0.3 -0.6,0.3l-22.01 0 0 0z"/>
       <g>
        <path id="_1" class="fil2 str1" d="M49.4 46.43c0,0 -0.3,0 -0.3,0 0,0.3 -0.3,0.6 -0.6,1.19 0,1.79 0,3.28 0.3,5.06 0,1.49 0.89,2.68 2.38,2.97 0,-1.78 0,-3.57 0,-5.65 0,0 -0.3,-0.3 -0.3,-0.59 -0.89,-0.59 -1.49,-1.79 -1.49,-2.98l0 0zm41.06 0c0,1.19 -0.3,2.38 -1.19,2.98 -0.3,0.29 -0.3,0.59 -0.3,0.59 0,2.08 0,3.87 0,5.65 1.49,-0.3 2.68,-1.48 2.98,-3.27 0,-1.49 0,-3.28 0,-4.76 0,-0.6 -0.3,-1.2 -1.48,-1.2l0 0zm-62.48 70.2l4.17 0c-0.3,-2.68 -0.3,-5.06 -0.3,-7.74l-3.87 0 0 7.74 0 0zm41.94 -79.43c1.79,-1.79 3.27,-3.28 4.17,-5.65 0.59,-1.48 0,-2.97 -1.79,-3.57 -1.48,-0.59 -2.97,-0.59 -4.76,0 -1.48,0.6 -2.37,2.09 -1.48,3.57 0.89,2.38 2.38,3.87 3.86,5.65zm31.24 79.43l11 0 0 -7.74 -11 0 0 7.74zm-62.18 -37.78c-0.59,0.3 -0.89,0.3 -0.89,0.59 -4.17,2.68 -6.84,6.25 -8.62,10.71 -2.08,5.05 -1.49,10.41 -1.49,15.77 0,0 0,0 0,0l3.87 0c0,-2.39 0,-4.47 0,-6.84 0,-3.57 2.08,-5.95 5.66,-5.95 0.59,0 0.89,0 1.48,0l0 -14.28 0 0zm20.23 -9.22c0,2.37 0,4.46 0,6.54 0.59,4.17 3.57,6.84 7.44,7.13 2.38,0.3 4.76,0.3 6.84,0 3.57,-0.29 5.65,-2.37 6.84,-5.35 0.89,-2.68 0.29,-5.35 0.59,-8.33 -1.49,1.19 -2.38,2.08 -3.28,2.97 -4.46,4.17 -10.71,4.17 -15.17,0 -0.89,-0.89 -2.08,-1.78 -3.27,-2.97l0 0zm0.3 -32.13c-2.09,0 -4.17,0 -6.25,0 -0.89,0 -0.89,0.3 -0.89,0.89 0,2.68 0,5.06 0,7.73 0,1.19 0,1.19 1.19,1.19 2.97,0 5.65,-1.19 8.32,-2.67 2.98,-1.79 6.25,-2.68 9.82,-2.09 2.38,0.3 4.76,1.19 6.84,2.37 2.38,1.49 5.06,2.38 8.03,2.38 0.89,0 1.19,-0.29 1.19,-1.19 0,-2.67 0,-5.06 0,-7.73 0,-0.59 -0.3,-0.89 -0.89,-0.89 -3.57,0 -7.14,0 -10.7,0 -1.79,0 -2.98,0.3 -4.17,1.48 -0.89,1.49 -2.97,1.19 -4.16,0 -0.3,-0.3 -0.6,-0.59 -0.9,-0.89 -0.3,-0.3 -0.89,-0.59 -1.19,-0.59 -2.08,0 -4.16,0 -6.24,0l0 0zm-24.98 69.01c0,2.38 0,4.77 0,7.14 0,2.09 0.89,2.98 3.27,2.98 2.98,0 6.25,0 9.22,0 2.38,0 3.27,-0.89 3.27,-2.98 0,-4.76 0,-9.52 0,-14.57 0,-2.09 -0.89,-2.97 -2.98,-2.97 -3.27,0 -6.54,0 -9.52,0 -2.08,0 -3.27,0.89 -3.27,2.97 0,2.38 0,4.76 0,7.44zm19.33 -31.53c0,1.19 0,2.38 0,3.57 0,3.27 1.19,6.24 3.57,8.63 3.87,3.87 7.74,7.74 11.61,11.61 0.89,0.59 1.19,0.59 1.79,0 3.87,-3.87 7.73,-7.74 11.6,-11.61 3.57,-3.28 3.87,-7.74 3.57,-12.2l-1.19 0 -1.19 0c0,0.3 0,0.6 0,0.89 -0.3,5.35 -4.17,9.52 -9.22,10.41 -2.38,0.3 -4.75,0 -7.13,0 -5.36,0 -9.52,-3.87 -10.71,-8.93 0,-0.89 0,-1.49 -0.3,-2.38l-2.38 0 0 0zm32.43 -24.69c-0.6,0 -0.89,-0.3 -1.19,-0.3 -2.68,0 -5.35,-0.89 -7.74,-2.68 -5.06,-2.97 -9.82,-2.97 -14.58,0.31 -2.08,1.19 -4.17,2.08 -6.55,2.37 -0.89,0 -1.48,0 -2.38,0.3 0,1.19 0,2.68 0,3.87 0,4.46 1.78,8.03 4.76,11.01 2.09,2.08 3.87,3.87 5.96,5.65 3.27,2.97 7.43,2.97 11.01,0 1.78,-1.79 3.86,-3.57 5.65,-5.65 2.38,-2.09 3.87,-4.76 4.46,-7.74 0.3,-2.38 0.3,-4.76 0.6,-7.13zm11.9 66.33l0 -1.19c0,-7.14 0,-14.57 0,-22.01 0,-6.25 0,-12.8 0,-19.34 0,-1.19 0,-1.19 -1.19,-1.19 -2.38,0 -4.46,0 -6.84,0 -1.19,0 -1.19,0 -1.19,1.48 0,1.49 0,2.98 0,4.46 0,3.86 -1.48,7.44 -4.46,10.42 -3.87,3.86 -7.73,7.72 -11.6,11.6 -0.3,0.3 -0.6,0.3 -0.9,0.59 -0.3,0.6 -0.59,0.89 -0.59,1.19 0,4.47 0,8.93 0,13.09 0,0.3 0,0.59 0,0.89l26.77 0zm-71.39 2.98c-1.19,-0.6 -1.79,-1.49 -1.79,-2.98 0,-5.94 0,-11.9 0,-17.55 0.3,-10.11 4.76,-17.85 13.39,-23.2 0.3,-0.3 0.59,-0.59 0.59,-1.19 0,-0.59 0,-1.2 0,-1.79 0.3,-1.79 1.79,-2.68 3.57,-2.98 2.68,0 5.35,0 8.03,0 0.9,0.3 2.09,0.6 2.68,1.49 0.3,0.59 0.89,0.89 1.78,0.89 0.3,-0.3 0.9,0 1.19,0 0,-1.78 0.3,-3.57 0,-5.06 0,-0.3 0,-0.59 -0.29,-0.89 -2.09,-1.78 -3.28,-4.16 -4.17,-6.84 0,-0.6 -0.29,-0.9 -0.89,-0.9 -2.98,-0.59 -5.06,-3.27 -5.06,-6.24 0,-1.49 0,-3.27 0,-4.76 0,-2.08 1.19,-3.57 2.97,-3.87 0.59,-0.3 0.59,-0.6 0.59,-1.19 0,-3.86 0,-7.74 0,-11.9 0,-5.95 4.46,-10.41 10.41,-10.12 1.19,0 1.79,0.3 1.79,1.2 0,0.89 -0.6,1.48 -1.79,1.48 -3.27,0 -6.54,2.08 -7.43,5.65 -0.3,1.79 0,3.87 -0.3,5.66l12.2 0c-0.3,0 -0.3,-0.3 -0.3,-0.6 -2.38,-4.46 -0.59,-8.33 4.16,-8.92 1.78,-0.3 3.28,0 5.06,0.29 3.28,0.9 4.76,4.17 3.28,7.44 0,0.6 -0.3,1.19 -0.59,2.08l11.9 0c0,-2.38 0.3,-4.46 -0.29,-6.54 -1.19,-2.98 -3.87,-5.06 -7.14,-5.06 -4.17,0 -8.33,0 -12.5,0 -0.3,0 -0.59,0 -0.89,0 -0.89,0 -1.48,-0.6 -1.48,-1.48 0,-0.6 0.59,-1.2 1.48,-1.2 0.89,0 1.78,0 2.38,0 3.57,0 7.14,0 10.42,0 6.54,0 10.7,4.17 10.7,10.71 0,3.87 0,8.03 0,12.2 0.3,0 0.3,0 0.3,0 2.97,0.89 3.87,1.78 3.87,5.05 0,1.19 0,2.69 0,3.87 0,3.27 -2.37,5.65 -5.35,6.24 -0.9,0 -0.9,0.3 -1.19,0.9 -0.9,2.68 -2.09,5.06 -3.87,6.84 -0.3,0.3 -0.6,0.89 -0.6,1.49 0,1.19 0,2.67 0,4.46 0.89,0 1.49,0 2.38,-0.3 0.3,0 0.3,0 0.59,-0.3 0.59,-1.19 1.78,-1.79 2.97,-1.79 2.69,0 5.36,0 7.74,0 2.38,0.3 3.87,1.49 3.57,3.87 0,1.19 0.3,1.78 1.48,2.38 1.49,0.89 2.68,2.08 4.17,3.27 0.6,0.6 0.6,1.49 0.3,2.09 -0.59,0.6 -1.48,0.6 -2.09,0 -1.19,-0.89 -2.38,-1.78 -3.56,-2.97l0 27.36 10.7 0c0,0 0.3,0 0.3,0 0,-5.06 0.31,-9.81 -1.19,-14.58 -0.59,-1.48 -1.49,-2.97 -2.08,-4.46 -0.59,-1.19 -0.3,-1.78 0.3,-2.38 0.89,-0.3 1.48,0 2.09,0.9 2.37,3.86 3.56,8.03 3.56,12.49 0,6.55 0,12.79 0,19.04 0,1.48 -0.59,2.08 -1.78,2.67l-56.22 0c-0.3,-0.3 -0.6,-0.6 -0.89,-0.89 -0.3,-1.19 0.59,-2.09 1.78,-2.09 3.27,0 6.55,0 9.81,0 0.3,0 0.59,0 1.19,0l0 -1.19c0,-3.87 -0.29,-7.74 0,-11.6 0,-1.19 -0.29,-1.79 -1.19,-2.67 -4.16,-4.17 -8.33,-8.33 -12.49,-12.5 -2.08,-2.08 -3.28,-4.47 -3.57,-7.14 -0.3,-2.69 -0.3,-5.06 -0.3,-7.44 0,-0.9 -0.3,-1.19 -1.19,-1.19 -2.38,0 -4.46,0 -6.84,0 -1.19,0 -1.49,0 -1.49,1.48 0,5.95 0,11.89 0,17.85 0,0.29 0.3,0.59 0.3,0.89l3.87 0c0,-0.29 0,-0.6 0,-1.19 0,-2.38 0,-4.76 0,-7.14 0,-0.9 0.59,-1.49 1.48,-1.49 0.6,0 1.19,0.59 1.19,1.49 0.3,0.29 0,0.6 0,0.89 0,2.09 0.3,4.46 0,6.84 0,0.6 0.3,0.9 0.9,0.9 2.37,0.89 3.87,2.97 3.87,5.35 0,5.06 0,10.12 0,15.47 0,2.09 -1.49,4.17 -3.87,5.06 -0.3,0 -0.3,0.3 -0.59,0.3l-22.02 0 0.01 0.01z"/>
        <path id="_1_28" class="fil3" d="M49.4 46.43c0,0 -0.3,0 -0.3,0 0,0.3 -0.3,0.6 -0.6,1.19 0,1.79 0,3.28 0.3,5.06 0,1.49 0.89,2.68 2.38,2.97 0,-1.78 0,-3.57 0,-5.65 0,0 -0.3,-0.3 -0.3,-0.59 -0.89,-0.59 -1.49,-1.79 -1.49,-2.98l0 0zm41.06 0c0,1.19 -0.3,2.38 -1.19,2.98 -0.3,0.29 -0.3,0.59 -0.3,0.59 0,2.08 0,3.87 0,5.65 1.49,-0.3 2.68,-1.48 2.98,-3.27 0,-1.49 0,-3.28 0,-4.76 0,-0.6 -0.3,-1.2 -1.48,-1.2l0 0zm-62.48 70.2l4.17 0c-0.3,-2.68 -0.3,-5.06 -0.3,-7.74l-3.87 0 0 7.74 0 0zm41.94 -79.43c1.79,-1.79 3.27,-3.28 4.17,-5.65 0.59,-1.48 0,-2.97 -1.79,-3.57 -1.48,-0.59 -2.97,-0.59 -4.76,0 -1.48,0.6 -2.37,2.09 -1.48,3.57 0.89,2.38 2.38,3.87 3.86,5.65zm31.24 79.43l11 0 0 -7.74 -11 0 0 7.74zm-62.18 -37.78c-0.59,0.3 -0.89,0.3 -0.89,0.59 -4.17,2.68 -6.84,6.25 -8.62,10.71 -2.08,5.05 -1.49,10.41 -1.49,15.77 0,0 0,0 0,0l3.87 0c0,-2.39 0,-4.47 0,-6.84 0,-3.57 2.08,-5.95 5.66,-5.95 0.59,0 0.89,0 1.48,0l0 -14.28 0 0zm20.23 -9.22c0,2.37 0,4.46 0,6.54 0.59,4.17 3.57,6.84 7.44,7.13 2.38,0.3 4.76,0.3 6.84,0 3.57,-0.29 5.65,-2.37 6.84,-5.35 0.89,-2.68 0.29,-5.35 0.59,-8.33 -1.49,1.19 -2.38,2.08 -3.28,2.97 -4.46,4.17 -10.71,4.17 -15.17,0 -0.89,-0.89 -2.08,-1.78 -3.27,-2.97l0 0zm0.3 -32.13c-2.09,0 -4.17,0 -6.25,0 -0.89,0 -0.89,0.3 -0.89,0.89 0,2.68 0,5.06 0,7.73 0,1.19 0,1.19 1.19,1.19 2.97,0 5.65,-1.19 8.32,-2.67 2.98,-1.79 6.25,-2.68 9.82,-2.09 2.38,0.3 4.76,1.19 6.84,2.37 2.38,1.49 5.06,2.38 8.03,2.38 0.89,0 1.19,-0.29 1.19,-1.19 0,-2.67 0,-5.06 0,-7.73 0,-0.59 -0.3,-0.89 -0.89,-0.89 -3.57,0 -7.14,0 -10.7,0 -1.79,0 -2.98,0.3 -4.17,1.48 -0.89,1.49 -2.97,1.19 -4.16,0 -0.3,-0.3 -0.6,-0.59 -0.9,-0.89 -0.3,-0.3 -0.89,-0.59 -1.19,-0.59 -2.08,0 -4.16,0 -6.24,0l0 0zm-24.98 69.01c0,2.38 0,4.77 0,7.14 0,2.09 0.89,2.98 3.27,2.98 2.98,0 6.25,0 9.22,0 2.38,0 3.27,-0.89 3.27,-2.98 0,-4.76 0,-9.52 0,-14.57 0,-2.09 -0.89,-2.97 -2.98,-2.97 -3.27,0 -6.54,0 -9.52,0 -2.08,0 -3.27,0.89 -3.27,2.97 0,2.38 0,4.76 0,7.44zm19.33 -31.53c0,1.19 0,2.38 0,3.57 0,3.27 1.19,6.24 3.57,8.63 3.87,3.87 7.74,7.74 11.61,11.61 0.89,0.59 1.19,0.59 1.79,0 3.87,-3.87 7.73,-7.74 11.6,-11.61 3.57,-3.28 3.87,-7.74 3.57,-12.2l-1.19 0 -1.19 0c0,0.3 0,0.6 0,0.89 -0.3,5.35 -4.17,9.52 -9.22,10.41 -2.38,0.3 -4.75,0 -7.13,0 -5.36,0 -9.52,-3.87 -10.71,-8.93 0,-0.89 0,-1.49 -0.3,-2.38l-2.38 0 0 0zm32.43 -24.69c-0.6,0 -0.89,-0.3 -1.19,-0.3 -2.68,0 -5.35,-0.89 -7.74,-2.68 -5.06,-2.97 -9.82,-2.97 -14.58,0.31 -2.08,1.19 -4.17,2.08 -6.55,2.37 -0.89,0 -1.48,0 -2.38,0.3 0,1.19 0,2.68 0,3.87 0,4.46 1.78,8.03 4.76,11.01 2.09,2.08 3.87,3.87 5.96,5.65 3.27,2.97 7.43,2.97 11.01,0 1.78,-1.79 3.86,-3.57 5.65,-5.65 2.38,-2.09 3.87,-4.76 4.46,-7.74 0.3,-2.38 0.3,-4.76 0.6,-7.13zm11.9 66.33l0 -1.19c0,-7.14 0,-14.57 0,-22.01 0,-6.25 0,-12.8 0,-19.34 0,-1.19 0,-1.19 -1.19,-1.19 -2.38,0 -4.46,0 -6.84,0 -1.19,0 -1.19,0 -1.19,1.48 0,1.49 0,2.98 0,4.46 0,3.86 -1.48,7.44 -4.46,10.42 -3.87,3.86 -7.73,7.72 -11.6,11.6 -0.3,0.3 -0.6,0.3 -0.9,0.59 -0.3,0.6 -0.59,0.89 -0.59,1.19 0,4.47 0,8.93 0,13.09 0,0.3 0,0.59 0,0.89l26.77 0zm-71.39 2.98c-1.19,-0.6 -1.79,-1.49 -1.79,-2.98 0,-5.94 0,-11.9 0,-17.55 0.3,-10.11 4.76,-17.85 13.39,-23.2 0.3,-0.3 0.59,-0.59 0.59,-1.19 0,-0.59 0,-1.2 0,-1.79 0.3,-1.79 1.79,-2.68 3.57,-2.98 2.68,0 5.35,0 8.03,0 0.9,0.3 2.09,0.6 2.68,1.49 0.3,0.59 0.89,0.89 1.78,0.89 0.3,-0.3 0.9,0 1.19,0 0,-1.78 0.3,-3.57 0,-5.06 0,-0.3 0,-0.59 -0.29,-0.89 -2.09,-1.78 -3.28,-4.16 -4.17,-6.84 0,-0.6 -0.29,-0.9 -0.89,-0.9 -2.98,-0.59 -5.06,-3.27 -5.06,-6.24 0,-1.49 0,-3.27 0,-4.76 0,-2.08 1.19,-3.57 2.97,-3.87 0.59,-0.3 0.59,-0.6 0.59,-1.19 0,-3.86 0,-7.74 0,-11.9 0,-5.95 4.46,-10.41 10.41,-10.12 1.19,0 1.79,0.3 1.79,1.2 0,0.89 -0.6,1.48 -1.79,1.48 -3.27,0 -6.54,2.08 -7.43,5.65 -0.3,1.79 0,3.87 -0.3,5.66l12.2 0c-0.3,0 -0.3,-0.3 -0.3,-0.6 -2.38,-4.46 -0.59,-8.33 4.16,-8.92 1.78,-0.3 3.28,0 5.06,0.29 3.28,0.9 4.76,4.17 3.28,7.44 0,0.6 -0.3,1.19 -0.59,2.08l11.9 0c0,-2.38 0.3,-4.46 -0.29,-6.54 -1.19,-2.98 -3.87,-5.06 -7.14,-5.06 -4.17,0 -8.33,0 -12.5,0 -0.3,0 -0.59,0 -0.89,0 -0.89,0 -1.48,-0.6 -1.48,-1.48 0,-0.6 0.59,-1.2 1.48,-1.2 0.89,0 1.78,0 2.38,0 3.57,0 7.14,0 10.42,0 6.54,0 10.7,4.17 10.7,10.71 0,3.87 0,8.03 0,12.2 0.3,0 0.3,0 0.3,0 2.97,0.89 3.87,1.78 3.87,5.05 0,1.19 0,2.69 0,3.87 0,3.27 -2.37,5.65 -5.35,6.24 -0.9,0 -0.9,0.3 -1.19,0.9 -0.9,2.68 -2.09,5.06 -3.87,6.84 -0.3,0.3 -0.6,0.89 -0.6,1.49 0,1.19 0,2.67 0,4.46 0.89,0 1.49,0 2.38,-0.3 0.3,0 0.3,0 0.59,-0.3 0.59,-1.19 1.78,-1.79 2.97,-1.79 2.69,0 5.36,0 7.74,0 2.38,0.3 3.87,1.49 3.57,3.87 0,1.19 0.3,1.78 1.48,2.38 1.49,0.89 2.68,2.08 4.17,3.27 0.6,0.6 0.6,1.49 0.3,2.09 -0.59,0.6 -1.48,0.6 -2.09,0 -1.19,-0.89 -2.38,-1.78 -3.56,-2.97l0 27.36 10.7 0c0,0 0.3,0 0.3,0 0,-5.06 0.31,-9.81 -1.19,-14.58 -0.59,-1.48 -1.49,-2.97 -2.08,-4.46 -0.59,-1.19 -0.3,-1.78 0.3,-2.38 0.89,-0.3 1.48,0 2.09,0.9 2.37,3.86 3.56,8.03 3.56,12.49 0,6.55 0,12.79 0,19.04 0,1.48 -0.59,2.08 -1.78,2.67l-56.22 0c-0.3,-0.3 -0.6,-0.6 -0.89,-0.89 -0.3,-1.19 0.59,-2.09 1.78,-2.09 3.27,0 6.55,0 9.81,0 0.3,0 0.59,0 1.19,0l0 -1.19c0,-3.87 -0.29,-7.74 0,-11.6 0,-1.19 -0.29,-1.79 -1.19,-2.67 -4.16,-4.17 -8.33,-8.33 -12.49,-12.5 -2.08,-2.08 -3.28,-4.47 -3.57,-7.14 -0.3,-2.69 -0.3,-5.06 -0.3,-7.44 0,-0.9 -0.3,-1.19 -1.19,-1.19 -2.38,0 -4.46,0 -6.84,0 -1.19,0 -1.49,0 -1.49,1.48 0,5.95 0,11.89 0,17.85 0,0.29 0.3,0.59 0.3,0.89l3.87 0c0,-0.29 0,-0.6 0,-1.19 0,-2.38 0,-4.76 0,-7.14 0,-0.9 0.59,-1.49 1.48,-1.49 0.6,0 1.19,0.59 1.19,1.49 0.3,0.29 0,0.6 0,0.89 0,2.09 0.3,4.46 0,6.84 0,0.6 0.3,0.9 0.9,0.9 2.37,0.89 3.87,2.97 3.87,5.35 0,5.06 0,10.12 0,15.47 0,2.09 -1.49,4.17 -3.87,5.06 -0.3,0 -0.3,0.3 -0.59,0.3l-22.02 0 0.01 0.01z"/>
       </g>
      </g>
      <g>
       <path class="fil1" d="M93.13 105.03l-13.39 0 0 4.76 13.39 0 0 -4.76zm-6.54 7.73c-2.38,0 -4.46,0 -6.84,0 -1.78,0 -2.68,-0.89 -2.68,-2.68 0,-1.78 0,-3.57 0,-5.35 0,-1.49 0.89,-2.68 2.68,-2.68 4.46,0 8.93,0 13.69,0 1.49,0 2.68,0.89 2.68,2.68 0,1.79 0,3.57 0,5.35 -0.3,1.79 -1.19,2.68 -2.68,2.68 -2.38,0 -4.76,0 -6.84,0z"/>
       <g>
        <path id="_1_29" class="fil2 str1" d="M93.13 105.03l-13.38 0 0 4.76 13.38 0 0 -4.76zm-6.54 7.73c-2.38,0 -4.46,0 -6.83,0 -1.79,0 -2.69,-0.89 -2.69,-2.67 0,-1.8 0,-3.58 0,-5.37 0,-1.48 0.89,-2.67 2.69,-2.67 4.46,0 8.92,0 13.68,0 1.48,0 2.67,0.89 2.67,2.67 0,1.79 0,3.57 0,5.37 -0.3,1.78 -1.19,2.67 -2.67,2.67 -2.38,0 -4.76,0 -6.85,0z"/>
        <path id="_1_30" class="fil3" d="M93.13 105.03l-13.38 0 0 4.76 13.38 0 0 -4.76zm-6.54 7.73c-2.38,0 -4.46,0 -6.83,0 -1.79,0 -2.69,-0.89 -2.69,-2.67 0,-1.8 0,-3.58 0,-5.37 0,-1.48 0.89,-2.67 2.69,-2.67 4.46,0 8.92,0 13.68,0 1.48,0 2.67,0.89 2.67,2.67 0,1.79 0,3.57 0,5.37 -0.3,1.78 -1.19,2.67 -2.67,2.67 -2.38,0 -4.76,0 -6.85,0z"/>
       </g>
      </g>
      <g>
       <path class="fil1" d="M69.93 64.87c-1.19,0 -2.38,0 -3.57,0 -0.89,0 -1.49,-0.59 -1.49,-1.19 0,-0.89 0.59,-1.49 1.49,-1.49 2.38,0 4.76,0 7.14,0 0.89,0 1.79,0.6 1.79,1.49 0,0.89 -0.6,1.19 -1.79,1.19 -1.19,0 -2.38,0 -3.57,0z"/>
       <g>
        <path id="_1_31" class="fil2 str1" d="M69.93 64.87c-1.19,0 -2.38,0 -3.57,0 -0.89,0 -1.48,-0.59 -1.48,-1.19 0,-0.89 0.6,-1.49 1.48,-1.49 2.38,0 4.76,0 7.15,0 0.89,0 1.78,0.6 1.78,1.49 0,0.89 -0.59,1.19 -1.78,1.19 -1.2,0 -2.39,0 -3.57,0z"/>
        <path id="_1_32" class="fil3" d="M69.93 64.87c-1.19,0 -2.38,0 -3.57,0 -0.89,0 -1.48,-0.59 -1.48,-1.19 0,-0.89 0.6,-1.49 1.48,-1.49 2.38,0 4.76,0 7.15,0 0.89,0 1.78,0.6 1.78,1.49 0,0.89 -0.59,1.19 -1.78,1.19 -1.2,0 -2.39,0 -3.57,0z"/>
       </g>
      </g>
      <g>
       <path class="fil1" d="M63.98 51.78c0,0.89 -0.89,1.79 -1.78,1.79 -1.19,0 -1.78,-0.89 -1.78,-1.79 -0.3,-1.19 0.59,-1.78 1.48,-1.78 1.19,-0.3 2.08,0.59 2.08,1.78l0 0z"/>
       <g>
        <path id="_1_33" class="fil2 str1" d="M63.98 51.78c0,0.9 -0.9,1.79 -1.79,1.79 -1.19,0 -1.78,-0.89 -1.78,-1.79 -0.3,-1.19 0.59,-1.78 1.48,-1.78 1.19,-0.3 2.09,0.59 2.09,1.78l0 0z"/>
        <path id="_1_34" class="fil3" d="M63.98 51.78c0,0.9 -0.9,1.79 -1.79,1.79 -1.19,0 -1.78,-0.89 -1.78,-1.79 -0.3,-1.19 0.59,-1.78 1.48,-1.78 1.19,-0.3 2.09,0.59 2.09,1.78l0 0z"/>
       </g>
      </g>
      <g>
       <path class="fil1" d="M77.96 50c0.89,-0.3 1.78,0.59 1.78,1.78 0,0.89 -0.89,1.79 -1.78,1.79 -0.89,0 -1.79,-0.89 -1.79,-1.79 0,-0.89 0.59,-1.78 1.79,-1.78z"/>
       <g>
        <path id="_1_35" class="fil2 str1" d="M77.96 50c0.89,-0.3 1.79,0.59 1.79,1.78 0,0.9 -0.9,1.79 -1.79,1.79 -0.9,0 -1.78,-0.89 -1.78,-1.79 0,-0.89 0.59,-1.78 1.78,-1.78z"/>
        <path id="_1_36" class="fil3" d="M77.96 50c0.89,-0.3 1.79,0.59 1.79,1.78 0,0.9 -0.9,1.79 -1.79,1.79 -0.9,0 -1.78,-0.89 -1.78,-1.79 0,-0.89 0.59,-1.78 1.78,-1.78z"/>
       </g>
      </g>
      <g>
       <path class="fil1" d="M42.26 109.19c-0.89,0 -1.78,0 -2.68,0 -0.89,0 -1.48,-0.59 -1.48,-1.48 0,-0.89 0.59,-1.19 1.48,-1.19 1.79,-0.3 3.57,-0.3 5.65,0 0.89,0 1.49,0.3 1.49,1.19 0,0.89 -0.59,1.48 -1.49,1.48 -0.89,0 -2.08,0 -2.98,0z"/>
       <g>
        <path id="_1_37" class="fil2 str1" d="M42.26 109.2c-0.89,0 -1.78,0 -2.68,0 -0.89,0 -1.49,-0.6 -1.49,-1.49 0,-0.89 0.6,-1.19 1.49,-1.19 1.79,-0.3 3.57,-0.3 5.65,0 0.89,0 1.49,0.3 1.49,1.19 0,0.89 -0.6,1.49 -1.49,1.49 -0.89,0 -2.08,0 -2.98,0z"/>
        <path id="_1_38" class="fil3" d="M42.26 109.2c-0.89,0 -1.78,0 -2.68,0 -0.89,0 -1.49,-0.6 -1.49,-1.49 0,-0.89 0.6,-1.19 1.49,-1.19 1.79,-0.3 3.57,-0.3 5.65,0 0.89,0 1.49,0.3 1.49,1.19 0,0.89 -0.6,1.49 -1.49,1.49 -0.89,0 -2.08,0 -2.98,0z"/>
       </g>
      </g>
      <g>
       <path class="fil1" d="M42.26 115.15c-0.89,0 -1.78,0 -2.97,0 -0.89,0 -1.19,-0.6 -1.19,-1.49 0,-0.59 0.3,-1.19 1.19,-1.19 2.08,0 4.17,0 5.95,0 0.89,0 1.49,0.59 1.49,1.19 0,0.89 -0.6,1.49 -1.49,1.49 -0.89,0 -1.79,0 -2.98,0l0 0z"/>
       <g>
        <path id="_1_39" class="fil2 str1" d="M42.26 115.14c-0.89,0 -1.78,0 -2.98,0 -0.89,0 -1.19,-0.59 -1.19,-1.49 0,-0.59 0.3,-1.18 1.19,-1.18 2.08,0 4.17,0 5.95,0 0.89,0 1.48,0.59 1.48,1.18 0,0.9 -0.6,1.49 -1.48,1.49 -0.89,0 -1.79,0 -2.98,0l0 0z"/>
        <path id="_1_40" class="fil3" d="M42.26 115.14c-0.89,0 -1.78,0 -2.98,0 -0.89,0 -1.19,-0.59 -1.19,-1.49 0,-0.59 0.3,-1.18 1.19,-1.18 2.08,0 4.17,0 5.95,0 0.89,0 1.48,0.59 1.48,1.18 0,0.9 -0.6,1.49 -1.48,1.49 -0.89,0 -1.79,0 -2.98,0l0 0z"/>
       </g>
      </g>
      <g>
       <path class="fil1" d="M39.29 102.95c-0.89,0 -1.78,-0.6 -1.78,-1.79 0,-0.89 0.89,-1.78 1.78,-1.78 0.89,0 1.78,0.89 1.78,1.78 0,0.89 -0.59,1.79 -1.78,1.79z"/>
       <g>
        <path id="_1_41" class="fil2 str1" d="M39.29 102.94c-0.89,0 -1.78,-0.59 -1.78,-1.78 0,-0.89 0.89,-1.79 1.78,-1.79 0.89,0 1.78,0.89 1.78,1.79 0,0.89 -0.59,1.78 -1.78,1.78z"/>
        <path id="_1_42" class="fil3" d="M39.29 102.94c-0.89,0 -1.78,-0.59 -1.78,-1.78 0,-0.89 0.89,-1.79 1.78,-1.79 0.89,0 1.78,0.89 1.78,1.79 0,0.89 -0.59,1.78 -1.78,1.78z"/>
       </g>
      </g>
     </g>
    </g>
   </g>
  </g>
  <polygon class="fil0" points="-0,0 140,0 140,140 -0,140 "/>
 </g>
</svg>
