<?xml version="1.0" encoding="UTF-8"?>
<!DOCTYPE svg PUBLIC "-//W3C//DTD SVG 1.1//EN" "http://www.w3.org/Graphics/SVG/1.1/DTD/svg11.dtd">
<!-- Creator: CorelDRAW -->
<svg xmlns="http://www.w3.org/2000/svg" xml:space="preserve" width="0.140197in" height="0.140197in" version="1.1" style="shape-rendering:geometricPrecision; text-rendering:geometricPrecision; image-rendering:optimizeQuality; fill-rule:evenodd; clip-rule:evenodd"
viewBox="0 0 140.2 140.2"
 xmlns:xlink="http://www.w3.org/1999/xlink"
 xmlns:xodm="http://www.corel.com/coreldraw/odm/2003">
 <defs>
  <style type="text/css">
   <![CDATA[
    .str0 {stroke:#1C2335;stroke-width:3.33;stroke-miterlimit:2.61313}
    .fil0 {fill:none}
    .fil1 {fill:#1C2335;fill-rule:nonzero}
   ]]>
  </style>
 </defs>
 <g id="Layer_x0020_1">
  <metadata id="CorelCorpID_0Corel-Layer"/>
  <g id="_1782731077296">
   <g>
    <path class="fil0 str0" d="M135.7 89.56c10.74,-36.23 -9.91,-74.31 -46.14,-85.06 -36.23,-10.74 -74.31,9.91 -85.06,46.14 -10.74,36.23 9.91,74.31 46.14,85.06 36.23,10.74 74.31,-9.91 85.06,-46.14z"/>
   </g>
   <g id="_2562532450816">
    <path class="fil1" d="M22.64 40.52c0.3,-0.89 1.19,-0.89 2.09,-0.89 8.35,0 16.69,0 25.33,0 0.3,0 0.59,0 1.19,0 0,-0.59 0,-0.89 0,-1.19 0,-1.49 -0.3,-3.28 0,-5.06 0.6,-2.98 3.28,-5.37 6.56,-5.37 8.34,0 16.39,0 24.44,0 3.87,0 6.85,2.98 6.85,6.56 0,3.87 0,7.75 0,11.32 0,0.3 0,0.89 0,1.19 7.15,0 14.61,0 21.76,0 0.6,-1.79 1.79,-3.28 3.58,-3.87 0.3,0 0.3,-0.3 0.59,-0.89 -0.59,0 -0.89,0 -1.49,0 -6.26,0 -12.81,0 -19.37,0 -0.3,0 -0.59,0 -0.89,0 -0.89,0 -1.49,-0.6 -1.49,-1.49 0,-0.59 0.59,-1.19 1.49,-1.19 0.3,0 0.3,0 0.6,0 7.15,0 14.6,0 21.76,0 0.89,0 1.49,0 2.09,0.89 0,1.49 0,2.98 0,4.17 -0.6,0.59 -0.9,1.19 -1.79,1.19 -1.19,0 -1.79,0.6 -2.09,1.79 -0.59,1.19 -0.89,2.68 -0.89,4.17 0.3,1.49 0,2.98 0,4.47 0,0.89 0,1.79 0,2.98 0.6,0 1.19,0 1.79,0 1.49,-0.3 2.39,0.3 2.98,1.49 0,2.98 0,5.96 0,8.64 -0.6,0.59 -0.9,1.19 -1.19,1.19 -0.6,0.3 -1.19,0.3 -1.79,0.3 -0.59,0 -1.19,0 -1.79,0 0,0.89 0,1.79 0,2.39 0,2.68 0,5.37 0,8.05 0,1.19 -0.3,1.79 -1.19,1.79 -0.89,0 -1.49,-0.6 -1.49,-1.79 0,-2.98 0,-6.26 0,-9.24 0,-0.3 0,-0.59 0,-0.89 -26.82,0 -53.35,0 -80.17,0 0,0.3 0,0.59 0,0.89 0,2.98 0,5.96 0,8.94 0,0.3 0,0.6 0,0.89 -0.3,0.89 -0.6,1.19 -1.49,1.19 -0.6,0 -1.19,-0.6 -1.19,-1.19 0,-0.59 0,-1.19 0,-1.79 0,-2.68 0,-5.37 0,-8.05 0,-0.3 0,-0.59 0,-1.19 -0.89,0 -1.79,0 -2.39,0 -1.49,0 -2.38,-0.59 -2.38,-2.09 0,-2.38 0,-5.06 0,-7.45 0,-1.49 0.89,-2.09 2.38,-2.09 0.6,-0.3 1.49,0 2.39,0 0,-1.19 0,-1.79 0,-2.68 0,-1.49 -0.3,-2.98 0,-4.17 0.3,-1.79 -0.6,-3.28 -0.89,-5.07 -0.3,-0.89 -1.19,-1.49 -2.39,-1.49 -0.59,0 -1.19,-0.6 -1.49,-1.19 0,-1.19 0,-2.68 0,-4.17l-0 -0zm28.61 1.79l0 0c-8.64,0 -17.28,0 -25.93,0 0,0.6 0,0.9 0.59,1.19 1.49,0.3 2.39,1.49 2.98,2.68 0.3,0.9 0.6,0.9 1.19,0.9 3.57,0 7.15,0 10.73,0 2.09,0 3.87,0 5.96,0 1.19,0 1.79,0.89 1.49,1.79 -0.3,0.89 -0.89,0.89 -1.79,0.89 -5.07,0 -10.13,0 -15.2,0 -0.3,0 -0.6,0 -1.19,0 0,3.28 0,6.26 0,9.24 26.82,0 53.35,0 80.17,0 0,-2.98 0,-5.96 0,-9.24 -7.15,0 -14.31,0 -21.16,0 0,0.3 0,0.3 0,0.3 -0.6,4.17 -3.28,6.56 -7.45,6.56 -7.75,0 -15.5,0 -23.24,0 -4.47,0 -7.15,-2.68 -7.15,-7.15 0,-2.38 0,-4.77 0,-7.15l0 -0zm18.78 -11.62l0 0c-3.87,0 -7.75,0 -11.63,0 -2.68,0 -4.47,1.79 -4.47,4.17 0,5.07 0,9.83 0,14.9 0,2.39 1.79,4.17 4.17,4.17 8.05,0 15.8,0 23.84,0 2.68,0 4.17,-1.79 4.17,-4.47 0,-4.77 0,-9.54 0,-14.3 0,-2.68 -1.49,-4.47 -4.17,-4.47 -3.87,0 -7.75,0 -11.92,0zm44.7 31.3l0 0c-29.8,0 -59.3,0 -89.11,0 0,2.09 0,4.17 0,6.26 29.8,0 59.3,0 89.11,0 0,-2.09 0,-4.17 0,-6.26z"/>
    <path class="fil1" d="M81.35 109.37c9.54,0 19.07,0 28.61,0 0,-0.3 0,-0.6 0,-1.19 0,-6.56 0,-13.41 0,-19.97 0,-1.49 0.6,-2.38 1.49,-2.38 0.9,0 1.49,0.89 1.49,2.09 0,7.15 0,14.3 0,21.46 0,2.38 -0.89,2.98 -2.98,2.98 -26.52,0 -53.05,0 -79.87,0 -2.09,0 -2.68,-0.6 -2.68,-2.98 0,-7.15 0,-14.31 0,-21.46 0,-0.3 0,-0.6 0,-0.9 0,-0.59 0.6,-1.19 1.19,-1.19 0.89,0 1.19,0.3 1.49,1.19 0,0.3 0,0.6 0,1.19 0,6.56 0,13.41 0,19.97 0,0.6 0,0.89 0,1.19 9.54,0 19.07,0 28.61,0 0,-0.3 0,-0.6 0,-0.89 0,-8.35 0,-16.39 0,-24.74 0,-2.69 1.19,-3.87 3.87,-3.87 5.07,0 10.13,0 14.9,0 2.68,0 3.87,1.19 3.87,3.87 0,8.04 0,16.39 0,24.44 0,0.3 0,0.89 0,1.19l0 0zm-2.68 0l0 0c0,-0.3 0,-0.3 0,-0.6 0,-8.34 0,-16.69 0,-25.03 0,-0.9 -0.3,-1.19 -1.19,-1.19 -4.77,0.3 -9.83,0 -14.6,0.3 -1.19,0 -1.19,0 -1.19,1.19 0,8.05 0,16.09 0,24.44 0,0.3 0,0.59 0,0.89 5.66,0 11.33,0 16.99,0z"/>
    <path class="fil1" d="M44.1 82.84c2.68,0 5.36,0 8.34,0 1.79,0 2.98,1.19 2.98,2.98 0,5.06 0,10.13 0,15.2 0,1.79 -1.19,2.98 -2.98,2.98 -5.66,0 -11.32,0 -16.69,0 -2.09,0 -3.28,-1.19 -3.28,-3.28 0,-4.77 0,-9.83 0,-14.6 0,-2.09 1.19,-3.28 3.28,-3.28 2.68,0 5.37,0 8.34,0l0 0zm-8.94 18.18l0 0c0.3,0.3 0.59,0.3 0.59,0.3 5.37,0 10.73,0 16.09,0 0.89,0 0.89,-0.6 0.89,-1.19 0,-4.47 0,-8.94 0,-13.41 0,-0.3 0,-0.59 0,-0.89 -5.96,0 -11.62,0 -17.58,0 0,5.07 0,10.13 0,15.2l0 0z"/>
    <path class="fil1" d="M96.25 104c-2.68,0 -5.37,0 -8.34,0 -2.09,0 -3.28,-1.19 -3.28,-3.28 0,-4.77 0,-9.54 0,-14.6 0,-2.09 1.19,-3.28 3.28,-3.28 5.66,0 11.02,0 16.69,0 2.09,0 3.28,1.19 3.28,3.28 0,4.77 0,9.83 0,14.6 0,2.09 -1.19,3.28 -3.28,3.28 -2.68,0 -5.67,0 -8.35,0l0 0zm8.64 -18.18l0 0c-5.66,0 -11.62,0 -17.28,0 0,0.3 0,0.59 0,0.89 -0.3,4.47 0,8.94 -0.3,13.41 0,0.89 0.3,1.19 1.19,1.19 5.07,0 10.43,0 15.5,0 0.3,0 0.6,0 0.9,0 0,-5.37 0,-10.43 0,-15.5l-0 0z"/>
    <path class="fil1" d="M78.37 37.84c-3.57,0 -6.85,0 -9.83,0 -0.6,0 -0.89,0 -1.19,-0.3 -0.89,0 -1.19,-0.6 -1.19,-1.49 0,-0.59 0.6,-1.19 1.19,-1.19 1.19,0 2.39,0 3.57,0 2.69,0 5.37,0 8.05,0 2.09,0 2.98,1.49 2.09,3.28 -0.59,2.39 -1.49,4.47 -2.38,6.85 -0.6,1.79 -1.79,2.39 -3.58,2.39 -2.68,0 -5.36,0 -7.75,0 -2.09,0 -3.28,-0.89 -3.87,-2.98 -0.59,-2.39 -0.89,-4.77 -1.49,-7.45 0,-0.59 -0.3,-0.59 -0.89,-0.59 -0.3,0 -0.9,0 -1.19,0 -0.6,-0.3 -1.19,-0.6 -1.19,-1.49 0,-0.59 0.6,-1.19 1.19,-1.19 0.89,-0.3 1.79,-0.3 2.38,0 1.19,0 2.09,0.9 2.39,2.09 0.3,2.68 0.89,5.07 1.49,7.75 0.3,0.89 0.6,1.19 1.49,1.19 2.38,0 4.77,0 7.15,0 0.6,0 1.19,-0.3 1.49,-0.89 0.59,-2.09 1.49,-3.87 2.09,-5.96l0 0z"/>
    <path class="fil1" d="M67.04 51.25c-0.89,0.3 -1.49,-0.3 -1.49,-1.19 0,-0.9 0.6,-1.49 1.49,-1.49 0.9,0 1.49,0.6 1.49,1.49 0,0.89 -0.6,1.19 -1.49,1.19z"/>
    <path class="fil1" d="M73.3 51.25c-1.19,0.3 -1.79,-0.3 -1.79,-1.19 0,-0.9 0.59,-1.49 1.49,-1.49 0.89,0 1.79,0.6 1.79,1.49 0,0.59 -0.6,1.19 -1.49,1.19z"/>
    <path class="fil1" d="M64.07 94.46c0.59,0.3 1.19,0.3 1.79,0.89 0.3,0.3 0.3,1.19 -0.3,1.79 -0.59,0.6 -2.38,0.6 -2.98,0 -0.3,-0.59 -0.59,-1.49 0,-1.79 0.3,-0.59 0.89,-0.59 1.49,-0.89z"/>
   </g>
  </g>
  <rect class="fil0" x="0.1" y="0.1" width="140" height="140"/>
 </g>
</svg>
