<?xml version="1.0" encoding="UTF-8"?>
<!DOCTYPE svg PUBLIC "-//W3C//DTD SVG 1.1//EN" "http://www.w3.org/Graphics/SVG/1.1/DTD/svg11.dtd">
<!-- Creator: CorelDRAW -->
<svg xmlns="http://www.w3.org/2000/svg" xml:space="preserve" width="0.14in" height="0.14in" version="1.1" style="shape-rendering:geometricPrecision; text-rendering:geometricPrecision; image-rendering:optimizeQuality; fill-rule:evenodd; clip-rule:evenodd"
viewBox="0 0 140 140"
 xmlns:xlink="http://www.w3.org/1999/xlink"
 xmlns:xodm="http://www.corel.com/coreldraw/odm/2003">
 <defs>
  <style type="text/css">
   <![CDATA[
    .str0 {stroke:#1C2335;stroke-width:3.33;stroke-miterlimit:2.61313}
    .fil0 {fill:none}
    .fil1 {fill:#1C2335;fill-rule:nonzero}
   ]]>
  </style>
 </defs>
 <g id="Layer_x0020_1">
  <metadata id="CorelCorpID_0Corel-Layer"/>
  <g id="_1782888666000">
   <g>
    <path class="fil0 str0" d="M135.41 89.4c10.72,-36.12 -9.88,-74.1 -46.01,-84.81 -36.12,-10.72 -74.1,9.88 -84.81,46.01 -10.72,36.12 9.88,74.1 46.01,84.81 36.12,10.72 74.1,-9.88 84.81,-46.01z"/>
   </g>
   <path class="fil1" d="M118.67 61.01c-0.89,2.08 -2.38,2.67 -4.46,2.67 -0.89,-0.3 -1.78,0 -2.97,0 -2.08,-0.3 -3.27,-1.48 -3.27,-3.56 0,-3.27 0,-6.54 0,-9.81 0,-0.6 0,-0.89 0,-1.19 -1.48,-0.3 -1.48,0 -2.08,0.89 -1.19,1.48 -0.89,2.97 -0.89,4.46 0,4.76 -0.3,9.81 0,14.56 0,4.76 -4.16,6.54 -7.72,5.05 -3.57,-1.78 -6.83,-3.86 -10.11,-6.24 0,-0.3 -0.3,-0.3 -0.59,-0.59 -1.78,2.67 -3.57,5.35 -3.57,8.62 1.49,0 2.68,0 3.87,0 2.67,0.59 4.46,2.67 4.75,5.35 0.3,2.67 0.59,5.35 0.89,8.32 0.3,2.08 0,4.16 -0.59,6.24 -0.3,1.78 -0.6,3.86 -0.89,5.65 0,0.89 -0.59,1.48 -1.48,1.48 -0.89,0 -1.49,-0.59 -1.49,-1.48 0.3,-1.79 0.3,-3.27 0.89,-4.76 0.89,-3.27 0.89,-6.83 0.59,-10.11 -0.3,-1.78 -0.59,-3.27 -0.89,-5.05 -0.3,-1.78 -1.49,-2.97 -3.27,-2.97 -1.78,0 -2.97,1.19 -3.27,2.97 -0.3,2.97 -0.89,5.65 -1.19,8.62 0,1.78 0.59,3.57 0.89,5.35 0.3,2.08 0.6,4.16 0.89,6.24 0,2.67 0,5.35 0,8.02 1.78,0 3.57,0 5.35,0 0,-0.6 0,-0.89 0,-1.49 0.3,-0.89 0.89,-1.48 1.48,-1.48 0.89,0 1.48,0.59 1.48,1.48 -0.3,2.08 0.59,3.86 1.49,5.35 0.89,1.19 1.48,2.08 2.08,3.27 1.78,3.27 -0.3,7.13 -4.16,7.13 -2.38,0 -4.75,0 -7.13,0 -3.27,0 -5.35,-2.67 -4.76,-5.65 1.48,-5.94 1.19,-11.89 1.19,-18.13 0,-1.19 -0.3,-2.08 -0.59,-3.57 -2.97,1.49 -5.94,1.19 -9.21,1.19 -2.97,0 -5.94,0.3 -8.92,-1.19 -0.3,1.49 -0.59,2.68 -0.59,3.87 0,3.56 -0.3,6.83 0,10.4 0,2.38 0.59,5.05 1.19,7.43 0.59,2.97 -1.48,5.65 -4.75,5.65 -2.38,0 -4.76,0 -7.13,0 -3.86,0 -5.94,-3.86 -4.16,-7.13 0.89,-1.78 2.08,-3.56 3.27,-5.35 0,-0.3 0.3,-0.6 0.3,-0.89 0,-3.86 0,-7.43 -0.3,-11.29 0,-1.19 -0.3,-2.38 -0.89,-3.57 -0.89,-3.27 -0.59,-6.24 0,-9.51 0,-1.49 0.3,-2.97 0.59,-4.76 0.59,-4.46 3.86,-6.54 8.32,-5.35 0.59,-1.78 -0.3,-3.57 -3.27,-8.91 -0.59,0.3 -1.19,0.89 -1.78,1.19 -2.67,1.78 -5.65,3.56 -8.32,5.35 -1.78,0.89 -3.57,1.19 -5.35,0.3 -2.08,-0.89 -2.97,-2.38 -2.97,-4.46 0,-5.65 0,-11.29 0,-16.94 0,-0.89 0,-1.48 -0.59,-2.08 0,0 -0.3,-0.3 -0.3,-0.6 -0.3,-1.19 -0.89,-1.19 -2.08,-0.89 0,0.3 0,0.59 0,0.89 0,3.27 0,6.54 0,9.81 0,2.38 -1.19,3.57 -3.86,3.87 -0.89,0 -1.78,-0.3 -2.67,0 -2.08,0 -3.57,-0.59 -4.46,-2.68 0,-4.46 0,-8.91 0,-13.37 0.59,-0.6 1.19,-1.19 2.08,-0.89 0.89,0.3 0.89,1.19 0.89,2.08 0,3.56 0,7.13 0,10.7 0,0.89 0.3,1.19 1.19,1.19 0.89,0 1.78,0 2.97,0 0.89,0 1.19,-0.3 1.19,-1.19 -0.3,-3.86 0,-7.73 0,-11.59 0,-4.16 0,-8.32 0,-12.48 0,-0.59 -0.3,-0.89 -1.19,-0.89 -0.89,0 -2.08,0 -2.97,0 -0.89,0 -1.19,0.3 -1.19,0.89 0,1.78 0,3.56 0,5.65 0,0.59 0,1.48 -0.89,1.78 -0.89,0.3 -1.48,-0.3 -2.08,-0.89 0,-2.67 0,-5.05 0,-7.72 0.89,-2.08 2.37,-2.67 4.46,-2.67 0.89,0 1.78,0 2.67,0 2.67,0 3.86,1.48 3.86,3.86 0,2.67 0,5.35 0,8.32 0,0.59 0,1.48 0,2.38 0.59,0 1.19,0 1.49,0 0,-0.3 0.3,-0.59 0.3,-0.89 0.3,-1.78 1.48,-2.97 3.57,-2.97 2.08,0 4.16,0 6.24,0 1.78,0 2.97,1.48 3.57,2.97 0,0.3 0,0.6 0,0.89 4.16,0 8.02,0 12.19,0 0,-2.97 0.89,-5.65 2.67,-7.73 2.08,-2.08 4.75,-2.67 7.72,-2.97 5.05,-0.3 10.7,3.27 10.7,10.7 3.86,0 8.02,0 12.19,0 0.3,-2.97 1.78,-3.86 4.46,-3.86 1.48,0 2.97,0 4.46,0 2.97,0 3.86,0.89 4.46,3.56 0,0.3 0.3,0.3 0.3,0.3 0.3,0 0.89,0 1.19,0 0,-0.3 0.3,-0.59 0.3,-0.89 0,-3.27 0,-6.83 0,-10.1 0,-2.08 1.19,-3.57 3.57,-3.57 0.89,0 1.78,0 2.97,0 2.08,0 3.56,0.59 4.16,2.67 0,8.92 0,17.83 0,26.75l0 0zm-59.44 -6.83l0 0c0,0.3 0,0.59 0,0.89 0.3,4.75 0.3,9.21 -1.19,13.67 0,0.3 0,0.59 0.3,0.89 0.89,2.08 1.48,4.46 1.48,6.83 0,0.3 0.3,0.59 0.89,0.89 1.78,0.89 3.27,2.08 4.16,3.86 0.59,0.59 0.89,0.89 1.78,0.89 2.37,0 4.46,0 6.83,0 0.59,0 1.19,0 1.48,-0.89 1.19,-1.78 2.67,-2.97 4.46,-3.86 0.59,-0.3 0.59,-0.59 0.59,-0.89 0,-2.38 0.59,-4.75 1.78,-6.83 0,-0.3 0.3,-0.59 0,-0.89 -1.19,-4.46 -1.19,-9.21 -1.19,-13.67 0,-0.3 0,-0.6 0,-0.89 -0.59,-0.3 -1.19,-0.3 -1.78,0.59 0,0.3 -0.3,0.59 -0.59,0.89 0,0.3 -0.3,0.89 -0.3,1.19 0.3,2.67 0,5.05 -0.89,7.43 -0.3,0.89 -0.89,2.08 -1.48,2.67 -2.97,4.16 -8.32,4.16 -11.29,0 -1.78,-2.67 -2.38,-5.65 -2.08,-8.92 0,-1.19 -0.3,-2.37 -1.19,-3.27 -0.3,-0.59 -0.89,-0.89 -1.78,-0.59zm18.43 -6.83l0 0c0,0 0,0 0,0 0,-0.59 0,-1.48 0,-2.08 -0.3,-3.27 -2.38,-5.94 -5.35,-6.54 -1.19,-0.3 -2.37,-0.3 -3.56,-0.3 -3.27,0.3 -5.65,2.68 -6.24,5.65 0,1.78 0,3.27 0,5.05 -0.3,3.56 2.08,5.65 4.76,7.43 0.3,0.3 0.89,0.3 1.48,0.3 0.89,0.3 1.78,0.3 2.68,0 0.59,0 1.48,-0.3 2.08,-0.59 0.89,-0.59 1.48,-1.48 2.38,-2.08 1.19,-1.19 1.78,-2.97 1.78,-4.76 0,-0.59 0,-1.19 0,-2.08l0 0zm20.8 5.35l0 0c0,0.3 0,0.89 0,1.19 0,1.78 0,3.86 0,5.94 0,0.89 -0.3,1.48 -1.19,1.78 -0.89,0.3 -1.78,0 -2.08,-0.89 -0.3,-0.3 -0.3,-0.3 -0.6,-0.59 -1.19,-2.38 -3.27,-3.87 -5.65,-5.05 -1.48,-0.89 -3.27,-1.19 -5.35,-0.89 0,3.57 -0.3,7.43 0.6,11 1.78,-1.48 2.37,-1.48 4.46,0 0.59,0.59 1.48,1.48 2.38,2.08 2.38,1.19 4.75,2.68 7.13,3.87 2.38,1.48 3.86,0.3 3.86,-2.38 0,-5.05 0,-10.11 0,-15.16 0,-0.3 0,-0.59 0,-0.89 -1.19,0 -2.38,0 -3.56,0l0 0zm-42.5 12.48l0 0c0,0 0,0 0,0 0.89,-3.57 0.59,-7.13 0.59,-10.7 0,0 -0.59,-0.59 -0.89,-0.59 -1.78,0 -3.57,0.3 -5.05,1.19 -2.38,1.48 -4.16,3.27 -5.65,5.65 -0.59,0.89 -1.19,1.19 -2.08,0.89 -0.89,-0.3 -1.48,-0.89 -1.48,-2.08 0,-1.78 0,-3.86 0,-5.94 0,-0.3 0,-0.59 0,-0.89 -1.19,0 -2.08,0 -3.27,0 0,0 0,0.3 0,0.3 0,5.65 0,11.29 0,16.64 0,1.49 0.89,2.08 2.38,2.08 0.59,0 1.19,-0.3 1.78,-0.59 3.27,-1.79 6.54,-3.57 9.51,-5.94 1.49,-1.48 2.68,-1.48 4.16,0l0 0zm1.48 44.57l0 0c0,-2.08 0,-4.16 0,-6.54 0,-1.78 0.3,-3.87 0.59,-5.94 0,-1.48 0.89,-2.97 0.89,-4.76 0.59,-3.86 -0.59,-7.43 -1.19,-11.29 0,-1.78 -1.78,-2.67 -3.27,-2.67 -1.49,0.3 -2.97,1.19 -2.97,2.97 -0.3,1.78 -0.59,3.27 -0.89,5.05 -0.3,3.27 -0.59,6.24 0.3,9.21 0.59,1.19 0.89,2.37 0.89,3.56 0,2.97 0,6.24 0,9.21 0,0.59 0,0.89 0,1.19 2.08,0 3.86,0 5.65,0zm21.7 -28.82l0 0c0,0 0,0 -0.3,0 -0.3,0.59 -0.89,1.19 -1.19,1.78 -0.89,1.78 -2.38,2.37 -4.46,2.37 -2.08,0 -4.16,0 -6.24,0 -2.08,0 -3.57,-0.59 -4.46,-2.67 -0.3,-0.59 -0.89,-1.19 -1.48,-1.48 0,0 0,0 -0.3,0 0.3,0.89 0.3,2.08 0.59,2.97 0,2.67 0.59,5.35 0.59,8.02 0,2.38 -0.3,2.38 2.38,2.97 0,0 0,0 0.3,0 3.27,0 6.83,0 10.11,0 1.19,0 2.37,-0.59 3.86,-0.59 -0.89,-4.76 0.3,-8.92 0.59,-13.37l0 0zm36.85 -33.29l0 0c0,-3.86 0,-8.02 0,-11.89 0,-1.19 0,-1.19 -1.48,-1.19 -0.89,0 -1.78,0 -2.67,0 -0.89,0 -1.19,0.3 -1.19,0.89 0,2.38 0,4.76 0,6.84 0,5.65 0,11.59 0,17.23 0,0.89 0.3,1.19 1.19,1.19 0.89,0 1.78,0 2.67,0 1.19,0 1.48,0 1.48,-1.19 0,-4.16 0,-8.02 0,-11.89l0 0zm-62.7 73.7l0 0c1.19,0 2.38,0 3.57,0 1.19,0 2.08,-1.19 1.78,-2.38 -0.3,-1.78 -0.59,-3.56 -0.89,-5.35 0,-0.59 -0.3,-0.89 -0.89,-0.89 -1.48,0 -3.27,0 -4.75,0 -0.6,0 -0.89,0.3 -1.19,0.59 -0.89,1.49 -2.08,3.27 -2.97,5.05 -0.89,1.49 0,2.97 1.78,2.97 1.19,0 2.38,0 3.56,0zm29.13 -8.62l0 0c-0.3,2.38 -0.89,4.46 -1.19,6.54 0,1.19 0.89,2.08 2.08,2.08 2.38,0 4.76,0 6.83,0 1.78,0 2.68,-1.48 1.78,-2.97 -0.89,-1.78 -1.78,-3.56 -2.97,-5.05 0,-0.3 -0.3,-0.59 -0.6,-0.59 -2.08,0 -3.86,0 -5.94,0zm-17.53 -54.09l0 0c0,2.97 0.59,5.35 2.67,7.43 1.48,1.49 3.27,1.49 4.75,0.3 2.38,-2.08 2.97,-4.76 2.97,-7.73 -3.56,1.78 -6.83,1.78 -10.4,0zm-20.51 -2.38l0 0c0,0 0,0.3 0.3,0.3 0,-0.3 0.3,-0.59 0.59,-0.89 2.08,-2.08 4.46,-3.86 7.73,-4.16 1.78,-0.3 3.57,-0.3 5.35,-0.3 0.59,0 0.89,0 1.48,0 -0.3,-0.89 -0.3,-1.48 -0.3,-2.08 0,0 -0.3,0 -0.3,0 -3.86,0 -7.72,0 -11.59,0 0,0 -0.6,0.3 -0.6,0.59 -0.3,0.89 -1.19,1.78 -2.08,2.38 -0.3,0.3 -0.59,0.59 -0.59,0.89 0,1.19 0,2.08 0,3.27zm51.41 0l0 0c0,-0.89 0,-2.08 0,-2.97 0,-0.59 -0.3,-0.89 -0.59,-1.19 -0.89,-0.6 -1.49,-1.49 -2.08,-2.38 -0.3,-0.59 -0.59,-0.59 -1.19,-0.59 -3.27,0 -6.24,0 -9.51,0 -0.59,0 -1.19,0 -1.78,0 0,0.59 -0.3,1.19 -0.3,2.08 5.94,-0.59 11.3,0.59 15.46,5.05l0 0zm-55.28 -11.29l0 0c-0.89,0 -1.78,0 -2.67,0.3 -0.3,0 -0.89,0.3 -0.89,0.3 -0.3,1.19 -0.3,2.38 0,3.27 0,0.59 0.89,0.89 1.19,0.89 1.48,0 3.27,0 4.76,0 0.89,0 1.48,-0.59 1.48,-1.49 0,-0.59 0,-1.48 0,-2.08 0,-0.59 -0.3,-1.19 -1.19,-1.19 -0.89,0 -1.78,0 -2.67,0zm59.14 0l0 0c0,0 0,0 0,0 -0.59,0 -0.89,0 -1.19,0 -2.97,0 -2.97,0 -2.67,3.27 0,0.89 0.59,1.49 1.48,1.49 0.89,0 2.08,0 2.97,0 3.27,0.3 3.27,-0.89 3.27,-3.27 0,0 0,-0.3 0,-0.3 0,-0.59 -0.59,-1.19 -1.19,-1.19 -0.89,0 -1.78,0 -2.67,0l0 0z"/>
  </g>
  <rect class="fil0" width="140" height="140"/>
 </g>
</svg>
