<?xml version="1.0" encoding="UTF-8"?>
<!DOCTYPE svg PUBLIC "-//W3C//DTD SVG 1.1//EN" "http://www.w3.org/Graphics/SVG/1.1/DTD/svg11.dtd">
<!-- Creator: CorelDRAW -->
<svg xmlns="http://www.w3.org/2000/svg" xml:space="preserve" width="0.14in" height="0.14in" version="1.1" style="shape-rendering:geometricPrecision; text-rendering:geometricPrecision; image-rendering:optimizeQuality; fill-rule:evenodd; clip-rule:evenodd"
viewBox="0 0 140 140"
 xmlns:xlink="http://www.w3.org/1999/xlink"
 xmlns:xodm="http://www.corel.com/coreldraw/odm/2003">
 <defs>
  <style type="text/css">
   <![CDATA[
    .str0 {stroke:#1C2335;stroke-width:3.29;stroke-miterlimit:2.61313}
    .fil0 {fill:none}
    .fil1 {fill:#1C2335;fill-rule:nonzero}
   ]]>
  </style>
 </defs>
 <g id="Layer_x0020_1">
  <metadata id="CorelCorpID_0Corel-Layer"/>
  <rect class="fil0" width="140" height="140"/>
  <g>
   <path class="fil0 str0" d="M135.1 89.31c10.67,-35.95 -9.84,-73.75 -45.79,-84.41 -35.95,-10.67 -73.75,9.84 -84.41,45.79 -10.67,35.95 9.84,73.75 45.79,84.41 35.95,10.67 73.75,-9.84 84.41,-45.79z"/>
  </g>
  <path class="fil1" d="M82.42 112.48l2.66 0c0,-1.48 0,-2.96 0,-4.44 -0.3,0 -0.3,0 -0.3,0 -0.89,1.48 -1.48,2.96 -2.37,4.44zm-24.55 0c-0.89,-1.78 -1.78,-2.96 -2.66,-4.44l0 4.44 2.66 0zm31.65 -30.47c0,0 0,0 0,0 -0.89,1.48 -1.78,3.26 -2.66,4.73 -0.89,1.48 -0.59,2.07 0.59,2.96 0.59,-2.37 1.48,-5.03 2.07,-7.69l0 0zm-39.04 0c0,0 0,0 0,0 0.59,2.66 1.48,5.33 2.37,7.99 0.3,-0.59 0.59,-0.89 0.59,-1.19 0.3,-0.3 0.3,-0.89 0.3,-1.18 -1.19,-1.78 -2.07,-3.85 -3.26,-5.62zm31.94 -0.89c0.89,1.48 1.48,2.96 2.37,4.44 0.89,-1.48 1.78,-2.96 2.37,-4.44l-4.73 0zm-19.82 0c0.89,1.48 1.78,2.96 2.66,4.44 0.89,-1.48 1.48,-2.96 2.37,-4.44l-5.03 0zm-7.39 4.44c0.89,-1.48 1.78,-2.96 2.66,-4.44l-5.03 0c0.89,1.48 1.48,2.96 2.37,4.44zm17.15 -4.44c0.89,1.48 1.78,2.96 2.66,4.44 0.89,-1.48 1.48,-2.96 2.37,-4.44l-5.03 0zm-7.1 26.92c-0.89,1.48 -1.77,2.96 -2.66,4.44l5.03 0c-0.89,-1.48 -1.77,-2.96 -2.37,-4.44zm9.76 0c-0.89,1.48 -1.77,2.96 -2.66,4.44l5.03 0c-0.89,-1.48 -1.48,-2.96 -2.37,-4.44zm9.76 -4.73c0.3,-0.89 0.59,-1.19 0.59,-1.48 0.3,-2.66 0.59,-5.03 1.19,-7.69 0,-0.3 0,-0.59 -0.3,-0.89 -0.3,-0.89 -0.89,-1.78 -1.48,-2.96 -1.18,2.07 -2.37,4.14 -3.25,6.21 -0.3,0 -0.3,0.3 0,0.59 0.89,2.07 2.07,3.85 3.25,6.21l0 0zm-29.58 -13.02c-0.3,0.89 -0.59,1.48 -1.18,2.07 -0.3,0.89 -0.59,1.48 -0.3,2.66 0.3,2.07 0.59,4.14 0.89,6.21 0,0.59 0.3,1.18 0.59,2.07 1.19,-2.37 2.37,-4.14 3.26,-6.21 0.3,0 0.3,-0.59 0,-0.89 -0.89,-1.78 -2.07,-3.84 -3.26,-5.91l0 0zm14.79 -8.58c-1.18,2.07 -2.07,3.85 -3.25,5.92 0,0 -0.3,0.59 0,0.59 0.89,2.07 2.07,4.14 3.25,6.21 1.19,-2.07 2.37,-4.14 3.26,-5.91 0.3,-0.3 0.3,-0.89 0,-0.89 -0.89,-2.07 -2.07,-3.84 -3.26,-5.91l0 -0zm5.03 21.3c1.19,-2.07 2.07,-3.85 3.26,-5.62 0,-0.3 0.3,-0.59 0,-0.89 -0.89,-2.07 -2.07,-3.85 -3.26,-5.92 -1.18,2.07 -2.37,3.85 -3.55,5.92 0,0 0,0.3 0,0.59 1.18,2.07 2.37,3.85 3.55,5.92zm4.74 -8.58c1.18,-2.07 2.37,-4.14 3.55,-5.92 0,-0.3 0,-0.59 0,-0.89 -1.18,-1.78 -2.37,-3.85 -3.55,-5.92 -0.89,2.07 -2.07,3.85 -3.26,5.92 0,0.3 0,0.59 0,0.89 1.19,1.78 2.07,3.85 3.26,5.92zm-9.76 17.45c1.19,-2.07 2.37,-4.14 3.26,-5.91 0.3,-0.3 0.3,-0.59 0,-0.89 -0.89,-2.07 -2.07,-3.84 -3.26,-5.91 -1.18,2.07 -2.07,4.14 -3.25,5.91 0,0.3 0,0.59 0,0.89 1.18,1.78 2.07,3.84 3.25,5.91zm9.76 -12.72c-0.89,2.07 -2.07,3.84 -3.26,5.91 0,0.3 0,0.59 0,0.89 1.19,1.78 2.07,3.84 3.26,5.91 1.18,-2.07 2.37,-4.14 3.55,-5.91 0,-0.3 0,-0.59 0,-0.89 -1.18,-1.78 -2.37,-3.84 -3.55,-5.91zm-19.52 0c-1.18,2.07 -2.37,4.14 -3.25,5.91 -0.3,0.3 -0.3,0.59 -0.3,0.59 1.18,2.07 2.37,4.14 3.55,6.21 1.19,-2.07 2.37,-4.14 3.26,-5.91 0,-0.3 0,-0.59 0,-0.89 -1.19,-1.77 -2.07,-3.84 -3.26,-5.91l0 0zm5.03 -8.87c-1.18,2.07 -2.37,4.14 -3.55,6.21 0,0 0,0.3 0,0.59 1.18,2.07 2.07,3.85 3.55,5.92 1.19,-2.07 2.07,-4.14 3.26,-5.92 0,-0.3 0,-0.59 0,-0.59 -1.19,-2.07 -2.07,-3.85 -3.26,-6.21zm-5.03 4.14c1.19,-2.07 2.37,-4.14 3.26,-5.92 0,-0.3 0.3,-0.59 0,-0.89 -0.89,-2.07 -2.07,-3.85 -3.26,-5.92 -1.18,2.07 -2.37,4.14 -3.55,5.92 0,0.3 0,0.59 0.3,0.59 0.89,2.07 2.07,4.14 3.25,6.21l0 0zm9.76 -15.68l15.68 0c1.78,0 3.26,0 5.03,0 1.78,0 3.55,0 5.33,0 1.48,0 2.37,-1.19 2.07,-2.66 -0.3,-1.19 -1.19,-1.78 -2.37,-1.78 -6.51,0 -13.02,0 -19.52,0 -0.59,0 -1.18,0.3 -1.78,0.3 -2.07,0 -3.84,0.59 -5.91,0.3 -3.85,-0.59 -7.99,-0.59 -11.83,-0.59 -2.37,0 -4.73,0 -6.8,0 -2.07,0 -3.85,0 -5.92,0 -1.18,0.3 -2.07,0.89 -2.07,2.07 0,1.18 0.89,2.07 1.78,2.37 0.59,0 0.89,0 1.19,0 2.66,0 5.32,0 7.98,0l17.15 0 0 0zm15.97 -13.31c8.58,-8.87 7.69,-23.07 0,-30.76 -9.17,7.39 -10.06,22.48 0,30.76zm-31.94 0c10.65,-8.58 8.87,-24.26 0,-30.76 -7.99,8.58 -7.99,22.48 0,30.76zm30.17 1.78c-5.03,-4.73 -7.69,-10.35 -7.69,-17.15 0,-7.1 2.66,-12.72 7.69,-17.45 -3.85,-2.96 -7.99,-4.73 -13.02,-5.03l0 44.96c5.03,-0.3 9.17,-2.07 13.02,-5.32zm-15.38 5.32l0 -44.96c-5.03,0.3 -9.17,2.07 -13.02,5.03 5.03,4.73 7.99,10.35 7.99,17.45 0,6.8 -2.96,12.43 -7.99,17.16 3.85,3.25 7.99,5.03 13.02,5.32zm-17.45 21.89l-1.48 0c-6.8,0 -13.9,0 -20.7,0 -2.66,0 -3.55,-0.89 -3.55,-3.85 0,-11.54 0,-22.78 0,-34.01 0,-3.26 0,-6.51 0,-9.76 0,-1.18 0,-2.07 0.89,-2.66 0.59,-0.3 1.48,-0.59 2.37,-0.59 5.62,0 11.24,0 16.86,0 0.3,0 0.89,-0.3 0.89,-0.3 0.59,-1.48 0.89,-2.66 1.18,-4.14l-1.18 0c-6.8,0 -13.61,0 -20.41,0 -4.14,0 -6.21,2.37 -6.21,6.51 0,15.38 0,31.06 0,46.73 0,4.14 2.07,6.21 6.21,6.21 7.98,0 16.27,0 24.55,0l1.19 0c-0.3,-1.48 -0.59,-2.96 -0.59,-4.14l-0 0zm36.68 4.14c0.59,0 0.59,0 0.89,0 8.57,0 16.86,0 25.44,0 3.55,0 5.62,-2.37 5.62,-5.92 0,-15.97 0,-31.65 0,-47.62 0,-3.55 -2.07,-5.92 -5.91,-5.92 -6.8,0 -13.9,0 -21,0 -0.3,0 -0.59,0 -0.89,0 0.3,1.19 0.89,2.37 1.19,3.55 0,0.59 0.59,0.89 1.18,0.89 5.62,0 10.94,0 16.56,0 2.37,0 3.55,0.89 3.55,3.25 0,14.79 0,29.28 0,44.07 0,2.37 -1.19,3.55 -3.55,3.55 -3.25,0 -6.8,0 -10.35,0 -3.55,0 -7.39,0 -10.94,0 -0.3,0 -0.89,0.3 -1.18,0.3 -0.3,1.19 -0.3,2.37 -0.59,3.85zm-42 -52.65c-0.3,0 -0.3,0 -0.59,0 -5.62,0 -10.94,0 -16.56,0 -0.89,0 -0.89,0.59 -0.89,1.18 0,14.5 0,28.99 0,43.48 0,1.19 0.3,1.19 1.19,1.19 6.8,0 13.6,0 20.41,0l1.19 0c-0.89,-3.55 -2.07,-6.8 -3.26,-10.35 0,0 -0.59,-0.3 -0.89,-0.3 -0.89,0 -1.78,0 -2.66,0 -2.07,0 -3.85,-1.48 -4.14,-3.25 -0.59,-2.07 0,-4.14 1.78,-5.03 0.89,-0.59 1.78,-0.89 2.96,-0.89 4.14,0 8.28,0 12.43,0 0.3,0 0.59,0 1.18,0 -9.46,-6.21 -13.31,-14.79 -12.13,-26.03l0 0zm43.19 45.85l1.18 0c6.8,0 13.61,0 20.41,0 1.19,0 1.48,-0.3 1.48,-1.19 0,-14.49 0,-28.98 0,-43.48 0,-0.89 -0.3,-1.18 -1.48,-1.18 -5.03,0 -10.35,0 -15.68,0l-0.89 0c1.18,11.24 -2.96,19.81 -12.43,26.03 0.89,0 1.48,0 2.07,0 3.85,0 7.99,0 11.83,0 2.96,0 4.73,2.07 4.73,4.73 0,2.37 -2.07,4.44 -4.73,4.44 -0.89,0 -1.78,0 -2.66,0 0,0 -0.59,0.3 -0.59,0.59 -1.18,3.26 -2.07,6.51 -3.25,10.06zm-1.48 9.17c-0.3,2.96 -0.3,5.91 -0.3,8.57 0,1.19 0,2.37 0.3,3.85 0,1.18 -0.59,1.48 -1.48,1.48 -10.94,0 -21.59,0 -32.24,0 -1.19,0 -1.78,-0.3 -1.48,-1.77 0.3,-3.85 0.3,-7.99 -0.3,-12.13l-1.19 0c-8.28,0 -16.56,0 -24.84,0 -5.33,0 -8.58,-3.25 -8.58,-8.58 0,-15.67 0,-31.35 0,-47.03 0,-5.32 3.25,-8.58 8.28,-8.58 7.4,0 15.09,0 22.48,0 0.59,0 1.19,-0.3 1.48,-0.89 4.44,-6.51 10.65,-10.35 18.34,-10.65 9.17,-0.59 16.56,2.96 21.89,10.65 0.59,0.59 0.89,0.89 1.78,0.89 7.39,0 14.79,0 22.19,0 5.03,0 8.28,3.85 8.28,8.58 0,15.68 0,31.35 0,47.03 0,5.33 -3.25,8.58 -8.28,8.58 -8.28,0 -16.57,0 -24.85,0l-1.48 0 0 0z"/>
 </g>
</svg>
