<?xml version="1.0" encoding="UTF-8"?>
<!DOCTYPE svg PUBLIC "-//W3C//DTD SVG 1.1//EN" "http://www.w3.org/Graphics/SVG/1.1/DTD/svg11.dtd">
<!-- Creator: CorelDRAW -->
<svg xmlns="http://www.w3.org/2000/svg" xml:space="preserve" width="0.14in" height="0.14in" version="1.1" style="shape-rendering:geometricPrecision; text-rendering:geometricPrecision; image-rendering:optimizeQuality; fill-rule:evenodd; clip-rule:evenodd"
viewBox="0 0 140 140"
 xmlns:xlink="http://www.w3.org/1999/xlink"
 xmlns:xodm="http://www.corel.com/coreldraw/odm/2003">
 <defs>
  <style type="text/css">
   <![CDATA[
    .str0 {stroke:#1C2335;stroke-width:3.41;stroke-miterlimit:2.61313}
    .fil0 {fill:none}
    .fil1 {fill:#1C2335;fill-rule:nonzero}
   ]]>
  </style>
 </defs>
 <g id="Layer_x0020_1">
  <metadata id="CorelCorpID_0Corel-Layer"/>
  <rect class="fil0" width="140" height="140"/>
  <g id="_1782893243824">
   <g>
    <path class="fil0 str0" d="M135.07 89.74c10.54,-35.53 -9.72,-72.88 -45.25,-83.42 -35.53,-10.54 -72.88,9.72 -83.42,45.25 -10.54,35.53 9.72,72.88 45.25,83.42 35.53,10.54 72.88,-9.72 83.42,-45.25z"/>
   </g>
   <g id="_2170088822448">
    <g>
     <path class="fil1" d="M29.2 68.1c0.5,-0.75 1.25,-0.75 2,-0.5 6.99,1.5 13.24,4 19.24,7.74 0,0.25 0.25,0.25 0.5,0.5 -0.25,-1.25 -0.5,-2.5 -0.5,-3.5 -1,-5.25 -2,-10.74 -3.75,-15.99 -1,-3.25 -2.5,-6.25 -4.75,-8.74 -0.5,-0.75 -0.5,-1.25 0,-1.75 0.5,-0.75 1.25,-0.75 1.75,0 3.24,2.25 5.74,4.74 8.24,7.74 4,4.5 7.5,9.74 10.24,14.99 0.25,0.25 0.25,0.5 0.75,1 0,-0.75 0,-1.25 0.25,-1.75 1,-9.49 3.25,-18.49 6,-27.48 0.5,-2 1,-3.75 1.5,-5.5 0.25,-0.75 0.75,-1.25 1.25,-1.25 1,0 1.25,0.5 1.5,1.25 2.5,9.5 4.74,18.74 6.5,28.23 0.25,1 0.25,2 0.5,3.25 0.25,-0.5 0.5,-0.75 0.75,-1 4.25,-7.49 9.5,-13.99 16.24,-19.49 0.25,0 0.5,-0.25 0.75,-0.25 0.5,-0.5 1,-0.25 1.5,0.25 0.25,0.5 0.5,1 0,1.5 -3.5,3.75 -5,8.5 -6.24,13.49 -1,4.75 -1.75,9.5 -2.75,14.24 0,0.25 0,0.25 0,0.5 0.25,0 0.5,-0.25 0.75,-0.25 6,-4 12.24,-6.25 19.24,-8 0.75,0 1.25,0.25 1.5,1 0.25,0.75 0,1.25 -1,1.5 -2.5,1.25 -4.75,3.25 -6.5,5.5 -3.5,4 -6.5,8.25 -8.75,12.99 -2.5,5 -5.24,9.25 -9.24,12.99 -3.5,3.25 -7.5,5.5 -12.24,6 -4,0.75 -8,0 -11.74,-1.25 -5.74,-1.75 -9.49,-5.74 -12.74,-10.49 -1.75,-2.5 -3.25,-5.25 -4.75,-8 -3,-5.25 -6,-10.49 -10.49,-14.74 -1.25,-1.25 -2.75,-2.25 -4.5,-3 -0.5,-0.25 -0.75,-0.5 -1,-0.75 0,-0.25 0,-0.5 0,-1l0 0zm41.72 21.74l0 0c1.75,-6.5 4.25,-12.99 7.24,-19.24 0.25,-0.25 0.25,-0.75 0.25,-1 -0.25,-1 -0.25,-1.75 -0.5,-2.75 -1,-7.25 -2.75,-14.24 -4.5,-21.49 -0.5,-1.75 -1,-3.75 -1.5,-5.75 0,0.5 -0.25,0.5 -0.25,0.75 -2.75,9.99 -5.25,19.99 -6.5,30.23 -0.25,2 -0.25,4.24 1,6.24 0.25,0.5 0.5,1 0.75,1.5 1.25,4 2.75,7.74 4,11.49l0 0zm-22.24 -36.23l0 0c0,0 0,0 -0.25,0 0.25,0.25 0.25,0.5 0.25,0.5 2.5,7 3.5,14.49 4.75,21.74 0.25,1.25 0.25,2.25 1.5,3.25 5.24,4.75 8.99,10.5 10.74,17.49 0.5,2 0.75,4 1.25,6 0.25,-0.25 0.75,-0.75 0.75,-1.25 0.5,-1.25 1,-2.5 1,-4 0.25,-3 0,-5.75 -1,-8.74 -3.25,-11 -8.24,-21.49 -15.24,-30.48 -1.25,-1.75 -2.5,-3 -3.75,-4.5zm44.22 0l0 0c-0.5,0.5 -0.75,0.75 -1.25,1.25 -0.75,1 -1.75,2 -2.5,3.25 -6.5,8 -10.74,16.99 -14.24,26.74 -1.25,4 -2.5,8.24 -2.25,12.49 0.25,1.25 0.75,2.75 1,4 0.25,0.5 0.5,1 1,1.25 0.5,-2.25 0.75,-4.75 1.5,-6.74 1.75,-7 5.5,-12.49 10.99,-17.24 0.5,-0.5 0.75,-1 0.75,-1.5 0,-0.5 0,-0.75 0.25,-1.25 0.75,-4.5 1.5,-9.24 2.5,-13.74 0.5,-3 1.5,-5.74 2.25,-8.49l-0 0zm-15.74 49.97l0 0c0.25,0 0.5,0 0.75,0 2.5,-0.5 4.5,-1.75 6.5,-3.5 4,-3.5 6.74,-8 9.24,-12.74 2.25,-4.75 5.25,-9.25 8.74,-13.49 0.5,-0.5 1.25,-1.25 1.75,-2 -7.25,2.25 -15.24,7 -20.49,13.99 -3.75,5.25 -6,11.24 -6.5,17.74l0 0zm-39.73 -31.48l0 0c0,0 0.25,0.25 0.25,0.25 4.24,4.5 7.24,9.49 10.24,14.74 1.25,2.75 2.75,5.25 4.5,7.74 2.5,3.75 5.74,6.75 9.99,8.25 0.5,0.25 1.25,0.5 1.75,0.5 -0.5,-7.75 -3.25,-14.24 -8.25,-19.99 -5,-5.75 -11.49,-9.24 -18.49,-11.49l0 -0zm33.48 28.98l0 0c-0.25,0 -0.25,0 -0.25,0 0,0.5 -0.25,0.75 -0.25,1.25 0,0 0.5,0 1,0.25 -0.25,-0.75 -0.5,-1 -0.5,-1.5l0 0z"/>
     <path id="_1" class="fil1" d="M31.45 67.35l-0.25 0.25 0 0 0 0 0 0 -0.25 0 0 0 0 0 -0.25 0 0 0 0 0 0 0 -0.25 0 0 0 0 0 0 0 -0.25 0 0 0 0 0 0 0 -0.25 0.25 0 0 0 0 0 0 0 0 -0.25 0 0 0 0 0 0 0.25 0 0 -0.25 0 0 0 0 0 0 0.25 0 0 -0.5 -0.25 0.25 0 0 -0.25 0 0 0 0 0.25 0 0 0 0 -0.25 0 0 0.25 0 0 0 0 0 0 -0.25 0.25 0 0 0 0 0 0 0 0.25 0 0 0 0 0 0.25 0 0 0 0 0 0.25 0 0 0 0 0 0.25 0 0 0 0 0 0.25 0 0 0 0 0 0.25 0 0 0 0 0zm18.99 7.99l-0.25 0.25 0 0 -0.5 -0.25 -0.5 -0.5 -0.5 -0.25 -0.75 -0.5 -0.5 -0.25 -0.5 -0.25 -0.5 -0.25 -0.75 -0.5 -0.5 -0.25 -0.5 -0.25 -0.75 -0.25 -0.5 -0.25 -0.5 -0.25 -0.75 -0.25 -0.5 -0.25 -0.5 -0.25 -0.75 -0.25 -0.5 -0.25 -0.5 -0.25 -0.75 -0.25 -0.5 -0.25 -0.75 -0.25 -0.5 0 -0.75 -0.25 -0.5 -0.25 -0.75 -0.25 -0.5 0 -0.75 -0.25 -0.5 -0.25 -0.75 0 -0.5 -0.25 -0.75 -0.25 0.25 -0.25 0.5 0.25 0.75 0 0.5 0.25 0.75 0.25 0.5 0 0.75 0.25 0.5 0.25 0.75 0 0.5 0.25 0.75 0.25 0.5 0.25 0.75 0.25 0.5 0.25 0.5 0.25 0.75 0 0.5 0.25 0.75 0.25 0.5 0.25 0.5 0.25 0.75 0.5 0.5 0.25 0.5 0.25 0.75 0.25 0.5 0.25 0.5 0.25 0.75 0.5 0.5 0.25 0.5 0.25 0.5 0.5 0.75 0.25 0.5 0.25 0.5 0.5 0 0 0 -0zm0 0l0 0 0 0 0 0zm0.25 0.5l0.25 0 -0.25 0 0 0 0 0 0 0 0 0 0 0 0 0 0 0 0 0 0 0 -0.25 0 0 0 0 0 0 0 0 0 0 0 0 0 0 0 0 0 0 -0.25 0 0 0 0 0 0 0 0 0 0 0 0 -0.25 0 0 0 0 0 0 0 0 0 0 0 0 0 0.25 -0.25 0 0 0 0 0 0 0 0 0 0 0 0 0 0 0 0 0 0 0 0 0 0 0.25 0 0 0 0 0 0 0 0 0 0 0 0 0 0 0 0 0 0 0 0 0 0 0.25 0 0 0 0 0 0 0.25 0 0 0 0 0 0 0 0 0 0 0 -0.25 0.25zm0.25 0l0.25 0.25 -0.5 -0.25 0.25 0 0 0zm-0.75 -3.5l0.25 0 0 0 0 0 0 0.25 0 0 0.25 0.25 0 0 0 0 0 0.25 0 0 0 0.25 0 0 0 0 0 0.25 0 0 0 0.25 0 0 0 0.25 0 0 0 0 0.25 0.25 0 0 0 0.25 0 0 0 0.25 0 0 0 0 0 0.25 0 0 0 0.25 0 0 0 0.25 0 0 0 0.25 -0.25 0 0 -0.25 0 0 0 -0.25 0 0 0 -0.25 0 0 -0.25 0 0 -0.25 0 0 0 -0.25 0 0 0 -0.25 0 0 0 0 0 -0.25 0 0 0 -0.25 0 0 0 0 0 -0.25 0 0 -0.25 -0.25 0 0 0 -0.25 0 0 0 0 0 -0.25 0 0 0 -0.25 0 0 0 0 0 -0.25 0 0zm-3.5 -15.99l0.25 0 0 0 0.25 0.5 0 0.5 0.25 0.5 0 0.5 0.25 0.5 0 0.5 0.25 0.5 0 0.5 0.25 0.5 0 0.5 0.25 0.5 0 0.5 0.25 0.5 0 0.5 0.25 0.5 0 0.5 0.25 0.5 0 0.5 0 0.5 0.25 0.5 0 0.5 0.25 0.5 0 0.5 0 0.5 0.25 0.5 0 0.5 0 0.5 0.25 0.5 0 0.5 0.25 0.5 0 0.5 0 0.5 -0.25 0 -0.25 -0.5 0 -0.5 0 -0.5 -0.25 -0.5 0 -0.5 0 -0.5 -0.25 -0.5 0 -0.5 -0.25 -0.5 0 -0.5 0 -0.5 -0.25 -0.5 0 -0.5 0 -0.5 -0.25 -0.5 0 -0.5 -0.25 -0.5 0 -0.5 -0.25 -0.5 0 -0.5 -0.25 -0.5 0 -0.5 0 -0.5 -0.25 -0.5 -0.25 -0.5 0 -0.5 -0.25 -0.5 0 -0.5 -0.25 -0.5 0 -0.5 -0.25 -0.5 0 -0.5 0 0zm-4.74 -8.74l0.25 -0.25 0 0 0.25 0.25 0 0.25 0.25 0.25 0.25 0.25 0.25 0.25 0.25 0.25 0 0.25 0.25 0.25 0.25 0.25 0 0.25 0.25 0.25 0.25 0.25 0 0.5 0.25 0.25 0.25 0.25 0 0.25 0.25 0.25 0 0.25 0.25 0.25 0.25 0.25 0 0.5 0.25 0.25 0 0.25 0.25 0.25 0 0.25 0.25 0.25 0 0.5 0 0.25 0.25 0.25 0 0.25 0.25 0.25 0 0.5 -0.25 0 -0.25 -0.25 0 -0.25 -0.25 -0.25 0 -0.5 0 -0.25 -0.25 -0.25 0 -0.25 -0.25 -0.25 0 -0.5 -0.25 -0.25 0 -0.25 -0.25 -0.25 0 -0.25 -0.25 -0.25 0 -0.25 -0.25 -0.25 -0.25 -0.5 0 -0.25 -0.25 -0.25 0 -0.25 -0.25 -0.25 -0.25 -0.25 0 -0.25 -0.25 -0.25 -0.25 -0.25 -0.25 -0.25 0 -0.25 -0.25 -0.25 -0.25 -0.25 -0.25 -0.25 -0.25 -0.25 0 -0.25 0 0 0 0zm-0.25 -2l0.25 0.25 0 0 0 0 0 0 0 0.25 0 0 0 0 0 0 0 0 0 0.25 -0.25 0 0 0 0 0 0 0 0 0 0 0.25 0 0 0 0 0 0 0 0 0 0.25 0 0 0 0 0 0 0.25 0 0 0.25 0 0 0 0 0 0 0 0 0 0 0 0.25 0.25 0 0 0 -0.25 0.25 -0.25 0 0 0 0 -0.25 0 0 0 0 0 0 -0.25 -0.25 0 0 0 0 0 0 0 -0.25 0 0 0 0 0 0 0 -0.25 0 0 0 0 0 -0.25 0 0 0 0 0 0 0 -0.25 0 0 0 0 0 0 0 -0.25 0.25 0 0 0 0 0 0 0 0 -0.25 0 0 0 0zm0 0l0 0 -0.25 0.5 0.25 -0.5zm2.25 0l-0.25 0.25 0 0 0 0 0 0 -0.25 0 0 0 0 -0.25 0 0 -0.25 0 0 0 0 0 0 0 -0.25 0 0 0 0 0 0 0 0 0 -0.25 0 0 0 0 0 0 0 0 0 -0.25 0 0 0 0 0 0 0 0 0 0 0 -0.25 0 0 0 0 0.25 0 0 0 0 -0.25 0 -0.25 -0.25 0.25 0 0 0 0 -0.25 0 0 0.25 0 0 0 0 0 0 0 0 0 0.25 0 0 -0.25 0 0 0.25 0 0 0 0 0 0 0 0.25 0 0 0 0 0 0 0 0.25 0 0 0.25 0 0 0.25 0 0 0 0 0 0 0 0.25 0 0 0 0 0.25 0.25 0 0 0 0 0zm8.24 7.75l-0.25 0.25 0 0 -0.25 -0.25 -0.25 -0.25 -0.25 -0.25 -0.25 -0.25 -0.25 -0.25 -0.25 -0.25 -0.25 -0.25 -0.25 -0.25 -0.25 -0.25 -0.25 -0.25 -0.25 -0.25 -0.25 -0.25 -0.25 -0.25 -0.25 -0.25 -0.25 -0.25 -0.25 -0.25 -0.25 -0.25 -0.25 -0.25 -0.25 -0.25 -0.25 -0.25 -0.25 -0.25 -0.25 -0.25 -0.25 -0.25 -0.25 -0.25 -0.25 -0.25 -0.25 0 -0.25 -0.25 -0.5 -0.25 -0.25 -0.25 -0.25 -0.25 -0.25 -0.25 -0.25 -0.25 0.25 -0.25 0.25 0.25 0.25 0.25 0.25 0.25 0.25 0.25 0.5 0.25 0.25 0 0.25 0.25 0.25 0.25 0.25 0.25 0.25 0.25 0.25 0.25 0.25 0.25 0.25 0.25 0.25 0.25 0.25 0.25 0.25 0.25 0.25 0.25 0.25 0.25 0.25 0.25 0.25 0.25 0.25 0.25 0.25 0.25 0.25 0.25 0.25 0.25 0.25 0.25 0.25 0.25 0.25 0.25 0.25 0.25 0.25 0.25 0.25 0.25 0.25 0.25 0.25 0.25 0 0zm10.24 15.24l-0.5 0 0 0 -0.25 -0.5 -0.25 -0.5 -0.25 -0.5 -0.25 -0.5 -0.25 -0.5 -0.25 -0.5 -0.25 -0.5 -0.25 -0.25 -0.5 -0.5 -0.25 -0.5 -0.25 -0.5 -0.25 -0.5 -0.25 -0.5 -0.5 -0.5 -0.25 -0.5 -0.25 -0.5 -0.25 -0.5 -0.5 -0.5 -0.25 -0.25 -0.25 -0.5 -0.5 -0.5 -0.25 -0.5 -0.25 -0.5 -0.5 -0.5 -0.25 -0.25 -0.25 -0.5 -0.5 -0.5 -0.25 -0.5 -0.5 -0.25 -0.25 -0.5 -0.5 -0.5 -0.25 -0.5 0.25 -0.25 0.25 0.5 0.5 0.5 0.25 0.5 0.5 0.25 0.25 0.5 0.5 0.5 0.25 0.5 0.25 0.5 0.5 0.25 0.25 0.5 0.5 0.5 0.25 0.5 0.25 0.5 0.5 0.5 0.25 0.25 0.25 0.5 0.25 0.5 0.5 0.5 0.25 0.5 0.25 0.5 0.25 0.5 0.25 0.5 0.5 0.5 0.25 0.5 0.25 0.5 0.25 0.5 0.25 0.5 0.25 0.5 0.5 0.5 0.25 0.5 0.25 0.5 0.25 0.5 0 0 0 0zm0.25 1l0.25 0 -0.25 0.25 0 -0.25 0 0 0 0 -0.25 0 0 0 0 0 0 -0.25 0 0 0 0 0 0 0 0 0 0 0 0 0 -0.25 0 0 -0.25 0 0 0 0 0 0 0 0 0 0 0 0 -0.25 0 0 0 0 0 0 0 0 0 0 0 0 0 0 0 0 0 -0.25 -0.25 0 0.5 0 0 0 0 0 0 0 0 0 0 0 0 0 0 0 0 0 0 0.25 0 0 0 0 0.25 0 0 0 0 0 0 0 0 0 0 0.25 0 0 0 0 0 0 0 0 0 0 0 0 0 0.25 0 0 0.25 0 0 0 0 0 0 0 0 0.25 0 0 0 0 -0.25 0 0 0zm0.25 0l0 0.5 -0.25 -0.25 0.25 -0.25 0 0zm0 -1.75l0.25 0 0 0 0 0 0 0 0 0 0 0.25 0 0 0 0 0 0 0 0 0 0.25 0 0 0 0 0 0 0 0.25 0 0 0 0 0 0 0 0 0 0.25 0 0 0 0 0 0 0 0.25 0 0 0 0 0 0 0 0.25 -0.25 0 0 0 0 0 0 0.25 0 0 0 0 -0.25 0 0 0 0 0 0 -0.25 0 0 0 0 0 -0.25 0 0 0 0 0 0 0 -0.25 0 0 0 0 0 0 0 -0.25 0 0 0 0 0 0 0.25 0 0 -0.25 0 0 0 0 0 0 0 -0.25 0 0 0 0 0 0 0 0 0 -0.25 0 0 0 0 0 0 0 0 0 0zm0 0l0 0 0 0 0 0zm6 -27.48l0.25 0 0 0 -0.25 0.75 -0.25 1 -0.25 0.75 -0.25 1 -0.25 0.75 0 0.75 -0.25 1 -0.25 0.75 -0.25 1 -0.25 0.75 -0.25 0.75 -0.25 1 0 0.75 -0.25 1 -0.25 0.75 -0.25 0.75 -0.25 1 0 0.75 -0.25 1 -0.25 0.75 0 1 -0.25 0.75 -0.25 0.75 0 1 -0.25 0.75 -0.25 1 0 0.75 -0.25 1 0 0.75 -0.25 1 0 0.75 -0.25 1 -0.25 0 0 -1 0.25 -0.75 0 -1 0.25 -0.75 0 -1 0.25 -0.75 0.25 -1 0 -0.75 0.25 -1 0 -0.75 0.25 -1 0.25 -0.75 0.25 -1 0 -0.75 0.25 -0.75 0.25 -1 0 -0.75 0.25 -1 0.25 -0.75 0.25 -1 0.25 -0.75 0.25 -0.75 0 -1 0.25 -0.75 0.25 -1 0.25 -0.75 0.25 -0.75 0.25 -1 0.25 -0.75 0.25 -1 0.25 -0.75 0.25 -0.75 0 0zm1.75 -5.5l0.25 0 0 0 0 0.25 0 0 -0.25 0.25 0 0.25 0 0 0 0.25 0 0.25 -0.25 0.25 0 0 0 0.25 0 0.25 -0.25 0 0 0.25 0 0.25 0 0 0 0.25 -0.25 0.25 0 0 0 0.25 0 0.25 0 0 -0.25 0.25 0 0.25 0 0.25 0 0 -0.25 0.25 0 0.25 0 0 0 0.25 0 0.25 -0.25 0 0 0.25 -0.25 0 0 -0.25 0 -0.25 0 0 0.25 -0.25 0 -0.25 0 -0.25 0 0 0 -0.25 0.25 -0.25 0 0 0 -0.25 0 -0.25 0.25 0 0 -0.25 0 -0.25 0 0 0 -0.25 0.25 -0.25 0 0 0 -0.25 0 -0.25 0 -0.25 0.25 0 0 -0.25 0 -0.25 0 0 0.25 -0.25 0 -0.25 0 0 0 -0.25 0 -0.25 0.25 0 0 0zm1.25 -1.25l0 0.25 0 0 0 0 0 0 0 0 0 0 -0.25 0 0 0 0 0 0 0 0 0 -0.25 0 0 0.25 0 0 0 0 0 0 0 0 0 0 -0.25 0 0 0 0 0 0 0.25 0 0 0 0 0 0 0 0 0 0.25 -0.25 0 0 0 0 0 0 0 0 0.25 0 0 0 0 -0.25 0 0 -0.25 0 0 0 0 0 0 0 -0.25 0 0 0 0 0 0 0.25 -0.25 0 0 0 0 0 0 0 0 0 -0.25 0 0 0.25 0 0 0 0 0 0 0 0 -0.25 0.25 0 0 0 0 0 0 0 0.25 0 0 0 0 0 0 0 0.25 0 0 0 0 0 0 0 0 0zm1.5 1.25l-0.25 0 0 0 0 0 0 0 0 0 0 -0.25 0 0 -0.25 0 0 0 0 0 0 -0.25 0 0 0 0 0 0 0 0 0 0 0 -0.25 -0.25 0 0 0 0 0 0 0 0 0 0 0 0 0 -0.25 -0.25 0 0 0 0 0 0 0 0 -0.25 0 0 0 0 0 0 0 -0.25 0 0 -0.25 0.25 0 0 0 0 0 0.25 0 0 0 0 0 0.25 0 0 0 0 0 0 0 0 0 0.25 0.25 0 0 0 0 0 0 0 0 0.25 0 0 0.25 0 0 0 0 0 0 0 0.25 0 0 0.25 0 0 0 0 0 0 0.25 0 0 0 0 0 0.25 0 0 0 0 0 0zm6.74 28.24l-0.5 0 0 0 0 -0.75 -0.25 -1 -0.25 -0.75 0 -1 -0.25 -0.75 -0.25 -1 0 -1 -0.25 -0.75 -0.25 -1 -0.25 -0.75 -0.25 -1 0 -0.75 -0.25 -1 -0.25 -0.75 -0.25 -1 -0.25 -0.75 0 -1 -0.25 -0.75 -0.25 -1 -0.25 -1 -0.25 -0.75 -0.25 -1 -0.25 -0.75 -0.25 -1 0 -0.75 -0.25 -1 -0.25 -0.75 -0.25 -1 -0.25 -0.75 -0.25 -1 -0.25 -0.75 -0.25 -1 0.25 0 0.25 1 0.25 0.75 0.25 1 0.25 0.75 0.25 1 0.25 0.75 0.25 1 0.25 0.75 0.25 1 0.25 0.75 0.25 1 0 0.75 0.25 1 0.25 0.75 0.25 1 0.25 0.75 0.25 1 0.25 0.75 0 1 0.25 0.75 0.25 1 0.25 0.75 0 1 0.25 1 0.25 0.75 0.25 1 0 0.75 0.25 1 0.25 0.75 0 1 0.25 0.75 0.25 1 0 0 0 0zm0.25 3.25l0.25 0 -0.5 0 0 0 0 -0.25 0 0 0 -0.25 0 0 0 0 0 -0.25 0 0 0 -0.25 0 0 0 -0.25 0 0 0 0 0 -0.25 -0.25 0 0 -0.25 0 0 0 0 0 -0.25 0 0 0 -0.25 0 0 0 0 0 -0.25 0 0 0 0 0 -0.25 0 0 0 -0.25 -0.25 0 0 0 0 -0.25 0.5 0 0 0 0 0.25 0 0 0 0.25 0 0 0 0 0 0.25 0 0 0 0 0 0.25 0.25 0 0 0.25 0 0 0 0 0 0.25 0 0 0 0.25 0 0 0 0 0 0.25 0 0 0 0.25 0 0 0 0 0 0.25 0 0 0.25 0.25 0 0 0 0.25 0 0 0 0.25 0 0 -0.25 0zm0.25 0l-0.25 0.5 -0.25 -0.5 0.5 0 0 0zm0.25 -1l0.25 0 0 0 0 0.25 0 0 0 0 0 0 0 0 0 0 0 0 0 0 0 0 0 0 0 0.25 0 0 -0.25 0 0 0 0 0 0 0 0 0 0 0 0 0.25 0 0 0 0 0 0 0 0 0 0 0 0 -0.25 0.25 0 0 0 0 0 0 0 0 0 0 0 0 -0.25 0 0 0 0 -0.25 0 0 0 0 0 0 0 0 0 0 0 -0.25 0 0 0.25 0 0 0 0 0 0 0 0 0 0 0 0 -0.25 0 0 0 0 0 0 0 0 0 0 0 0 0 0 0.25 -0.25 0 0 0 0 0 0 0 0 0 0 0 0 0 0 0 0 0 0zm16.49 -19.49l0.25 0.25 0 0 -0.75 0.5 -0.5 0.5 -0.75 0.5 -0.5 0.5 -0.75 0.5 -0.5 0.5 -0.5 0.75 -0.75 0.5 -0.5 0.5 -0.5 0.5 -0.5 0.75 -0.5 0.5 -0.5 0.5 -0.75 0.75 -0.5 0.5 -0.5 0.75 -0.5 0.5 -0.5 0.75 -0.5 0.5 -0.5 0.75 -0.25 0.5 -0.5 0.75 -0.5 0.5 -0.5 0.75 -0.5 0.5 -0.5 0.75 -0.25 0.75 -0.5 0.5 -0.5 0.75 -0.25 0.75 -0.5 0.75 -0.5 0.5 -0.25 0 0.5 -0.75 0.25 -0.75 0.5 -0.75 0.5 -0.5 0.5 -0.75 0.25 -0.75 0.5 -0.5 0.5 -0.75 0.5 -0.75 0.5 -0.5 0.25 -0.75 0.5 -0.5 0.5 -0.75 0.5 -0.5 0.5 -0.75 0.5 -0.5 0.5 -0.75 0.5 -0.5 0.5 -0.75 0.75 -0.5 0.5 -0.5 0.5 -0.75 0.5 -0.5 0.5 -0.5 0.75 -0.5 0.5 -0.75 0.5 -0.5 0.75 -0.5 0.5 -0.5 0.75 -0.5 0.5 -0.5 0.75 -0.5 0 0zm0.5 -0.5l0.25 0.25 0 0 0 0 0 0 0 0 0 0 0 0.25 0 0 -0.25 0 0 0 0 0 0 0 0 0 0 0 0 0 0 0 0 0 0 0 0 0 0 0 0 0 0 0 0 0 -0.25 0 0 0 0 0.25 0 0 0 0 0 0 0 0 0 0 0 0 0 0 0 0 -0.25 -0.25 0 0 0 0 0 0 0 0 0 0 0 -0.25 0 0 0 0 0 0 0.25 0 0 0 0 0 0 0 0 0 0 0 0 0 0 0 0 0 0 0 0 0 0 0 0 0 0.25 0 0 -0.25 0 0 0 0 0 0 0 0 0 0 0 0 0 0 0 0 0 0zm1.75 0.25l-0.25 0.25 0 0 0 0 0 0 0 0 0 0 0 0 -0.25 -0.25 0 0 0 0 0 0 0 0 0 0 -0.25 0 0 0 0 0 0 0 0 0 0 0 -0.25 0 0 0 0 0 0 0 0 0 0 0 -0.25 0 0 0 0 0 0 0 0 0 0 0 -0.25 0 0 0 0 0 -0.25 -0.25 0.25 0 0 0 0 0 0 0 0 0 0.25 -0.25 0 0 0 0 0 0 0.25 0 0 0 0 0 0 0 0.25 0 0 0 0 0 0 0 0.25 0 0 0 0 0.25 0 0 0 0 0.25 0 0 0 0 0 0 0 0 0 0.25 0.25 0 0 0 0 0 0 0 0 0 0zm0.25 1.75l-0.5 -0.25 0 0 0.25 0 0 0 0 0 0 0 0 0 0 -0.25 0 0 0 0 0 0 0 0 0 0 0 0 0 -0.25 0 0 0 0 0 0 0 0 0 0 0 -0.25 0 0 0 0 0 0 0 0 0 0 0 -0.25 0 0 0 0 0 0 0 0 0 0 -0.25 -0.25 0 0 0.25 -0.25 0.25 0 0 0.25 0 0 0 0 0 0 0 0 0 0.25 0 0 0.25 0 0 0 0 0.25 0 0 0 0 0 0 0 0.25 0 0 0 0 0 0 0 0.25 0 0 0 0 0 0 0 0 0 0.25 0 0 -0.25 0 0 0 0 0.25 0 0 0 0 0 0 0 0 0 0 0 0zm0 0l0 0 0 0 0 0zm-6.25 13.5l-0.25 0 0 0 0 -0.5 0.25 -0.5 0 -0.5 0 -0.5 0.25 -0.25 0 -0.5 0.25 -0.5 0 -0.5 0.25 -0.5 0.25 -0.25 0 -0.5 0.25 -0.5 0 -0.5 0.25 -0.5 0.25 -0.25 0 -0.5 0.25 -0.5 0.25 -0.25 0.25 -0.5 0 -0.5 0.25 -0.25 0.25 -0.5 0.25 -0.5 0.25 -0.25 0.25 -0.5 0.25 -0.5 0.25 -0.25 0.25 -0.5 0.5 -0.25 0.25 -0.5 0.25 -0.25 0.25 -0.5 0.5 0.25 -0.5 0.5 -0.25 0.25 -0.25 0.5 -0.25 0.25 -0.25 0.5 -0.5 0.25 -0.25 0.5 -0.25 0.25 -0.25 0.5 0 0.5 -0.25 0.25 -0.25 0.5 -0.25 0.5 -0.25 0.25 -0.25 0.5 0 0.5 -0.25 0.25 -0.25 0.5 0 0.5 -0.25 0.25 0 0.5 -0.25 0.5 -0.25 0.5 0 0.5 -0.25 0.25 0 0.5 -0.25 0.5 0 0.5 -0.25 0.5 0 0.25 0 0.5 -0.25 0.5 0 0 0 0zm-2.75 14.24l-0.25 0 0 0 0 -0.5 0 -0.5 0.25 -0.25 0 -0.5 0 -0.5 0.25 -0.5 0 -0.5 0 -0.25 0.25 -0.5 0 -0.5 0 -0.5 0.25 -0.25 0 -0.5 0 -0.5 0.25 -0.5 0 -0.5 0 -0.25 0.25 -0.5 0 -0.5 0 -0.5 0.25 -0.5 0 -0.25 0 -0.5 0.25 -0.5 0 -0.5 0 -0.5 0.25 -0.25 0 -0.5 0.25 -0.5 0 -0.5 0 -0.25 0.25 -0.5 0.25 0 0 0.5 -0.25 0.5 0 0.25 0 0.5 -0.25 0.5 0 0.5 0 0.5 -0.25 0.25 0 0.5 -0.25 0.5 0 0.5 0 0.25 -0.25 0.5 0 0.5 0 0.5 -0.25 0.5 0 0.25 0 0.5 -0.25 0.5 0 0.5 0 0.5 -0.25 0.25 0 0.5 0 0.5 -0.25 0.5 0 0.5 0 0.25 -0.25 0.5 0 0.5 0 0.5 -0.25 0.25 0 0.5 0 0zm-0.25 0.5l0.25 0.25 -0.25 -0.25 0 0 0 0 0 0 0 0 0 0 0 0 0 0 0 0 0 0 -0.25 0 0 0 0 -0.25 0 0 0 0 0 0 0 0 0 0 0 0 0 0 0 0 0 0 0 0 0 0 0 0 0 0 0 -0.25 0 0 0.25 0 0 0 0 0 0 0 0 0 0.25 0 0 0 0 0 0 0 0 0 0 0.25 0 0 0 0 0 0 0 0 0 0 0 0 0 0 0 0 0 0 0 0 0 0 0 0 0 0 0 0 0 0 0 0 0 0.25 0 0 0 0 0 0 0 0 0 0 0 0 0 0 0 0 0 0 0 0 -0.25 0zm0.25 0.25l-0.25 0.25 0 -0.5 0.25 0.25 0 0zm0.5 -0.75l0.25 0.25 0 0 -0.25 0 0 0 0 0 0 0.25 0 0 0 0 0 0 0 0 0 0 0 0 0 0 0 0 -0.25 0 0 0 0 0 0 0 0 0 0 0 0 0 0 0 0 0 0 0.25 0 0 -0.25 0 0 0 0 0 0 0 0 0 0 0 0 0 0 0 0 0 -0.25 -0.25 0 0 0 0 0 0 0 0 0 0 0 -0.25 0.25 0 0 0 0 0 0 0 0 0 0 0 0 0 0 0 0 0 0 0 0.25 0 0 0 0 0 0 0 0 0 0 0 0 0 0 -0.25 0 0 0 0 0 0 0 0 0.25 0 0 0 0 0 0 0 0 0zm18.99 -7.74l0.25 0.25 0 0 -0.75 0.25 -0.5 0 -0.75 0.25 -0.5 0.25 -0.75 0 -0.5 0.25 -0.75 0.25 -0.5 0 -0.75 0.25 -0.5 0.25 -0.75 0.25 -0.5 0.25 -0.75 0.25 -0.5 0 -0.5 0.25 -0.75 0.25 -0.5 0.25 -0.75 0.25 -0.5 0.25 -0.5 0.25 -0.75 0.25 -0.5 0.25 -0.5 0.5 -0.75 0.25 -0.5 0.25 -0.5 0.25 -0.5 0.25 -0.75 0.5 -0.5 0.25 -0.5 0.25 -0.5 0.5 -0.5 0.25 -0.25 -0.25 0.5 -0.25 0.5 -0.5 0.5 -0.25 0.75 -0.5 0.5 -0.25 0.5 -0.25 0.75 -0.25 0.5 -0.5 0.5 -0.25 0.5 -0.25 0.75 -0.25 0.5 -0.25 0.75 -0.25 0.5 -0.25 0.5 -0.25 0.75 -0.25 0.5 -0.25 0.5 -0.25 0.75 -0.25 0.5 -0.25 0.75 -0.25 0.5 0 0.75 -0.25 0.5 -0.25 0.75 -0.25 0.5 0 0.75 -0.25 0.5 -0.25 0.75 0 0.5 -0.25 0.75 -0.25 0.5 0 0 0zm2 1l-0.25 0 0 0 0 0 -0.25 0 0 -0.25 0 0 0 0 0 0 0 0 0 0 0 -0.25 0 0 -0.25 0 0 0 0 0 0 0 0 0 0 0 -0.25 -0.25 0 0 0 0 0 0 0 0 -0.25 0 0 0 0 0 0 0 -0.25 0 0 0 0 0 0 0 -0.25 0 0 0 0 0 -0.25 -0.25 0.25 0 0 0 0 0 0.25 0 0 0 0 0 0.25 0 0 0 0 0 0.25 0 0 0 0 0 0 0 0.25 0 0 0 0 0 0 0 0.25 0 0 0.25 0 0 0 0 0.25 0 0 0 0 0.25 0 0 0 0 0 0 0.25 0.25 0 0 0 0 0 0 0 0.25 0 0zm-1 1.75l-0.25 -0.5 0 0 0 0 0.25 0 0 0 0 0 0 0 0.25 0 0 0 0 -0.25 0 0 0 0 0.25 0 0 0 0 0 0 -0.25 0 0 0 0 0 0 0 0 0 0 0.25 -0.25 0 0 0 0 0 0 0 0 0 0 0 -0.25 0 0 0 0 0 0 0 0 0 -0.25 0 0 0.25 0 0 0 0 0 0 0.25 0 0 0 0 0 0 0 0.25 0 0 0 0 0 0 0 0.25 0 0 0 0 0 0 0 0.25 -0.25 0 0 0 0 0 0 0.25 0 0 0 0 -0.25 0 0 0 0 0.25 0 0 -0.25 0 0 0 0 0 0 0 -0.25 0.25 0 0 0 0 0 0 0 0zm-6.75 5.25l-0.25 -0.25 0 0 0.25 -0.25 0.25 -0.25 0 0 0.25 -0.25 0.25 -0.25 0.25 -0.25 0 -0.25 0.25 0 0.25 -0.25 0.25 -0.25 0 -0.25 0.25 0 0.25 -0.25 0.25 -0.25 0.25 -0.25 0 0 0.25 -0.25 0.25 -0.25 0.25 0 0.25 -0.25 0.25 -0.25 0.25 0 0 -0.25 0.25 0 0.25 -0.25 0.25 -0.25 0.25 0 0.25 -0.25 0.25 0 0.25 -0.25 0.25 0 0.25 -0.25 0.25 0.5 -0.25 0 -0.25 0.25 -0.25 0 -0.25 0.25 -0.25 0 -0.25 0.25 -0.25 0 -0.25 0.25 -0.25 0 -0.25 0.25 0 0.25 -0.25 0 -0.25 0.25 -0.25 0.25 -0.25 0 -0.25 0.25 0 0.25 -0.25 0 -0.25 0.25 -0.25 0.25 -0.25 0 0 0.25 -0.25 0.25 -0.25 0.25 -0.25 0 0 0.25 -0.25 0.25 -0.25 0.25 0 0.25 -0.25 0 -0.25 0.25 -0.25 0.25 0 0 0 -0zm-8.49 13.24l-0.5 -0.25 0 0 0.25 -0.5 0.25 -0.25 0.25 -0.5 0.25 -0.5 0.25 -0.5 0.25 -0.5 0.25 -0.25 0.25 -0.5 0.25 -0.5 0.25 -0.25 0.25 -0.5 0.25 -0.5 0.25 -0.5 0.25 -0.25 0.25 -0.5 0.25 -0.5 0.25 -0.25 0.25 -0.5 0.25 -0.25 0.5 -0.5 0.25 -0.5 0.25 -0.25 0.25 -0.5 0.25 -0.5 0.25 -0.25 0.5 -0.5 0.25 -0.25 0.25 -0.5 0.25 -0.25 0.5 -0.5 0.25 -0.25 0.25 -0.5 0.25 0.25 -0.25 0.5 -0.25 0.25 -0.25 0.5 -0.5 0.25 -0.25 0.5 -0.25 0.25 -0.25 0.5 -0.5 0.25 -0.25 0.5 -0.25 0.5 -0.25 0.25 -0.25 0.5 -0.25 0.25 -0.25 0.5 -0.5 0.5 -0.25 0.25 -0.25 0.5 -0.25 0.5 -0.25 0.25 -0.25 0.5 -0.25 0.5 -0.25 0.25 -0.25 0.5 -0.25 0.5 -0.25 0.25 -0.25 0.5 -0.25 0.5 -0.25 0.5 -0.25 0.25 -0.25 0.5 -0.25 0.5 0 0.5 0 0 0 0zm-9.25 12.99l-0.25 -0.25 0 0 0.25 -0.5 0.5 -0.25 0.25 -0.5 0.25 -0.25 0.5 -0.25 0.25 -0.5 0.25 -0.25 0.5 -0.5 0.25 -0.25 0.25 -0.5 0.5 -0.5 0.25 -0.25 0.25 -0.5 0.25 -0.25 0.25 -0.5 0.25 -0.25 0.25 -0.5 0.5 -0.5 0.25 -0.25 0.25 -0.5 0.25 -0.5 0.25 -0.25 0.25 -0.5 0.25 -0.5 0.25 -0.5 0.25 -0.25 0.25 -0.5 0.25 -0.5 0 -0.5 0.25 -0.25 0.25 -0.5 0.25 -0.5 0.5 0.25 -0.25 0.5 -0.25 0.25 -0.25 0.5 -0.25 0.5 -0.25 0.5 -0.25 0.25 -0.25 0.5 -0.25 0.5 -0.25 0.5 -0.25 0.25 -0.25 0.5 -0.25 0.5 -0.25 0.25 -0.25 0.5 -0.25 0.5 -0.25 0.25 -0.5 0.5 -0.25 0.5 -0.25 0.25 -0.25 0.5 -0.25 0.25 -0.5 0.5 -0.25 0.25 -0.25 0.5 -0.25 0.5 -0.5 0.25 -0.25 0.5 -0.25 0.25 -0.5 0.25 -0.25 0.5 -0.5 0.25 -0.25 0.5 0 0 -0 0zm-12.49 6l0 -0.25 0 0 0.5 -0.25 0.25 0 0.5 0 0.5 -0.25 0.5 0 0.25 0 0.5 -0.25 0.5 0 0.25 -0.25 0.5 -0.25 0.25 0 0.5 -0.25 0.5 0 0.25 -0.25 0.5 -0.25 0.25 -0.25 0.5 0 0.25 -0.25 0.5 -0.25 0.25 -0.25 0.5 -0.25 0.25 -0.25 0.5 -0.25 0.25 -0.25 0.25 -0.25 0.5 -0.25 0.25 -0.25 0.5 -0.25 0.25 -0.25 0.25 -0.25 0.5 -0.25 0.25 -0.25 0.25 0.25 -0.5 0.25 -0.25 0.25 -0.25 0.25 -0.5 0.25 -0.25 0.25 -0.25 0.5 -0.5 0.25 -0.25 0.25 -0.5 0.25 -0.25 0.25 -0.5 0 -0.25 0.25 -0.5 0.25 -0.25 0.25 -0.5 0.25 -0.25 0.25 -0.5 0.25 -0.25 0 -0.5 0.25 -0.25 0.25 -0.5 0 -0.5 0.25 -0.25 0 -0.5 0.25 -0.5 0.25 -0.25 0 -0.5 0 -0.5 0.25 -0.5 0 -0.25 0.25 -0.5 0 -0.5 0 0 0 0 0zm-11.74 -1.5l0 -0.25 0 0 0.25 0 0.5 0.25 0.25 0 0.5 0.25 0.25 0 0.5 0.25 0.25 0 0.5 0 0.25 0.25 0.5 0 0.25 0 0.25 0.25 0.5 0 0.25 0 0.5 0 0.25 0.25 0.5 0 0.25 0 0.5 0 0.25 0 0.5 0 0.25 0 0.5 0 0.25 0 0.5 0 0.25 0 0.25 0 0.5 0 0.25 0 0.5 0 0.25 0 0.5 0 0 0.25 -0.25 0 -0.5 0.25 -0.25 0 -0.5 0 -0.25 0 -0.5 0 -0.25 0 -0.5 0 -0.25 0 -0.5 0 -0.25 0 -0.5 0 -0.25 0 -0.5 -0.25 -0.25 0 -0.5 0 -0.25 0 -0.5 0 -0.25 -0.25 -0.5 0 -0.25 0 -0.5 -0.25 -0.25 0 -0.5 0 -0.25 -0.25 -0.5 0 -0.25 0 -0.5 -0.25 -0.25 0 -0.25 -0.25 -0.5 0 -0.25 -0.25 0 0zm-12.99 -10.24l0.5 -0.25 0 0 0.25 0.5 0.25 0.25 0.25 0.5 0.25 0.5 0.5 0.25 0.25 0.5 0.25 0.5 0.5 0.25 0.25 0.5 0.25 0.25 0.5 0.5 0.25 0.25 0.5 0.5 0.25 0.25 0.5 0.5 0.25 0.25 0.5 0.25 0.25 0.25 0.5 0.5 0.5 0.25 0.25 0.25 0.5 0.25 0.5 0.25 0.5 0.25 0.25 0.25 0.5 0.25 0.5 0.25 0.5 0.25 0.5 0.25 0.5 0.25 0.5 0 0.5 0.25 0 0.25 -0.75 0 -0.5 -0.25 -0.5 -0.25 -0.5 -0.25 -0.5 -0.25 -0.25 0 -0.5 -0.25 -0.5 -0.25 -0.5 -0.25 -0.5 -0.5 -0.5 -0.25 -0.25 -0.25 -0.5 -0.25 -0.5 -0.25 -0.25 -0.5 -0.5 -0.25 -0.25 -0.25 -0.5 -0.5 -0.25 -0.25 -0.5 -0.5 -0.25 -0.25 -0.5 -0.5 -0.25 -0.25 -0.25 -0.5 -0.5 -0.25 -0.25 -0.5 -0.25 -0.5 -0.5 -0.25 -0.25 -0.5 -0.25 -0.5 -0.25 -0.25 -0.5 -0.5 0 0 0 0zm-4.75 -8.24l0.5 -0.25 0 0 0 0.5 0.25 0.25 0 0.25 0.25 0.25 0.25 0.25 0 0.25 0.25 0.25 0 0.25 0.25 0.25 0 0.25 0.25 0.25 0.25 0.25 0 0.25 0.25 0.25 0 0.25 0.25 0.25 0 0.25 0.25 0.25 0.25 0.25 0 0.25 0.25 0.25 0 0.25 0.25 0.25 0.25 0.25 0 0.25 0.25 0.25 0 0.25 0.25 0.25 0.25 0.25 0 0.25 0.25 0.25 0.25 0.25 -0.5 0.25 0 -0.25 -0.25 -0.25 -0.25 -0.25 0 -0.25 -0.25 -0.25 0 -0.25 -0.25 -0.25 -0.25 -0.25 0 -0.25 -0.25 -0.25 -0.25 -0.25 0 -0.25 -0.25 -0.25 0 -0.25 -0.25 -0.25 0 -0.25 -0.25 -0.25 -0.25 -0.25 0 -0.25 -0.25 -0.25 0 -0.25 -0.25 -0.25 0 -0.5 -0.25 -0.25 -0.25 -0.25 0 -0.25 -0.25 -0.25 0 -0.25 -0.25 -0.25 0 -0.25 -0.25 -0.25 -0.25 -0.25 0 0zm-10.49 -14.49l0.25 -0.25 0 0 0.5 0.25 0.5 0.5 0.25 0.5 0.5 0.25 0.25 0.5 0.5 0.5 0.25 0.25 0.5 0.5 0.25 0.5 0.5 0.5 0.25 0.25 0.5 0.5 0.25 0.5 0.25 0.5 0.5 0.5 0.25 0.5 0.25 0.25 0.25 0.5 0.5 0.5 0.25 0.5 0.25 0.5 0.25 0.5 0.5 0.5 0.25 0.5 0.25 0.5 0.25 0.5 0.25 0.5 0.25 0.5 0.25 0.5 0.5 0.5 0.25 0.5 0.25 0.25 -0.5 0.25 -0.25 -0.5 -0.25 -0.5 -0.25 -0.5 -0.25 -0.5 -0.25 -0.5 -0.25 -0.5 -0.25 -0.5 -0.5 -0.25 -0.25 -0.5 -0.25 -0.5 -0.25 -0.5 -0.25 -0.5 -0.5 -0.5 -0.25 -0.5 -0.25 -0.5 -0.25 -0.5 -0.5 -0.25 -0.25 -0.5 -0.25 -0.5 -0.5 -0.5 -0.25 -0.5 -0.25 -0.25 -0.5 -0.5 -0.25 -0.5 -0.5 -0.5 -0.25 -0.25 -0.5 -0.5 -0.25 -0.5 -0.5 -0.25 -0.25 -0.5 -0.5 -0.25 -0.5 -0.5 0 0zm-4.5 -3l0.25 -0.5 0 0 0.25 0 0 0.25 0.25 0 0 0 0.25 0.25 0.25 0 0 0 0.25 0.25 0.25 0 0 0 0.25 0.25 0 0 0.25 0 0.25 0.25 0 0 0.25 0.25 0 0 0.25 0 0.25 0.25 0 0 0.25 0.25 0 0 0.25 0.25 0 0 0.25 0.25 0 0 0.25 0 0 0.25 0.25 0 0 0.25 0.25 0 0 0.25 -0.25 0.25 0 -0.25 -0.25 0 0 -0.25 -0.25 0 0 0 -0.25 -0.25 0 0 -0.25 -0.25 0 0 -0.25 -0.25 0 0 -0.25 -0.25 0 0 -0.25 0 0 -0.25 -0.25 0 -0.25 -0.25 0 0 -0.25 0 0 -0.25 -0.25 0 0 0 -0.25 -0.25 -0.25 0 0 0 -0.25 -0.25 -0.25 0 0 0 -0.25 -0.25 0 0 -0.25 0 -0.25 0 0 0 0 0zm-1 -1l0.5 0 -0.25 -0.25 0.25 0 0 0 0 0.25 0 0 0 0 0 0 0 0 0 0 0 0 0.25 0 0 0 0 0.25 0 0 0 0 0 0 0 0 0 0 0 0 0.25 0 0 0 0 0 0 0.25 0 0 0 0 0 0 0 0 0 0 0 0 0.25 0 0 0 0 0 0 0 -0.25 0.5 0 -0.25 0 0 0 0 0 0 0 0 -0.25 0 0 0 0 0 0 0 0 0 0 0 0 -0.25 0 0 -0.25 0 0 0 0 0 0 0 0 0 0 0 0 0 0 -0.25 0 0 -0.25 0 0 0 0 0 0 0 0 0 0 0 0 0 0 -0.25 0 0 0 0 -0.25 0 -0 0zm0.25 0l-0.25 0 0 0 0.25 0zm-0.25 -1l0.5 0.25 0 -0.25 0 0.25 0 0 0 0 0 0 0 0 0 0 0 0 0 0 0 0 0 0.25 0 0 0 0 0 0 0 0 0 0 0 0 0 0 0 0 0 0 0 0.25 0 0 0 0 0 0 0 0 0 0 0 0 0 0 0 0 0 0 0 0.25 0 0 0 0 -0.5 0 0 0 0 0 0 -0.25 0 0 0 0 0 0 0 0 0 0 0 0 0 0 0 0 0 0 0 -0.25 0 0 0 0 0 0 0 0 0 0 0 0 0 0 0 0 0 0 0 -0.25 0 0 0 0 0 0 0 0 0 0 0 0 0 0 0 0 0 -0.25 0 0zm0 0l0 0 0 0 0 0zm41.98 21.74l0 0 0 0 0 0 -0.25 -0.25 0.25 0.25zm0 0l0 0.5 -0.25 -0.5 0.25 0zm7 -19.24l0.5 0 0 0 -0.25 0.75 -0.5 0.5 -0.25 0.5 -0.25 0.75 -0.25 0.5 -0.25 0.5 -0.25 0.75 -0.25 0.5 -0.25 0.5 -0.25 0.75 -0.25 0.5 -0.25 0.75 -0.25 0.5 -0.25 0.5 -0.25 0.75 -0.25 0.5 -0.25 0.5 -0.25 0.75 -0.25 0.5 -0.25 0.75 0 0.5 -0.25 0.75 -0.25 0.5 -0.25 0.5 -0.25 0.75 0 0.5 -0.25 0.75 -0.25 0.5 -0.25 0.75 0 0.5 -0.25 0.5 -0.25 0.75 -0.25 -0.25 0.25 -0.5 0 -0.5 0.25 -0.75 0.25 -0.5 0 -0.75 0.25 -0.5 0.25 -0.75 0.25 -0.5 0.25 -0.75 0 -0.5 0.25 -0.5 0.25 -0.75 0.25 -0.5 0.25 -0.75 0.25 -0.5 0.25 -0.5 0.25 -0.75 0 -0.5 0.25 -0.75 0.25 -0.5 0.25 -0.5 0.25 -0.75 0.25 -0.5 0.25 -0.75 0.5 -0.5 0.25 -0.5 0.25 -0.75 0.25 -0.5 0.25 -0.5 0.25 -0.75 0.25 -0.5 0.25 -0.5 0 0 0 0zm0.5 0l0 0 0 0 0 0zm-0.25 -1l0.5 0 0 0 0 0 0 0 0 0 0 0.25 0 0 0 0 0 0 0 0 0 0 0 0 0 0.25 0 0 -0.25 0 0 0 0 0 0 0 0 0 0 0 0 0.25 0 0 0 0 0 0 0 0 0 0 0 0 0 0.25 0 0 0 0 0 0 0 0 0 0 0 0 -0.5 0 0 0 0.25 0 0 -0.25 0 0 0 0 0 0 0 0 0 0 0 0 0 0 0 0 0 -0.25 0 0 0 0 0 0 0 0 0 0 0 0 0 0 0 0 0 -0.25 0 0 0 0 0 0 0 0 0 0 0 0 0 0 0 -0.25 0 0 0 0 0 0 0 0zm-0.25 -2.75l0.25 0 0 0 0 0 0 0 0 0.25 0 0 0 0 0 0.25 0 0 0 0 0.25 0.25 0 0 0 0.25 0 0 0 0 0 0.25 0 0 0 0 0 0.25 0 0 0 0 0 0.25 0 0 0 0 0 0.25 0 0 0 0 0 0.25 0 0 0 0.25 0 0 0 0 0 0.25 0.25 0 -0.5 0 0 0 0 -0.25 0 0 0 0 0 -0.25 0 0 0 0 0 -0.25 0 0 0 0 0 -0.25 0 0 0 0 -0.25 -0.25 0 0 0 -0.25 0 0 0 0 0 -0.25 0 0 0 0 0 -0.25 0 0 0 0 0 -0.25 0 0 0 0 0 -0.25 0 0 0 0 0 -0.25 0 0 0 0 0 0zm-4.5 -21.24l0.25 -0.25 0 0 0.25 0.75 0 0.75 0.25 0.5 0.25 0.75 0 0.75 0.25 0.5 0.25 0.75 0 0.5 0.25 0.75 0 0.75 0.25 0.5 0.25 0.75 0 0.75 0.25 0.5 0 0.75 0.25 0.75 0.25 0.5 0 0.75 0.25 0.75 0 0.5 0.25 0.75 0 0.75 0.25 0.5 0 0.75 0.25 0.75 0 0.75 0.25 0.5 0 0.75 0.25 0.75 0 0.5 0.25 0.75 0 0.75 -0.25 0 -0.25 -0.75 0 -0.5 -0.25 -0.75 0 -0.75 -0.25 -0.75 0 -0.5 -0.25 -0.75 0 -0.75 -0.25 -0.5 0 -0.75 -0.25 -0.75 0 -0.5 -0.25 -0.75 0 -0.75 -0.25 -0.5 0 -0.75 -0.25 -0.75 -0.25 -0.5 0 -0.75 -0.25 -0.75 0 -0.5 -0.25 -0.75 -0.25 -0.75 0 -0.5 -0.25 -0.75 0 -0.5 -0.25 -0.75 -0.25 -0.75 0 -0.5 -0.25 -0.75 -0.25 -0.75 0 -0.5 0 0zm-1.25 -6l-0.25 0 0.25 0 0 0 0 0.25 0.25 0.25 0 0.25 0 0.25 0 0 0 0.25 0.25 0.25 0 0.25 0 0 0 0.25 0 0.25 0.25 0.25 0 0 0 0.25 0 0.25 0 0.25 0 0 0.25 0.25 0 0.25 0 0 0 0.25 0 0.25 0.25 0.25 0 0 0 0.25 0 0.25 0 0 0.25 0.25 0 0.25 0 0.25 0 0 -0.25 0.25 -0.25 -0.25 0 -0.25 0 0 0 -0.25 0 -0.25 0 -0.25 -0.25 0 0 -0.25 0 -0.25 0 0 0 -0.25 -0.25 -0.25 0 -0.25 0 0 0 -0.25 0 -0.25 -0.25 -0.25 0 0 0 -0.25 0 -0.25 0 0 0 -0.25 -0.25 -0.25 0 -0.25 0 0 0 -0.25 0 -0.25 -0.25 -0.25 0 -0.25 0 0 0 -0.25 -0.25 -0.25 0.5 0 -0 0zm-0.25 0l0 -0.75 0.25 0.75 -0.25 0zm0 0.75l-0.5 0 0 0 0 0 0 0 0 0 0 0 0 0 0 0 0.25 -0.25 0 0 0 0 0 0 0 0 0 0 0 0 0 0 0 0 0 0 0 0 0 -0.25 0 0 0 0 0 0 0 0 0 0 0 0 0 0 0 0 0 -0.25 0 0 0 0 0 0 0 0 0.25 0 0.25 0 0 0 0 0 0 0.25 0 0 0 0 0 0 0 0 -0.25 0 0 0 0 0.25 0 0 0 0 0 0 0 0 0 0 0 0 0 0 0 0 0 0 0 0.25 0 0 0 0 0 0 0 0 0 0 0 0 0 0 0 0 0 0 0 0 0 0 0 0 0 0 0 0zm-0.5 0l0 0 0 0 0 0zm-6 30.23l-0.25 -0.25 0 0 0 -0.75 0.25 -1 0 -1 0.25 -1 0 -1 0.25 -0.75 0 -1 0.25 -1 0.25 -1 0 -1 0.25 -0.75 0.25 -1 0.25 -1 0 -1 0.25 -1 0.25 -0.75 0.25 -1 0.25 -1 0.25 -1 0 -0.75 0.25 -1 0.25 -1 0.25 -1 0.25 -0.75 0.25 -1 0.25 -1 0.25 -0.75 0.25 -1 0.25 -1 0.25 -1 0.25 -0.75 0.25 -1 0.5 0 -0.25 1 -0.25 1 -0.25 1 -0.25 0.75 -0.25 1 -0.25 1 -0.25 0.75 -0.25 1 -0.25 1 -0.25 1 -0.25 0.75 -0.25 1 -0.25 1 -0.25 1 -0.25 0.75 -0.25 1 0 1 -0.25 1 -0.25 0.75 -0.25 1 0 1 -0.25 1 -0.25 0.75 -0.25 1 0 1 -0.25 1 0 1 -0.25 0.75 0 1 -0.25 1 0 1 -0.25 1 0 0 0 0zm1 6l-0.5 0.25 0 0 0 -0.25 -0.25 0 0 -0.25 0 -0.25 -0.25 -0.25 0 0 0 -0.25 -0.25 -0.25 0 -0.25 0 -0.25 0 0 0 -0.25 0 -0.25 -0.25 -0.25 0 -0.25 0 0 0 -0.25 0 -0.25 0 -0.25 0 -0.25 0 0 0 -0.25 0 -0.25 0 -0.25 0 -0.25 0 -0.25 0 0 0 -0.25 0 -0.25 0 -0.25 0.25 -0.25 0 -0.25 0.25 0.25 0 0 0 0.25 0 0.25 0 0.25 0 0.25 0 0.25 0 0 0 0.25 -0.25 0.25 0 0.25 0 0.25 0 0 0.25 0.25 0 0.25 0 0.25 0 0 0 0.25 0 0.25 0 0.25 0 0.25 0 0 0 0.25 0.25 0.25 0 0.25 0 0 0 0.25 0.25 0.25 0 0.25 0 0 0.25 0.25 0 0.25 0.25 0 0 0 0 0zm0.5 1.75l-0.25 0.25 0 0 0 -0.25 0 0 0 0 0 0 0 0 0 -0.25 0 0 0 0 -0.25 0 0 0 0 -0.25 0 0 0 0 0 0 0 0 0 -0.25 0 0 0 0 0 0 0 0 -0.25 -0.25 0 0 0 0 0 0 0 0 0 -0.25 0 0 0 0 0 0 0 0 -0.25 -0.25 0 0 0.5 -0.25 0 0.25 0 0 0 0 0 0 0 0 0 0.25 0 0 0.25 0 0 0 0 0.25 0 0 0 0 0 0 0 0 0 0.25 0 0 0 0 0 0 0.25 0 0 0.25 0 0 0 0 0 0 0 0 0 0.25 0 0 0 0 0 0 0 0.25 0 0 0 0 0 0 0 0 0 0zm0 0l0 0 0 0 0 0zm3.75 11.24l0.25 0.25 -0.25 0 0 -0.25 -0.25 -0.5 0 -0.25 -0.25 -0.5 0 -0.25 -0.25 -0.25 0 -0.5 -0.25 -0.25 0 -0.5 -0.25 -0.25 0 -0.25 -0.25 -0.5 0 -0.25 -0.25 -0.5 0 -0.25 -0.25 -0.5 0 -0.25 -0.25 -0.25 0 -0.5 -0.25 -0.25 0 -0.5 -0.25 -0.25 0 -0.25 -0.25 -0.5 0 -0.25 -0.25 -0.5 0 -0.25 -0.25 -0.5 0 -0.25 -0.25 -0.25 0 -0.5 -0.25 -0.25 0.25 -0.25 0.25 0.5 0 0.25 0.25 0.25 0.25 0.5 0 0.25 0.25 0.5 0 0.25 0.25 0.5 0 0.25 0.25 0.25 0 0.5 0.25 0.25 0 0.5 0.25 0.25 0 0.5 0.25 0.25 0 0.25 0.25 0.5 0 0.25 0.25 0.5 0 0.25 0 0.25 0.25 0.5 0 0.25 0.25 0.5 0 0.25 0.25 0.25 0 0.5 0.25 0.25 0 0.5 0.25 0.25 0 0.25 -0.25 0zm0.25 0.25l0 0.5 -0.25 -0.5 0.25 0zm-22.24 -36.23l0 0 0 0 0 0 0 0 0 0zm0 -0.25l0 0 0.25 0 -0.25 0zm0 0.25l-0.25 0 0 0 0 0 0 0 0 0 0 0 0 0 0 0 0 0 0 0 0 -0.25 0 0 0 0 0 0 0 0 0 0 0 0 0 0 0 0 0 0 0 0 0 0 0 0 0 0 0 0 0 0 0.25 0 0 0 0 0 0 0 0 0 0 0 0 0 0 0 0 0.25 0 0 0 0 0 0 0 0 0 0 0 0.25 0 -0.25 0 0.25 0 0 0 0 0 0 0 0 0 0 0 0 0 0 0 0 0 0 0 0 0 0 0 0 0 0 0 0 0 0 0 0 0 0 0 0 0 0 0 0 0 0 0 0 0 0 0 0 0 -0.25zm-0.25 0l0 0 0 0 0 0zm0.5 0.5l-0.5 0.25 0 0 0 -0.25 0 0 0 0 0 0 0 0 0 0 0 0 0 0 0 0 0 0 0 0 0 0 0 0 0 0 0 0 0 -0.25 0 0 0 0 0 0 0 0 0 0 0 0 0 0 0 0 0 0 0 0 0 0 0 0 0 0 0 0 0 0 0 -0.25 0.25 0 0 0 0 0 0 0 0 0 0 0 0 0 0 0.25 0 0 0 0 0 0 0 0 0 0 0 0 0 0 0 0 0 0 0 0 0 0 0 0 0 0 0 0 0.25 0 0 0.25 0 0 0 0 0 0 0 0 0 0 0 0 0 0 0 0 0 0 0 0 0 0zm4.75 21.74l-0.5 0 0 0 0 -0.75 -0.25 -0.5 0 -0.75 -0.25 -0.75 0 -0.75 0 -0.5 -0.25 -0.75 0 -0.75 -0.25 -0.75 0 -0.5 -0.25 -0.75 0 -0.75 -0.25 -0.5 0 -0.75 -0.25 -0.75 0 -0.75 -0.25 -0.5 -0.25 -0.75 0 -0.75 -0.25 -0.5 0 -0.75 -0.25 -0.75 -0.25 -0.75 0 -0.5 -0.25 -0.75 -0.25 -0.75 -0.25 -0.5 0 -0.75 -0.25 -0.75 -0.25 -0.5 -0.25 -0.75 -0.25 -0.5 0.5 -0.25 0.25 0.75 0 0.5 0.25 0.75 0.25 0.75 0.25 0.5 0.25 0.75 0 0.75 0.25 0.5 0.25 0.75 0 0.75 0.25 0.75 0.25 0.5 0 0.75 0.25 0.75 0 0.5 0.25 0.75 0.25 0.75 0 0.75 0.25 0.5 0 0.75 0.25 0.75 0 0.5 0.25 0.75 0 0.75 0.25 0.75 0 0.5 0 0.75 0.25 0.75 0 0.75 0.25 0.5 0 0.75 0.25 0.75 0 0zm1.25 3l-0.25 0.25 0 0 0 0 -0.25 0 0 -0.25 0 0 -0.25 0 0 -0.25 0 0 0 -0.25 -0.25 0 0 0 0 -0.25 0 0 -0.25 -0.25 0 0 0 -0.25 0 0 0 0 0 -0.25 -0.25 0 0 -0.25 0 0 0 -0.25 0 0 0 0 0 -0.25 0 0 0 -0.25 -0.25 0 0 -0.25 0 0 0 -0.25 0 0 0.5 0 0 0 0 0.25 0 0 0 0.25 0 0 0 0 0 0.25 0 0 0 0.25 0 0 0.25 0.25 0 0 0 0 0 0.25 0 0 0 0.25 0 0 0.25 0 0 0.25 0 0 0 0 0 0.25 0.25 0 0 0.25 0 0 0 0 0.25 0.25 0 0 0 0 0 0.25 0.25 0 0 0 0 0 -0 0zm11 17.49l-0.5 0.25 0 0 0 -0.75 -0.25 -0.5 -0.25 -0.75 -0.25 -0.5 -0.25 -0.75 -0.25 -0.5 -0.25 -0.75 -0.25 -0.5 -0.25 -0.5 -0.25 -0.75 -0.25 -0.5 -0.25 -0.5 -0.25 -0.75 -0.25 -0.5 -0.5 -0.5 -0.25 -0.5 -0.25 -0.5 -0.5 -0.5 -0.25 -0.75 -0.5 -0.5 -0.25 -0.5 -0.5 -0.5 -0.25 -0.5 -0.5 -0.5 -0.5 -0.5 -0.5 -0.5 -0.25 -0.25 -0.5 -0.5 -0.5 -0.5 -0.5 -0.5 -0.5 -0.5 -0.5 -0.5 0.25 -0.25 0.5 0.5 0.5 0.5 0.5 0.5 0.5 0.5 0.5 0.5 0.5 0.25 0.25 0.5 0.5 0.5 0.5 0.5 0.25 0.5 0.5 0.5 0.25 0.5 0.5 0.75 0.25 0.5 0.5 0.5 0.25 0.5 0.5 0.5 0.25 0.5 0.25 0.75 0.25 0.5 0.5 0.5 0.25 0.75 0.25 0.5 0.25 0.5 0.25 0.75 0.25 0.5 0.25 0.75 0.25 0.5 0 0.75 0.25 0.5 0.25 0.75 0.25 0.5 0 0zm0.75 6.25l0.5 0.25 -0.5 0 0 -0.25 0 -0.25 0 -0.25 0 -0.25 -0.25 0 0 -0.25 0 -0.25 0 -0.25 0 -0.25 0 0 0 -0.25 -0.25 -0.25 0 -0.25 0 -0.25 0 0 0 -0.25 0 -0.25 0 -0.25 -0.25 0 0 -0.25 0 -0.25 0 -0.25 0 0 0 -0.25 -0.25 -0.25 0 -0.25 0 -0.25 0 0 0 -0.25 0 -0.25 -0.25 0 0 -0.25 0.5 -0.25 0 0.25 0 0.25 0 0.25 0 0 0.25 0.25 0 0.25 0 0.25 0 0 0 0.25 0 0.25 0.25 0.25 0 0 0 0.25 0 0.25 0 0.25 0 0.25 0 0 0.25 0.25 0 0.25 0 0.25 0 0 0 0.25 0 0.25 0 0.25 0.25 0.25 0 0 0 0.25 0 0.25 0 0.25 0 0.25 0 0 0.25 0.25 -0.5 0zm0.5 0.25l-0.25 0.25 -0.25 -0.25 0.5 0 0 0zm0.5 -1.5l0.25 0.25 0 0 0 0 0 0 0 0 0 0 0 0 0 0.25 0 0 -0.25 0 0 0 0 0 0 0.25 0 0 0 0 0 0 0 0 0 0 -0.25 0 0 0.25 0 0 0 0 0 0 0 0 0 0 0 0.25 -0.25 0 0 0 0 0 0 0 0 0 0 0.25 0 0 0 0 -0.5 -0.25 0 0 0.25 0 0 -0.25 0 0 0 0 0 0 0 0 0 0 0 -0.25 0.25 0 0 0 0 0 0 0 0 0 0 0 0 -0.25 0 0 0.25 0 0 0 0 0 0 0 0 0 0 -0.25 0 0 0 0 0 0 0 0 0 0 0.25 0 0 -0.25 0 0 0 0 0 0 0 0zm1 -4l0.25 0.25 0 0 0 0 0 0.25 0 0 0 0.25 0 0 0 0.25 0 0 -0.25 0.25 0 0 0 0.25 0 0 0 0.25 0 0 0 0.25 0 0 -0.25 0.25 0 0 0 0.25 0 0 0 0.25 0 0 0 0.25 -0.25 0 0 0.25 0 0 0 0.25 0 0 0 0.25 0 0 -0.25 0.25 0 0 0 0.25 -0.25 -0.25 0 0 0 -0.25 0 0 0 -0.25 0 0 0.25 -0.25 0 0 0 -0.25 0 0 0 -0.25 0 0 0.25 -0.25 0 0 0 -0.25 0 0 0 -0.25 0 0 0 -0.25 0 0 0.25 -0.25 0 0 0 -0.25 0 0 0 -0.25 0 0 0 -0.25 0 0 0 -0.25 0 0 0 -0.25 0.25 0 0 -0.25 0 0zm-1.25 -8.74l0.5 0 0 0 0 0.25 0 0.25 0.25 0.25 0 0.25 0 0.25 0.25 0.25 0 0.25 0 0.5 0 0.25 0.25 0.25 0 0.25 0 0.25 0 0.25 0 0.25 0 0.25 0.25 0.25 0 0.5 0 0.25 0 0.25 0 0.25 0 0.25 0 0.25 0 0.25 0 0.25 0 0.5 0 0.25 0 0.25 0 0.25 0 0.25 0 0.25 0 0.25 0 0.5 -0.25 -0.25 0 -0.25 0 -0.25 0 -0.25 0 -0.25 0 -0.25 0 -0.25 0 -0.25 0 -0.5 0 -0.25 0 -0.25 0 -0.25 0 -0.25 0 -0.25 -0.25 -0.25 0 -0.25 0 -0.25 0 -0.25 0 -0.5 0 -0.25 -0.25 -0.25 0 -0.25 0 -0.25 0 -0.25 0 -0.25 -0.25 -0.25 0 -0.25 0 -0.25 0 -0.25 -0.25 -0.5 0 -0.25 0 -0.25 -0.25 -0.25 0 0 0 0zm-15.24 -30.48l0.5 -0.25 0 0 0.5 1 0.75 0.75 0.5 1 0.75 0.75 0.5 1 0.75 0.75 0.5 1 0.5 1 0.5 0.75 0.75 1 0.5 1 0.5 0.75 0.5 1 0.5 1 0.5 1 0.5 1 0.5 0.75 0.5 1 0.25 1 0.5 1 0.5 1 0.25 1 0.5 1 0.5 1 0.25 1 0.5 1 0.25 1 0.5 1 0.25 1 0.25 1 0.5 1.25 0.25 1 -0.5 0 -0.25 -1 -0.25 -1 -0.5 -1 -0.25 -1 -0.25 -1 -0.5 -1 -0.25 -1 -0.5 -1 -0.25 -1 -0.5 -1 -0.5 -1 -0.25 -1 -0.5 -1 -0.5 -1 -0.5 -1 -0.5 -1 -0.25 -1 -0.5 -0.75 -0.5 -1 -0.5 -1 -0.75 -1 -0.5 -0.75 -0.5 -1 -0.5 -1 -0.5 -0.75 -0.75 -1 -0.5 -0.75 -0.5 -1 -0.75 -1 -0.5 -0.75 -0.75 -1 -0.75 -0.75 0 0 0 0zm-3.5 -4.5l0 -0.25 0.25 0 0 0.25 0.25 0 0 0.25 0.25 0.25 0 0 0 0.25 0.25 0 0 0.25 0.25 0 0 0.25 0.25 0 0 0.25 0.25 0 0 0.25 0.25 0.25 0 0 0.25 0.25 0 0 0.25 0.25 0 0 0.25 0.25 0 0 0 0.25 0.25 0.25 0 0 0.25 0.25 0 0 0.25 0.25 0 0 0.25 0.25 0 0.25 0.25 0 -0.5 0.25 0 -0.25 -0.25 0 0 -0.25 0 0 -0.25 -0.25 0 0 -0.25 -0.25 0 -0.25 -0.25 0 0 -0.25 -0.25 0 0 -0.25 -0.25 0 0 -0.25 0 0 -0.25 -0.25 0 0 -0.25 -0.25 0 -0.25 -0.25 0 0 -0.25 -0.25 0 0 -0.25 -0.25 0 0 -0.25 -0.25 0 0 -0.25 -0.25 -0.25 0 0 -0.25 -0.25 0 0 0 -0.25 0 0 0 0zm0 -0.25l0 0 0.25 0 -0.25 0zm44.22 0.25l0 0 0 0 0 0 0.25 0 -0.25 0zm0 -0.25l0.5 -0.5 -0.25 0.75 -0.25 -0.25 -0 0zm-1 1.5l-0.25 -0.25 0 0 0 0 0 0 0 0 0 0 0 -0.25 0.25 0 0 0 0 0 0 0 0 0 0 0 0 -0.25 0.25 0 0 0 0 0 0 0 0 0 0 -0.25 0 0 0.25 0 0 0 0 0 0 0 0 -0.25 0 0 0.25 0 0 0 0 0 0 0 0 0 0 -0.25 0.25 0 0.25 0.25 -0.25 0 0 0.25 0 0 0 0 0 0 0 0 -0.25 0 0 0.25 0 0 0 0 0 0 0 0 0 0 -0.25 0 0 0.25 0 0 0 0 0 0 0 0 0 0 -0.25 0.25 0 0 0 0 0 0 0 0 0 0 0 0 -0.25 0.25 0 0 0 0 0 0 0 0 0 0zm-0.25 -0.25l0 0 0.25 -0.5 -0.25 0.5zm-2.5 3.5l-0.25 -0.25 0 0 0 0 0.25 -0.25 0 0 0 0 0.25 -0.25 0 0 0 -0.25 0.25 0 0 -0.25 0 0 0.25 0 0 -0.25 0 0 0.25 -0.25 0 0 0 0 0.25 -0.25 0 0 0 -0.25 0.25 0 0 0 0 -0.25 0.25 0 0 -0.25 0 0 0.25 0 0 -0.25 0 0 0.25 -0.25 0 0 0 0 0.25 -0.25 0.25 0.25 0 0.25 -0.25 0 0 0 0 0.25 -0.25 0 0 0.25 0 0 -0.25 0 0 0.25 0 0 -0.25 0.25 0 0 -0.25 0 0 0.25 0 0 -0.25 0.25 0 0 0 0 -0.25 0.25 0 0 0 0.25 -0.25 0 0 0 0 0.25 -0.25 0 0 0.25 0 0 -0.25 0 0 0.25 0 0 -0.25 0.25 0 0 0 0zm-13.99 26.74l-0.5 0 0 0 0.5 -1 0.25 -0.75 0.25 -1 0.5 -1 0.25 -0.75 0.5 -1 0.25 -0.75 0.25 -1 0.5 -0.75 0.25 -1 0.5 -0.75 0.5 -1 0.25 -0.75 0.5 -1 0.5 -0.75 0.25 -0.75 0.5 -1 0.5 -0.75 0.5 -0.75 0.5 -1 0.5 -0.75 0.25 -0.75 0.5 -0.75 0.5 -1 0.5 -0.75 0.75 -0.75 0.5 -0.75 0.5 -0.75 0.5 -1 0.5 -0.75 0.75 -0.75 0.5 -0.75 0.25 0.25 -0.5 0.75 -0.5 0.75 -0.75 0.75 -0.5 0.75 -0.5 1 -0.5 0.75 -0.5 0.75 -0.5 0.75 -0.5 0.75 -0.5 1 -0.5 0.75 -0.5 0.75 -0.5 0.75 -0.5 1 -0.5 0.75 -0.25 0.75 -0.5 1 -0.5 0.75 -0.25 1 -0.5 0.75 -0.5 0.75 -0.25 1 -0.5 0.75 -0.25 1 -0.5 0.75 -0.25 1 -0.25 0.75 -0.5 1 -0.25 0.75 -0.5 1 -0.25 1 -0.25 0.75 0 0 0 0zm-2.25 12.49l-0.25 0 0 0 -0.25 -0.5 0 -0.25 0 -0.5 0 -0.25 0 -0.5 0 -0.5 0 -0.25 0.25 -0.5 0 -0.5 0 -0.25 0 -0.5 0 -0.25 0.25 -0.5 0 -0.25 0 -0.5 0 -0.5 0.25 -0.25 0 -0.5 0 -0.25 0.25 -0.5 0 -0.25 0.25 -0.5 0 -0.25 0.25 -0.5 0 -0.5 0 -0.25 0.25 -0.5 0 -0.25 0.25 -0.5 0 -0.25 0.25 -0.5 0 -0.25 0.5 0 -0.25 0.5 0 0.25 -0.25 0.5 0 0.25 -0.25 0.5 0 0.25 -0.25 0.5 0 0.25 0 0.5 -0.25 0.25 0 0.5 -0.25 0.5 0 0.25 0 0.5 -0.25 0.25 0 0.5 0 0.25 -0.25 0.5 0 0.25 0 0.5 0 0.25 -0.25 0.5 0 0.5 0 0.25 0 0.5 0 0.25 0 0.5 0 0.5 0 0.25 0 0.5 0 0.25 0 0.5 0 0 0 0zm1 4l-0.5 0 0 0 0 0 0 -0.25 0 0 0 -0.25 0 0 0 -0.25 -0.25 0 0 -0.25 0 0 0 -0.25 0 0 0 -0.25 0 0 -0.25 -0.25 0 0 0 -0.25 0 0 0 -0.25 0 0 0 -0.25 -0.25 0 0 -0.25 0 0 0 -0.25 0 0 0 -0.25 0 0 0 -0.25 0 0 0 -0.25 0 0 0 -0.25 0.25 0 0 0 0 0.25 0 0 0 0.25 0 0 0 0.25 0.25 0 0 0.25 0 0 0 0.25 0 0 0 0.25 0 0 0 0.25 0 0 0.25 0.25 0 0 0 0.25 0 0 0 0.25 0 0 0 0.25 0.25 0 0 0.25 0 0 0 0.25 0 0 0 0.25 0 0 0.25 0.25 0 0 0 0.25 0 0 0 0zm0.5 1.25l0.25 0 -0.25 0.25 0 -0.25 0 0 0 0 0 0 -0.25 0 0 0 0 0 0 -0.25 0 0 0 0 0 0 0 0 -0.25 0 0 0 0 -0.25 0 0 0 0 0 0 0 0 0 0 -0.25 -0.25 0 0 0 0 0 0 0 0 0 0 0 -0.25 0 0 0 0 0 0 0 0 -0.25 -0.25 0.5 0 0 0 0 0 0 0 0 0.25 0 0 0 0 0 0 0 0 0.25 0 0 0 0 0.25 0 0 0 0 0 0 0 0 0 0 0 0 0 0.25 0.25 0 0 0 0 0 0 0 0 0 0 0 0 0.25 0 0 0.25 0 0 0 0 0 0 0 0 0.25 0 0 -0.25 0 -0 0zm0.25 0l0 0.5 -0.25 -0.25 0.25 -0.25 0 0zm1.25 -7l0.25 0.25 0 0 0 0.25 0 0 0 0.25 -0.25 0.25 0 0.25 0 0.25 0 0.25 0 0 -0.25 0.25 0 0.25 0 0.25 0 0.25 0 0.25 -0.25 0.25 0 0 0 0.25 0 0.25 0 0.25 0 0.25 -0.25 0.25 0 0.25 0 0 0 0.25 0 0.25 0 0.25 -0.25 0.25 0 0.25 0 0.25 0 0.25 0 0.25 -0.25 0 0 0.25 -0.25 0 0 -0.25 0 -0.25 0 -0.25 0.25 -0.25 0 0 0 -0.25 0 -0.25 0 -0.25 0 -0.25 0.25 -0.25 0 -0.25 0 -0.25 0 0 0 -0.25 0.25 -0.25 0 -0.25 0 -0.25 0 -0.25 0 -0.25 0 0 0.25 -0.25 0 -0.25 0 -0.25 0 -0.25 0 -0.25 0.25 -0.25 0 0 0 -0.25 0 -0.25 0 -0.25 0.25 -0.25 0 -0.25 0 0zm10.99 -16.99l0.25 0.25 0 0 -0.5 0.25 -0.5 0.5 -0.5 0.5 -0.25 0.5 -0.5 0.5 -0.5 0.25 -0.5 0.5 -0.5 0.5 -0.25 0.5 -0.5 0.5 -0.25 0.5 -0.5 0.5 -0.5 0.5 -0.25 0.5 -0.25 0.5 -0.5 0.75 -0.25 0.5 -0.5 0.5 -0.25 0.5 -0.25 0.5 -0.25 0.5 -0.25 0.75 -0.25 0.5 -0.5 0.5 -0.25 0.75 -0.25 0.5 -0.25 0.5 0 0.75 -0.25 0.5 -0.25 0.75 -0.25 0.5 -0.25 0.75 -0.25 -0.25 0.25 -0.5 0 -0.75 0.25 -0.5 0.25 -0.75 0.25 -0.5 0.25 -0.75 0.25 -0.5 0.25 -0.5 0.25 -0.75 0.25 -0.5 0.25 -0.5 0.5 -0.5 0.25 -0.75 0.25 -0.5 0.5 -0.5 0.25 -0.5 0.25 -0.5 0.5 -0.75 0.25 -0.5 0.5 -0.5 0.25 -0.5 0.5 -0.5 0.5 -0.5 0.25 -0.5 0.5 -0.5 0.5 -0.5 0.5 -0.25 0.25 -0.5 0.5 -0.5 0.5 -0.5 0.5 -0.5 0.5 -0.25 0 0zm0.75 -1.5l0.5 0 0 0 0 0 0 0 0 0.25 0 0 0 0 -0.25 0 0 0.25 0 0 0 0 0 0 0 0 0 0.25 0 0 0 0 0 0 0 0.25 0 0 -0.25 0 0 0 0 0 0 0.25 0 0 0 0 0 0 -0.25 0 0 0.25 0 0 0 0 0 0 0 0 -0.25 0 0 0.25 -0.25 -0.25 0 -0.25 0.25 0 0 0 0 0 0 0 0 0 0 -0.25 0 0 0.25 0 0 0 0 0 0 0 0 -0.25 0 0 0 0 0 0 0 0 0 -0.25 0.25 0 0 0 0 0 0 0 0 0 0 -0.25 0 0 0 0 0 0 0 0 0 -0.25 0 0 0 0 0 0 0 0 0 0zm0.25 -1.25l0.25 0 0 0 0 0 0 0 0 0.25 0 0 0 0 0 0 0 0 0 0 0 0 0 0.25 0 0 0 0 0 0 0 0 0 0 0 0.25 0 0 0 0 0 0 0 0 0 0 0 0 0 0.25 0 0 0 0 0 0 0 0 0 0 0 0 0 0.25 0 0 0 0 -0.5 0 0 0 0 -0.25 0 0 0 0 0 0 0 0 0 0 0 0 0 -0.25 0.25 0 0 0 0 0 0 0 0 0 0 -0.25 0 0 0 0 0 0 0 0 0 0 0 0 0 -0.25 0 0 0 0 0 0 0 0 0 0 0 -0.25 0 0 0 0 0 0 0 0 0 0 0 0zm2.5 -13.74l0.5 0 0 0 -0.25 0.5 0 0.25 0 0.5 -0.25 0.5 0 0.5 0 0.25 -0.25 0.5 0 0.5 0 0.25 -0.25 0.5 0 0.5 0 0.5 -0.25 0.25 0 0.5 0 0.5 -0.25 0.25 0 0.5 0 0.5 -0.25 0.5 0 0.25 0 0.5 0 0.5 -0.25 0.5 0 0.25 0 0.5 -0.25 0.5 0 0.5 0 0.25 -0.25 0.5 0 0.5 0 0.25 -0.25 0.5 -0.25 0 0 -0.5 0.25 -0.5 0 -0.25 0 -0.5 0.25 -0.5 0 -0.25 0 -0.5 0 -0.5 0.25 -0.5 0 -0.25 0 -0.5 0.25 -0.5 0 -0.5 0 -0.25 0.25 -0.5 0 -0.5 0 -0.25 0 -0.5 0.25 -0.5 0 -0.5 0 -0.25 0.25 -0.5 0 -0.5 0 -0.5 0.25 -0.25 0 -0.5 0 -0.5 0.25 -0.25 0 -0.5 0 -0.5 0.25 -0.5 0 -0.25 0 0 0 0zm2.75 -8.5l-0.25 -0.25 0.25 0.25 -0.25 0.25 0 0.25 0 0.25 0 0.25 -0.25 0.25 0 0.25 0 0.25 -0.25 0.5 0 0.25 0 0.25 -0.25 0.25 0 0.25 0 0.25 -0.25 0.25 0 0.25 0 0.25 0 0.25 -0.25 0.25 0 0.25 0 0.25 -0.25 0.25 0 0.25 0 0.25 0 0.5 -0.25 0.25 0 0.25 0 0.25 0 0.25 -0.25 0.25 0 0.25 0 0.25 0 0.25 -0.5 0 0 -0.25 0.25 -0.25 0 -0.5 0 -0.25 0 -0.25 0.25 -0.25 0 -0.25 0 -0.25 0 -0.25 0.25 -0.25 0 -0.25 0 -0.25 0.25 -0.25 0 -0.25 0 -0.25 0 -0.25 0.25 -0.25 0 -0.25 0 -0.5 0.25 -0.25 0 -0.25 0 -0.25 0.25 -0.25 0 -0.25 0 -0.25 0 -0.25 0.25 -0.25 0 -0.25 0 -0.25 0.25 -0.25 0 -0.25 0 -0.5 0.5 0.25 0 0zm-0.25 -0.25l0.5 -0.5 -0.25 0.75 -0.25 -0.25 -0 0zm-15.74 50.22l0 0 0 0 0 0 0 -0.25 0 0.25zm0 0.25l-0.25 0 0.25 -0.25 0 0.25zm0.75 -0.5l0 0.5 0 0 0 0 0 0 0 0 0 0 0 0 -0.25 0 0 0 0 0 0 0 0 0 0 0 0 0 0 0 0 0 0 0 0 0 0 0 0 0 0 0 -0.25 0 0 0 0 0 0 0 0 0 0 0 0 0 0 0 0 0 0 0 0 0 -0.25 0 0 0 0 -0.5 0 0 0 0 0.25 0 0 0 0 0 0 0 0 0 0 0 0 0 0 0 0 0 0 0 0 0 0.25 0 0 0 0 0 0 0 0 0 0 0 0 0 0 0 0 0 0 0 0 0 0 0 0 0 0 0 0 0 0 0 0.25 0 0 0 0 0 0 0zm0 0l0 0 0 0 0 0zm6.5 -3.5l0.25 0.25 0 0 -0.25 0.25 -0.25 0.25 -0.25 0 0 0.25 -0.25 0.25 -0.25 0 -0.25 0.25 0 0 -0.25 0.25 -0.25 0 -0.25 0.25 -0.25 0 0 0.25 -0.25 0 -0.25 0.25 -0.25 0 -0.25 0.25 0 0 -0.25 0.25 -0.25 0 -0.25 0 -0.25 0.25 -0.25 0 -0.25 0 -0.25 0.25 0 0 -0.25 0 -0.25 0.25 -0.25 0 -0.25 0 -0.25 0 -0.25 0.25 0 -0.5 0.25 0 0 0 0.25 -0.25 0.25 0 0.25 0 0.25 0 0.25 -0.25 0.25 0 0.25 0 0.25 -0.25 0 0 0.25 0 0.25 -0.25 0.25 0 0.25 -0.25 0 0 0.25 0 0.25 -0.25 0.25 0 0.25 -0.25 0 0 0.25 -0.25 0.25 0 0.25 -0.25 0 -0.25 0.25 0 0.25 -0.25 0.25 0 0 -0.25 0.25 0 0.25 -0.25 0.25 -0.25 0 0 0 0zm9 -12.49l0.25 0 0 0 0 0.5 -0.25 0.5 -0.25 0.5 -0.25 0.25 -0.25 0.5 -0.25 0.5 -0.25 0.5 -0.25 0.25 -0.25 0.5 -0.25 0.5 -0.25 0.25 -0.25 0.5 -0.25 0.5 -0.25 0.25 -0.25 0.5 -0.5 0.5 -0.25 0.25 -0.25 0.5 -0.25 0.25 -0.25 0.5 -0.25 0.5 -0.5 0.25 -0.25 0.5 -0.25 0.25 -0.5 0.5 -0.25 0.25 -0.25 0.25 -0.5 0.5 -0.25 0.25 -0.5 0.5 -0.25 0.25 -0.25 0.25 -0.25 -0.25 0.25 -0.25 0.25 -0.25 0.5 -0.5 0.25 -0.25 0.5 -0.5 0.25 -0.25 0.25 -0.25 0.5 -0.5 0.25 -0.25 0.25 -0.5 0.25 -0.25 0.5 -0.5 0.25 -0.5 0.25 -0.25 0.25 -0.5 0.25 -0.25 0.25 -0.5 0.25 -0.25 0.25 -0.5 0.5 -0.5 0.25 -0.25 0.25 -0.5 0.25 -0.5 0.25 -0.25 0.25 -0.5 0.25 -0.5 0 -0.5 0.25 -0.25 0.25 -0.5 0.25 -0.5 0.25 -0.5 0.25 -0.25 0 0 0 0zm8.74 -13.5l0.5 0.25 0 0 -0.5 0.25 -0.25 0.5 -0.25 0.5 -0.5 0.25 -0.25 0.5 -0.25 0.25 -0.25 0.5 -0.25 0.25 -0.5 0.5 -0.25 0.5 -0.25 0.25 -0.25 0.5 -0.25 0.5 -0.25 0.25 -0.5 0.5 -0.25 0.5 -0.25 0.25 -0.25 0.5 -0.25 0.5 -0.25 0.25 -0.25 0.5 -0.25 0.5 -0.25 0.25 -0.25 0.5 -0.25 0.5 -0.25 0.5 -0.25 0.25 -0.25 0.5 -0.25 0.5 -0.25 0.5 -0.25 0.25 -0.25 0.5 -0.25 0 0.25 -0.5 0.25 -0.5 0.25 -0.5 0.25 -0.5 0.25 -0.25 0.25 -0.5 0.25 -0.5 0.25 -0.5 0.25 -0.25 0.25 -0.5 0.25 -0.5 0.25 -0.5 0.25 -0.25 0.25 -0.5 0.25 -0.5 0.25 -0.25 0.25 -0.5 0.25 -0.5 0.25 -0.25 0.5 -0.5 0.25 -0.5 0.25 -0.25 0.25 -0.5 0.25 -0.25 0.5 -0.5 0.25 -0.5 0.25 -0.25 0.25 -0.5 0.5 -0.25 0.25 -0.5 0.25 -0.25 0.25 -0.5 0 0 0 0zm2 -1.75l0 -0.25 0.25 0.25 0 0 -0.25 0 0 0.25 0 0 0 0 -0.25 0 0 0.25 0 0 0 0 -0.25 0 0 0.25 0 0 0 0 -0.25 0.25 0 0 0 0 0 0 0 0.25 -0.25 0 0 0 0 0 0 0.25 -0.25 0 0 0 0 0 0 0 0 0.25 -0.25 0 0 0 0 0 0 0.25 0 0 -0.5 -0.25 0.25 0 0 -0.25 0 0 0 0 0 0 0.25 0 0 -0.25 0 0 0 0 0.25 0 0 -0.25 0 0 0 0 0 0 0.25 -0.25 0 0 0 0 0 0 0.25 -0.25 0 0 0 0 0 0 0 -0.25 0.25 0 0 0 0 -0.25 0 0 0.25 0 0 0 0 -0.25 0 0 0.25 0 0 0.25 0 0zm0 -0.25l0.5 -0.25 -0.25 0.5 -0.25 -0.25 -0 0zm-20.24 14.24l-0.5 -0.25 0 0 0.5 -0.75 0.5 -0.5 0.75 -0.75 0.5 -0.5 0.5 -0.75 0.5 -0.5 0.75 -0.75 0.5 -0.5 0.75 -0.5 0.5 -0.5 0.75 -0.5 0.5 -0.5 0.75 -0.5 0.5 -0.5 0.75 -0.5 0.75 -0.5 0.5 -0.25 0.75 -0.5 0.75 -0.5 0.75 -0.25 0.5 -0.5 0.75 -0.25 0.75 -0.5 0.75 -0.25 0.75 -0.25 0.5 -0.25 0.75 -0.5 0.75 -0.25 0.75 -0.25 0.75 -0.25 0.5 -0.25 0.75 0 0 0.25 -0.5 0.25 -0.75 0.25 -0.75 0.25 -0.5 0.25 -0.75 0.25 -0.75 0.25 -0.75 0.25 -0.75 0.25 -0.5 0.5 -0.75 0.25 -0.75 0.25 -0.75 0.5 -0.5 0.5 -0.75 0.25 -0.75 0.5 -0.5 0.25 -0.75 0.5 -0.75 0.5 -0.5 0.5 -0.75 0.5 -0.75 0.5 -0.5 0.5 -0.5 0.5 -0.75 0.5 -0.5 0.75 -0.75 0.5 -0.5 0.5 -0.5 0.75 -0.5 0.5 -0.5 0.75 -0.5 0.5 -0.5 0.75 0 0 0 0zm-6.74 17.24l0 0.5 0 -0.25 0 -0.5 0 -0.75 0 -0.5 0 -0.75 0.25 -0.5 0 -0.75 0.25 -0.5 0 -0.5 0.25 -0.75 0 -0.5 0.25 -0.5 0 -0.75 0.25 -0.5 0.25 -0.5 0.25 -0.5 0 -0.75 0.25 -0.5 0.25 -0.5 0.25 -0.5 0.25 -0.5 0.25 -0.5 0.25 -0.75 0.25 -0.5 0.25 -0.5 0.25 -0.5 0.5 -0.5 0.25 -0.5 0.25 -0.5 0.25 -0.5 0.5 -0.5 0.25 -0.5 0.25 -0.5 0.5 0.25 -0.5 0.5 -0.25 0.5 -0.25 0.5 -0.5 0.5 -0.25 0.5 -0.25 0.5 -0.25 0.5 -0.5 0.5 -0.25 0.5 -0.25 0.5 -0.25 0.5 -0.25 0.5 -0.25 0.5 -0.25 0.75 0 0.5 -0.25 0.5 -0.25 0.5 -0.25 0.5 0 0.75 -0.25 0.5 -0.25 0.5 0 0.5 -0.25 0.75 0 0.5 -0.25 0.5 0 0.75 -0.25 0.5 0 0.5 0 0.75 -0.25 0.5 0 0.75 0 0.5 -0.25 -0.25 0 0zm0 0.5l-0.25 0 0.25 -0.25 0 0.25zm-39.73 -31.73l0 0 0 0 0 0 0 -0.25 0 0.25zm-0.25 0l-0.5 -0.5 0.75 0.25 -0.25 0.25 0 0zm0.75 0.25l-0.5 0.25 0 0 0 0 0 0 0 0 0 0 0 -0.25 0 0 0 0 0 0 0 0 0 0 0 0 0 0 0 0 0 0 0 0 0 0 0 0 0 0 0 0 0 0 0 0 0 0 0 0 -0.25 0 0 0 0 0 0 -0.25 0 0 0 0 0 0 0 0 0 0 0.25 -0.25 0 0 0 0 0 0 0 0 0 0.25 0.25 0 0 0 0 0 0 0 0 0 0 0 0 0 0 0 0 0 0 0 0 0 0 0 0 0 0 0 0 0 0 0 0 0 0 0 0 0 0 0 0 0 0 0 0 0.25 0 0 0 0 0 0 0 0 0.25 0 0 0zm-0.25 0l0.25 0 0.25 0.5 -0.5 -0.5 0 0zm10.24 14.74l-0.25 0.25 0 0 -0.25 -0.5 -0.25 -0.5 -0.25 -0.5 -0.25 -0.5 -0.25 -0.5 -0.5 -0.5 -0.25 -0.5 -0.25 -0.5 -0.25 -0.5 -0.25 -0.5 -0.25 -0.5 -0.25 -0.5 -0.5 -0.5 -0.25 -0.5 -0.25 -0.25 -0.25 -0.5 -0.5 -0.5 -0.25 -0.5 -0.25 -0.5 -0.25 -0.5 -0.5 -0.25 -0.25 -0.5 -0.25 -0.5 -0.5 -0.5 -0.25 -0.25 -0.5 -0.5 -0.25 -0.5 -0.5 -0.5 -0.25 -0.25 -0.5 -0.5 -0.25 -0.5 -0.5 -0.25 0.5 -0.25 0.25 0.25 0.5 0.5 0.25 0.5 0.5 0.25 0.25 0.5 0.25 0.5 0.5 0.5 0.25 0.25 0.5 0.5 0.25 0.5 0.25 0.5 0.5 0.5 0.25 0.25 0.25 0.5 0.5 0.5 0.25 0.5 0.25 0.5 0.25 0.5 0.5 0.5 0.25 0.25 0.25 0.5 0.25 0.5 0.25 0.5 0.5 0.5 0.25 0.5 0.25 0.5 0.25 0.5 0.25 0.5 0.25 0.5 0.25 0.5 0.25 0.5 0.25 0.5 0 0zm4.74 7.74l-0.25 0 0 0 -0.25 0 -0.25 -0.25 0 -0.25 -0.25 -0.25 -0.25 -0.25 0 -0.25 -0.25 -0.25 0 -0.25 -0.25 -0.25 -0.25 -0.25 0 -0.25 -0.25 -0.25 0 -0.25 -0.25 -0.25 -0.25 -0.25 0 -0.25 -0.25 -0.25 0 -0.25 -0.25 -0.25 0 -0.25 -0.25 -0.25 -0.25 -0.25 0 -0.25 -0.25 -0.25 0 -0.25 -0.25 0 0 -0.25 -0.25 -0.25 0 -0.25 -0.25 -0.25 0 -0.25 -0.25 -0.25 0.25 -0.25 0.25 0.25 0 0.25 0.25 0.25 0 0.25 0.25 0.25 0.25 0.25 0 0.25 0.25 0.25 0 0.25 0.25 0.25 0 0.25 0.25 0.25 0 0.25 0.25 0.25 0.25 0.25 0 0.25 0.25 0 0 0.25 0.25 0.25 0 0.25 0.25 0.25 0.25 0.25 0 0.25 0.25 0.25 0 0.25 0.25 0.25 0.25 0.25 0 0.25 0.25 0.25 0 0.25 0.25 0.25 0.25 0.25 0 0zm10 8.24l-0.25 0.25 0 0 -0.5 0 -0.25 -0.25 -0.5 -0.25 -0.25 0 -0.5 -0.25 -0.25 -0.25 -0.5 -0.25 -0.25 -0.25 -0.5 0 -0.25 -0.25 -0.5 -0.25 -0.25 -0.25 -0.25 -0.25 -0.25 -0.25 -0.5 -0.25 -0.25 -0.25 -0.25 -0.5 -0.25 -0.25 -0.5 -0.25 -0.25 -0.25 -0.25 -0.25 -0.25 -0.25 -0.25 -0.5 -0.25 -0.25 -0.25 -0.25 -0.25 -0.25 -0.25 -0.5 -0.5 -0.25 -0.25 -0.25 -0.25 -0.5 -0.25 -0.25 0 -0.5 0.25 0 0.25 0.25 0.25 0.25 0.25 0.5 0.25 0.25 0.25 0.25 0.25 0.5 0.25 0.25 0.25 0.25 0.25 0.25 0.25 0.5 0.25 0.25 0.25 0.25 0.25 0.25 0.5 0.25 0.25 0.25 0.25 0.25 0.25 0.5 0.25 0.25 0.5 0.25 0.25 0.25 0.25 0 0.5 0.25 0.25 0.25 0.25 0.25 0.5 0.25 0.25 0.25 0.5 0.25 0.25 0 0.5 0.25 0.25 0.25 0.5 0 0.5 0.25 0 0 0 0zm1.5 0.5l0.25 0 -0.25 0.25 0 0 0 0 0 0 -0.25 0 0 0 0 0 0 0 -0.25 0 0 0 0 -0.25 0 0 -0.25 0 0 0 0 0 0 0 -0.25 0 0 0 0 0 0 0 0 0 -0.25 0 0 0 0 0 0 0 0 0 -0.25 0 0 0 0 -0.25 0 0 0 0 -0.25 0 0 0 0.25 -0.25 0 0 0 0 0 0 0 0 0.25 0 0 0 0 0 0 0 0 0 0.25 0 0 0 0 0 0 0.25 0 0 0.25 0 0 0 0 0 0 0 0.25 0 0 0 0 0 0 0 0 0 0.25 0 0 0 0 0 0 0 0.25 0 0 0 0 0.25 0 0 0.25 0 -0.25 0zm0.25 0l0 0.25 -0.25 0 0.25 -0.25zm-8.74 -19.99l0.25 -0.25 0 0 0.5 0.5 0.5 0.75 0.5 0.5 0.5 0.5 0.25 0.5 0.5 0.75 0.25 0.5 0.5 0.5 0.25 0.75 0.5 0.5 0.25 0.5 0.25 0.75 0.5 0.5 0.25 0.75 0.25 0.5 0.25 0.75 0.25 0.5 0.25 0.75 0.25 0.5 0.25 0.75 0.25 0.75 0 0.5 0.25 0.75 0.25 0.75 0 0.5 0.25 0.75 0 0.75 0.25 0.75 0 0.75 0.25 0.75 0 0.5 0 0.75 -0.25 0 -0.25 -0.5 0 -0.75 0 -0.75 -0.25 -0.75 0 -0.75 0 -0.75 -0.25 -0.5 -0.25 -0.75 0 -0.75 -0.25 -0.5 -0.25 -0.75 -0.25 -0.75 0 -0.5 -0.25 -0.75 -0.25 -0.5 -0.25 -0.75 -0.25 -0.5 -0.5 -0.75 -0.25 -0.5 -0.25 -0.75 -0.25 -0.5 -0.5 -0.5 -0.25 -0.75 -0.25 -0.5 -0.5 -0.5 -0.25 -0.75 -0.5 -0.5 -0.5 -0.5 -0.25 -0.5 -0.5 -0.5 -0.5 -0.75 -0.5 -0.5 0 0zm-18.24 -11.74l-0.25 0.25 0.25 -0.25 0.75 0.25 0.5 0.25 0.75 0.25 0.75 0.25 0.5 0.25 0.75 0.25 0.5 0.25 0.75 0.25 0.5 0.25 0.75 0.25 0.5 0.25 0.75 0.5 0.5 0.25 0.75 0.25 0.5 0.5 0.5 0.25 0.75 0.25 0.5 0.5 0.5 0.25 0.75 0.5 0.5 0.5 0.5 0.25 0.5 0.5 0.5 0.5 0.5 0.25 0.5 0.5 0.75 0.5 0.5 0.5 0.5 0.5 0.5 0.5 0.25 0.5 0.5 0.5 -0.25 0.25 -0.5 -0.5 -0.5 -0.5 -0.25 -0.5 -0.5 -0.5 -0.5 -0.5 -0.75 -0.5 -0.5 -0.25 -0.5 -0.5 -0.5 -0.5 -0.5 -0.5 -0.5 -0.25 -0.5 -0.5 -0.75 -0.25 -0.5 -0.5 -0.5 -0.25 -0.5 -0.5 -0.75 -0.25 -0.5 -0.25 -0.5 -0.5 -0.75 -0.25 -0.5 -0.25 -0.75 -0.25 -0.5 -0.5 -0.75 -0.25 -0.5 -0.25 -0.75 -0.25 -0.5 -0.25 -0.75 -0.25 -0.75 -0.25 -0.5 -0.25 -0.75 -0.25 -0.5 -0.25 0 -0.25zm-0.25 0.25l-0.5 -0.5 0.75 0.25 -0.25 0.25 0 0zm33.73 28.98l0 0 0 0 0 0 0 0.25 0 -0.25zm0 0l0 0 0 0 0 0zm0 0l-0.5 0 0.25 0 0 0 0 0 0 0 0 0 0 0 0 0 0 0 0 0 0 0 0 0 0 0 0 0 0 0 0 0 0 0 0 0 0 0 0 0 0 0 0 0 0 0 0 0 0 0 0 0 0 0 0 0 0 0 0 0 0.25 0 0 0 0 0 0 0 0 0.25 0 0 0 0 0 0 -0.25 0 0 0 0 0 0 0 0 0 0 0 0 0 0 0 0 0 0 0 0 0 0 0 0 0 0 0 0 0 0 0 0 0 0 0 0 0 0 0 0 0 0 0 0 0 0 0 0 0 0 0 0 0 0 0 0 0 0.25 -0.25 0 0zm-0.5 0l0 0 0.25 0 -0.25 0zm0.25 1.25l-0.5 0 0 0 0 0 0 0 0 -0.25 0 0 0 0 0 0 0 0 0 0 0.25 0 0 -0.25 0 0 0 0 0 0 0 0 0 0 0 0 0 -0.25 0 0 0 0 0 0 0 0 0 0 0 0 0 -0.25 0 0 0 0 0 0 0 0 0 0 0 0 0 -0.25 0 0 0.5 0 -0.25 0.25 0 0 0 0 0 0 0 0 0 0 0 0 0 0.25 0 0 0 0 0 0 0 0 0 0 0 0 0 0.25 0 0 0 0 0 0 0 0 0 0 0 0 0 0.25 0 0 0 0 0 0 0 0 0 0 0 0 0 0 0 0.25 0 0 0 0 0 0zm0 0l0 0 0 0 0 0zm0.5 0.25l0.25 -0.25 -0.25 0.25 0 0 0 0 0 0 0 0 0 0 0 0 -0.25 0 0 0 0 0 0 0 0 0 0 0 0 0 -0.25 0 0 0 0 0 0 0 0 0 0 0 0 0 0 0 -0.25 0 0 0 0 0 0 0 0 0 0 0 0 0 0 0 0 -0.25 0 0 -0.25 0 0.5 0 0 0 0 -0.25 0 0 0 0 0 0 0 0 0 0 0 0 0 0 0 0 0 0 0 0 0 0 0 0 0 0.25 0 0 0.25 0 0 0 0 0 0 0 0 0 0 0 0 0 0.25 0 0 0 0 0 0 0 0 0 0 0 0 0 0.25 0 0 0 -0.25 0.25 0 0zm0.25 -0.25l0.25 0.5 -0.5 -0.25 0.25 -0.25 0 0zm-0.5 -1l0 -0.25 0 0 0 0 0 0 0 0.25 0.25 0 0 0 0 0 0 0 0 0 0 0 0 0.25 0 0 0 0 0 0 0 0 0 0 0 0.25 0 0 0 0 0 0 0 0 0 0 0.25 0.25 0 0 0 0 0 0 0 0 0 0 0 0.25 0 0 0 0 0 0 0 0 -0.25 0.25 0 0 0 0 0 -0.25 0 0 0 0 -0.25 0 0 0 0 -0.25 0 0 0 0 0 0 0 0 0 0 0 -0.25 0 0 0 0 0 0 0 0 0 0 0 -0.25 0 0 -0.25 0 0 0 0 0 0 0 0 0 0 -0.25 0 0 0 0 0 0 0 0 0 0 0.25 0zm0 -0.25l0 0 0 0 0 0z"/>
    </g>
    <g>
     <path class="fil1" d="M29.2 105.33c0.5,-0.75 1,-1 2,-1 6.99,0 14.24,0 21.48,0 0,0 0,0 0,0 1.25,0 1.75,0.5 1.75,1.25 0,0.75 -0.5,1.25 -1.75,1.25 -7.24,0 -14.49,0 -21.74,0 -0.75,0 -1.5,-0.25 -1.75,-1 0,-0.25 0,-0.5 0,-0.5l0 0z"/>
     <path id="_1_43" class="fil1" d="M31.2 104.07l0 0.5 0 0 -0.25 0 0 0 0 0 0 0 -0.25 0 0 0 0 0 -0.25 0 0 0 0 0 0 0 -0.25 0 0 0 0 0 0 0 0 0 -0.25 0 0 0.25 0 0 0 0 0 0 -0.25 0 0 0 0 0 0 0.25 0 0 -0.25 0 0 0 0 0 0 0.25 0 0 0 0 -0.5 -0.25 0.25 0 0 0 0 -0.25 0 0 0 0 0.25 0 0 -0.25 0 0 0 0 0 0 0.25 0 0 0 0 -0.25 0 0 0.25 0 0 0 0 0 0.25 0 0 0 0 0 0 0 0.25 0 0 -0.25 0 0 0.25 0 0 0 0 0 0 0 0.25 0 0 0 0 0 0.25 0 0 0 0 -0zm21.48 0l0 0.5 0 0 -0.75 0 -0.75 0 -0.5 0 -0.75 0 -0.75 0 -0.5 0 -0.75 0 -0.75 0 -0.5 0 -0.75 0 -0.75 0 -0.75 0 -0.5 0 -0.75 0 -0.75 0 -0.5 0 -0.75 0 -0.75 0 -0.5 0 -0.75 0 -0.75 0 -0.5 0 -0.75 0 -0.75 0 -0.75 0 -0.5 0 -0.75 0 -0.75 0 -0.5 0 -0.75 0 -0.75 0 -0.5 0 0 -0.5 0.5 0 0.75 0 0.75 0 0.5 0 0.75 0 0.75 0 0.5 0 0.75 0 0.75 0 0.75 0 0.5 0 0.75 0 0.75 0 0.5 0 0.75 0 0.75 0 0.5 0 0.75 0 0.75 0 0.5 0 0.75 0 0.75 0 0.75 0 0.5 0 0.75 0 0.75 0 0.5 0 0.75 0 0.75 0 0.5 0 0.75 0 0.75 0 0 0zm0 0l0 0.5 0 0 0 0 0 0 0 0 0 0 0 0 0 0 0 0 0 0 0 0 0 0 0 0 0 0 0 0 0 0 0 0 0 0 0 0 0 0 0 0 0 0 0 0 0 0 0 0 0 0 0 0 0 0 0 0 0 0 0 0 0 0 0 0 0 0 0 -0.5 0 0 0 0 0 0 0 0 0 0 0 0 0 0 0 0 0 0 0 0 0 0 0 0 0 0 0 0 0 0 0 0 0 0 0 0 0 0 0 0 0 0 0 0 0 0 0 0 0 0 0 0 0 0 0 0 0 0 0 0 0 0 0 0 0 0zm0 0.5l0 0 0 0 0 0zm2 1l-0.5 0 0 0 0 0 0 0 0 -0.25 0 0 0 0 0 0 0 0 0 -0.25 0 0 0 0 0 0 0 0 0 -0.25 -0.25 0 0 0 0 0 0 0 0 0 -0.25 0 0 0 0 -0.25 0 0 -0.25 0 0 0 0 0 -0.25 0 0 0 0 0 -0.25 0 0 0 0 0 -0.25 0 0 -0.5 0.25 0 0 0 0.25 0 0 0 0 0 0.25 0.25 0 0 0.25 0 0 0 0 0 0 0 0.25 0 0 0 0 0 0.25 0.25 0 0 0 0 0 0 0.25 0 0 0.25 0 0 0 0 0 0 0 0.25 0.25 0 0 0 0 0.25 0 0 0 0 0 0.25 0 0 0 0 0 0 0 0zm-2 1.5l0 -0.5 0 0 0.25 0 0 0 0.25 0 0 0 0 0 0.25 0 0 0 0 0 0 0 0.25 0 0 0 0 0 0 0 0.25 -0.25 0 0 0 0 0 0 0 0 0 0 0.25 0 0 -0.25 0 0 0 0 0 0 0 0 0 0 0 -0.25 0 0 0 0 0 0 0 -0.25 0 0 0.5 0 0 0.25 0 0 0 0 0 0.25 0 0 0 0 -0.25 0 0 0.25 0 0 0 0 0 0 0 0.25 0 0 -0.25 0 0 0 0 0 0 0.25 -0.25 0 0 0 0 0 -0.25 0 0 0 0 0 -0.25 0 0 0.25 0 0 -0.25 0 0 0 0 0 -0.25 0 0 0 -0.25 0 0 0 -0 0zm-21.74 0l0 -0.5 0 0 0.75 0 0.75 0 0.5 0 0.75 0 0.75 0 0.5 0 0.75 0 0.75 0 0.75 0 0.5 0 0.75 0 0.75 0 0.75 0 0.5 0 0.75 0 0.75 0 0.5 0 0.75 0 0.75 0 0.75 0 0.5 0 0.75 0 0.75 0 0.75 0 0.5 0 0.75 0 0.75 0 0.75 0 0.5 0 0.75 0 0.75 0 0.5 0 0 0.5 -0.5 0 -0.75 0 -0.75 0 -0.5 0 -0.75 0 -0.75 0 -0.75 0 -0.5 0 -0.75 0 -0.75 0 -0.75 0 -0.5 0 -0.75 0 -0.75 0 -0.75 0 -0.5 0 -0.75 0 -0.75 0 -0.5 0 -0.75 0 -0.75 0 -0.75 0 -0.5 0 -0.75 0 -0.75 0 -0.75 0 -0.5 0 -0.75 0 -0.75 0 -0.5 0 -0.75 0 -0.75 0 0 0zm-2 -1.25l0.5 0 0 0 0 0 0 0 0 0.25 0 0 0 0 0 0 0.25 0 0 0.25 0 0 0 0 0 0 0 0 0.25 0 0 0 0 0.25 0 0 0 0 0.25 0 0 0 0 0 0 0 0 0 0.25 0 0 0 0 0 0 0 0.25 0 0 0 0 0 0.25 0 0 0 0 0 0 0.5 0 0 -0.25 0 0 0 0 0 0 0 -0.25 0 0 0 0 0 -0.25 0 0 0 0 -0.25 0 0 -0.25 0 0 0 0 0 0 0 -0.25 0 0 0 0 0 0 -0.25 -0.25 0 0 0 0 0 0 0 0 -0.25 -0.25 0 0 0 0 0 0 -0.25 0 0 -0.25 0 0 0 0 -0.25 -0 0zm0 0.25l0 -0.25 0 0 0 0.25zm0 -1l0.5 0.25 0 0 0 0 0 0 0 0 0 0 0 0 0 0 0 0 0 0 0 0 0 0 0 0.25 0 0 0 0 0 0 0 0 0 0 0 0 0 0 0 0 0 0 0 0 0 0 0 0 0 0.25 0 0 0 0 0 0 0 0 0 0 0 0 0 0 0 0 -0.5 0 0 0 0 0 0 0 0 0 0 0 0 0 0 0 0 0 0 -0.25 0 0 0 0 0 0 0 0 0 0 0 0 0 0 0 0 0 0 0 0 0 0 0 0 0 -0.25 0 0 0 0 0 0 0 0 0 0 0 0 0 0 0 0 0 0 0 0 0 -0.25zm0 0.25l0 -0.25 0 0 0 0.25z"/>
    </g>
    <g>
     <path class="fil1" d="M29.2 100.08c0.5,-0.75 1,-1 2,-1 4,0 8.24,0 12.24,0 0.25,0 0.25,0 0.5,0 1,0 1.5,0.5 1.5,1.5 0,0.5 -0.75,1 -1.5,1 -4.5,0 -8.74,0 -13.24,0 -0.75,0 -1.25,-0.25 -1.5,-1 0,0 0,-0.25 0,-0.5z"/>
     <path id="_1_44" class="fil1" d="M31.2 99.08l0 0.25 0 0 -0.25 0 0 0 0 0 0 0 -0.25 0 0 0 0 0 -0.25 0 0 0 0 0 0 0 -0.25 0 0 0 0 0 0 0.25 0 0 -0.25 0 0 0 0 0 0 0 0 0 -0.25 0 0 0 0 0.25 0 0 0 0 -0.25 0 0 0 0 0.25 0 0 0 0 0 0 -0.5 -0.25 0.25 0 0 0 0 0 0 -0.25 0 0 0.25 0 0 0 0 -0.25 0 0 0 0 0.25 0 0 0 0 0 0 0 0.25 -0.25 0 0 0 0 0.25 0 0 0 0 0 0 0 0.25 0 0 0 0 0 0.25 0 0 0 0 0 0 0 0.25 0 0 0 0 0 0.25 0 0 0 0 0zm12.24 0l0 0.25 0 0 -0.25 0 -0.5 0 -0.25 0 -0.5 0 -0.25 0 -0.5 0 -0.25 0 -0.5 0 -0.5 0 -0.25 0 -0.5 0 -0.25 0 -0.5 0 -0.25 0 -0.5 0 -0.25 0 -0.5 0 -0.5 0 -0.25 0 -0.5 0 -0.25 0 -0.5 0 -0.25 0 -0.5 0 -0.25 0 -0.5 0 -0.5 0 -0.25 0 -0.5 0 -0.25 0 -0.5 0 -0.25 0 0 -0.25 0.25 0 0.5 0 0.25 0 0.5 0 0.25 0 0.5 0 0.5 0 0.25 0 0.5 0 0.25 0 0.5 0 0.25 0 0.5 0 0.25 0 0.5 0 0.5 0 0.25 0 0.5 0 0.25 0 0.5 0 0.25 0 0.5 0 0.25 0 0.5 0 0.5 0 0.25 0 0.5 0 0.25 0 0.5 0 0.25 0 0.5 0 0.25 0 0 0zm0.5 0l0 0.25 0 0 0 0 0 0 0 0 -0.25 0 0 0 0 0 0 0 0 0 0 0 0 0 0 0 0 0 0 0 0 0 0 0 0 0 0 0 0 0 0 0 0 0 0 0 0 0 0 0 0 0 0 0 0 0 0 0 0 0 -0.25 0 0 0 0 0 0 0 0 -0.25 0 0 0 0 0 0 0.25 0 0 0 0 0 0 0 0 0 0 0 0 0 0 0 0 0 0 0 0 0 0 0 0 0 0 0 0 0 0 0 0 0 0 0 0 0 0 0 0 0 0 0 0 0 0 0 0.25 0 0 0 0 0 0 0 0 0 0 0zm0 0.25l0 0 0 0 0 0zm1.75 1.25l-0.5 -0.25 0 0 0 0 0 0 0 0 0 0 0 -0.25 0 0 0 0 0 0 0 0 0 -0.25 -0.25 0 0 0 0 0 0 0 0 0 0 -0.25 0 0 -0.25 0 0 0 0 0 0 0 0 0 -0.25 0 0 -0.25 0 0 0 0 -0.25 0 0 0 0 0 -0.25 0 0 0 0 0 0 -0.25 0 0 0 0 0.25 0 0 0 0.25 0 0 0 0 0 0.25 0 0 0 0 0 0 0 0.25 0.25 0 0 0 0 0 0 0.25 0 0 0 0 0.25 0 0 0.25 0 0 0 0 0.25 0 0 0 0 0 0 0 0.25 0 0 0 0 0.25 0.25 0 0 0 0 0 0.25 0 0 0 0zm0 0l0 0 0 0 0 0zm-1.75 1.25l0 -0.25 0 0 0 0 0 0 0.25 0 0 -0.25 0 0 0 0 0.25 0 0 0 0 0 0 0 0.25 0 0 0 0 0 0 0 0 0 0.25 -0.25 0 0 0 0 0 0 0 0 0 0 0 0 0.25 -0.25 0 0 0 0 0 0 0 0 0 -0.25 0 0 0 0 0 0 0 -0.25 0.5 0.25 0 0 -0.25 0 0 0 0 0.25 0 0 0 0 0 0.25 0 0 0 0 0 0 0 0.25 -0.25 0 0 0 0 0 0 0 0 0.25 -0.25 0 0 0 0 0 0 0 -0.25 0 0 0 0 0.25 -0.25 0 0 0 0 0 -0.25 0 0 0 0 0 -0.25 0 0 0 0 0 0 0 0 0zm-13.24 0l0 -0.25 0 0 0.5 0 0.5 0 0.25 0 0.5 0 0.5 0 0.25 0 0.5 0 0.25 0 0.5 0 0.5 0 0.25 0 0.5 0 0.5 0 0.25 0 0.5 0 0.5 0 0.25 0 0.5 0 0.25 0 0.5 0 0.5 0 0.25 0 0.5 0 0.5 0 0.25 0 0.5 0 0.5 0 0.25 0 0.5 0 0.25 0 0.5 0 0.5 0 0 0.25 -0.5 0 -0.5 0 -0.25 0 -0.5 0 -0.25 0 -0.5 0 -0.5 0 -0.25 0 -0.5 0 -0.5 0 -0.25 0 -0.5 0 -0.5 0 -0.25 0 -0.5 0 -0.25 0 -0.5 0 -0.5 0 -0.25 0 -0.5 0 -0.5 0 -0.25 0 -0.5 0 -0.5 0 -0.25 0 -0.5 0 -0.25 0 -0.5 0 -0.5 0 -0.25 0 -0.5 0 -0.5 0 0 0zm-1.75 -1.25l0.5 0 0 0 0 0 0 0.25 0 0 0 0 0 0 0 0 0.25 0.25 0 0 0 0 0 0 0 0 0 0 0 0 0.25 0.25 0 0 0 0 0 0 0 0 0 0 0.25 0 0 0 0 0 0 0 0 0 0.25 0 0 0.25 0 0 0 0 0.25 0 0 0 0 0 0 0 0 0.25 0 0 0 0 0 0 -0.25 0 0 0 0 0 -0.25 0 0 0 0 0 0 0 -0.25 0 0 0 0 -0.25 0 0 -0.25 0 0 0 0 0 0 0 -0.25 0 0 -0.25 0 0 0 0 0 0 0 0 -0.25 -0.25 0 0 0 0 0 0 0 0 0 -0.25 -0.25 0 0 0 0 -0.25 -0 0zm0 0.25l0 0 0 -0.25 0 0.25zm0 -1l0.5 0.25 0 0 0 0 0 0 0 0 0 0 0 0 0 0 0 0 0 0 0 0.25 0 0 0 0 0 0 0 0 0 0 0 0 0 0 0 0 0 0 0 0 0 0 0 0.25 0 0 0 0 0 0 0 0 0 0 0 0 0 0 0 0 0 0 0 0 0 0 -0.5 0 0 0 0 0 0 0 0 0 0 0 0 0 0 0 0 0 0 0 0 0 0 0 0 -0.25 0 0 0 0 0 0 0 0 0 0 0 0 0 0 0 0 0 0 0 0 0 0 0 -0.25 0 0 0 0 0 0 0 0 0 0 0 0 0 0 0 0 0 -0.25zm0 0.25l0 0 0 -0.25 0 0.25z"/>
    </g>
    <g>
     <path class="fil1" d="M99.66 106.82c-3.75,0 -7.24,0 -10.74,0 -0.25,0 -0.75,0 -1,0 -0.5,-0.25 -0.75,-0.5 -0.75,-1.25 -0.25,-0.5 0.25,-1 0.75,-1.25 0.25,0 0.75,0 1,0 7.25,0 14.24,0 21.49,0 0.25,0 0.75,0 1,0 0.5,0.25 1,0.75 0.75,1.25 0,0.75 -0.25,1.25 -1,1.25 -0.25,0 -0.5,0 -0.75,0 -3.5,0 -7.24,0 -10.74,0l0 0z"/>
     <path id="_1_45" class="fil1" d="M88.92 107.07l0 -0.5 0 0 0.25 0 0.25 0 0.5 0 0.25 0 0.25 0 0.5 0 0.25 0 0.25 0 0.5 0 0.25 0 0.5 0 0.25 0 0.25 0 0.5 0 0.25 0 0.25 0 0.5 0 0.25 0 0.25 0 0.5 0 0.25 0 0.25 0 0.5 0 0.25 0 0.25 0 0.5 0 0.25 0 0.25 0 0.5 0 0.25 0 0.5 0 0.25 0 0 0.5 -0.25 0 -0.5 0 -0.25 0 -0.5 0 -0.25 0 -0.25 0 -0.5 0 -0.25 0 -0.25 0 -0.5 0 -0.25 0 -0.25 0 -0.5 0 -0.25 0 -0.25 0 -0.5 0 -0.25 0 -0.25 0 -0.5 0 -0.25 0 -0.25 0 -0.5 0 -0.25 0 -0.5 0 -0.25 0 -0.25 0 -0.5 0 -0.25 0 -0.25 0 -0.5 0 -0.25 0 -0.25 0 0 0zm-1 0l0.25 -0.5 0 0 0 0 0 0 0 0 0 0 0 0 0 0 0 0 0 0 0 0 0 0 0.25 0 0 0 0 0 0 0 0 0 0 0 0 0 0 0 0 0 0 0 0.25 0 0 0 0 0 0 0 0 0 0 0 0 0 0 0 0 0 0 0 0.25 0 0 0 0 0.5 0 0 0 0 -0.25 0 0 0 0 0 0 0 0 0 0 0 0 0 0 0 0 0 -0.25 0 0 0 0 0 0 0 0 0 0 0 0 0 0 0 0 0 0 0 -0.25 0 0 0 0 0 0 0 0 0 0 0 0 0 0 0 0 0 -0.25 0 0 0 0 0zm0.25 -0.5l0 0 0 0 0 0zm-1.25 -1l0.25 0 0 0 0 0.25 0 0 0 0 0 0 0 0 0 0 0 0.25 0.25 0 0 0 0 0 0 0 0 0 0 0 0 0.25 0 0 0 0 0 0 0 0 0.25 0 0 0 0 0 0 0.25 0 0 0 0 0 0 0.25 0 0 0 0 0 0 0 0 0 0 0 0.25 0 -0.25 0.5 0 0 0 0 0 -0.25 -0.25 0 0 0 0 0 0 0 -0.25 0 0 0 0 0 0 0 0 -0.25 0 0 -0.25 0 0 0 0 0 0 0 0 -0.25 0 0 0 0 -0.25 0 0 0 0 0 0 -0.25 0 0 0 0 0 0 0 -0.25 0 0 0 0 0 0 0 -0.25 0 0 0 0zm0 0l0 0 0 0 0 0zm1 -1.25l0 0.25 0 0 0 0 0 0 0 0 -0.25 0 0 0.25 0 0 0 0 0 0 0 0 0 0 -0.25 0 0 0 0 0 0 0 0 0.25 0 0 0 0 0 0 0 0 0 0 0 0 -0.25 0.25 0 0 0 0 0 0 0 0 0 0 0 0.25 0 0 0 0 0 0 0 0 -0.25 0 0 0 0 0 0 0 0 -0.25 0 0 0 0 0 0 0 0 0 -0.25 0 0 0 0 0 0 0 -0.25 0 0 0.25 0 0 0 0 0 0 0 0 -0.25 0 0 0 0 0.25 0 0 0 0 0 0 -0.25 0 0 0.25 0 0 0 0 0 0 0 0 0 0.25 0 0 0zm1 -0.25l0 0.5 0 0 0 0 0 0 0 0 0 0 -0.25 0 0 0 0 0 0 0 0 0 0 0 0 0 0 0 -0.25 0 0 0 0 0 0 0 0 0 0 0 0 0 0 0 -0.25 0 0 0 0 0 0 0 0 0 0 0 0 0 0 0 -0.25 0 0 0 0 0 0 0 0 -0.25 0 0 0 0 0 0 0 0 0 0 0.25 0 0 0 0 0 0 -0.25 0 0 0 0 0 0 0 0 0.25 0 0 0 0 0 0 0 0 0 0 0 0 0 0.25 0 0 0 0 0 0 0 0 0 0 0 0 0 0.25 0 0 0 0 0 0 0 0 0 0 0 0 -0zm0 0l0 0 0 0 0 0zm21.49 0l0 0.5 0 0 -0.75 0 -0.75 0 -0.5 0 -0.75 0 -0.75 0 -0.5 0 -0.75 0 -0.75 0 -0.5 0 -0.75 0 -0.75 0 -0.5 0 -0.75 0 -0.75 0 -0.5 0 -0.75 0 -0.75 0 -0.5 0 -0.75 0 -0.75 0 -0.5 0 -0.75 0 -0.75 0 -0.75 0 -0.5 0 -0.75 0 -0.75 0 -0.5 0 -0.75 0 -0.75 0 -0.5 0 -0.75 0 0 -0.5 0.75 0 0.5 0 0.75 0 0.75 0 0.5 0 0.75 0 0.75 0 0.5 0 0.75 0 0.75 0 0.75 0 0.5 0 0.75 0 0.75 0 0.5 0 0.75 0 0.75 0 0.5 0 0.75 0 0.75 0 0.5 0 0.75 0 0.75 0 0.5 0 0.75 0 0.75 0 0.5 0 0.75 0 0.75 0 0.5 0 0.75 0 0.75 0 0 0zm1 0.25l0 0.25 0 0 0 0 -0.25 0 0 0 0 0 0 0 0 0 0 0 0 0 0 0 0 0 -0.25 0 0 0 0 0 0 0 0 0 0 0 0 0 0 0 -0.25 0 0 0 0 0 0 0 0 0 0 0 0 0 0 0 -0.25 0 0 0 0 0 0 0 0 0 0 0 0 -0.5 0 0 0 0 0 0 0 0 0 0 0.25 0 0 0 0 0 0 0 0 0 0 0 0 0 0.25 0 0 0 0 0 0 0 0 0 0 0 0 0 0 0 0.25 0 0 0 0 0 0 0 0 0.25 0 0 0 0 0.25 0 0 0 0 0 0 0 0 0 0 0 0 0zm1 1.25l-0.25 0 0 0 0 0 0 0 0 0 0 -0.25 0 0 0 0 0 0 0 0 -0.25 0 0 -0.25 0 0 0 0 0 0 0 0 0 0 0 0 0 0 0 -0.25 0 0 0 0 -0.25 0 0 0 0 0 0 0 0 0 0 0 0 -0.25 -0.25 0 0 0 0 0 0 0 0 0 0 -0.25 0 0 0.25 0 0 0 0 0 0 0 0 0 0.25 0 0 0.25 0 0 0 0 0 0 0.25 0 0 0 0 0 0 0.25 0 0 0 0 0 0 0.25 0 0 0.25 0 0 0 0 0 0 0 0 0 0.25 0 0 0 0 0 0 0 0.25 0 0 0 0 0 0 0 0zm-0.25 0l0 0 0 0 0 0zm-1 1.5l0 -0.5 0 0 0 0 0.25 0 0 0 0 0 0 0 0 0 0 0 0.25 0 0 0 0 0 0 -0.25 0 0 0 0 0 0 0.25 0 0 0 0 0 0 0 0 0 0 -0.25 0 0 0 0 0 0 0 0 0 0 0 -0.25 0.25 0 0 0 0 0 0 0 0 -0.25 0 0 0.25 0 0 0.25 0 0 0 0 0 0 0 0.25 0 0 0 0 0 0 0 0 0 0.25 -0.25 0 0 0 0 0 0 0.25 0 0 0 0 0 0 -0.25 0 0 0 0 0.25 0 0 0 0 0 0 -0.25 0 0 0 0 0 0 0 -0.25 0 0 0.25 0 0 0 0 -0.25 0 0 0 0 0zm0 0l0 0 0.25 0 -0.25 0zm-0.75 0l0 -0.5 0 0 0 0 0 0 0 0 0 0 0.25 0 0 0 0 0 0 0 0 0 0 0 0 0 0 0 0 0 0 0 0.25 0 0 0 0 0 0 0 0 0 0 0 0 0 0 0 0 0 0 0 0.25 0 0 0 0 0 0 0 0 0 0 0 0 0 0 0 0 0.5 0 0 0 0 0 0 0 0 0 0 0 0 0 0 0 0 -0.25 0 0 0 0 0 0 0 0 0 0 0 0 0 0 0 0 0 -0.25 0 0 0 0 0 0 0 0 0 0 0 0 0 0 0 0 0 0 0 -0.25 0 0 0 0 0 0 0 0 0 0 0zm-10.74 0l0 -0.5 0 0 0.25 0 0.5 0 0.25 0 0.25 0 0.5 0 0.25 0 0.25 0 0.5 0 0.25 0 0.25 0 0.5 0 0.25 0 0.25 0 0.5 0 0.25 0 0.25 0 0.5 0 0.25 0 0.25 0 0.5 0 0.25 0 0.5 0 0.25 0 0.25 0 0.5 0 0.25 0 0.25 0 0.5 0 0.25 0 0.25 0 0.5 0 0.25 0 0 0.5 -0.25 0 -0.5 0 -0.25 0 -0.25 0 -0.5 0 -0.25 0 -0.25 0 -0.5 0 -0.25 0 -0.25 0 -0.5 0 -0.25 0 -0.5 0 -0.25 0 -0.25 0 -0.5 0 -0.25 0 -0.25 0 -0.5 0 -0.25 0 -0.25 0 -0.5 0 -0.25 0 -0.25 0 -0.5 0 -0.25 0 -0.25 0 -0.5 0 -0.25 0 -0.25 0 -0.5 0 -0.25 0 0 0z"/>
    </g>
    <g>
     <path class="fil1" d="M104.16 101.58c-2.25,0 -4.5,0 -6.74,0 -0.5,0 -1,-0.25 -1.25,-0.75 0,-0.5 0.25,-1 0.5,-1.25 0,-0.25 0.5,-0.5 0.75,-0.5 4.5,0 9,0 13.49,0 0.75,0 1.5,0.75 1.25,1.25 0,0.75 -0.5,1.25 -1.25,1.25 -2.25,0 -4.5,0 -6.74,0l-0 0z"/>
     <path id="_1_46" class="fil1" d="M97.41 101.83l0 -0.25 0 0 0.25 0 0.25 0 0.25 0 0.25 0 0 0 0.25 0 0.25 0 0.25 0 0.25 0 0.25 0 0 0 0.25 0 0.25 0 0.25 0 0.25 0 0.25 0 0.25 0 0 0 0.25 0 0.25 0 0.25 0 0.25 0 0.25 0 0 0 0.25 0 0.25 0 0.25 0 0.25 0 0.25 0 0 0 0.25 0 0.25 0 0 0.25 -0.25 0 -0.25 0 0 0 -0.25 0 -0.25 0 -0.25 0 -0.25 0 -0.25 0 0 0 -0.25 0 -0.25 0 -0.25 0 -0.25 0 -0.25 0 0 0 -0.25 0 -0.25 0 -0.25 0 -0.25 0 -0.25 0 -0.25 0 0 0 -0.25 0 -0.25 0 -0.25 0 -0.25 0 -0.25 0 0 0 -0.25 0 -0.25 0 -0.25 0 -0.25 0 0 0zm-1.25 -1l0.25 0 0 0 0 0 0 0 0 0 0 0.25 0 0 0 0 0 0 0.25 0 0 0 0 0 0 0 0 0.25 0 0 0 0 0 0 0 0 0.25 0 0 0 0 0 0 0 0 0 0 0 0 0 0.25 0 0 0 0 0 0 0 0 0.25 0.25 0 0 0 0 0 0 0 0 0.25 0 0 0 0 0 0 -0.25 0 0 0 0 0 0 0 -0.25 0 0 0 0 0 0 0 -0.25 0 0 -0.25 0 0 0 0 0 0 -0.25 0 0 0 0 0 0 0 0 -0.25 0 0 -0.25 0 0 0 0 0 0 0 0 -0.25 0 0 0 0 0 0 0 -0.25 0 0 0 0zm0.25 0l0 0 0 0 0 0zm0 -1.5l0.25 0.25 0 0 0 0 0 0 0 0.25 0 0 0 0 0 0 0 0 0 0 0 0 0 0.25 -0.25 0 0 0 0 0 0 0 0 0 0 0 0 0.25 0 0 0 0 0 0 0 0 0 0 0 0.25 0 0 0 0 0 0 0 0 0 0 0 0 0 0.25 0 0 0 0 -0.25 0 0 0 0 0 0 0 0 -0.25 0 0 0 0 0 0 0 0 0 -0.25 0 0 0 0 0 0 0 0 0 -0.25 0 0 0 0 0 0 0 0 0 0 0 -0.25 0 0 0 0 0 0 0 0 0 -0.25 0 0 0.25 0 0 0 0 0 0 0 0 0 0 -0.25 0 0zm0 0l0 0 0 0 0 0zm1 -0.25l0 0.25 0 0 0 0 0 0 0 0 0 0 0 0 0 0 0 0 -0.25 0 0 0 0 0 0 0 0 0 0 0 0 0 0 0 -0.25 0 0 0 0 0.25 0 0 0 0 0 0 0 0 0 0 0 0 0 0 0 0 -0.25 0 0 0 0 0 0 0 0 0 0 0 -0.25 -0.25 0 0 0 0 0 0 0 0 0.25 0 0 0 0 0 0 0 0 -0.25 0 0 0 0 0 0 0.25 0 0 0 0 0 0 0 0 0 0 0 0 0 0.25 0 0 0 0 0 0 0 0 0 0 0 0.25 0 0 0 0 0 0 0 0 0 0 0 0 0 0 0zm0 0l0 0 0 0 0 0zm13.49 0l0 0.25 0 0 -0.5 0 -0.25 0 -0.5 0 -0.5 0 -0.25 0 -0.5 0 -0.5 0 -0.25 0 -0.5 0 -0.5 0 -0.25 0 -0.5 0 -0.5 0 -0.5 0 -0.25 0 -0.5 0 -0.5 0 -0.25 0 -0.5 0 -0.5 0 -0.25 0 -0.5 0 -0.5 0 -0.25 0 -0.5 0 -0.5 0 -0.25 0 -0.5 0 -0.5 0 -0.25 0 -0.5 0 -0.5 0 0 -0.25 0.5 0 0.5 0 0.25 0 0.5 0 0.5 0 0.25 0 0.5 0 0.5 0 0.25 0 0.5 0 0.5 0 0.25 0 0.5 0 0.5 0 0.25 0 0.5 0 0.5 0 0.25 0 0.5 0 0.5 0 0.5 0 0.25 0 0.5 0 0.5 0 0.25 0 0.5 0 0.5 0 0.25 0 0.5 0 0.5 0 0.25 0 0.5 0 0 0zm1.5 1.25l-0.25 0 0 0 0 0 0 0 0 0 0 0 0 -0.25 0 0 0 0 -0.25 0 0 0 0 -0.25 0 0 0 0 0 0 0 0 0 0 -0.25 -0.25 0 0 0 0 0 0 0 0 0 0 -0.25 0 0 0 0 -0.25 0 0 0 0 -0.25 0 0 0 0 0 -0.25 0 0 0 0 0 0 -0.25 0 0 0.25 0 0 0 0 0 0.25 0 0 0 0 0 0 0 0.25 0 0 0 0 0 0.25 0.25 0 0 0 0 0 0 0.25 0 0 0 0 0.25 0 0 0 0 0 0 0.25 0.25 0 0 0 0 0 0 0 0.25 0 0 0 0 0 0.25 0 0 0 0 0 0 0 0zm-0.25 0l0 0 0 0 0 0zm-1.25 1.5l0 -0.25 0 0 0 0 0 0 0.25 -0.25 0 0 0 0 0 0 0.25 0 0 0 0 0 0 0 0.25 0 0 0 0 0 0 0 0 0 0 -0.25 0.25 0 0 0 0 0 0 0 0 0 0 -0.25 0 0 0 0 0 0 0.25 0 0 0 0 -0.25 0 0 0 0 0 0 0 -0.25 0.25 0 0 0.25 0 0 0 0 0 0.25 0 0 0 0 0 0 0 0.25 0 0 -0.25 0 0 0 0 0.25 0 0 0 0 0 0 -0.25 0 0 0.25 0 0 0 0 -0.25 0 0 0 0 0 0 0.25 -0.25 0 0 0 0 0 -0.25 0 0 0 0 0 -0.25 0 0 0 0 0 0 0zm-6.75 0l0 -0.25 0 0 0.25 0 0.25 0 0.25 0 0 0 0.25 0 0.25 0 0.25 0 0.25 0 0.25 0 0 0 0.25 0 0.25 0 0.25 0 0.25 0 0.25 0 0 0 0.25 0 0.25 0 0.25 0 0.25 0 0.25 0 0 0 0.25 0 0.25 0 0.25 0 0.25 0 0.25 0 0 0 0.25 0 0.25 0 0.25 0 0.25 0 0 0.25 -0.25 0 -0.25 0 -0.25 0 -0.25 0 0 0 -0.25 0 -0.25 0 -0.25 0 -0.25 0 -0.25 0 0 0 -0.25 0 -0.25 0 -0.25 0 -0.25 0 -0.25 0 0 0 -0.25 0 -0.25 0 -0.25 0 -0.25 0 -0.25 0 0 0 -0.25 0 -0.25 0 -0.25 0 -0.25 0 -0.25 0 0 0 -0.25 0 -0.25 0 -0.25 0 0 0z"/>
    </g>
    <g>
     <path class="fil1" d="M38.2 58.35c0.75,0 1.25,0.5 1.25,1.25 0.25,0.5 -0.5,1.25 -1.25,1.25 -0.5,0 -1.25,-0.5 -1.25,-1.25 0,-0.75 0.75,-1.25 1.25,-1.25z"/>
     <path id="_1_47" class="fil1" d="M39.7 59.6l-0.25 0 0 0 0 -0.25 0 0 0 0 0 0 -0.25 0 0 -0.25 0 0 0 0 0 0 0 0 0 0 0 -0.25 0 0 0 0 -0.25 0 0 0 0 0 0 0 0 -0.25 0 0 -0.25 0 0 0 0 0 0 0 0 0 0 0 -0.25 0 0 0 0 0 0 0 -0.25 0 0 0 0 -0.5 0.25 0 0 0 0 0 0 0 0.25 0 0 0 0 0 0 0.25 0.25 0 0 0 0 0 0 0 0.25 0 0 0 0 0.25 0 0 0 0 0.25 0 0 0 0 0.25 0 0 0 0 0 0 0.25 0 0 0.25 0 0 0 0 0 0 0 0.25 0 0 0 0 0 0.25 0 0 0 0zm-1.5 1.5l0 -0.5 0 0 0.25 0 0 0 0 0 0 0 0 0 0.25 0 0 0 0 0 0 0 0 0 0.25 -0.25 0 0 0 0 0 0 0 0 0 0 0.25 0 0 -0.25 0 0 0 0 0 0 0 0 0 0 0 -0.25 0 0 0.25 0 0 0 0 0 0 -0.25 0 0 0 0 0 0 0.25 0 0 0 0 0 0 0 0 0.25 0 0 0 0 0 0.25 0 0 0 0 0 0 -0.25 0.25 0 0 0 0 0 0 0 0.25 0 0 -0.25 0 0 0 0 0 0 0.25 -0.25 0 0 0 0 0 0 0 -0.25 0 0 0 0 0 0 0 -0.25 0.25 0 0 0 0 -0.25 0 0 0 0 0zm-1.25 -1.5l0.25 0 0 0 0 0 0 0 0 0.25 0 0 0 0 0 0 0 0 0 0.25 0.25 0 0 0 0 0 0 0 0 0 0 0.25 0 0 0 0 0.25 0 0 0 0 0 0 0 0 0.25 0 0 0.25 0 0 0 0 0 0 0 0 0 0.25 0 0 0 0 0 0 0 0 0 0 0.5 0 0 0 0 0 0 -0.25 -0.25 0 0 0 0 -0.25 0 0 0 0 0 0 0 -0.25 0 0 0 0 -0.25 0 0 0 0 -0.25 0 0 0 0 0 0 -0.25 0 0 -0.25 0 0 0 0 -0.25 0 0 0 0 0 0 0 -0.25 0 0 0 0 0 0 0 -0.25 0 0 0 0 0 0zm1.25 -1.5l0 0.5 0 0 0 0 0 0 0 0 -0.25 0 0 0 0 0 0 0 0 0 -0.25 0 0 0 0 0 0 0 0 0.25 0 0 -0.25 0 0 0 0 0 0 0 0 0 0 0.25 0 0 0 0 -0.25 0 0 0 0 0.25 0 0 0 0 0 0 0 0 0 0.25 0 0 0 0 -0.25 0 0 0 0 -0.25 0 0 0 0 0 0 0 -0.25 0 0 0 0 0 0 0 -0.25 0 0 0.25 0 0 0 0 -0.25 0 0 0 0 0 0 0.25 0 0 -0.25 0 0 0 0 0.25 0 0 0 0 0 0 0 0.25 -0.25 0 0 0 0 0 0 0.25 0 0 0 0 0 0 0 0 -0z"/>
    </g>
    <g>
     <path class="fil1" d="M103.91 59.6c0,0.5 -0.5,1.25 -1.25,1.25 -0.75,0 -1.25,-0.5 -1.25,-1.25 -0.25,-0.75 0.5,-1.25 1.25,-1.25 0.5,0 1.25,0.5 1.25,1.25z"/>
     <path id="_1_48" class="fil1" d="M102.66 61.1l0 -0.5 0 0 0 0 0 0 0 0 0.25 0 0 0 0 0 0 0 0 0 0.25 0 0 0 0 -0.25 0 0 0 0 0 0 0.25 0 0 0 0 0 0 -0.25 0 0 0 0 0 0 0.25 0 0 0 0 -0.25 0 0 0 0 0 0 0 0 0 -0.25 0 0 0 0 0 0 0.25 0 0 0 0 0 0 0.25 0 0 0 0 0 0 0 0.25 0 0 0 0 0 0 0 0.25 0 0 -0.25 0 0 0 0 0.25 0 0 0 0 -0.25 0 0 0 0 0 0 0.25 0 0 -0.25 0 0 0 0 0 0 0 -0.25 0 0 0 0 0.25 -0.25 0 0 0 0 0 0 0 0 0zm0 0l0 0 0 0 0 0zm-1.5 -1.5l0.25 0 0 0 0 0 0 0.25 0 0 0.25 0 0 0 0 0 0 0.25 0 0 0 0 0 0 0 0 0 0 0 0.25 0.25 0 0 0 0 0 0 0 0 0 0 0 0 0.25 0.25 0 0 0 0 0 0 0 0 0 0.25 0 0 0 0 0 0 0 0 0 0.25 0 0 0 0 0.5 0 0 -0.25 0 0 0 0 0 0 0 -0.25 -0.25 0 0 0 0 -0.25 0 0 0 0 0 0 0 -0.25 0 0 -0.25 0 0 0 0 0 0 -0.25 0 0 0 0 -0.25 0 0 0 0 0 0 -0.25 -0.25 0 0 0 0 0 0 0 -0.25 0 0 0 0 0 0 0 -0.25 0 0 0 0zm1.5 -1.5l0 0.5 0 0 -0.25 0 0 0 0 0 0 0 -0.25 0 0 0 0 0 0 0 0 0 -0.25 0 0 0 0 0 0 0.25 0 0 0 0 -0.25 0 0 0 0 0 0 0.25 0 0 0 0 0 0 0 0 0 0 0 0.25 -0.25 0 0 0 0 0 0 0 0 0.25 0 0 0 0 -0.25 0 0 0 0 0 0 -0.25 0 0 0 0 0 -0.25 0 0 0 0 0 0 0 -0.25 0.25 0 0 0 0 0 0 -0.25 0 0 0 0 0.25 0 0 0 0 -0.25 0 0 0.25 0 0 0 0 0 0 0 0.25 0 0 -0.25 0 0 0 0 0.25 0 0 0 0 0 0.25 0 0 0 0 -0zm1.25 1.5l-0.25 0 0 0 0 0 0 -0.25 0 0 0 0 0 0 0 0 0 -0.25 0 0 -0.25 0 0 0 0 0 0 -0.25 0 0 0 0 0 0 0 0 -0.25 0 0 0 0 -0.25 0 0 0 0 0 0 -0.25 0 0 0 0 0 0 0 0 0 -0.25 0 0 0 0 0 0 0 0 0 0 -0.5 0 0 0 0 0 0 0.25 0 0 0 0 0 0.25 0.25 0 0 0 0 0 0 0.25 0 0 0 0 0 0 0 0 0.25 0.25 0 0 0 0 0 0 0 0 0.25 0.25 0 0 0 0 0 0 0.25 0 0 0 0 0 0 0 0.25 0 0 0 0 0 0 0 0.25 0 0 0 0z"/>
    </g>
    <g>
     <path class="fil1" d="M57.69 40.87c0,0.5 -0.5,1.25 -1.25,1.25 -0.5,0 -1.25,-0.75 -1.25,-1.25 0,-0.75 0.5,-1.25 1.25,-1.25 0.75,0 1.25,0.5 1.25,1.25z"/>
     <path id="_1_49" class="fil1" d="M56.44 42.11l0 -0.25 0 0 0 0 0.25 0 0 0 0 0 0 0 0 0 0.25 0 0 0 0 -0.25 0 0 0 0 0.25 0 0 0 0 0 0 0 0 0 0 -0.25 0 0 0.25 0 0 0 0 0 0 0 0 -0.25 0 0 0 0 0 0 0 0 0 -0.25 0 0 0 0 0 0 0 0 0.5 0 0 0 0 0 0 0 0 0.25 0 0 0 0 0 0.25 -0.25 0 0 0 0 0 0 0.25 0 0 0 0 0 0 -0.25 0 0 0.25 0 0 0 0 0 0 -0.25 0 0 0 0 0.25 0 0 -0.25 0 0 0 0 0 0 0 -0.25 0 0 0 0 0 0 0 -0.25 0 0 0 0 0zm-1.5 -1.25l0.5 0 0 0 0 0 0 0 0 0 0 0.25 0 0 0 0 0 0 0 0 0 0.25 0 0 0.25 0 0 0 0 0 0 0 0 0.25 0 0 0 0 0.25 0 0 0 0 0 0 0 0 0 0 0.25 0.25 0 0 0 0 0 0 0 0 0 0.25 0 0 0 0 0 0 0 0 0.25 0 0 0 0 -0.25 0 0 0 0 0 0 0 -0.25 0 0 0 0 0 0 0 -0.25 0 0 0 0 -0.25 0 0 -0.25 0 0 0 0 0 0 -0.25 0 0 0 0 -0.25 0 0 0 0 -0.25 0 0 0 0 0 0 0 -0.25 0 0 -0.25 0 0 -0.25 0 0 0 0 0 0 -0 0zm1.5 -1.5l0 0.25 0 0 0 0 0 0 0 0 -0.25 0 0 0.25 0 0 0 0 -0.25 0 0 0 0 0 0 0 0 0 0 0 -0.25 0 0 0.25 0 0 0 0 0 0 0 0 0 0 -0.25 0.25 0 0 0 0 0 0 0 0 0 0.25 0 0 0 0 0 0 0 0 0 0.25 0 0 -0.5 0 0 0 0 -0.25 0 0 0 0 0.25 -0.25 0 0 0 0 0 0 0 -0.25 0 0 0 0 0 0 0 -0.25 0.25 0 0 0 0 0 0 -0.25 0 0 0.25 0 0 0 0 0 0 0 0.25 0 0 -0.25 0 0 0 0 0.25 0 0 0 0 0 0.25 0 0 0 0 0 0 0 0 0zm0 0l0 0 0 0 0 0zm1.5 1.5l-0.5 0 0 0 0 -0.25 0 0 0 0 0 0 0 0 0 -0.25 0 0 0 0 0 0 0 0 0 -0.25 0 0 0 0 -0.25 0 0 0 0 0 0 0 0 -0.25 0 0 -0.25 0 0 0 0 0 0 0 0 0 0 0 -0.25 0 0 0 0 -0.25 0 0 0 0 -0.25 0 0 0 0 -0.25 0 0 0.25 0 0 0 0 0 0.25 0 0 0 0 0 0 0 0.25 0 0 0.25 0 0 0 0 0.25 0 0 0 0 0 0 0.25 0 0 0.25 0 0 0 0 0 0 0.25 0 0 0 0 0 0 0.25 0.25 0 0 0 0 0 0 0 0.25 0 0 0 0 0 0.25 0 0 0 0zm0 0l0 0 0 0 0 0z"/>
    </g>
    <g>
     <path class="fil1" d="M84.92 39.61c0.75,0 1.25,0.5 1.5,1.25 0,0.5 -0.75,1.25 -1.5,1.25 -0.5,0 -1.25,-0.75 -1.25,-1.25 0,-0.75 0.75,-1.25 1.25,-1.25z"/>
     <path id="_1_50" class="fil1" d="M86.42 40.87l-0.25 0 0 0 0 -0.25 0 0 0 0 0 0 0 0 0 -0.25 -0.25 0 0 0 0 0 0 0 0 -0.25 0 0 0 0 0 0 0 0 -0.25 0 0 -0.25 0 0 0 0 0 0 0 0 -0.25 0 0 0 0 0 0 0 0 0 -0.25 -0.25 0 0 0 0 0 0 0 0 -0.25 0 0 -0.25 0.25 0 0 0 0 0 0.25 0 0 0 0 0 0 0 0.25 0 0 0 0 0.25 0 0 0.25 0 0 0 0 0 0 0 0 0.25 0.25 0 0 0 0 0 0 0 0 0.25 0 0 0.25 0 0 0 0 0.25 0 0 0 0 0 0 0 0.25 0 0 0 0 0 0.25 0 0zm-1.5 1.25l0 -0.25 0 0 0.25 0 0 0 0 0 0 0 0 0 0.25 0 0 0 0 0 0 0 0 -0.25 0.25 0 0 0 0 0 0 0 0 0 0 0 0.25 -0.25 0 0 0 0 0 0 0 0 0 0 0 -0.25 0 0 0.25 0 0 0 0 0 0 -0.25 0 0 0 0 0 0 0 0 0.25 0 0 0 0 0 0 0 0 0.25 0 0 0 0 0 0.25 0 0 0 0 0 0 -0.25 0.25 0 0 0 0 0 0 0 0 0 0.25 -0.25 0 0 0 0 0 0 0 -0.25 0.25 0 0 0 0 0 0 -0.25 0 0 0 0 0 0 0 -0.25 0 0 0 0 0 -0.25 0 0 0zm-1.25 -1.25l0.25 0 0 0 0 0 0 0 0 0 0 0 0 0.25 0 0 0 0 0.25 0 0 0 0 0.25 0 0 0 0 0 0 0 0 0 0 0 0.25 0.25 0 0 0 0 0 0 0 0 0 0 0 0.25 0 0 0.25 0 0 0 0 0 0 0.25 0 0 0 0 0 0 0 0 0 0 0.25 0 0 0 0 0 0 -0.25 0 0 0 0 0 -0.25 0 0 0 0 0 0 0 -0.25 0 0 -0.25 0 0 0 0 0 0 -0.25 0 0 -0.25 0 0 0 0 0 0 0 0 -0.25 -0.25 0 0 0 0 0 0 0 -0.25 0 0 0 0 0 -0.25 0 0 0 0 0 0 0 0zm1.25 -1.5l0 0.25 0 0 0 0 0 0 0 0 0 0 -0.25 0.25 0 0 0 0 0 0 0 0 -0.25 0 0 0 0 0 0 0 0 0 0 0.25 -0.25 0 0 0 0 0 0 0 0 0 0 0 0 0.25 0 0 0 0 -0.25 0 0 0 0 0.25 0 0 0 0 0 0 0 0 0 0.25 -0.25 0 0 -0.25 0 0 0 0 0 -0.25 0 0 0 0 0 0 0 -0.25 0 0 0 0 0.25 0 0 -0.25 0 0 0 0 0 0 0 0 0.25 -0.25 0 0 0 0 0 0 0.25 0 0 0 0 -0.25 0 0 0.25 0 0 0 0 0 0 0 0.25 0 0 0 0 0 0 0 0 0zm0 0l0 0 0 0 0 0z"/>
    </g>
    <g>
     <path class="fil1" d="M50.69 100.33c0,0.75 -0.75,1.25 -1.25,1.25 -0.75,0 -1.5,-0.5 -1.25,-1.25 0,-0.5 0.5,-1.25 1.25,-1.25 0.5,0 1.25,0.75 1.25,1.25z"/>
     <path id="_1_51" class="fil1" d="M49.44 101.83l0 -0.25 0 0 0 0 0 -0.25 0 0 0.25 0 0 0 0 0 0 0 0 0 0.25 0 0 0 0 0 0 0 0 0 0 -0.25 0.25 0 0 0 0 0 0 0 0 0 0 0 0 -0.25 0 0 0 0 0.25 0 0 0 0 -0.25 0 0 0 0 0 0 0 0 0 -0.25 0 0 0.25 0 0 0 0 0.25 0 0 0 0 0 0.25 0 0 0 0 0 0 0 0.25 0 0 0 0 -0.25 0 0 0.25 0 0 0 0 0 0 0 0 -0.25 0.25 0 0 0 0 0 0 -0.25 0 0 0 0 0 0 0.25 -0.25 0 0 0 0 0 0 0 -0.25 0 0 0 0 0 0 0zm-1.5 -1.5l0.25 0 0 0 0 0.25 0 0 0 0 0 0 0 0 0 0.25 0.25 0 0 0 0 0 0 0 0 0.25 0 0 0 0 0 0 0 0 0.25 0 0 0 0 0.25 0 0 0 0 0 0 0.25 0 0 0 0 0 0 0 0 0 0.25 0 0 0 0 0.25 0 0 0.25 0 0 0 0 0.25 -0.25 0 0 0 0 0 0 0 -0.25 0 0 0 0 0 -0.25 0 0 0 0 -0.25 0 0 -0.25 0 0 0 0 0 0 0 0 -0.25 -0.25 0 0 0 0 0 0 0 0 -0.25 0 0 -0.25 0 0 0 0 -0.25 0 0 0 0 0 -0.25 0 0 0 0 0 0 0 -0.25 0 0zm0.25 0l0 0 0 0 0 0zm1.25 -1.25l0 0.25 0 0 -0.25 0 0 0 0 0 0 0 -0.25 0 0 0 0 0 0 0.25 0 0 0 0 -0.25 0 0 0 0 0 0 0 0 0 0 0 -0.25 0.25 0 0 0 0 0 0 0 0 0 0 0 0.25 0 0 0 0 -0.25 0 0 0 0 0 0 0.25 0 0 0 0 0 0 -0.25 0 0 0 0 0 0 -0.25 0 0 0 0 0 0 0 -0.25 0 0 0 0 0 0 0.25 -0.25 0 0 0 0 0 0 0 0 0 -0.25 0.25 0 0 0 0 0 0 0 0.25 0 0 -0.25 0 0 0 0 0.25 0 0 0 0 0 0 0 0.25 0 0 0 0 0 0.25 0 0 0zm1.25 1.25l-0.25 0 0 0 0 0 0 0 0 0 0 -0.25 0 0 0 0 0 0 -0.25 0 0 -0.25 0 0 0 0 0 0 0 0 0 0 0 -0.25 0 0 -0.25 0 0 0 0 0 0 0 0 0 0 0 -0.25 0 0 -0.25 0 0 0 0 0 0 -0.25 0 0 0 0 0 0 0 0 0 0 -0.25 0 0 0 0 0 0 0.25 0 0 0 0 0 0 0 0.25 0 0 0 0 0 0 0 0.25 0.25 0 0 0 0 0 0 0.25 0 0 0 0 0.25 0 0 0 0 0 0 0.25 0.25 0 0 0 0 0 0 0 0.25 0 0 0 0 0 0 0 0.25 0 0 0 0 0 0z"/>
    </g>
    <g>
     <path class="fil1" d="M93.42 100.33c0,0.75 -0.5,1.25 -1.25,1.25 -0.75,0 -1.25,-0.5 -1.25,-1.25 0,-0.75 0.75,-1.25 1.25,-1.25 0.75,0 1.25,0.75 1.25,1.25z"/>
     <path id="_1_52" class="fil1" d="M92.17 101.83l0 -0.25 0 0 0 0 0.25 0 0 -0.25 0 0 0 0 0 0 0.25 0 0 0 0 0 0 0 0 0 0 0 0.25 0 0 0 0 -0.25 0 0 0 0 0 0 0 0 0.25 0 0 0 0 -0.25 0 0 0 0 0 0 0 0 0 -0.25 0 0 0 0 0 0 0 0 0 -0.25 0.5 0 0 0.25 0 0 0 0 0 0.25 0 0 0 0 -0.25 0 0 0.25 0 0 0 0 0 0 0 0.25 0 0 -0.25 0 0 0 0 0 0 0.25 0 0 -0.25 0 0 0 0 0 0 0 0 0 -0.25 0.25 0 0 0 0 -0.25 0 0 0 0 0 0 0 -0.25 0 0 0 0 0 -0 0zm0 0l0 0 0 0 0 0zm-1.5 -1.5l0.5 0 0 0 0 0 0 0.25 0 0 0 0 0 0 0 0 0 0.25 0 0 0 0 0 0 0 0 0 0.25 0.25 0 0 0 0 0 0 0 0 0 0 0.25 0 0 0.25 0 0 0 0 0 0 0 0 0 0.25 0 0 0 0 0 0 0 0 0 0.25 0.25 0 0 0 0 0 0.25 0 0 -0.25 0 0 0 0 0 0 0 -0.25 0 0 0 0 0 0 -0.25 -0.25 0 0 0 0 0 0 0 -0.25 0 0 -0.25 0 0 0 0 0 0 -0.25 0 0 -0.25 0 0 0 0 0 0 0 -0.25 0 0 -0.25 0 0 0 0 -0.25 0 0 0 0 0 -0.25 0 0 0 0 -0 0zm1.5 -1.25l0 0.25 0 0 0 0 0 0 0 0 -0.25 0 0 0 0 0 0 0 0 0 -0.25 0.25 0 0 0 0 0 0 0 0 -0.25 0 0 0 0 0 0 0 0 0.25 0 0 0 0 -0.25 0 0 0 0 0 0 0.25 0 0 0 0 0 0 0 0 0 0.25 0 0 0 0 0 0 -0.5 0 0 0 0 -0.25 0 0 0 0 0.25 0 0 -0.25 0 0 0 0 0 0 0 -0.25 0 0 0 0 0.25 0 0 0 0 -0.25 0 0 0 0 0.25 0 0 0 0 0 0 -0.25 0.25 0 0 0 0 0 0 0 0.25 0 0 0 0 0 0 0 0.25 0 0 0 0 0 0 0 0 0zm1.5 1.25l-0.5 0 0 0 0 0 0 0 0 0 0 0 0 -0.25 0 0 0 0 0 0 0 0 0 -0.25 0 0 0 0 0 0 -0.25 0 0 0 0 -0.25 0 0 0 0 0 0 0 0 -0.25 0 0 0 0 0 0 0 0 -0.25 -0.25 0 0 0 0 0 0 0 0 0 -0.25 0 0 0 0 -0.25 0.25 0 0 0 0 0 0 0 0.25 0 0 0 0 0 0 0 0.25 0 0 0 0 0.25 0 0 0.25 0 0 0 0 0 0 0 0 0.25 0.25 0 0 0 0 0 0 0.25 0 0 0 0 0 0 0.25 0.25 0 0 0 0 0 0 0 0.25 0 0 0 0 0 0 0 0 0 0zm0 0l0 0 0 0 0 0z"/>
    </g>
   </g>
  </g>
 </g>
</svg>
