<svg width="45" height="45" viewBox="0 0 45 45" fill="none" xmlns="http://www.w3.org/2000/svg">
<g clip-path="url(#clip0_2200_373)">
<path d="M44.7152 22.5007C44.7152 34.7706 34.7697 44.7161 22.4997 44.7161C10.2297 44.7161 0.28418 34.7706 0.28418 22.5007C0.28418 10.2307 10.2297 0.285156 22.4997 0.285156C34.7697 0.285156 44.7152 10.2307 44.7152 22.5007Z" stroke="black" stroke-width="1.3319" stroke-miterlimit="10"/>
<path d="M31.4528 22.003C31.812 22.562 31.7757 23.0987 31.469 23.6334H32.2095V22.003H31.4528ZM14.7983 23.6374C14.4492 23.0886 14.4633 22.5499 14.7862 22.0091H14.0477V23.6374H14.7983ZM15.9605 35.3868C16.4125 35.3888 16.7777 35.0357 16.7858 34.5838C16.7938 34.1217 16.4286 33.7484 15.9665 33.7464C15.5146 33.7444 15.1494 34.1015 15.1413 34.5495C15.1332 35.0135 15.4984 35.3848 15.9605 35.3868ZM15.9524 11.8921C16.4165 11.8981 16.7878 11.5309 16.7878 11.0688C16.7878 10.6168 16.4286 10.2557 15.9766 10.2516C15.5226 10.2476 15.1534 10.5967 15.1433 11.0446C15.1312 11.5087 15.4904 11.884 15.9524 11.8901V11.8921ZM30.2785 35.3848C30.7325 35.3909 31.0997 35.0378 31.1118 34.5918C31.1239 34.1277 30.7627 33.7524 30.3007 33.7464C29.8366 33.7403 29.4633 34.1096 29.4653 34.5696C29.4674 35.0216 29.8265 35.3808 30.2785 35.3868V35.3848ZM30.2765 11.8921C30.7406 11.8981 31.1118 11.5329 31.1118 11.0708C31.1118 10.6189 30.7527 10.2577 30.3027 10.2516C29.8366 10.2456 29.4653 10.6088 29.4653 11.0708C29.4653 11.5208 29.8265 11.886 30.2765 11.8901V11.8921ZM30.2785 21.9889C29.8225 21.995 29.4532 22.3844 29.4653 22.8424C29.4795 23.2884 29.8588 23.6556 30.2987 23.6475C30.7567 23.6394 31.1219 23.2541 31.1098 22.794C31.0997 22.3501 30.7184 21.9829 30.2765 21.9889H30.2785ZM15.9443 23.6475C16.3842 23.6616 16.7696 23.2984 16.7858 22.8525C16.8039 22.3925 16.4407 22.003 15.9827 21.9909C15.5408 21.9788 15.1554 22.342 15.1413 22.7859C15.1251 23.25 15.4843 23.6334 15.9423 23.6475H15.9443ZM29.5743 9.81983C30.3269 9.5656 30.8213 9.62411 31.243 10.0256C31.7656 10.522 31.8281 11.1132 31.5355 11.7791H32.2115C32.2115 11.1314 32.2317 10.4917 32.2034 9.85414C32.1873 9.51919 31.8584 9.17819 31.5315 9.16205C30.8858 9.12976 30.2361 9.15397 29.5743 9.15397V9.81983ZM14.0376 33.8574C14.0376 34.5091 14.0134 35.1407 14.0456 35.7682C14.0658 36.1677 14.4532 36.4825 14.8709 36.4986C15.224 36.5107 15.5771 36.5026 15.9302 36.5047C16.1764 36.5047 16.4226 36.5047 16.6768 36.5047V35.8045C16.0351 36.1051 15.452 36.0527 14.9617 35.5664C14.4714 35.0801 14.433 34.493 14.7155 33.8574H14.0355H14.0376ZM16.6828 9.1459C16.0331 9.1459 15.4096 9.12774 14.7882 9.15196C14.3705 9.1681 14.0456 9.54945 14.0315 9.97924C14.0214 10.2678 14.0295 10.5563 14.0275 10.8449C14.0275 11.1576 14.0275 11.4683 14.0275 11.771H14.7176C14.425 11.1193 14.4835 10.5402 14.9799 10.0539C15.4742 9.56963 16.0614 9.55349 16.6828 9.82387V9.14389V9.1459ZM31.5275 33.8574C31.8342 34.5192 31.7676 35.1003 31.2732 35.5846C30.7809 36.0668 30.1917 36.089 29.5783 35.8166V36.4946C30.22 36.4946 30.8435 36.5127 31.4629 36.4885C31.8786 36.4724 32.2054 36.089 32.2216 35.6612C32.2317 35.3909 32.2236 35.1225 32.2256 34.8521C32.2256 34.5212 32.2256 34.1903 32.2256 33.8574H31.5275ZM15.1978 24.265H14.0436V33.2379H15.1978V24.265ZM31.0674 33.2359H32.2095V24.2528H31.0674V33.2359ZM32.2054 12.4127H31.0594V21.3836H32.2054V12.4127ZM15.1897 12.4127H14.0436V21.3836H15.1897V12.4127ZM17.2942 36.4865H28.9548V35.3404H17.2942V36.4865ZM17.2942 10.3061H28.9528V9.16406H17.2942V10.3061ZM15.8293 12.5095V21.3856C16.8059 21.4784 17.3669 21.9889 17.381 22.7839C17.3971 23.6233 16.8665 24.1338 15.8314 24.2629V33.1451C16.2793 33.131 16.6586 33.2581 16.9653 33.5628C17.2801 33.8735 17.3991 34.265 17.3891 34.6988H28.856C28.9246 33.6758 29.3402 33.2601 30.4157 33.1229V24.2468C29.5097 24.2004 28.9145 23.6838 28.8701 22.9292C28.8479 22.5599 28.9427 22.229 29.1728 21.9405C29.4916 21.541 29.9213 21.3816 30.4258 21.4018V12.5014C29.9778 12.5115 29.5904 12.3864 29.2777 12.0716C28.9669 11.7589 28.854 11.3675 28.862 10.9377H17.4092C17.266 12.0212 16.8483 12.4389 15.8314 12.5095H15.8293ZM14.6449 37.106C14.4088 36.9829 14.1485 36.8901 13.9427 36.7286C13.5856 36.4502 13.4322 36.0527 13.4262 35.6027C13.4201 35.1568 13.4242 34.7109 13.4242 34.265C13.4242 26.2403 13.4242 18.2157 13.4242 10.1911C13.4242 9.31943 13.8761 8.71814 14.6469 8.56681C14.7821 8.54058 14.9234 8.54058 15.0626 8.54058C20.4379 8.53856 25.8112 8.53856 31.1865 8.54058C32.2196 8.54058 32.8269 9.15196 32.8269 10.1911C32.8269 18.5507 32.8269 26.9082 32.8269 35.2678C32.8269 36.3412 32.5848 36.7064 31.6062 37.108H14.6449V37.106Z" fill="black"/>
<path d="M9.59818 30.3109C9.59818 30.6257 9.60625 30.9122 9.59617 31.1967C9.54976 32.7463 9.49528 34.298 9.44887 35.8476C9.43676 36.2915 9.64056 36.4913 10.0885 36.5014C10.1813 36.5034 10.2741 36.5034 10.3669 36.5014C10.8956 36.4973 11.0873 36.3016 11.0711 35.7669C11.0328 34.5038 10.9884 33.2427 10.946 31.9796C10.9299 31.4973 10.9198 31.0131 10.8916 30.5308C10.8875 30.4542 10.8088 30.321 10.7584 30.319C10.3912 30.3008 10.0199 30.3089 9.59617 30.3089L9.59818 30.3109ZM10.8552 29.7056C10.8552 29.5886 10.8573 29.4877 10.8552 29.3868C10.8008 27.7342 10.7443 26.0797 10.6898 24.4271C10.5889 21.3521 10.49 18.277 10.3891 15.204C10.3831 15.0365 10.3791 14.869 10.3589 14.7036C10.3528 14.6511 10.3004 14.6067 10.2681 14.5563C10.2257 14.6067 10.1793 14.6531 10.145 14.7096C10.1289 14.7379 10.1389 14.7823 10.1369 14.8186C10.0966 16.0454 10.0582 17.2722 10.0179 18.4969C9.91295 21.6648 9.80399 24.8327 9.70311 27.9986C9.68495 28.5615 9.70109 29.1265 9.70109 29.7036H10.8552V29.7056ZM8.78906 35.093C8.82135 35.0042 8.87986 34.9154 8.8839 34.8246C8.9868 31.8424 9.08164 28.8622 9.18051 25.8799C9.30561 22.1551 9.42869 18.4324 9.55783 14.7076C9.578 14.1265 10.0522 13.7915 10.5344 14.0034C10.8189 14.1285 10.9541 14.3585 10.9642 14.6652C11.0207 16.3379 11.0772 18.0086 11.1317 19.6793C11.2568 23.394 11.3799 27.1087 11.505 30.8254C11.5615 32.5062 11.622 34.187 11.6704 35.8698C11.6886 36.5155 11.3294 36.8989 10.7443 37.1027H9.73943C9.33587 36.9332 9.009 36.6911 8.88188 36.2451C8.87583 36.227 8.82336 36.2209 8.79108 36.2108V35.095L8.78906 35.093Z" fill="black"/>
<path d="M36.6242 30.3095C36.2852 30.3095 35.9704 30.3216 35.6577 30.3055C35.4337 30.2934 35.355 30.3579 35.349 30.594C35.3046 32.2385 35.244 33.8809 35.1896 35.5234C35.1613 36.389 35.2844 36.5161 36.144 36.502C36.6222 36.4939 36.8179 36.2982 36.8038 35.8139C36.7795 34.8938 36.7513 33.9758 36.721 33.0557C36.6908 32.1558 36.6565 31.2558 36.6222 30.3075L36.6242 30.3095ZM36.5959 29.7082C36.5959 29.6033 36.5979 29.5125 36.5959 29.4237C36.5334 27.4826 36.4688 25.5415 36.4063 23.6005C36.3114 20.6747 36.2146 17.749 36.1177 14.8232C36.1157 14.7587 36.1137 14.6901 36.0915 14.6315C36.0794 14.5993 36.0229 14.5629 35.9886 14.5629C35.9563 14.565 35.9119 14.6114 35.9018 14.6477C35.8837 14.7082 35.8857 14.7768 35.8837 14.8414C35.8453 15.9653 35.809 17.0892 35.7707 18.2131C35.6456 21.9459 35.5225 25.6808 35.3974 29.4156C35.3954 29.5125 35.3974 29.6093 35.3974 29.7102H36.5939L36.5959 29.7082ZM35.5144 37.1033C34.7396 36.7663 34.5661 36.4616 34.5984 35.59C34.6871 33.1182 34.7638 30.6465 34.8445 28.1747C34.9676 24.4762 35.0927 20.7776 35.2158 17.0791C35.242 16.2982 35.2662 15.5173 35.2904 14.7365C35.3046 14.2623 35.5689 13.9576 35.9785 13.9475C36.4042 13.9374 36.6847 14.228 36.7009 14.7244C36.7917 17.3273 36.8784 19.9281 36.9652 22.5311C37.0883 26.2114 37.2113 29.8918 37.3364 33.5722C37.3526 34.0807 37.3869 34.5892 37.4111 35.0956V36.2114C37.2477 36.6453 36.949 36.9419 36.5172 37.1053H35.5124L35.5144 37.1033Z" fill="black"/>
<path d="M24.0793 15.9104C24.4405 15.9084 24.7351 15.6138 24.729 15.2566C24.723 14.9116 24.4324 14.6231 24.0874 14.619C23.7302 14.613 23.4255 14.9076 23.4235 15.2627C23.4215 15.6178 23.7181 15.9144 24.0793 15.9124V15.9104ZM25.9639 15.9104C26.3291 15.9164 26.6237 15.6299 26.6277 15.2687C26.6318 14.9156 26.3291 14.615 25.9719 14.617C25.6249 14.619 25.3343 14.9015 25.3222 15.2465C25.3101 15.6017 25.6027 15.9043 25.9639 15.9104ZM24.0894 17.9059C23.7302 17.8999 23.4255 18.1925 23.4235 18.5476C23.4215 18.8926 23.704 19.1872 24.051 19.1993C24.4163 19.2114 24.7149 18.937 24.729 18.5738C24.7431 18.2207 24.4485 17.914 24.0894 17.9059ZM22.1927 14.617C21.8355 14.6089 21.5288 14.9035 21.5248 15.2566C21.5208 15.6017 21.8012 15.8963 22.1503 15.9084C22.5175 15.9205 22.8142 15.6481 22.8303 15.2849C22.8444 14.9318 22.5518 14.6231 22.1947 14.615L22.1927 14.617ZM20.2718 15.9104C20.635 15.9144 20.9296 15.6279 20.9296 15.2647C20.9296 14.9197 20.6451 14.6271 20.298 14.617C19.9409 14.6069 19.6322 14.8975 19.6241 15.2506C19.616 15.6057 19.9086 15.9063 20.2698 15.9104H20.2718ZM22.1866 17.9059C21.8275 17.9019 21.5248 18.1965 21.5228 18.5516C21.5228 18.8967 21.8073 19.1892 22.1544 19.1993C22.5196 19.2094 22.8182 18.931 22.8283 18.5698C22.8384 18.2147 22.5438 17.91 22.1866 17.9059ZM23.7807 20.1961C23.7786 19.839 23.476 19.5423 23.1188 19.5484C22.7698 19.5545 22.4812 19.841 22.4752 20.188C22.4691 20.5411 22.7698 20.8478 23.1249 20.8519C23.478 20.8559 23.7827 20.5512 23.7827 20.1961H23.7807ZM25.6794 16.9051C25.6774 16.55 25.3747 16.2534 25.0175 16.2595C24.6685 16.2655 24.382 16.552 24.3759 16.8971C24.3698 17.2522 24.6705 17.5589 25.0236 17.5609C25.3747 17.5649 25.6814 17.2582 25.6814 16.9051H25.6794ZM21.8799 16.9193C21.888 16.5621 21.5914 16.2615 21.2322 16.2595C20.8832 16.2574 20.5906 16.5359 20.5744 16.8829C20.5583 17.232 20.8549 17.5488 21.208 17.5609C21.5591 17.573 21.8698 17.2764 21.8779 16.9193H21.8799ZM23.7786 16.9132C23.7847 16.5581 23.4841 16.2574 23.1249 16.2574C22.7758 16.2595 22.4853 16.5399 22.4732 16.887C22.461 17.2381 22.7597 17.5508 23.1128 17.5609C23.4639 17.571 23.7726 17.2683 23.7786 16.9152V16.9132ZM21.2181 14.4374C21.9465 13.8725 22.4207 13.8724 23.135 14.4394C23.3892 14.1852 23.6919 14.0157 24.0631 14.0137C24.4344 14.0117 24.7472 14.161 25.0216 14.4435C25.3848 14.0924 25.8085 13.9189 26.3109 14.0601C26.66 14.157 26.9203 14.3729 27.0857 14.6957C27.453 15.412 27.1059 16.1465 26.321 16.4653C26.2443 16.8486 26.2201 17.1997 26.0991 17.5145C25.9639 17.8616 25.635 18.031 25.2859 18.134C25.3747 19.0803 25.1507 19.4657 24.3234 19.7925C24.4586 20.41 24.3174 20.9386 23.7464 21.2736C23.3085 21.5298 22.8485 21.5097 22.4308 21.2231C21.9284 20.8761 21.7992 20.3777 21.9405 19.8026C21.0769 19.4152 20.8489 19.0238 20.978 18.1561C20.1124 17.7445 19.9288 17.4298 20.0236 16.4955C19.4223 16.2998 19.043 15.9124 19.043 15.2465C19.043 14.7199 19.3093 14.3466 19.7795 14.1247C20.2577 13.8987 20.7258 14.0076 21.2242 14.4374H21.2181Z" fill="black"/>
<path d="M23.1169 28.4155C22.7618 28.4236 22.4632 28.7343 22.4753 29.0854C22.4874 29.4425 22.8001 29.7351 23.1532 29.721C23.5003 29.7048 23.7828 29.4103 23.7808 29.0652C23.7787 28.7101 23.472 28.4094 23.1189 28.4155H23.1169ZM24.3679 29.0874C24.3599 29.7775 23.809 30.3162 23.1149 30.3102C22.4127 30.3041 21.87 29.7432 21.8861 29.035C21.9002 28.3469 22.4551 27.8162 23.1532 27.8263C23.8433 27.8384 24.376 28.3893 24.3679 29.0854V29.0874Z" fill="black"/>
</g>
<defs>
<clipPath id="clip0_2200_373">
<rect width="45" height="45" fill="white"/>
</clipPath>
</defs>
</svg>
