<?xml version="1.0" encoding="UTF-8"?>
<!DOCTYPE svg PUBLIC "-//W3C//DTD SVG 1.1//EN" "http://www.w3.org/Graphics/SVG/1.1/DTD/svg11.dtd">
<!-- Creator: CorelDRAW -->
<svg xmlns="http://www.w3.org/2000/svg" xml:space="preserve" width="0.14in" height="0.14in" version="1.1" style="shape-rendering:geometricPrecision; text-rendering:geometricPrecision; image-rendering:optimizeQuality; fill-rule:evenodd; clip-rule:evenodd"
viewBox="0 0 140 140"
 xmlns:xlink="http://www.w3.org/1999/xlink"
 xmlns:xodm="http://www.corel.com/coreldraw/odm/2003">
 <defs>
  <style type="text/css">
   <![CDATA[
    .str0 {stroke:#1C2335;stroke-width:3.33;stroke-miterlimit:2.61313}
    .fil0 {fill:none}
    .fil1 {fill:#1C2335;fill-rule:nonzero}
   ]]>
  </style>
 </defs>
 <g id="Layer_x0020_1">
  <metadata id="CorelCorpID_0Corel-Layer"/>
  <g id="_1783029116560">
   <circle class="fil0 str0" transform="matrix(0.60577 0.179684 -0.179684 0.60577 70 70)" r="107.11"/>
   <g id="_2562358831328">
    <path class="fil1" d="M30.72 102.06c0,-13.56 0,-27.12 0,-40.68 -0.59,0 -0.88,0 -1.47,0 -1.77,-0.3 -2.95,-1.48 -2.95,-3.24 0,-0.89 0,-1.77 0,-2.65 0,-1.77 1.18,-2.95 2.95,-2.95 0.59,0 0.89,0 1.47,0 0,-0.3 0,-0.88 0,-1.18 0,-2.95 0,-5.9 0,-8.85 0,-2.65 1.77,-4.42 4.72,-4.71 5.6,0 11.5,0 17.39,0 0.3,0 0.59,0 1.18,0 0,-1.18 0,-2.65 0,-3.83 0,-2.95 1.77,-4.72 4.71,-4.72 7.67,0 15.04,0 22.41,0 3.24,0 5.01,1.77 5.01,4.72 0,1.18 0,2.65 0,3.83 0.3,0 0.59,0 0.88,0 5.9,0 11.8,0 17.39,0 3.24,0 5.01,2.06 5.01,5.01 0,3.24 0,6.49 0,9.73 0.3,0 0.89,0 1.47,0 1.48,0 2.65,1.18 2.95,2.95 0,0.89 0,1.77 0,2.65 -0.3,1.77 -1.47,2.95 -3.24,3.24 -0.29,0 -0.88,0 -1.18,0 0,13.56 0,27.12 0,40.68 0.59,0 0.89,0 1.47,0 1.48,0 2.65,1.18 2.65,2.95 0.3,0.89 0.3,2.06 0,2.95 0,1.47 -1.18,2.65 -2.65,2.95 -0.3,0 -0.59,0 -0.88,0 -26.53,0 -53.36,0 -80.19,0 -2.65,0 -3.54,-1.18 -3.54,-3.83 0,-0.59 0,-1.18 0,-1.77 0,-2.06 1.18,-3.24 3.24,-3.24 0.29,0 0.59,0 1.18,0l0 -0zm2.95 -40.68l0 0c0,13.56 0,27.12 0,40.68 1.47,0 2.65,0 4.13,0 0,-0.59 0,-0.89 0,-1.18 0,-9.73 0,-19.45 0,-28.89 0,-3.24 2.06,-5.01 5.01,-5.01 5.01,0 10.02,0 15.04,0 3.24,0 5.01,1.77 5.01,5.01 0,9.73 0,19.16 0,28.89 0,0.3 0,0.89 0,1.18 14.44,0 28.89,0 43.63,0 0,-13.56 0,-27.12 0,-40.68 -24.47,0 -48.64,0 -72.81,0l0 0zm7.07 46.58l0 0c6.48,0 12.68,0 19.16,0 0,-0.3 0,-0.59 0,-0.59 0,-11.79 0,-23.88 0,-35.67 0,-1.18 -0.59,-1.77 -1.77,-1.77 -5.01,0 -10.02,0 -15.04,0 -1.77,0 -2.36,0.59 -2.36,2.07 0,11.79 0,23.29 0,34.78 0,0.3 0,0.59 0,1.18l0 0zm16.21 -49.82l0 0c8.84,0 17.39,0 26.24,0 0,-0.3 0,-0.59 0,-0.89 0,-7.67 0,-15.33 0,-23 0,-1.77 -0.59,-2.06 -2.06,-2.06 -7.37,0 -14.74,0 -22.11,0 -1.77,0 -2.06,0.3 -2.06,2.06 0,6.78 0,13.56 0,20.34 0,1.18 0,2.36 0,3.54l0 0zm-23.29 -5.6l0 0c6.78,0 13.56,0 20.34,0 0,-3.83 0,-7.67 0,-11.5 -0.3,0 -0.3,-0.3 -0.3,-0.3 -6.19,0 -12.38,0 -18.57,0 -0.88,0 -1.47,0.59 -1.47,1.77 0,3.24 0,6.49 0,10.02l0 0zm52.47 0l0 0c6.78,0 13.56,0 20.34,0 0,-3.24 0,-6.48 0,-9.73 0,-1.47 -0.59,-2.06 -2.06,-2.06 -5.89,0 -11.5,0 -17.39,0 -0.29,0 -0.59,0 -0.88,0 0,4.13 0,7.96 0,11.79l0 0zm-23.29 55.42l0 0c15.92,0 31.83,0 47.76,0 0,-1.18 0,-2.06 0,-2.95 -15.92,0 -31.84,0 -47.76,0 0,0.89 0,1.77 0,2.95zm-33.61 -49.82l0 0c8.25,0 16.51,0 24.76,0 0,-0.89 0,-1.77 0,-2.65 -8.26,0 -16.51,0 -24.76,0 0,0.89 0,1.77 0,2.65zm56.89 0l0 0c8.25,0 16.51,0 24.47,0 0,-0.89 0,-1.77 0,-2.65 -8.26,0 -16.22,0 -24.47,0 0,0.89 0,1.77 0,2.65zm-56.89 49.82l0 0c2.95,0 5.89,0 8.55,0 0,-1.18 0,-2.06 0,-2.95 -2.95,0 -5.6,0 -8.55,0 0,0.89 0,1.77 0,2.95z"/>
    <path class="fil1" d="M84.37 96.17c-4.13,0 -8.26,0 -12.38,0 -2.95,0 -5.01,-1.77 -5.01,-4.72 0,-6.49 0,-12.97 0,-19.75 0,-2.65 1.77,-4.72 4.72,-4.72 8.55,0 17.1,0 25.65,0 2.95,0 4.72,2.06 4.72,4.72 0,6.78 0,13.26 0,19.75 0,2.94 -1.77,4.72 -4.72,4.72 -4.13,0 -8.55,0 -12.97,0zm0.29 -26.24l0 0c-4.42,0 -8.55,0 -12.67,0 -1.47,0 -2.06,0.59 -2.06,2.06 0,6.48 0,12.97 0,19.46 0,1.47 0.59,1.77 2.06,1.77 8.25,0 16.8,0 25.35,0 1.18,0 1.77,-0.3 1.77,-1.77 0,-6.49 0,-12.97 0,-19.46 0,-1.47 -0.59,-2.06 -1.77,-2.06 -4.42,0 -8.55,0 -12.67,0l-0 0z"/>
    <path class="fil1" d="M46.64 89.09c0,0.88 0,1.77 0,2.65 0,0.89 -0.59,1.48 -1.48,1.48 -0.88,0 -1.47,-0.59 -1.47,-1.48 0,-1.77 0,-3.83 0,-5.6 0,-0.89 0.59,-1.48 1.47,-1.48 0.89,0 1.48,0.59 1.48,1.48 0,0.88 0,2.06 0,2.95z"/>
    <path class="fil1" d="M65.51 49.59c-0.89,0 -1.77,0 -2.65,0 -1.77,0 -2.95,-1.18 -2.95,-2.94 0,-1.18 0,-2.07 0,-2.95 0,-1.48 1.18,-2.65 2.65,-2.95 1.18,0 2.06,0 2.95,0 0,-0.89 0,-1.77 0,-2.65 0,-1.77 1.18,-2.95 3.24,-2.95 0.89,0 1.77,0 2.65,0 1.77,0 2.95,1.18 2.95,2.65 0,0.89 0,2.06 0,2.95 0.89,0 1.77,0 2.65,0 2.06,0 3.24,1.18 3.24,3.54 0,0.89 0,1.48 0,2.36 0,1.77 -1.18,2.95 -2.95,2.95 -0.88,0 -1.77,0 -2.94,0 0,0.89 0,1.77 0,2.65 0,2.06 -1.18,3.24 -3.24,3.24 -0.89,0 -1.77,0 -2.65,0 -1.47,0 -2.65,-1.48 -2.95,-2.95 0,-0.89 0,-1.77 0,-2.95l0 0zm-2.65 -2.94l0 0c1.18,0 2.36,0 3.83,0 1.47,0 1.77,0.59 1.77,2.06 0,1.18 0,2.65 0,3.83 1.18,0 2.07,0 2.95,0 0,-1.47 0,-2.65 0,-3.83 0,-1.48 0.59,-2.06 2.06,-2.06 1.18,0 2.36,0 3.83,0 0,-0.89 0,-2.07 0,-2.95 -1.48,0 -2.65,0 -4.13,0 -1.18,0 -1.77,-0.3 -1.77,-1.77 0,-1.47 0,-2.65 0,-3.83 -0.89,0 -1.77,0 -2.95,0 0,1.18 0,2.65 0,3.83 0,1.48 -0.3,1.77 -1.77,1.77 -1.18,0 -2.65,0 -3.83,0 0,1.18 0,2.06 0,2.95l0 0z"/>
    <path class="fil1" d="M87.91 72.88c2.06,0.29 3.83,1.18 4.72,3.24 1.18,2.36 0.89,4.42 -0.59,6.19 -2.36,2.36 -4.42,4.42 -6.78,6.78 -2.36,2.06 -5.6,1.77 -7.67,-0.3 -2.36,-2.36 -2.36,-5.6 -0.3,-7.96 2.07,-2.07 4.43,-4.43 6.49,-6.49 1.18,-0.89 2.36,-1.47 4.13,-1.47l0 0zm-4.13 5.6l0 0c1.18,1.48 2.65,2.65 3.83,4.13 0.59,-0.89 1.47,-1.48 2.06,-2.07 1.18,-1.18 0.89,-2.94 -0.3,-3.83 -0.88,-1.18 -2.65,-1.18 -3.54,0 -0.89,0.59 -1.47,1.18 -2.06,1.77l0 -0zm-2.36 2.36l0 0c-0.59,0.59 -1.18,1.18 -2.06,2.06 -0.89,1.18 -0.89,2.65 0.29,3.83 0.89,0.88 2.65,1.18 3.83,0 0.59,-0.59 1.18,-1.18 2.06,-2.07 -1.47,-1.18 -2.65,-2.65 -4.13,-3.83l0 0z"/>
   </g>
  </g>
  <rect class="fil0" width="140" height="140"/>
 </g>
</svg>
