<?xml version="1.0" encoding="UTF-8"?>
<!DOCTYPE svg PUBLIC "-//W3C//DTD SVG 1.1//EN" "http://www.w3.org/Graphics/SVG/1.1/DTD/svg11.dtd">
<!-- Creator: CorelDRAW -->
<svg xmlns="http://www.w3.org/2000/svg" xml:space="preserve" width="0.14in" height="0.14in" version="1.1" style="shape-rendering:geometricPrecision; text-rendering:geometricPrecision; image-rendering:optimizeQuality; fill-rule:evenodd; clip-rule:evenodd"
viewBox="0 0 140 140"
 xmlns:xlink="http://www.w3.org/1999/xlink"
 xmlns:xodm="http://www.corel.com/coreldraw/odm/2003">
 <defs>
  <style type="text/css">
   <![CDATA[
    .str0 {stroke:#1C2335;stroke-width:3.33;stroke-miterlimit:2.61313}
    .fil0 {fill:none}
    .fil1 {fill:#1C2335;fill-rule:nonzero}
   ]]>
  </style>
 </defs>
 <g id="Layer_x0020_1">
  <metadata id="CorelCorpID_0Corel-Layer"/>
  <g id="_1819131944240">
   <g>
    <path class="fil0 str0" d="M134.78 89.22c10.61,-35.78 -9.79,-73.39 -45.57,-84 -35.78,-10.61 -73.39,9.79 -84,45.57 -10.61,35.78 9.79,73.39 45.57,84 35.78,10.61 73.39,-9.79 84,-45.57z"/>
   </g>
   <g id="_2134926192512">
    <g>
     <path class="fil1" d="M96.42 97.3c0,5 0,10.01 0,15.01 0,0.88 0,2.06 -0.3,2.94 -0.88,2.65 -3.82,4.12 -6.77,3.82 -2.94,-0.59 -5,-2.65 -5.3,-5.59 0,-3.24 0,-6.48 0,-9.71 0,-0.59 0,-1.18 0,-1.77 -0.59,0 -1.18,-0.29 -1.76,-0.29 -8.24,0 -16.48,0.29 -24.43,0 -1.77,0 -2.06,0.59 -2.35,2.06 -0.59,4.41 -1.18,9.12 -1.77,13.54 -0.3,1.18 -0.59,1.76 -2.06,1.76 -4.42,0 -4.42,0 -5,-4.12 -0.59,-3.83 -1.18,-7.95 -1.77,-11.78 0,-1.18 -0.3,-1.76 -1.47,-2.06 -2.35,-0.88 -3.82,-2.65 -4.41,-5 -4.41,-16.19 -8.83,-32.67 -13.24,-49.15 -1.18,-4.12 1.47,-7.95 5.89,-8.83 4.12,-0.89 8.24,1.47 9.42,5.59 0.88,2.35 1.47,5 2.35,7.95 0.3,-0.89 0.59,-1.18 0.89,-1.47 2.65,-3.53 6.18,-5.59 10.89,-5 5,0.59 8.24,3.24 9.71,7.65 0.88,2.94 1.76,5.89 2.65,9.12 3.53,-1.18 7.07,-2.65 10.6,-3.53 3.53,-0.59 4.41,-2.35 5.3,-5 1.77,-5.59 4.12,-11.48 5.89,-17.37 0.59,-1.18 1.18,-1.77 2.65,-1.77 2.06,0.3 4.41,0.59 5.89,-0.3 1.18,-0.88 1.18,-3.24 1.77,-4.71 0.59,-1.76 1.18,-3.24 1.77,-5 0.59,-1.47 1.18,-1.47 2.35,-0.3 3.24,3.24 6.77,6.77 10.3,10.3 0.3,0.3 0.59,1.47 0.3,1.77 -4.71,13.83 -9.71,27.67 -14.42,41.5 -0.59,1.18 -0.3,2.06 0.29,2.94 3.83,5.59 7.65,11.18 11.48,16.78 2.65,3.82 0.59,8.24 -4.12,9.12 -2.65,0.3 -4.71,-0.59 -6.18,-2.65 -1.47,-2.06 -2.94,-4.41 -4.41,-6.77 -0.3,0.3 -0.3,0.3 -0.59,0.3l0 -0zm-30.61 -34.73l0 0c-0.88,-3.53 -1.77,-7.06 -3.24,-10.3 -1.18,-3.24 -3.83,-4.71 -7.36,-5.3 -5.59,-0.89 -11.78,4.41 -10.6,9.42 2.65,10 5.3,19.72 7.95,29.72 0.3,0.3 0.59,0.89 0.88,0.89 3.53,0 7.06,0.29 10.3,-0.59 7.36,-1.77 14.13,-4.12 21.19,-6.48 1.47,-0.59 2.35,0 3.24,1.18 4.71,7.06 9.42,13.83 14.13,20.9 0.3,0.3 0.88,0.89 1.18,1.47 1.18,1.18 2.94,1.77 4.71,1.18 1.77,-0.59 2.94,-2.06 2.65,-3.83 0,-0.88 -0.3,-2.06 -0.88,-2.94 -5.59,-8.24 -11.19,-16.48 -16.78,-24.43 -2.06,-3.24 -3.24,-3.54 -7.06,-2.36 -4.71,1.47 -9.71,2.94 -14.72,4.42 -1.18,0.59 -2.06,0.3 -2.35,-1.18 0,-0.88 -0.29,-1.77 -0.59,-2.65 -1.47,0.3 -2.94,0.88 -4.12,1.18 -1.47,0.59 -2.65,0.89 -4.12,1.47 -2.65,0.59 -5.3,-0.3 -6.18,-2.65 -1.76,-5 -3.24,-10.01 -5,-15.3 0,-0.3 0.29,-0.89 0.59,-1.18 0.3,0.29 0.89,0.59 1.18,0.88 0.3,0.3 0.3,0.88 0.3,1.18 1.47,4.41 2.94,8.54 4.12,12.95 0.88,2.35 2.35,2.94 5,2.35 3.53,-1.18 7.06,-2.35 10.6,-3.53 3.82,-1.18 7.65,-2.65 11.48,-3.82 1.77,-0.59 2.65,-2.35 2.06,-3.83 -0.59,-1.47 -2.35,-2.35 -4.12,-1.77 -0.59,0 -1.18,0.3 -1.47,0.59 -5.59,1.77 -10.89,3.53 -16.19,5.3 -1.18,0.29 -2.06,0.59 -2.35,-0.59 -1.18,-3.53 -2.35,-7.06 -3.24,-10.59 -0.3,-0.3 0.29,-0.88 0.59,-1.47 0.3,0.3 0.89,0.59 0.89,0.89 0.59,1.76 1.18,3.24 1.76,5 0.59,1.47 1.18,3.24 1.77,5 1.18,-0.3 2.35,-0.88 3.83,-1.18l0 0zm18.25 26.19l0 0c-0.88,0 -1.47,0 -2.35,0 -9.12,0 -18.54,0 -27.96,0 -1.76,0 -2.65,-0.59 -2.94,-2.06 -0.59,-2.35 -1.18,-4.71 -1.77,-7.36 -3.24,-11.48 -6.18,-22.96 -9.42,-34.73 -0.59,-1.76 -1.47,-3.53 -3.53,-4.41 -2.35,-1.18 -4.42,-0.88 -6.48,0.59 -2.35,1.76 -2.65,3.82 -1.77,6.47 4.12,15.89 8.24,31.5 12.66,47.39 1.18,4.12 2.94,5.59 7.36,5.59 11.48,0 22.66,0 34.14,0 0.59,0 1.18,0 2.06,0 0,-3.83 0,-7.65 0,-11.48zm14.13 -11.48l0 0c4.71,-13.83 9.42,-27.37 14.13,-40.91 -0.3,0 -0.3,-0.29 -0.59,-0.29 -6.47,0 -12.95,0 -19.13,0 -0.59,0 -1.18,0.59 -1.47,1.18 -2.35,6.77 -4.71,13.24 -7.06,20.01 -0.29,0.59 0,1.18 0.3,1.47 3.24,2.94 2.35,6.77 -2.06,8.24 -2.65,0.88 -5.59,1.77 -8.24,2.65 -1.18,0.59 -2.65,0.88 -3.82,1.47 0.29,0.89 0.59,1.77 0.88,2.94 5.3,-1.76 10.3,-3.24 15.31,-5 3.53,-0.88 6.18,0 7.94,2.94 1.18,1.77 2.35,3.53 3.83,5.3l-0 0zm-28.84 9.42l0 0c0,0 0,0.3 0,0.3 4.71,0 9.71,0 14.42,0 1.77,0 2.35,0.59 2.35,2.06 -0.29,7.94 0,15.89 0,23.84 0,2.65 1.77,4.42 4.42,4.42 2.35,0 4.12,-1.77 4.12,-4.42 0,-5.89 0,-12.07 0,-17.95 0,-0.59 0,-1.18 -0.29,-1.77 -2.65,-3.82 -5.59,-7.65 -8.24,-11.77 -5.59,1.77 -11.19,3.53 -16.78,5.3l0 0zm-15.3 15.3l0 0c-2.65,0 -5,0 -7.36,0 0.59,5.3 1.47,10.01 2.06,15.01 1.18,0 2.06,0 3.24,0 0.59,-5 1.18,-10.01 2.06,-15.01zm57.69 -67.69l0 0c-3.24,-2.94 -5.89,-5.59 -8.83,-8.54 -0.89,2.94 -2.06,5.89 -2.94,8.54 3.83,0 7.65,0 11.77,0z"/>
     <path id="_1" class="fil1" d="M96.71 112.31l-0.59 0 0 0 0 -0.59 0 -0.29 0 -0.59 0 -0.59 0 -0.29 0 -0.59 0 -0.3 0 -0.59 0 -0.3 0 -0.59 0 -0.59 0 -0.3 0 -0.59 0 -0.29 0 -0.59 0 -0.59 0 -0.29 0 -0.59 0 -0.3 0 -0.59 0 -0.59 0 -0.3 0 -0.59 0 -0.3 0 -0.59 0 -0.59 0 -0.3 0 -0.59 0 -0.29 0 -0.59 0 -0.3 0 -0.59 0.59 0 0 0.59 0 0.3 0 0.59 0 0.29 0 0.59 0 0.3 0 0.59 0 0.59 0 0.3 0 0.59 0 0.3 0 0.59 0 0.59 0 0.3 0 0.59 0 0.29 0 0.59 0 0.59 0 0.29 0 0.59 0 0.3 0 0.59 0 0.59 0 0.3 0 0.59 0 0.3 0 0.59 0 0.29 0 0.59 0 0.59 0 0.29 0 0.59 0 0zm-0.3 2.94l-0.59 -0.3 0 0 0 0 0 0 0 0 0 -0.3 0.3 0 0 0 0 -0.29 0 0 0 0 0 0 0 -0.3 0 0 0 0 0 -0.3 0 0 0 0 0 -0.29 0 0 0 0 0 -0.3 0 0 0 0 0 0 0 -0.3 0 0 0 0 0 -0.29 0 0 0 0 0 -0.3 0 0 0 0 0.59 0 0 0 0 0 0 0.3 0 0 0 0 0 0.29 0 0 0 0 0 0.3 0 0 0 0 0 0.3 0 0 0 0 0 0.29 0 0 0 0 0 0.3 0 0 0 0 0 0 0 0.3 0 0 -0.3 0 0 0.29 0 0 0 0 0 0.3 0 0 0 0 0 0.3 0 0 0 0zm-7.06 4.12l0 -0.59 0 0 0.29 0 0.3 0 0.3 0 0.29 0 0.3 0 0.3 0 0.29 0 0.3 0 0 -0.29 0.3 0 0.29 0 0.3 0 0.3 -0.3 0 0 0.3 0 0.29 -0.3 0.3 0 0 -0.29 0.3 0 0.29 -0.3 0 0 0.3 -0.3 0 0 0.3 -0.29 0 -0.3 0.29 0 0 -0.3 0.3 -0.29 0 0 0.3 -0.3 0 -0.3 0 -0.29 0.59 0.29 0 0.3 -0.29 0.3 0 0 -0.3 0.29 0 0.3 -0.3 0.3 0 0 -0.29 0.29 0 0.3 -0.3 0 -0.3 0.3 0 0.29 -0.29 0 -0.3 0.3 0 0 -0.3 0.3 -0.29 0 -0.3 0.29 -0.3 0 -0.3 0 0 0.3 -0.29 0 -0.3 0 -0.3 0 -0.29 0 -0.3 0.3 -0.3 0 -0.29 0 -0.3 0 -0.3 0 -0.29 0 -0.3 0 0 0 0 0zm-5.59 -5.89l0.59 0 0 0 0 0.3 0 0 0.3 0.29 0 0.3 0 0.3 0 0.29 0 0.3 0.29 0 0 0.3 0 0.29 0.3 0.3 0 0 0.3 0.3 0 0.29 0.29 0 0 0.3 0.3 0 0.3 0.3 0 0.29 0.29 0 0.3 0.3 0 0 0.3 0 0.29 0.3 0.3 0 0 0.3 0.3 0 0.29 0 0.3 0 0.3 0.29 0.3 0 0 0 0 0.59 -0.3 -0.3 -0.3 0 -0.3 0 -0.29 0 0 -0.29 -0.3 0 -0.3 0 -0.29 -0.3 -0.3 0 -0.3 -0.3 0 0 -0.29 -0.3 -0.3 0 -0.3 -0.29 0 0 -0.29 -0.3 -0.3 -0.3 0 0 -0.3 -0.29 0 -0.3 -0.29 -0.3 0 0 -0.3 -0.29 0 -0.3 0 -0.3 -0.3 -0.29 0 -0.3 0 -0.3 0 0 0 -0.29 0 -0.3 -0.29 -0.3 0 0 -0 0zm0 -9.71l0.59 0 0 0 0 0.59 0 0.29 0 0.3 0 0.3 0 0.29 0 0.3 0 0.3 0 0.29 0 0.3 0 0.3 0 0.29 0 0.3 0 0.3 0 0.29 0 0.3 0 0.3 0 0.29 0 0.3 0 0.3 0 0.29 0 0.3 0 0.3 0 0.29 0 0.3 0 0.3 0 0.3 0 0.29 0 0.3 0 0.3 0 0.29 0 0.3 0 0.3 -0.59 0 0 -0.3 0 -0.3 0 -0.29 0 -0.3 0 -0.3 0 -0.29 0 -0.3 0 -0.3 0 -0.3 0 -0.29 0 -0.3 0 -0.3 0 -0.29 0 -0.3 0 -0.3 0 -0.29 0 -0.3 0 -0.3 0 -0.29 0 -0.3 0 -0.3 0 -0.29 0 -0.3 0 -0.3 0 -0.29 0 -0.3 0 -0.3 0 -0.29 0 -0.3 0 -0.3 0 -0.29 0 -0.59 0 0zm0.3 -1.47l0 -0.59 0.3 0.29 0 0 0 0 0 0 0 0.3 0 0 0 0 0 0 0 0.3 0 0 0 0 0 0 0 0 0 0.29 0 0 0 0 0 0 0 0 0 0.3 0 0 0 0 0 0 0 0 0 0.3 0 0 0 0 0 0 0 0.29 0 0 0 0 0 0 0 0 0 0 -0.59 0 0 0 0 0 0 0 0 0 0 0 0 -0.29 0 0 0 0 0 0 0 -0.3 0 0 0 0 0 0 0 0 0 -0.3 0 0 0 0 0 0 0 0 0 -0.29 0 0 0 0 0 0 0 0 0 -0.3 0 0 0 0 0 0 0 -0.3 0 0 0 0 0 0 0.3 0.3 0 0zm0 -0.59l0.3 0 0 0.29 -0.3 -0.29zm-1.76 0.29l0 -0.29 0 0 0 0 0 0 0 0 0 0 0.29 0 0 0 0 0 0 0 0 0 0.3 0 0 0 0 0 0 0 0 0 0.3 0 0 0 0 0 0 0 0 0 0.29 0 0 0 0 0 0 0 0.3 0 0 0 0 0 0 0 0 0 0.3 0 0 0 0 0 0 0 0 0.59 0 0 0 0 0 0 -0.3 -0.29 0 0 0 0 0 0 -0.3 0 0 0 0 0 0 0 0 0 -0.29 0 0 0 0 0 0 0 0 0 -0.3 0 0 0 0 0 0 0 0 0 -0.3 0 0 0 0 0 0 0 0 0 -0.29 0 0 0 0 0 0 0 0 0 0 0 0 -0zm-24.43 0l0 -0.59 0 0 0.59 0 0.89 0 0.88 0.3 0.59 0 0.88 0 0.59 0 0.88 0 0.59 0 0.88 0 0.88 0 0.59 0 0.88 0 0.59 0 0.88 0 0.89 0 0.59 0 0.89 0 0.59 0 0.89 0 0.88 0 0.59 0 0.88 0 0.59 0 0.88 0 0.88 0 0.59 0 0.88 0 0.59 0 0.88 0 0.89 0 0.59 0 0.89 0 0 0.29 -0.89 0 -0.59 0 -0.89 0 -0.88 0 -0.59 0 -0.88 0 -0.59 0 -0.88 0 -0.88 0 -0.59 0 -0.88 0 -0.59 0 -0.88 0 -0.89 0 -0.59 0 -0.89 0 -0.59 0 -0.89 0 -0.88 0 -0.59 0 -0.88 0 -0.59 0 -0.88 0 -0.88 0 -0.59 0 -0.88 0 -0.59 0 -0.88 0 -0.89 0 -0.59 0 -0.89 0 -0.59 0 0 0 0 0zm-2.06 1.77l-0.59 0 0 0 0 -0.3 0 0 0 -0.3 0.29 0 0 -0.29 0 0 0 0 0 -0.3 0 0 0 0 0 -0.3 0.3 0 0 0 0 0 0 -0.29 0 0 0.3 0 0 0 0 -0.3 0.29 0 0 0 0 0 0.3 0 0 0 0 0 0.3 0 0 0 0.29 0 0 -0.3 0.3 0 0 0 0.3 0 0 0.59 -0.3 0 0 0 -0.3 0 0 0 0 0 -0.29 0 0 0 0 0 -0.3 0 0 0.3 0 0 -0.3 0 0 0 0 0 0 0 0 0 0 0 -0.29 0.29 0 0 0 0 0 0 0 0 0 0.3 0 0 0 0 -0.3 0.3 0 0 0 0 0 0.29 0 0 0 0 0 0.3 0 0 0 0zm-1.76 13.54l-0.59 0 0 0 0 -0.3 0 -0.59 0.3 -0.29 0 -0.59 0 -0.3 0 -0.59 0 -0.3 0.3 -0.3 0 -0.59 0 -0.3 0 -0.59 0 -0.29 0.29 -0.59 0 -0.3 0 -0.59 0 -0.3 0.3 -0.59 0 -0.29 0 -0.3 0 -0.59 0 -0.29 0.3 -0.59 0 -0.3 0 -0.59 0 -0.3 0 -0.59 0 -0.29 0.29 -0.59 0 -0.3 0 -0.29 0 -0.59 0 -0.3 0.59 0 0 0.3 0 0.59 0 0.29 -0.3 0.59 0 0.3 0 0.59 0 0.3 0 0.3 -0.29 0.59 0 0.3 0 0.59 0 0.29 0 0.59 -0.3 0.3 0 0.59 0 0.3 0 0.59 0 0.29 -0.3 0.3 0 0.59 0 0.29 0 0.59 0 0.3 -0.29 0.59 0 0.3 0 0.59 0 0.29 0 0.59 -0.3 0.3 0 0.29 0 0.59 0 0.3 0 0zm-2.35 2.06l0 -0.59 0 0 0.3 0 0 0 0 0 0.29 0 0 0 0 0 0.3 0 0 0 0 0 0 0 0.3 0 0 -0.29 0 0 0 0 0 0 0.29 0 0 0 0 0 0 0 0 -0.3 0 0 0 0 0 0 0.3 0 0 -0.3 0 0 0 0 0 -0.29 0 0 0 0 0 0 0 -0.3 0.59 0 0 0.3 0 0 0 0 0 0.29 0 0 -0.3 0 0 0.3 0 0 0 0 0 0.3 0 0 0 0 -0.3 0.29 0 0 0 0 0 0 -0.29 0 0 0.3 0 0 0 0 -0.3 0 0 0 0 0 -0.3 0 0 0 0 0.3 -0.29 0 0 0 -0.3 0 0 0 0 0 -0.3 0 0 0 0 0zm-5.3 -4.41l0.59 0 0 0 0 0.29 0 0.59 0 0.3 0 0.29 0.29 0.3 0 0.3 0 0 0 0.29 0 0.3 0.3 0 0 0.3 0 0 0 0.29 0.3 0 0 0 0 0.3 0.3 0 0 0 0 0 0.29 0 0 0.3 0.3 0 0.3 0 0 0 0.29 0 0.3 0 0.3 0 0.29 0 0.3 0 0.59 0 0.29 0 0.3 0 0 0.59 -0.3 0 -0.29 0 -0.59 0 -0.3 0 -0.29 0 -0.3 0 -0.3 0 -0.29 0 -0.3 -0.29 0 0 -0.3 0 -0.29 0 0 0 -0.3 0 0 -0.3 -0.3 0 0 0 -0.3 -0.3 0 0 -0.29 -0.29 0 0 0 -0.3 0 -0.3 -0.3 0 0 -0.29 0 -0.3 0 -0.3 0 -0.29 -0.3 -0.3 0 -0.3 0 -0.29 0 -0.59 0 0 0 0zm-1.77 -11.78l0.59 0 0 0 0 0.3 0 0.3 0.3 0.3 0 0.59 0 0.3 0 0.3 0 0.59 0 0.3 0 0.3 0.29 0.29 0 0.59 0 0.3 0 0.29 0 0.3 0.3 0.59 0 0.29 0 0.3 0 0.3 0 0.59 0 0.3 0.3 0.3 0 0.59 0 0.3 0 0.3 0 0.29 0.3 0.59 0 0.3 0 0.29 0 0.3 0 0.59 0 0.29 0.29 0.3 -0.59 0 0 -0.3 0 -0.29 -0.3 -0.3 0 -0.59 0 -0.29 0 -0.3 0 -0.3 -0.3 -0.59 0 -0.3 0 -0.3 0 -0.29 0 -0.59 -0.29 -0.3 0 -0.29 0 -0.59 0 -0.3 0 -0.29 0 -0.3 -0.3 -0.59 0 -0.29 0 -0.3 0 -0.3 0 -0.59 0 -0.3 -0.3 -0.3 0 -0.59 0 -0.3 0 -0.3 0 -0.29 0 -0.59 -0.3 -0.3 0 -0.3 0 0zm-1.18 -1.76l0.3 -0.59 0 0 0 0.3 0 0 0.3 0 0 0 0 0 0 0 0.3 0 0 0.3 0 0 0 0 0.29 0 0 0 0 0.29 0 0 0 0 0.3 0 0 0 0 0.3 0 0 0 0 0 0 0 0.3 0 0 0.3 0 0 0.29 0 0 0 0 0 0 0 0.3 0 0 0 0 0 0.3 -0.59 0 0 -0.3 0 0 0 0 0 0 0 -0.3 0 0 0 0 0 0 0 -0.29 0 0 0 0 0 0 -0.3 0 0 0 0 -0.3 0 0 0 0 0 0 0 0 0 0 -0.29 -0.3 0 0 0 0 0 0 0 0 0 0 -0.3 0 0 -0.29 0 0 0 0 -0.3 0 0 0 0 0 0 0zm-4.71 -5l0.59 -0.3 0 0 0 0.3 0 0.3 0.3 0 0 0.29 0 0.3 0 0 0.29 0.3 0 0 0 0.29 0.3 0.3 0 0 0 0.3 0.3 0 0 0.3 0.29 0 0 0.29 0.3 0.3 0 0 0.3 0 0 0.3 0.29 0 0 0.29 0.3 0 0 0.3 0.3 0 0.3 0 0 0.3 0.29 0 0 0 0.3 0.29 0.3 0 0.29 0 -0.29 0.59 -0.3 0 -0.3 -0.3 0 0 -0.29 0 -0.3 -0.29 0 0 -0.3 -0.3 -0.3 0 0 0 -0.29 -0.3 -0.3 0 0 -0.29 -0.3 0 0 -0.3 -0.29 0 0 -0.3 -0.3 0 0 -0.3 -0.3 -0.29 0 0 -0.29 -0.3 0 0 0 -0.3 -0.3 -0.29 0 0 0 -0.3 -0.3 -0.3 0 -0.29 0 0 0 -0.3 -0.29 -0.3 0 0 0 0 -0 0zm-13.24 -49.15l0.59 -0.29 0 0 0.3 1.47 0.59 1.76 0.3 1.47 0.3 1.47 0.59 1.47 0.3 1.77 0.59 1.47 0.29 1.47 0.3 1.47 0.59 1.47 0.29 1.76 0.59 1.47 0.3 1.47 0.29 1.47 0.59 1.77 0.3 1.47 0.59 1.47 0.3 1.47 0.59 1.47 0.29 1.77 0.3 1.47 0.59 1.47 0.29 1.47 0.59 1.47 0.3 1.77 0.29 1.47 0.59 1.47 0.3 1.47 0.59 1.77 0.3 1.47 0.3 1.47 0.59 1.47 -0.59 0.3 -0.3 -1.77 -0.59 -1.47 -0.29 -1.47 -0.59 -1.47 -0.3 -1.47 -0.29 -1.77 -0.59 -1.47 -0.3 -1.47 -0.59 -1.47 -0.3 -1.76 -0.3 -1.47 -0.59 -1.47 -0.3 -1.47 -0.59 -1.47 -0.29 -1.77 -0.3 -1.47 -0.59 -1.47 -0.29 -1.47 -0.59 -1.47 -0.3 -1.76 -0.29 -1.47 -0.59 -1.47 -0.3 -1.47 -0.59 -1.77 -0.3 -1.47 -0.3 -1.47 -0.59 -1.47 -0.3 -1.47 -0.59 -1.76 -0.29 -1.47 -0.3 -1.47 -0.59 -1.47 0 0zm6.18 -9.42l0.3 0.3 0 0 -0.59 0.29 -0.29 0 -0.3 0.3 -0.59 0 -0.29 0.3 -0.3 0 -0.3 0.29 -0.29 0 -0.3 0.3 -0.3 0.3 -0.29 0.3 -0.3 0.29 -0.3 0 -0.29 0.3 0 0.3 -0.3 0.29 -0.3 0.3 0 0.3 -0.3 0.29 0 0.59 -0.29 0.3 0 0.29 0 0.3 -0.3 0.3 0 0.29 0 0.59 0 0.3 0 0.29 0 0.3 0 0.59 0.3 0.29 0 0.3 -0.59 0.3 0 -0.59 0 -0.3 -0.3 -0.29 0 -0.59 0 -0.3 0 -0.29 0 -0.59 0.3 -0.3 0 -0.29 0 -0.59 0.3 -0.3 0 -0.29 0 -0.3 0.29 -0.3 0.3 -0.29 0 -0.59 0.3 -0.3 0.3 -0.29 0.29 -0.3 0.3 -0.3 0.3 0 0.29 -0.29 0.3 -0.3 0.3 -0.3 0.29 -0.29 0.3 0 0.3 -0.3 0.59 0 0.3 -0.3 0.3 0 0.59 -0.3 0.3 0 0 0 0 0zm9.71 5.59l-0.3 0.3 0 0 -0.29 -0.3 0 -0.59 -0.3 -0.3 0 -0.3 -0.3 -0.29 -0.29 -0.3 0 -0.3 -0.3 -0.29 -0.3 -0.3 -0.29 -0.3 0 -0.29 -0.3 -0.3 -0.3 0 -0.29 -0.3 -0.3 -0.29 -0.3 -0.3 -0.29 0 -0.3 -0.3 -0.59 0 -0.29 -0.29 -0.3 0 -0.3 0 -0.29 -0.3 -0.3 0 -0.59 0 -0.29 0 -0.3 0 -0.3 0 -0.59 0 -0.29 0 -0.3 0 -0.3 0 -0.29 -0.3 0.59 0 0.3 -0.29 0.3 0 0.59 0 0.3 0 0.3 0 0.59 0 0.3 0.29 0.3 0 0.3 0 0.59 0 0.3 0.3 0.3 0 0.29 0.3 0.59 0 0.3 0.29 0.29 0.3 0.3 0 0.3 0.3 0.29 0.29 0.3 0.3 0.3 0.3 0.29 0.29 0 0.3 0.3 0.3 0.3 0.29 0.29 0.3 0 0.3 0.3 0.59 0 0.3 0.3 0.3 0 0.29 0 0 -0 0zm1.77 7.95l0.29 0.3 -0.29 0 0 -0.3 -0.3 -0.3 0 -0.29 0 -0.3 0 -0.3 -0.3 -0.3 0 0 0 -0.29 0 -0.3 -0.29 -0.3 0 -0.29 0 -0.3 0 -0.3 0 0 -0.3 -0.29 0 -0.3 0 -0.3 0 -0.29 -0.3 -0.3 0 0 0 -0.3 0 -0.29 0 -0.3 -0.29 -0.3 0 -0.29 0 0 0 -0.3 -0.3 -0.3 0 -0.29 0 -0.3 0 0 0 -0.3 0.3 -0.29 0 0.29 0.29 0.3 0 0.3 0 0.29 0 0 0.3 0.3 0 0.3 0 0.29 0 0.3 0 0.3 0.3 0 0 0.29 0 0.3 0 0.3 0.29 0.29 0 0 0 0.3 0 0.3 0.3 0.29 0 0.3 0 0.3 0 0.29 0 0 0.3 0.3 0 0.3 0 0.29 0 0.3 0.29 0.3 0 0.3 0 0.29 0 0 0.3 0.3 -0.59 0 0 0zm0.29 0.3l-0.29 0.59 0 -0.59 0.29 0zm0.59 -1.47l0.59 0.3 0 0 0 0 0 0 -0.3 0 0 0 0 0 0 0 0 0 0 0 0 0.29 0 0 0 0 0 0 0 0 0 0 -0.3 0 0 0 0 0.3 0 0 0 0 0 0 0 0 0 0 0 0 -0.29 0.3 0 0 0 0 0 0 0 0 0 0 0 0.29 0 0 -0.3 0 -0.3 -0.29 0 0 0 0 0 0 0.3 -0.3 0 0 0 0 0 0 0 0 0 0 0 -0.3 0 0 0 0 0.3 0 0 0 0 0 0 0 0 -0.29 0 0 0 0 0 0 0 0 0 0 0 0 0.29 0 0 -0.3 0 0 0 0 0 0 0 0 0 0 0 0 0 0 0 0 0 0zm11.48 -5.3l-0.3 0.59 0 0 -0.3 0 -0.59 0 -0.3 0 -0.3 0 -0.59 0 -0.3 0 -0.3 0 -0.59 0 -0.3 0 -0.3 0.3 -0.59 0 -0.3 0 -0.3 0.29 -0.3 0 -0.29 0.3 -0.59 0 -0.3 0.3 -0.29 0 -0.3 0.3 -0.3 0.29 -0.29 0 -0.3 0.3 -0.3 0.3 -0.29 0.29 -0.3 0 -0.3 0.3 -0.29 0.3 -0.3 0.29 -0.3 0.3 -0.29 0.3 0 0.29 -0.3 0.59 -0.59 -0.3 0.3 -0.59 0.3 -0.3 0.29 -0.3 0.3 -0.29 0.3 -0.3 0.29 -0.3 0.3 -0.29 0.3 -0.3 0.29 -0.3 0.3 0 0.3 -0.29 0.29 -0.3 0.3 -0.3 0.3 0 0.3 -0.3 0.59 0 0.3 -0.29 0.3 0 0.29 -0.3 0.59 0 0.3 -0.3 0.29 0 0.59 0 0.3 0 0.29 -0.29 0.59 0 0.3 0 0.59 0 0.3 0 0.59 0 0.29 0 0.59 0 0 0 0 -0zm9.71 7.95l-0.59 0 0 0 0 -0.3 -0.3 -0.59 0 -0.3 -0.29 -0.3 -0.3 -0.29 0 -0.59 -0.3 -0.3 -0.29 -0.3 0 -0.29 -0.3 -0.3 -0.3 -0.3 -0.29 -0.29 -0.3 -0.3 -0.3 -0.3 -0.29 0 -0.3 -0.29 -0.3 -0.3 -0.29 -0.3 -0.3 0 -0.3 -0.29 -0.3 -0.3 -0.29 0 -0.3 -0.3 -0.59 0 -0.29 -0.29 -0.3 0 -0.59 -0.3 -0.29 0 -0.3 0 -0.59 0 -0.29 -0.3 -0.59 0 0.3 -0.59 0.29 0.29 0.59 0 0.3 0 0.59 0 0.3 0.3 0.3 0 0.59 0.3 0.3 0 0.3 0.29 0.59 0 0.3 0.3 0.3 0.3 0.3 0 0.29 0.29 0.59 0.3 0.3 0 0.29 0.3 0.3 0.29 0.3 0.3 0.29 0.3 0 0.29 0.3 0.3 0.3 0.3 0.29 0.3 0.3 0.29 0 0.59 0.3 0.3 0.29 0.29 0 0.3 0.3 0.59 0 0.29 0.3 0.59 0 0zm2.35 8.83l0 0.59 -0.3 -0.29 0 -0.3 0 -0.3 -0.3 -0.29 0 -0.3 0 -0.3 0 -0.29 -0.29 -0.3 0 -0.3 0 -0.29 -0.3 -0.3 0 -0.3 0 -0.3 0 -0.29 -0.3 -0.3 0 -0.3 0 -0.29 0 -0.3 -0.29 -0.3 0 -0.29 0 -0.3 -0.3 -0.3 0 -0.29 0 0 0 -0.3 -0.3 -0.3 0 -0.29 0 -0.3 -0.29 -0.3 0 -0.29 0 -0.3 0 -0.3 -0.3 -0.29 0.59 0 0 0 0.29 0.29 0 0.3 0 0.3 0 0.29 0.3 0.3 0 0.3 0 0.29 0.3 0.3 0 0.3 0 0.29 0 0.3 0.29 0.3 0 0.29 0 0.3 0.3 0.3 0 0.29 0 0.3 0 0.3 0.3 0.29 0 0.3 0 0.3 0 0.3 0.29 0.29 0 0.3 0 0.3 0.3 0.29 0 0.3 0 0.3 0 0.29 0.3 0.3 0 0.3 -0.3 -0.3 0 0zm0 0.59l0 0 -0.3 -0.3 0.3 0.3zm10.59 -3.83l0.3 0.3 0 0 -0.59 0 -0.3 0.3 -0.29 0 -0.3 0 -0.3 0 -0.29 0.29 -0.3 0 -0.3 0 -0.59 0.3 -0.29 0 -0.3 0 -0.3 0.3 -0.29 0 -0.3 0 -0.3 0.29 -0.29 0 -0.59 0.3 -0.3 0 -0.29 0 -0.3 0.3 -0.3 0 -0.29 0.29 -0.3 0 -0.3 0 -0.59 0.3 -0.3 0 -0.3 0.3 -0.29 0 -0.3 0 -0.3 0.29 -0.29 0 -0.59 0.3 0 -0.59 0.3 0 0.29 -0.29 0.3 0 0.3 0 0.59 -0.3 0.3 0 0.3 -0.3 0.29 0 0.3 -0.29 0.3 0 0.29 0 0.3 -0.3 0.59 0 0.29 -0.3 0.3 0 0.3 0 0.29 -0.29 0.3 0 0.3 0 0.59 -0.3 0.3 0 0.3 -0.3 0.29 0 0.3 0 0.3 -0.29 0.3 0 0.59 0 0.3 0 0.3 -0.3 0.29 0 0.3 0 0.3 0 0 0 0 0zm5 -5l0.59 0.3 0 0 0 0.3 -0.3 0 0 0.29 0 0.3 -0.3 0.3 0 0 0 0.29 -0.29 0.3 0 0.3 0 0 -0.3 0.29 0 0.3 -0.3 0 0 0.3 0 0 -0.3 0.29 0 0.3 -0.29 0 -0.3 0.3 0 0 -0.3 0.29 -0.29 0 0 0 -0.3 0.3 -0.3 0 -0.29 0.3 0 0 -0.3 0 -0.3 0 -0.29 0.29 -0.3 0 -0.3 0 -0.29 -0.29 0.29 -0.3 0.3 0 0.3 0 0.29 0 0.3 -0.3 0.3 0 0 0 0.29 -0.29 0.3 0 0 0 0.3 -0.3 0.29 0 0 -0.3 0.3 0 0 -0.29 0.3 0 0 -0.3 0.29 0 0 -0.3 0 0 0.3 -0.29 0 -0.3 0 0 0.3 -0.3 0 -0.29 0 0 0.3 -0.3 0 -0.3 0 0 0.29 -0.29 0 -0.3 0 -0.3 0 0 0 0zm6.18 -17.36l0.29 0.29 0 0 0 0.59 -0.29 0.3 -0.3 0.59 0 0.59 -0.3 0.59 -0.29 0.59 0 0.59 -0.3 0.3 -0.3 0.59 0 0.59 -0.29 0.59 0 0.59 -0.3 0.59 -0.3 0.3 0 0.59 -0.29 0.59 -0.3 0.59 0 0.59 -0.3 0.59 -0.29 0.59 0 0.29 -0.3 0.59 -0.3 0.59 0 0.59 -0.3 0.59 -0.29 0.59 0 0.29 -0.3 0.59 0 0.59 -0.3 0.59 -0.29 0.59 0 0.59 -0.59 -0.29 0.3 -0.59 0 -0.59 0.29 -0.29 0.3 -0.59 0 -0.59 0.3 -0.59 0 -0.59 0.3 -0.59 0.29 -0.3 0 -0.59 0.3 -0.59 0.3 -0.59 0 -0.59 0.29 -0.59 0.3 -0.59 0 -0.3 0.3 -0.59 0.29 -0.59 0 -0.59 0.3 -0.59 0 -0.59 0.3 -0.3 0.29 -0.59 0 -0.59 0.3 -0.59 0.3 -0.59 0 -0.59 0.29 -0.3 0.3 -0.59 0 -0.59 0.3 -0.59 0.29 -0.59 0 0 0 0zm2.65 -1.77l0 0.3 0 0 0 0 -0.3 0 0 0 0 0 -0.3 0 0 0 0 0 -0.29 0 0 0.29 0 0 -0.3 0 0 0 0 0 0 0 -0.3 0 0 0 0 0 0 0.3 -0.29 0 0 0 0 0 0 0 0 0.3 -0.3 0 0 0 0 0.29 0 0 0 0 0 0.3 0 0 -0.3 0 0 0.3 -0.29 -0.3 0 0 0 -0.3 0 0 0 0 0 -0.29 0.29 0 0 -0.3 0 0 0 0 0 -0.3 0.3 0 0 0 0 0 0 -0.29 0.3 0 0 0 0 0 0.29 0 0 -0.3 0 0 0.3 0 0 0 0 0 0.3 0 0 0 0.29 0 0 0 0 0 0.3 0 0 0 0.3 0 0 0 0 0zm5.59 -0.3l0.3 0.3 0 0 0 0 -0.3 0 0 0.3 -0.3 0 0 0 -0.29 0 0 0 -0.3 0 -0.3 0.29 0 0 -0.29 0 -0.3 0 0 0 -0.3 0 0 0 -0.29 0 -0.3 0 0 0 -0.3 0 -0.29 0 -0.3 0 0 0 -0.3 0 -0.29 0 0 0 -0.3 -0.29 -0.3 0 0 0 -0.29 0 0 0 -0.3 0 -0.3 0 0 -0.3 0.3 0 0.3 0 0 0 0.29 0 0.3 0 0 0 0.3 0 0.29 0 0 0 0.3 0 0.3 0 0 0 0.29 0 0.3 0 0 0 0.3 0 0.29 0 0 0 0.3 0 0 0 0.3 0 0.29 0 0 0 0.3 0 0 0 0.3 0 0 -0.3 0.29 0 0 0 0.3 0 0 0 0 0 0 0zm2.06 -5l0.3 0.3 0 0 0 0 0 0.3 0 0.29 0 0 0 0.3 -0.3 0 0 0.3 0 0 0 0.29 0 0.3 0 0 -0.29 0.3 0 0 0 0.29 0 0.3 0 0 0 0.3 0 0 -0.3 0.29 0 0.3 0 0 0 0.3 -0.3 0 0 0.3 0 0 0 0.29 -0.29 0 0 0 0 0.3 -0.3 0 0 0.3 -0.3 0 -0.29 -0.3 0.29 -0.3 0 0 0 0 0.3 -0.29 0 0 0 0 0 -0.3 0.3 0 0 -0.3 0 0 0 -0.3 0 0 0.29 -0.29 0 0 0 -0.3 0 0 0 -0.3 0 0 0.3 -0.29 0 -0.3 0 0 0 -0.3 0 0 0 -0.29 0 -0.3 0.3 0 0 -0.3 0 0 0 -0.29 0 0 0 -0.3 0.29 -0.3 0 0zm1.77 -4.71l0.3 0 0 0 0 0.3 0 0 0 0.3 -0.3 0 0 0.29 0 0 0 0.3 0 0 0 0.3 -0.3 0 0 0.29 0 0 0 0.3 0 0.3 -0.3 0 0 0.29 0 0 0 0.3 0 0 0 0.3 -0.29 0 0 0.29 0 0 0 0.3 0 0 -0.3 0.3 0 0 0 0.29 0 0 0 0.3 0 0 -0.3 0.3 -0.29 -0.3 0 0 0 -0.3 0 0 0 -0.29 0.29 0 0 -0.3 0 0 0 -0.3 0 0 0 -0.29 0.3 0 0 -0.3 0 0 0 -0.3 0 0 0.3 -0.29 0 0 0 -0.3 0 0 0 -0.3 0 -0.29 0.29 0 0 -0.3 0 0 0 -0.3 0 0 0.3 -0.29 0 0 0 -0.3 0 0 0 -0.3 0.3 0 0 0zm2.35 -0.59l-0.3 0.3 0 0 0 0 -0.3 0 0 -0.3 0 0 -0.29 0 0 0 0 -0.3 0 0 0 0 -0.3 0 0 0 0 0 0 0 0 0 0 0 -0.3 0 0 0 0 0 0 0 0 0 0 0 0 0 0 0.3 -0.29 0 0 0 0 0 0 0 0 0.3 0 0 0 0 -0.3 0.29 0 0 -0.3 0 0 -0.29 0 0 0 -0.3 0 0 0 0 0.3 -0.3 0 0 0 0 0 -0.29 0 0 0.3 0 0 0 0 0 0 -0.3 0.29 0 0 0 0 0 0.3 0 0 0 0 0 0.3 0 0 0.3 0 0 0.29 0 0 0 0 0 0.3 0.29 0 0 0 0 0.3 0 0 0.3 0 0 0 0zm10.3 10.3l-0.3 0.59 0 0 -0.3 -0.59 -0.29 -0.29 -0.3 -0.3 -0.3 -0.3 -0.29 -0.29 -0.59 -0.3 -0.3 -0.3 -0.29 -0.29 -0.3 -0.3 -0.3 -0.59 -0.3 -0.29 -0.29 -0.3 -0.3 -0.3 -0.3 -0.29 -0.29 -0.3 -0.3 -0.3 -0.59 -0.3 -0.29 -0.29 -0.3 -0.59 -0.3 -0.3 -0.29 -0.29 -0.3 -0.3 -0.3 -0.3 -0.29 -0.29 -0.3 -0.3 -0.3 -0.3 -0.29 -0.29 -0.59 -0.3 -0.3 -0.59 -0.29 -0.29 -0.3 -0.3 -0.3 -0.3 0.3 -0.29 0.3 0.29 0.59 0.3 0.3 0.3 0.3 0.29 0.29 0.59 0.3 0.3 0.3 0.29 0.29 0.3 0.3 0.3 0.3 0.29 0.29 0.3 0.3 0.3 0.59 0.29 0.29 0.3 0.3 0.59 0.3 0.29 0.29 0.3 0.3 0.3 0.3 0.3 0.29 0.29 0.3 0.3 0.3 0.3 0.59 0.29 0.3 0.3 0.3 0.59 0.3 0.29 0.29 0.3 0.3 0.3 0.3 0.29 0.29 0.3 0.3 0.3 0.3 0.29 0 0zm0.59 2.35l-0.59 -0.29 0 0 0 0 0 0 0 0 0 0 0 -0.3 0 0 0 0 0 0 0 0 0 -0.3 0 0 0 0 0 0 0 0 0 -0.29 0 0 0 0 0 0 0 0 0 -0.3 0 0 0 0 0 0 0 0 0 0 0 -0.3 -0.29 0 0 0 0 0 0 0 0 0 0 0 0.29 -0.59 0 0.29 0.3 0 0 0 0 0 0 0 0 0.3 0 0 0 0 0 0 0.3 0 0 0.3 0 0 0 0 0 0 0 0.29 0 0 0 0 0 0 0 0.3 0 0 0 0 0 0 0 0.3 0 0 0 0 0 0 0 0.29 0 0 0 0 0 0 0 0.3 0 0 0 0 0 0zm-14.42 41.5l-0.59 -0.29 0 0 0.59 -1.18 0.29 -1.47 0.59 -1.18 0.3 -1.47 0.59 -1.18 0.3 -1.18 0.59 -1.47 0.29 -1.18 0.59 -1.47 0.3 -1.18 0.59 -1.18 0.59 -1.47 0.3 -1.18 0.59 -1.47 0.3 -1.18 0.59 -1.18 0.29 -1.47 0.59 -1.18 0.3 -1.47 0.59 -1.18 0.3 -1.18 0.59 -1.47 0.59 -1.18 0.3 -1.47 0.59 -1.18 0.29 -1.18 0.59 -1.47 0.3 -1.18 0.59 -1.47 0.3 -1.18 0.59 -1.18 0.29 -1.47 0.59 0.3 -0.59 1.18 -0.29 1.47 -0.59 1.18 -0.3 1.18 -0.59 1.47 -0.3 1.18 -0.59 1.47 -0.29 1.18 -0.59 1.18 -0.3 1.47 -0.59 1.18 -0.3 1.47 -0.59 1.18 -0.29 1.18 -0.59 1.47 -0.59 1.18 -0.29 1.47 -0.59 1.18 -0.3 1.18 -0.59 1.47 -0.3 1.18 -0.59 1.47 -0.29 1.18 -0.59 1.18 -0.3 1.47 -0.59 1.18 -0.59 1.47 -0.3 1.18 -0.59 1.18 -0.3 1.47 -0.59 1.18 -0.29 1.18 0 0.29zm0.29 2.65l-0.59 0.3 0 0 0 0 0 -0.3 0 0 0 0 -0.3 -0.3 0 0 0 0 0 -0.29 0 0 0 0 0 -0.3 -0.3 0 0 0 0 -0.3 0 0 0 0 0 -0.29 0 0 0 0 0 -0.3 0 0 0 0 0 -0.3 0 0 0 0 0 -0.3 0 0 0.3 -0.29 0 0 0 0 0 -0.3 0 0 0.59 0.3 0 0 -0.3 0 0 0.29 0 0 0 0 0 0 0 0.3 0 0 0 0 0 0.3 0 0 0 0 0 0.3 0 0 0 0 0 0 0 0.29 0 0 0 0 0 0.3 0 0 0 0 0 0 0.3 0.3 0 0 0 0 0 0 0 0.29 0 0 0 0 0.29 0.3 0 0 0 0zm11.48 16.78l-0.59 0.3 0 0 -0.3 -0.59 -0.3 -0.59 -0.29 -0.59 -0.59 -0.3 -0.3 -0.59 -0.29 -0.59 -0.3 -0.59 -0.3 -0.59 -0.59 -0.3 -0.3 -0.59 -0.3 -0.59 -0.3 -0.59 -0.29 -0.29 -0.59 -0.59 -0.3 -0.59 -0.29 -0.59 -0.3 -0.59 -0.3 -0.3 -0.59 -0.59 -0.3 -0.59 -0.3 -0.59 -0.29 -0.29 -0.59 -0.59 -0.3 -0.59 -0.29 -0.59 -0.3 -0.3 -0.3 -0.59 -0.59 -0.59 -0.3 -0.59 -0.3 -0.59 -0.29 -0.29 -0.59 -0.59 0.59 -0.3 0.29 0.59 0.3 0.59 0.59 0.29 0.29 0.59 0.3 0.59 0.3 0.59 0.29 0.3 0.59 0.59 0.3 0.59 0.29 0.59 0.3 0.3 0.59 0.59 0.29 0.59 0.3 0.59 0.3 0.59 0.29 0.3 0.59 0.59 0.3 0.59 0.29 0.59 0.3 0.3 0.59 0.59 0.3 0.59 0.29 0.59 0.3 0.59 0.3 0.3 0.59 0.59 0.3 0.59 0.3 0.59 0.29 0.29 0.3 0.59 0.59 0.59 0.29 0.59 0 0zm-4.41 9.42l0 -0.59 0 0 0.3 0 0.59 0 0.3 -0.3 0.3 0 0.29 -0.29 0.59 0 0.3 -0.3 0.29 -0.3 0.3 0 0 -0.3 0.3 -0.29 0.29 -0.3 0.3 -0.3 0 -0.29 0.3 -0.3 0 -0.3 0.29 -0.29 0 -0.3 0 -0.3 0.3 -0.29 0 -0.3 0 -0.3 0 -0.59 0 -0.3 0 -0.3 -0.3 -0.29 0 -0.3 0 -0.59 -0.29 -0.29 0 -0.3 -0.3 -0.3 -0.3 -0.29 0.59 -0.3 0.3 0.3 0 0.29 0.29 0.59 0 0.3 0.3 0.29 0 0.59 0 0.3 0.3 0.29 0 0.3 0 0.59 0 0.29 -0.3 0.3 0 0.3 0 0.59 0 0.3 -0.3 0.3 0 0.29 -0.29 0.3 -0.3 0.3 -0.3 0.29 0 0.3 -0.29 0.3 -0.3 0.29 -0.3 0.3 -0.29 0 -0.59 0.3 -0.3 0.29 -0.29 0 -0.3 0.3 -0.59 0 -0.29 0 -0.59 0.3 0 0 0 0zm-6.48 -2.94l0.59 0 0 0 0 0 0.29 0.3 0 0 0.3 0.29 0 0 0.3 0.3 0 0 0.3 0.3 0 0 0.29 0.29 0.3 0 0 0.3 0.3 0 0 0 0.29 0.3 0.3 0 0 0 0.3 0 0.29 0.29 0 0 0.3 0 0.3 0 0 0 0.29 0 0.3 0 0 0 0.3 0 0.29 0 0.3 0 0 0 0.3 0 0.29 0 0 0.59 -0.29 0 0 0 -0.3 0 -0.3 0 -0.29 0 -0.3 0 0 0 -0.3 0 -0.29 0 -0.3 0 -0.3 0 0 -0.3 -0.29 0 -0.3 0 0 0 -0.3 -0.29 -0.29 0 -0.3 0 0 -0.3 -0.3 0 0 0 -0.29 -0.3 -0.3 0 0 -0.29 -0.3 0 0 -0.3 -0.3 0 0 -0.3 -0.29 -0.29 -0.3 0 0 -0.3 -0.3 -0.3 0 0 0 0zm-4.12 -6.48l-0.29 -0.29 0.29 0 0.3 0.29 0 0 0.3 0.3 0 0.3 0.29 0.29 0 0 0.3 0.3 0 0.3 0.3 0 0 0.29 0.3 0.3 0 0 0.29 0.3 0 0.3 0.3 0.29 0 0 0.3 0.3 0 0.3 0.29 0 0 0.29 0.3 0.3 0 0.3 0.3 0 0 0.29 0.29 0.3 0 0 0 0.3 0.3 0.29 0 0 0.3 0.3 0 0.3 0.29 0.29 -0.59 0 0 0 -0.3 -0.29 0 -0.3 -0.3 0 0 -0.3 0 -0.29 -0.29 0 0 -0.3 -0.3 -0.3 0 -0.29 -0.3 0 0 -0.3 -0.29 -0.3 0 0 -0.3 -0.29 0 -0.3 -0.3 0 0 -0.3 -0.29 -0.29 0 -0.3 -0.3 0 0 -0.3 -0.3 -0.3 0 0 -0.29 -0.29 0 -0.3 -0.3 -0.3 0 0 -0.3 -0.29 0 -0.3 -0.3 0 0 -0.3 0.3 0 0 0zm-0.29 -0.3l0.29 -0.29 0 0.29 -0.29 0zm0 0.3l-0.59 0 0.3 -0.29 0 0 0 0 0 0 0 0 0 0 0 0 0 0 0 0 0 0 0 0 0 0 0 0 0 0 0.29 0 0 0 0 0 0 0 0 0 0 0 0 0 0 0 0 0 0 0 0 0 0 0 0 0 0 0 0 0 0 0 0 0 0 0 0 0 0.3 0.29 0 0 0 0 0 0 0 0 0 0 0 0 0 0 0 0 0 0 -0.3 0 0 0 0 0 0 0 0 0 0 0 0 0.3 0 0 0 0 0 0 0 0 0 0 0 0 0 0 0 0 0 0 0 0 0 0 0 0 0 0 0 0 0 0 -0.29 0 0.29 -0.3 0 0zm-0.59 0l0 -0.29 0.3 0 -0.3 0.29zm-30.31 -34.73l0 0 0 0 0 0 0 0 0 0zm0.3 0l0 0 0 0.29 0 -0.29zm-3.53 -10.3l0.29 -0.29 0 0 0.3 0.29 0 0.3 0 0.3 0.3 0.59 0 0.3 0.29 0.3 0 0.29 0 0.3 0.3 0.3 0 0.29 0 0.3 0.3 0.3 0 0.29 0 0.3 0.29 0.59 0 0.29 0 0.3 0.3 0.3 0 0.29 0 0.3 0.3 0.3 0 0.29 0 0.3 0.3 0.59 0 0.29 0 0.3 0.29 0.3 0 0.3 0 0.29 0.3 0.3 0 0.3 0 0.59 -0.3 0 -0.29 -0.29 0 -0.3 0 -0.3 -0.3 -0.59 0 -0.3 0 -0.3 -0.3 -0.3 0 -0.29 0 -0.3 -0.3 -0.3 0 -0.29 0 -0.59 -0.29 -0.3 0 -0.29 0 -0.3 -0.3 -0.3 0 -0.29 0 -0.3 -0.3 -0.3 0 -0.29 0 -0.3 -0.29 -0.59 0 -0.29 0 -0.3 -0.3 -0.3 0 -0.29 0 -0.3 -0.3 -0.3 0 -0.29 -0.29 -0.3 0 -0.3 0 -0.29 0 0 0 -0zm-7.36 -5l0.3 -0.59 0 0 0.29 0 0.3 0.3 0.3 0 0.29 0 0.3 0 0.3 0.29 0.29 0 0.3 0 0.3 0.3 0.29 0 0.3 0 0.3 0.3 0.29 0 0.3 0.29 0 0 0.3 0.3 0.29 0 0.3 0.3 0.3 0.29 0 0 0.3 0.3 0.29 0.3 0 0 0.3 0.29 0.3 0.3 0 0.3 0.29 0.29 0 0 0.3 0.3 0 0.3 0.3 0.29 0 0.3 -0.3 0.3 -0.3 -0.3 0 -0.3 -0.29 -0.29 0 -0.3 -0.3 -0.3 0 0 -0.3 -0.29 0 -0.3 -0.29 -0.3 -0.3 0 0 -0.29 -0.3 0 -0.3 -0.3 0 -0.3 -0.29 0 -0.3 -0.29 -0.3 0 0 -0.3 -0.29 0 -0.3 -0.3 -0.3 0 -0.29 0 -0.3 -0.29 -0.3 0 -0.29 -0.3 -0.3 0 -0.3 0 -0.29 0 -0.3 -0.3 -0.3 0 -0.29 0 -0.3 0 0 0 0 0zm-10.3 9.13l-0.59 0 0 0 0 -0.3 0 -0.59 0 -0.59 0 -0.3 0 -0.59 0 -0.59 0.29 -0.3 0 -0.59 0.3 -0.59 0.3 -0.3 0.3 -0.59 0.29 -0.3 0.3 -0.3 0.3 -0.59 0.29 -0.3 0.59 -0.3 0.3 -0.29 0.29 -0.3 0.59 -0.59 0.59 0 0.29 -0.29 0.59 -0.3 0.59 -0.3 0.29 -0.29 0.59 0 0.59 0 0.59 -0.3 0.59 0 0.59 0 0.59 0 0.59 0 0.59 0 -0.29 0.59 -0.3 0 -0.59 -0.29 -0.59 0 -0.59 0.29 -0.59 0 -0.3 0 -0.59 0.3 -0.59 0 -0.59 0.3 -0.3 0 -0.59 0.3 -0.3 0.29 -0.59 0.3 -0.29 0.3 -0.59 0.29 -0.3 0.3 -0.3 0.3 -0.59 0.29 -0.3 0.59 -0.3 0.3 -0.29 0.29 -0.3 0.59 0 0.3 -0.3 0.59 -0.29 0.3 0 0.59 0 0.29 0 0.59 -0.3 0.3 0.3 0.59 0 0.3 0 0.59 0 0 -0 0zm7.95 29.43l-0.59 0.29 0 0 0 -0.88 -0.29 -1.18 -0.3 -0.88 -0.3 -0.89 -0.29 -0.88 -0.3 -0.88 -0.3 -0.89 0 -0.88 -0.3 -1.18 -0.29 -0.88 -0.3 -0.89 -0.3 -0.88 -0.29 -0.88 -0.3 -0.89 0 -0.88 -0.3 -0.88 -0.29 -1.18 -0.3 -0.89 -0.3 -0.88 -0.29 -0.88 -0.3 -0.89 0 -0.88 -0.3 -0.88 -0.29 -1.18 -0.3 -0.89 -0.3 -0.88 -0.29 -0.88 0 -0.89 -0.3 -0.88 -0.3 -0.88 -0.29 -1.18 -0.3 -0.89 0.59 0 0.29 0.89 0.3 0.88 0 0.88 0.3 0.89 0.29 1.18 0.3 0.88 0.3 0.88 0.29 0.89 0 0.88 0.3 0.88 0.3 0.89 0.29 1.18 0.3 0.88 0.3 0.88 0.29 0.89 0 0.88 0.3 0.88 0.3 0.89 0.29 1.18 0.3 0.88 0.3 0.88 0.29 0.89 0 0.88 0.3 0.88 0.3 0.89 0.29 0.88 0.3 1.18 0.3 0.88 0.3 0.89 0 0.88 0.29 0.88 0.3 0.89 0 0zm0.59 0.88l0.3 0.59 0 0 -0.3 0 0 0 0 0 0 0 0 0 -0.29 -0.3 0 0 0 0 0 0 0 0 0 0 0 0 -0.3 0 0 0 0 -0.3 0 0 0 0 0 0 0 0 -0.3 0 0 0 0 -0.29 0 0 0 0 0 0 0 0 0 0 0 -0.3 0 0 0 0 0 0 -0.29 0 0.59 -0.3 0 0 0 0 0 0.3 0 0 0 0 0 0 0.3 0 0 0 0 0 0 0 0 0.3 0 0 0 0 0 0 0 0 0 0 0 0 0.3 0 0 0.29 0 0 0 0 0 0 0 0 0 0 0 0 0 0 0 0 0 0 0 0 0 0 0 0 0 0 0 0 -0 0zm10.3 -0.59l0.29 0.59 0 0 -0.29 0 -0.59 0 -0.3 0 -0.29 0.3 -0.3 0 -0.3 0 -0.29 0 -0.3 0 -0.3 0 -0.29 0 -0.3 0 -0.3 0.3 -0.59 0 -0.3 0 -0.3 0 -0.29 0 -0.3 0 -0.3 0 -0.29 0 -0.3 0 -0.3 0 -0.3 0 -0.59 0 -0.3 0 -0.3 0 -0.29 0 -0.3 0 -0.3 0 -0.29 0 -0.3 0 -0.3 0 -0.29 0 -0.3 -0.59 0.59 0 0.29 0 0.3 0 0.3 0 0.29 0 0.3 0 0.3 0 0.29 0 0.3 0 0.59 0 0.29 0 0.3 0 0.3 0 0.29 0 0.3 0 0.3 0 0.3 0 0.29 0 0.3 0 0.3 0 0.59 0 0.3 0 0.3 0 0.29 0 0.3 -0.3 0.3 0 0.29 0 0.3 0 0.3 0 0.29 0 0.3 -0.29 0.3 0 0 0zm21.19 -6.48l0 0.59 0 0 -0.59 0.29 -0.59 0 -0.88 0.3 -0.59 0.3 -0.59 0 -0.59 0.29 -0.59 0.3 -0.88 0.3 -0.59 0 -0.59 0.29 -0.59 0.3 -0.89 0.3 -0.59 0 -0.59 0.29 -0.59 0.3 -0.59 0 -0.89 0.3 -0.59 0.29 -0.59 0 -0.59 0.3 -0.88 0.3 -0.59 0 -0.59 0.29 -0.59 0.3 -0.88 0 -0.59 0.3 -0.59 0.29 -0.59 0 -0.88 0.3 -0.59 0.3 -0.59 0 -0.59 0.3 -0.3 -0.59 0.59 0 0.88 -0.3 0.59 -0.3 0.59 0 0.59 -0.29 0.88 -0.3 0.59 0 0.59 -0.3 0.59 0 0.88 -0.29 0.59 -0.3 0.59 0 0.59 -0.3 0.89 -0.29 0.59 -0.3 0.59 0 0.59 -0.3 0.59 -0.29 0.89 0 0.59 -0.3 0.59 -0.3 0.59 -0.29 0.88 0 0.59 -0.3 0.59 -0.3 0.59 0 0.59 -0.29 0.88 -0.3 0.59 -0.3 0.59 0 0.59 -0.29 0.88 -0.3 0 0zm3.54 1.18l-0.59 0.3 0 0 0 0 0 0 -0.3 -0.3 0 0 0 0 0 -0.3 -0.29 0 0 0 0 0 0 -0.29 -0.3 0 0 0 0 0 0 0 -0.3 0 0 -0.3 0 0 0 0 -0.29 0 0 0 0 0 -0.3 0 0 0 0 0 -0.3 0 0 0 -0.29 0 0 0 0 0 -0.3 0.3 0 0 -0.3 0 0 -0.59 0 0 0.3 0 0 0 0.3 0 0 0 0.29 0 0 -0.3 0 0 0.3 0 0 0 0.3 0 0 0.3 0.29 0 0 0 0 0 0.3 0 0 0 0 0 0.3 0 0 0.3 0 0 0.29 0 0 0 0 0.29 0.3 0 0 0 0 0.3 0.3 0 0 0 0 0.3 0 0 0.29 0 0 0 0 0zm14.13 20.9l-0.59 0.29 0 0 -0.29 -0.59 -0.59 -0.59 -0.3 -0.88 -0.59 -0.59 -0.3 -0.59 -0.59 -0.59 -0.3 -0.59 -0.59 -0.88 -0.3 -0.59 -0.59 -0.59 -0.3 -0.59 -0.59 -0.59 -0.3 -0.88 -0.59 -0.59 -0.3 -0.59 -0.59 -0.59 -0.29 -0.59 -0.59 -0.88 -0.3 -0.59 -0.59 -0.59 -0.3 -0.59 -0.59 -0.59 -0.29 -0.88 -0.59 -0.59 -0.3 -0.59 -0.59 -0.59 -0.3 -0.89 -0.59 -0.59 -0.29 -0.59 -0.59 -0.59 -0.3 -0.59 -0.59 -0.89 0.59 -0.29 0.3 0.88 0.59 0.59 0.29 0.59 0.59 0.59 0.3 0.88 0.59 0.59 0.3 0.59 0.59 0.59 0.29 0.59 0.59 0.88 0.3 0.59 0.59 0.59 0.3 0.59 0.59 0.59 0.29 0.88 0.59 0.59 0.3 0.59 0.59 0.59 0.3 0.89 0.59 0.59 0.3 0.59 0.59 0.59 0.3 0.59 0.59 0.89 0.3 0.59 0.59 0.59 0.3 0.59 0.59 0.59 0.3 0.89 0.59 0.59 0.29 0.59 0.59 0.59 0 0zm1.18 1.47l-0.3 0.3 0 0 -0.3 0 0 0 0 0 0 0 0 0 0 0 -0.29 -0.3 0 0 0 0 0 0 0 0 0 0 0 -0.29 0 0 -0.3 0 0 0 0 0 0 -0.3 0 0 0 0 0 0 0 0 -0.3 0 0 -0.3 0 0 0 0 0 0 0 0 0 0 0 -0.29 0 0 -0.29 0 0.59 -0.3 0 0 0 0.3 0 0 0 0 0 0 0.3 0 0 0 0 0.29 0 0 0 0 0 0 0 0 0 0 0.3 0.3 0 0 0 0 0 0 0 0 0 0 0 0.3 0 0 0 0 0.29 0 0 0 0 0 0 0 0 0.29 0 0 0 0 0.3 0 0 0 0 0 0 0 0 0zm-0.3 0.3l0 0 0 0 0 0zm4.42 0.89l0.29 0.29 0 0 -0.29 0.3 0 0 -0.3 0 0 0 -0.3 0 -0.29 0 0 0 -0.3 0 0 0 -0.3 0 0 0 -0.3 0 0 0 -0.29 0 -0.3 0 0 0 -0.3 0 0 0 -0.29 -0.3 0 0 -0.3 0 0 0 -0.3 -0.29 0 0 0 0 -0.29 0 0 -0.3 -0.3 0 0 0 -0.3 -0.3 0 0 0 -0.3 0.3 -0.29 0 0.29 0.3 0 0 0 0 0.3 0.29 0 0 0 0.3 0.3 0 0 0 0 0.3 0 0 0 0.29 0.3 0 0 0.3 0 0 0 0 0 0.3 0 0 0 0.29 0.29 0 0 0.3 0 0 0 0.3 0 0 0 0.3 0 0 0 0.29 -0.29 0 0 0.3 0 0 0 0.3 0 0 0 0 0zm2.94 -3.54l0.3 0 0 0 0 0.3 0 0.3 0 0 0 0.3 0 0 0 0.29 0 0 0 0.3 -0.3 0 0 0.3 0 0 0 0.29 0 0 -0.29 0.3 0 0 0 0.3 -0.3 0 0 0 -0.3 0.29 0 0 0 0 -0.29 0.3 0 0 -0.3 0 0 0.3 -0.3 0 0 0 -0.3 0.29 0 0 -0.29 0 -0.3 0 0 0 -0.3 -0.29 0.3 0 0 -0.3 0.3 0 0 0 0.29 0 0 0 0.3 -0.3 0 0 0.3 0 0 -0.29 0 0 0.3 0 0 0 0.29 -0.3 0 0 0 0 0 -0.3 0.3 0 0 -0.29 0 0 0 0 0.3 -0.3 0 0 0 -0.3 0 0 0 -0.29 0 0 0 -0.3 0 0 0.29 -0.3 0 0 0 -0.3 0 0zm-1.18 -2.94l0.3 -0.3 0 0 0 0.3 0.3 0 0 0 0 0 0 0.29 0 0 0.29 0 0 0.3 0 0 0 0 0 0.3 0.3 0 0 0.29 0 0 0 0 0 0.3 0 0 0 0 0 0.3 0.3 0 0 0 0 0.3 0 0 0 0.29 0 0 0 0 0 0.3 0 0 0 0 0 0.3 0 0 0 0 -0.3 0 0 0 0 0 0 0 -0.3 -0.3 0 0 0 0 0 -0.3 0 0 0 0 0 -0.29 0 0 0 0 0 -0.3 0 0 0 0 -0.29 -0.3 0 0 0 0 0 -0.3 0 0 0 0 0 -0.29 -0.3 0 0 0 0 -0.3 0 0 0 0 0 -0.3 -0.3 0 0 0 0 -0.29 0 0 0 0zm-16.78 -24.43l0.59 -0.3 0 0 0.29 0.88 0.59 0.59 0.59 0.88 0.59 0.89 0.59 0.59 0.3 0.89 0.59 0.59 0.59 0.89 0.59 0.59 0.29 0.89 0.59 0.88 0.59 0.59 0.59 0.88 0.3 0.59 0.59 0.88 0.59 0.88 0.59 0.59 0.59 0.88 0.29 0.59 0.59 0.88 0.59 0.89 0.59 0.59 0.3 0.89 0.59 0.59 0.59 0.89 0.59 0.88 0.3 0.59 0.59 0.88 0.59 0.59 0.59 0.88 0.59 0.88 0.3 0.59 -0.3 0.3 -0.59 -0.59 -0.59 -0.88 -0.59 -0.89 -0.29 -0.59 -0.59 -0.89 -0.59 -0.59 -0.59 -0.89 -0.3 -0.88 -0.59 -0.59 -0.59 -0.88 -0.59 -0.59 -0.3 -0.88 -0.59 -0.88 -0.59 -0.59 -0.59 -0.88 -0.29 -0.59 -0.59 -0.88 -0.59 -0.89 -0.59 -0.59 -0.59 -0.89 -0.3 -0.59 -0.59 -0.89 -0.59 -0.88 -0.59 -0.59 -0.29 -0.88 -0.59 -0.59 -0.59 -0.88 -0.59 -0.88 -0.59 -0.59 -0.3 -0.88 -0.59 -0.59 -0.59 -0.88 0 0zm-6.48 -2.35l-0.29 -0.3 0 0 0.29 0 0.3 -0.3 0.3 0 0.29 0 0.3 -0.29 0.3 0 0.29 0 0.3 0 0.3 0 0.29 0 0.3 0 0.3 0 0 0 0.29 0 0.3 0 0.3 0.29 0 0 0.3 0 0.29 0.3 0 0 0.3 0 0 0.3 0.3 0 0.29 0.29 0 0.3 0.3 0 0.3 0.3 0 0.3 0.29 0 0 0.29 0.3 0.3 0.3 0.3 -0.59 0.29 0 -0.29 -0.3 -0.3 -0.29 -0.3 0 0 -0.3 -0.29 0 -0.3 -0.3 0 -0.29 -0.3 0 0 -0.3 -0.3 0 0 -0.3 -0.29 0 0 -0.29 0 0 -0.3 -0.3 0 -0.3 0 0 0 -0.3 0 -0.29 0 0 0 -0.3 0 -0.3 0 -0.29 0 0 0 -0.3 0 -0.3 0 -0.29 0 -0.3 0.3 -0.3 0 -0.29 0 -0.3 0 0 0 0 0zm-14.72 4.71l-0.29 -0.59 0 0 0.59 0 0.3 -0.29 0.59 0 0.29 -0.3 0.59 0 0.3 -0.3 0.59 0 0.59 -0.3 0.3 0 0.59 -0.29 0.3 0 0.59 -0.3 0.29 0 0.59 0 0.59 -0.3 0.29 0 0.59 -0.29 0.3 0 0.59 -0.3 0.3 0 0.59 -0.3 0.59 0 0.3 -0.29 0.59 0 0.29 -0.3 0.59 0 0.3 -0.3 0.59 0 0.3 -0.29 0.59 0 0.59 -0.3 0.3 0 0.3 0.3 -0.59 0.29 -0.3 0 -0.59 0.3 -0.59 0 -0.3 0.3 -0.59 0 -0.3 0.29 -0.59 0 -0.29 0.3 -0.59 0 -0.59 0.3 -0.29 0 -0.59 0.29 -0.3 0 -0.59 0.3 -0.3 0 -0.59 0.3 -0.29 0 -0.59 0.29 -0.59 0 -0.29 0.3 -0.59 0 -0.3 0.3 -0.59 0 -0.3 0.3 -0.59 0 -0.59 0 -0.3 0.29 -0.59 0 -0.29 0.3 -0.59 0 -0.3 0.3 0 0 0 0zm-2.65 -1.47l0.3 0 0 0 0 0 0.3 0.3 0 0 0 0 0 0.3 0 0 0 0 0 0.29 0 0 0 0 0.29 0 0 0 0 0 0 0.3 0 0 0 0 0.3 0 0 0 0 0 0 0 0 0 0.3 0 0 0 0 0 0.3 0 0 0 0 0 0.29 0 0 0 0 0 0.3 0 0 -0.3 0.3 0.59 -0.3 0 0 0 -0.3 0 0 0 -0.29 0.3 0 0 0 0 -0.3 0 0 0 0 0 -0.3 0 0 0 0 0 -0.3 -0.3 0 0 0 0 -0.29 0 0 0 0 0 -0.3 -0.3 0 0 0 0 0 0 0 -0.3 -0.3 0 0 0 0 -0.29 0 0 0 0 0 -0.3 0 0 0 -0.3 0 0 0 0zm-0.59 -2.35l-0.3 -0.59 0.59 0.3 0 0 0 0 0 0 0 0.3 0 0 0 0 0 0.3 0 0 0 0 0.3 0.29 0 0 0 0 0 0.3 0 0 0 0 0 0 0 0.3 0 0 0 0 0 0.29 0.29 0 0 0 0 0 0 0.3 0 0 0 0 0 0.3 0 0 0 0 0 0 0 0.29 0 0 -0.29 0 0 0 -0.3 0 0 -0.29 0 0 0 0 0 0 0 -0.3 0 0 0 0 0 0 0 -0.3 0 0 0 0 0 -0.29 -0.3 0 0 0 0 0 0 -0.3 0 0 0 0 0 -0.3 0 0 0 0 0 0 0 -0.29 -0.29 0 0 0 0 -0.3 0 0 0 0 0 -0.3 0 0 0.29 0.3 0 0zm-0.3 -0.59l0.3 0 0.29 0.3 -0.59 -0.3 0 0zm-3.83 1.77l-0.29 -0.3 0 0 0.29 -0.29 0 0 0.3 0 0 0 0.3 0 0 0 0 0 0.29 -0.3 0 0 0.3 0 0 0 0.3 0 0 0 0 0 0.29 -0.3 0 0 0.3 0 0 0 0.3 0 0 0 0 0 0.29 -0.29 0 0 0.3 0 0 0 0.3 0 0 0 0.3 0 0 -0.3 0 0 0.29 0 0 0 0.3 0.59 -0.3 0 0 0 0 0 -0.29 0 0 0 -0.3 0 0 0.29 -0.3 0 0 0 -0.3 0 0 0 0 0 -0.29 0 0 0.3 -0.3 0 0 0 -0.3 0 0 0 0 0 -0.29 0 0 0.3 -0.3 0 0 0 -0.3 0 0 0 0 0 -0.29 0 0 0.29 -0.3 0 0 0 -0.3 0 0 0 0 0 0 0zm-4.12 1.47l0 -0.59 0 0 0 0 0.29 0 0 0 0.3 -0.29 0 0 0 0 0.3 0 0 0 0.29 0 0 0 0.3 -0.3 0 0 0 0 0.3 0 0 0 0.29 0 0 0 0.3 0 0 -0.3 0 0 0.3 0 0 0 0.29 0 0 0 0.3 0 0 -0.3 0 0 0.3 0 0 0 0.3 0 0 0 0 0 0.29 0.3 0 0 -0.29 0 0 0.3 -0.3 0 0 0 0 0 -0.3 0 0 0 -0.3 0 0 0.3 -0.29 0 0 0 0 0 -0.3 0 0 0 -0.3 0 0 0 -0.29 0.29 0 0 0 0 -0.3 0 0 0 -0.3 0 0 0 -0.29 0.3 0 0 0 0 -0.3 0 0 0 -0.3 0 0 0 -0.29 0.3 0 0 0 0zm-6.48 -2.94l0.59 0 0 0 0 0 0 0.3 0.29 0.3 0 0 0 0.29 0.3 0.3 0 0 0.3 0.3 0 0 0.29 0.3 0 0 0.3 0 0.3 0.29 0 0 0.29 0 0.3 0.3 0 0 0.3 0 0.29 0 0 0 0.3 0.3 0.3 0 0.29 0 0 0 0.3 0 0.3 0 0.29 0 0.3 0 0 -0.3 0.3 0 0.3 0 0.29 0 0 0.59 0 0 -0.29 0 -0.3 0 -0.3 0 -0.3 0 -0.29 0 -0.3 0 -0.3 0 -0.29 0 0 0 -0.3 0 -0.3 0 -0.29 0 -0.3 0 0 -0.3 -0.3 0 -0.29 0 -0.3 -0.3 0 0 -0.3 0 -0.29 -0.29 0 0 -0.3 -0.3 -0.3 0 0 -0.3 -0.29 0 0 -0.3 -0.3 -0.29 0 -0.3 0 0 -0.3 -0.3 0 -0.29 0 0 0 -0zm-5 -15.01l0.59 -0.3 0 0 0.3 0.59 0 0.29 0.29 0.59 0 0.59 0.3 0.29 0 0.59 0.3 0.3 0 0.59 0.29 0.59 0 0.3 0.3 0.59 0 0.59 0.3 0.3 0 0.59 0.29 0.3 0 0.59 0.3 0.59 0 0.3 0.3 0.59 0 0.29 0.29 0.59 0 0.59 0.3 0.29 0 0.59 0.3 0.3 0 0.59 0.29 0.59 0.3 0.3 0 0.59 0.3 0.3 0 0.59 0.29 0.59 -0.59 0 -0.3 -0.29 0 -0.59 -0.3 -0.59 0 -0.29 -0.29 -0.59 0 -0.3 -0.3 -0.59 0 -0.59 -0.3 -0.3 0 -0.59 -0.29 -0.3 0 -0.59 -0.3 -0.59 -0.3 -0.3 0 -0.59 -0.29 -0.59 0 -0.3 -0.3 -0.59 0 -0.29 -0.3 -0.59 0 -0.59 -0.29 -0.29 0 -0.59 -0.3 -0.3 0 -0.59 -0.3 -0.59 0 -0.3 -0.29 -0.59 0 -0.59 -0.3 -0.3 0 -0.59 -0.3 -0.3 0 0 0 0zm0.89 -1.77l-0.3 0.59 0.59 -0.3 0 0 0 0.3 -0.29 0 0 0 0 0 0 0 0 0 0 0 0 0.3 0 0 0 0 0 0 0 0 0 0 0 0 -0.3 0.29 0 0 0 0 0 0 0 0 0 0 0 0 0 0 0 0.3 0 0 0 0 0 0 0 0 0 0 0 0 0 0 0 0 -0.59 0.3 0 -0.3 0 0 0 0 0 0 0 0 0 0 0 -0.3 0 0 0 0 0 0 0.3 0 0 0 0 -0.29 0 0 0 0 0 0 0 0 0 0 0 -0.3 0 0 0 0 0 0 0 0 0.3 0 0 0 0 -0.3 0 0 0 0 0 0 0 0 0 0 0 0 0.3 -0.29 0 -0zm-0.3 0.3l0 -0.3 0.3 0 -0.3 0.3zm1.76 0.59l-0.59 0.3 0 0 0 0 0 0 0 0 0 0 0 0 0 0 0 0 0 0 -0.3 -0.3 0 0 0 0 0 0 0 0 0 0 0 0 0 0 -0.3 0 0 0 0 0 0 0 0 0 0 -0.29 0 0 -0.29 0 0 0 0 0 0 0 0 0 0 0 0 0 -0.3 0 0 0 0.3 -0.59 0 0 0.29 0 0 0.3 0 0 0 0 0 0 0 0 0 0 0.3 0 0 0 0 0 0 0 0 0 0 0 0 0 0.3 0.29 0 0 0 0 0 0 0 0 0 0 0 0 0.29 0 0 0 0 0 0 0 0 0.3 0 0 0 0 0 0 0.3 0 0 0 0 0 0 0zm0.3 1.47l-0.3 0 0 0 0 0 -0.29 0 0 0 0 0 0 0 0 -0.29 0 0 0 0 0 0 0 0 0 0 0 0 0 -0.3 0 0 0 0 0 0 0 0 0 0 0 0 0 -0.3 0 0 0 0 0 0 0 0 0 0 0 0 -0.3 0 0 0 0 -0.29 0 0 0 0 0 0 0.59 -0.3 0 0 0 0.3 0 0 0 0 0 0 0 0 0 0 0 0 0 0.29 0 0 0 0 0.29 0 0 0 0 0 0 0 0 0.3 0 0 0 0 0 0 0 0 0 0 0 0.3 0 0 0 0 0 0 0 0 0 0 0 0 0 0.29 0 0 0 0 0 0 0 0 0 0zm4.12 12.95l-0.3 0 0 0 -0.3 -0.29 0 -0.59 -0.29 -0.3 0 -0.29 -0.3 -0.59 0 -0.3 -0.3 -0.29 0 -0.59 0 -0.3 -0.29 -0.59 0 -0.3 -0.3 -0.3 0 -0.59 -0.3 -0.3 0 -0.3 0 -0.59 -0.3 -0.3 0 -0.3 -0.29 -0.59 0 -0.3 -0.3 -0.59 0 -0.29 -0.3 -0.3 0 -0.59 0 -0.29 -0.29 -0.3 0 -0.59 -0.3 -0.29 0 -0.59 -0.3 -0.3 0 -0.29 0 -0.59 0.3 0 0.3 0.3 0 0.59 0.29 0.3 0 0.3 0 0.59 0.3 0.3 0 0.3 0.3 0.59 0 0.3 0.29 0.59 0 0.29 0.3 0.3 0 0.59 0 0.29 0.3 0.3 0 0.59 0.3 0.29 0 0.59 0.29 0.3 0 0.29 0 0.59 0.3 0.3 0 0.29 0.3 0.59 0 0.3 0.29 0.29 0 0.59 0 0.3 0.3 0.59 0 0.3 0.3 0.3 0 0.59 0 0zm4.41 2.06l0.3 0.29 0 0 -0.3 0.3 -0.3 0 0 0 -0.29 0 -0.3 0 -0.3 0.3 0 0 -0.29 0 -0.3 0 0 0 -0.3 -0.3 -0.29 0 0 0 -0.3 0 0 0 -0.3 0 -0.3 -0.3 0 0 -0.29 0 0 -0.29 -0.3 0 0 -0.3 0 0 -0.3 -0.3 0 0 -0.29 -0.29 0 0 0 -0.3 -0.3 -0.3 0 0 0 -0.29 0 -0.3 0.3 0 0.29 0 0 0.3 0 0.29 0 0 0.3 0.3 0 0 0 0.3 0.3 0 0 0.29 0 0 0.29 0.3 0 0 0 0 0.3 0.3 0 0 0.3 0 0 0 0.3 0 0 0.29 0.29 0 0 0 0.3 0 0 0 0.3 0 0.29 0 0 0 0.3 0 0.3 0 0 0 0.29 -0.29 0.3 0 0 0 0 0zm10.89 -3.53l0 0.59 0 0 -0.3 0 -0.29 0 -0.3 0.3 -0.3 0 -0.29 0 -0.59 0.3 -0.3 0 -0.29 0.29 -0.3 0 -0.3 0 -0.29 0.3 -0.3 0 -0.3 0 -0.59 0.3 -0.3 0 -0.3 0.29 -0.29 0 -0.3 0 -0.3 0.3 -0.29 0 -0.59 0 -0.3 0.3 -0.29 0 -0.3 0.3 -0.3 0 -0.3 0 -0.29 0.29 -0.3 0 -0.59 0 -0.29 0.3 -0.3 0 -0.3 0 -0.29 -0.3 0.59 0 0.3 -0.29 0.3 0 0.29 -0.3 0.3 0 0.3 0 0.29 -0.3 0.59 0 0.3 0 0.3 -0.3 0.29 0 0.3 0 0.3 -0.29 0.29 0 0.3 -0.3 0.59 0 0.29 0 0.3 -0.3 0.3 0 0.29 0 0.3 -0.29 0.3 0 0.29 -0.3 0.59 0 0.3 0 0.29 -0.3 0.3 0 0.3 0 0.29 -0.29 0.3 0 0.3 -0.3 0.59 0 0 0 0 0zm11.48 -3.83l0 0.59 0 0 -0.3 0 -0.3 0 -0.29 0.29 -0.59 0 -0.3 0.3 -0.29 0 -0.3 0.3 -0.59 0 -0.29 0 -0.3 0.29 -0.3 0 -0.3 0.3 -0.59 0 -0.3 0 -0.3 0.3 -0.29 0 -0.59 0.29 -0.3 0 -0.29 0 -0.3 0.3 -0.3 0 -0.59 0.3 -0.3 0 -0.3 0 -0.29 0.29 -0.59 0 -0.3 0.3 -0.29 0 -0.3 0 -0.3 0.3 -0.59 0 -0.3 0.3 0 -0.59 0.3 0 0.29 -0.3 0.3 0 0.3 -0.29 0.59 0 0.3 0 0.3 -0.3 0.29 0 0.59 -0.3 0.3 0 0.29 0 0.3 -0.3 0.3 0 0.59 -0.29 0.3 0 0.3 0 0.29 -0.3 0.59 0 0.3 -0.3 0.29 0 0.3 0 0.3 -0.29 0.59 0 0.29 -0.3 0.3 0 0.3 0 0.29 -0.3 0.59 0 0.3 -0.29 0.29 0 0.3 -0.3 0.59 0 0 0zm1.76 -3.53l0.3 0 0 0 0.3 0 0 0.29 0 0 0 0.3 0 0.3 0 0 0 0.29 0 0 0 0.3 0 0 0 0.3 0 0 0 0.29 0 0 -0.3 0.3 0 0 0 0 0 0.3 -0.3 0 0 0.29 0 0 -0.29 0.3 0 0 -0.3 0 0 0.3 -0.3 0 0 0 -0.29 0.3 0 0 -0.3 0 0 0 -0.3 0.29 0 -0.59 0 0 0.3 0 0 -0.3 0.3 0 0 0 0 0 0.29 -0.3 0 0 0.3 0 0 -0.29 0 0 0.3 0 0 -0.3 0 0 0 0 0.29 -0.3 0 0 0 0 0 -0.3 0 0 0 -0.29 0 0 0 -0.3 0 0 0 0 0 -0.3 0 0 0 -0.29 0 0 0 -0.3 0 0 0 -0.3 0 0 0 0zm-3.83 -1.47l0 -0.59 0 0 0 0 0.3 0 0.3 0 0 0 0.29 0 0 0 0.3 0 0 0 0.3 0 0.29 0 0 0 0.3 0 0 0 0.3 0 0 0.3 0.29 0 0 0 0.3 0 0 0.3 0.3 0 0 0 0 0 0.29 0.29 0 0 0.3 0.3 0 0 0 0 0 0.3 0.3 0 0 0.29 0 0 0 0.3 -0.3 0 0 0 -0.3 0 0 -0.3 0 0 0 -0.29 -0.29 0 0 0 0 -0.3 0 0 -0.3 0 0 -0.3 0 0 -0.3 0 0 0 -0.29 -0.29 0 0 0 0 -0.3 0 0 0 -0.3 0 0 0 -0.29 -0.3 0 0 -0.3 0 0 0 -0.3 0 0 0 -0.29 0 0 0 -0.3 0.3 0 0 -0.3 0 0 0 0 0zm-1.47 0.3l-0.3 -0.3 0 0 0 0 0.3 0 0 0 0 0 0 0 0 0 0 0 0.29 -0.3 0 0 0 0 0 0 0 0 0 0 0.3 0 0 0 0 0 0 0 0 0 0 0 0.3 0 0 0 0 0 0 0 0 0 0 0 0.29 -0.29 0 0 0 0 0 0 0 0 0 0 0.3 0 0 0.59 0 0 0 0 0 0 -0.3 0 0 0 0 0 0 0 0 0 0 0 -0.29 0 0 0 0 0 0 0 0 0 0 0.3 -0.3 0 0 0 0 0 0 0 0 0 0 0 -0.3 0 0 0 0 0 0 0 0 0 0 0 -0.29 0 0 0 0 0 0 0 0 0 0 0 0 0zm-16.19 5.59l-0.3 -0.59 0 0 0.59 0 0.59 -0.29 0.3 -0.3 0.59 0 0.59 -0.3 0.59 0 0.3 -0.29 0.59 0 0.59 -0.3 0.3 -0.3 0.59 0 0.59 -0.29 0.59 0 0.29 -0.3 0.59 0 0.59 -0.3 0.29 -0.29 0.59 0 0.59 -0.3 0.59 0 0.3 -0.3 0.59 0 0.59 -0.29 0.3 -0.3 0.59 0 0.59 -0.3 0.59 0 0.3 -0.29 0.59 0 0.59 -0.3 0.3 -0.3 0.59 0 0.3 0.3 -0.59 0.3 -0.59 0.29 -0.3 0 -0.59 0.3 -0.59 0 -0.3 0.3 -0.59 0 -0.59 0.29 -0.59 0.3 -0.3 0 -0.59 0.3 -0.59 0 -0.59 0.29 -0.29 0 -0.59 0.3 -0.59 0.3 -0.29 0 -0.59 0.29 -0.59 0 -0.59 0.3 -0.3 0 -0.59 0.3 -0.59 0.29 -0.3 0 -0.59 0.3 -0.59 0 -0.59 0.3 -0.3 0 -0.59 0.29 -0.59 0.3 -0.3 0 -0.59 0.3 0 0 0 0zm-2.65 -0.88l0.59 -0.3 0 0 0 0.3 0 0 0 0 0 0.3 0.29 0 0 0 0 0 0 0 0 0 0 0.29 0 0 0.3 0 0 0 0 0 0 0 0 0 0 0 0.3 0 0 0 0 0 0 0 0 0 0.29 0 0 0 0 0 0.3 0 0 0 0 0 0 -0.29 0.3 0 0 0 0 0 0.29 0.59 0 0 -0.29 0 0 0 0 0 -0.3 0 0 0 0 0 -0.3 0 0 0 0 0.3 -0.29 0 0 0 0 0 0 0 -0.3 0 0 0 0 0 -0.3 -0.3 0 0 0 0 -0.29 0 0 0 0 0 0 0 -0.3 -0.29 0 0 0 0 0 -0.3 0 0 0 0 -0.3 -0.3 0 0 0 0 0 0zm-3.24 -10.59l0.59 0 0 0 0 0.29 0 0.3 0.3 0.3 0 0.29 0 0.3 0.3 0.3 0 0.29 0 0.59 0.29 0.3 0 0.29 0 0.3 0.3 0.3 0 0.29 0 0.3 0.3 0.3 0 0.29 0.29 0.59 0 0.3 0 0.29 0.3 0.3 0 0.3 0 0.3 0.3 0.29 0 0.3 0 0.59 0.29 0.29 0 0.3 0 0.3 0.3 0.29 0 0.3 0.3 0.3 0 0.29 -0.59 0.3 0 -0.3 -0.3 -0.29 0 -0.3 0 -0.59 -0.29 -0.29 0 -0.3 0 -0.3 -0.3 -0.29 0 -0.3 0 -0.3 -0.3 -0.29 0 -0.59 0 -0.3 -0.29 -0.3 0 -0.29 -0.3 -0.3 0 -0.3 0 -0.29 -0.3 -0.3 0 -0.59 0 -0.29 -0.29 -0.3 0 -0.3 0 -0.29 -0.3 -0.3 0 -0.3 0 -0.29 -0.3 -0.59 0 -0.3 0 -0.29 -0.29 -0.3 0 -0.3 0 0 0 0zm0 0l0 0 -0.3 -0.3 0.3 0.3zm0.88 -1.47l-0.3 0.3 0.3 0 0 0 0 0 0 0 0 0 0 0.29 0 0 0 0 0 0 0 0 0 0 -0.3 0 0 0.3 0 0 0 0 0 0 0 0 0 0 0 0 0 0 0 0.3 0 0 0 0 0 0 0 0 0 0 0 0 0 0 0 0 0 0 0 0 0 0 0 0.29 -0.59 0 0 0 0 0 0 -0.29 0 0 0 0 0 0 0 0 0 0 0 -0.3 0 0 0 0 0 0 0 0 0 0 0 -0.3 0 0 0.29 0 0 0 0 0 0 0 0 0 0 -0.29 0 0 0 0 0 0 0 0 0 0 0 0 0.3 0 0 -0.3 0 0 0 0 0.3 0 0 0zm-0.3 0l0 -0.3 0.3 0.3 -0.3 0zm1.47 0.88l-0.3 0.3 0 0 0 0 0 -0.3 0 0 -0.29 0 0 0 0 0 0 0 0 0 0 0 0 0 0 0 0 0 0 0 0 0 -0.3 0 0 -0.3 0 0 0 0 0 0 0 0 0 0 -0.3 0 0 0 0 0 0 0 0 0 0 0 0 0 -0.29 -0.29 0 0 0 0 0 0 0.29 -0.3 0 0 0 0 0 0 0.3 0 0 0 0 0 0 0 0 0 0 0.3 0 0 0.3 0 0 0 0 0 0 0 0 0 0 0 0 0 0.29 0 0 0 0 0 0 0.29 0 0 0 0 0 0 0.3 0 0 0 0 0 0 0 0 0.3 0 0 0 0 0 0 0 0zm-0.3 0.3l0 0 0 0 0 0zm2.06 4.41l-0.59 0.3 0 0 0 -0.3 0 0 -0.3 -0.29 0 0 0 -0.3 0 0 0 -0.3 0 0 -0.29 -0.29 0 0 0 -0.3 0 0 0 -0.3 0 0 0 -0.29 -0.3 0 0 -0.3 0 0 0 -0.3 0 0 0 -0.3 -0.3 0 0 -0.29 0 0 0 -0.3 0 0 0 -0.3 -0.29 0 0 -0.29 0 0 0 -0.3 0 0 0.29 -0.3 0 0.3 0.3 0 0 0.3 0 0 0 0.29 0 0 0.3 0.3 0 0 0 0.3 0 0 0 0.29 0 0 0.29 0.3 0 0 0 0.3 0 0 0 0.3 0 0 0.3 0.29 0 0 0 0.3 0 0 0 0.3 0 0 0 0.29 0.3 0 0 0.3 0 0 0 0.3 0 0 0 0.29 0.29 0 0 0 0 0zm1.18 5.3l0.29 0.29 -0.29 0 0 -0.29 -0.3 -0.3 0 0 0 -0.3 0 0 0 -0.29 -0.3 0 0 -0.3 0 0 0 -0.3 0 -0.29 0 0 -0.29 -0.3 0 0 0 -0.3 0 0 0 -0.29 -0.3 0 0 -0.3 0 -0.3 0 0 0 -0.29 0 0 -0.3 -0.3 0 0 0 -0.3 0 0 0 -0.29 -0.29 -0.3 0 0 0 -0.3 0 0 0.59 -0.3 0 0.3 0 0 0 0.3 0 0 0.3 0.3 0 0.29 0 0 0 0.3 0 0 0 0.3 0.3 0 0 0.29 0 0 0 0.3 0 0.3 0.29 0 0 0.29 0 0 0 0.3 0 0 0 0.3 0.3 0 0 0.29 0 0.3 0 0 0 0.3 0.3 0 0 0.29 0 0 0 0.3 0 0.3 0.29 0 -0.59 0zm0.29 0.3l-0.29 0 0 0 0.29 0zm3.83 -1.47l0.3 0 0 0.29 -0.3 0 0 0 -0.3 0 0 0 -0.29 0 0 0 -0.3 0.3 0 0 0 0 -0.3 0 0 0 -0.29 0 0 0 0 0.3 -0.3 0 0 0 -0.3 0 0 0 -0.29 0 0 0 0 0.29 -0.3 0 0 0 -0.3 0 0 0 0 0 -0.29 0 0 0.3 -0.3 0 0 0 -0.3 0 0 0 -0.29 -0.3 0.29 -0.29 0 0 0.3 0 0 0 0.3 0 0 0 0 0 0.29 -0.3 0 0 0.3 0 0 0 0 0 0.3 0 0 0 0.29 -0.3 0 0 0.3 0 0 0 0 0 0.3 0 0 0 0.29 -0.29 0 0 0 0 0.3 0 0 0 0.3 0 0 0 0.29 -0.3 0 0 0.3 0 0 0 0 0.3zm0.3 0l0 0 0 0.29 0 -0.29zm17.95 26.19l0 0 0 0 0 0 0 0.3 0 -0.3zm0 -0.29l0.3 0 0 0.29 -0.3 -0.29zm-2.35 0.59l0 -0.59 0 0 0.3 0 0 0 0 0 0 0 0.3 0 0 0 0 0 0 0 0.29 0 0 0 0 0 0 0 0 0 0.3 0 0 0 0 0 0 0 0.3 0 0 0 0 0 0 0 0.29 0 0 0 0 0 0 0 0.3 0 0 0 0 0 0 0 0.3 0 0 0 0 0 0 0.59 0 0 0 0 -0.3 0 0 0 0 0 0 0 -0.3 0 0 0 0 0 0 0 -0.29 0 0 0 0 0 0 0 -0.3 0 0 0 0 0 0 0 -0.3 0 0 0 0 0 0 0 0 0 -0.29 0 0 0 0 0 0 0 -0.3 0 0 0 0 0 0 0 -0.3 0 0 0zm-27.96 0l0 -0.59 0 0 0.88 0 0.89 0 0.88 0 0.88 0 0.89 0 0.88 0 0.88 0 0.89 0 0.88 0 0.88 0 0.89 0 0.88 0 0.88 0 0.89 0 0.88 0 0.88 0 0.89 0 0.88 0 0.88 0 0.89 0 0.88 0 0.88 0 0.89 0 0.88 0 0.88 0 0.89 0 0.88 0 0.88 0 0.59 0 0.88 0 0.89 0 0.88 0 0 0.59 -0.88 0 -0.89 0 -0.88 0 -0.59 0 -0.88 0 -0.88 0 -0.89 0 -0.88 0 -0.88 0 -0.89 0 -0.88 0 -0.88 0 -0.89 0 -0.88 0 -0.88 0 -0.89 0 -0.88 0 -0.88 0 -0.89 0 -0.88 0 -0.88 0 -0.89 0 -0.88 0 -0.88 0 -0.89 0 -0.88 0 -0.88 0 -0.89 0 -0.88 0 -0.88 0 -0.89 0 -0.88 0 0 0zm-3.24 -2.35l0.59 0 0 0 0 0 0 0.3 0 0 0.29 0 0 0.29 0 0 0 0.3 0 0 0 0 0.3 0 0 0.3 0 0 0 0 0 0 0.3 0.29 0 0 0 0 0 0 0.29 0 0 0 0 0.3 0.3 0 0 0 0 0 0.3 0 0 0 0 0 0.29 0 0 0 0.3 0 0 0 0.3 0 0 0.59 -0.3 0 0 0 -0.3 0 0 0 -0.29 0 0 0 -0.3 0 0 0 -0.3 -0.3 0 0 0 0 -0.29 0 0 0 -0.3 0 0 -0.3 0 0 -0.3 0 0 0 0 -0.29 0 0 -0.29 0 0 -0.3 0 0 0 0 -0.3 -0.3 0 0 0 -0.29 0 0 0 0 0 -0.3 0 0 -0.3 -0.3 0 0 0 0zm-1.77 -7.06l0.59 -0.3 0 0 0 0.3 0 0.3 0 0.29 0.3 0 0 0.3 0 0.3 0 0.29 0 0 0.29 0.3 0 0.3 0 0.29 0 0 0 0.3 0.3 0.3 0 0.29 0 0 0 0.3 0 0.3 0.3 0.29 0 0.3 0 0 0 0.3 0 0.29 0.29 0.3 0 0 0 0.3 0 0.29 0 0.3 0.3 0 0 0.3 0 0.3 0 0.29 -0.59 0 0 -0.29 0 0 0 -0.3 0 -0.3 0 -0.3 -0.29 -0.29 0 0 0 -0.3 0 -0.3 0 -0.29 -0.3 0 0 -0.3 0 -0.3 0 -0.29 0 0 -0.3 -0.3 0 -0.3 0 -0.29 0 0 0 -0.3 -0.29 -0.3 0 -0.29 0 0 0 -0.3 -0.3 -0.3 0 -0.29 0 0 0 -0.3 0 -0.3 -0.3 -0.29 0 -0.3 0 0 0 0zm-9.42 -34.73l0.59 -0.29 0 0 0.29 1.18 0.3 1.18 0.3 0.88 0.29 1.18 0.3 1.18 0.3 0.89 0.29 1.18 0.3 1.18 0.3 0.88 0.3 1.18 0.29 1.18 0.3 0.88 0.3 1.18 0.29 1.18 0.3 1.18 0.3 0.89 0.29 1.18 0.3 1.18 0.3 0.88 0.29 1.18 0.3 1.18 0.3 0.88 0.29 1.18 0.3 1.18 0.3 0.89 0.29 1.18 0.3 1.18 0.3 1.18 0.29 0.88 0.3 1.18 0.3 1.18 0.29 0.88 -0.59 0.3 -0.3 -1.18 -0.3 -1.18 -0.29 -0.88 -0.3 -1.18 -0.3 -1.18 -0.29 -0.89 -0.3 -1.18 -0.3 -1.18 -0.29 -1.18 -0.3 -0.88 -0.3 -1.18 -0.29 -1.18 -0.3 -0.88 -0.3 -1.18 -0.29 -1.18 -0.3 -0.89 -0.3 -1.18 -0.29 -1.18 -0.3 -0.88 -0.3 -1.18 -0.29 -1.18 -0.3 -0.88 -0.3 -1.18 -0.3 -1.18 -0.29 -1.18 -0.3 -0.89 -0.3 -1.18 -0.29 -1.18 -0.3 -0.88 -0.3 -1.18 -0.29 -1.18 -0.3 -0.89 0 0zm-3.24 -4.41l0.29 -0.59 0 0 0 0 0.3 0.3 0.3 0 0 0 0.29 0.3 0 0 0.3 0.29 0 0 0.3 0 0 0.3 0.29 0 0 0.3 0.3 0 0 0.29 0 0 0.3 0.3 0 0 0.29 0.3 0 0 0 0.3 0.3 0.29 0 0 0 0.3 0 0 0.3 0.3 0 0 0 0.29 0 0.3 0 0 0.3 0.3 0 0.29 0 0 -0.59 0.3 0 -0.3 0 -0.29 0 0 0 -0.3 -0.3 0 0 -0.3 0 -0.29 0 0 -0.29 -0.3 0 0 0 -0.3 0 0 -0.3 -0.29 0 0 0 -0.3 -0.3 0 0 -0.3 0 0 -0.3 -0.3 0 0 -0.29 -0.29 0 0 0 0 -0.3 -0.3 0 0 -0.3 -0.3 0 0 -0.29 0 0 -0.29 -0.3 0 -0.3 0 0 0 0 0 0 0zm-6.18 0.59l-0.3 -0.59 0 0 0 0 0.3 -0.3 0.29 0 0 0 0.3 -0.3 0.3 0 0 0 0.29 -0.29 0.3 0 0 0 0.3 0 0.29 -0.3 0.3 0 0 0 0.3 0 0.29 0 0 0 0.3 0 0.3 0 0.29 0 0 0 0.3 0 0.3 0 0.3 0 0 0 0.29 0.3 0.3 0 0.3 0 0 0 0.29 0 0.3 0.29 0.3 0 -0.3 0.59 -0.3 -0.3 -0.29 0 0 0 -0.3 0 -0.3 -0.29 0 0 -0.29 0 -0.3 0 0 0 -0.3 0 -0.3 0 0 0 -0.29 0 -0.3 0 0 0 -0.3 0 -0.29 0 0 0 -0.3 0 -0.3 0 0 0 -0.29 0 -0.3 0.29 0 0 -0.3 0 0 0 -0.29 0.3 -0.3 0 0 0 -0.3 0.3 -0.29 0 0 0.29 0 0zm-2.06 6.18l-0.29 0 0 0 -0.3 0 0 -0.29 0 -0.3 0 -0.3 0 -0.29 0 -0.3 0 0 0 -0.3 0 -0.29 0 -0.3 0 0 0 -0.3 0 -0.29 0 -0.3 0 0 0 -0.3 0 -0.29 0.3 -0.3 0 0 0 -0.3 0.29 -0.29 0 0 0 -0.3 0.3 -0.3 0 0 0.3 -0.29 0 -0.3 0.29 0 0.3 -0.3 0 -0.29 0.3 0 0.29 -0.3 0.3 0.59 -0.3 0 0 0.3 -0.29 0 -0.3 0.3 0 0 -0.3 0.3 0 0.29 -0.29 0 0 0.3 0 0 -0.3 0.3 0 0.29 0 0 -0.3 0.3 0 0.3 0 0 0 0.29 0 0.3 0 0 -0.29 0.3 0 0.29 0 0 0 0.3 0 0.3 0 0.29 0 0 0.29 0.3 0 0.3 0 0.29 0 0 0 0.3 0 0.3 0 0 0 -0zm12.95 47.39l-0.59 0 0 0 -0.3 -1.47 -0.59 -1.47 -0.3 -1.47 -0.3 -1.47 -0.59 -1.47 -0.3 -1.47 -0.3 -1.47 -0.59 -1.47 -0.3 -1.47 -0.59 -1.47 -0.29 -1.47 -0.3 -1.47 -0.59 -1.47 -0.29 -1.47 -0.3 -1.47 -0.59 -1.47 -0.29 -1.47 -0.3 -1.47 -0.59 -1.47 -0.29 -1.47 -0.3 -1.47 -0.59 -1.47 -0.29 -1.47 -0.3 -1.47 -0.59 -1.47 -0.29 -1.77 -0.59 -1.47 -0.3 -1.47 -0.29 -1.47 -0.59 -1.47 -0.3 -1.47 -0.29 -1.47 0.29 0 0.59 1.47 0.3 1.47 0.29 1.47 0.59 1.47 0.3 1.47 0.59 1.47 0.3 1.47 0.3 1.47 0.59 1.47 0.3 1.47 0.3 1.47 0.59 1.47 0.3 1.47 0.3 1.47 0.59 1.47 0.3 1.47 0.3 1.47 0.59 1.47 0.3 1.47 0.59 1.47 0.29 1.47 0.3 1.47 0.59 1.47 0.29 1.47 0.3 1.47 0.59 1.47 0.29 1.47 0.3 1.47 0.59 1.76 0.29 1.47 0.3 1.47 0.59 1.47 0 0zm7.06 5.3l0 0.3 0 0 -0.3 0 -0.3 0 -0.59 0 -0.3 0 -0.3 0 -0.59 0 -0.3 0 -0.3 0 -0.29 -0.3 -0.3 0 -0.3 0 -0.29 -0.3 -0.3 0 -0.3 -0.29 -0.29 0 0 -0.3 -0.3 0 -0.3 -0.3 -0.29 -0.29 0 0 -0.3 -0.3 0 -0.3 -0.3 -0.29 -0.29 -0.3 0 -0.3 -0.3 -0.29 0 -0.3 0 -0.3 -0.3 -0.29 0 -0.3 -0.29 -0.59 0 -0.29 0.59 0 0 0.29 0 0.3 0.3 0.3 0 0.29 0.3 0.59 0 0.3 0.29 0 0 0.29 0.3 0.3 0 0.3 0.3 0.29 0 0.3 0.29 0 0 0.3 0.3 0 0.3 0.29 0 0 0.29 0.3 0.3 0 0.3 0.3 0.29 0 0.3 0 0.3 0.29 0.29 0 0.3 0 0.3 0 0.29 0 0.3 0.3 0.3 0 0.59 0 0.3 0 0.3 0 0 0zm34.14 0l0 0.3 0 0 -1.18 0 -0.88 0 -1.18 0 -0.89 0 -1.18 0 -1.18 0 -0.88 0 -1.18 0 -0.89 0 -1.18 0 -1.18 0 -0.88 0 -1.18 0 -1.18 0 -0.88 0 -1.18 0 -0.89 0 -1.18 0 -1.18 0 -0.88 0 -1.18 0 -0.88 0 -1.18 0 -1.18 0 -0.89 0 -1.18 0 -1.18 0 -0.88 0 -1.18 0 -0.88 0 -1.18 0 -1.18 0 0 -0.3 1.18 0 1.18 0 0.88 0 1.18 0 0.88 0 1.18 0 1.18 0 0.89 0 1.18 0 1.18 0 0.88 0 1.18 0 0.88 0 1.18 0 1.18 0 0.89 0 1.18 0 0.88 0 1.18 0 1.18 0 0.88 0 1.18 0 1.18 0 0.89 0 1.18 0 0.88 0 1.18 0 1.18 0 0.89 0 1.18 0 0.88 0 1.18 0 0 0zm1.76 0.3l0.59 0 -0.3 0 0 0 0 0 -0.29 0 0 0 0 0 0 0 -0.3 0 0 0 0 0 0 0 0 0 -0.3 0 0 0 0 0 0 0 -0.29 0 0 0 0 0 0 0 0 0 -0.3 0 0 0 0 0 0 0 -0.3 0 0 0 0 0 0 0 0 0 -0.3 0 0 0 0 0 0 -0.3 0 0 0 0 0.3 0 0 0 0 0 0 0 0 0 0.3 0 0 0 0 0 0 0 0.3 0 0 0 0 0 0 0 0 0 0.29 0 0 0 0 0 0 0 0.3 0 0 0 0 0 0 0 0 0 0.3 0 0 0 0 0 0 0 0.29 0 0 0 0 0 -0.29 0.3 -0 0zm0.59 0l0 0 -0.3 0 0.3 0zm-0.3 -11.19l0 -0.59 0.3 0.3 0 0.3 0 0.29 0 0.59 0 0.3 0 0.29 0 0.3 0 0.3 0 0.59 0 0.3 0 0.3 0 0.29 0 0.59 0 0.3 0 0.29 0 0.3 0 0.3 0 0.3 0 0.59 0 0.3 0 0.3 0 0.29 0 0.3 0 0.59 0 0.29 0 0.3 0 0.3 0 0.59 0 0.3 0 0.3 0 0.29 0 0.3 0 0.59 -0.59 0 0 -0.59 0 -0.3 0 -0.29 0 -0.3 0 -0.3 0 -0.59 0 -0.3 0 -0.3 0 -0.29 0 -0.59 0 -0.3 0 -0.29 0 -0.3 0 -0.3 0 -0.59 0 -0.3 0 -0.3 0 -0.3 0 -0.29 0 -0.3 0 -0.59 0 -0.29 0 -0.3 0 -0.3 0 -0.59 0 -0.3 0 -0.3 0 -0.29 0 -0.3 0 -0.59 0 -0.29 0 -0.3 0.3 0.3 0 0zm0 -0.59l0.3 0 0 0.29 -0.3 -0.29zm14.13 -11.19l0 0 0 0 0 0 -0.29 0 0.29 0zm0.3 0.3l-0.29 0.29 -0.3 -0.29 0.59 0 -0 0zm13.83 -40.91l0.3 -0.59 0 0.3 -0.3 1.47 -0.59 1.18 -0.29 1.18 -0.59 1.47 -0.3 1.18 -0.59 1.18 -0.3 1.47 -0.59 1.18 -0.29 1.18 -0.59 1.47 -0.3 1.18 -0.59 1.18 -0.3 1.47 -0.59 1.18 -0.29 1.18 -0.59 1.47 -0.3 1.18 -0.59 1.18 -0.59 1.47 -0.3 1.18 -0.59 1.18 -0.3 1.47 -0.59 1.18 -0.29 1.18 -0.59 1.47 -0.3 1.18 -0.59 1.47 -0.3 1.18 -0.59 1.18 -0.29 1.47 -0.59 1.18 -0.3 1.47 -0.59 -0.3 0.29 -1.18 0.59 -1.47 0.3 -1.18 0.59 -1.47 0.59 -1.18 0.3 -1.18 0.59 -1.47 0.3 -1.18 0.59 -1.18 0.29 -1.47 0.59 -1.18 0.3 -1.18 0.59 -1.47 0.3 -1.18 0.59 -1.47 0.29 -1.18 0.59 -1.18 0.3 -1.47 0.59 -1.18 0.3 -1.18 0.59 -1.47 0.29 -1.18 0.59 -1.18 0.59 -1.47 0.29 -1.18 0.59 -1.18 0.3 -1.47 0.59 -1.18 0.3 -1.18 0.59 -1.47 0.29 -1.18 0.59 -1.18 0 0.3 0 0zm0.3 -0.59l0.29 0 -0.29 0.29 0 -0.29zm-0.89 0.29l0 -0.29 0 0 0 0 0 0 0 0 0 0 0.3 0 0 0 0 0 0 0 0 0 0 0 0 0 0 0 0 0 0 0 0 0 0 0 0 0 0 0 0.3 0 0 0 0 0 0 0 0 0 0 0 0 0 0 0 0 0 0 0 0 0 0.29 0 0 0 0 0 -0.29 0.59 0 0 0 0 0 0 0 0 0 0 0 0 -0.3 0 0 0 0 0 0 0 0 -0.29 0 0 0 0 0 0 0 0 0 0 0 0 0 0 0 0 -0.3 0 0 0 0 0 0 0 0 0 0 0 0 0 0 0 0 0 0 0 0 0 0 0 0 0 0 0 0 -0zm0 0l0 0 0 0 0 0zm-19.13 0l0 -0.29 0 0 0.59 0 0.59 0 0.59 0 0.59 0 0.59 0 0.59 0 0.59 0 0.59 0 0.59 0 0.59 0 0.59 0 0.59 0 0.59 0 0.59 0 0.59 0 0.59 0 0.59 0 0.59 0 0.88 0 0.59 0 0.59 0 0.59 0 0.59 0 0.59 0 0.59 0 0.59 0 0.59 0 0.59 0 0.59 0 0.59 0 0.59 0 0.59 0 0 0.29 -0.59 0 -0.59 0 -0.59 0 -0.59 0 -0.59 0 -0.59 0 -0.59 0 -0.59 0 -0.59 0 -0.59 0 -0.59 0 -0.59 0 -0.59 0 -0.88 0 -0.59 0 -0.59 0 -0.59 0 -0.59 0 -0.59 0 -0.59 0 -0.59 0 -0.59 0 -0.59 0 -0.59 0 -0.59 0 -0.59 0 -0.59 0 -0.59 0 -0.59 0 -0.59 0 -0.59 0 -0.59 0 0 0zm0 0l0 0 0 0 0 0zm-1.18 0.89l-0.59 0 0 0 0 -0.3 0 0 0 0 0.3 0 0 0 0 -0.3 0 0 0 0 0 0 0 0 0.3 0 0 0 0 -0.29 0 0 0 0 0 0 0.29 0 0 0 0 0 0 -0.3 0 0 0.3 0 0 0 0 0 0 0 0 0 0.3 0 0 0 0 0 0 0 0 0 0.29 0 0 0.3 0 0 0 0 -0.29 0 0 0 0 0 0 0 0 0 0 0.29 0 0 -0.3 0 0 0 0 0 0 0 0 0 0 0 0 0 -0.3 0 0 0 0 0.3 0 0 0 0 0 0 0 0 -0.29 0 0 0 0 0 0 0.3 0 0 0 0 0 0 0 0 0 0 0 0 0 0zm0 0l0 0 0 0.29 0 -0.29zm-7.06 20.01l-0.59 0 0 0 0.3 -0.59 0.3 -0.59 0 -0.59 0.29 -0.88 0.3 -0.59 0.3 -0.59 0 -0.59 0.29 -0.59 0.3 -0.59 0 -0.59 0.3 -0.88 0.29 -0.59 0.3 -0.59 0 -0.59 0.3 -0.59 0.29 -0.59 0.3 -0.59 0.3 -0.89 0 -0.59 0.29 -0.59 0.3 -0.59 0.3 -0.59 0 -0.59 0.3 -0.59 0.29 -0.89 0.3 -0.59 0 -0.59 0.3 -0.59 0.29 -0.59 0.3 -0.59 0 -0.59 0.3 -0.59 0.59 0 -0.29 0.59 -0.3 0.59 0 0.59 -0.3 0.88 -0.29 0.59 -0.3 0.59 0 0.59 -0.3 0.59 -0.29 0.59 -0.3 0.59 -0.3 0.88 0 0.59 -0.3 0.59 -0.29 0.59 -0.3 0.59 0 0.59 -0.3 0.59 -0.29 0.59 -0.3 0.88 0 0.59 -0.3 0.59 -0.29 0.59 -0.3 0.59 0 0.59 -0.3 0.59 -0.29 0.88 -0.3 0.59 0 0.59 -0.3 0.59 -0.29 0.59 0 0.59 -0.3 0.59 0 0zm0 0l0 0 0 0 0 0zm0.3 1.18l-0.3 0.59 0 0 -0.3 -0.3 0 0 0 0 0 0 0 0 0 0 0 0 0 -0.29 0 0 0 0 -0.29 0 0 0 0 0 0 -0.3 0 0 0 0 0 0 0 0 0 -0.3 0 0 0 0 0 0 0 0 0 -0.29 0 0 0 0 0 0 0 0 0 -0.3 0 0 0 0 0 0 0.59 0 0 0.3 0 0 0 0 0 0 0 0 0 0 0 0 0 0 0 0 0 0.29 0 0 0 0 0 0 0 0 0 0 0 0.3 0 0 0 0 0 0 0 0 0 0 0 0 0 0.3 0 0 0 0 0 0 0.3 0 0 0 0 0 0 0 0 0 0 0 0 0 0 -0zm0 0l0 0 0 0 0 0zm-2.06 8.83l-0.29 -0.59 0 0 0.29 0 0.59 -0.29 0.3 0 0.29 -0.3 0.3 -0.3 0.3 0 0.29 -0.29 0 -0.3 0.3 0 0.3 -0.3 0 -0.29 0.29 -0.3 0 -0.3 0.3 0 0 -0.29 0 -0.3 0 -0.3 0.3 -0.29 0 -0.3 0 -0.3 0 -0.29 -0.3 -0.3 0 -0.3 0 -0.3 -0.3 -0.29 0 -0.3 -0.29 -0.3 0 -0.29 -0.3 -0.3 -0.3 0 0 -0.3 -0.29 -0.29 0.29 -0.59 0.3 0.3 0.3 0.59 0.29 0.3 0 0.3 0.3 0.29 0.3 0.3 0 0.3 0 0.29 0.29 0.3 0 0.3 0 0.3 0 0.29 0 0.3 0 0.3 0 0.29 0 0.3 0 0.3 -0.29 0.29 0 0.3 -0.3 0.3 0 0.29 -0.3 0.3 -0.29 0.3 0 0 -0.3 0.29 -0.3 0.3 -0.29 0.3 -0.3 0 -0.3 0.29 -0.59 0.3 -0.3 0 -0.3 0.3 0 0 0 0zm-8.54 2.65l0 -0.59 0 0 0.3 0 0.3 0 0 0 0.3 -0.3 0.29 0 0.3 0 0.3 -0.29 0.29 0 0.3 0 0.3 0 0.29 -0.3 0 0 0.3 0 0.3 -0.3 0.29 0 0.3 0 0.3 0 0.29 -0.29 0.3 0 0.3 0 0 -0.3 0.29 0 0.3 0 0.3 -0.3 0.29 0 0.3 0 0.3 0 0.29 -0.29 0 0 0.3 0 0.3 -0.3 0.3 0 0.29 0.59 -0.29 0 -0.3 0 -0.3 0.29 -0.3 0 -0.29 0 -0.3 0 0 0.3 -0.3 0 -0.29 0 -0.3 0.3 -0.3 0 -0.29 0 -0.3 0.29 -0.3 0 -0.29 0 0 0 -0.3 0.3 -0.3 0 -0.29 0 -0.3 0.3 -0.3 0 -0.29 0 -0.3 0 -0.3 0.29 0 0 -0.29 0 -0.3 0.3 -0.3 0 -0.29 0 -0.3 0 -0.3 0.3 -0.3 0 0 0zm-3.53 1.18l-0.59 0 0 -0.3 0.29 0 0 0 0.3 0 0 0 0 -0.3 0.3 0 0 0 0.29 0 0 0 0.3 0 0 0 0 -0.29 0.3 0 0 0 0.3 0 0 0 0 0 0.29 -0.3 0 0 0.3 0 0 0 0.3 0 0 0 0 0 0.29 -0.3 0 0 0.3 0 0 0 0 0 0.3 0 0 0 0.29 -0.29 0 0.59 0 0 0 0 -0.29 0 0 0.3 -0.3 0 0 0 -0.3 0 0 0 0 0 -0.29 0 0 0.3 -0.3 0 0 0 0 0 -0.3 0 0 0 -0.29 0 0 0.29 -0.3 0 0 0 0 0 -0.3 0 0 0 -0.3 0.3 0 0 0 0 -0.29 0 0 0 -0.3 0 0 0 -0.3 0.3 0 0 0.3 -0.3 0 0zm-0.59 0l0 -0.3 0 0 0 0.3zm0.88 2.65l0.3 0.29 -0.3 0 0 0 0 -0.29 -0.3 0 0 0 0 -0.3 0 0 0 0 0 -0.3 0 0 0 0 0 0 0 -0.3 0 0 0 0 -0.29 -0.29 0 0 0 0 0 0 0 -0.3 0 0 0 0 0 -0.3 0 0 0 0 0 -0.29 -0.3 0 0 0 0 -0.3 0 0 0 0 0 -0.3 0 0 0.59 0 0 0 0 0 0 0.3 0 0 0 0 0 0.3 0 0 0 0 0 0.29 0.29 0 0 0 0 0 0 0.3 0 0 0 0 0 0.3 0 0 0 0 0 0.29 0 0 0 0 0.3 0 0 0.3 0 0 0 0 0 0.3 0 0 0 0 0 0 0 0.3 0 0 0 0 -0.3 0 0 0zm0.3 0.29l-0.3 0.3 0 -0.3 0.3 0zm15.3 -5l0 0.3 0 0 -0.29 0.3 -0.59 0 -0.3 0.29 -0.59 0 -0.59 0.3 -0.3 0 -0.59 0.3 -0.3 0 -0.59 0.3 -0.59 0 -0.3 0.29 -0.59 0 -0.59 0.3 -0.3 0 -0.59 0.3 -0.59 0 -0.3 0.29 -0.59 0 -0.29 0.3 -0.59 0 -0.59 0.3 -0.29 0 -0.59 0.29 -0.59 0 -0.29 0.3 -0.59 0 -0.59 0.3 -0.29 0 -0.59 0.29 -0.59 0 -0.29 0.3 -0.59 0 -0.3 -0.3 0.59 -0.29 0.59 0 0.29 -0.3 0.59 0 0.59 -0.3 0.29 0 0.59 -0.29 0.59 0 0.29 -0.3 0.59 0 0.59 -0.3 0.29 0 0.59 -0.29 0.59 0 0.29 -0.3 0.59 0 0.59 -0.3 0.29 0 0.59 -0.29 0.3 0 0.59 -0.3 0.59 0 0.3 -0.3 0.59 0 0.59 -0.3 0.3 0 0.59 -0.29 0.3 0 0.59 -0.3 0.59 0 0.3 -0.3 0.59 0 0 0 -0 0zm8.24 2.65l-0.59 0.3 0 0 0 -0.3 -0.3 -0.29 -0.3 0 0 -0.3 -0.29 -0.3 0 0 -0.3 -0.29 -0.3 -0.3 -0.29 0 0 -0.3 -0.3 0 -0.3 -0.29 0 0 -0.29 0 -0.3 -0.3 -0.3 0 -0.29 0 0 -0.3 -0.3 0 -0.3 0 -0.29 0 -0.3 0 -0.3 0 -0.29 0 0 0 -0.3 0 -0.3 0 -0.3 0 -0.29 0 -0.3 0.3 -0.3 0 -0.59 0 0 -0.3 0.29 -0.29 0.3 0 0.3 0 0.29 0 0.3 -0.3 0.3 0 0.3 0 0.29 0 0.3 0 0.3 0 0.29 0 0.3 0 0.3 0.3 0.29 0 0.3 0 0.3 0 0.29 0.29 0.3 0 0 0 0.3 0.3 0.29 0 0.3 0.3 0.3 0 0 0.29 0.29 0.3 0.3 0 0.3 0.3 0 0.29 0.29 0.3 0.3 0 0 0.3 0.3 0.29 0 0 0 0zm3.24 5.59l0.59 0.3 -0.59 0 -0.3 -0.3 0 0 0 -0.3 -0.3 -0.3 0 0 -0.29 -0.29 0 -0.3 0 0 -0.3 -0.3 0 0 -0.3 -0.29 0 -0.3 0 0 -0.29 -0.3 0 0 -0.3 -0.29 0 0 0 -0.3 -0.3 -0.3 0 0 -0.29 -0.29 0 0 0 -0.3 -0.3 0 0 -0.3 0 -0.29 -0.3 0 0 -0.3 -0.29 0 0 -0.3 0 0 -0.3 -0.29 0.59 -0.3 0 0.3 0.29 0 0 0.29 0 0 0.3 0.3 0 0.3 0 0 0.3 0.29 0 0 0.29 0.3 0 0 0 0.3 0.3 0.29 0 0 0 0.3 0.3 0 0 0.3 0.29 0 0 0.29 0 0.3 0.3 0 0 0.3 0.3 0 0 0.29 0 0.3 0.29 0 0 0.3 0.3 0 0 0.29 0.3 0.3 0 0 0 0.3 -0.3 0 0 0zm0.59 0.3l-0.29 0.29 -0.3 -0.29 0.59 0 -0 0zm-29.14 9.12l0 0 0 0 0 0 0.3 0 -0.3 0zm-0.3 0l0 -0.3 0.3 0 -0.3 0.3zm0.3 0l0 0.59 -0.3 -0.3 0 0 0 0 0 0 0 0 0 0 0 0 0 0 0 0 0 0 0 0 0 0 0 0 0 0 0 0 0 -0.3 0 0 0 0 0 0 0 0 0 0 0 0 0 0 0 0 0 0 0 0 0 0 0 0 0 0 0 0 0 0 0 0 0 0 0.59 0 0 0 0 0 0 0 0 0 0 0 0 0 0 0 0 0 0 0 0 0 0 0 0 0 0 0 0 0 0 0 0 0 0 0 0 0 0 0.3 0 0 0 0 0 0 0 0 0 0 0 0 0 0 0 0 0 0 0 0 0 0 0 0 0 0 -0.3 -0.3 0 0zm0 0.59l-0.3 0 0 -0.3 0.3 0.3zm14.42 -0.59l0 0.59 0 0 -0.59 0 -0.3 0 -0.59 0 -0.29 0 -0.59 0 -0.3 0 -0.59 0 -0.3 0 -0.59 0 -0.29 0 -0.59 0 -0.3 0 -0.59 0 -0.3 0 -0.59 0 -0.29 0 -0.59 0 -0.59 0 -0.29 0 -0.59 0 -0.3 0 -0.59 0 -0.3 0 -0.59 0 -0.29 0 -0.59 0 -0.3 0 -0.59 0 -0.3 0 -0.59 0 -0.29 0 -0.59 0 0 -0.59 0.59 0 0.29 0 0.59 0 0.3 0 0.59 0 0.3 0 0.59 0 0.29 0 0.59 0 0.3 0 0.59 0 0.3 0 0.59 0 0.29 0 0.59 0 0.59 0 0.29 0 0.59 0 0.3 0 0.59 0 0.3 0 0.59 0 0.29 0 0.59 0 0.3 0 0.59 0 0.3 0 0.59 0 0.29 0 0.59 0 0.3 0 0.59 0 0 0zm2.65 2.35l-0.59 0 0 0 0 0 0 -0.3 0 0 0 -0.29 0 0 0 0 0 -0.3 0 0 -0.3 0 0 -0.3 0 0 0 0 0 0 0 -0.29 0 0 0 0 -0.3 0 0 0 0 0 0 -0.3 0 0 -0.29 0 0 0 0 0 -0.3 0 0 0 -0.3 0 0 0 0 0 -0.29 0 0 0 -0.3 0 0 -0.59 0.3 0 0 0 0.29 0 0 0 0.3 0 0 0 0.3 0 0 0 0 0.3 0.29 0 0 0 0.3 0 0 0 0 0 0.3 0.3 0 0 0 0 0 0 0.29 0.29 0 0 0 0 0 0.3 0 0 0 0.3 0 0 0 0 0 0.29 0.3 0 0 0.3 0 0 0 0.3 0 0 0 0 0 0zm-0.29 23.84l-0.3 0 0 0 0 -0.59 0 -0.88 0 -0.59 0 -0.88 0 -0.59 0 -0.88 0 -0.89 0 -0.59 0 -0.89 0 -0.59 0 -0.89 0 -0.59 0 -0.89 0 -0.59 0 -0.89 0 -0.59 0 -0.89 0 -0.59 0 -0.89 0 -0.59 0 -0.89 0 -0.59 0 -0.89 0 -0.88 0 -0.59 0 -0.88 0 -0.59 0 -0.88 0 -0.59 0 -0.88 0 -0.59 0 -0.88 0.59 0 0 0.88 0 0.59 0 0.88 -0.3 0.59 0 0.88 0 0.59 0 0.88 0 0.89 0 0.59 0 0.89 0 0.59 0 0.89 0 0.59 0 0.89 0 0.59 0 0.89 0 0.59 0 0.89 0 0.59 0 0.89 0 0.59 0 0.89 0 0.59 0 0.89 0 0.59 0 0.89 0 0.88 0 0.59 0 0.88 0 0.59 0 0.88 0 0.59 0 0 0 0zm4.41 4.12l0 0.59 0 0 -0.3 0 -0.3 0 0 0 -0.29 0 -0.3 0 -0.3 -0.3 -0.29 0 0 0 -0.3 0 -0.3 -0.3 -0.29 0 0 0 -0.3 -0.29 -0.3 0 0 -0.3 -0.29 0 0 -0.3 -0.3 0 0 -0.29 -0.3 -0.3 0 0 0 -0.3 -0.3 -0.29 0 0 0 -0.3 -0.29 -0.3 0 -0.3 0 0 0 -0.29 0 -0.3 0 -0.3 0 -0.29 0.29 0 0.3 0.29 0 0.3 0 0.3 0 0 0 0.29 0 0.3 0 0 0.3 0.3 0 0.3 0 0 0.3 0.29 0 0.3 0 0 0.29 0.3 0 0 0.3 0.29 0 0 0.3 0 0 0.3 0.29 0 0 0.3 0.3 0 0.3 0 0 0 0.29 0.29 0.3 0 0 0 0.3 0 0.29 0 0 0 0.3 0 0.3 0 0 0 0 0zm3.83 -4.12l0.59 0 0 0 0 0.29 0 0.3 0 0.3 0 0.29 -0.29 0 0 0.3 0 0.3 0 0.29 -0.3 0 0 0.3 0 0 -0.3 0.3 0 0.29 0 0 -0.29 0.3 0 0 -0.3 0.3 0 0 -0.3 0.29 0 0 -0.29 0.3 -0.3 0 0 0 -0.3 0 -0.29 0.3 0 0 -0.3 0 -0.3 0 -0.29 0.29 0 0 -0.3 0 -0.3 0 0 -0.59 0.3 0 0 0 0.3 0 0.29 0 0 0 0.3 -0.3 0.3 0 0 0 0.29 0 0 -0.3 0.3 0 0 0 0.3 -0.29 0 0 0.29 0 0 -0.3 0.3 0 0 -0.3 0.3 0 0 -0.29 0 0 0.29 -0.3 0 0 0 -0.3 0 -0.29 0 0 0.3 -0.3 0 -0.3 0 0 0 -0.29 0 -0.3 0 -0.3 0 0 0 0zm0 -17.96l0.59 0 0 0 0 0.59 0 0.59 0 0.59 0 0.59 0 0.29 0 0.59 0 0.59 0 0.59 0 0.59 0 0.59 0 0.59 0 0.59 0 0.59 0 0.59 0 0.59 0 0.59 0 0.59 0 0.3 0 0.59 0 0.59 0 0.59 0 0.59 0 0.59 0 0.59 0 0.59 0 0.59 0 0.59 0 0.59 0 0.59 0 0.59 0 0.29 0 0.59 -0.59 0 0 -0.59 0 -0.29 0 -0.59 0 -0.59 0 -0.59 0 -0.59 0 -0.59 0 -0.59 0 -0.59 0 -0.59 0 -0.59 0 -0.59 0 -0.59 0 -0.59 0 -0.3 0 -0.59 0 -0.59 0 -0.59 0 -0.59 0 -0.59 0 -0.59 0 -0.59 0 -0.59 0 -0.59 0 -0.59 0 -0.59 0 -0.59 0 -0.29 0 -0.59 0 -0.59 0 -0.59 0 -0.59 0 0zm-0.3 -1.47l0.3 -0.29 0 0 0 0 0.29 0 0 0 0 0.29 0 0 0 0 0 0 0 0 0 0 0 0.3 0 0 0 0 0 0 0 0 0 0.3 0.3 0 0 0 0 0 0 0 0 0.29 0 0 0 0 0 0 0 0 0 0.3 0 0 0 0 0 0 0 0 0 0 0 0.3 0 0 -0.59 0 0 0 0 0 0 -0.3 0 0 0 0 0 0 0 0 0 -0.3 0 0 0 0 0 0 0 0 0 0 0 -0.29 0 0 0 0 0 0 0 0 0 0 0 -0.3 0 0 0 0 -0.29 0 0 0 0 0 0 0 0 -0.3 0 0 0 0 0 0 0 0 0 0 0 0 0 0zm-7.94 -11.77l0 -0.59 0.29 0.29 0.3 0.3 0.3 0.3 0.29 0.29 0 0.59 0.3 0.3 0.3 0.29 0.29 0.3 0.3 0.59 0.3 0.29 0.29 0.3 0 0.3 0.3 0.59 0.3 0.3 0.29 0.3 0.3 0.59 0.3 0.3 0.3 0.3 0 0.29 0.29 0.59 0.3 0.3 0.3 0.29 0.29 0.3 0.3 0.59 0.3 0.29 0 0.3 0.29 0.3 0.3 0.59 0.3 0.3 0.29 0.3 0.3 0.29 0.3 0.59 0 0.3 -0.3 0.3 -0.3 -0.59 -0.29 -0.3 -0.3 -0.3 -0.3 -0.29 0 -0.59 -0.29 -0.3 -0.3 -0.29 -0.3 -0.3 -0.29 -0.59 -0.3 -0.29 0 -0.3 -0.3 -0.3 -0.29 -0.59 -0.3 -0.3 -0.3 -0.3 -0.3 -0.29 -0.29 -0.59 0 -0.3 -0.3 -0.29 -0.3 -0.3 -0.29 -0.59 -0.3 -0.29 -0.3 -0.3 -0.29 -0.3 0 -0.59 -0.3 -0.3 -0.3 -0.3 -0.29 -0.29 -0.3 -0.59 -0.3 -0.3 -0.29 -0.29 -0.3 -0.59 0.3 0.3 0 0zm0 -0.59l0.29 0 0 0.29 -0.29 -0.29zm-16.48 5.59l-0.59 0 0.3 -0.3 0.3 -0.29 0.59 0 0.59 -0.3 0.59 0 0.59 -0.3 0.3 0 0.59 -0.29 0.59 -0.3 0.59 0 0.59 -0.3 0.29 0 0.59 -0.29 0.59 0 0.59 -0.3 0.3 0 0.59 -0.3 0.59 -0.3 0.59 0 0.59 -0.29 0.29 0 0.59 -0.3 0.59 0 0.59 -0.3 0.59 0 0.3 -0.29 0.59 0 0.59 -0.3 0.59 -0.3 0.59 0 0.3 -0.29 0.59 0 0.59 -0.3 0 0.59 -0.29 0 -0.59 0.29 -0.59 0 -0.59 0.3 -0.59 0.3 -0.3 0 -0.59 0.29 -0.59 0 -0.59 0.3 -0.59 0 -0.3 0.3 -0.59 0 -0.59 0.29 -0.59 0.3 -0.3 0 -0.59 0.3 -0.59 0 -0.59 0.3 -0.59 0 -0.3 0.29 -0.59 0 -0.59 0.3 -0.59 0 -0.3 0.3 -0.59 0.29 -0.59 0 -0.59 0.3 -0.59 0 -0.3 0.3 -0.59 0 -0.59 0.29 -0.59 0 0.3 0 0 0zm-0.59 0l0 -0.3 0.3 0 -0.3 0.3zm-15.01 15.3l0 0 0 0 0 0 0 0.3 0 -0.3zm0 -0.29l0.3 0 0 0.29 -0.3 -0.29zm-7.06 0.29l-0.59 0 0.3 -0.29 0.29 0 0 0 0.3 0 0.3 0 0.29 0 0.3 0 0 0 0.3 0 0.29 0 0.3 0 0 0 0.3 0 0.29 0 0.3 0 0 0 0.3 0 0.29 0 0.3 0 0 0 0.3 0 0.29 0 0.3 0 0.3 0 0 0 0.29 0 0.3 0 0.3 0 0.3 0 0 0 0.29 0 0.3 0 0.3 0 0 0.59 -0.3 0 -0.3 0 -0.29 0 0 0 -0.3 0 -0.3 0 -0.3 0 -0.29 0 0 0 -0.3 0 -0.3 0 -0.29 0 -0.3 0 0 0 -0.3 0 -0.29 0 -0.3 0 0 0 -0.3 0 -0.29 0 -0.3 0 0 0 -0.3 0 -0.29 0 -0.3 0 0 0 -0.3 0 -0.29 0 -0.3 0 -0.3 0 0 0 -0.29 0 0.29 -0.29 0 -0zm-0.59 0l0 -0.29 0.3 0 -0.3 0.29zm2.35 15.01l0 0.3 -0.29 0 0 -0.59 0 -0.59 -0.3 -0.29 0 -0.59 0 -0.3 0 -0.59 0 -0.59 -0.3 -0.3 0 -0.59 0 -0.3 0 -0.59 -0.3 -0.59 0 -0.3 0 -0.59 0 -0.29 0 -0.59 -0.29 -0.59 0 -0.29 0 -0.59 0 -0.3 -0.3 -0.59 0 -0.59 0 -0.3 0 -0.59 0 -0.59 -0.3 -0.3 0 -0.59 0 -0.3 0 -0.59 -0.29 -0.59 0 -0.3 0 -0.59 0.59 0 0 0.3 0 0.59 0 0.59 0.3 0.3 0 0.59 0 0.59 0 0.3 0.3 0.59 0 0.59 0 0.3 0 0.59 0 0.29 0.29 0.59 0 0.59 0 0.29 0 0.59 0.3 0.3 0 0.59 0 0.59 0 0.3 0 0.59 0.3 0.3 0 0.59 0 0.59 0 0.3 0.29 0.59 0 0.29 0 0.59 0 0.59 0 0.29 0.3 0.59 0 0.3 -0.3 0 0 0zm0 0.3l-0.29 0 0 0 0.29 0zm2.94 -0.3l0.59 0.3 -0.3 0 -0.3 0 0 0 0 0 -0.3 0 0 0 0 0 -0.29 0 0 0 0 0 -0.3 0 0 0 0 0 -0.3 0 0 0 0 0 -0.29 0 0 0 0 0 -0.3 0 0 0 0 0 -0.3 0 0 0 0 0 -0.29 0 0 0 0 0 -0.3 0 0 0 0 0 -0.3 0 0 0 0 -0.3 0 0 0.3 0 0 0 0 0 0.3 0 0 0 0 0 0.29 0 0 0 0 0 0.3 0 0 0 0 0 0.3 0 0 0 0 0 0.29 0 0 0 0 0 0.3 0 0 0 0 0 0.3 0 0 0 0 0 0.29 0 0 0 0 0 0.3 0 0 0 0 0 0.3 0 -0.3 0 0 0zm0.59 0.3l-0.29 0 0 0 0.29 0zm1.77 -15.01l0 -0.59 0.3 0.29 -0.3 0.59 0 0.3 0 0.59 0 0.59 0 0.3 -0.3 0.59 0 0.3 0 0.59 0 0.59 -0.29 0.3 0 0.59 0 0.3 0 0.59 0 0.59 -0.3 0.3 0 0.59 0 0.29 0 0.59 -0.3 0.59 0 0.29 0 0.59 0 0.3 0 0.59 -0.29 0.59 0 0.3 0 0.59 0 0.59 -0.3 0.3 0 0.59 0 0.3 0 0.59 0 0.59 -0.59 -0.29 0 -0.3 0 -0.59 0 -0.29 0.3 -0.59 0 -0.59 0 -0.29 0 -0.59 0.3 -0.59 0 -0.29 0 -0.59 0 -0.3 0 -0.59 0.29 -0.59 0 -0.3 0 -0.59 0 -0.3 0.3 -0.59 0 -0.59 0 -0.3 0 -0.59 0 -0.29 0.3 -0.59 0 -0.59 0 -0.29 0 -0.59 0.29 -0.3 0 -0.59 0 -0.59 0 -0.3 0 -0.59 0.3 -0.59 0 -0.3 0.3 0.3 0 0zm0 -0.59l0.3 0 0 0.29 -0.3 -0.29zm57.69 -67.4l0 0 0 0 0 0 -0.29 0.3 0.29 -0.3zm0 0l0.59 0.3 -0.59 0 0 -0.3zm-8.54 -8.54l-0.59 -0.3 0.59 0 0.3 0.3 0.3 0.3 0.3 0.29 0.29 0.3 0 0.3 0.3 0.29 0.3 0.3 0.29 0.3 0.3 0 0.3 0.29 0.29 0.3 0.3 0.3 0.3 0.29 0.29 0.3 0.3 0.3 0 0.29 0.3 0.3 0.29 0.3 0.3 0.29 0.3 0 0.29 0.3 0.3 0.3 0.3 0.3 0.29 0.29 0.3 0.3 0.3 0.3 0.3 0.29 0 0.3 0.29 0.3 0.3 0.29 0.3 0.3 0.29 0.3 -0.29 0.29 -0.3 -0.29 -0.3 -0.3 -0.29 -0.3 -0.3 -0.29 -0.3 -0.3 -0.3 -0.3 -0.29 -0.29 -0.3 -0.3 0 -0.3 -0.3 -0.29 -0.29 0 -0.3 -0.3 -0.3 -0.3 -0.29 -0.3 -0.3 -0.29 -0.3 -0.3 -0.29 -0.3 -0.3 -0.29 -0.3 -0.3 0 -0.3 -0.29 -0.29 -0.3 -0.3 -0.3 0 -0.29 -0.3 -0.3 -0.29 -0.3 -0.3 -0.29 -0.3 -0.3 -0.29 -0.3 -0.3 -0.3 -0.3 -0.29 -0.29 0 -0.3 0.29 0zm-0.59 -0.3l0.3 -0.29 0.29 0.29 -0.59 0 0 0zm-2.65 8.54l0 0.59 -0.3 -0.3 0.3 -0.29 0 -0.3 0 -0.3 0 -0.29 0.3 -0.3 0 0 0 -0.3 0.29 -0.29 0 -0.3 0 -0.3 0.3 -0.29 0 -0.3 0 -0.3 0.3 -0.3 0 -0.29 0 0 0 -0.3 0.3 -0.3 0 -0.29 0 -0.3 0.29 -0.3 0 -0.29 0 -0.3 0.3 -0.3 0 -0.29 0 -0.3 0.3 -0.3 0 -0.29 0 -0.3 0.29 -0.3 0 -0.29 0 -0.3 0.59 0.3 0 0.29 -0.3 0.3 0 0.3 0 0.29 -0.29 0.3 0 0.3 0 0.29 -0.3 0.3 0 0.3 0 0.29 -0.3 0 0 0.3 0 0.3 0 0.29 -0.29 0.3 0 0.3 0 0.29 -0.3 0.3 0 0.3 0 0.3 -0.3 0.29 0 0 0 0.3 -0.3 0.3 0 0.29 0 0.3 -0.29 0.3 0 0.29 0 0.3 0 0.3 -0.3 0.29 0 0.3 -0.3 -0.59 0 0zm0 0.59l-0.3 0 0 -0.3 0.3 0.3zm11.48 0l0.29 -0.3 0 0.3 -0.59 0 -0.3 0 -0.3 0 -0.29 0 -0.59 0 -0.3 0 -0.29 0 -0.59 0 -0.3 0 -0.29 0 -0.3 0 -0.3 0 -0.59 0 -0.3 0 -0.3 0 -0.29 0 -0.59 0 -0.3 0 -0.3 0 -0.29 0 -0.3 0 -0.59 0 -0.29 0 -0.3 0 -0.3 0 -0.59 0 -0.3 0 -0.3 0 -0.29 0 -0.3 0 -0.59 0 -0.29 0 0 -0.59 0.29 0 0.59 0 0.3 0 0.29 0 0.3 0 0.3 0 0.59 0 0.3 0 0.3 0 0.29 0 0.59 0 0.3 0 0.29 0 0.3 0 0.3 0 0.59 0 0.29 0 0.3 0 0.3 0 0.59 0 0.3 0 0.3 0 0.29 0 0.3 0 0.59 0 0.29 0 0.3 0 0.59 0 0.29 0 0.3 0 0.3 0 0.59 0 -0.29 0.59zm0.29 -0.3l0.59 0.3 -0.59 0 0 -0.3z"/>
    </g>
    <g>
     <path class="fil1" d="M61.69 31.96c0,6.18 -5.3,11.19 -11.78,11.19 -6.48,0 -12.07,-5 -12.07,-11.19 0,-5.89 5.3,-10.89 12.07,-10.89 6.48,0 11.78,4.71 11.78,10.89zm-11.78 9.42l0 0c5.59,0 10.01,-4.12 10.01,-9.42 0,-5.3 -4.41,-9.42 -10.01,-9.42 -5.59,0 -10.01,4.12 -10.01,9.42 -0.29,5 4.42,9.42 10.01,9.42z"/>
     <path id="_1_53" class="fil1" d="M49.91 43.44l0 -0.59 0 0 0.59 0 0.59 0 0.59 0 0.59 -0.3 0.59 0 0.59 -0.3 0.59 0 0.29 -0.29 0.59 -0.3 0.59 -0.3 0.29 0 0.59 -0.29 0.59 -0.3 0.29 -0.3 0.3 -0.59 0.59 -0.3 0.29 -0.3 0.3 -0.29 0.3 -0.59 0.59 -0.3 0.3 -0.59 0.3 -0.3 0 -0.59 0.3 -0.59 0.29 -0.3 0 -0.59 0.3 -0.59 0 -0.59 0.3 -0.3 0 -0.59 0 -0.59 0 -0.59 0.59 0 0 0.59 0 0.59 0 0.59 -0.29 0.59 0 0.59 -0.3 0.29 0 0.59 -0.3 0.59 -0.3 0.59 -0.29 0.3 -0.3 0.59 -0.3 0.59 -0.29 0.3 -0.3 0.59 -0.59 0.29 -0.29 0.3 -0.3 0.59 -0.59 0.29 -0.29 0.3 -0.59 0.3 -0.59 0.29 -0.29 0.3 -0.59 0.3 -0.59 0.29 -0.59 0 -0.59 0.3 -0.59 0 -0.59 0.3 -0.59 0 -0.59 0 -0.59 0.29 -0.59 0 0 0zm-12.36 -11.48l0.59 0 0 0 0 0.59 0 0.59 0.3 0.59 0 0.59 0 0.59 0.29 0.3 0.3 0.59 0 0.59 0.3 0.3 0.29 0.59 0.3 0.29 0.3 0.59 0.29 0.3 0.3 0.59 0.59 0.3 0.29 0.3 0.3 0.59 0.59 0.3 0.3 0.3 0.59 0.29 0.3 0.3 0.59 0.3 0.59 0 0.59 0.29 0.29 0.3 0.59 0 0.59 0.3 0.59 0 0.59 0.29 0.59 0 0.59 0 0.59 0 0 0.59 -0.59 0 -0.59 -0.3 -0.59 0 -0.59 0 -0.59 -0.29 -0.59 0 -0.59 -0.3 -0.59 0 -0.59 -0.3 -0.59 -0.29 -0.59 -0.3 -0.3 -0.3 -0.59 -0.29 -0.3 -0.3 -0.59 -0.3 -0.29 -0.29 -0.59 -0.59 -0.3 -0.3 -0.29 -0.59 -0.3 -0.3 -0.3 -0.59 -0.59 -0.29 0 -0.59 -0.29 -0.59 -0.3 -0.29 -0.3 -0.59 0 -0.59 -0.29 -0.59 0 -0.59 0 -0.59 -0.3 -0.59 0 -0.59 0 0 0 0zm12.36 -11.19l0 0.3 0 0 -0.59 0 -0.59 0.3 -0.59 0 -0.59 0 -0.59 0.29 -0.59 0 -0.59 0.3 -0.59 0 -0.59 0.3 -0.29 0.29 -0.59 0.3 -0.59 0.3 -0.29 0.29 -0.59 0.3 -0.3 0.3 -0.29 0.29 -0.59 0.59 -0.3 0.3 -0.29 0.29 -0.3 0.59 -0.3 0.3 -0.29 0.59 -0.3 0.3 -0.3 0.59 0 0.59 -0.29 0.3 -0.3 0.59 0 0.59 0 0.59 -0.3 0.59 0 0.59 0 0.3 -0.59 0 0 -0.59 0.29 -0.59 0 -0.3 0 -0.59 0.3 -0.59 0 -0.59 0.3 -0.59 0.29 -0.59 0 -0.3 0.3 -0.59 0.3 -0.59 0.29 -0.3 0.59 -0.59 0.3 -0.29 0.29 -0.3 0.3 -0.59 0.59 -0.29 0.29 -0.3 0.59 -0.3 0.3 -0.59 0.59 -0.3 0.59 -0.3 0.59 0 0.29 -0.29 0.59 -0.3 0.59 0 0.59 -0.3 0.59 0 0.59 -0.29 0.59 0 0.59 0 0.88 0 0 0 0 0zm12.07 11.19l-0.59 0 0 0 0 -0.59 0 -0.59 0 -0.59 -0.3 -0.3 0 -0.59 -0.3 -0.59 0 -0.59 -0.29 -0.29 -0.3 -0.59 -0.3 -0.59 -0.29 -0.29 -0.3 -0.59 -0.3 -0.3 -0.29 -0.29 -0.3 -0.59 -0.3 -0.3 -0.59 -0.29 -0.3 -0.3 -0.59 -0.3 -0.29 -0.29 -0.59 -0.3 -0.59 -0.3 -0.29 -0.29 -0.59 -0.3 -0.59 0 -0.59 -0.3 -0.59 0 -0.3 -0.29 -0.59 0 -0.59 0 -0.59 -0.3 -0.59 0 0 -0.3 0.59 0 0.59 0 0.59 0 0.59 0 0.59 0.3 0.59 0 0.59 0.3 0.59 0.29 0.3 0 0.59 0.3 0.59 0.3 0.59 0.29 0.3 0.3 0.59 0.3 0.3 0.59 0.59 0.3 0.3 0.3 0.3 0.59 0.59 0.3 0.3 0.3 0.3 0.59 0.29 0.59 0.3 0.3 0.3 0.59 0 0.59 0.29 0.59 0.3 0.29 0 0.59 0 0.59 0.3 0.59 0 0.59 0 0.59 0 0 -0 -0zm-12.07 9.42l0 0 0 0 0 0 0 -0.3 0 0.3zm9.71 -9.42l0.59 0 0 0 0 0.59 0 0.29 -0.3 0.59 0 0.59 0 0.29 -0.29 0.59 0 0.3 -0.3 0.59 -0.3 0.3 0 0.59 -0.29 0.29 -0.3 0.3 -0.3 0.59 -0.29 0.29 -0.3 0.3 -0.3 0.3 -0.59 0.29 -0.29 0.3 -0.3 0.3 -0.59 0.29 -0.29 0.3 -0.59 0.3 -0.3 0.29 -0.59 0 -0.3 0.3 -0.59 0 -0.59 0.3 -0.3 0 -0.59 0 -0.59 0.29 -0.59 0 -0.3 0 0 -0.59 0.3 0 0.59 0 0.59 0 0.3 0 0.59 -0.3 0.59 0 0.3 -0.3 0.59 0 0.29 -0.29 0.59 -0.3 0.3 0 0.3 -0.3 0.59 -0.29 0.3 -0.3 0.3 -0.3 0.29 -0.29 0.3 -0.3 0.59 -0.3 0 -0.29 0.29 -0.59 0.3 -0.3 0.3 -0.29 0.29 -0.3 0 -0.59 0.3 -0.29 0.3 -0.59 0 -0.3 0 -0.59 0.29 -0.3 0 -0.59 0 -0.29 0 -0.59 0 0zm-9.71 -9.12l0 -0.3 0 0 0.59 0 0.3 0 0.59 0 0.59 0 0.59 0.3 0.29 0 0.59 0.29 0.3 0 0.59 0.3 0.3 0 0.59 0.3 0.29 0.29 0.59 0.3 0.3 0.3 0.29 0.29 0.59 0.3 0.3 0.3 0.29 0.29 0.3 0.59 0.3 0.3 0.29 0.29 0.3 0.3 0 0.59 0.3 0.29 0.29 0.59 0 0.3 0.3 0.59 0 0.3 0 0.59 0.3 0.59 0 0.3 0 0.59 -0.59 0 0 -0.59 0 -0.3 0 -0.59 -0.3 -0.3 0 -0.59 -0.29 -0.29 0 -0.59 -0.3 -0.3 0 -0.29 -0.3 -0.59 -0.29 -0.3 -0.3 -0.29 -0.3 -0.3 -0.29 -0.59 -0.3 -0.29 -0.3 -0.3 -0.29 -0.3 -0.3 -0.29 -0.3 -0.3 -0.59 -0.3 -0.3 0 -0.3 -0.29 -0.59 -0.3 -0.29 0 -0.59 -0.3 -0.3 0 -0.59 -0.29 -0.3 0 -0.59 0 -0.59 -0.3 -0.3 0 -0.59 0 0 0 0 0zm-10.01 9.12l-0.29 0 0 0 0 -0.59 0 -0.59 0 -0.3 0 -0.59 0.29 -0.29 0 -0.59 0.3 -0.3 0.3 -0.59 0 -0.3 0.29 -0.59 0.3 -0.29 0.3 -0.3 0.29 -0.59 0.3 -0.29 0.3 -0.3 0.3 -0.3 0.29 -0.29 0.59 -0.3 0.3 -0.3 0.29 -0.29 0.59 -0.3 0.3 -0.3 0.59 0 0.3 -0.29 0.59 0 0.29 -0.3 0.59 0 0.59 -0.3 0.59 0 0.3 0 0.59 0 0.59 0 0 0.3 -0.59 0 -0.59 0 -0.3 0.3 -0.59 0 -0.3 0 -0.59 0.29 -0.59 0 -0.3 0.3 -0.59 0 -0.29 0.3 -0.3 0.29 -0.59 0 -0.29 0.3 -0.3 0.3 -0.3 0.29 -0.59 0.3 -0.3 0.3 -0.3 0.29 -0.3 0.3 -0.29 0.59 -0.3 0.29 0 0.3 -0.3 0.59 -0.29 0.29 0 0.3 -0.3 0.59 0 0.29 -0.3 0.59 0 0.3 0 0.59 -0.29 0.3 0 0.59 0 0 -0 0zm10.01 9.12l0 0.59 0 0 -0.59 0 -0.59 0 -0.59 -0.3 -0.29 0 -0.59 0 -0.59 -0.29 -0.29 0 -0.59 -0.3 -0.59 0 -0.29 -0.3 -0.59 -0.29 -0.3 -0.3 -0.29 -0.3 -0.59 -0.29 -0.3 -0.3 -0.29 -0.3 -0.3 -0.29 -0.59 -0.3 -0.29 -0.59 -0.3 -0.29 0 -0.3 -0.3 -0.59 -0.3 -0.29 -0.29 -0.3 0 -0.59 -0.3 -0.29 0 -0.59 -0.3 -0.59 0 -0.29 0 -0.59 0 -0.59 0 -0.29 0.3 0 0 0.29 0.3 0.59 0 0.59 0 0.29 0 0.59 0.29 0.3 0 0.59 0.3 0.3 0.3 0.3 0 0.59 0.3 0.3 0.29 0.3 0.3 0.59 0.3 0.3 0.29 0.3 0.3 0.29 0.3 0.3 0.29 0.3 0.59 0.29 0.3 0.3 0.29 0.3 0.59 0 0.3 0.29 0.59 0.3 0.3 0 0.59 0.3 0.29 0 0.59 0.29 0.59 0 0.29 0 0.59 0 0.59 0 0 0 0 0z"/>
    </g>
   </g>
  </g>
  <rect class="fil0" width="140" height="140"/>
 </g>
</svg>
