<?xml version="1.0" encoding="UTF-8"?>
<!DOCTYPE svg PUBLIC "-//W3C//DTD SVG 1.1//EN" "http://www.w3.org/Graphics/SVG/1.1/DTD/svg11.dtd">
<!-- Creator: CorelDRAW -->
<svg xmlns="http://www.w3.org/2000/svg" xml:space="preserve" width="0.14in" height="0.14in" version="1.1" style="shape-rendering:geometricPrecision; text-rendering:geometricPrecision; image-rendering:optimizeQuality; fill-rule:evenodd; clip-rule:evenodd"
viewBox="0 0 140 140"
 xmlns:xlink="http://www.w3.org/1999/xlink"
 xmlns:xodm="http://www.corel.com/coreldraw/odm/2003">
 <defs>
  <style type="text/css">
   <![CDATA[
    .str1 {stroke:#1C2335;stroke-width:3;stroke-miterlimit:2.61313}
    .str0 {stroke:#1C2335;stroke-width:3.33;stroke-miterlimit:2.61313}
    .fil0 {fill:none}
    .fil1 {fill:#1C2335;fill-rule:nonzero}
   ]]>
  </style>
 </defs>
 <g id="Layer_x0020_1">
  <metadata id="CorelCorpID_0Corel-Layer"/>
  <g id="_1782887807664">
   <g>
    <path class="fil0 str0" d="M135.08 89.3c10.66,-35.94 -9.83,-73.72 -45.78,-84.38 -35.94,-10.66 -73.72,9.83 -84.38,45.78 -10.66,35.94 9.83,73.72 45.78,84.38 35.94,10.66 73.72,-9.83 84.38,-45.78z"/>
   </g>
   <g id="_2134955334320">
    <g>
     <path class="fil1" d="M25.28 69.93c0,-8.57 0,-16.85 0,-25.43 0,-9.76 6.8,-18.63 16.56,-22.18 15.96,-5.32 32.82,2.66 36.37,17.44 1.19,4.44 2.07,8.87 3.26,13.01 0,0.59 0.59,1.18 1.18,1.78 7.09,5.02 14.19,10.35 21.58,15.37 7.1,5.03 10.65,11.53 10.35,19.52 0,3.25 0.3,6.8 -0.3,10.05 -1.48,10.06 -11.83,18.63 -23.36,19.52 -0.89,0.3 -1.78,0.3 -2.96,0.3 -11.83,0 -23.95,0 -36.07,0 -12.12,0 -22.47,-7.1 -25.43,-17.44 -0.89,-2.37 -1.18,-4.44 -1.18,-6.8 0,-8.28 0,-16.85 0,-25.13l0 0zm62.98 35.19l0 0c5.32,0 9.76,-3.55 10.35,-7.98 0.3,-2.66 0.3,-5.32 0.3,-7.98 0,-3.25 -1.48,-5.91 -4.43,-7.98 -7.69,-5.62 -15.67,-11.24 -23.36,-16.85 -2.66,-1.78 -4.14,-4.14 -4.73,-6.8 -1.18,-5.02 -2.66,-10.05 -3.84,-15.08 -0.59,-2.36 -1.78,-4.14 -3.84,-5.62 -3.25,-2.36 -7.1,-2.66 -11.24,-1.18 -4.14,1.78 -6.21,5.03 -6.21,8.87 0,17.15 0,34 0,50.86 0,5.61 4.73,9.76 10.94,9.76 6.21,0 12.42,0 18.33,0 0.59,0 0.89,0 1.18,0l16.56 0 0 0zm-14.19 12.12l0 0c2.66,0 5.03,0 7.69,0 3.25,0 6.5,0 10.05,-0.3 10.35,-1.18 19.22,-9.17 20.4,-18.33 0.3,-3.55 0.3,-6.8 0,-10.06 0,-6.5 -2.96,-11.83 -8.57,-15.96 -7.69,-5.91 -15.37,-11.53 -23.36,-17.15 -0.3,-0.3 -0.89,-0.89 -0.89,-1.48 -1.19,-4.73 -2.37,-9.46 -3.55,-14.19 -2.66,-11.53 -15.38,-18.93 -28.39,-16.56 -11.53,2.07 -19.81,10.64 -19.81,20.99 0,17.15 0,34.3 0,51.74 0,0.89 0,2.07 0.3,2.96 2.07,10.65 12.12,18.33 24.25,18.33 4.14,0 8.28,0 12.71,0 0.3,0 0.59,0 0.89,0 0,-3.55 0,-6.8 0,-10.05 -0.3,0 -0.89,0 -1.18,0 -4.14,0 -7.98,0 -12.12,0 -0.89,0 -2.07,0 -3.26,-0.3 -6.21,-1.19 -10.35,-5.91 -10.35,-11.53 0,-11.24 0,-22.18 0,-33.12 0,-5.91 0,-11.83 0,-17.74 0,-6.21 5.02,-10.94 12.12,-11.83 6.5,-0.59 12.42,3.55 13.9,9.46 1.18,4.44 2.37,9.17 3.25,13.9 0.89,2.96 2.37,5.32 5.32,7.39 7.39,5.32 15.08,10.94 22.47,16.26 3.55,2.37 5.02,5.62 5.32,9.46 0,2.07 0,4.14 0,5.91 -0.3,7.1 -5.91,12.12 -13.9,12.12 -3.84,0 -7.98,0 -12.12,0 -0.3,0 -0.59,0 -1.19,0 0,1.48 0,2.66 0,4.14 0.59,0 1.19,0 1.48,0 0.89,0 1.48,0.3 1.48,0.89 0,0.59 -0.59,1.19 -1.48,1.19 -0.3,0 -0.89,0 -1.48,0 0,1.18 0,2.37 0,3.84zm-2.37 0l0 0c0,-3.55 0,-6.8 0,-10.06 -1.18,0 -2.36,0 -3.25,0 0,3.55 0,6.8 0,10.06 0.89,0 2.07,0 3.25,0z"/>
     <path id="_1" class="fil1 str1" d="M24.98 44.5l0.59 0 0 0 0 0.89 0 0.89 0 0.59 0 0.89 0 0.89 0 0.59 0 0.89 0 0.89 0 0.59 0 0.89 0 0.89 0 0.59 0 0.89 0 0.89 0 0.59 0 0.89 0 0.89 0 0.59 0 0.89 0 0.89 0 0.59 0 0.89 0 0.89 0 0.59 0 0.89 0 0.89 0 0.89 0 0.59 0 0.89 0 0.89 0 0.59 0 0.89 -0.59 0 0 -0.89 0 -0.59 0 -0.89 0 -0.89 0 -0.59 0 -0.89 0 -0.89 0 -0.89 0 -0.59 0 -0.89 0 -0.89 0 -0.59 0 -0.89 0 -0.89 0 -0.59 0 -0.89 0 -0.89 0 -0.59 0 -0.89 0 -0.89 0 -0.59 0 -0.89 0 -0.89 0 -0.59 0 -0.89 0 -0.89 0 -0.59 0 -0.89 0 -0.89 0 -0.59 0 -0.89 0 -0.89 0 0zm16.85 -22.18l0.3 0.3 0 0 -0.89 0.3 -0.89 0.59 -0.89 0.3 -0.89 0.3 -0.89 0.59 -0.89 0.59 -0.59 0.3 -0.89 0.59 -0.89 0.59 -0.59 0.59 -0.59 0.59 -0.59 0.59 -0.89 0.59 -0.59 0.89 -0.59 0.59 -0.59 0.59 -0.3 0.89 -0.59 0.59 -0.59 0.89 -0.3 0.59 -0.3 0.89 -0.59 0.89 -0.3 0.89 -0.3 0.59 -0.3 0.89 -0.3 0.89 0 0.89 -0.3 0.89 0 0.89 -0.3 0.89 0 0.89 0 0.89 -0.59 0 0 -0.89 0.3 -0.89 0 -0.89 0 -0.89 0.3 -0.89 0.3 -0.89 0 -0.89 0.3 -0.89 0.3 -0.89 0.59 -0.89 0.3 -0.89 0.3 -0.59 0.59 -0.89 0.3 -0.89 0.59 -0.59 0.59 -0.89 0.59 -0.59 0.59 -0.59 0.59 -0.89 0.59 -0.59 0.59 -0.59 0.89 -0.59 0.59 -0.59 0.89 -0.59 0.59 -0.59 0.89 -0.59 0.89 -0.3 0.89 -0.59 0.89 -0.3 0.89 -0.59 0.89 -0.3 0.89 -0.3 0 0zm36.67 17.44l-0.59 0 0 0 -0.3 -1.18 -0.3 -1.48 -0.59 -1.18 -0.59 -1.18 -0.59 -1.19 -0.89 -1.18 -0.59 -1.19 -0.89 -0.89 -0.89 -0.89 -0.89 -1.19 -1.19 -0.89 -0.89 -0.89 -1.19 -0.59 -1.18 -0.89 -1.18 -0.59 -1.19 -0.59 -1.18 -0.59 -1.48 -0.59 -1.18 -0.3 -1.48 -0.59 -1.19 -0.3 -1.48 0 -1.48 -0.3 -1.48 0 -1.48 -0.3 -1.19 0 -1.48 0.3 -1.48 0 -1.48 0.3 -1.48 0.3 -1.48 0.59 -1.48 0.3 -0.3 -0.3 1.48 -0.59 1.48 -0.3 1.48 -0.3 1.48 -0.3 1.48 -0.3 1.48 0 1.48 0 1.48 0 1.48 0 1.48 0.3 1.48 0.3 1.48 0.3 1.18 0.3 1.48 0.59 1.19 0.3 1.48 0.59 1.19 0.89 1.18 0.59 1.18 0.59 1.19 0.89 0.89 0.89 1.19 0.89 0.89 0.89 0.89 1.19 0.89 1.18 0.89 0.89 0.59 1.18 0.89 1.18 0.59 1.48 0.3 1.18 0.59 1.19 0.3 1.48 0 0 0 0zm3.25 13.01l-0.59 0 0 0 0 -0.3 -0.3 -0.3 0 -0.59 0 -0.3 -0.3 -0.3 0 -0.59 0 -0.3 -0.3 -0.59 0 -0.3 0 -0.3 -0.3 -0.59 0 -0.3 0 -0.3 -0.3 -0.59 0 -0.3 0 -0.59 -0.3 -0.3 0 -0.3 0 -0.59 -0.3 -0.3 0 -0.3 0 -0.59 -0.3 -0.3 0 -0.59 0 -0.3 -0.3 -0.3 0 -0.59 0 -0.3 -0.3 -0.3 0 -0.59 0 -0.3 -0.3 -0.59 0.59 0 0.3 0.3 0 0.59 0 0.3 0 0.59 0.3 0.3 0 0.3 0 0.59 0.3 0.3 0 0.3 0 0.59 0.3 0.3 0 0.59 0 0.3 0.3 0.3 0 0.59 0 0.3 0.3 0.3 0 0.59 0 0.3 0.3 0.59 0 0.3 0 0.3 0.3 0.59 0 0.3 0 0.3 0.3 0.59 0 0.3 0.3 0.59 0 0.3 0 0.3 0.3 0.59 0 0.3 0 0zm0.89 1.48l-0.3 0.3 0 0 0 0 0 0 -0.3 0 0 0 0 -0.3 0 0 0 0 0 0 0 0 -0.3 0 0 0 0 -0.3 0 0 0 0 0 0 0 0 -0.3 -0.3 0 0 0 0 0 0 0 0 0 -0.3 0 0 0 0 0 0 -0.3 0 0 -0.3 0 0 0 0 0 0 0 0 0 -0.3 0.59 0 0 0 0 0 0 0.3 0 0 0 0 0 0 0 0 0 0 0 0.3 0.3 0 0 0 0 0 0 0 0 0 0 0.3 0 0 0 0 0 0 0 0 0.3 0 0 0.3 0 0 0 0 0 0 0 0 0 0 0.3 0 0 0 0 0.3 0 0 0 0 0 0 0 0 0 0zm21.59 15.67l-0.3 0.3 0 0 -0.59 -0.59 -0.59 -0.3 -0.89 -0.59 -0.59 -0.3 -0.59 -0.59 -0.89 -0.59 -0.59 -0.3 -0.59 -0.59 -0.59 -0.59 -0.89 -0.3 -0.59 -0.59 -0.59 -0.59 -0.89 -0.3 -0.59 -0.59 -0.59 -0.59 -0.59 -0.3 -0.89 -0.59 -0.59 -0.59 -0.59 -0.3 -0.89 -0.59 -0.59 -0.59 -0.59 -0.3 -0.59 -0.59 -0.89 -0.59 -0.59 -0.3 -0.59 -0.59 -0.89 -0.3 -0.59 -0.59 -0.59 -0.59 -0.59 -0.3 -0.89 -0.59 -0.59 -0.59 0.3 -0.3 0.59 0.59 0.89 0.3 0.59 0.59 0.59 0.59 0.89 0.3 0.59 0.59 0.59 0.59 0.59 0.3 0.89 0.59 0.59 0.59 0.59 0.3 0.89 0.59 0.59 0.3 0.59 0.59 0.59 0.59 0.89 0.3 0.59 0.59 0.59 0.59 0.89 0.3 0.59 0.59 0.59 0.59 0.59 0.3 0.89 0.59 0.59 0.59 0.59 0.3 0.89 0.59 0.59 0.59 0.59 0.3 0.59 0.59 0.89 0.3 0.59 0.59 0.59 0.59 0 0zm10.64 19.51l-0.59 0 0 0 0 -0.59 0 -0.89 0 -0.59 0 -0.89 0 -0.59 -0.3 -0.59 0 -0.89 -0.3 -0.59 0 -0.59 -0.3 -0.59 -0.3 -0.89 0 -0.59 -0.3 -0.59 -0.3 -0.59 -0.3 -0.59 -0.3 -0.59 -0.3 -0.59 -0.59 -0.59 -0.3 -0.59 -0.3 -0.59 -0.59 -0.59 -0.3 -0.59 -0.59 -0.59 -0.3 -0.3 -0.59 -0.59 -0.59 -0.59 -0.59 -0.59 -0.59 -0.3 -0.59 -0.59 -0.59 -0.59 -0.59 -0.3 -0.59 -0.59 0.3 -0.3 0.89 0.3 0.59 0.59 0.59 0.59 0.59 0.3 0.59 0.59 0.59 0.59 0.3 0.59 0.59 0.59 0.59 0.3 0.3 0.59 0.59 0.59 0.3 0.59 0.59 0.59 0.3 0.59 0.3 0.59 0.3 0.59 0.3 0.59 0.3 0.59 0.3 0.89 0.3 0.59 0.3 0.59 0.3 0.59 0.3 0.89 0 0.59 0.3 0.59 0 0.59 0 0.89 0.3 0.59 0 0.89 0 0.59 0 0.89 0 0.59 0 0 0 0zm-0.3 10.06l-0.59 0 0 0 0 -0.3 0 -0.3 0 -0.3 0.3 -0.3 0 -0.3 0 -0.3 0 -0.59 0 -0.3 0 -0.3 0 -0.3 0 -0.3 0 -0.3 0 -0.3 0 -0.3 0 -0.3 0 -0.3 0 -0.3 0 -0.3 0 -0.3 0 -0.3 0 -0.3 0 -0.3 0 -0.3 0 -0.3 0 -0.3 0 -0.3 0 -0.3 0 -0.59 0 -0.3 0 -0.3 0 -0.3 0 -0.3 0.59 0 0 0.3 0 0.3 0 0.3 0 0.3 0 0.59 0 0.3 0 0.3 0 0.3 0 0.3 0 0.3 0 0.3 0 0.3 0 0.3 0 0.3 0 0.3 0 0.3 0 0.3 0 0.3 0 0.3 0 0.3 0 0.3 0 0.3 0 0.59 0 0.3 0 0.3 0 0.3 0 0.3 -0.3 0.3 0 0.3 0 0.3 0 0.3 0 0.3 0 0zm-23.65 19.81l0 -0.59 0 0 1.18 0 0.89 0 1.18 -0.3 0.89 -0.3 1.18 -0.3 0.89 -0.3 1.19 -0.3 0.89 -0.3 0.89 -0.59 0.89 -0.3 0.89 -0.59 0.89 -0.59 0.89 -0.59 0.89 -0.59 0.89 -0.59 0.89 -0.59 0.59 -0.59 0.89 -0.59 0.59 -0.89 0.59 -0.59 0.59 -0.89 0.59 -0.89 0.59 -0.59 0.59 -0.89 0.59 -0.89 0.3 -0.89 0.59 -0.89 0.3 -0.89 0.3 -0.89 0.3 -0.89 0 -0.89 0.3 -0.89 0.59 0 -0.3 0.89 0 0.89 -0.3 1.18 -0.3 0.89 -0.59 0.89 -0.3 0.89 -0.59 0.89 -0.3 0.89 -0.59 0.89 -0.59 0.59 -0.59 0.89 -0.59 0.89 -0.59 0.59 -0.89 0.89 -0.59 0.59 -0.89 0.59 -0.89 0.89 -0.89 0.59 -0.59 0.59 -0.89 0.59 -1.19 0.3 -0.89 0.59 -0.89 0.59 -0.89 0.3 -1.18 0.3 -0.89 0.59 -1.19 0.3 -0.89 0.3 -1.19 0 -0.89 0.3 -1.18 0.3 -1.19 0 0 0 0 0zm-2.96 0.3l0 -0.59 0 0 0.3 0 0 0 0 0 0.3 0 0 0 0 0 0 0 0.3 0 0 0 0 0 0.3 0 0 0 0 0 0.3 0 0 0 0 0 0.3 0 0 0 0 0 0 0 0.3 0 0 0 0 0 0.3 0 0 0 0 0 0.3 0 0 0 0 0 0.3 -0.3 0 0 0 0 0 0.59 0 0 0 0 -0.3 0 0 0 0 0 -0.3 0 0 0 0 0 0 0 -0.3 0 0 0 0 0 -0.3 0 0 0 0 0 -0.3 0 0 0.3 0 0 -0.3 0 0 0 0 0 -0.3 0 0 0 0 0 0 0 -0.3 0 0 0 0 0 -0.3 0 0 0 0 0 -0.3 0 0 0zm-36.07 0l0 -0.59 0 0 1.19 0 1.18 0 1.19 0 1.18 0 0.89 0 1.19 0 1.18 0 1.19 0 1.18 0 0.89 0 1.19 0 1.18 0 1.19 0 1.18 0 0.89 0 1.19 0 1.18 0 1.18 0 1.19 0 1.18 0 0.89 0 1.18 0 1.18 0 1.19 0 1.18 0 0.89 0 1.18 0 1.18 0 1.19 0 1.18 0 1.19 0 0.89 0 0 0.59 -0.89 0 -1.19 0 -1.18 0 -1.19 0 -1.18 0 -1.18 0 -0.89 0 -1.18 0 -1.19 0 -1.18 0 -1.18 0 -0.89 0 -1.18 0 -1.19 0 -1.18 0 -1.18 0 -1.19 0 -0.89 0 -1.18 0 -1.19 0 -1.18 0 -1.19 0 -0.89 0 -1.18 0 -1.19 0 -1.18 0 -1.19 0 -0.89 0 -1.18 0 -1.19 0 -1.18 0 -1.19 0 0 0zm-25.72 -17.74l0.59 0 0 0 0.3 0.89 0.3 0.89 0.3 0.89 0.59 0.89 0.3 0.89 0.59 0.89 0.59 0.89 0.59 0.59 0.59 0.89 0.59 0.59 0.59 0.89 0.89 0.59 0.59 0.59 0.89 0.89 0.59 0.59 0.89 0.59 0.89 0.59 0.89 0.3 0.89 0.59 0.89 0.59 0.89 0.3 1.18 0.3 0.89 0.59 0.89 0.3 1.19 0.3 0.89 0 1.18 0.3 0.89 0.3 1.18 0 1.18 0.3 0.89 0 1.18 0 0 0.59 -1.18 0 -0.89 -0.3 -1.18 0 -1.18 -0.3 -1.19 0 -0.89 -0.3 -1.18 -0.3 -0.89 -0.3 -1.18 -0.3 -0.89 -0.3 -1.18 -0.59 -0.89 -0.3 -0.89 -0.59 -0.89 -0.3 -0.89 -0.59 -0.89 -0.59 -0.89 -0.59 -0.89 -0.59 -0.59 -0.59 -0.89 -0.89 -0.59 -0.59 -0.89 -0.89 -0.59 -0.59 -0.59 -0.89 -0.59 -0.89 -0.59 -0.59 -0.59 -0.89 -0.3 -0.89 -0.59 -0.89 -0.3 -1.18 -0.3 -0.89 -0.3 -0.89 0 0 0 0zm-1.19 -6.8l0.59 0 0 0 0 0.3 0 0.3 0 0 0 0.3 0 0.3 0 0 0 0.3 0.3 0.3 0 0.3 0 0 0 0.3 0 0.3 0 0 0 0.3 0 0.3 0 0 0 0.3 0 0.3 0 0.3 0.3 0 0 0.3 0 0.3 0 0 0 0.3 0 0.3 0 0 0.3 0.3 0 0.3 0 0.3 0 0 0 0.3 0.3 0.3 -0.59 0 -0.3 -0.3 0 0 0 -0.3 0 -0.3 0 0 0 -0.3 -0.3 -0.3 0 -0.3 0 0 0 -0.3 0 -0.3 0 0 0 -0.3 -0.3 -0.3 0 -0.3 0 0 0 -0.3 0 -0.3 0 0 0 -0.3 0 -0.3 0 -0.3 0 0 0 -0.3 0 -0.3 0 -0.3 0 0 -0.3 -0.3 0 -0.3 0 0 0 -0.3 0 -0.3 0 0zm0 -25.13l0.59 0 0 0 0 0.89 0 0.59 0 0.89 0 0.89 0 0.59 0 0.89 0 0.89 0 0.59 0 0.89 0 0.89 0 0.59 0 0.89 0 0.89 0 0.59 0 0.89 0 0.89 0 0.59 0 0.89 0 0.89 0 0.59 0 0.89 0 0.89 0 0.59 0 0.89 0 0.89 0 0.59 0 0.89 0 0.89 0 0.59 0 0.89 0 0.89 0 0.59 -0.59 0 0 -0.59 0 -0.89 0 -0.89 0 -0.59 0 -0.89 0 -0.89 0 -0.59 0 -0.89 0 -0.89 0 -0.59 0 -0.89 0 -0.89 0 -0.59 0 -0.89 0 -0.89 0 -0.59 0 -0.89 0 -0.89 0 -0.59 0 -0.89 0 -0.89 0 -0.59 0 -0.89 0 -0.89 0 -0.59 0 -0.89 0 -0.89 0 -0.59 0 -0.89 0 -0.89 0 -0.59 0 -0.89 0 0zm63.28 35.19l0 0 0 0 0 0 0 -0.3 0 0.3zm0 0.3l0 0 0 0 0 0zm10.05 -8.28l0.59 0 0 0 0 0.59 -0.3 0.3 0 0.59 -0.3 0.3 0 0.3 -0.3 0.59 0 0.3 -0.3 0.3 -0.3 0.3 -0.3 0.59 -0.3 0.3 -0.3 0.3 -0.3 0.3 -0.3 0.3 -0.3 0.3 -0.3 0.3 -0.3 0.3 -0.59 0.3 -0.3 0 -0.3 0.3 -0.59 0.3 -0.3 0.3 -0.59 0 -0.3 0.3 -0.3 0 -0.59 0.3 -0.59 0 -0.3 0 -0.59 0.3 -0.3 0 -0.59 0 -0.59 0 0 -0.59 0.59 0 0.3 0 0.59 0 0.3 0 0.59 -0.3 0.3 0 0.59 0 0.3 -0.3 0.59 0 0.3 -0.3 0.3 -0.3 0.59 0 0.3 -0.3 0.3 -0.3 0.3 0 0.59 -0.3 0.3 -0.3 0.3 -0.3 0.3 -0.3 0.3 -0.3 0.3 -0.3 0.3 -0.3 0 -0.3 0.3 -0.59 0.3 -0.3 0.3 -0.3 0 -0.3 0.3 -0.59 0 -0.3 0 -0.3 0.3 -0.59 0 -0.3 0 0zm0.3 -7.98l0.59 0 0 0 0 0.3 0 0.3 0 0.3 0 0.3 0 0.3 0 0 0 0.3 0 0.3 0 0.3 0 0.3 0 0.3 0 0 0 0.3 0 0.3 0 0.3 0 0.3 0 0.3 0 0.3 0 0 0 0.3 0 0.3 0 0.3 -0.3 0.3 0 0.3 0 0 0 0.3 0 0.3 0 0.3 0 0.3 0 0.3 0 0 0 0.3 -0.59 0 0 -0.3 0 -0.3 0 0 0 -0.3 0 -0.3 0 -0.3 0.3 -0.3 0 -0.3 0 0 0 -0.3 0 -0.3 0 -0.3 0 -0.3 0 0 0 -0.3 0 -0.3 0 -0.3 0 -0.3 0 -0.3 0 -0.3 0 0 0 -0.3 0 -0.3 0 -0.3 0 -0.3 0 -0.3 0 0 0 -0.3 0 -0.3 0 -0.3 0 -0.3 0 -0.3 0 0zm-4.44 -7.69l0.59 -0.3 0 0 0.3 0 0 0.3 0.3 0.3 0.3 0 0.3 0.3 0.3 0.3 0 0.3 0.3 0 0.3 0.3 0.3 0.3 0 0.3 0.3 0.3 0 0 0.3 0.3 0 0.3 0.3 0.3 0 0.3 0.3 0.3 0 0.3 0.3 0 0 0.3 0 0.3 0.3 0.3 0 0.3 0 0.3 0 0.3 0 0.3 0 0.3 0.3 0.3 0 0.3 0 0.3 0 0.3 -0.59 0 0 -0.3 0 -0.3 0 -0.3 0 -0.3 -0.3 -0.3 0 -0.3 0 0 0 -0.3 0 -0.3 -0.3 -0.3 0 -0.3 0 -0.3 -0.3 -0.3 0 -0.3 0 -0.3 -0.3 0 0 -0.3 -0.3 -0.3 0 -0.3 -0.3 -0.3 0 0 -0.3 -0.3 -0.3 -0.3 0 -0.3 -0.3 0 -0.3 -0.3 0 -0.3 -0.3 0 -0.3 -0.3 -0.3 -0.3 -0.3 -0.3 -0.3 0 0 0zm-23.06 -16.85l0.3 -0.3 0 0 0.59 0.3 0.89 0.59 0.59 0.59 0.89 0.59 0.59 0.59 0.89 0.3 0.59 0.59 0.59 0.59 0.89 0.59 0.59 0.3 0.89 0.59 0.59 0.59 0.89 0.59 0.59 0.59 0.89 0.3 0.59 0.59 0.89 0.59 0.59 0.59 0.89 0.3 0.59 0.59 0.59 0.59 0.89 0.59 0.59 0.59 0.89 0.3 0.59 0.59 0.89 0.59 0.59 0.59 0.89 0.3 0.59 0.59 0.89 0.59 0.59 0.59 0.89 0.59 -0.59 0.3 -0.59 -0.59 -0.89 -0.59 -0.59 -0.3 -0.59 -0.59 -0.89 -0.59 -0.59 -0.59 -0.89 -0.59 -0.59 -0.3 -0.89 -0.59 -0.59 -0.59 -0.89 -0.59 -0.59 -0.3 -0.89 -0.59 -0.59 -0.59 -0.89 -0.59 -0.59 -0.59 -0.89 -0.3 -0.59 -0.59 -0.59 -0.59 -0.89 -0.59 -0.59 -0.59 -0.89 -0.3 -0.59 -0.59 -0.89 -0.59 -0.59 -0.59 -0.89 -0.3 -0.59 -0.59 -0.89 -0.59 -0.59 -0.59 -0.89 -0.59 -0.59 -0.3 -0.59 -0.59 0 0 0 0zm-5.03 -7.1l0.59 -0.3 0 0 0 0.3 0 0.3 0 0.3 0.3 0.3 0 0.3 0 0.3 0.3 0 0 0.3 0 0.3 0.3 0.3 0 0.3 0 0 0.3 0.3 0 0.3 0.3 0.3 0 0 0.3 0.3 0 0.3 0.3 0 0 0.3 0.3 0.3 0.3 0 0 0.3 0.3 0.3 0.3 0 0 0.3 0.3 0.3 0.3 0 0 0.3 0.3 0 0.3 0.3 0.3 0.3 -0.3 0.3 -0.3 -0.3 -0.3 0 -0.3 -0.3 -0.3 -0.3 0 0 -0.3 -0.3 -0.3 0 0 -0.3 -0.3 -0.3 -0.3 -0.3 0 0 -0.3 -0.3 -0.3 -0.3 0 0 -0.3 -0.3 0 -0.3 -0.3 -0.3 0 0 -0.3 -0.3 0 -0.3 -0.3 -0.3 0 -0.3 0 0 -0.3 -0.3 0 -0.3 -0.3 -0.3 0 -0.3 0 -0.3 0 -0.3 -0.3 0 0 -0.3 0 -0.3 0 0 -0 0zm-3.84 -15.08l0.59 -0.3 0 0 0.3 0.59 0 0.59 0 0.3 0.3 0.59 0 0.3 0.3 0.59 0 0.59 0 0.3 0.3 0.59 0 0.3 0 0.59 0.3 0.3 0 0.59 0.3 0.59 0 0.3 0 0.59 0.3 0.3 0 0.59 0.3 0.59 0 0.3 0 0.59 0.3 0.3 0 0.59 0.3 0.59 0 0.3 0 0.59 0.3 0.3 0 0.59 0 0.59 0.3 0.3 0 0.59 0.3 0.3 -0.59 0.3 -0.3 -0.59 0 -0.3 0 -0.59 -0.3 -0.59 0 -0.3 -0.3 -0.59 0 -0.3 0 -0.59 -0.3 -0.59 0 -0.3 0 -0.59 -0.3 -0.3 0 -0.59 -0.3 -0.59 0 -0.3 0 -0.59 -0.3 -0.3 0 -0.59 -0.3 -0.59 0 -0.3 0 -0.59 -0.3 -0.3 0 -0.59 -0.3 -0.59 0 -0.3 0 -0.59 -0.3 -0.3 0 -0.59 0 -0.59 -0.3 -0.3 0 -0.59 -0.3 -0.3 0 0zm-3.55 -5.32l0.3 -0.3 0 0 0.3 0 0 0.3 0.3 0 0.3 0.3 0 0 0.3 0 0 0.3 0.3 0.3 0 0 0.3 0.3 0 0 0.3 0.3 0 0 0.3 0.3 0 0 0.3 0.3 0 0.3 0 0 0.3 0.3 0 0 0 0.3 0.3 0.3 0 0 0 0.3 0.3 0.3 0 0 0 0.3 0 0.3 0.3 0 0 0.3 0 0.3 0 0 -0.59 0.3 0 -0.3 0 -0.3 0 0 0 -0.3 -0.3 -0.3 0 0 0 -0.3 0 0 -0.3 -0.3 0 -0.3 0 0 -0.3 -0.3 0 0 0 -0.3 -0.3 -0.3 0 0 0 -0.3 -0.3 0 0 -0.3 -0.3 0 0 -0.3 -0.3 0 0 -0.3 -0.3 0 0 -0.3 -0.3 0 0 -0.3 -0.3 0 0 -0.3 -0.3 0 0 -0.3 -0.3 0 0 0 0 0zm-11.24 -1.18l0 -0.3 0 0 0.3 -0.3 0.3 0 0.59 -0.3 0.3 0 0.3 -0.3 0.3 0 0.59 0 0.3 0 0.3 -0.3 0.3 0 0.59 0 0.3 0 0.3 0 0.59 0 0.3 0 0.3 0 0.3 0 0.3 0.3 0.59 0 0.3 0 0.3 0 0.3 0.3 0.59 0 0.3 0.3 0.3 0 0.3 0.3 0.3 0 0.3 0.3 0.59 0 0.3 0.3 0.3 0.3 0.3 0.3 -0.3 0.3 -0.3 -0.3 -0.3 0 -0.3 -0.3 -0.3 -0.3 -0.59 0 -0.3 -0.3 -0.3 0 -0.3 -0.3 -0.3 0 -0.3 -0.3 -0.3 0 -0.59 0 -0.3 0 -0.3 -0.3 -0.3 0 -0.3 0 -0.3 0 -0.59 0 -0.3 0 -0.3 0 -0.3 0 -0.3 0 -0.59 0 -0.3 0 -0.3 0 -0.3 0.3 -0.3 0 -0.59 0 -0.3 0.3 -0.3 0 -0.3 0.3 -0.59 0 0 0 0 0zm-5.91 8.57l-0.59 0 0 0 0 -0.3 0 -0.3 0 -0.3 0 -0.59 0.3 -0.3 0 -0.3 0 -0.3 0 -0.59 0.3 -0.3 0 -0.3 0.3 -0.3 0 -0.3 0.3 -0.3 0 -0.3 0.3 -0.3 0 -0.3 0.3 -0.3 0.3 -0.3 0.3 -0.3 0 -0.3 0.3 -0.3 0.3 0 0.3 -0.3 0.3 -0.3 0.3 -0.3 0.3 -0.3 0.3 0 0.59 -0.3 0.3 -0.3 0.3 0 0.3 -0.3 0.59 0 0 0.3 -0.3 0.3 -0.3 0 -0.3 0.3 -0.3 0 -0.3 0.3 -0.59 0.3 -0.3 0 -0.3 0.3 0 0.3 -0.3 0.3 -0.3 0 -0.3 0.3 -0.3 0.3 -0.3 0.3 0 0.3 -0.3 0.3 -0.3 0.3 0 0.3 -0.3 0.3 0 0.3 -0.3 0.3 0 0.3 0 0.3 -0.3 0.3 0 0.3 0 0.3 -0.3 0.3 0 0.3 0 0.59 0 0.3 0 0.3 0 0.3 0 0 0 0zm0 50.86l-0.59 0 0 0 0 -1.48 0 -1.78 0 -1.48 0 -1.78 0 -1.48 0 -1.48 0 -1.77 0 -1.48 0 -1.48 0 -1.78 0 -1.48 0 -1.48 0 -1.77 0 -1.48 0 -1.48 0 -1.78 0 -1.48 0 -1.78 0 -1.48 0 -1.48 0 -1.78 0 -1.48 0 -1.48 0 -1.77 0 -1.48 0 -1.48 0 -1.78 0 -1.48 0 -1.78 0 -1.48 0 -1.48 0 -1.78 0.59 0 0 1.78 0 1.48 0 1.48 0 1.78 0 1.48 0 1.78 0 1.48 0 1.48 0 1.77 0 1.48 0 1.48 0 1.78 0 1.48 0 1.48 0 1.78 0 1.48 0 1.78 0 1.48 0 1.48 0 1.77 0 1.48 0 1.48 0 1.78 0 1.48 0 1.48 0 1.77 0 1.48 0 1.48 0 1.78 0 1.48 0 1.78 0 1.48 0 0zm10.65 9.46l0 0.59 0 0 -0.59 0 -0.59 0 -0.59 0 -0.59 -0.3 -0.3 0 -0.59 0 -0.59 -0.3 -0.59 -0.3 -0.59 0 -0.3 -0.3 -0.59 -0.3 -0.3 -0.3 -0.59 -0.3 -0.3 -0.3 -0.59 -0.3 -0.3 -0.3 -0.3 -0.3 -0.59 -0.3 -0.3 -0.3 -0.3 -0.59 -0.3 -0.3 -0.3 -0.3 0 -0.59 -0.3 -0.3 -0.3 -0.59 0 -0.59 -0.3 -0.3 0 -0.59 -0.3 -0.59 0 -0.3 0 -0.59 0 -0.59 0.59 0 0 0.59 0 0.3 0 0.59 0.3 0.59 0 0.3 0 0.59 0.3 0.3 0.3 0.59 0 0.3 0.3 0.59 0.3 0.3 0.3 0.3 0.3 0.59 0.3 0.3 0.3 0.3 0.3 0.3 0.59 0.3 0.3 0.3 0.3 0.3 0.59 0.3 0.3 0.3 0.59 0.3 0.3 0 0.59 0.3 0.3 0 0.59 0.3 0.59 0 0.59 0.3 0.59 0 0.59 0 0.3 0 0.59 0 0 0 0 0zm18.33 0l0 0.59 0 0 -0.59 0 -0.3 0 -0.59 0 -0.59 0 -0.59 0 -0.59 0 -0.59 0 -0.59 0 -0.59 0 -0.59 0 -0.59 0 -0.59 0 -0.59 0 -0.59 0 -0.59 0 -0.59 0 -0.59 0 -0.3 0 -0.59 0 -0.59 0 -0.59 0 -0.59 0 -0.59 0 -0.59 0 -0.59 0 -0.59 0 -0.59 0 -0.59 0 -0.59 0 -0.59 0 -0.59 0 -0.59 0 0 -0.59 0.59 0 0.59 0 0.59 0 0.59 0 0.59 0 0.59 0 0.59 0 0.59 0 0.59 0 0.59 0 0.59 0 0.59 0 0.59 0 0.59 0 0.3 0 0.59 0 0.59 0 0.59 0 0.59 0 0.59 0 0.59 0 0.59 0 0.59 0 0.59 0 0.59 0 0.59 0 0.59 0 0.59 0 0.59 0 0.59 0 0.3 0 0.59 0 0 0zm0 0.59l0 0 0 0 0 0zm1.18 -0.59l0 0.59 0 0 0 0 0 0 0 0 0 0 0 0 -0.3 0 0 0 0 0 0 0 0 0 0 0 0 0 0 0 -0.3 0 0 0 0 0 0 0 0 0 0 0 0 0 0 0 0 0 -0.3 0 0 0 0 0 0 0 0 0 0 0 0 0 0 0 -0.3 0 0 0 0 -0.59 0 0 0.3 0 0 0 0 0 0 0 0 0 0 0 0 0 0 0 0 0 0.3 0 0 0 0 0 0 0 0 0 0 0 0 0 0 0 0 0 0.3 0 0 0 0 0 0 0 0 0 0 0 0 0 0.3 0 0 0 0 0 0 0 0 0 0 0 0 0zm0 0l0 0 0 0 0 0zm16.56 0.59l-16.56 0 0 -0.59 16.56 0 0 0.59 0 0zm0 0l0 0 0 0 0 0zm-14.19 11.83l0 0 0 0 0 0 0 -0.3 0 0.3zm0 0.3l-0.3 0 0 -0.3 0.3 0.3zm7.69 -0.59l0 0.59 0 0 -0.3 0 -0.3 0 -0.3 0 0 0 -0.3 0 -0.3 0 -0.3 0 0 0 -0.3 0 -0.3 0 -0.3 0 -0.3 0 0 0 -0.3 0 -0.3 0 -0.3 0 -0.3 0 0 0 -0.3 0 -0.3 0 -0.3 0 -0.3 0 0 0 -0.3 0 -0.3 0 -0.3 0 -0.3 0 0 0 -0.3 0 -0.3 0 -0.3 0 -0.3 0 0 -0.59 0.3 0 0.3 0 0.3 0 0.3 0 0 0 0.3 0 0.3 0 0.3 0 0.3 0 0 0 0.3 0 0.3 0 0.3 0 0.3 0 0 0 0.3 0 0.3 0 0.3 0 0.3 0 0 0 0.3 0 0.3 0 0.3 0 0.3 0 0 0 0.3 0 0.3 0 0.3 0 0 0 0.3 0 0.3 0 0.3 0 0 0zm10.05 -0.3l0 0.59 0 0 -0.3 0 -0.3 0 -0.3 0 -0.3 0 -0.59 0 -0.3 0 -0.3 0 -0.3 0 -0.3 0 -0.3 0 -0.3 0 -0.3 0 -0.3 0.3 -0.3 0 -0.3 0 -0.3 0 -0.3 0 -0.3 0 -0.3 0 -0.3 0 -0.59 0 -0.3 0 -0.3 0 -0.3 0 -0.3 0 -0.3 0 -0.3 0 -0.3 0 -0.3 0 -0.3 0 -0.3 0 -0.3 0 0 -0.59 0.3 0 0.3 0 0.3 0 0.3 0 0.3 0 0.3 0 0.3 0 0.3 0 0.3 0 0.3 0 0.3 0 0.59 0 0.3 0 0.3 0 0.3 0 0.3 0 0.3 0 0.3 0 0.3 0 0.3 0 0.3 0 0.3 0 0.3 0 0.3 0 0.3 0 0.3 0 0.3 -0.3 0.3 0 0.3 0 0.3 0 0.59 0 0.3 0 0 0zm20.11 -18.04l0.59 0 0 0 -0.3 0.89 0 0.89 -0.3 0.59 -0.3 0.89 -0.3 0.89 -0.3 0.89 -0.3 0.89 -0.59 0.59 -0.3 0.89 -0.59 0.59 -0.59 0.89 -0.59 0.59 -0.59 0.89 -0.59 0.59 -0.59 0.59 -0.59 0.89 -0.89 0.59 -0.59 0.59 -0.89 0.59 -0.59 0.3 -0.89 0.59 -0.89 0.59 -0.89 0.3 -0.89 0.59 -0.89 0.3 -0.89 0.3 -0.89 0.3 -0.89 0.3 -0.89 0.3 -1.19 0.3 -0.89 0 -0.89 0.3 0 -0.59 0.89 0 0.89 -0.3 0.89 -0.3 0.89 0 0.89 -0.3 0.89 -0.3 0.89 -0.59 0.89 -0.3 0.89 -0.3 0.89 -0.59 0.89 -0.3 0.59 -0.59 0.89 -0.59 0.89 -0.59 0.59 -0.59 0.59 -0.59 0.89 -0.59 0.59 -0.59 0.59 -0.59 0.59 -0.89 0.59 -0.59 0.3 -0.59 0.59 -0.89 0.3 -0.59 0.59 -0.89 0.3 -0.89 0.3 -0.59 0.3 -0.89 0.3 -0.89 0.3 -0.89 0 -0.89 0.3 -0.59 0 0 0 0zm0 -10.06l0.59 0 0 0 0 0.3 0 0.3 0 0.3 0 0.3 0 0.3 0 0.3 0 0.3 0 0.3 0 0.3 0 0.3 0 0.3 0 0.3 0 0.3 0 0.59 0 0.3 0 0.3 0 0.3 0 0.3 0 0.3 0 0.3 0 0.3 0 0.3 0 0.3 0 0.3 0 0.3 0 0.3 0 0.3 0 0.3 0 0.59 0 0.3 0 0.3 0 0.3 -0.59 0 0 -0.59 0 -0.3 0 -0.3 0 -0.3 0 -0.3 0 -0.3 0 -0.3 0 -0.3 0 -0.3 0 -0.3 0 -0.3 0 -0.3 0.3 -0.3 0 -0.3 0 -0.3 0 -0.3 0 -0.3 0 -0.3 0 -0.59 0 -0.3 0 -0.3 0 -0.3 0 -0.3 0 -0.3 0 -0.3 0 -0.3 0 -0.3 0 -0.3 -0.3 -0.3 0 -0.3 0 -0.3 0 -0.3 0 0zm-8.28 -15.97l0.3 -0.3 0 0 0.59 0.3 0.3 0.59 0.59 0.3 0.59 0.59 0.3 0.3 0.59 0.3 0.3 0.59 0.59 0.3 0.3 0.59 0.3 0.59 0.3 0.3 0.59 0.59 0.3 0.3 0.3 0.59 0.3 0.59 0.3 0.3 0.3 0.59 0 0.59 0.3 0.59 0.3 0.3 0.3 0.59 0 0.59 0.3 0.59 0 0.59 0.3 0.59 0 0.59 0 0.59 0.3 0.59 0 0.59 0 0.59 0 0.59 0 0.59 -0.59 0 0 -0.59 0 -0.59 0 -0.59 0 -0.59 0 -0.59 -0.3 -0.59 0 -0.59 -0.3 -0.59 0 -0.59 -0.3 -0.3 0 -0.59 -0.3 -0.59 -0.3 -0.59 0 -0.59 -0.3 -0.3 -0.3 -0.59 -0.3 -0.59 -0.3 -0.3 -0.3 -0.59 -0.3 -0.3 -0.3 -0.59 -0.3 -0.59 -0.59 -0.3 -0.3 -0.59 -0.3 -0.3 -0.59 -0.3 -0.3 -0.59 -0.59 -0.3 -0.3 -0.59 -0.59 -0.3 -0.3 -0.3 -0.59 -0.59 0 0 0 -0zm-23.36 -16.85l0.3 -0.3 0 0 0.59 0.3 0.89 0.59 0.59 0.59 0.89 0.59 0.59 0.59 0.89 0.3 0.59 0.59 0.89 0.59 0.59 0.59 0.89 0.59 0.59 0.3 0.89 0.59 0.59 0.59 0.89 0.59 0.59 0.3 0.89 0.59 0.59 0.59 0.89 0.59 0.59 0.59 0.59 0.3 0.89 0.59 0.59 0.59 0.89 0.59 0.59 0.59 0.89 0.3 0.59 0.59 0.89 0.59 0.59 0.59 0.89 0.59 0.59 0.3 0.89 0.59 0.59 0.59 -0.3 0.3 -0.89 -0.59 -0.59 -0.3 -0.89 -0.59 -0.59 -0.59 -0.59 -0.59 -0.89 -0.59 -0.59 -0.3 -0.89 -0.59 -0.59 -0.59 -0.89 -0.59 -0.59 -0.59 -0.89 -0.3 -0.59 -0.59 -0.89 -0.59 -0.59 -0.59 -0.89 -0.3 -0.59 -0.59 -0.89 -0.59 -0.59 -0.59 -0.89 -0.59 -0.59 -0.3 -0.59 -0.59 -0.89 -0.59 -0.59 -0.59 -0.89 -0.59 -0.59 -0.3 -0.89 -0.59 -0.59 -0.59 -0.89 -0.59 -0.59 -0.3 -0.89 -0.59 -0.59 -0.59 0 0zm0 0l0 0 0 0 0 0zm-1.18 -1.78l0.59 0 0 0 0 0 0 0 0 0.3 0 0 0 0 0 0 0 0 0 0 0 0 0.3 0.3 0 0 0 0 0 0 0 0 0 0 0 0.3 0 0 0 0 0 0 0.3 0 0 0 0 0 0 0.3 0 0 0 0 0 0 0 0 0 0 0.3 0 0 0 0 0.3 0 0 -0.3 0.3 0 0 -0.3 0 0 0 0 -0.3 0 0 0 0 0 0 0 0 -0.3 0 0 -0.3 0 0 0 0 0 0 0 0 0 0 -0.3 -0.3 0 0 0 0 0 0 0 0 0 0 0 -0.3 0 0 0 0 0 0 -0.3 0 0 -0.3 0 0 0 0 0 0 0 0 0 -0.3 0 0 0 0zm-3.55 -13.9l0.59 -0.3 0 0 0.3 0.59 0 0.3 0 0.59 0.3 0.3 0 0.59 0 0.3 0.3 0.59 0 0.3 0 0.59 0.3 0.3 0 0.59 0.3 0.3 0 0.59 0 0.3 0.3 0.59 0 0.3 0 0.59 0.3 0.3 0 0.59 0 0.3 0.3 0.59 0 0.3 0.3 0.59 0 0.3 0 0.59 0.3 0.3 0 0.59 0 0.3 0.3 0.59 0 0.3 0.3 0.59 0 0.3 -0.59 0 0 -0.3 -0.3 -0.59 0 -0.3 0 -0.59 -0.3 -0.3 0 -0.59 -0.3 -0.3 0 -0.59 0 -0.3 -0.3 -0.59 0 -0.3 0 -0.3 -0.3 -0.59 0 -0.3 0 -0.59 -0.3 -0.3 0 -0.59 -0.3 -0.3 0 -0.59 0 -0.3 -0.3 -0.59 0 -0.3 0 -0.59 -0.3 -0.3 0 -0.59 0 -0.3 -0.3 -0.59 0 -0.3 -0.3 -0.59 0 -0.3 0 -0.59 -0.3 -0.3 0 0 0 -0zm-28.09 -16.56l0 -0.59 0 0 1.18 -0.3 1.19 0 1.18 0 1.19 0 1.18 0 1.18 0 1.19 0.3 1.18 0 1.18 0.3 1.19 0.3 1.18 0.3 0.89 0.3 1.18 0.59 1.18 0.3 0.89 0.59 0.89 0.59 1.19 0.59 0.89 0.59 0.89 0.59 0.89 0.89 0.89 0.59 0.59 0.89 0.89 0.89 0.59 0.89 0.59 0.89 0.59 0.89 0.59 0.89 0.59 0.89 0.59 1.18 0.3 0.89 0.3 1.18 0.3 0.89 -0.59 0.3 -0.3 -1.18 -0.3 -0.89 -0.3 -1.19 -0.59 -0.89 -0.3 -0.89 -0.59 -1.19 -0.59 -0.89 -0.59 -0.59 -0.89 -0.89 -0.59 -0.89 -0.89 -0.89 -0.89 -0.59 -0.59 -0.59 -0.89 -0.89 -0.89 -0.59 -1.19 -0.59 -0.89 -0.59 -0.89 -0.3 -1.18 -0.59 -0.89 -0.3 -1.19 -0.3 -1.18 -0.59 -0.89 0 -1.18 -0.3 -1.18 -0.3 -1.19 0 -1.18 -0.3 -1.18 0 -1.19 0 -1.18 0.3 -1.19 0 -1.18 0.3 0 0 0 0zm-19.52 20.7l-0.59 0 0 0 0 -0.89 0.3 -1.18 0 -0.89 0.3 -0.89 0 -0.89 0.3 -0.89 0.3 -0.89 0.3 -0.89 0.59 -0.89 0.3 -0.89 0.59 -0.89 0.3 -0.89 0.59 -0.59 0.59 -0.89 0.59 -0.59 0.59 -0.89 0.89 -0.59 0.59 -0.59 0.89 -0.59 0.59 -0.89 0.89 -0.59 0.89 -0.3 0.89 -0.59 0.89 -0.59 0.89 -0.3 0.89 -0.59 0.89 -0.3 0.89 -0.3 1.18 -0.3 0.89 -0.3 1.19 -0.3 1.18 -0.3 0 0.59 -1.18 0 -0.89 0.3 -0.89 0.3 -1.18 0.3 -0.89 0.3 -0.89 0.59 -0.89 0.3 -0.89 0.59 -0.89 0.3 -0.89 0.59 -0.89 0.59 -0.89 0.59 -0.59 0.59 -0.89 0.59 -0.59 0.59 -0.59 0.59 -0.59 0.89 -0.59 0.59 -0.59 0.89 -0.59 0.59 -0.59 0.89 -0.3 0.89 -0.59 0.59 -0.3 0.89 -0.3 0.89 -0.3 0.89 -0.3 0.89 -0.3 0.89 0 0.89 -0.3 0.89 0 1.18 0 0.89 0 0 0 0zm0 51.74l-0.59 0 0 0 0 -1.78 0 -1.48 0 -1.77 0 -1.48 0 -1.77 0 -1.48 0 -1.78 0 -1.48 0 -1.78 0 -1.48 0 -1.48 0 -1.77 0 -1.48 0 -1.77 0 -1.48 0 -1.78 0 -1.48 0 -1.78 0 -1.48 0 -1.78 0 -1.48 0 -1.78 0 -1.48 0 -1.78 0 -1.48 0 -1.48 0 -1.78 0 -1.48 0 -1.78 0 -1.48 0 -1.78 0 -1.48 0.59 0 0 1.48 0 1.78 0 1.48 0 1.78 0 1.48 0 1.78 0 1.48 0 1.48 0 1.78 0 1.48 0 1.78 0 1.48 0 1.78 0 1.48 0 1.78 0 1.48 0 1.78 0 1.48 0 1.77 0 1.48 0 1.77 0 1.48 0 1.48 0 1.78 0 1.48 0 1.78 0 1.48 0 1.77 0 1.48 0 1.77 0 1.48 0 1.78 0 0zm0.3 2.96l-0.59 0 0 0 0 0 0 0 0 -0.3 0 0 0 0 0 -0.3 0 0 0 0 0 -0.3 0 0 0 0 0 -0.3 0 0 0 0 0 -0.3 -0.3 0 0 0 0 -0.3 0 0 0 0 0 -0.3 0 0 0 0 0 -0.3 0 0 0 0 0 -0.3 0 0 0 0 0 -0.3 0 0 0 0 0.59 0 0 0 0 0 0 0.3 0 0 0 0 0 0.3 0 0 0 0 0 0.3 0 0 0 0 0 0.3 0 0 0 0 0 0.3 0 0 0 0 0 0.3 0 0 0 0 0.3 0.3 0 0 0 0 0 0.3 0 0 0 0 0 0.3 0 0 0 0 0 0.3 0 0 0 0 0 0zm23.95 18.04l0 0.59 0 0 -1.19 0 -1.18 -0.3 -1.19 0 -1.18 -0.3 -0.89 0 -1.19 -0.3 -0.89 -0.3 -1.19 -0.3 -0.89 -0.3 -0.89 -0.59 -1.19 -0.3 -0.89 -0.59 -0.89 -0.3 -0.89 -0.59 -0.89 -0.59 -0.89 -0.59 -0.59 -0.59 -0.89 -0.59 -0.59 -0.89 -0.89 -0.59 -0.59 -0.89 -0.59 -0.59 -0.59 -0.89 -0.59 -0.89 -0.59 -0.59 -0.3 -0.89 -0.59 -0.89 -0.3 -0.89 -0.3 -1.18 -0.3 -0.89 -0.3 -0.89 -0.3 -1.18 0.59 0 0.3 0.89 0.3 1.18 0.3 0.89 0.3 0.89 0.3 0.89 0.3 0.89 0.59 0.89 0.59 0.89 0.59 0.59 0.59 0.89 0.59 0.59 0.59 0.89 0.59 0.59 0.89 0.89 0.59 0.59 0.89 0.59 0.59 0.59 0.89 0.59 0.89 0.3 0.89 0.59 0.89 0.3 0.89 0.59 1.18 0.3 0.89 0.3 0.89 0.3 1.18 0.3 0.89 0.3 1.18 0.3 0.89 0 1.18 0.3 1.18 0 1.19 0 0 0 0 0zm12.71 0l0 0.59 0 0 -0.59 0 -0.3 0 -0.3 0 -0.59 0 -0.3 0 -0.3 0 -0.59 0 -0.3 0 -0.3 0 -0.59 0 -0.3 0 -0.3 0 -0.59 0 -0.3 0 -0.59 0 -0.3 0 -0.3 0 -0.59 0 -0.3 0 -0.3 0 -0.59 0 -0.3 0 -0.3 0 -0.59 0 -0.3 0 -0.3 0 -0.59 0 -0.3 0 -0.3 0 -0.59 0 -0.3 0 -0.3 0 0 -0.59 0.3 0 0.3 0 0.59 0 0.3 0 0.3 0 0.59 0 0.3 0 0.3 0 0.59 0 0.3 0 0.3 0 0.59 0 0.3 0 0.3 0 0.59 0 0.3 0 0.3 0 0.59 0 0.3 0 0.59 0 0.3 0 0.3 0 0.59 0 0.3 0 0.3 0 0.59 0 0.3 0 0.3 0 0.59 0 0.3 0 0.3 0 0.59 0 0 0zm0.59 0.3l0.59 0 -0.3 0.3 0 0 0 0 0 0 0 0 0 0 0 0 -0.3 0 0 0 0 0 0 0 0 0 0 0 0 0 0 0 0 0 -0.3 0 0 0 0 0 0 0 0 0 0 0 0 0 0 0 0 0 -0.3 0 0 0 0 0 0 0 0 0 0 0 0 0 0 0 0 -0.59 0 0 0 0 0 0 0 0 0 0 0 0 0 0 0.3 0 0 0 0 0 0 0 0 0 0 0 0 0 0 0 0 0 0.3 0 0 0 0 0 0 0 0 0 0 0 0 0 0 0 0 0 0.3 0 0 0 0 0 0 0 0 0 0 0 0 0 -0.3 0.3 0 0zm0.59 0l0 0.3 -0.3 0 0.3 -0.3zm-0.3 -9.76l0 -0.59 0.3 0.3 0 0.3 0 0.3 0 0.3 0 0.3 0 0.3 0 0.59 0 0.3 0 0.3 0 0.3 0 0.3 0 0.3 0 0.3 0 0.3 0 0.3 0 0.3 0 0.3 0 0.3 0 0.3 0 0.3 0 0.3 0 0.3 0 0.3 0 0.3 0 0.3 0 0.3 0 0.3 0 0.59 0 0.3 0 0.3 0 0.3 0 0.3 0 0.3 -0.59 0 0 -0.3 0 -0.3 0 -0.3 0 -0.3 0 -0.3 0 -0.59 0 -0.3 0 -0.3 0 -0.3 0 -0.3 0 -0.3 0 -0.3 0 -0.3 0 -0.3 0 -0.3 0 -0.3 0 -0.3 0 -0.3 0 -0.3 0 -0.3 0 -0.3 0 -0.3 0 -0.3 0 -0.3 0 -0.3 0 -0.3 0 -0.59 0 -0.3 0 -0.3 0 -0.3 0 -0.3 0 -0.3 0.3 0.3 0 0zm0 -0.59l0.3 0 0 0.3 -0.3 -0.3zm-1.18 0.59l0 -0.59 0 0 0 0 0 0 0 0 0 0 0.3 0 0 0 0 0 0 0 0 0 0 0 0 0 0 0 0.3 0 0 0 0 0 0 0 0 0 0 0 0 0 0.3 0 0 0 0 0 0 0 0 0 0 0 0 0 0 0 0.3 0 0 0 0 0 0 0 0 0 0 0.59 0 0 0 0 0 0 0 0 -0.3 0 0 0 0 0 0 0 0 0 0 0 0 0 0 0 -0.3 0 0 0 0 0 0 0 0 0 0 0 0 0 -0.3 0 0 0 0 0 0 0 0 0 0 0 0 0 0 0 -0.3 0 0 0 0 0 0 0 0 0 0 0zm-12.12 0l0 -0.59 0 0 0.59 0 0.3 0 0.3 0 0.3 0 0.59 0 0.3 0 0.3 0 0.59 0 0.3 0 0.3 0 0.3 0 0.59 0 0.3 0 0.3 0 0.3 0 0.59 0 0.3 0 0.3 0 0.3 0 0.59 0 0.3 0 0.3 0 0.59 0 0.3 0 0.3 0 0.3 0 0.59 0 0.3 0 0.3 0 0.3 0 0.59 0 0.3 0 0 0.59 -0.3 0 -0.59 0 -0.3 0 -0.3 0 -0.3 0 -0.59 0 -0.3 0 -0.3 0 -0.3 0 -0.59 0 -0.3 0 -0.3 0 -0.59 0 -0.3 0 -0.3 0 -0.3 0 -0.59 0 -0.3 0 -0.3 0 -0.3 0 -0.59 0 -0.3 0 -0.3 0 -0.3 0 -0.59 0 -0.3 0 -0.3 0 -0.59 0 -0.3 0 -0.3 0 -0.3 0 -0.59 0 0 0zm-3.25 -0.3l0.3 -0.59 0 0 0 0.3 0 0 0.3 0 0 0 0 0 0.3 0 0 0 0 0 0.3 0 0 0 0 0 0.3 0 0 0 0 0 0.3 0 0 0 0 0 0.3 0 0 0 0 0 0.3 0 0 0 0 0 0.3 0 0 0 0 0 0.3 0 0 0 0 0 0.3 0 0 0 0 0 0 0.59 0 0 0 0 -0.3 0 0 0 0 0 -0.3 0 0 0 0 0 -0.3 0 0 0 0 0 -0.3 0 0 0 -0.3 0 0 0 0 0 -0.3 0 0 0 0 0 -0.3 0 0 0 0 0 -0.3 0 0 0 0 -0.3 -0.3 0 0 0 0 0 -0.3 0 0 0 0 0 -0.3 0 0 0zm-10.65 -11.82l0.59 0 0 0 0 0.3 0 0.59 0 0.59 0.3 0.59 0 0.3 0 0.59 0.3 0.59 0 0.3 0.3 0.59 0.3 0.3 0.3 0.59 0 0.3 0.3 0.59 0.3 0.3 0.3 0.3 0.3 0.59 0.59 0.3 0.3 0.3 0.3 0.3 0.3 0.3 0.59 0.3 0.3 0.3 0.59 0.3 0.3 0.3 0.59 0.3 0.59 0.3 0.3 0.3 0.59 0 0.59 0.3 0.59 0.3 0.59 0 0.59 0 -0.3 0.59 -0.59 0 -0.59 -0.3 -0.59 0 -0.59 -0.3 -0.3 -0.3 -0.59 -0.3 -0.59 0 -0.59 -0.3 -0.3 -0.3 -0.59 -0.3 -0.3 -0.3 -0.59 -0.3 -0.3 -0.3 -0.59 -0.59 -0.3 -0.3 -0.3 -0.3 -0.3 -0.59 -0.3 -0.3 -0.3 -0.3 -0.3 -0.59 -0.3 -0.3 -0.3 -0.59 -0.3 -0.59 0 -0.3 -0.3 -0.59 0 -0.59 -0.3 -0.3 0 -0.59 0 -0.59 -0.3 -0.59 0 -0.59 0 -0.3 0 0 0 0zm0 -33.12l0.59 0 0 0 0 0.89 0 1.19 0 0.89 0 1.19 0 0.89 0 1.18 0 0.89 0 1.18 0 0.89 0 1.19 0 0.89 0 1.19 0 0.89 0 1.18 0 0.89 0 1.18 0 0.89 0 1.19 0 0.89 0 1.19 0 0.89 0 1.18 0 0.89 0 1.18 0 0.89 0 1.19 0 0.89 0 1.19 0 0.89 0 1.18 0 0.89 0 1.18 -0.59 0 0 -1.18 0 -0.89 0 -1.18 0 -0.89 0 -1.19 0 -0.89 0 -1.19 0 -0.89 0 -1.18 0 -0.89 0 -1.18 0 -0.89 0 -1.19 0 -0.89 0 -1.19 0 -0.89 0 -1.18 0 -0.89 0 -1.18 0 -0.89 0 -1.19 0 -0.89 0 -1.19 0 -0.89 0 -1.18 0 -0.89 0 -1.18 0 -0.89 0 -1.19 0 -0.89 0 -1.19 0 -0.89 0 0zm0 -17.74l0.59 0 0 0 0 0.59 0 0.59 0 0.59 0 0.3 0 0.59 0 0.59 0 0.59 0 0.59 0 0.59 0 0.59 0 0.3 0 0.59 0 0.59 0 0.59 0 0.59 0 0.59 0 0.59 0 0.3 0 0.59 0 0.59 0 0.59 0 0.59 0 0.59 0 0.59 0 0.3 0 0.59 0 0.59 0 0.59 0 0.59 0 0.59 0 0.59 0 0.59 -0.59 0 0 -0.59 0 -0.59 0 -0.59 0 -0.59 0 -0.59 0 -0.59 0 -0.59 0 -0.3 0 -0.59 0 -0.59 0 -0.59 0 -0.59 0 -0.59 0 -0.59 0 -0.3 0 -0.59 0 -0.59 0 -0.59 0 -0.59 0 -0.59 0 -0.59 0 -0.3 0 -0.59 0 -0.59 0 -0.59 0 -0.59 0 -0.59 0 -0.59 0 -0.3 0 -0.59 0 -0.59 0 -0.59 0 0zm12.42 -12.12l0 0.59 0 0 -0.59 0 -0.59 0.3 -0.59 0 -0.59 0.3 -0.59 0 -0.59 0.3 -0.59 0 -0.59 0.3 -0.59 0.3 -0.59 0.3 -0.3 0.3 -0.59 0.3 -0.3 0.3 -0.59 0.3 -0.3 0.3 -0.59 0.59 -0.3 0.3 -0.3 0.3 -0.3 0.59 -0.3 0.3 -0.3 0.59 -0.3 0.3 -0.3 0.59 -0.3 0.3 -0.3 0.59 0 0.59 -0.3 0.59 0 0.3 0 0.59 -0.3 0.59 0 0.59 0 0.59 -0.59 0 0 -0.59 0 -0.59 0.3 -0.59 0 -0.59 0 -0.59 0.3 -0.59 0.3 -0.3 0 -0.59 0.3 -0.59 0.3 -0.59 0.3 -0.3 0.3 -0.59 0.3 -0.3 0.3 -0.59 0.59 -0.3 0.3 -0.59 0.3 -0.3 0.59 -0.3 0.3 -0.3 0.59 -0.3 0.59 -0.3 0.3 -0.3 0.59 -0.3 0.59 -0.3 0.59 -0.3 0.59 -0.3 0.59 0 0.59 -0.3 0.59 -0.3 0.59 0 0.89 0 0.59 -0.3 0 0zm14.19 9.76l-0.59 0 0 0 0 -0.59 -0.3 -0.59 0 -0.3 -0.3 -0.59 -0.3 -0.59 -0.3 -0.3 -0.3 -0.59 -0.3 -0.3 -0.3 -0.59 -0.3 -0.3 -0.59 -0.59 -0.3 -0.3 -0.3 -0.3 -0.59 -0.3 -0.3 -0.59 -0.59 -0.3 -0.3 -0.3 -0.59 -0.3 -0.59 0 -0.3 -0.3 -0.59 -0.3 -0.59 -0.3 -0.59 0 -0.59 -0.3 -0.3 0 -0.59 -0.3 -0.59 0 -0.59 0 -0.59 0 -0.59 0 -0.59 0 -0.59 0 0 -0.59 0.59 0 0.59 0 0.59 0 0.59 0 0.59 0.3 0.59 0 0.59 0 0.59 0.3 0.59 0 0.59 0.3 0.59 0.3 0.59 0 0.3 0.3 0.59 0.3 0.59 0.3 0.3 0.3 0.59 0.3 0.59 0.3 0.3 0.59 0.3 0.3 0.59 0.3 0.3 0.59 0.3 0.3 0.59 0.59 0.3 0.3 0.3 0.59 0.3 0.59 0 0.3 0.3 0.59 0.3 0.59 0.3 0.59 0 0.59 0 0 0 0zm3.25 13.6l-0.59 0.3 0 0 0 -0.59 0 -0.3 -0.3 -0.59 0 -0.3 0 -0.59 -0.3 -0.3 0 -0.59 0 -0.3 -0.3 -0.3 0 -0.59 0 -0.3 -0.3 -0.59 0 -0.3 0 -0.59 -0.3 -0.3 0 -0.59 0 -0.3 -0.3 -0.59 0 -0.3 0 -0.3 -0.3 -0.59 0 -0.3 0 -0.59 -0.3 -0.3 0 -0.59 -0.3 -0.3 0 -0.59 0 -0.3 -0.3 -0.59 0 -0.3 0 -0.3 -0.3 -0.59 0.59 0 0 0.3 0.3 0.59 0 0.3 0.3 0.59 0 0.3 0 0.3 0.3 0.59 0 0.3 0 0.59 0.3 0.3 0 0.59 0 0.3 0.3 0.59 0 0.3 0.3 0.59 0 0.3 0 0.3 0.3 0.59 0 0.3 0 0.59 0.3 0.3 0 0.59 0 0.3 0.3 0.59 0 0.3 0 0.59 0.3 0.3 0 0.59 0 0.3 0.3 0.3 0 0.59 0 0.3 0 0 0 0zm5.03 7.39l-0.3 0.3 0 0 -0.3 0 -0.3 -0.3 -0.3 0 0 -0.3 -0.3 -0.3 -0.3 0 -0.3 -0.3 0 -0.3 -0.3 -0.3 -0.3 0 -0.3 -0.3 0 -0.3 -0.3 -0.3 0 0 -0.3 -0.3 -0.3 -0.3 0 -0.3 -0.3 -0.3 0 0 -0.3 -0.3 0 -0.3 0 -0.3 -0.3 -0.3 0 -0.3 -0.3 -0.3 0 -0.3 0 0 -0.3 -0.3 0 -0.3 0 -0.3 0 -0.3 -0.3 -0.3 0.59 -0.3 0.3 0.3 0 0.3 0 0.3 0 0.3 0.3 0.3 0 0.3 0 0.3 0.3 0.3 0 0.3 0 0 0.3 0.3 0 0.3 0.3 0.3 0 0.3 0.3 0 0 0.3 0.3 0.3 0 0.3 0.3 0 0 0.3 0.3 0.3 0.3 0.3 0 0 0.3 0.3 0.3 0.3 0 0 0.3 0.3 0.3 0.3 0.3 0 0 0.3 0.3 0.3 0.3 0 0 0 0 0zm22.77 16.26l-0.59 0.3 0 0 -0.59 -0.3 -0.59 -0.59 -0.89 -0.59 -0.59 -0.3 -0.89 -0.59 -0.59 -0.59 -0.59 -0.59 -0.89 -0.3 -0.59 -0.59 -0.59 -0.59 -0.89 -0.3 -0.59 -0.59 -0.89 -0.59 -0.59 -0.59 -0.59 -0.3 -0.89 -0.59 -0.59 -0.59 -0.59 -0.59 -0.89 -0.3 -0.59 -0.59 -0.89 -0.59 -0.59 -0.3 -0.59 -0.59 -0.89 -0.59 -0.59 -0.59 -0.89 -0.3 -0.59 -0.59 -0.59 -0.59 -0.89 -0.3 -0.59 -0.59 -0.89 -0.59 -0.59 -0.59 0.3 -0.3 0.89 0.59 0.59 0.59 0.59 0.3 0.89 0.59 0.59 0.59 0.89 0.3 0.59 0.59 0.59 0.59 0.89 0.59 0.59 0.3 0.89 0.59 0.59 0.59 0.59 0.3 0.89 0.59 0.59 0.59 0.59 0.59 0.89 0.3 0.59 0.59 0.89 0.59 0.59 0.59 0.59 0.3 0.89 0.59 0.59 0.59 0.89 0.3 0.59 0.59 0.59 0.59 0.89 0.59 0.59 0.3 0.59 0.59 0.89 0.59 0.59 0.3 0.89 0.59 0 0 0 0zm5.03 9.76l-0.3 0 0 0 0 -0.3 0 -0.59 -0.3 -0.3 0 -0.3 0 -0.3 0 -0.3 0 -0.3 -0.3 -0.3 0 -0.3 0 -0.3 -0.3 -0.59 0 -0.3 0 -0.3 -0.3 -0.3 0 -0.3 -0.3 -0.3 0 -0.3 -0.3 -0.3 -0.3 0 0 -0.3 -0.3 -0.3 -0.3 -0.3 0 -0.3 -0.3 -0.3 -0.3 -0.3 -0.3 -0.3 -0.3 -0.3 -0.3 0 -0.3 -0.3 -0.3 -0.3 -0.3 -0.3 -0.3 -0.3 0.59 -0.3 0.3 0.3 0.3 0.3 0.3 0.3 0.3 0 0.3 0.3 0.3 0.3 0 0.3 0.3 0.3 0.3 0.3 0.3 0.3 0.3 0.3 0 0.3 0.3 0.3 0.3 0.3 0 0.3 0.3 0.3 0 0.3 0.3 0.3 0 0.3 0.3 0.3 0 0.3 0.3 0.3 0 0.3 0 0.3 0.3 0.3 0 0.59 0 0.3 0 0.3 0 0.3 0 0.3 0 0.59 0 0.3 0 0 0 0zm0 5.91l-0.3 0 0 0 0 0 0 -0.3 0 0 0 -0.3 0 -0.3 0 0 0 -0.3 0 -0.3 0 0 0 -0.3 0 -0.3 0 0 0 -0.3 0 -0.3 0 0 0 -0.3 0 0 0 -0.3 0 -0.3 0 0 0 -0.3 0 -0.3 0 0 0 -0.3 0 -0.3 0 0 0 -0.3 0 -0.3 0 0 0 -0.3 0 0 0 -0.3 0.3 0 0 0.3 0 0 0 0.3 0 0 0 0.3 0 0.3 0 0 0 0.3 0.3 0.3 0 0 0 0.3 0 0.3 0 0 0 0.3 0 0.3 0 0 0 0.3 0 0 0 0.3 0 0.3 0 0 0 0.3 0 0.3 -0.3 0 0 0.3 0 0.3 0 0 0 0.3 0 0.3 0 0 0 0.3 0 0 0 0zm-13.9 12.42l0 -0.59 0 0 0.89 0 0.59 0 0.89 0 0.59 0 0.59 -0.3 0.59 0 0.59 -0.3 0.89 -0.3 0.59 0 0.3 -0.3 0.59 -0.3 0.59 -0.3 0.59 -0.3 0.59 -0.3 0.3 -0.59 0.59 -0.3 0.3 -0.3 0.59 -0.59 0.3 -0.3 0.3 -0.59 0.3 -0.3 0.3 -0.59 0.3 -0.59 0.3 -0.3 0.3 -0.59 0.3 -0.59 0 -0.59 0.3 -0.59 0 -0.59 0 -0.59 0.3 -0.59 0 -0.89 0.3 0 0 0.89 0 0.59 0 0.59 0 0.59 -0.3 0.59 -0.3 0.59 0 0.59 -0.3 0.59 -0.3 0.59 -0.3 0.59 -0.3 0.59 -0.3 0.3 -0.59 0.59 -0.3 0.3 -0.3 0.59 -0.59 0.3 -0.3 0.59 -0.59 0.3 -0.59 0.3 -0.59 0.3 -0.59 0.3 -0.59 0.3 -0.59 0.3 -0.59 0.3 -0.59 0.3 -0.59 0 -0.59 0.3 -0.89 0 -0.59 0.3 -0.89 0 -0.59 0 -0.89 0 0 0 0 0zm-12.12 0l0 -0.59 0 0 0.59 0 0.3 0 0.3 0 0.59 0 0.3 0 0.3 0 0.3 0 0.59 0 0.3 0 0.3 0 0.59 0 0.3 0 0.3 0 0.3 0 0.59 0 0.3 0 0.3 0 0.3 0 0.59 0 0.3 0 0.3 0 0.59 0 0.3 0 0.3 0 0.3 0 0.59 0 0.3 0 0.3 0 0.59 0 0.3 0 0.3 0 0.3 0 0 0.59 -0.3 0 -0.3 0 -0.3 0 -0.59 0 -0.3 0 -0.3 0 -0.59 0 -0.3 0 -0.3 0 -0.3 0 -0.59 0 -0.3 0 -0.3 0 -0.59 0 -0.3 0 -0.3 0 -0.3 0 -0.59 0 -0.3 0 -0.3 0 -0.3 0 -0.59 0 -0.3 0 -0.3 0 -0.59 0 -0.3 0 -0.3 0 -0.3 0 -0.59 0 -0.3 0 -0.3 0 -0.59 0 0 0zm-0.89 -0.3l-0.59 0 0.3 -0.3 0 0 0.3 0 0 0 0 0 0 0 0 0 0 0 0 0 0.3 0 0 0 0 0 0 0 0 0 0 0 0 0 0 0 0.3 0 0 0 0 0 0 0 0 0 0 0 0 0 0 0 0.3 0 0 0 0 0 0 0 0 0 0 0 0 0 0 0 0 0.59 0 0 0 0 0 0 0 0 0 0 0 0 0 0 -0.3 0 0 0 0 0 0 0 0 0 0 0 0 0 0 0 -0.3 0 0 0 0 0 0 0 0 0 0 0 0 0 0 0 -0.3 0 0 0 0 0 0 0 0 0 0 0 0 0 -0.3 0 0 0 0.3 -0.3 0 -0zm-0.59 0l0 -0.3 0.3 0 -0.3 0.3zm0.3 3.85l0 0.3 -0.3 0 0 -0.3 0 0 0 -0.3 0 0 0 -0.3 0 0 0 0 0 -0.3 0 0 0 -0.3 0 0 0 0 0 -0.3 0 0 0 -0.3 0 0 0 0 0 -0.3 0 0 0 -0.3 0 0 0 -0.3 0 0 0 0 0 -0.3 0 0 0 -0.3 0 0 0 0 0 -0.3 0 0 0 -0.3 0.59 0 0 0.3 0 0 0 0.3 0 0 0 0 0 0.3 0 0 0 0.3 0 0 0 0 0 0.3 0 0 0 0.3 0 0 0 0.3 0 0 0 0 0 0.3 0 0 0 0.3 0 0 0 0 0 0.3 0 0 0 0.3 0 0 0 0 0 0.3 0 0 0 0.3 0 0 0 0.3 -0.3 -0.3 -0 0zm0 0.3l-0.3 0 0 0 0.3 0zm1.48 -0.3l0 0.3 0 0 0 0 0 0 0 0 0 0 0 0 -0.3 0 0 0 0 0 0 0 0 0 0 0 -0.3 0 0 0 0 0 0 0 0 0 0 0 0 0 -0.3 0 0 0 0 0 0 0 0 0 0 0 -0.3 0 0 0 0 0 0 0 0 0 0 0 0 0 -0.3 0 0 -0.3 0.3 0 0 0 0 0 0 0 0 0 0 0 0 0 0.3 0 0 0 0 0 0 0 0 0 0 0 0.3 0 0 0 0 0 0 0 0 0 0 0 0 0 0.3 0 0 0 0 0 0 0 0 0 0 0 0.3 0 0 0 0 0 0 0 0 0 0 0 0 0zm0 0.3l0 0 0 0 0 0zm1.77 0.89l-0.59 0 0 0 0 0 0 0 0 0 0 -0.3 0 0 0 0 0 0 -0.3 0 0 0 0 0 0 0 0 -0.3 0 0 0 0 0 0 0 0 0 0 0 0 -0.3 0 0 0 0 0 0 0 0 0 0 0 0 0 -0.3 0 0 -0.3 0 0 0 0 0 0 -0.3 0 0 0 0 -0.3 0.3 0 0 0 0 0 0 0 0.3 0 0 0 0 0 0 0 0.3 0 0 0 0 0 0 0 0 0 0.3 0.3 0 0 0 0 0 0 0 0 0.3 0 0 0 0 0.3 0 0 0 0 0 0 0 0 0 0.3 0 0 0.3 0 0 0 0 0.3 0 0 0 0 0 0 0 0zm-0.59 0l0 0 0 0 0 0zm-1.18 1.19l0 -0.3 0 0 0 0 0.3 0 0 0 0 0 0 0 0 0 0.3 0 0 0 0 -0.3 0 0 0 0 0 0 0.3 0 0 0 0 0 0 0 0 0 0 0 0 0 0 0 0 0 0 -0.3 0 0 0 0 0.3 0 0 0 0 0 0 0 0 0 0 -0.3 0 0 0 0 0.59 0 0 0 0 0.3 0 0 0 0 -0.3 0 0 0 0 0.3 0 0 0 0 0 0 0 0 0 0.3 0 0 -0.3 0 0 0 0 0 0 0 0 0.3 -0.3 0 0 0 0 0 0 0 0 0 -0.3 0 0 0 0 0 0 0 -0.3 0 0 0 0 0 0 0 -0.3 0 0 0 0 0zm-1.19 0l-0.59 0 0.3 -0.3 0 0 0.3 0 0 0 0 0 0 0 0 0 0 0 0.3 0 0 0 0 0 0 0 0 0 0 0 0 0 0.3 0 0 0 0 0 0 0 0 0 0 0 0.3 0 0 0 0 0 0 0 0 0 0 0 0 0 0.3 0 0 0 0 0 0 0 0 0 0 0.3 0 0 0 0 0 0 0 0 0 0 -0.3 0 0 0 0 0 0 0 0 0 0 0 -0.3 0 0 0 0 0 0 0 0 0 0 0 -0.3 0 0 0 0 0 0 0 0 0 0 0 0 0 -0.3 0 0 0 0 0 0 0 0 0 0 0 -0.3 0 0 0 0.3 0 0 0zm-0.59 0l0 -0.3 0.3 0 -0.3 0.3zm0.3 3.55l0 0.59 -0.3 -0.3 0 -0.3 0 0 0 0 0 -0.3 0 0 0 -0.3 0 0 0 -0.3 0 0 0 0 0 -0.3 0 0 0 -0.3 0 0 0 0 0 -0.3 0 0 0 -0.3 0 0 0 0 0 -0.3 0 0 0 -0.3 0 0 0 0 0 -0.3 0 0 0 -0.3 0 0 0 -0.3 0 0 0 0 0.59 0 0 0 0 0 0 0.3 0 0 0 0.3 0 0 0 0.3 0 0 0 0 0 0.3 0 0 0 0.3 0 0 0 0 0 0.3 0 0 0 0.3 0 0 0 0 0 0.3 0 0 0 0.3 0 0 0 0 0 0.3 0 0 0 0.3 0 0 0 0.3 0 0 0 0 0 0.3 -0.3 -0.3 -0 0zm0 0.59l-0.3 0 0 -0.3 0.3 0.3zm-2.37 -0.3l0 0 0 0 0 0 -0.3 0 0.3 0zm0.3 0l0 0.3 -0.3 0 0.3 -0.3zm-0.3 -9.76l0 -0.3 0.3 0 0 0.59 0 0.3 0 0.3 0 0.3 0 0.3 0 0.3 0 0.3 0 0.3 0 0.3 0 0.3 0 0.3 0 0.3 0 0.3 0 0.3 0 0.3 0 0.3 0 0.3 0 0.3 0 0.3 0 0.3 0 0.3 0 0.3 0 0.3 0 0.3 0 0.3 0 0.3 0 0.3 0 0.3 0 0.59 0 0.3 0 0.3 0 0.3 -0.59 0 0 -0.3 0 -0.3 0 -0.3 0 -0.59 0 -0.3 0 -0.3 0 -0.3 0 -0.3 0 -0.3 0 -0.3 0 -0.3 0 -0.3 0 -0.3 0 -0.3 0 -0.3 0 -0.3 0 -0.3 0 -0.3 0 -0.3 0 -0.3 0 -0.3 0 -0.3 0 -0.3 0 -0.3 0 -0.3 0 -0.3 0 -0.3 0 -0.3 0 -0.3 0 -0.3 0 -0.3 0 -0.59 0.3 0.3 0 0zm0 -0.3l0.3 0 0 0 -0.3 0zm-2.96 0l-0.59 0 0.3 0 0 0 0 0 0.3 0 0 0 0 0 0.3 0 0 0 0 0 0.3 0 0 0 0 0 0.3 0 0 0 0.3 0 0 0 0 0 0.3 0 0 0 0 0 0.3 0 0 0 0 0 0.3 0 0 0 0 0 0.3 0 0 0 0.3 0 0 0 0 0 0.3 0 0 0 0 0.3 0 0 -0.3 0 0 0 0 0 -0.3 0 0 0 -0.3 0 0 0 0 0 -0.3 0 0 0 0 0 -0.3 0 0 0 0 0 -0.3 0 0 0 0 0 -0.3 0 0 0 -0.3 0 0 0 0 0 -0.3 0 0 0 0 0 -0.3 0 0 0 0 0 -0.3 0 0 0 0 0 0.3 -0.3 0 0zm-0.59 0l0 0 0.3 0 -0.3 0zm0.3 9.76l0 0.59 -0.3 -0.3 0 -0.3 0 -0.3 0 -0.3 0 -0.3 0 -0.59 0 -0.3 0 -0.3 0 -0.3 0 -0.3 0 -0.3 0 -0.3 0 -0.3 0 -0.3 0 -0.3 0 -0.3 0 -0.3 0 -0.3 0 -0.3 0 -0.3 0 -0.3 0 -0.3 0 -0.3 0 -0.3 0 -0.3 0 -0.3 0 -0.3 0 -0.3 0 -0.3 0 -0.3 0 -0.3 0 -0.3 0 -0.59 0.59 0 0 0.59 0 0.3 0 0.3 0 0.3 0 0.3 0 0.3 0 0.3 0 0.3 0 0.3 0 0.3 0 0.3 0 0.3 0 0.3 0 0.3 0 0.3 0 0.3 0 0.3 0 0.3 0 0.3 0 0.3 0 0.3 0 0.3 0 0.3 0 0.3 0 0.3 0 0.3 0 0.3 0 0.59 0 0.3 0 0.3 0 0.3 0 0.3 -0.3 -0.3 -0 0zm0 0.59l-0.3 0 0 -0.3 0.3 0.3zm2.96 -0.3l0.59 0 -0.3 0.3 0 0 -0.3 0 0 0 0 0 -0.3 0 0 0 -0.3 0 0 0 0 0 -0.3 0 0 0 0 0 -0.3 0 0 0 0 0 -0.3 0 0 0 0 0 -0.3 0 0 0 0 0 -0.3 0 0 0 -0.3 0 0 0 0 0 -0.3 0 0 0 0 0 -0.3 0 0 0 0 0 0 -0.59 0 0 0 0 0.3 0 0 0 0 0 0.3 0 0 0 0 0 0.3 0 0 0 0.3 0 0 0 0 0 0.3 0 0 0 0 0 0.3 0 0 0 0 0 0.3 0 0 0 0 0 0.3 0 0 0 0 0 0.3 0 0 0 0.3 0 0 0 0 0 0.3 0 0 0 -0.3 0.3 0 0zm0.59 0l0 0.3 -0.3 0 0.3 -0.3z"/>
    </g>
    <g>
     <path class="fil1" d="M34.44 57.8c0,0.3 0,0.89 0,1.19 -0.3,0.3 -0.89,0.89 -1.18,0.89 -0.3,0 -0.89,-0.59 -1.18,-0.89 0,-0.89 0,-1.48 0,-2.37 0.3,-0.3 0.89,-0.89 1.18,-0.89 0.59,0 1.18,0.3 1.18,0.89 0,0.59 0,0.89 0,1.18 0,0 0,0 0,0z"/>
     <path id="_1_54" class="fil1" d="M34.74 58.99l-0.59 0 0 0 0 -0.3 0 0 0 0 0 0 0 0 0 0 0 0 0 0 0 0 0 0 0 0 0 0 0 -0.3 0 0 0 0 0 0 0 0 0 0 0 0 0 0 0 0 0 -0.3 0 0 0 0 0 0 0 0 0 0 0 0 0 -0.3 0 0 0 0 0 0 0.59 0 0 0 0 0 0 0 0 0.3 0 0 0 0 0 0 0 0 0 0 0 0 0 0 0 0.3 0 0 0 0 0 0 0 0 0 0 0 0 0 0 0 0.3 0 0 0 0 0 0 0 0 0 0 0 0 0 0.3 0 0 0 0 0 0 0 0 0 0 0 0zm-1.48 1.18l0 -0.59 0 0 0 0 0 0 0 0 0 0 0 0 0.3 0 0 0 0 0 0 0 0 0 0 0 0 0 0 0 0 -0.3 0 0 0.3 0 0 0 0 0 0 0 0 0 0 0 0 0 0 0 0 -0.3 0 0 0.3 0 0 0 0 0 0 0 0 0 0 0 0 0 0.59 0 0 0 0 0.3 -0.3 0 0 0 0 0 0 0 0 0 0 0 0 0.3 0 0 -0.3 0 0 0 0 0 0 0 0 0 0 0 0 0.3 0 0 -0.3 0 0 0 0 0 0 0 0 0 0 0 -0.3 0 0 0 0 0 0 0.3 0 0 0 0 -0.3 0 0 0 0 0 0 0zm0 -0.59l0 0 0 0 0 0zm-1.48 -0.59l0.59 0 0 0 0 0 0 0 0 0 0 0 0 0 0.3 0 0 0 0 0 0 0 0 0 0 0.3 0 0 0 0 0 0 0 0 0.3 0 0 0 0 0 0 0 0 0 0 0 0 0.3 0 0 0.3 0 0 0 0 0 0 0 0 0 0 0 0 0 0 0 0 0 0 0.59 0 0 0 0 0 -0.3 -0.3 0 0 0 0 0 0 0 0 0 -0.3 0 0 0 0 0 0 0 0 0 0 0 -0.3 -0.3 0 0 0 0 0 0 0 0 0 0 0 0 -0.3 0 0 -0.3 0 0 0 0 0 0 0 0 0 0 0 -0.3 0 0 0 0 -0.3 0 0 0 0 0zm0 0l0 0 0.3 0.3 -0.3 -0.3zm0 -2.37l0.59 0.3 0 0 0 0 0 0 0 0 0 0 0 0.3 0 0 0 0 0 0 0 0.3 0 0 0 0 0 0 0 0 0 0.3 0 0 0 0 0 0 0 0.3 0 0 0 0 0 0 0 0 0 0.3 0 0 0 0 0 0 0 0.3 0 0 0 0 0 0 0 0 0 0.3 -0.59 0 0 0 0 0 0 -0.3 0 0 0 0 0 0 0 -0.3 0 0 0 0 0 0 0 -0.3 0 0 0 0 0 0 0 -0.3 0 0 0 0 0 0 0 -0.3 0 0 0 0 0 0 0 -0.3 0 0 0 0 0 0 0 -0.3 0 0 0 0 0 0 0 -0.3 0 0 0 0zm0.59 0.3l0 0 0 0 0 0zm0.89 -1.48l0 0.59 0 0 0 0 0 0 0 0 0 0 0 0 0 0 -0.3 0 0 0 0 0 0 0 0 0.3 0 0 0 0 0 0 0 0 -0.3 0 0 0 0 0 0 0 0 0 0 0 0 0.3 0 0 0 0 0 0 0 0 -0.3 0 0 0 0 0 0 0 0 0 0 0.3 -0.59 -0.3 0 0 0.3 0 0 0 0 0 0 -0.3 0 0 0 0 0 0 0 0 0 0 0 -0.3 0.3 0 0 0 0 0 0 0 0 0 0 0 0 0 0.3 -0.3 0 0 0 0 0 0 0 0 0 0 0.3 0 0 0 0 0 0 0 0 -0.3 0 0 0.3 0 0 0 0 0 0 0zm1.48 1.18l-0.59 0.3 0 0 0 -0.3 0 0 0 0 0 0 0 0 0 0 0 -0.3 0 0 0 0 0 0 0 0 -0.3 0 0 0 0 0 0 0 0 -0.3 0 0 0 0 0 0 0 0 0 0 0 0 -0.3 0 0 0 0 0 0 0 0 0 0 0 0 0 0 0 -0.3 0 0 0 0 -0.59 0 0 0 0 0.3 0 0 0 0 0 0 0 0.3 0 0 0 0 0 0 0.3 0.3 0 0 0 0 0 0 0 0 0 0 0 0.3 0 0 0.3 0 0 0 0 0 0 0 0 0 0 0 0.3 0.3 0 0 0 0 0 0 0.3 0 0 0 0 0 0 0 0 0 0 0 0zm-0.59 0.3l0 0 0 0 0 0zm0.3 1.18l0 -0.59 -0.3 0.3 0 0 0 0 0 0 0 0 0 -0.3 0 0 0 0 0 0 0 0 0 0 0 0 0 0 0 0 0 -0.3 0 0 0 0 0 0 0 0 0 0 0 0 0 0 0 0 0 0 0 -0.3 0 0 0 0 0 0 0 0 0 0 0 0 0 0 0 0 0.59 -0.3 0 0.3 0 0 0 0 0 0 0 0 0 0 0 0 0 0 0 0 0 0.3 0 0 0 0 0 0 0 0 0 0 0 0 0 0 0 0.3 0 0 0 0 0 0 0 0 0 0 0 0 0 0 0 0 0 0.3 0 0 0 0 0 0 0 0 0 0 -0.3 0.3 -0 0zm0.3 -0.3l0 0.3 -0.3 0 0.3 -0.3zm0 0l-0.59 0 0.3 -0.3 0 0 0 0 0 0 0 0 0 0 0 0 0 0 0 0 0 0 0 0 0 0 0 0 0 0 0 0 0 0 0 0 0 0 0 0 0 0 0 0 0 0 0 0 0 0 0 0 0 0 0 0 0 0 0 0 0 0 0 0 0 0 0 0 0 0.59 0 0 0 0 0 0 0 0 0 0 0 0 0 0 0 0 0 0 0 0 0 0 0 0 0 0 0 0 0 0 0 0 0 0 0 0 0 0 0 0 0 0 0 0 0 0 0 0 0 0 0 0 0 0 0 0 0 0 0 0 0 0 0 0 0.3 -0.3 0 -0zm-0.59 0l0 -0.3 0.3 0 -0.3 0.3z"/>
    </g>
    <g>
     <path class="fil1" d="M62.83 113.1c-0.59,0 -0.89,0.3 -1.18,0 -0.59,0 -1.18,-0.59 -1.18,-0.89 0,-0.3 0.59,-0.89 0.89,-0.89 0.89,-0.3 1.78,-0.3 2.66,0 0.59,0 0.89,0.59 0.89,0.89 0,0.3 -0.3,0.89 -0.89,0.89 -0.3,0.3 -0.89,0 -1.19,0z"/>
     <path id="_1_55" class="fil1" d="M61.35 113.39l0.3 -0.3 0 0 0 0 0 0 0 0 0 0 0 0 0 0 0 0 0.3 0 0 0 0 0 0 0 0 0 0 0 0 0 0 0 0.3 0 0 0 0 0 0 0 0 0 0 0 0 0 0.3 0 0 0 0 0 0 0 0 0 0 0 0 0 0.3 0 0 0 0 0 0 0.3 0 0 0 0 -0.3 0 0 0 0 0 0 0 0 0 0 0 0 0 0 0 -0.3 0 0 0 0 0 0 0 0 0 0 0 -0.3 0 0 0 0 0 0 0 0 0 0 0 0 0 -0.3 0 0 0 0 0 0 0 0 0 0 0 -0.3 0 0 0 0 0 0 0zm0.3 -0.3l0 0 0 0 0 0zm-1.48 -0.89l0.59 0 0 0 0 0 0 0 0 0 0 0 0 0 0 0.3 0 0 0 0 0 0 0 0 0.3 0 0 0 0 0 0 0 0 0 0 0 0 0.3 0 0 0 0 0 0 0.3 0 0 0 0 0 0 0 0 0 0 0 0 0 0 0 0.3 0 0 0.3 0 0 0 0 -0.3 0.3 0 0 0 0 0 0 -0.3 0 0 0 0 0 0 0 0 -0.3 0 0 0 0 -0.3 0 0 0 0 0 0 0 0 0 0 0 0 -0.3 -0.3 0 0 0 0 0 0 0 0 0 0 0 0 0 0 -0.3 0 0 -0.3 0 0 0 0 0 0 0 0 -0.3 0 0 0 0 -0 0zm1.19 -1.18l0 0.59 0 0 0 0 0 0 0 0 0 0 0 0 0 0 0 0 0 0 0 0 -0.3 0 0 0 0 0 0 0 0 0 0 0.3 0 0 0 0 0 0 0 0 0 0 -0.3 0 0 0 0 0 0 0.3 0 0 0 0 0 0 0 0 0 0 0 0 0 0 0 0 -0.59 0 0 0 0 0 0 0 0 0 0 -0.3 0 0 0 0 0.3 0 0 0 0 0 0 -0.3 0 0 0 0 0 0 0 0 0 0 0 0 0.3 -0.3 0 0 0 0 0 0 0 0 0 0 0 0 0.3 0 0 -0.3 0 0 0 0 0 0 0 0 0.3 0 0 0 0 0 0 0zm0 0.59l0 0 0.3 0 -0.3 0zm2.96 -0.59l-0.3 0.59 0 0 0 0 0 0 -0.3 0 0 -0.3 0 0 0 0 -0.3 0 0 0 0 0 -0.3 0 0 0 0 0 0 0 -0.3 0 0 0 0 0 -0.3 0 0 0 0 0 0 0 -0.3 0 0 0 0 0 -0.3 0 0 0 0 0 0 0 -0.3 0.3 0 0 0 0 0 0 -0.3 0 0 -0.59 0 0 0 0 0.3 0 0 0 0 0 0.3 0 0 0 0 0 0.3 0 0 0 0 0 0.3 0 0 0 0 0 0 0 0.3 0 0 0 0 0 0.3 0 0 0 0 0 0.3 0 0 0 0 0 0.3 0 0 0 0 0 0 0 0.3 0 0 0 0 0 0.3 0 0 0zm-0.3 0.59l0 0 0 0 0 0zm1.18 0.59l-0.59 0 0 0 0 0 0 0 0 0 0 0 0 0 0 0 0 0 0 0 0 -0.3 0 0 0 0 0 0 0 0 0 0 0 0 0 0 0 0 0 -0.3 -0.3 0 0 0 0 0 0 0 0 0 0 0 0 0 0 0 0 0 0 0 -0.3 0 0 0 0 0 0 0 0.3 -0.59 0 0 0 0 0 0 0 0 0.3 0 0 0 0 0.3 0 0 0 0 0 0 0.3 0 0 0 0 0 0 0 0 0 0 0.3 0 0 0 0 0.3 0 0 0 0 0 0 0.3 0 0 0 0 0 0 0 0 0 0 0 0.3 0 0 0 0 0 0 0 0 0 0 0 0zm0 0l0 0 0 0 0 0zm-0.89 1.19l-0.3 -0.3 0 0 0 0 0 0 0 -0.3 0 0 0 0 0 0 0.3 0 0 0 0 0 0 0 0 0 0 0 0 0 0 0 0.3 -0.3 0 0 0 0 0 0 0 0 0 0 0 0 0 0 0 0 0 0 0 0 0 -0.3 0 0 0 0 0 0 0 0 0 0 0 0 0.59 0 0 0 0 0.3 0 0 0 0 0 0 0 0 0 0 0 0 0 0.3 0 0 0 0 -0.3 0 0 0 0 0 0 0 0 0.3 0 0 0 0 0 0 -0.3 0 0 0 0 0 0 0 0 0 0 0.3 0 0 -0.3 0 0 0 0 0 0 0 0 0 0 0 0 0 0 0zm-1.48 0l0 -0.3 0 0 0 0 0 0 0 0 0 0 0.3 0 0 0 0 0 0 0 0 0 0 0 0.3 0 0 0 0 0 0 0 0 0 0 0 0 0 0 0 0.3 0 0 0 0 0 0 0 0 0 0 0 0 0 0 0 0 0 0 0 0.3 0 0 0 0 0 0 0 0.3 0.3 -0.3 0 0 0 0 0 0 0 0 0 0 0 0 0 -0.3 0 0 0 0 0 0 0 0 0 0 0 -0.3 0 0 0 0 0 0 0 0 0 0 0 -0.3 0 0 0 0 0 0 0 0 0 0 0 0 0 -0.3 0 0 0 0 0 0 0 0 0 0 0 0 0z"/>
    </g>
    <g>
     <path class="fil1" d="M108.07 91.81c-0.3,0.3 0,0.89 -0.3,1.19 -0.3,0.3 -0.59,0.59 -1.19,0.59 -0.3,0 -0.89,-0.3 -0.89,-0.89 -0.3,-0.59 0,-1.19 0,-2.07 0,-0.59 0.3,-0.89 0.89,-0.89 0.89,-0.3 1.19,0.3 1.19,0.89 0.3,0.3 0,0.59 0,1.18 0.3,0 0.3,0 0.3,0z"/>
     <path id="_1_56" class="fil1" d="M108.07 92.99l-0.59 -0.3 0 0 0 0 0 0 0 0 0 0 0.3 0 0 0 0 0 0 0 0 -0.3 0 0 0 0 0 0 0 0 0 0 0 0 0 0 0 0 0 -0.3 0 0 0 0 0 0 0 0 0 0 0 0 0 -0.3 0 0 0 0 0 0 0 0 0 0 0 0 0 -0.3 0.59 0.3 0 0 0 0 0 0 0 0 0 0 0 0 0 0 0 0.3 0 0 0 0 0 0 0 0 0 0 0 0 0 0.3 0 0 0 0 0 0 0 0 0 0 0 0 -0.3 0.3 0 0 0 0 0 0 0 0 0 0 0 0 0 0.3 0 0 0 0 0 0 0 0zm0 0l0 0 -0.3 0.3 0.3 -0.3zm-1.48 0.89l0 -0.59 0 0 0 0 0 0 0.3 0 0 0 0 0 0 0 0 0 0 0 0 0 0 0 0 0 0 0 0.3 0 0 0 0 0 0 0 0 0 0 0 0 0 0 -0.3 0 0 0.3 0 0 0 0 0 0 0 0 0 0 0 0 0 0 0 0 -0.3 0 0 0 0 0.59 0.3 0 0 0 0 0 0 0 0.3 -0.3 0 0 0 0 0 0 0 0 0 0 0 0 0 0 0.3 -0.3 0 0 0 0 0 0 0 0 0 0 0 0 0 -0.3 0 0 0.3 0 0 0 0 0 0 0 0 -0.3 0 0 0 0 0 0 0 0 0 -0.3 0 0 0 0 0 -0 0zm-1.18 -0.89l0.59 -0.3 0 0 0 0 0 0 0 0 0 0 0 0.3 0 0 0 0 0 0 0 0 0 0 0 0 0 0 0.3 0 0 0 0 0.3 0 0 0 0 0 0 0 0 0 0 0 0 0.3 0 0 0 0 0 0 0 0 0 0 0 0 0 0 0 0 0 0 0 0 0 0 0.59 0 0 0 0 0 0 0 0 -0.3 0 0 0 0 0 0 0 0 0 0 0 -0.3 -0.3 0 0 0 0 0 0 0 0 0 0 -0.3 0 0 0 0 -0.3 0 0 0 0 0 0 0 0 0 0 -0.3 0 0 -0.3 0 0 0 0 0 0 0 0 0 0 0 0 0 0 0 0zm0 0l0 0 0 0 0 0zm0 -2.37l0.59 0 0 0 0 0 0 0.3 0 0 0 0 0 0 -0.3 0.3 0 0 0 0 0 0 0 0.3 0 0 0 0 0 0 0 0 0 0.3 0 0 0 0 0 0 0 0 0 0.3 0 0 0 0 0 0 0 0.3 0 0 0 0 0.3 0 0 0 0 0.3 0 0 0 0 0 0 -0.59 0.3 0 -0.3 0 0 0 0 0 0 0 -0.3 0 0 0 0 0 0 0 -0.3 0 0 0 0 0 0 0 0 0 -0.3 0 0 0 0 0 0 0 -0.3 0 0 0 0 0 0 0 -0.3 0 0 0 0 0 0 0 0 0 -0.3 0 0 0 0 0 0 0 -0.3 0 0 0 0zm1.18 -1.19l0 0.3 0 0 0 0 0 0 0 0 0 0 0 0.3 -0.3 0 0 0 0 0 0 0 0 0 0 0 0 0 0 0 -0.3 0 0 0 0 0 0 0 0 0 0 0 0 0.3 0 0 0 0 0 0 0 0 0 0 0 0 0 0 0 0.3 0 0 0 0 0 0 0 0 -0.59 0 0 0 0 0 0 0 0 -0.3 0 0 0 0 0 0 0 0 0 -0.3 0 0 0 0 0 0 0 0 0.3 -0.3 0 0 0 0 0 0 0 0 0 0 0.3 0 0 -0.3 0 0 0 0 0 0 0.3 0 0 0 0 0 0 0 0.3 0 0 0 0 0 0 0 0 0 0 0zm1.48 1.19l-0.3 0 0 0 -0.3 0 0 0 0 0 0 0 0 -0.3 0 0 0 0 0 0 0 0 0 0 0 0 0 0 0 -0.3 0 0 0 0 0 0 0 0 -0.3 0 0 0 0 0 0 0 0 0 0 0 0 0 0 0 -0.3 -0.3 0 0 0 0 0 0 0 0 0 0 -0.3 0 0 -0.3 0.3 0 0 0 0 0 0 0 0.3 0 0 0 0 0 0 0 0.3 0 0 0 0 0 0 0 0 0.3 0.3 0 0 0 0 0 0 0 0 0 0 0 0.3 0.3 0 0 0 0 0 0 0 0 0 0.3 0 0 0 0 0 0 0 0.3 0 0 0 0 0 0 0 0zm-0.3 0.89l0 0.3 0 0 0 -0.3 0 0 0 0 0 0 0 0 0 0 0 0 0 0 0 0 0 -0.3 0 0 0 0 0 0 0 0 0 0 0 0 0 0 0 0 0 0 0 -0.3 0 0 0 0 0 0 0 0 0 0 0 0 0 0 0 0 0 0 0 0 0 -0.3 0 0 0.3 0 0 0 0 0 0 0.3 0 0 0 0 0 0 0 0 0 0 0 0 0 0 0 0 0 0 0 0.3 0 0 0 0 0 0 0 0 0 0 0 0 0 0 0 0 0 0.3 0 0 0 0 0 0 0 0 0 0 0 0 0 0 0 0 0 0 0 0.3 -0.3 -0.3zm0 0.3l0 0 0 0 0 0zm0.59 0l-0.59 -0.3 0 0.3 0.3 0 0 0 0 0 0 0 0 0 -0.3 0 0 0 0.3 0 0 0 0 0 0 0 0 0 0 0 0 0 0 0 0 0 0 0 0 0 0 0 0 0 0 0 0 0 0 0 -0.3 0 0 0 0 0 0 0 0 0 0 0 0 0 0 0 0 0 0 -0.3 0 0 0 0 0 0 0 0 0 0 0 0 0 0 0 0 0.3 0 0 0 0 0 0 0 0 0 0 0 0 0 0 0 0 0 0 0 0 0 0 0 0 0 0 0 0 0 0 0 0 0 0 0 0 0 0 0 0 0 0 0 0 0 0 0 0.3 0.3 0 0zm-0.3 -0.3l0.3 0 0 0.3 -0.3 -0.3z"/>
    </g>
    <g>
     <path class="fil1" d="M86.48 113.39c-0.3,0 -0.89,0 -1.18,0 -0.59,-0.3 -1.18,-0.59 -1.18,-1.19 0,-0.59 0.3,-0.89 1.18,-0.89 0.59,-0.3 1.48,-0.3 2.37,0 0.59,0 1.18,0.3 1.18,0.89 0,0.59 -0.59,0.89 -1.48,1.19 -0.3,0 -0.59,0 -0.89,0z"/>
     <path id="_1_57" class="fil1" d="M85.3 113.39l0 -0.3 0 0 0 0 0 0 0.3 0 0 0 0 0 0 0 0 0 0 0 0 0 0 0 0 0 0 0 0.3 0 0 0 0 0 0 0 0 0 0 0 0 0 0 0 0.3 0 0 0 0 0 0 0 0 0 0 0 0 0 0 0 0 0 0.3 0 0 0 0 0 0 0.3 0 0 0 0 -0.3 0 0 0 0 0 0 0 0 0 0 0 0 0 0 0 0 0 -0.3 0 0 0 0 0 0 0 0 0 0 0 0 0 0 0 -0.3 0 0 0 0 0 0 0 0 0 0 0 0 0 0 0 0 0 -0.3 0 0 0 0 0 0 0 0 0zm-1.48 -1.19l0.59 0 0 0 0 0 0 0 0 0.3 0 0 0 0 0 0 0 0 0 0 0 0 0 0 0 0.3 0.3 0 0 0 0 0 0 0 0 0 0 0 0 0 0 0 0 0 0 0 0.3 0 0 0 0 0 0 0.3 0 0 0 0 0 0 0.3 0 0 0 0 0 0 0 0 0.3 0 0 0 0 -0.3 0 0 0 0 0 0 0 -0.3 0 0 0 0 0 0 0 0 0 -0.3 0 0 0 0 0 0 -0.3 0 0 -0.3 0 0 0 0 0 0 0 0 -0.3 0 0 0 0 0 0 -0.3 0 0 0 0 -0.3 0 0 0 0 0 0 0 -0.3 0 0 0 0 -0 0zm0 0l0 0 0 0 0 0zm1.48 -1.18l0 0.3 0 0 0 0 0 0 -0.3 0 0 0.3 0 0 0 0 0 0 0 0 -0.3 0 0 0 0 0 0 0 0 0 0 0 0 0 0 0 0 0 0 0 -0.3 0 0 0.3 0 0 0 0 0 0 0 0 0 0 0 0 0 0 0 0.3 0 0 0 0 0 0 0 0 -0.59 0 0 0 0 0 0 0 0 -0.3 0 0 0 0 0 0 0 -0.3 0 0 0.3 0 0 0 0 0 0 -0.3 0 0 0 0 0 0 0.3 0 0 0 0 0 0 0 0 -0.3 0 0 0.3 0 0 0 0 0 0 0 0.3 0 0 0 0 0 0 0 0.3 0 0 0 0 0 0 0zm2.37 0l-0.3 0.3 0 0 0 0 0 0 0 0 0 0 -0.3 0 0 0 0 0 0 0 -0.3 0 0 0 0 0 0 0 -0.3 0 0 0 0 0 0 0 -0.3 0 0 0 0 0 0 0 0 0 -0.3 0 0 0 0 0 0 0 -0.3 0 0 0 0 0 0 0 -0.3 0 0 0 0 0 0 -0.3 0 0 0 0 0.3 0 0 0 0 0 0 0 0 0 0.3 0 0 0 0 0 0 0 0.3 0 0 0 0 0 0 0 0.3 0 0 0 0 0 0 0 0.3 0 0 0 0 0 0 0 0.3 0 0 0 0 0 0 0 0.3 0 0 0 0 0 0 0 0.3 0 0 0zm1.48 1.18l-0.59 0 0 0 0 0 0 0 0 0 0 0 0 -0.3 0 0 0 0 0 0 -0.3 0 0 0 0 0 0 0 0 -0.3 0 0 0 0 0 0 0 0 0 0 0 0 0 0 -0.3 0 0 0 0 0 0 0 0 0 0 0 -0.3 0 0 -0.3 0 0 0 0 0 0 -0.3 0 0.3 -0.3 0 0 0 0 0 0 0.3 0 0 0 0 0 0 0 0.3 0 0 0 0 0 0 0 0 0 0.3 0.3 0 0 0 0 0 0 0 0 0.3 0 0 0 0 0.3 0 0 0 0 0 0 0 0 0 0.3 0 0 0.3 0 0 0 0 0.3 0 0 0 0 0 0 0 0 0 0zm-1.77 1.19l0 -0.3 0 0 0.3 0 0 0 0 0 0 0 0 0 0 0 0.3 0 0 -0.3 0 0 0 0 0 0 0 0 0 0 0.3 0 0 0 0 0 0 0 0 0 0 0 0 0 0 0 0 0 0 -0.3 0 0 0 0 0.3 0 0 0 0 0 0 0 0 0 0 -0.3 0 0 0.59 0 0 0.3 0 0 -0.3 0 0 0 0 0 0 0.3 0 0 0 0 0 0 0 0 0 0.3 0 0 -0.3 0 0 0 0 0 0 0 0 0 0 0.3 -0.3 0 0 0 0 0 0 0 0 0 -0.3 0 0 0 0 0 0 0 -0.3 0 0 0 0 0 0 0 -0.3 0 0 0 0 0zm-0.89 0l0 -0.3 0 0 0 0 0 0 0 0 0 0 0 0 0 0 0.3 0 0 0 0 0 0 0 0 0 0 0 0 0 0 0 0.3 0 0 0 0 0 0 0 0 0 0 0 0 0 0 0 0 0 0.3 0 0 0 0 0 0 0 0 0 0 0 0 0 0 0 0 0 0 0.3 0 0 0 0 0 0 0 0 0 0 0 0 0 0 0 0 -0.3 0 0 0 0 0 0 0 0 0 0 0 0 0 0 0 -0.3 0 0 0 0 0 0 0 0 0 0 0 0 0 0 0 0 0 -0.3 0 0 0 0 0 0 0 0 0 0 0 0 0 0 0z"/>
    </g>
    <g>
     <path class="fil1" d="M106.59 82.35c-0.3,0.59 -0.59,0.89 -0.89,0.89 -0.59,0 -1.18,0 -1.48,-0.3 -0.3,-0.59 -0.89,-1.48 -1.19,-2.07 0,-0.3 0.3,-0.89 0.59,-1.19 0.3,0 1.18,0 1.18,0 0.59,0.89 1.18,1.78 1.78,2.66l-0 0z"/>
     <path id="_1_58" class="fil1" d="M105.7 83.53l0 -0.59 0 0 0 0 0 0 0 0 0 0 0 0 0 0 0 0 0 0 0 0 0 0 0 0 0 0 0 0 0 0 0.3 0 0 0 0 0 0 -0.3 0 0 0 0 0 0 0 0 0 0 0 0 0.3 0 0 -0.3 0 0 0 0 0 0 0 0 0 0 0.3 0 0.3 0.3 0 0 0 0 -0.3 0 0 0 0 0 0 0.3 0 0 0 0 0 0 0 0 0 0 -0.3 0 0 0 0 0.3 0 0 0 0 0 0 0 0 0 0 0 0 -0.3 0 0 0 0 0 0 0.3 0 0 0 0 0 0 0 0 -0.3 0 0 0 0 0 0 0 0 0 0 0zm0 -0.59l0 0 0.3 0 -0.3 0zm-1.48 0l0.3 -0.3 0 0 0 0 0 0.3 0 0 0 0 0 0 0 0 0.3 0 0 0 0 0 0 0 0 0 0 0 0 0 0 0 0 0 0.3 0 0 0 0 0 0 0 0 0 0 0 0 0 0.3 0 0 0 0 0 0 0 0 0 0 0 0 0 0 0 0 0 0.3 0 0 0.59 0 0 -0.3 0 0 0 0 0 0 0 0 0 0 0 -0.3 0 0 0 0 0 0 0 0 0 0 0 -0.3 0 0 0 0 0 0 0 0 0 -0.3 0 0 0 0 0 0 -0.3 0 0 0 0 0 0 -0.3 0 0 0 0 0 0 0 0 0 0 0 0 -0.3 0 0 0 -0zm0.3 -0.3l0 0 0 0 0 0zm-1.48 -1.77l0.3 0 0 0 0 0 0.3 0 0 0 0 0.3 0 0 0 0 0 0 0 0.3 0 0 0 0 0 0 0 0 0.3 0.3 0 0 0 0 0 0 0 0 0 0.3 0 0 0 0 0.3 0 0 0.3 0 0 0 0 0 0 0 0 0 0.3 0 0 0.3 0 0 0 0 0 0 0 -0.3 0.3 -0.3 0 0 0 0 0 0 0 0 -0.3 0 0 -0.3 0 0 0 0 0 0 -0.3 0 0 0 0 0 0 -0.3 -0.3 0 0 0 0 0 0 0 0 0 -0.3 0 0 0 0 0 0 -0.3 -0.3 0 0 0 0 0 0 0 -0.3 0 0 0 0 0 0 0 0 0 -0.3 0 0zm0.3 0l0 0 0.3 0.3 -0.3 -0.3zm0 -1.19l0.3 0.3 0 0 0 0 0 0 0 0 0 0 0 0 0 0 0 0 0 0 0 0 0 0.3 0 0 0 0 0 0 0 0 0 0 0 0 -0.3 0 0 0 0 0.3 0 0 0 0 0 0 0 0 0 0 0 0 0 0 0 0 0 0.3 0 0 0 0 0 0 0 0 -0.3 0 0 0 -0.3 0 0 0 0 0 0 -0.3 0 0 0 0 0 0 0 0 0 0 0.3 0 0 -0.3 0 0 0 0 0 0 0 0 0 0 0 -0.3 0 0 0 0 0 0 0 0 0 0 0 0 0 -0.3 0.3 0 0 0 0 0 0 0 0 0 0 0 0 0 0 0zm1.78 0l-0.59 0.3 0 0 0 0 0 0 0 0 0 0 0 0 0 0 0 0 0 0 0 0 0 0 0 0 0 0 -0.3 0 0 0 0 0 0 0 0 0 0 0 0 0 0 0 -0.3 0 0 0 0 0 0 0 0 0 0 0 0 0 0 0 0 0 -0.3 0 0 0 0 0 -0.3 -0.3 0 -0.3 0.3 0 0 0 0 0 0 0 0 0 0 0 0.3 0 0 0 0 0 0 0 0 0 0 0 0.3 0 0 0 0 0 0 0 0 0 0.3 0 0 0 0 0 0 0 0 0 0.3 0 0 0 0 0 0 0 0 0 0 0 0 0 0.3 0.3 0 0 0 0 0 0zm-0.59 0.3l0 0 0 0 0 0zm2.36 2.66l-0.3 -0.3 -0.3 0.3 0 -0.3 0 0 0 0 0 0 -0.3 -0.3 0 0 0 0 0 -0.3 0 0 -0.3 0 0 -0.3 0 0 0 0 0 0 0 -0.3 -0.3 0 0 0 0 -0.3 0 0 0 0 -0.3 0 0 -0.3 0 0 0 0 0 -0.3 -0.3 0 0 0 0 0 0 -0.3 0 0 -0.3 0 0 0 0.59 -0.3 0 0 0 0 0 0 0.3 0.3 0 0 0 0 0 0.3 0 0 0.3 0 0 0 0 0.3 0 0 0 0 0.3 0.3 0 0 0 0 0 0 0 0.3 0.3 0 0 0 0 0.3 0 0 0 0 0 0 0.3 0.3 0 0 0 0 0 0.3 0 0 0.3 0 0 0.3 0 0 0 0.3 -0 0zm0 -0.3l0 0 0 0.3 0 -0.3z"/>
    </g>
    <g>
     <path class="fil1" d="M34.44 47.16c0,0.59 0,0.89 0,1.18 -0.3,0.59 -0.59,0.89 -1.18,0.89 -0.3,0 -0.89,-0.3 -0.89,-0.59 -0.3,-0.89 -0.3,-1.77 -0.3,-2.66 0.3,-0.3 0.89,-0.59 1.18,-0.59 0.3,0 0.89,0.3 1.18,0.89 0,0.3 0,0.59 0,0.89 0,0 0,0 0,0z"/>
     <path id="_1_59" class="fil1" d="M34.74 48.64l-0.59 -0.3 0 0 0 0 0 0 0 0 0 0 0 0 0 0 0 -0.3 0 0 0 0 0 0 0 0 0 0 0 0 0 0 0 0 0 0 0 -0.3 0 0 0 0 0 0 0 0 0 0 0 0 0 0 0 -0.3 0 0 0 0 0 0 0 0 0 0 0 0 0 -0.3 0.59 0 0 0.3 0 0 0 0 0 0 0 0 0 0 0 0 0 0 0 0.3 0 0 0 0 0 0 0 0 0 0 0 0 0 0 0 0.3 0 0 0 0 0 0 0 0 0 0 0 0 0 0.3 0 0 0 0 0 0 0 0 0 0 0 0 0 0.3 0 0 0 0zm-1.48 0.89l0 -0.59 0 0 0 0 0 0 0 0 0.3 0 0 0 0 0 0 0 0 0 0 0 0 0 0 0 0 0 0 0 0 0 0.3 0 0 0 0 0 0 -0.3 0 0 0 0 0 0 0 0 0 0 0 0 0.3 0 0 0 0 0 0 -0.3 0 0 0 0 0 0 0 0 0.59 0.3 0 0 0 0 -0.3 0 0 0 0 0 0 0.3 0 0 0 0 0 0 0 0 0 0 0 0 -0.3 0 0 0.3 0 0 0 0 0 0 0 0 0 0 -0.3 0 0 0 0 0 0 0.3 0 0 0 0 -0.3 0 0 0 0 0 0 0 0 0 0 0 -0.3 0 0 0 0 0zm-1.18 -0.89l0.3 0 0 0 0 0 0 0 0 0 0.3 0 0 0 0 0 0 0 0 0 0 0 0 0 0 0 0 0 0 0.3 0 0 0 0 0.3 0 0 0 0 0 0 0 0 0 0 0 0 0 0 0 0.3 0 0 0 0 0 0 0 0 0 0 0 0 0 0 0 0 0 0 0.59 0 0 0 0 0 0 0 0 -0.3 0 0 0 0 0 0 0 0 0 0 0 -0.3 0 0 0 0 -0.3 0 0 0 0 -0.3 0 0 0 0 0 0 0 0 0 0 0 0 -0.3 -0.3 0 0 0 0 0 0 0 0 0 0 0 0 -0.3 0 0 0 0 0 0 0 0 0 -0zm0 -2.66l0.3 0.3 0 0 0 0 0 0 0 0 0 0.3 0 0 0 0 0 0 0 0.3 0 0 0 0 0 0 0 0.3 0 0 0 0 0 0 0 0.3 0 0 0 0 0 0 0 0.3 0 0 0 0 0 0 0 0.3 0 0 0 0 0 0 0 0.3 0 0 0 0 0 0 0 0.3 -0.3 0 0 0 -0.3 -0.3 0 0 0 0 0 0 0 -0.3 0 0 0 0 0 0 0 -0.3 0 0 0 0 0 -0.3 0 0 0 0 0 0 0 -0.3 0 0 0 0 0 0 0 -0.3 0 0 0 0 0 -0.3 0 0 0 0 0 0 0 -0.3 0 0 0 0 0 0 0.3 -0.3 0 0zm1.18 -0.89l0 0.59 0 0 0 0 0 0 0 0 0 0 0 0 0 0 0 0 0 0 -0.3 0 0 0 0 0 0 0 0 0 0 0 0 0 0 0 -0.3 0 0 0.3 0 0 0 0 0 0 0 0 0 0 0 0 0 0 0 0 0 0 -0.3 0 0 0 0 0 0 0.3 0 0 -0.3 -0.3 0 0 0 0 0 0 0 0 0 -0.3 0 0 0 0 0 0 0 0 0 0 0.3 0 0 0 0 -0.3 0 0 0 0 0 0 0.3 0 0 0 0 0 0 0 0 0 0 -0.3 0.3 0 0 0 0 0 0 0 0 0 0 0 0.3 0 0 0 0 0 0 0 0 0 0 0zm1.48 0.89l-0.59 0.3 0 0 0 0 0 0 0 0 0 0 0 0 0 -0.3 -0.3 0 0 0 0 0 0 0 0 0 0 0 0 0 0 0 0 -0.3 0 0 -0.3 0 0 0 0 0 0 0 0 0 0 0 0 0 0 0 0 0 0 0 -0.3 0 0 0 0 0 0 0 0 0 0 0 0 -0.59 0 0 0.3 0 0 0 0 0 0 0 0 0 0.3 0 0 0 0 0 0 0.3 0 0 0 0 0 0 0.3 0 0 0 0 0 0 0 0 0 0 0.3 0 0 0.3 0 0 0 0 0 0 0 0 0 0 0 0 0.3 0 0 0 0 0.3 0 0 0 0 0 0 0 0 0zm-0.59 0.3l0 0 -0.3 -0.3 0.3 0.3zm0.3 0.89l0 0.3 -0.3 -0.3 0 0 0 0 0 0 0 0 0 0 0 0 0 0 0 -0.3 0 0 0 0 0 0 0 0 0 0 0 0 0 0 0 -0.3 0 0 0 0 0 0 0 0 0 0 0 0 0 0 0 0 0 0 0 -0.3 0 0 0 0 0 0 0 0 0 0 0 0 0.59 -0.3 0 0 0 0.3 0 0 0 0 0 0 0 0 0 0 0 0 0 0.3 0 0 0 0 0 0 0 0 0 0 0 0 0 0.3 0 0 0 0 0 0 0 0 0 0 0 0 0 0 0 0.3 0 0 0 0 0 0 0 0 0 0 0 0 0 0 0 0 -0.3 0 -0 0zm0 0.3l-0.3 0 0 -0.3 0.3 0.3zm0.3 -0.3l-0.59 0 0.3 0.3 0 0 0 0 0 0 0 0 0 0 0 0 0 0 0 0 0 0 0 0 0 0 0 0 0 0 0 0 0 0 0 0 0 0 0 0 0 0 0 0 0 0 0 0 0 0 0 0 0 0 0 0 0 0 0 0 0 0 0 0 0 0 0 0 0 -0.3 0 0 0 0 0 0 0 0 0 0 0 0 0 0 0 0 0 0 0 0 0 0 0 0 0 0 0 0 0 0 0 0 0 0 0 0 0 0 0 0 0 0 0 0 0 0 0 0 0 0 0 0 0 0 0 0 0 0 0 0 0 0 0 0 0.3 0 0 0zm-0.3 0l0.3 0 0 0 -0.3 0z"/>
    </g>
    <g>
     <path class="fil1" d="M34.44 89.44c0,0.3 0,0.59 0,0.89 -0.3,0.3 -0.59,0.89 -1.18,0.89 -0.3,0 -0.89,-0.3 -0.89,-0.89 -0.3,-0.59 -0.3,-1.48 -0.3,-2.37 0.3,-0.3 0.89,-0.59 1.18,-0.59 0.59,0 0.89,0.3 1.18,0.59 0,0.59 0,0.89 0,1.48 0,0 0,0 0,0z"/>
     <path id="_1_60" class="fil1" d="M34.74 90.33l-0.59 0 0 0 0 0 0 0 0 0 0 0 0 -0.3 0 0 0 0 0 0 0 0 0 0 0 0 0 0 0 0 0 0 0 0 0 -0.3 0 0 0 0 0 0 0 0 0 0 0 0 0 0 0 0 0 -0.3 0 0 0 0 0 0 0 0 0 0 0 0 0 0 0.59 0 0 0 0 0 0 0 0 0 0 0 0 0 0 0 0 0 0 0.3 0 0 0 0 0 0 0 0 0 0 0 0 0 0 0 0.3 0 0 0 0 0 0 0 0 0 0 0 0 0 0 0 0.3 0 0 0 0 0 0 0 0 0 0 0 0 0 0 0 0zm-1.48 1.18l0 -0.59 0 0 0 0 0 0 0 0 0 0 0.3 0 0 0 0 0 0 0 0 0 0 0 0 0 0 0 0 0 0 0 0.3 -0.3 0 0 0 0 0 0 0 0 0 0 0 0 0 0 0 0 0 0 0.3 -0.3 0 0 0 0 0 0 0 0 0 0 0 0 0 0 0.59 0 0 0.3 0 0 -0.3 0 0 0 0 0 0 0 0 0 0 0.3 0 0 0 0 0 0 -0.3 0 0 0 0 0 0 0 0 0.3 0 0 0 0 0 0 -0.3 0 0 0 0 0 0 0 0 0 0 0 -0.3 0.3 0 0 0 0 0 0 0 0 0 0 -0.3 0 0 0 0 0zm0 -0.59l0 0 0 0 0 0zm-1.18 -0.3l0.3 -0.3 0 0 0 0 0 0 0 0 0.3 0.3 0 0 0 0 0 0 0 0 0 0 0 0 0 0 0 0 0 0 0 0 0 0 0.3 0 0 0.3 0 0 0 0 0 0 0 0 0 0 0 0 0.3 0 0 0 0 0 0 0 0 0 0 0 0 0 0 0 0 0 0 0.59 0 0 0 0 0 0 0 0 -0.3 0 0 0 0 0 0 0 0 -0.3 -0.3 0 0 0 0 0 0 0 0 0 0 0 -0.3 0 0 0 0 0 0 0 0 -0.3 0 0 0 0 -0.3 0 0 0 0 0 0 0 0 -0.3 0 0 0 0 0 0 0 0 0 0 0 0 0 0zm0 -2.66l0.3 0 0 0 0 0.3 0 0 0 0 0 0 0 0.3 0 0 0 0 0 0 0 0.3 0 0 0 0 0 0 0 0.3 0 0 0 0 0 0 0 0.3 0 0 0 0 0 0 0 0.3 0 0 0 0 0 0 0 0.3 0 0 0 0 0 0 0 0.3 0 0 0 0 0 0 -0.3 0.3 0 -0.3 -0.3 0 0 0 0 0 0 -0.3 0 0 0 0 0 0 0 -0.3 0 0 0 0 0 -0.3 0 0 0 0 0 0 0 -0.3 0 0 0 0 0 0 0 -0.3 0 0 0 0 0 -0.3 0 0 0 0 0 0 0 -0.3 0 0 0 0 0 0 0.3 -0.3 0 0 0 0zm0 0l0 0 0 0 0 0zm1.18 -0.89l0 0.3 0 0 0 0 0 0 0 0 0 0 0 0 0 0 0 0.3 0 0 -0.3 0 0 0 0 0 0 0 0 0 0 0 0 0 0 0 -0.3 0 0 0 0 0 0 0 0 0.3 0 0 0 0 0 0 0 0 0 0 0 0 -0.3 0 0 0 0 0 0 0 0 0 -0.3 0 0 0 0 0 0 -0.3 0 0 0 0 0 0 0 0 0 0 0 0 0 -0.3 0.3 0 0 0 0 0 0 0 0 0 0 0 0.3 0 0 0 0 -0.3 0 0 0 0 0 0 0.3 0 0 0 0 0 0 0 0 0 0.3 0 0 0 0 0 0 0 0 0 0 0zm0 0.3l0 0 0.3 0 -0.3 0zm1.48 0.59l-0.59 0.3 0 0 0 0 0 0 0 -0.3 0 0 0 0 0 0 0 0 -0.3 0 0 0 0 0 0 0 0 0 0 -0.3 0 0 0 0 0 0 0 0 -0.3 0 0 0 0 0 0 0 0 0 0 0 0 0 0 0 0 -0.3 0 0 -0.3 0 0 0 0 0 0 0 0 0 0 -0.3 0 0 0.3 0 0 0 0 0 0 0 0 0 0.3 0 0 0 0 0 0 0 0 0 0 0.3 0 0 0.3 0 0 0 0 0 0 0 0 0 0 0 0 0 0.3 0.3 0 0 0 0 0 0 0 0 0 0 0 0 0 0.3 0 0 0.3 0 0 0 0 0 0 0 0 0zm-0.59 0.3l0 0 0 0 0 0zm0.3 0.89l0 0.3 -0.3 0 0 -0.3 0 0 0 0 0 0 0 0 0 0 0 0 0 -0.3 0 0 0 0 0 0 0 0 0 0 0 0 0 -0.3 0 0 0 0 0 0 0 0 0 0 0 0 0 0 0 0 0 -0.3 0 0 0 0 0 0 0 0 0 0 0 0 0 0 0 0 0.59 -0.3 0 0 0 0 0 0.3 0 0 0 0 0 0 0 0 0 0 0 0 0 0.3 0 0 0 0 0 0 0 0 0 0 0 0 0 0.3 0 0 0 0 0 0 0 0 0 0 0 0 0 0.3 0 0 0 0 0 0 0 0 0 0 0 0 0 0 0 0.3 -0.3 -0.3 -0 0zm0 0.3l-0.3 0 0 0 0.3 0zm0.3 0l-0.59 0 0.3 0 0 0 0 0 0 0 0 0 0 0 0 0 0 0 0 0 0 0 0 0 0 0 0 0 0 0 0 0 0 0 0 0 0 0 0 0 0 0 0 0 0 0 0 0 0 0 0 0 0 0 0 0 0 0 0 0 0 0 0 0 0 0 0 0 0 -0.3 0 0 0 0 0 0 0 0 0 0 0 0 0 0 0 0 0 0 0 0 0 0 0 0 0 0 0 0 0 0 0 0 0 0 0 0 0 0 0 0 0 0 0 0 0 0 0 0 0 0 0 0 0 0 0 0 0 0 0 0 0 0 0 0 0.3 0.3 0 0zm-0.3 -0.3l0.3 0 0 0.3 -0.3 -0.3z"/>
    </g>
    <g>
     <path class="fil1" d="M72 42.72c-0.3,0.3 -0.59,0.89 -0.89,0.89 -0.59,0 -1.18,-0.3 -1.18,-0.59 -0.59,-0.89 -0.59,-1.48 -0.59,-2.36 0,-0.3 0.3,-0.89 0.89,-0.89 0.3,-0.3 0.89,0 1.18,0.3 0.3,0.89 0.3,1.78 0.59,2.66l0 0z"/>
     <path id="_1_61" class="fil1" d="M71.11 43.61l0 -0.3 0 0 0 0 0 0 0 0 0 0 0 0 0 0 0 0 0 0 0 0 0 -0.3 0.3 0 0 0 0 0 0 0 0 0 0 0 0 0 0 0 0 0 0 0 0 0 0.3 -0.3 0 0 0 0 0 0 0 0 0 0 0 0 0 0 0 0 0 0 0.3 -0.3 0.3 0.59 0 0 0 0 0 0 0 0 -0.3 0 0 0 0 0 0 0 0 0 0 0.3 0 0 0 0 0 0 0 0 -0.3 0 0 0 0 0 0 0 0 0 0 0.3 0 0 0 0 -0.3 0 0 0 0 0 0 0 0 0 0 0 0 0 -0.3 0 0 0 0 0 0 0 0 0zm-1.48 -0.59l0.3 -0.3 0 0 0 0 0.3 0 0 0.3 0 0 0 0 0 0 0 0 0 0 0 0 0 0 0 0 0 0 0 0 0.3 0 0 0 0 0 0 0 0 0.3 0 0 0 0 0.3 0 0 0 0 0 0 0 0 0 0 0 0 0 0 0 0 0 0.3 0 0 0 0 0 0 0.3 0 0.3 0 0 -0.3 0 0 -0.3 0 0 0 0 0 0 -0.3 0 0 0 0 0 0 0 0 0 0 0 -0.3 0 0 0 0 0 0 0 0 0 -0.3 0 0 0 0 -0.3 0 0 0 0 0 0 0 0 -0.3 0 0 0 0 0 0 -0.3 0 0 0 0 0 0 0 0zm-0.59 -2.36l0.59 0 0 0 0 0 0 0 0 0.3 0 0 0 0 0 0 0 0.3 0 0 0 0 0 0 0 0 0 0.3 0 0 0 0 0 0 0 0.3 0 0 0 0 0 0 0 0.3 0 0 0.3 0 0 0 0 0.3 0 0 0 0 0 0 0 0 0 0.3 0 0 0 0 0 0 -0.3 0.3 0 0 0 0 -0.3 -0.3 0 0 0 0 0 0 0 -0.3 0 0 0 0 0 0 0 -0.3 0 0 0 0 -0.3 0 0 -0.3 0 0 0 0 0 0 0 -0.3 0 0 0 0 0 0 0 -0.3 0 0 0 0 0 -0.3 0 0 0 0 0 0 0 -0.3 0 0 0 0 0 0 -0 0zm0.89 -1.19l0.3 0.3 0 0 0 0 0 0 0 0 -0.3 0 0 0 0 0.3 0 0 0 0 0 0 0 0 0 0 0 0 0 0 0 0 -0.3 0 0 0 0 0 0 0.3 0 0 0 0 0 0 0 0 0 0 0 0 0 0 0 0 0 0.3 0 0 0 0 0 0 0 0 0 0 -0.59 0 0 0 0 0 0 -0.3 0 0 0 0 0 0 0 0 0 0 0 -0.3 0 0 0 0 0 0 0 0 0.3 0 0 -0.3 0 0 0 0 0 0 0 0 0 0 0 0 0.3 0 0 -0.3 0 0 0 0 0 0 0 0 0.3 0 0 0 0 0 0 0 0 0 0 0 0 0zm1.77 0.59l-0.59 0.3 0 0 0 0 0 0 0 0 0 0 0 -0.3 0 0 0 0 -0.3 0 0 0 0 0 0 0 0 0 0 0 0 0 0 0 -0.3 0 0 0 0 0 0 0 0 0 0 -0.3 0 0 0 0 -0.3 0 0 0 0 0 0 0 0 0 0 0 0 0 0 0 0 0 -0.3 -0.3 0 0 0.3 0 0 0 0 0 0 0 0 0 0.3 0 0 0 0 0 0 0 0 0 0.3 0 0 0 0 0 0 0 0 0 0 0 0.3 0 0 0.3 0 0 0 0 0 0 0 0 0.3 0 0 0 0 0 0 0 0 0.3 0 0 0 0 0.3 0 0 0 0 0 0 0zm-0.59 0.3l0 0 0 -0.3 0 0.3zm1.18 2.66l-0.3 -0.59 -0.3 0.3 0 0 0 0 0 -0.3 0 0 0 0 0 -0.3 0 0 0 0 0 -0.3 0 0 -0.3 0 0 0 0 -0.3 0 0 0 0 0 0 0 -0.3 0 0 0 0 0 0 0 -0.3 0 0 0 0 0 0 0 -0.3 -0.3 0 0 0 0 0 0 -0.3 0 0 0 0 0 0 0.59 -0.3 0 0 0 0.3 0 0 0 0 0 0 0 0.3 0 0 0 0 0 0 0.3 0.3 0 0 0 0 0 0 0 0.3 0 0 0 0 0 0 0 0.3 0 0 0 0 0 0.3 0 0 0 0 0.3 0 0 0.3 0 0 0 0 0 0.3 0 0 0 0 0 0.3 0 0 0 0.3 -0 0zm0 -0.3l0 0 0 0.3 0 -0.3z"/>
    </g>
    <g>
     <path class="fil1" d="M34.44 68.15c0,0.59 0,0.89 0,1.18 0,0.59 -0.3,0.89 -1.18,0.89 -0.59,0.3 -1.18,-0.3 -1.18,-0.89 0,-0.59 0,-1.48 0,-2.07 0,-0.59 0.59,-1.19 1.18,-0.89 0.89,0 1.18,0.3 1.18,0.89 0,0.3 0,0.59 0,0.89z"/>
     <path id="_1_62" class="fil1" d="M34.74 69.33l-0.59 0 0 0 0 0 0 -0.3 0 0 0 0 0 0 0 0 0 0 0 0 0 0 0 0 0 0 0 -0.3 0 0 0 0 0 0 0 0 0 0 0 0 0 0 0 0 0 0 0 -0.3 0 0 0 0 0 0 0 0 0 0 0 0 0 0 0 0 0 0 0 -0.3 0.59 0 0 0.3 0 0 0 0 0 0 0 0 0 0 0 0 0 0 0 0 0 0 0 0.3 0 0 0 0 0 0 0 0 0 0 0 0 0 0 0 0 0 0 0 0.3 0 0 0 0 0 0 0 0 0 0 0 0 0 0 0 0 0 0 0 0.3 0 0 0 0zm0 0l0 0 0 0 0 0zm-1.48 1.19l0 -0.3 0 0 0 0 0.3 0 0 -0.3 0 0 0 0 0 0 0 0 0 0 0.3 0 0 0 0 0 0 0 0 0 0 0 0 0 0 0 0 0 0 0 0.3 -0.3 0 0 0 0 0 0 0 0 0 0 0 0 0 0 0 -0.3 0 0 0 0 0 0 0 0 0 0 0.59 0 0 0 0 0 0 0 0 0.3 0 0 0 0 0 0 0 0 0 0.3 -0.3 0 0 0 0 0 0 0 0 0 0 0.3 0 0 0 0 -0.3 0 0 0 0 0 0 0 0 0.3 -0.3 0 0 0 0 0 0 0 0 0 -0.3 0 0 0 0 0 0 0 -0.3 0 0 0 0 0zm0 -0.3l0 0 0 0 0 0zm-1.48 -0.89l0.59 0 0 0 0 0 0 0 0 0 0 0.3 0 0 0 0 0 0 0 0 0.3 0 0 0 0 0 0 0.3 0 0 0 0 0 0 0 0 0 0 0 0 0 0 0 0 0.3 0 0 0 0 0 0 0 0 0 0 0 0 0.3 0.3 0 0 0 0 0 0 0 0 0 0 0.3 0 0 0 0 0 0 -0.3 0 0 0 0 0 0 0 -0.3 0 0 0 0 0 0 0 -0.3 0 0 0 0 -0.3 0 0 0 0 0 0 -0.3 0 0 0 0 -0.3 0 0 0 0 0 0 0 0 0 0 0 -0.3 -0.3 0 0 0 0 0 0 0 0 -0.3 0 0 0 0 0 0zm0.59 0l0 0 0 0 0 0zm-0.59 -2.07l0.59 0 0 0 0 0 0 0 0 0.3 0 0 0 0 0 0 0 0 0 0.3 0 0 0 0 0 0 0 0.3 0 0 0 0 0 0 0 0 0 0.3 0 0 0 0 0 0 0 0.3 0 0 0 0 0 0 0 0 0 0.3 0 0 0 0 0 0 0 0.3 0 0 0 0 -0.59 0 0 0 0 0 0 -0.3 0 0 0 0 0 0 0 0 0 -0.3 0 0 0 0 0 0 0 -0.3 0 0 0 0 0 0 0 -0.3 0 0 0 0 0 0 0 0 0 -0.3 0 0 0 0 0 0 0 -0.3 0 0 0 0 0 0 0 0 0 -0.3 0 0 0 0 0 0zm0 0l0 0 0 0 0 0zm1.48 -1.19l0 0.3 0 0 0 0 0 0 0 0 0 0 -0.3 0 0 0 0 0 0 0.3 0 0 0 0 0 0 -0.3 0 0 0 0 0 0 0 0 0 0 0 0 0 0 0 0 0 0 0 0 0.3 -0.3 0 0 0 0 0 0 0 0 0 0 0 0 0 0 0.3 0 0 0 0 -0.59 0 0 0 0 -0.3 0 0 0 0 0 0 0.3 0 0 -0.3 0 0 0 0 0 0 0 0 0 -0.3 0 0 0 0 0.3 0 0 0 0 0 0 0 0 -0.3 0 0 0.3 0 0 0 0 0 0 0 0.3 0 0 0 0 0 0 0 0.3 0 0 0 0 0 0 0 0 0 0 0zm1.48 1.19l-0.59 0 0 0 0 0 0 0 0 0 0 0 0 -0.3 0 0 0 0 0 0 0 0 0 0 0 0 0 0 0 -0.3 -0.3 0 0 0 0 0 0 0 0 0 0 0 0 0 0 0 0 0 0 0 0 0 -0.3 0 0 0 0 -0.3 0 0 0 0 0 0 -0.3 0 0 0 0 -0.3 0.3 0 0 0 0 0 0 0 0.3 0 0 0 0 0 0 0 0 0 0.3 0 0 0 0 0.3 0 0 0 0 0.3 0 0 0 0 0 0 0 0 0.3 0 0 0 0 0 0 0.3 0 0 0 0 0.3 0 0 0 0 0 0 0 0.3 0 0 0 0 0 0 0 0 0 0zm-0.59 0l0 0 0 0 0 0zm0.59 0.89l-0.59 0 0 0 0 0 0 0 0 0 0 0 0 0 0 0 0 0 0 0 0 0 0 -0.3 0 0 0 0 0 0 0 0 0 0 0 0 0 0 0 0 0 0 0 -0.3 0 0 0 0 0 0 0 0 0 0 0 0 0 0 0 0 0 0 0 -0.3 0 0 0 0 0.59 0 0 0 0 0 0 0 0 0.3 0 0 0 0 0 0 0 0 0 0 0 0 0 0 0 0 0 0.3 0 0 0 0 0 0 0 0 0 0 0 0 0 0 0 0 0 0 0 0.3 0 0 0 0 0 0 0 0 0 0 0 0 0 0 0 0 0 0 0 0zm-0.59 0l0 0 0 0 0 0z"/>
    </g>
    <g>
     <path class="fil1" d="M34.44 78.8c0,0.3 0,0.89 0,0.89 -0.3,0.59 -0.59,1.19 -1.18,1.19 -0.3,0 -0.89,-0.59 -1.18,-0.89 0,-0.89 0,-1.48 0,-2.07 0,-0.89 0.59,-1.18 1.18,-1.18 0.89,0 1.18,0.59 1.18,1.18 0,0.3 0,0.59 0,0.89 0,0 0,0 0,0z"/>
     <path id="_1_63" class="fil1" d="M34.74 79.98l-0.59 -0.3 0 0 0 0 0 0 0 0 0 0 0 0 0 0 0 0 0 0 0 -0.3 0 0 0 0 0 0 0 0 0 0 0 0 0 0 0 0 0 0 0 0 0 -0.3 0 0 0 0 0 0 0 0 0 0 0 0 0 0 0 -0.3 0 0 0 0 0 0 0 0 0.59 0 0 0 0 0 0 0 0 0 0 0 0 0.3 0 0 0 0 0 0 0 0 0 0 0 0 0 0 0 0 0 0.3 0 0 0 0 0 0 0 0 0 0 0 0 0 0 0 0.3 0 0 0 0 0 0 0 0 0 0 0 0 0 0.3 0 0 0 0 0 0zm-1.48 0.89l0 -0.3 0 0 0 0 0 0 0 0 0 0 0 0 0.3 0 0 0 0 0 0 -0.3 0 0 0 0 0 0 0 0 0 0 0 0 0.3 0 0 0 0 0 0 0 0 -0.3 0 0 0 0 0 0 0 0 0 0 0.3 0 0 0 0 -0.3 0 0 0 0 0 0 0 0 0.59 0.3 0 0 0 0 -0.3 0 0 0 0 0.3 0 0 0 0 0 0 0 0 0 0 0 0 -0.3 0.3 0 0 0 0 0 0 0 0 0 0 0 0 -0.3 0 0 0.3 0 0 0 0 0 0 0 0 0 0 -0.3 0 0 0 0 0 0 0 0 0 -0.3 0 0 0 0 0 0 0zm0 0l0 0 0 0 0 0zm-1.48 -0.89l0.59 -0.3 0 0 0 0.3 0 0 0 0 0 0 0.3 0 0 0 0 0 0 0 0 0 0 0 0 0 0 0.3 0 0 0 0 0 0 0.3 0 0 0 0 0 0 0 0 0 0 0 0 0 0 0.3 0.3 0 0 0 0 0 0 0 0 0 0 0 0 0 0 0 0 0 0 0.3 0 0 0 0 0 0 -0.3 0 0 0 0 0 0 0 0 0 0 0 -0.3 0 0 0 0 0 0 0 0 -0.3 0 0 -0.3 0 0 0 0 0 0 0 0 0 0 0 -0.3 -0.3 0 0 0 0 0 0 0 0 0 0 0 0 0 -0.3 0 0 0 0 -0.3 0 0 0 0 0zm0 -2.07l0.59 0 0 0 0 0 0 0 0 0 0 0.3 0 0 0 0 0 0 0 0 0 0.3 0 0 0 0 0 0 0 0.3 0 0 0 0 0 0 0 0 0 0.3 0 0 0 0 0 0 0 0 0 0.3 0 0 0 0 0 0 0 0 0 0.3 0 0 0 0 0 0 0 0 -0.59 0.3 0 0 0 -0.3 0 0 0 0 0 0 0 0 0 -0.3 0 0 0 0 0 0 0 -0.3 0 0 0 0 0 0 0 -0.3 0 0 0 0 0 0 0 -0.3 0 0 0 0 0 0 0 0 0 -0.3 0 0 0 0 0 0 0 -0.3 0 0 0 0 0 0 0 0 0 0zm1.48 -1.48l0 0.59 0 0 0 0 0 0 0 0 -0.3 0 0 0 0 0 0 0 0 0 0 0 0 0 -0.3 0 0 0 0 0 0 0 0 0 0 0 0 0.3 0 0 0 0 0 0 0 0 0 0 -0.3 0 0 0 0 0 0 0.3 0 0 0 0 0 0 0 0 0 0 0 0.3 -0.59 0 0 -0.3 0 0 0 0 0 0 0 -0.3 0 0 0.3 0 0 0 0 0 0 -0.3 0 0 0 0 0 0 0 0 0 -0.3 0.3 0 0 0 0 0 0 0 0 0 0.3 0 0 0 0 -0.3 0 0 0 0 0.3 0 0 0 0 0 0.3 0 0 0 0 0 0 0 0 0 0 0zm0 0.59l0 0 0 0 0 0zm1.48 0.89l-0.59 0 0 0 0 0 0 -0.3 0 0 0 0 0 0 0 0 0 0 0 -0.3 0 0 0 0 0 0 0 0 0 0 0 0 -0.3 0 0 0 0 0 0 -0.3 0 0 0 0 0 0 0 0 0 0 0 0 -0.3 0 0 0 0 0 0 0 0 0 0 0 -0.3 0 0 0 0 -0.59 0.3 0 0 0 0 0 0 0 0.3 0 0 0 0 0 0 0.3 0.3 0 0 0 0 0 0 0 0 0 0.3 0 0 0 0 0.3 0 0 0 0 0 0 0 0 0 0 0 0.3 0.3 0 0 0 0 0 0 0 0 0.3 0 0 0 0 0 0 0 0 0 0.3 0 0 0 0zm-0.3 1.19l0 -0.59 -0.3 0.3 0 0 0 0 0 0 0 -0.3 0 0 0 0 0 0 0 0 0 0 0 0 0 0 0 0 0 0 0 -0.3 0 0 0 0 0 0 0 0 0 0 0 0 0 0 0 0 0 0 0 -0.3 0 0 0 0 0 0 0 0 0 0 0 0 0 0 0 0 0.59 0 0 0 0 0 0 0 0 0 0 0 0 0 0 0 0 0 0 0.3 0 0 0 0 0 0 0 0 0 0 0 0 0 0 0 0 0 0 0 0.3 0 0 0 0 0 0 0 0 0 0 0 0 0 0 0 0 0 0.3 0 0 0 0 0 0 0 0 -0.3 0.3 -0 0zm0.3 -0.3l0 0.3 -0.3 0 0.3 -0.3zm0 0l-0.59 0 0.3 -0.3 0 0 0 0 0 0 0 0 0 0 0 0 0 0 0 0 0 0 0 0 0 0 0 0 0 0 0 0 0 0 0 0 0 0 0 0 0 0 0 0 0 0 0 0 0 0 0 0 0 0 0 0 0 0 0 0 0 0 0 0 0 0 0 0 0 0.59 0 0 0 0 0 0 0 0 0 0 0 0 0 0 0 0 0 0 0 0 0 0 0 0 0 0 0 0 0 0 0 0 0 0 0 0 0 0 0 0 0 0 0 0 0 0 0 0 0 0 0 0 0 0 0 0 0 0 0 0 0 0 0 0 0.3 -0.3 0 0zm-0.59 0l0 -0.3 0.3 0 -0.3 0.3z"/>
    </g>
    <g>
     <path class="fil1" d="M107.18 100.97c-0.59,0.89 -0.89,1.78 -1.48,2.66 -0.3,0.3 -1.18,0.3 -1.48,0 -0.3,0 -0.59,-0.59 -0.59,-0.89 0.3,-0.89 0.59,-1.48 1.19,-2.37 0.3,-0.3 0.89,-0.3 1.18,-0.3 0.3,0 0.59,0.59 1.18,0.89z"/>
     <path id="_1_64" class="fil1" d="M106 103.63l-0.59 -0.3 0 0 0 0 0 0 0 0 0.3 -0.3 0 0 0 0 0 0 0 -0.3 0 0 0.3 0 0 0 0 -0.3 0 0 0 0 0 0 0 -0.3 0.3 0 0 0 0 -0.3 0 0 0 0 0 0 0 -0.3 0.3 0 0 0 0 -0.3 0 0 0 0 0 -0.3 0 0 0.3 0 0 0 0.3 0 0 0.3 0 0 0 0 0 0 0 0.3 0 0 -0.3 0 0 0.3 0 0 0 0 0 0.3 0 0 0 0 -0.3 0 0 0.3 0 0 0 0 0 0 0 0.3 0 0 -0.3 0 0 0.3 0 0 0 0 0 0 0 0.3 -0.3 0 0 0 0 0 0 0.3 0 0 0 0 0 0 0 0zm-0.59 -0.3l0 0 0 0 0 0zm-1.18 0.59l0.3 -0.3 0 0 0 0 0 0 0 0 0 0 0 0 0 0 0 0 0 0 0.3 0 0 0 0 0 0 0 0 0 0 0 0 0 0.3 0 0 0 0 0 0 0 0 0 0 0 0 0 0.3 0 0 0 0 -0.3 0 0 0 0 0 0 0 0 0 0 0 0 0 0 0.59 0.3 -0.3 0 0 0.3 0 0 0 0 0 0 0 0 0 0 -0.3 0 0 0 0 0 0 0 0 0 -0.3 0 0 0 0 0 0 0 0 0 0 0 -0.3 0 0 0 0 0.3 0 0 0 0 -0.3 -0.3 0 0 0 0 0 0 0 0 -0.3 0 0 0 0 0 0 0 0 0 0 0zm0.3 -0.3l0 0 -0.3 0 0.3 0zm-0.89 -0.89l0.3 0 0 0 0 0 0 0 0 0 0 0 0 0 0 0 0 0 0 0.3 0 0 0 0 0 0 0.3 0 0 0 0 0 0 0 0 0 0 0.3 0 0 0 0 0 0 0 0 0 0 0 0 0 0 0 0 0 0 0 0 0.3 0.3 0 0 0 0 0 0 0 0 -0.3 0.3 0 0 0 0 -0.3 0 0 0 0 0 0 0 0 -0.3 0 0 0 0 0 0 -0.3 0 0 0 0 0 0 -0.3 0 0 0 0 0 0 0 0 0 0 0 0 0 -0.3 0 0 0 0 0 0 -0.3 0 0 0 0 -0.3 0 0 0 0 0 0 0 0 0.3 0 0 0zm0.3 0l0 0 0 0 0 0zm0.59 -2.37l0.59 0.3 0 0 0 0 -0.3 0 0 0 0 0.3 0 0 0 0 0 0 0 0 -0.3 0.3 0 0 0 0 0 0 0 0.3 0 0 0 0 0 0 0 0.3 -0.3 0 0 0 0 0 0 0 0 0.3 0 0 0 0 0 0 0 0.3 0 0 0 0 0 0 -0.3 0.3 0 0 0 0 -0.3 0 0 -0.3 0 0 0 0 0 0 0 -0.3 0 0 0 0 0 0 0 -0.3 0 0 0 0 0.3 0 0 -0.3 0 0 0 0 0 0 0 -0.3 0 0 0 0 0 0 0.3 -0.3 0 0 0 0 0 0 0 -0.3 0 0 0 0 0 0 0.3 0 0 -0.3 0 0 0 0 0 0 0 0zm1.48 -0.59l0 0.59 0 0 0 0 0 0 0 0 0 0 0 0 -0.3 0 0 0 0 0 0 0 0 0 0 0 0 0 0 0 -0.3 0 0 0 0 0 0 0 0 0 0 0 0 0 0 0 -0.3 0 0 0 0 0 0 0 0 0 0 0.3 0 0 0 0 0 0 0 0 0 0 -0.59 -0.3 0 0 0 0 0 0 0.3 -0.3 0 0 0 0 0 0 0 0 0 0 0 0 0.3 0 0 0 0 0 0 0 0 -0.3 0 0 0.3 0 0 0 0 0 0 0 0 0 0.3 0 0 0 0 0 0 0 0 0 0 0 0.3 0 0 0 0 0 0 0 0 0 0 0 0 0zm0 0.59l0 0 0 0 0 0zm1.18 0.59l-0.3 0 0 0 0 0 0 0 0 0 -0.3 0 0 0 0 0 0 0 0 -0.3 0 0 0 0 0 0 0 0 -0.3 0 0 0 0 0 0 0 0 0 0 -0.3 0 0 0 0 0 0 0 0 0 0 -0.3 0 0 0 0 0 0 0 0 0 0 0 0 0 0 0 0 0 0 -0.59 0.3 0 0 0 0 0 0 0 0 0 0 0 0.3 0.3 0 0 0 0 0 0 0 0 0 0 0 0 0 0 0.3 0 0 0.3 0 0 0 0 0 0 0 0 0 0 0 0 0 0 0 0 0.3 0.3 0 0 0 0 0 0 0 0 0 0 0 0 0 0 0 0.3 0 0zm0 -0.3l0.3 0.3 -0.3 0 0 -0.3z"/>
    </g>
    <g>
     <path class="fil1" d="M64.02 30.6c0.89,0 3.25,1.78 2.96,2.66 0,0.3 -0.3,0.59 -0.59,0.89 -0.3,0 -0.89,0 -1.19,-0.3 -0.59,-0.3 -1.18,-0.89 -1.78,-1.48 -0.3,-0.3 -0.3,-0.59 -0.3,-0.89 0.3,-0.3 0.59,-0.59 0.89,-0.89z"/>
     <path id="_1_65" class="fil1" d="M67.27 33.26l-0.59 0 0 0 0 0 0 -0.3 0 0 0 0 0 0 0 0 0 -0.3 -0.3 0 0 0 0 -0.3 0 0 -0.3 0 0 -0.3 0 0 -0.3 0 0 -0.3 -0.3 0 0 0 0 -0.3 -0.3 0 0 0 -0.3 0 0 -0.3 0 0 -0.3 0 0 0 -0.3 0 0 0 0 -0.3 -0.3 0 0 0 0 0 0 -0.3 0 0 0.3 0 0 0 0.3 0 0 0 0.3 0 0 0 0 0.3 0.3 0 0 0 0.3 0.3 0 0 0.3 0 0 0 0.3 0.3 0 0 0.3 0 0 0.3 0 0 0.3 0.3 0 0 0 0 0.3 0.3 0 0 0 0 0.3 0.3 0 0 0 0 0 0.3 0 0 0 0 0 0.3 0 0 0 0zm-0.59 0.89l-0.3 -0.3 0 0 0 0 0 0 0 0 0 0 0 0 0 0 0 0 0 0 0 0 0 0 0 -0.3 0.3 0 0 0 0 0 0 0 0 0 0 0 0 0 0 0 0 0 0 0 0 -0.3 0 0 0 0 0 0 0 0 0 0 0 0 0 0 0 0 0 0 0 0 0.59 0 0 0 0 0 0 0 0 0 0 0 0 0.3 0 0 0 0 0 0 0 0 0 0 0 0 0 0 0 0.3 0 0 -0.3 0 0 0 0 0 0 0 0 0 0 0 0 0.3 0 0 0 0 0 0 -0.3 0 0 0 0 0 0 0 0 0 0 0 0 0 0 0 0 0zm-1.48 0l0.3 -0.3 0 0 0 0 0 0 0 0 0 0 0 0 0 0 0 0 0 0 0 0 0.3 0 0 0 0 0 0 0 0 0 0 0 0 0 0 0 0.3 0 0 0 0 0 0 0 0 0 0 0 0 0 0 0 0 0 0 0 0.3 0 0 0 0 0 0 0 0 0 0.3 0.3 0 0.3 -0.3 0 0 0 0 0 0 0 0 0 0 0 -0.3 0 0 0 0 0 0 0 0 0 0 0 -0.3 0 0 0 0 0 0 0 0 0 0 0 -0.3 0 0 0 0 0 0 0 0 0 0 0 0 0 -0.3 -0.3 0 0 0 0 0 0 0 0 0 0 0 0zm0.3 -0.3l0 0 0.3 0.3 -0.3 -0.3zm-2.37 -1.18l0.59 -0.3 0 0 0 0 0 0 0 0 0 0 0.3 0 0 0.3 0 0 0 0 0 0 0 0 0.3 0 0 0.3 0 0 0 0 0 0 0.3 0 0 0 0 0.3 0 0 0 0 0.3 0 0 0 0 0 0 0.3 0 0 0.3 0 0 0 0 0 0 0 0 0 0.3 0.3 0 0 -0.3 0.3 -0.3 0 0 0 0 0 0 -0.3 0 0 -0.3 0 0 0 0 0 0 0 -0.3 0 0 -0.3 0 0 0 0 0 0 -0.3 0 0 0 0 -0.3 0 0 0 0 -0.3 0 0 0 0 -0.3 0 0 0 0 -0.3 0 0 0 0 0 0 -0.3 0 0 0 0 -0.3 0 0 0 0 0 -0 0zm0 -1.48l0.3 0.3 0 0 0 0 0 0 0 0 0 0 0 0 0 0 0 0 0 0 0 0.3 0 0 0 0 0 0 0 0 0 0 0 0 0 0 0 0 0 0 0 0.3 0 0 0 0 0 0 0 0 0 0 0 0 0 0 0 0 0.3 0 0 0 0 0 0 0 0 0.3 -0.59 0.3 0 -0.3 0 0 0 0 0 0 0 0 0 0 0 0 0 0 0 -0.3 0 0 -0.3 0 0 0 0 0 0 0 0 0 0 -0.3 0 0 0 0 0 0 0 0 0 0 0 0 0 -0.3 0 0 0 0 0 0 0 0 0 0 0 0 0 -0.3 0.3 0 0 0 0 0 0 0zm0.89 -0.59l0 0.3 0.3 0 -0.3 0 0 0 0 0 0 0 0 0 0 0 0 0 0 0.3 0 0 0 0 0 0 0 0 -0.3 0 0 0 0 0 0 0 0 0 0 0 0 0 0 0 0 0 0 0 0 0 0 0 0 0 0 0.3 -0.3 0 0 0 0 0 0 0 0 0 0 0 -0.3 -0.3 0 0 0 0 0 0 0 0 0 0 0 -0.3 0 0 0 0 0 0 0 0 0.3 0 0 0 0 0 0 0 0 0 0 0 0 0 0 -0.3 0 0 0 0 0.3 0 0 0 0 0 0 0 0 0 0 0 0 0 0 0 0 0 0 0 0 0 0 0 0.3 0zm-0.3 0l0.3 0 0 0 -0.3 0z"/>
    </g>
    <g>
     <path class="fil1" d="M77.61 58.69c1.19,0.89 2.07,1.48 2.96,2.37 0,0 -0.3,0.59 -0.59,0.89 0,0.3 -0.89,0.3 -1.18,0.3 -0.59,-0.59 -1.48,-1.18 -2.07,-1.78 -0.3,-0.3 -0.3,-0.59 -0.3,-0.89 0.3,-0.3 0.89,-0.59 1.18,-0.89l0 0z"/>
     <path id="_1_66" class="fil1" d="M80.57 60.76l-0.3 0.3 0 0 0 0 -0.3 0 0 0 0 -0.3 0 0 -0.3 0 0 0 0 -0.3 -0.3 0 0 0 0 0 0 -0.3 -0.3 0 0 0 0 0 0 0 -0.3 -0.3 0 0 0 0 -0.3 0 0 -0.3 0 0 -0.3 0 0 0 0 -0.3 0 0 -0.3 0 0 0 0 -0.3 -0.3 0 0 0 0 0 0.3 -0.59 0 0.3 0.3 0 0 0 0 0 0 0.3 0.3 0 0 0 0 0 0.3 0.3 0 0 0 0 0.3 0 0 0.3 0 0 0.3 0 0 0 0 0.3 0 0 0.3 0 0 0 0 0.3 0.3 0 0 0 0 0 0 0 0.3 0.3 0 0 0 0 0 0 0.3 0.3 0 0 0 0 0 0 0 0zm-0.3 1.48l-0.3 -0.3 0 0 0 0 0 -0.3 0 0 0 0 0 0 0 0 0 0 0 0 0 0 0 0 0 0 0 0 0 0 0.3 -0.3 0 0 0 0 0 0 0 0 0 0 0 0 0 0 0 0 0 0 0 -0.3 0 0 0 0 0 0 0 0 0 0 0 0 0 0 0 0 0.3 -0.3 0 0 0 0.3 0.3 0 0 0 0 0 0 0 0 0 0 0 0 0.3 0 0 0 0 0 0 0 0 0 0 -0.3 0.3 0 0 0 0 0 0 0 0 0 0 0 0 0 0.3 0 0 0 0 0 0 0 0 0 0 0 0 -0.3 0 0 0.3 0 0 0 0 0 0zm-1.48 0l0.3 -0.3 0 0 0 0 0 0 0 0 0 0 0 0 0 0 0 0 0 0 0.3 0 0 0 0 0 0 0 0 0 0 0 0 0 0 0 0 0 0.3 0 0 0 0 0 0 0 0 0 0 0 0 0 0 0 0 0 0 0 0.3 0 0 0 0 0 0 0 0 0 0.3 0.3 0 0 0 0 0 0 0 0 -0.3 0 0 0 0 0 0 0 0 0 0 0 -0.3 0.3 0 0 0 0 0 0 0 0 0 0 -0.3 0 0 0 0 0 0 0 0 0 0 0 -0.3 0 0 0 0 0 0 0 0 0 0 0 -0.3 0 0 0 0 -0.3 0 0 0 0zm-2.37 -1.48l0.3 -0.59 0 0 0.3 0.3 0 0 0 0 0 0 0 0 0.3 0.3 0 0 0 0 0 0 0.3 0 0 0 0 0.3 0 0 0.3 0 0 0 0 0 0 0.3 0 0 0.3 0 0 0 0 0 0 0 0.3 0.3 0 0 0 0 0 0 0.3 0 0 0 0 0.3 0 0 0.3 0 0 0 -0.3 0.3 0 0 -0.3 0 0 0 0 0 0 0 -0.3 -0.3 0 0 0 0 0 0 -0.3 0 0 0 0 -0.3 0 0 -0.3 0 0 0 0 0 0 -0.3 -0.3 0 0 0 0 0 0 0 -0.3 0 0 -0.3 0 0 0 0 -0.3 0 0 0 0 -0.3 0 0 -0.3 0 0 0 0 0 0 0 0 0zm0.3 -0.59l0 0 0 0 0 0zm-0.3 -0.89l0.3 0.3 0 0 0 0 0 0 0 0 0 0 0 0 0 0.3 0 0 0 0 0 0 0 0 0 0 0 0 0 0 0 0 0 0 0 0 0 0.3 0 0 0 0 0 0 0 0 0 0 0 0 0 0 0 0 0 0 0 0 0 0 0 0 0 0 0 0 0 0 -0.3 0.59 0 -0.3 0 0 0 0 0 0 0 0 -0.3 0 0 0 0 0 0 -0.3 0 0 0 0 0 0 0 0 0 0 0 0 0 -0.3 0 0 0 0 0 0 0 0 0 0 0 0 0 0 0 -0.3 0 0 0 0 0 0 0 0 0 0 0.3 0 0 -0.3 0 0 0 0 0 0zm0 0l0 0 -0.3 0.3 0.3 -0.3zm1.48 -0.89l-0.3 0.59 0.3 0 0 0 0 0 -0.3 0 0 0 0 0 0 0 0 0 0 0 -0.3 0.3 0 0 0 0 0 0 0 0 0 0 0 0 -0.3 0 0 0 0 0 0 0 0 0 0 0 0 0.3 0 0 0 0 0 0 0 0 0 0 -0.3 0 0 0 0 0 0 0 0 0 -0.3 -0.3 0 0 0 0 0 0 0 0 0 0 0 0 0 0 0 -0.3 0.3 0 0 0 0 0 0 0 0 0 0 0 0 0 0 0 0.3 0 0 0 0 0 0 -0.3 0 0 0 0 0 0 0 0 0.3 0 0 0 0 0 0 0 0 0 0 -0.3 0.3 0 0 0 0.3 0 0 0zm-0.3 0l0 0 0.3 0 -0.3 0z"/>
    </g>
    <g>
     <path class="fil1" d="M89.74 67.86c0,0.89 -0.89,1.18 -1.78,0.89 -0.89,-0.59 -1.48,-0.89 -2.07,-1.48 -0.3,-0.3 -0.3,-1.19 0,-1.19 0.3,-0.3 1.19,-0.59 1.48,-0.3 0.59,0.3 1.48,0.89 2.07,1.48 0,0 0.3,0.3 0.3,0.59l0 0z"/>
     <path id="_1_67" class="fil1" d="M87.67 68.74l0.3 -0.3 0 0 0 0 0.3 0 0 0 0 0 0 0.3 0.3 0 0 0 0 0 0 0 0 0 0 0 0.3 0 0 0 0 -0.3 0 0 0 0 0 0 0.3 0 0 0 0 0 0 0 0 0 0 0 0 -0.3 0 0 0.3 0 0 0 0 0 0 -0.3 0 0 0 0 0 0 0.59 0 0 0 0 0 0 0.3 0 0 -0.3 0 0 0.3 0 0 0 0 0 0 0 0.3 -0.3 0 0 0 0 0 0 0 0 0.3 -0.3 0 0 0 0 0 -0.3 0 0 0 0 0 -0.3 0 0 0 0 0 -0.3 0 0 0 0 0 -0.3 0 0 0 0 0 0 0 -0.3 -0.3 0 0 0 0zm-1.78 -1.18l0.3 -0.3 0 0 0 0 0 0 0.3 0 0 0 0 0 0 0 0 0.3 0 0 0.3 0 0 0 0 0 0 0 0 0.3 0 0 0.3 0 0 0 0 0 0 0 0 0 0.3 0.3 0 0 0 0 0 0 0.3 0 0 0 0 0 0 0 0 0.3 0.3 0 0 0 0 0 0 0 -0.3 0.3 0 0 0 0 0 0 -0.3 0 0 0 0 0 0 0 -0.3 -0.3 0 0 0 0 0 0 0 0 -0.3 0 0 0 0 -0.3 0 0 -0.3 0 0 0 0 0 0 0 0 -0.3 -0.3 0 0 0 0 0 0 0 0 0 -0.3 -0.3 0 0 0 0 0 0 0 0 0 0 0 0zm0 0l0 0 0 0 0 0zm-0.3 -1.78l0.59 0.3 0 0 0 0 0 0 0 0 0 0 0 0 0 0 0 0.3 0 0 -0.3 0 0 0 0 0 0 0 0 0 0 0 0 0.3 0 0 0 0 0 0 0.3 0 0 0 0 0 0 0.3 0 0 0 0 0 0 0 0 0 0 0 0 0 0 0 0 0 0 0 0.3 -0.3 0.3 -0.3 -0.3 0 0 0 0 0 0 0 0 0 0 0 -0.3 0 0 0 0 0 0 0 0 0 0 0 -0.3 0 0 0 0 0 0 0 0 0 -0.3 0 0 0 0 0 0 0 0 0 0 0 -0.3 0 0 0 0 0 0 0 0 0 0 0 -0.3 0 0 0 0 0 0 0 0zm0.59 0.3l0 0 -0.3 0.3 0.3 -0.3zm1.19 -0.59l0 0.59 0 0 -0.3 0 0 0 0 0 0 0 0 0 0 0 0 0 0 0 0 0 -0.3 0 0 0 0 0 0 0 0 0 0 0 -0.3 0 0 0 0 0 0 0 0 0 0 0 0 0 -0.3 0 0 0 0 0 0 0 0 0 0 0 0 0 0 0 0 0 0 0 -0.59 -0.3 0 0 0.3 0 0 0 0 0 0 -0.3 0 0 0 0 0.3 0 0 0 0 0 0 0 0 0 0.3 0 0 0 0 0 0 0 0 0 0.3 0 0 0 0 0 0 0 0 0 0.3 0 0 0 0 0 0 0 0 0 0.3 0 0 0 0 0 0 0 0 0 0 0 0 0zm2.07 1.48l-0.3 0.3 0 0 0 0 0 0 -0.3 0 0 0 0 -0.3 0 0 0 0 -0.3 0 0 0 0 0 0 -0.3 0 0 -0.3 0 0 0 0 0 0 0 0 0 -0.3 -0.3 0 0 0 0 0 0 0 0 -0.3 0 0 0 0 -0.3 0 0 0 0 -0.3 0 0 0 0 0 0 0 0 0 0 -0.59 0.3 0 0 0 0 0.3 0 0 0.3 0 0 0 0 0 0 0 0.3 0 0 0.3 0 0 0 0 0 0 0.3 0 0 0 0 0 0 0.3 0 0 0.3 0 0 0 0 0 0 0 0 0.3 0.3 0 0 0 0 0 0 0 0 0 0.3 0 0 0.3 0 0 0 0 0 0 0 0zm0.59 0.89l-0.59 0 0 0 0 0 0 0 0 0 0 0 0 0 0 0 0 0 0 -0.3 0 0 0 0 0 0 0 0 0 0 0 0 0 0 0 0 -0.3 0 0 0 0 0 0 0 0 0 0 0 0 0 0 -0.3 0 0 0 0 0 0 0 0 0 0 0 0 0 0 0 0 0.3 -0.3 0 0 0 0 0 0 0.3 0 0 0 0 0 0 0.3 0 0 0 0 0 0 0 0 0 0 0 0 0 0 0 0 0 0 0 0 0 0 0 0.3 0 0 0 0 0 0 0 0 0.3 0 0 0 0 0 0 0 0 0 0 0 0 0 0 0 0 0 0 0.3 0 0zm0 -0.3l0 0 0 0.3 0 -0.3z"/>
    </g>
    <g>
     <path class="fil1" d="M98.91 74.36c0,0.89 -0.89,1.48 -1.78,0.89 -0.59,-0.3 -1.48,-0.89 -2.07,-1.48 -0.3,-0.3 -0.3,-0.89 0,-1.18 0,-0.3 0.89,-0.59 1.19,-0.3 0.89,0.59 1.77,1.18 2.36,1.78 0.3,0 0.3,0.3 0.3,0.3l0 -0z"/>
     <path id="_1_68" class="fil1" d="M97.13 75.55l0.3 -0.3 0 0 0 0 0 0 0 0 0 0 0.3 0 0 0 0 0 0 0 0 0 0 0 0.3 0 0 0 0 0 0 0 0 0 0 0 0.3 0 0 0 0 -0.3 0 0 0 0 0 0 0 0 0 0 0.3 0 0 -0.3 0 0 0 0 0 0 0 0 0 -0.3 0 0 0.59 0 0 0.3 0 0 0 0 0 0 -0.3 0.3 0 0 0 0 0 0.3 0 0 0 0 0 0 -0.3 0 0 0.3 0 0 0 0 -0.3 0 0 0 0 0 0 0 -0.3 0.3 0 0 0 0 -0.3 0 0 0 0 0 -0.3 0 0 0 0 0 0 -0.3 -0.3 0 0 0 0 0 0 0 0 0zm-2.37 -1.48l0.59 -0.3 0 0 0 0 0 0 0 0 0.3 0 0 0.3 0 0 0 0 0 0 0.3 0 0 0 0 0.3 0 0 0 0 0.3 0 0 0 0 0 0 0 0 0.3 0.3 0 0 0 0 0 0 0 0.3 0 0 0.3 0 0 0 0 0 0 0.3 0 0 0 0 0 0 0.3 0.3 0 -0.3 0.3 -0.3 0 0 0 0 0 0 -0.3 -0.3 0 0 0 0 0 0 0 -0.3 0 0 0 0 -0.3 0 0 -0.3 0 0 0 0 0 0 0 0 -0.3 -0.3 0 0 0 0 0 0 0 -0.3 0 0 -0.3 0 0 0 0 0 0 -0.3 0 0 0 0 -0.3 0 0 0 0 -0.3 0 0 0 -0 0zm0 -1.48l0.59 0.3 0 0 0 0 0 0 -0.3 0 0 0 0 0 0 0 0 0 0 0 0 0 0 0 0 0.3 0 0 0 0 0 0 0 0 0 0 0 0 0 0 0 0.3 0 0 0 0 0 0 0 0 0 0 0.3 0 0 0 0 0 0 0 0 0.3 0 0 0 0 0 0 -0.59 0.3 0 0 0 0 0 -0.3 0 0 0 0 0 0 0 0 0 0 0 -0.3 0 0 0 0 0 0 -0.3 0 0 0 0 0 0 -0.3 0 0 0 0 0 0 0 0 0 -0.3 0 0 0 0 0 0 0.3 0 0 0 0 0 0 -0.3 0 0 0 0 0 0 0 0 0 0zm0 0l0 0 0 0 0 0zm1.48 -0.59l-0.3 0.3 0 0 0 0.3 0 0 0 0 0 0 0 0 0 0 0 0 0 0 0 0 0 0 0 0 -0.3 0 0 0 0 0 0 0 0 0 0 0 0 0 0 0 -0.3 0 0 0 0 0 0 0 0 0 0 0 0 0 0 0 0 0 0 0 0 0.3 0 0 0 0 -0.59 -0.3 0 0 0 0 0 -0.3 0 0 0 0 0.3 0 0 0 0 0 0 0 0 0 0 0 0.3 0 0 -0.3 0 0 0 0 0 0 0 0 0.3 0 0 0 0 0 0 0 0 0 0 0 0.3 0 0 0 0 0 0 0 0 0 0.3 0 0 0 0 0 0 0 0 0 0 0zm0 0l0 0 -0.3 0 0.3 0zm2.66 1.78l-0.3 0.59 0 0 0 -0.3 -0.3 0 0 0 0 0 -0.3 0 0 -0.3 0 0 0 0 -0.3 0 0 0 0 -0.3 0 0 -0.3 0 0 0 0 0 0 -0.3 -0.3 0 0 0 0 0 -0.3 0 0 -0.3 0 0 0 0 -0.3 0 0 0 0 0 0 -0.3 -0.3 0 0 0 0 0 -0.3 0 0 -0.3 0.3 -0.3 0 0 0.3 0 0 0.3 0 0 0.3 0 0 0 0 0 0 0.3 0.3 0 0 0 0 0 0.3 0 0 0 0 0.3 0 0 0.3 0 0 0 0 0 0.3 0.3 0 0 0 0 0 0 0.3 0 0 0.3 0 0 0 0 0.3 0 0 0.3 0 0 0.3 0 0 0 0 0 0 0 0 0zm0 0l0 0 0 0 0 0zm0.3 0.59l-0.59 0 0 0 0 0 0 0 0 0 0 0 0 0 0 0 0 0 0 0 0 0 0 0 0 0 0 0 0 0 0 0 0 0 0 0 0 0 0 0 0 0 0 0 0 0 0 0 0 0 0 0 0 0 0 0 0 0 0 0 0 0 0 0 0 0 0 0 0.3 -0.59 0 0 0 0 0 0.3 0 0 0 0 0 0 0 0 0.3 0 0 0 0 0 0 0 0 0 0 0 0 0 0 0 0 0 0 0.3 0 0 0 0 0 0 0 0 0 0 0 0 0 0 0 0 0 0 0 0 0 0 0 0 0 0 0 0 0 0 0 0 0 0zm0 0l0 0 0 0 0 0z"/>
    </g>
    <g>
     <path class="fil1" d="M35.33 100.68c-0.3,0.3 -0.59,0.89 -0.89,0.89 -0.3,0 -1.18,-0.3 -1.18,-0.3 -0.3,-0.89 -0.59,-1.78 -0.59,-2.66 -0.3,-0.3 0.3,-0.89 0.89,-0.89 0.3,0 0.89,0.3 1.18,0.59 0.3,0.59 0.3,1.48 0.59,2.36l0 0z"/>
     <path id="_1_69" class="fil1" d="M34.44 101.86l0 -0.59 0 0 0 0 0 0 0 0 0 0 0 0 0 0 0 0 0 0 0 0 0.3 0 0 0 0 0 0 0 0 0 0 0 0 -0.3 0 0 0 0 0 0 0 0 0.3 0 0 0 0 0 0 0 0 0 0 -0.3 0 0 0 0 0 0 0 0 0.3 0 0 0 0.3 0.3 0 0 0 0 0 0 0 0 0 0 -0.3 0.3 0 0 0 0 0 0 0 0 0 0 0 0 0 0 0 0 0 0 0 0.3 -0.3 0 0 0 0 0 0 0 0 0 0 0 0 0 0 0 -0.3 0 0 0.3 0 0 0 0 0 0 0 0 -0.3 0 0 0 0 0 0 0zm0 -0.59l0 0 0.3 0 -0.3 0zm-1.48 0l0.59 -0.3 0 0 0 0 0 0 0 0 0 0 0 0 0 0 0 0 0 0.3 0 0 0 0 0 0 0.3 0 0 0 0 0 0 0 0 0 0 0 0 0 0 0 0.3 0 0 0 0 0 0 0 0 0 0 0 0 0 0 0 0 0 0.3 0 0 0 0 0 0 0 0 0.59 0 0 0 0 0 0 -0.3 0 0 0 0 0 0 0 0 0 0 0 -0.3 0 0 0 0 0 0 0 0 0 -0.3 0 0 0 0 -0.3 0 0 0 0 0 0 -0.3 0 0 0 0 0 0 0 0 0 0 0 0 0 -0.3 -0.3 0 0 0 0 0 0 0 0 0 0 0 0zm-0.59 -2.66l0.3 0 0 0 0.3 0 0 0.3 0 0 0 0 0 0 0 0.3 0 0 0 0 0 0 0 0.3 0 0 0 0 0 0 0 0.3 0 0 0 0 0 0 0 0.3 0 0 0.3 0 0 0 0 0.3 0 0 0 0 0 0 0 0.3 0 0 0 0 0 0 0 0.3 0.3 0 0 0 -0.59 0.3 0 0 0 -0.3 0 0 0 0 -0.3 0 0 -0.3 0 0 0 0 0 -0.3 0 0 0 0 0 0 0 -0.3 0 0 -0.3 0 0 0 0 -0.3 0 0 0 0 0 -0.3 0 0 0 0 0 0 0 -0.3 0 0 0 0 0 0 0 -0.3 0 0 0 0 0 -0.3 0 0 0 0 0 0zm0.89 -1.19l0.3 0.59 0 0 0 0 0 0 0 0 0 0 0 0 -0.3 0 0 0 0 0 0 0 0 0 0 0 0 0 0 0 -0.3 0.3 0 0 0 0 0 0 0 0 0 0 0 0 0 0 0 0 0 0 0 0.3 0 0 0 0 0 0 0 0 -0.3 0 0 0 0 0 0 0 -0.3 0 0 0 0 0 0 0 0 -0.3 0 0 0 0 0 0 0 0 0 0 0 0 0 -0.3 0 0 0.3 0 0 0 0 0 0 0 0 0 0 -0.3 0 0 0 0 0.3 0 0 0 0 0 0 0 0 0 0 0 0.3 -0.3 0 0 0 0 0 0 0 0 0 0 0 0 0 -0zm1.48 0.89l-0.3 0 0 0 0 0 0 0 0 0 0 0 0 0 -0.3 0 0 0 0 0 0 0 0 0 0 0 0 -0.3 0 0 0 0 0 0 -0.3 0 0 0 0 0 0 0 0 0 0 0 0 0 0 0 -0.3 0 0 0 0 0 0 0 0 0 0 0 0 0 0 0 0 0 -0.3 -0.59 0.3 0 0 0 0 0 0 0 0 0 0.3 0 0 0 0 0 0 0 0 0 0 0 0.3 0 0 0 0 0.3 0 0 0 0 0 0 0.3 0 0 0 0 0 0 0 0 0 0 0 0.3 0.3 0 0 0 0 0 0 0 0 0 0 0 0 0 0 0 0.3 0 0 0 0zm-0.3 0l0 0 0 0 0 0zm1.19 2.66l-0.3 -0.3 -0.3 0.3 0 -0.3 0 0 0 0 0 -0.3 0 0 0 0 0 0 0 -0.3 0 0 0 0 -0.3 -0.3 0 0 0 0 0 0 0 -0.3 0 0 0 0 0 0 0 -0.3 0 0 0 0 0 0 0 -0.3 -0.3 0 0 0 0 0 0 -0.3 0 0 0 0 0 0 0 -0.3 0 0 0.3 0 0.3 0 0 0 0 0 0 0.3 0 0 0 0 0 0 0 0.3 0 0 0 0 0.3 0 0 0.3 0 0 0 0 0 0 0 0.3 0 0 0 0 0 0 0 0.3 0 0 0 0 0 0.3 0.3 0 0 0 0 0 0 0.3 0 0 0 0 0 0.3 0 0 0 0 0 0.3zm0 -0.3l0 0.3 0 0 0 -0.3z"/>
    </g>
    <g>
     <path class="fil1" d="M99.79 109.25c0,0.3 0,0.59 -0.3,0.89 -0.89,0.3 -1.48,0.89 -2.37,1.18 -0.3,0 -1.18,-0.3 -1.48,-0.59 0,-0.3 0.3,-0.89 0.59,-1.19 0.59,-0.59 1.19,-0.89 1.78,-1.18 0.89,-0.3 1.78,0 1.78,0.89l-0 0z"/>
     <path id="_1_70" class="fil1" d="M99.5 110.14l-0.3 -0.3 0 0 0 0 0 0 0 0 0 0 0 0 0 0 0 0 0.3 0 0 -0.3 0 0 0 0 0 0 0 0 0 0 0 0 0 0 0 0 0 0 0 0 0 0 0 0 0 0 0 0 0 -0.3 0 0 0 0 0 0 0 0 0 0 0 0 0 0 0.3 0 0.3 0.3 0 0 0 0 0 0 0 0 0 0 0 0 0 0 0 0 0 0 0 0 0 0 0 0.3 0 0 0 0 0 0 0 0 -0.3 0 0 0 0 0 0 0 0 0 0 0 0 0 0 0.3 0 0 0 0 0 0 0 0 0 0 -0.3 0 0 0 0 0 0 0zm-0.3 -0.3l0 0 0 0 0 0zm-2.07 1.48l0 -0.3 0 0 0 0 0 0 0.3 -0.3 0 0 0 0 0 0 0.3 0 0 0 0 0 0 0 0 0 0.3 0 0 -0.3 0 0 0 0 0.3 0 0 0 0 0 0 0 0 0 0.3 -0.3 0 0 0 0 0 0 0.3 0 0 0 0 0 0 -0.3 0 0 0.3 0 0 0 0 0 0.3 0.3 0 0 0 0.3 0 0 -0.3 0 0 0 0 0 0 0 -0.3 0 0 0.3 0 0 0 0 0 0 -0.3 0 0 0 0 0 0 0.3 -0.3 0 0 0 0 0 0 0 -0.3 0 0 0 0 0 0 0.3 -0.3 0 0 0 0 0 0 0 -0.3 0 0 0 0 0 -0.3 0 0 0zm-1.48 -0.59l0.3 0 0 0 0 0 0 0 0 0 0 0 0.3 0 0 0 0 0 0 0 0 0 0 0 0 0 0 0 0 0 0.3 0 0 0 0 0.3 0 0 0 0 0 0 0 0 0.3 0 0 0 0 0 0 0 0 0 0 0 0 0 0.3 0 0 0 0 0 0 0 0 0 0 0.3 0 0 0 0 0 0 0 0 0 0 -0.3 0 0 0 0 0 0 0 -0.3 0 0 0 0 0 0 0 0 0 -0.3 0 0 0 0 0 0 0 0 0 -0.3 0 0 0 0 0 0 0 0 -0.3 0 0 -0.3 0 0 0 0 0 0 0 0 0 0 0 0 -0.3 0 0zm0.3 -1.48l0.3 0.3 0 0 0 0 0 0 0 0.3 0 0 0 0 0 0 0 0 0 0 0 0 0 0 0 0 0 0.3 -0.3 0 0 0 0 0 0 0 0 0 0 0 0 0 0 0.3 0 0 0 0 0 0 0 0 0 0 0 0 0 0 0 0 0 0.3 0 0 0 0 0 0 -0.3 0 0 0 -0.3 0 0 0 0 0 0 0 0 -0.3 0 0 0 0 0 0 0 0 0 0 0 -0.3 0 0 0 0 0 0 0.3 0 0 -0.3 0 0 0 0 0 0 0 0 0 0 0 -0.3 0 0 0 0 0 0 0 0 0.3 0 0 0 0 -0.3 0 0 0 0 0 0zm2.07 -1.18l0.3 0.59 0 0 0 0 -0.3 0 0 0 0 0 0 0 0 0 -0.3 0 0 0.3 0 0 0 0 -0.3 0 0 0 0 0 0 0 0 0 -0.3 0 0 0 0 0.3 0 0 0 0 -0.3 0 0 0 0 0 0 0 0 0 -0.3 0.3 0 0 0 0 0 0 0 0 -0.3 0 0 0 -0.3 -0.3 0 0 0 0 0.3 0 0 0 0 -0.3 0 0 0 0 0.3 0 0 0 0 0 0 0 0 -0.3 0.3 0 0 0 0 0 0 0 0.3 0 0 0 0 0 0 -0.3 0.3 0 0 0 0 0 0 0 0 0 0.3 0 0 0 0 0 0 0 0.3 -0.3 0 0 0 0 0 0 0 0zm0.3 0.59l0 0 0 0 0 0zm1.78 0.89l-0.3 -0.3 -0.3 0 0 0 0 0 0 0 0 -0.3 0 0 0 0 0 0 0 0 0 0 0 -0.3 0 0 -0.3 0 0 0 0 0 0 0 0 0 0 0 0 0 -0.3 0 0 -0.3 0 0 0 0 0 0 0 0 -0.3 0 0 0 0 0 0 0 0 0 -0.3 0.3 0 0 0 0 -0.3 -0.59 0 0 0.3 0 0 0 0 0 0.3 0 0 0 0 0 0.3 0 0 0 0 0 0 0 0.3 0 0 0 0 0 0.3 0 0 0 0 0 0 0.3 0.3 0 0 0 0 0 0 0 0 0.3 0.3 0 0 0 0 0 0 0.3 0 0 0 0 0 0.3 0 0 0 0 0 0.3 0 0zm0 -0.3l0 0.3 0 0 0 -0.3z"/>
    </g>
    <g>
     <path class="fil1" d="M50.71 111.03c0.59,0 0.89,0 1.48,0.3 0.59,0 1.18,0.3 0.89,0.89 0,0.59 -0.59,0.89 -1.19,0.89 -0.59,0.3 -1.48,0 -2.36,0 -0.59,0 -0.89,-0.3 -0.89,-1.19 0,-0.59 0.59,-0.89 1.19,-0.89 0.3,0 0.59,0 0.89,0 0,0 0,0 0,0z"/>
     <path id="_1_71" class="fil1" d="M52.19 111.03l0 0.3 0 0 0 0 -0.3 0 0 0 0 0 0 0 0 0 0 0 0 0 -0.3 0 0 0 0 0 0 0 0 0 0 0 0 0 -0.3 0 0 0 0 0 0 0 0 0 0 0 0 0 -0.3 0 0 0 0 0 0 0 0 0 0 0 0 0 -0.3 0 0 0 0 0 0 -0.3 0 0 0 0 0.3 0 0 0 0 0 0 0 0 0 0 0 0 0 0.3 0 0 0 0 0 0 0 0 0 0 0 0.3 0 0 0 0 0 0 0 0 0 0 0 0 0 0.3 0 0 0 0 0 0 0 0 0 0 0 0.3 0 0 0 0 0 0 0 0 0zm1.18 1.48l-0.59 -0.3 0 0 0 0 0.3 0 0 0 0 0 0 -0.3 0 0 0 0 0 0 -0.3 0 0 0 0 0 0 0 0 0 0 0 0 -0.3 0 0 0 0 0 0 0 0 0 0 0 0 -0.3 0 0 0 0 0 0 0 0 0 0 0 -0.3 0 0 0 0 0 0 -0.3 0 0 0 -0.3 0 0 0.3 0 0 0 0 0 0 0 0 0 0.3 0 0 0 0 0 0 0.3 0.3 0 0 0 0 0 0 0 0 0 0 0 0.3 0 0 0.3 0 0 0 0 0 0 0 0 0 0.3 0 0 0 0 0 0 0 0 0 0.3 0 0 0 0 0 0 0 0.3 0 0 0 0zm0 0l0 0 0 0 0 0zm-1.18 0.89l-0.3 -0.3 0 0 0 0 0.3 0 0 -0.3 0 0 0 0 0 0 0 0 0 0 0 0 0 0 0.3 0 0 0 0 0 0 0 0 0 0 0 0 0 0 -0.3 0.3 0 0 0 0 0 0 0 0 0 0 0 0 0 0 0 0 0 0 -0.3 0 0 0 0 0 0 0 0 0.59 0.3 0 0 0 0 0 0 0 0 0 0 0 0.3 0 0 0 0 -0.3 0 0 0 0 0 0 0 0 0.3 0 0 0 0 -0.3 0 0 0 0 0 0 0 0 0 0 0 -0.3 0.3 0 0 0 0 0 0 0 0 0 0 -0.3 0 0 0 0 0 0 0 0 0 0 0 0 0zm-2.66 0l0.3 -0.59 0 0 0 0 0 0 0 0 0.3 0 0 0 0 0 0 0 0.3 0 0 0 0 0 0 0 0.3 0.3 0 0 0 0 0 0 0.3 0 0 0 0 0 0 0 0.3 0 0 0 0 0 0 0 0.3 0 0 0 0 0 0 0 0 0 0.3 0 0 0 0 0 0 0 0.3 0.3 -0.3 0 0 0 0 0 0 0 -0.3 0 0 0 0 0 0 0 -0.3 0 0 0 0 0 -0.3 0 0 0 0 0 0 0 -0.3 0 0 0 0 0 0 0 -0.3 0 0 0 0 0 0 0 -0.3 0 0 0 0 0 0 0 -0.3 0 0 0 0 0 0 0 -0.3 0 0 0 0 0zm-1.19 -1.48l0.59 0 0 0 0 0.3 0 0 0 0 0 0 0 0 0 0 0 0 0 0.3 0 0 0 0 0 0 0 0 0 0 0 0 0 0 0 0 0 0 0.3 0.3 0 0 0 0 0 0 0 0 0 0 0 0 0 0 0 0 0.3 0 0 0 0 0 0 0 0 0 0.3 0 -0.3 0.59 0 0 0 0 0 0 -0.3 0 0 0 0 0 0 -0.3 -0.3 0 0 0 0 0 0 0 0 0 -0.3 0 0 0 0 0 0 -0.3 0 0 0 0 0 0 -0.3 0 0 0 0 -0.3 0 0 0 0 0 0 0 0 0 -0.3 0 0 0 0 0 0 0 -0.3 0 0 0 0 -0 0zm0 0l0 0 0 0 0 0zm1.48 -1.18l0 0.59 0 0 0 0 0 0 0 0 -0.3 0 0 0 0 0 0 0 0 0 0 0 -0.3 0 0 0 0 0 0 0 0 0 0 0.3 0 0 0 0 0 0 -0.3 0 0 0 0 0 0 0 0 0 0 0 0 0 0 0 0 0.3 0 0 0 0 0 0 0 0 0 0 -0.59 0 0 0 0 0 0 0 0 -0.3 0 0 0 0 0 0 0 -0.3 0.3 0 0 0 0 0 0 0 0 0 0 -0.3 0 0 0.3 0 0 0 0 0 0 0 0 0 0.3 0 0 0 0 0 0 0 0 0 0.3 -0.3 0 0 0 0 0 0 0.3 0 0 0 0 0 0 0 0 0zm0 0l0 0 0 0 0 0zm0.59 0.3l0.59 0 -0.3 0.3 0 0 0 0 0 0 0 0 0 0 -0.3 0 0 0 0 0 0 0 0 0 0 0 0 0 0 0 0 0 0 0 0 0 -0.3 0 0 0 0 0 0 0 0 0 0 0 0 0 0 0 0 0 0 0 0 0 -0.3 0 0 0 0 0 0 0 0 0 0 -0.59 0 0 0 0 0 0 0.3 0 0 0 0 0 0 0 0 0 0 0 0 0 0 0 0 0 0 0 0.3 0 0 0 0 0 0 0.3 0 0 0 0 0 0 0 0 0 0 0 0 0 0 0.3 0 0 0 0 0 0 0 0 0 0 0 0 0 0 0 -0.3 0 0 0zm0.59 0l0 0.3 -0.3 0 0.3 -0.3zm-0.3 0l0 0.3 0.3 -0.3 0 0 0 0 0 0 0 0 0 0 0 0 0 0 0 0 0 0 0 0 0 0 0 0 0 0 0 0 0 0 0 0 0 0 0 0 0 0 0 0 0 0 0 0 0 0 0 0 0 0 0 0 0 0 0 0 0 0 0 0 0 0 0 0 -0.59 0 0 0 0 0 0 0 0 0 0 0 0 0 0 0 0 0 0 0 0 0 0 0 0 0 0 0 0 0 0 0 0 0 0 0 0 0 0 0 0 0 0 0 0 0 0 0 0 0 0 0 0 0 0 0 0 0 0 0 0 0 0 0 0 0 0.3 0 0 0zm-0.3 0l0 0 0.3 0 -0.3 0z"/>
    </g>
    <g>
     <path class="fil1" d="M45.39 29.42c0,0 0,0.3 -0.3,0.59 -0.89,0.3 -1.78,0.89 -2.66,1.18 -0.3,0 -0.89,-0.3 -1.18,-0.59 -0.3,-0.3 0,-0.89 0.3,-1.18 0.59,-0.3 1.78,-0.89 2.66,-1.19 0.59,-0.3 1.18,0.3 1.18,1.19z"/>
     <path id="_1_72" class="fil1" d="M45.39 30.01l-0.3 -0.3 0 0 0 0 0 0 0 0 0 0 0 0 0 0 0 0 0 0 0 0 0 0 0 0 0 0 0 0 0 0 0 -0.3 0 0 0 0 0 0 0 0 0 0 0 0 0 0 0 0 0 0 0 0 0 0 0 0 0 0 0 0 0 0 0 0 0 0 0.59 0 0 0 0 0 0 0 0 0 0 0 0 0 0 0 0 0 0 0.3 0 0 0 0 0 0 0 0 0 0 0 0 0 0 0 0 0 0 0 0 0 0 -0.3 0 0 0 0 0.3 0 0 0 0 0 0 0 0 0 0 0 0 0 0 0 0 0 0 0 0 0 0zm-0.3 -0.3l0 0 -0.59 0 0.59 0zm-2.66 1.77l0 -0.59 0 0 0 0 0 0 0 0 0.3 0 0 0 0 -0.3 0.3 0 0 0 0 0 0 0 0.3 0 0 0 0 0 0.3 -0.3 0 0 0 0 0 0 0.3 0 0 0 0 0 0.3 -0.3 0 0 0 0 0 0 0.3 0 0 0 0 0 0.3 -0.3 0 0 0 0 0 0 0.3 0 0.3 0.3 -0.3 0 0 0.3 0 0 0 0 -0.3 0 0 0 0 0 -0.3 0 0 0.3 0 0 0 0 -0.3 0 0 0 0 0 -0.3 0 0 0.3 0 0 -0.3 0 0 0 0 0 0 0 -0.3 0 0 0.3 0 0 -0.3 0 0 0 0 0 -0.3 0 0 0 0 0 0 0 -0.3 0.3 0 0 0 0zm-1.48 -0.89l0.59 0 0 0 0 0 0 0 0 0 0 0 0 0 0 0 0 0 0 0 0 0 0.3 0 0 0 0 0 0 0 0 0.3 0 0 0 0 0 0 0.3 0 0 0 0 0 0 0 0 0 0 0 0 0 0 0 0 0 0 0 0 0 0.3 0 0 0 0 0 0 0 0 0.59 0 0 0 0 0 0 -0.3 0 0 0 0 0 0 0 0 0 0 0 -0.3 0 0 -0.3 0 0 0 0 0 0 0 0 -0.3 0 0 0 0 0 0 0 0 0 0 0 -0.3 0 0 -0.3 0 0 0 0 0 0 0 0 0 0 -0.3 0 0 0 0 -0.3 0 0 0 0 0 0zm0 0l0 0 0 0.3 0 -0.3zm0.3 -1.18l0.3 0.3 0 0 0 0 0 0 0 0 0 0 0 0 0 0 0 0 0 0 0 0 0 0 0 0.3 0 0 0 0 0 0 0 0 0 0 0 0 0 0 0 0 0 0.3 0 0 0 0 0 0 0 0 0 0 0 0 0 0 0 0 0 0 0 0 0 0.3 0 0 -0.59 0 0 0 0 0 0 0 0 0 0 0 0 -0.3 0 0 0 0 0 0 0 0 0 0 0 -0.3 0 0 0 0 0 0 0 0 0 0 0 0 0 -0.3 0 0 0 0 0 0 0 0 0 0 0 -0.3 0 0 0.3 0 0 0 0 0 0 0 0 0 0 0 0 0 0 0zm0.3 0.3l0 0 0 0 0 0zm2.37 -1.78l0.3 0.59 0 0 0 0 -0.3 0 0 0 0 0 0 0 -0.3 0 0 0.3 0 0 -0.3 0 0 0 0 0 0 0 -0.3 0 0 0 0 0.3 -0.3 0 0 0 0 0 0 0 -0.3 0 0 0 0 0 0 0.3 -0.3 0 0 0 0 0 0 0 -0.3 0 0 0.3 0 0 0 0 -0.3 0 -0.3 -0.3 0 -0.3 0.3 0 0 0 0 0 0.3 0 0 0 0 -0.3 0 0 0.3 0 0 0 0 0 0 0 0.3 0 0 -0.3 0 0 0.3 0 0 0 0 0 0 0 0.3 0 0 0 0 -0.3 0.3 0 0 0 0 0 0.3 0 0 0 0 0 0 0 0.3 -0.3 0 0 0 0 0 0 0 -0zm1.77 1.48l-0.59 0 0 0 0 0 0 -0.3 0 0 0 0 0 0 0 0 0 0 0 -0.3 0 0 0 0 0 0 0 0 0 0 -0.3 0 0 -0.3 0 0 0 0 0 0 0 0 0 0 0 0 -0.3 0 0 0 0 0 0 0 0 0 0 0 0 0 -0.3 0 0 0 0 0 0 0 -0.3 -0.59 0.3 0 0 0 0 0 0 0 0.3 0 0 0 0 0 0.3 0 0 0 0 0 0 0 0.3 0.3 0 0 0 0 0 0 0.3 0 0 0 0 0 0 0.3 0 0 0 0 0 0 0.3 0.3 0 0 0 0 0 0 0 0.3 0 0 0 0 0 0 0 0.3 0 0 0 0 0 0zm0 0l0 0 0 0 0 0z"/>
    </g>
    <g>
     <path class="fil1" d="M33.26 38c0.59,-0.89 1.18,-1.78 1.78,-2.66 0.3,0 0.89,-0.3 1.18,0 0.3,0.3 0.59,0.89 0.59,1.18 -0.3,0.59 -0.59,1.48 -1.18,2.07 -0.3,0.3 -0.89,0.59 -1.18,0.3 -0.59,0 -0.59,-0.59 -1.19,-0.89l0 0z"/>
     <path id="_1_73" class="fil1" d="M34.74 35.33l0.59 0.3 0 0 0 0 -0.3 0 0 0.3 0 0 0 0 0 0 -0.3 0.3 0 0 0 0 0 0 0 0.3 0 0 -0.3 0 0 0 0 0.3 0 0 0 0 0 0.3 -0.3 0 0 0 0 0 0 0.3 0 0 0 0 -0.3 0.3 0 0 0 0 0 0 0 0.3 -0.3 0 0 0 0 0.3 -0.59 -0.3 0.3 0 0 -0.3 0 0 0 0 0 -0.3 0.3 0 0 0 0 -0.3 0 0 0 0 0 0 0.3 -0.3 0 0 0 0 0 -0.3 0 0 0 0 0.3 0 0 -0.3 0 0 0 0 0 -0.3 0.3 0 0 0 0 0 0 -0.3 0 0 0 0 0.3 0 0 -0.3 0 0 0 0 0 0zm1.77 -0.3l-0.3 0.59 0 0 0 0 0 0 0 0 -0.3 0 0 0 0 0 0 0 0 0 0 0 0 0 0 0 0 0 -0.3 0 0 0 0 0 0 0 0 0 0 0 0 0 0 0 -0.3 0 0 0 0 0 0 0 0 0 0 0 0 0 0 0 0 0 0 0 0 0 0 0 -0.59 -0.3 0 0 0.3 0 0 -0.3 0 0 0 0 0 0 0 0 0 0 0.3 0 0 0 0 0 0 0 0 0 0.3 0 0 0 0 0 0 0 0 0 0.3 0 0 0 0 0 0 0 0 0 0 0 0.3 0 0 0 0 0 0 0 0 0 0 0 0.3 0 0 0 0 0 0 0zm0 0l0 0 0 0 0 0zm0.59 1.48l-0.59 0 0 0 0 0 0 0 0 -0.3 0 0 0 0 0 0 0 0 0 0 0 0 0 0 0 0 0 0 0 -0.3 0 0 0 0 0 0 0 0 0 0 0 0 -0.3 0 0 0 0 -0.3 0 0 0 0 0 0 0 0 0 0 0 0 0 0 0 0 0 0 0 0 0.3 -0.59 0 0.3 0 0 0 0 0 0 0 0 0.3 0 0 0 0 0 0 0 0 0.3 0 0 0 0 0 0 0 0 0 0 0 0.3 0.3 0 0 0 0 0 0 0 0 0 0 0 0 0.3 0 0 0 0 0 0 0 0 0 0 0 0.3 0 0 0 0 0 0 0 0 0 0zm-0.59 0l0 0 0 0 0 0zm-0.59 2.37l-0.59 -0.3 0 0 0 -0.3 0 0 0.3 0 0 0 0 0 0 -0.3 0 0 0 0 0 0 0.3 0 0 -0.3 0 0 0 0 0 0 0 -0.3 0 0 0 0 0.3 0 0 0 0 -0.3 0 0 0 0 0 0 0 -0.3 0 0 0 0 0.3 0 0 0 0 -0.3 0 0 0 0 0 0 0.59 0 0 0 0 0.3 0 0 -0.3 0 0 0 0 0.3 0 0 0 0 0 0 0 0.3 0 0 0 0 -0.3 0 0 0 0 0.3 0 0 0 0 0 0 0 0.3 0 0 -0.3 0 0 0 0 0.3 0 0 0 0 0 0 -0.3 0 0 0.3 0 0 0 0 0 0 0 0.3 0 0zm-1.78 0.3l0.3 -0.59 0 0 0 0 0 0 0 0 0 0.3 0 0 0 -0.3 0 0 0.3 0 0 0 0 0 0 0 0 0 0 0 0 0 0.3 0 0 0 0 0 0 0 0 0 0 0 0 0 0 0 0 0 0.3 0 0 0 0 0 0 0 0 0 0 0 0 0 0 0 0 0 0.59 0.3 0 0 -0.3 0 0 0 0 0 0 0 0 0 0 0 0 0 -0.3 0 0 0.3 0 0 0 0 0 0 0 0 -0.3 0 0 0 0 0 0 0 0 0 -0.3 0 0 0 0 0 0 0 0 0 0 0 -0.3 0 0 0 0 0 0 0 0 0 -0.3 0 0 0 0 0 -0 0zm0 0l0 0 0 0 0 0zm-1.18 -1.18l0.59 0.3 0 -0.3 0 0 0 0 0 0 0 0 0.3 0 0 0 0 0.3 0 0 0 0 0 0 0 0 0 0 0 0 0 0 0.3 0.3 0 0 0 0 0 0 0 0 0 0 0 0 0 0 0 0 0 0 0 0 0 0 0 0 0.3 0 0 0 0 0 0 0 0 0 -0.3 0.59 0 0 0 0 0 0 0 0 -0.3 0 0 0 0 0 0 0 0 -0.3 0 0 0 0 0 0 -0.3 0 0 0 0 0 0 0 0 0 0 -0.3 0 0 0 0 0 0 0 0 -0.3 0 0 0 0 0 0 -0.3 0 0 0 0 0 0 0 0 0 0 0 0 -0.3 -0.3 0 0zm0.3 0.3l-0.3 -0.3 0 0 0.3 0.3z"/>
    </g>
    <g>
     <path class="fil1" d="M42.13 108.96c0,0.89 -0.89,1.48 -1.78,0.89 -0.59,-0.3 -1.48,-0.89 -2.07,-1.48 0,-0.3 -0.3,-0.89 0,-1.18 0.3,-0.3 0.89,-0.59 1.18,-0.3 0.89,0.3 1.78,1.18 2.66,1.77 0,0 0,0.3 0,0.3l0 -0z"/>
     <path id="_1_74" class="fil1" d="M40.36 110.14l0.3 -0.59 0 0 0 0 0 0.3 0 0 0 0 0.3 0 0 0 0 0 0 0 0 0 0.3 0 0 0 0 0 0 0 0 0 0 0 0.3 0 0 -0.3 0 0 0 0 0 0 0 0 0 0 0.3 0 0 0 0 -0.3 0 0 0 0 0 0 0 0 0 -0.3 0 0 0 0 0.59 0 0 0 0 0.3 0 0 0 0 0 0 0 0.3 -0.3 0 0 0 0 0.3 0 0 0 0 0 0 -0.3 0 0 0.3 0 0 0 0 -0.3 0 0 0 0 0 -0.3 0 0 0 0 0 -0.3 0 0 0 0 0 -0.3 0 0 0 0 0 -0.3 0 0 0 0 0 0 0 0 0 0 0zm-2.07 -1.48l0.3 -0.59 0 0 0 0.3 0 0 0.3 0 0 0 0 0 0 0 0 0.3 0.3 0 0 0 0 0 0 0 0 0 0 0.3 0.3 0 0 0 0 0 0 0 0.3 0 0 0.3 0 0 0 0 0 0 0.3 0 0 0 0 0 0 0.3 0 0 0.3 0 0 0 0 0 0 0 0.3 0 -0.3 0.59 -0.3 0 0 -0.3 0 0 0 0 -0.3 0 0 0 0 0 0 0 -0.3 -0.3 0 0 0 0 0 0 0 0 -0.3 0 0 0 0 -0.3 0 0 -0.3 0 0 0 0 0 0 0 0 -0.3 -0.3 0 0 0 0 0 0 0 0 -0.3 -0.3 0 0 0 0 0 0 0 0 0 0 0zm0.3 -0.59l0 0 -0.3 0 0.3 0zm-0.59 -0.89l0.59 0 0 0 0 0 0 0.3 0 0 0 0 0 0 0 0 0 0 0 0 0 0 0 0 0 0 0 0 0 0.3 0 0 0 0 0 0 0 0 0 0 0 0 0 0 0 0.3 0 0 0 0 0 0 0 0 0 0 0 0 0 0 0 0 0 0 0 0 0 0 -0.3 0.59 0 -0.3 -0.3 0 0 0 0 0 0 0 0 0 0 0 0 -0.3 0 0 0 0 0 0 0 0 0 0 0 -0.3 0 0 0 0 0 0 0 0 0 0 0 -0.3 0 0 0 0 0 0 0 0 0 0 0 -0.3 0 0 0 0 0 0 0 0 0 0 0 0 0 0 0 -0zm0 0l0 0 0.3 -0.3 -0.3 0.3zm1.77 -0.59l-0.3 0.3 0 0 0 0 0 0 0 0 0 0 0 0 -0.3 0 0 0 0 0 0 0 0 0 0 0 0 0 0 0 0 0 -0.3 0.3 0 0 0 0 0 0 0 0 0 0 0 0 0 0 -0.3 0 0 0 0 0 0 0 0 0 0 0 0 0 0 0 0 0 0 0 -0.59 0 0 -0.3 0 0 0 0 0.3 0 0 0 0 0 0 0 0 0 0 0 0.3 -0.3 0 0 0 0 0 0 0 0 0 0 0.3 0 0 0 0 0 0 0 0 0 0.3 0 0 0 0 0 0 0 0 0 0 0 0.3 0 0 0 0 0 0 0 0 0 0.3 0 0 0 0 0zm-0.3 0.3l0 0 -0.3 0 0.3 0zm2.66 1.48l-0.3 0.3 0 0 0 0 -0.3 0 0 0 0 -0.3 0 0 -0.3 0 0 0 0 0 0 -0.3 -0.3 0 0 0 0 0 0 0 -0.3 -0.3 0 0 0 0 0 0 -0.3 0 0 0 0 -0.3 0 0 -0.3 0 0 0 0 0 0 -0.3 -0.3 0 0 0 0 0 -0.3 0 0 0 0 -0.3 0 0 0.3 -0.3 0 0 0 0 0.3 0 0 0.3 0 0 0 0 0.3 0 0 0 0 0 0 0.3 0.3 0 0 0 0 0 0.3 0 0 0.3 0 0 0 0 0.3 0 0 0 0 0.3 0 0 0.3 0 0 0 0 0 0 0.3 0.3 0 0 0 0 0 0 0 0.3 0.3 0 0 0 0 0 0zm0 0l0 0 0.3 0 -0.3 0zm0.3 0.59l-0.59 0 0 0 0 0 0 0 0 0 0 0 0 0 0 0 0 0 0 0 0 0 0 0 0 0 0 0 0 0 0 0 0 -0.3 0 0 0 0 0 0 0 0 0 0 0 0 0 0 0 0 0 0 0 0 0 0 0 0 0 0 0 0 0 0 0 0 0 0 0.3 -0.3 0 0 0 0 0 0 0 0 0.3 0 0 0 0 0.3 0 0 0 0 0 0 0 0 0 0 0 0 0 0 0 0 0 0 0 0 0 0 0 0 0 0 0 0 0 0 0 0.3 0 0 0 0 0 0 0 0 0 0 0 0 0 0 0 0 0 0 0 0 0 0zm0 0l0 0 0 0 0 0z"/>
    </g>
    <g>
     <path class="fil1" d="M55.74 29.13c-0.89,-0.3 -1.48,-0.3 -2.37,-0.3 -0.59,0 -1.18,-0.59 -0.89,-1.19 0,-0.59 0.59,-0.89 1.18,-0.89 0.89,0 1.48,0.3 2.37,0.3 0.59,0 1.18,0.59 0.89,1.18 -0.3,0.3 -0.59,0.59 -1.18,0.89 0,0 0,0 0,0z"/>
     <path id="_1_75" class="fil1" d="M53.37 29.13l0 -0.59 0 0 0.3 0 0 0 0 0 0 0 0.3 0 0 0 0 0 0 0 0 0 0.3 0 0 0 0 0 0 0 0.3 0 0 0.3 0 0 0 0 0.3 0 0 0 0 0 0 0 0 0 0.3 0 0 0 0 0 0 0 0.3 0 0 0 0 0 0 0 0 0 0.3 0 -0.3 0.59 0 0 0 0 0 0 0 -0.3 -0.3 0 0 0 0 0 0 0 -0.3 0 0 0 0 0 0 0 0 0 -0.3 0 0 0 0 0 0 0 -0.3 0 0 0 0 0 0 0 -0.3 0 0 0 0 0 0 0 0 0 -0.3 0 0 0 0 0 0 0 -0.3 0 0 0 0 0zm-1.18 -1.48l0.59 0 0 0 0 0 0 0.3 0 0 0 0 0 0 0 0 0 0 0 0 0 0.3 0 0 0 0 0 0 0 0 0 0 0 0 0 0 0 0 0 0 0.3 0 0 0 0 0.3 0 0 0 0 0 0 0 0 0 0 0.3 0 0 0 0 0 0 0 0 0 0 0 0 0.59 0 0 0 0 -0.3 0 0 0 0 -0.3 0 0 0 0 -0.3 0 0 0 0 0 0 0 0 0 -0.3 0 0 0 0 -0.3 0 0 0 0 0 0 -0.3 0 0 0 0 -0.3 0 0 0 0 0 0 0 0 0 -0.3 0 0 0 0 0 0 0 0 0 -0.3 0 0 0 0 0 0zm1.48 -1.18l0 0.59 0 0 0 0 0 0 -0.3 0 0 0 0 0 0 0 0 0 0 0 -0.3 0 0 0 0 0 0 0 0 0 0 0 0 0 0 0 -0.3 0 0 0.3 0 0 0 0 0 0 0 0 0 0 0 0 0 0 0 0 0 0.3 0 0 0 0 0 0 0 0 0 0 -0.59 0 0 0 0 0 0 -0.3 0 0 0 0 0 0 0 0 0 -0.3 0 0 0 0 0.3 0 0 0 0 0 0 -0.3 0 0 0 0 0.3 0 0 0 0 0 0 0 0 0 0.3 0 0 -0.3 0 0 0 0 0.3 0 0 0 0 0 0 0 0.3 0 0 0 0 0 0 0 0 0zm2.37 0.3l0 0.59 0 0 -0.3 0 0 0 0 0 0 0 0 0 -0.3 0 0 0 0 0 0 0 -0.3 0 0 -0.3 0 0 0 0 -0.3 0 0 0 0 0 0 0 -0.3 0 0 0 0 0 0 0 -0.3 0 0 0 0 0 0 0 -0.3 0 0 0 0 0 0 0 -0.3 0 0 0 0 0 0 -0.59 0 0 0.3 0 0 0 0 0 0 0 0.3 0 0 0 0 0 0 0 0.3 0 0 0 0 0.3 0 0 0.3 0 0 0 0 0 0 0 0.3 0 0 0 0 0 0 0 0.3 0 0 0 0 0 0 0 0.3 0 0 0 0 0 0 0 0.3 0 0 0 0 0 0 0zm0 0l0 0 0.3 0 -0.3 0zm1.18 1.48l-0.59 0 0 0 0 0 0 -0.3 0 0 0 0 0 0 0 0 0 0 0 0 0 0 0 -0.3 0 0 0 0 0 0 0 0 0 0 0 0 0 0 0 0 0 0 0 0 -0.3 0 0 -0.3 0 0 0 0 0 0 0 0 0 0 -0.3 0 0 0 0 0 0 0 0 0 0 -0.59 0 0 0.3 0 0 0 0 0 0 0.3 0.3 0 0 0 0 0 0 0 0 0 0.3 0 0 0 0 0 0 0.3 0 0 0 0 0.3 0 0 0 0 0 0 0.3 0 0 0 0 0 0 0 0 0 0.3 0 0 0 0 0 0 0 0.3 0 0 0 0 0 0 0 0 0 0zm-0.59 0l0 0 0 0 0 0zm-0.89 1.19l0.3 -0.3 -0.3 0 0 0 0 0 0 0 0 -0.3 0 0 0 0 0.3 0 0 0 0 0 0 0 0 0 0 0 0 -0.3 0.3 0 0 0 0 0 0 0 0 0 0 0 0 0 0 0 0 0 0.3 0 0 -0.3 0 0 0 0 0 0 0 0 0 0 0 0 0 0 0 0 0.59 0 0 0 0 0.3 0 0 0 0 -0.3 0 0 0 0 0 0 0 0 0.3 0 0 0 0 0 0 -0.3 0 0 0 0 0 0 0 0 0.3 0 0 0 0 0 0 -0.3 0 0 0 0 0 0 0 0 0 0 0 0 0.3 -0.3 0 0 0 0 0 0 0 0 0 -0.3 0 0 0zm0.3 0l-0.3 0.3 0 -0.3 0.3 0zm-0.59 0l0.3 -0.59 0 0 0 0 0 0 0 0 0 0 0 0 0 0 0 0 0 0 0 0 0 0 0.3 0 0 0 0 0 0 0 0 0.3 0 0 0 0 0 0 0 0 0 0 0 0 0 0 0 0 0 0 0 0 0 0 0 0 0 0 0 0 0 0 0 0 0 0 -0.3 0.3 0 0 0 0 0 0 0 0 -0.3 0 0 0 0 0 0 0 0 0 0 0 0 0 0 0 0 0 0 0 0 0 0 0 0 0 0 0 0 0 0 0 0 0 0 0 0 0 0 -0.3 0 0.3 0 -0.3 0 0 0 0 0 0 0 0 0 0 0 0 0 0.3 0 0zm0.3 -0.59l0 0 0 0 0 0z"/>
    </g>
    <g>
     <path class="fil1" d="M74.66 53.07c-0.3,0.3 -0.89,0.59 -1.18,0.59 -0.3,0 -1.19,-0.3 -1.19,-0.59 -0.3,-0.59 -0.59,-1.48 -0.59,-2.07 0,-0.59 0.3,-1.18 0.89,-1.18 0.59,0 1.19,0.3 1.19,0.89 0.59,0.59 0.59,1.18 0.89,2.37z"/>
     <path id="_1_76" class="fil1 str1" d="M73.48 53.96l0 -0.3 0 0 0 0 0 -0.3 0 0 0 0 0 0 0 0 0 0 0 0 0.3 0 0 0 0 0 0 0 0 0 0 0 0 0 0 0 0 0 0 0 0.3 -0.3 0 0 0 0 0 0 0 0 0 0 0 0 0 0 0 0 0.3 0 0 -0.3 0 0 0 0 0 0 0.3 0.3 0 0 0 0.3 0 0 0 0 0 0 0 0 0 0 -0.3 0 0 0 0 0 0 0 0 0 0 0.3 0 0 0 0 0 0 -0.3 0 0 0 0 0 0 0 0 0 0 0.3 0 0 0 0 -0.3 0 0 0 0 0 0 0 0 0 -0.3 0 0 0 0 0 0 0zm-1.48 -0.89l0.59 0 0 0 0 0 0 0 0 0 0 0 0 0 0 0 0 0 0 0 0 0 0 0.3 0.3 0 0 0 0 0 0 0 0 0 0 0 0 0 0 0 0.3 0 0 0 0 0 0 0 0 0 0 0 0 0 0 0 0 0.3 0.3 0 0 0 0 0 0 0 0 0 0 0.3 0 0 0 0 0 0 -0.3 0 0 0 0 0 0 0 0 0 -0.3 0 0 0 0 0 0 0 0 0 0 0 -0.3 0 0 -0.3 0 0 0 0 0 0 0 0 -0.3 0 0 0 0 0 0 0 0 -0.3 0 0 0 0 -0.3 0 0 0 0 0 0 0 0 -0.3 0 0 -0 0zm0 0l0 0 0.3 0.59 -0.3 -0.59zm-0.59 -2.07l0.59 0 0 0 0 0 0 0 0 0 0 0.3 0 0 0 0 0 0 0 0.3 0 0 0 0 0 0 0 0.3 0 0 0.3 0 0 0 0 0 0 0.3 0 0 0 0 0 0 0 0.3 0 0 0 0 0 0 0 0 0 0.3 0 0 0 0 0 0 0.3 0 0 0.3 0 0 -0.59 0 0 0 0 0 0 0 0 0 0 -0.3 -0.3 0 0 0 0 0 0 -0.3 0 0 0 0 0 0 0 -0.3 0 0 0 0 0 0 0 0 0 -0.3 0 0 0 0 0 0 -0.3 -0.3 0 0 0 0 0 0 0 -0.3 0 0 0 0 0 0 0 0 0 -0.3 0 0 0 0zm0.59 0l0 0 0 -0.3 0 0.3zm0.59 -1.48l0 0.59 0 0 0 0 0 0 0 0 0 0 -0.3 0 0 0 0 0 0 0 0 0 0 0 0 0 0 0 0 0 -0.3 0 0 0.3 0 0 0 0 0 0 0 0 0 0 0 0 0 0 0 0 0 0.3 0 0 0 0 0 0 0 0 0 0 0 0 0 0.3 0 0 -0.59 0 0 0 0 0 0 -0.3 0 0 0 0 0 0 0 -0.3 0 0 0 0 0 0 0 0 0 -0.3 0 0 0.3 0 0 0 0 0 0 0 0 -0.3 0 0 0 0 0.3 0 0 0 0 0 0 0 0 -0.3 0.3 0 0 0 0 0 0 0 0.3 0 0 0 0 0 0 0 0 0zm0 0l0 0 0 0 0 0zm1.48 0.89l-0.3 0.3 0 0 0 0 -0.3 0 0 0 0 0 0 0 0 -0.3 0 0 0 0 0 0 0 0 0 0 0 0 -0.3 0 0 0 0 0 0 0 0 -0.3 0 0 0 0 0 0 -0.3 0 0 0 0 0 0 0 0 0 0 0 0 0 0 0 -0.3 0 0 0 0 0 0 0 0 -0.59 0 0 0.3 0 0 0 0 0 0 0 0 0 0.3 0 0 0.3 0 0 0 0 0 0 0 0 0.3 0 0 0 0 0 0 0 0 0 0 0 0.3 0.3 0 0 0 0 0 0 0 0 0 0 0.3 0 0 0 0 0.3 0 0 0 0 0 0 0 0 0 0 0 0 0 0zm-0.3 0.3l0 0 0 0 0 0zm0.89 2.37l-0.3 -0.3 0 0.3 0 0 -0.3 -0.3 0 0 0 0 0 -0.3 0 0 0 0 0 0 0 -0.3 0 0 0 0 0 -0.3 0 0 0 0 0 0 0 -0.3 0 0 0 0 0 0 -0.3 -0.3 0 0 0 0 0 0 0 0 0 -0.3 0 0 0 0 0 0 0 0 0 -0.3 0 0 0 0 0.3 -0.3 0 0 0 0.3 0.3 0 0 0 0 0 0 0.3 0 0 0 0 0 0 0 0.3 0 0 0 0 0 0 0 0.3 0 0 0.3 0 0 0 0 0.3 0 0 0 0 0 0 0 0.3 0 0 0 0 0 0.3 0 0 0 0 0 0 0 0.3 0 0 0 0 0 0.3 0 0zm0 0l0.3 0 -0.3 0 0 0z"/>
    </g>
   </g>
  </g>
  <rect class="fil0" width="140" height="140"/>
 </g>
</svg>
