<?xml version="1.0" encoding="UTF-8"?>
<!DOCTYPE svg PUBLIC "-//W3C//DTD SVG 1.1//EN" "http://www.w3.org/Graphics/SVG/1.1/DTD/svg11.dtd">
<!-- Creator: CorelDRAW -->
<svg xmlns="http://www.w3.org/2000/svg" xml:space="preserve" width="0.14in" height="0.14in" version="1.1" style="shape-rendering:geometricPrecision; text-rendering:geometricPrecision; image-rendering:optimizeQuality; fill-rule:evenodd; clip-rule:evenodd"
viewBox="0 0 140 140"
 xmlns:xlink="http://www.w3.org/1999/xlink"
 xmlns:xodm="http://www.corel.com/coreldraw/odm/2003">
 <defs>
  <style type="text/css">
   <![CDATA[
    .str0 {stroke:#1C2335;stroke-width:3.33;stroke-miterlimit:2.61313}
    .fil0 {fill:none}
    .fil1 {fill:#1C2335;fill-rule:nonzero}
   ]]>
  </style>
 </defs>
 <g id="Layer_x0020_1">
  <metadata id="CorelCorpID_0Corel-Layer"/>
  <g id="_1783029079216">
   <circle class="fil0 str0" transform="matrix(0.605312 0.179548 -0.179548 0.605312 70 70)" r="107.11"/>
   <g id="_2134955295088">
    <g>
     <path class="fil1" d="M37.23 69.34c0,-0.3 0,-0.59 0,-0.59 -0.59,-3.54 -1.47,-6.78 -2.06,-10.31 -0.3,-0.59 -0.59,-0.89 -1.18,-0.59 -0.59,0.3 -0.89,0.3 -0.89,1.18 0.3,0.59 0.3,1.18 0.59,1.77 0.59,2.65 1.18,5.6 1.77,8.54 0,0.59 0.3,0.88 0.89,0.59 0.29,-0.3 1.18,0 0.88,-0.59l0 0zm65.98 -21.8c-0.59,-3.54 -1.47,-7.37 -2.35,-11.2 -0.3,-0.59 -0.59,-0.29 -0.89,-0.29 -0.59,0.29 -1.18,0.29 -0.88,1.18 0.88,3.54 1.47,7.07 2.35,10.9 0,0.59 0.59,0.59 0.89,0.3 0.3,0 1.18,0 0.88,-0.88zm-12.37 -13.55c0.3,0 0.59,0 0.89,-0.3 4.71,-1.47 9.43,-2.65 14.14,-4.12 1.18,-0.59 1.77,-1.47 1.47,-2.36 -0.3,-1.18 -1.18,-1.77 -2.36,-1.47 -1.47,0.3 -2.65,0.89 -4.12,1.18 -3.24,0.89 -6.78,2.06 -10.31,3.24 -1.18,0.3 -1.77,1.18 -1.47,2.06 0,1.18 0.89,1.77 1.77,1.77l0 0zm-65.98 21.8c0.29,0 0.59,-0.29 0.88,-0.29 4.71,-1.47 9.43,-2.95 14.14,-4.13 0.3,-0.3 0.59,-0.3 0.59,-0.3 0.89,-0.59 1.18,-1.18 1.18,-2.06 -0.3,-1.18 -0.89,-1.47 -1.77,-1.47 -0.29,0 -0.88,0 -1.47,0 -1.47,0.59 -2.94,0.88 -4.71,1.47 -2.94,0.88 -6.19,1.77 -9.13,2.94 -0.88,0.3 -1.77,0.88 -1.47,2.06 0.3,1.18 0.89,1.47 1.77,1.77l0 -0zm-6.48 30.34c0.3,0 0.89,0 1.18,-0.3 11.49,-3.54 22.98,-7.36 34.76,-11.19 0.59,0 0.89,-0.59 0.89,-1.18 0.59,-1.18 0.88,-2.65 1.47,-3.83 0,-0.29 0.3,-0.88 0,-1.18 -0.3,-0.3 -0.59,0 -0.89,0 -4.42,1.47 -8.83,2.94 -12.96,4.13 -8.54,2.94 -16.79,5.59 -25.33,8.24 -1.47,0.59 -2.06,1.77 -2.06,2.95 0.3,1.47 1.47,2.35 2.94,2.35l0 0zm106.04 -36.23c0,-1.18 -0.88,-2.35 -2.06,-2.35 -0.89,-0.3 -1.77,0 -2.65,0.29 -6.48,2.06 -12.96,4.13 -19.44,6.19 -6.48,2.06 -13.26,4.42 -19.74,6.48 -0.88,0.29 -0.88,0.59 -0.29,1.18 0.59,0.88 1.18,1.77 1.47,2.65 0.29,1.18 0.59,1.18 1.77,0.89 8.25,-2.65 16.5,-5.3 24.74,-7.95 4.71,-1.77 9.43,-3.24 14.14,-4.71 1.47,-0.3 2.06,-1.47 2.06,-2.65l-0 0zm-54.49 64.51c7.07,0 14.14,0 21.21,0 0.88,0 1.47,-0.29 1.47,-1.47 -0.3,-1.77 -0.3,-3.83 0,-5.59 0,-0.89 -0.3,-1.18 -1.18,-1.18 -1.77,0 -3.24,0 -5,0 -1.18,0 -1.47,-0.59 -1.47,-1.77 0,-3.24 -0.3,-2.95 2.35,-2.95 1.18,0 1.47,-0.59 1.18,-1.77 0,-0.29 0,-0.59 -0.29,-0.88 -3.24,-10.61 -6.48,-20.91 -9.72,-31.22 -1.47,-4.42 -4.71,-7.37 -8.54,-7.37 -3.83,0.3 -6.78,2.95 -8.25,7.37 -1.18,3.54 -2.36,7.07 -3.54,10.6 -2.35,7.07 -4.42,13.85 -6.48,20.62 -0.88,2.06 -0.59,2.65 1.47,2.65 8.54,0 17.08,0 25.63,0 2.95,0 2.65,-0.59 2.65,2.94 0,1.47 -0.3,1.77 -1.47,1.77 -1.77,0 -3.83,0 -5.6,0 -8.54,0 -16.79,0 -25.33,0 -1.47,0 -1.47,0 -1.47,1.77 0,1.47 0,3.24 0,4.71 0,1.77 0,1.77 1.47,1.77 7.07,0 13.84,0 20.91,0l0 0zm-58.32 -32.69c0.88,-2.95 2.65,-4.71 5.59,-5.6 4.42,-1.18 8.84,-2.94 13.26,-4.12 0.89,-0.3 1.18,-0.89 0.89,-2.06 -0.59,-2.95 -1.18,-5.89 -1.77,-9.13 -0.3,-1.18 -0.59,-1.47 -1.77,-1.18 -1.18,0.59 -2.65,0.89 -3.83,0.59 -2.94,-0.59 -4.71,-2.94 -5.01,-5.89 0,-3.54 1.47,-6.19 4.42,-7.07 5,-1.47 9.72,-2.94 14.72,-4.42 0.59,0 1.47,0 2.06,0 2.95,0.3 5.01,2.65 5.3,5.89 0.3,2.65 -1.18,5.6 -3.54,6.78 -0.88,0.3 -1.77,0.3 -2.35,0.59 -0.59,0.29 -0.89,0.59 -0.59,1.18 0.59,3.54 1.47,6.78 2.06,10.02 0.29,0.88 0.59,0.88 1.18,0.88 5.3,-1.77 10.9,-3.53 16.2,-5.3 0.59,-0.29 0.89,-0.59 1.18,-1.18 3.83,-5.59 9.43,-7.36 15.02,-4.71 0.59,0 1.18,0.3 1.77,0 6.78,-2.06 13.55,-4.42 20.33,-6.48 0.59,-0.3 0.88,-0.59 0.88,-1.47 -0.88,-3.54 -1.77,-6.78 -2.35,-10.31 -0.3,-0.89 -0.59,-1.18 -1.18,-0.89 -0.88,0.3 -1.77,0.59 -2.94,0.59 -2.94,0.3 -5.6,-1.77 -6.19,-5.01 -0.59,-3.24 0.88,-6.48 3.83,-7.37 5.3,-2.06 10.61,-3.53 15.91,-5 2.95,-0.59 5.89,1.47 6.48,4.71 0.89,3.24 -0.59,6.48 -3.24,7.95 -0.88,0.29 -1.77,0.59 -2.35,0.59 -0.59,0.29 -0.89,0.59 -0.59,1.47 0.59,3.24 1.47,6.48 2.06,10.01 0.3,0.89 0.59,1.18 1.47,0.89 3.24,-1.18 6.78,-2.36 10.31,-3.54 1.77,-0.59 3.24,-0.59 5.01,-0.3 2.65,0.89 4.42,3.54 4.42,6.48 0.29,3.54 -1.18,6.48 -4.13,7.37 -4.71,1.77 -9.72,3.24 -14.73,5.01 -8.25,2.65 -16.5,5.3 -24.74,7.95 -0.88,0.3 -1.18,0.59 -0.88,1.77 2.94,8.54 5.59,17.38 8.54,26.22 0.29,0.88 0.29,1.77 0.29,2.65 0,0.88 0.3,1.18 0.89,1.18 0.88,0 2.06,-0.59 2.65,0.3 0.59,0.88 0.3,2.06 0.3,3.24 0,4.13 0,8.25 0,12.37 0,1.18 -0.3,1.77 -1.18,1.77 -16.79,0 -33.58,0 -50.37,0 -1.18,0 -1.47,-0.29 -1.47,-1.47 0,-5 0,-10.01 0,-14.72 0,-1.18 0.29,-1.77 1.18,-1.47 0.3,0 0.3,0 0.3,0 2.06,0 2.06,0 2.35,-2.36 0,-0.59 0.3,-0.89 0.3,-1.47 1.77,-5.3 3.54,-10.9 5.3,-16.2 0,-0.3 0.29,-0.89 0.29,-1.18 -0.29,-0.3 -0.88,0 -1.18,0 -10.31,3.24 -20.32,6.77 -30.63,10.01 -1.18,0.3 -2.35,0.59 -3.83,0.59 -2.95,-0.3 -5.01,-2.35 -5.89,-5.59l0 -3.54 0 -0z"/>
     <path id="_1" class="fil1" d="M36.94 68.75l0.59 0 0 0 0 0 0 0 0 0 0 0 0 0 0 0 0 0 0 0 0 0 0 0 0 0 0 0 0 0 0 0 0 0 0 0 0 0 0 0.3 0 0 0 0 0 0 0 0 0 0 0 0 0 0 0 0 0 0 0 0 0 0 0 0 0 0.3 0 0 -0.3 0 0 0 0 0 0 0 0 0 0 -0.3 0 0 0 0 0 0 0 0 0 0 0 0 0 0 0 0 0 0 0 0 0 0 0 0 0 0 -0.3 0 0 -0.3 0 0 0 0 0 0 0 0 0 0 0 0 0 0 0 0 0 0 0 0 0 0 0 0 0 0 0 0zm0.59 0l0 0 0 0 0 0zm-2.65 -10.01l0.3 -0.3 0 0 0.3 0.3 0 0.29 0 0.3 0 0.59 0 0.3 0.3 0.29 0 0.3 0 0.3 0 0.3 0.29 0.29 0 0.3 0 0.3 0 0.3 0.3 0.29 0 0.3 0 0.3 0 0.59 0.3 0.29 0 0.3 0 0.3 0 0.3 0 0.29 0.3 0.3 0 0.3 0 0.3 0 0.29 0.29 0.3 0 0.3 0 0.59 0 0.29 0.3 0.3 0 0.3 -0.59 0 0 -0.3 0 -0.3 0 -0.29 -0.29 -0.3 0 -0.3 0 -0.3 0 -0.29 0 -0.3 -0.3 -0.59 0 -0.3 0 -0.29 0 -0.3 -0.3 -0.3 0 -0.3 0 -0.29 0 -0.3 -0.3 -0.3 0 -0.3 0 -0.29 0 -0.3 -0.29 -0.59 0 -0.3 0 -0.29 0 -0.3 0 -0.3 -0.3 -0.3 0 -0.29 0 -0.3 0 -0.3 -0.3 -0.3 0 -0.29 0 -0.3 0 0 0 0zm-0.88 -0.59l0 -0.59 0 0 0 0 0 0 0 0 0.3 0 0 0 0 0 0 0 0 0 0.29 0 0 0 0 0 0 0 0 0 0 0 0.3 0 0 0 0 0 0 0 0 0.3 0 0 0 0 0.3 0 0 0 0 0 0 0.3 0 0 0 0 0 0 0 0 0 0.29 0 0 0 0 -0.3 0.3 0 -0.3 0 0 0 0 0 0 0 0 0 0 0 -0.29 0 0 -0.3 0 0 0 0 0 0 0 0 0 0 0 0 0 0 0 0 0 0 0 0 0 0 0 0 0 0 0 -0.29 0 0 0 0 0 0 0 0 0 0 0 0 0 0 0 -0.3 0 0 0 0 0 0 0zm0 -0.59l0 0 0 0 0 0zm-0.59 1.47l-0.3 0 0 0 0 0 -0.29 0 0 -0.29 0 0 0 0 0 0 0 -0.3 0 0 0 0 0.29 0 0 -0.3 0 0 0 0 0 0 0 0 0 0 0 -0.3 0 0 0.3 0 0 0 0 0 0 0 0 0 0 0 0.3 0 0 0 0 -0.29 0 0 0 0 0 0 0.3 0 0 0 0 0.59 0 0 0 0 0 0 0 0 -0.3 0 0 0 0 0 0 0 0 0 0 0 0 0 -0.3 0 0 0.3 0 0 0 0 0 0 0 0 0 0 0 0 0 0 0 0 0 0 0 0 0 0 0 0.3 0 0 0 0 0 0 0 0 0 0 0 0.3 0 0 0 0 0 -0zm0 0l0 0 0 -0.29 0 0.29zm0.3 1.77l-0.3 0 0 0 0 0 0 0 0 -0.29 0 0 0 0 0 0 0 0 0 0 -0.29 -0.3 0 0 0 0 0 0 0 0 0 -0.3 0 0 0 0 0 0 0 0 0 0 0 -0.3 0 0 0 0 0 0 0 0 0 0 0 -0.29 0 0 0 0 0 0 0 0 0 0 0 -0.3 0.29 0 0 0 0 0 0 0 0 0.3 0 0 0 0 0 0 0 0 0 0 0 0.29 0 0 0 0 0.3 0 0 0 0 0.3 0 0 0 0 0 0 0 0 0 0 0 0.3 0 0 0 0 0 0 0 0 0 0 0 0.3 0 0 0 0 0 0 0 0 0 0.29 0 0zm1.77 8.54l-0.3 0 0 0 0 -0.3 0 -0.3 -0.3 -0.29 0 -0.3 0 -0.3 0 -0.29 0 0 0 -0.3 -0.29 -0.3 0 -0.3 0 -0.29 0 -0.3 0 -0.3 -0.3 -0.3 0 -0.29 0 -0.3 0 0 0 -0.3 -0.3 -0.3 0 -0.29 0 -0.3 0 -0.3 0 -0.3 -0.3 -0.29 0 -0.3 0 -0.3 0 -0.3 0 0 -0.29 -0.29 0 -0.3 0 -0.3 0 -0.3 0.29 0 0 0 0.3 0.3 0 0.3 0 0.3 0 0.29 0 0.3 0.3 0.3 0 0.3 0 0.29 0 0.3 0 0.3 0.3 0 0 0.3 0 0.29 0 0.3 0 0.3 0.29 0.3 0 0.29 0 0.3 0 0.3 0 0.3 0.3 0 0 0.29 0 0.3 0 0.3 0 0.3 0 0.29 0.3 0.3 0 0.3 0 0.29 0 0.3 0 0.3 0 0zm0 0l0 0 0 0 0 0zm0.88 0.3l0 0.59 0 0 0 0 0 0 0 0 -0.29 0 0 0 0 0 0 0 0 0 -0.3 0 0 0 0 0 0 0 0 0 0 0 -0.3 0 0 0 0 0 0 -0.3 0 0 0 0 0 0 0 0 0 0 0 -0.3 -0.3 0 0 0 0 0 0 0 0 0 0 -0.29 0 0 0 0 0.3 0 0 0 0.3 0 0 0 0 0 0 0 0 0 0 0.29 0 0 0 0 0 0 0 0 0 0 0 0 0 0 0 0 0 0 0 0 0 0 0 0 0 0.3 0 0 0.3 0 0 0 0 0 0 0 0 0 0 0 0 0 0 -0.3 0 0 0.29 0 0 0 0 0 0 0zm0 0l0 0 0 0 0 0zm0.89 -0.3l0.3 0 0 0 0 0 0 0 0 0 0 0.3 0 0 0 0 0 0 0 0 0 0.29 -0.3 0 0 0 0 0 0 0 0 0 0 0 -0.3 0 0 0 0 0 0 0 0 0 0 0 0 0 -0.3 0.3 0 0 0 0 0 0 0 0 0 0 0 0 -0.29 0 0 0 0 0 0 -0.59 0 0 0 0 0 0 0 0 0.29 0 0 0 0 0 0 0 0 0 0 0 0 0 0.3 0 0 0 0 0 0 0 0 0 0 0 0 0 0 0 0 0 0.3 -0.29 0 0 0 0 0 0 0 0 0 0 0 0 0 0 0 0 0 0 0 0 0 0 0 0 0 0zm0.3 0l0 0 0 0 0 0zm63.04 -32.7l0.59 -0.3 0 0 0 0.3 0 0.59 0 0.3 0.29 0.29 0 0.3 0 0.3 0.3 0.3 0 0.59 0 0.3 0 0.3 0.3 0.3 0 0.29 0 0.59 0 0.3 0.3 0.3 0 0.29 0 0.3 0 0.59 0.29 0.3 0 0.29 0 0.3 0 0.3 0.3 0.3 0 0.59 0 0.3 0 0.3 0.3 0.3 0 0.29 0 0.3 0 0.59 0.3 0.3 0 0.29 -0.3 0 -0.3 -0.29 0 -0.3 0 -0.3 0 -0.3 -0.3 -0.29 0 -0.59 0 -0.3 0 -0.3 -0.29 -0.29 0 -0.3 0 -0.59 -0.3 -0.3 0 -0.29 0 -0.3 0 -0.3 -0.3 -0.3 0 -0.59 0 -0.3 0 -0.3 -0.3 -0.3 0 -0.29 0 -0.59 0 -0.3 -0.29 -0.3 0 -0.29 0 -0.3 0 -0.59 -0.3 -0.3 0 -0.29 0 -0.3 0 -0.3 -0.3 -0.3 0 0 0 0zm-0.59 -0.3l-0.29 -0.59 0 0 0 0 0.29 0 0 0 0 0 0 0 0 0 0 0 0 0 0.3 0 0 0 0 0 0 0 0 0 0 0 0 0 0.3 0 0 0 0 0 0 0 0 0 0 0 0.3 0 0 0 0 0 0 0.29 0 0 0 0 0 0 0 0 0.29 0.3 0 0 0 0 -0.59 0.3 0 -0.3 0 0 0 0 0 0 0 0 0 0 0 0 0 0 0 0 0 0 0 0 0 0 0 0 0 0 0 0 0 0 -0.3 0 0 0 0 0 0 0 0 0 0 0 0 0 0 0 0 0 -0.3 0 0 0 0 0 0 0 0 0 0 0 0 0 0 0 0 0zm0 0l0 0 0 0 0 0zm-0.59 0.59l-0.59 0.3 0 0 0 0 0 -0.3 0 0 0 0 0 0 0 -0.3 0 0 0 0 0 0 0 0 0 -0.3 0 0 0.3 0 0 0 0 0 0 0 0 -0.29 0 0 0 0 0.29 0 0 0 0 0 0 0 0 0 0 0 0 0 0.3 0 0 0 0 0 0 -0.3 0 0 0 0 0.3 0.59 0 0 -0.3 0 0 0 0 0 0 0 0 0 0 0 0 0 -0.3 0 0 0 0 0.29 0 0 0 0 0 0 0 0 0 0 0 0 0 0 0 0 0 0 0 0 0 0 0 0 0 0 -0.29 0 0 0.3 0 0 0 0 0 0 0 0 0.29 0 0 0 0 0 0 0zm-0.59 0.3l0 0 0 0 0 0zm2.94 10.9l-0.59 0 0 0 0 -0.3 0 -0.29 -0.29 -0.3 0 -0.59 0 -0.3 0 -0.29 -0.3 -0.3 0 -0.3 0 -0.3 0 -0.59 -0.3 -0.3 0 -0.3 0 -0.3 0 -0.29 -0.3 -0.3 0 -0.59 0 -0.3 0 -0.29 -0.29 -0.3 0 -0.3 0 -0.3 0 -0.29 -0.3 -0.59 0 -0.3 0 -0.3 0 -0.29 -0.3 -0.3 0 -0.3 0 -0.59 0 -0.29 -0.3 -0.3 0 -0.3 0.59 -0.3 0 0.59 0 0.3 0 0.3 0.3 0.29 0 0.3 0 0.3 0 0.59 0.3 0.29 0 0.3 0 0.3 0 0.3 0.29 0.29 0 0.59 0 0.3 0 0.3 0.3 0.29 0 0.3 0 0.3 0 0.59 0.3 0.29 0 0.3 0 0.3 0 0.3 0.3 0.29 0 0.59 0 0.3 0 0.3 0.29 0.29 0 0.3 0 0.3 0 0.59 0.3 0.29 0 0 0 0zm-0.59 0l0 0 0 0 0 0zm1.18 0.3l0 0.3 0 0 0 0 0 0 0 0 0 0 0 0 0 0 -0.3 0.3 0 0 0 0 0 0 0 0 0 0 0 0 -0.3 0 0 0 0 0 0 0 0 -0.3 0 0 -0.29 0 0 0 0 0 0 0 0 0 0 0 0 -0.3 0 0 -0.3 0 0 0 0 0 0 -0.3 0 0 0.59 0 0 0 0 0 0 0 0 0 0 0 0 0.3 0 0 0 0 0 0 0 0 0 0 0 0 0 0 0 0 0 0 0 0 0 0 0.29 0 0 0 0 0 0 0 0 0 0 0 0 0 0 0 0 0 0 0 0 0 0.3 0 0 0 0 0 0 0 0 0 0 0zm0 0.3l0 0 0.3 0 -0.3 0zm0.88 -1.18l0.3 0 0 0 0 0 0 0.29 0 0 0 0 0 0.3 0 0 0 0 0 0 0 0 -0.3 0.3 0 0 0 0 0 0 0 0 0 0 0 0 -0.29 0.29 0 0 0 0 0 0 0 0 0 0 0 0 -0.3 0 0 0 0 0 0 0 0 0 0 0 0 0 -0.3 0 0 0 0 -0.29 0 0 0 0 0 -0.3 0.3 0 0 0 0 0 0 0 0 0 0 0 0 0 0 0 0.3 0 0 0 0 0 0 0 0 0 0 0 0 0 0 0 0 0 0 0 0 0 0 0 0 0 0 -0.3 0 0 0.29 0 0 0 0 0 0 0 0 0 0 -0.29 0 0zm0.3 0l0 0 0 0 0 0zm-12.08 -13.85l0.3 0.3 0 0 0 0 0 0 0 0 -0.3 0 0 0 0 0 0 0 0 0 0 0 0 0 0 0 0 0 0 0 0 0 -0.29 0 0 0 0 0 0 0 0 0 0 0 0 0 0 0 0 0 0 0 0 0 0 0 0 0 0 0 -0.3 0 0 0 0 0 0 0 0 -0.3 0 0 0 0 0 0 0 0 0 0 0.3 0 0 0 0 0 0 0 0 0 0 0 0 0 0 0 0 0 0 0 0 0 0 0 0 0 0.29 0 0 0 0 0 0 0 0 0 0 0 0 0 0 0 0 0 0 0 0 0 0 0 0 0 0 0 0 0zm0 0l0 0 0 0 0 0zm14.44 -4.42l0 0.3 0 0 -0.3 0.29 -0.59 0 -0.3 0.3 -0.59 0 -0.3 0.3 -0.59 0 -0.3 0.3 -0.59 0 -0.3 0.29 -0.59 0 -0.3 0 -0.59 0.3 -0.3 0 -0.59 0.3 -0.3 0 -0.59 0.3 -0.29 0 -0.59 0.29 -0.3 0 -0.59 0.3 -0.59 0 -0.3 0.3 -0.59 0 -0.3 0 -0.59 0.29 -0.3 0 -0.59 0.3 -0.3 0 -0.59 0.3 -0.3 0 -0.59 0.3 -0.3 0 -0.29 -0.3 0.59 -0.3 0.3 0 0.59 -0.3 0.59 0 0.29 -0.29 0.59 0 0.3 -0.3 0.59 0 0.29 -0.3 0.59 0 0.3 -0.29 0.59 0 0.29 0 0.59 -0.3 0.3 0 0.59 -0.3 0.3 0 0.59 -0.3 0.3 0 0.59 -0.29 0.3 0 0.59 -0.3 0.3 0 0.59 -0.3 0.3 0 0.59 0 0.3 -0.3 0.59 0 0.3 -0.29 0.59 0 0.3 -0.3 0.59 0 0 0 0 0zm1.47 -2.06l0.29 -0.3 0 0 0 0.3 0 0 0 0 0 0.3 0 0 0 0.3 0 0 0 0 0 0.29 0 0 0 0 0 0.3 0 0 -0.29 0 0 0.3 0 0 0 0 0 0 -0.3 0.3 0 0 0 0 0 0 -0.3 0.29 0 0 0 0 0 0 -0.3 0.3 0 0 -0.29 0 0 0 0 0 -0.3 0 0 -0.3 0 0 0.3 0 0 -0.29 0 0 0.29 0 0 0 0 0 0 0 0.3 -0.3 0 0 0 0 0 0 0 0 0.3 -0.3 0 0 0 0 0 0 0 -0.3 0 0 0 0 0.3 0 0 -0.29 0 0 0 0 0 0 0 -0.3 0 0 0 0 0 0 0 -0.3 0 0 0 0 0 0zm-2.36 -1.18l0 -0.59 0 0 0 0 0.3 0 0 0 0 0 0.3 0 0 0 0 0 0.29 0 0 0 0.3 0 0 0 0 0 0.3 0 0 0 0 0 0.3 0.3 0 0 0 0 0 0 0.29 0 0 0.3 0 0 0 0 0.3 0.29 0 0 0 0 0 0.3 0 0 0.3 0 0 0.3 0 0 0 0 -0.3 0.29 -0.3 0 0 -0.29 0 0 0 0 0 -0.3 0 0 0 0 0 0 -0.29 -0.3 0 0 0 0 0 0 0 0 -0.3 -0.29 0 0 0 0 0 0 -0.3 0 0 0 0 0 0 0 -0.3 0 0 -0.3 0 0 -0.29 0 0 0 0 0 -0.3 0 0 0 0 0.3 -0.3 0 0 0 0 0 0 0zm-3.83 1.18l-0.3 -0.59 0 0 0.3 0 0 0 0.29 0 0 0 0 -0.29 0.3 0 0 0 0.3 0 0 0 0 0 0.3 0 0 0 0.29 -0.3 0 0 0.3 0 0 0 0 0 0.3 0 0 0 0.3 0 0 -0.3 0 0 0.29 0 0 0 0.3 0 0 0 0.3 0 0 0 0 -0.3 0.29 0 0 0 0.3 0 0 0.59 0 0 -0.3 0 0 0 -0.29 0 0 0 0 0 -0.3 0.3 0 0 -0.3 0 0 0 -0.29 0 0 0 0 0 -0.3 0 0 0.3 -0.3 0 0 0 -0.3 0 0 0 0 0 -0.29 0 0 0 -0.3 0.29 0 0 0 0 -0.3 0 0 0 -0.3 0 0 0 -0.29 0 0 0.3 0 0 0 0zm-10.61 2.94l0 -0.3 0 0 0.3 0 0.29 -0.29 0.3 0 0.3 0 0.3 -0.3 0.29 0 0.59 -0.3 0.3 0 0.3 0 0.29 -0.3 0.3 0 0.3 0 0.3 -0.29 0.29 0 0.3 0 0.59 -0.3 0.3 0 0.29 0 0.3 -0.3 0.3 0 0.3 0 0.29 -0.3 0.3 0 0.3 0 0.3 -0.29 0.59 0 0.3 0 0.3 -0.3 0.3 0 0.29 0 0.3 -0.3 0.3 0 0.3 0.59 -0.3 0 -0.59 0 -0.3 0.3 -0.29 0 -0.3 0 -0.3 0.29 -0.3 0 -0.29 0 -0.3 0.3 -0.3 0 -0.59 0 -0.29 0.3 -0.3 0 -0.3 0 -0.3 0.3 -0.29 0 -0.3 0 -0.3 0.29 -0.3 0 -0.59 0 -0.3 0.3 -0.3 0 -0.3 0 -0.29 0.3 -0.3 0 -0.3 0 -0.3 0.3 -0.29 0 -0.59 0 -0.3 0.29 -0.3 0 -0.29 0 0 0 0 0zm-1.47 2.06l-0.3 0 0 0 0 0 0 0 0 -0.3 0 0 0 0 0 -0.3 0 0 0 0 0 -0.29 0 0 0 0 0.3 -0.3 0 0 0 0 0 -0.3 0 0 0 0 0.3 0 0 -0.3 0 0 0 0 0.29 0 0 -0.29 0 0 0 0 0.3 0 0 0 0 -0.3 0.3 0 0 0 0 0 0.3 0 0 0.3 0 0.29 0 0 -0.3 0 0 0 0 0 -0.3 0 0 0 0 0.3 0 0 -0.3 0 0 0 0 0 0 0.3 0 0 -0.29 0 0 0 0 0 0 0.3 0 0 0 0 0 0 0 0.29 0 0 -0.3 0 0 0 0 0.3 0 0 0 0 0 0 0 0.3 0 0 0 0 0 0zm-0.3 0l0 0 0 0 0 0zm2.06 1.47l0 0.3 0 0 0 0 0 0 -0.3 0 0 0 0 0 -0.29 0 0 0 0 0 -0.3 0 0 0 0 0 0 0 -0.3 -0.3 0 0 0 0 0 0 -0.3 0 0 0 0 -0.3 0 0 -0.29 0 0 0 0 -0.29 0 0 0 0 0 -0.3 0 0 -0.3 0 0 -0.3 0 0 0 0 0 -0.3 0.3 0 0.29 0 0 0.3 0 0 0 0 0 0 0 0.3 0 0 0 0 0 0 0 0.3 0.3 0 0 0 0 0 0 0 0 0 0 0.29 0.3 0 0 0 0 0 0 0 0 0 0.3 0 0 0 0 0 0 0.3 0 0 0.29 0 0 0 0 0 0.3 0 0 0 0 0 0 0zm0 0.3l0 0 0 0 0 0zm-65.1 21.21l0 0.59 0 0 0 0 0 0 0 0 0 0 0 0 0 0 0 0 -0.3 0 0 0 0 0 0 0 0 0 0 0 0 0 0 0 0 0 0 0 0 0 0 0 -0.3 0 0 0 0 0 0 0 0 0 0 0 0 0 0 0 0 0 0 0 0 0 0 0 0 0.29 -0.29 -0.59 0 0 0 0 0.29 0 0 0 0 0 0 0 0 0 0 0 0 0 0 0 0 0 0 0 0 0 0 0 0 0 0.3 0 0 0 0 0 0 0 0 0 0 0 0 0 0 -0.3 0 0 0 0 0 0 0 0 0 0 0.3 0 0 0 0 0 0 0 0 0zm0 0.59l0 0 0.3 0 -0.3 0zm14.14 -4.71l0 0.3 0 0 -0.59 0.3 -0.29 0 -0.59 0.3 -0.3 0 -0.59 0.29 -0.29 0 -0.59 0.3 -0.3 0 -0.59 0.3 -0.29 0 -0.3 0 -0.59 0.29 -0.3 0 -0.59 0.3 -0.3 0 -0.59 0.3 -0.3 0 -0.59 0.3 -0.3 0 -0.59 0 -0.3 0.29 -0.59 0 -0.29 0.3 -0.59 0 -0.3 0.3 -0.59 0 -0.29 0.3 -0.59 0 -0.3 0.29 -0.59 0 -0.29 0 -0.59 0.3 0 -0.59 0.3 0 0.59 -0.29 0.3 0 0.59 -0.3 0.3 0 0.59 0 0.3 -0.3 0.59 0 0.3 -0.3 0.59 0 0.3 -0.29 0.59 0 0.3 -0.3 0.59 0 0.29 0 0.59 -0.3 0.3 0 0.59 -0.3 0.29 0 0.59 -0.29 0.3 0 0.59 -0.3 0.29 0 0.59 -0.3 0.3 0 0.59 0 0.29 -0.3 0.59 0 0.3 -0.29 0.59 0 0.29 -0.3 0.59 0 0 0 0 0zm0 0.3l0 0 -0.3 0.3 0.3 -0.3zm0.59 -0.59l0.3 0.29 0 0 0 0 -0.3 0 0 0 0 0.3 0 0 0 0 0 0 0 0 0 0 0 0 0 0 0 0 0 0 -0.3 0 0 0 0 0 0 0 0 0 0 0 0 0 0 0 0 0 0 0 0 0 0 0 -0.3 0 0 0 0 0 0 0 0 0 0 0 0 0 0 -0.3 0 0 0 0 0 0 0 0 0 0 0 0 0 0 0 0 0 0 0 0 0 0 0.3 0 0 -0.29 0 0 0 0 0 0 0 0 0 0 0 0 0 0 0 0 0 0 0 0 0 0 0 0 0.3 0 0 0 0 0 0 0 0 0 0 0 0 0 0 0zm0.3 0.29l0 0 0 0 0 0zm0.59 -2.06l0.3 0 0 0 0 0 0 0 0 0.29 0 0 0 0 0 0 0 0.3 0 0 0 0 0 0.3 0 0 0 0 0 0.29 0 0 0 0 0 0 -0.3 0 0 0.3 0 0 0 0 0 0 0 0.3 -0.3 0 0 0 0 0 0 0 0 0.3 0 0 -0.29 0 0 0 0 0 0 0 -0.3 -0.3 0 0 0 0 0.3 -0.3 0 0 0 0 0 0 0 0 0 0 0.29 0 0 -0.3 0 0 0 0 0 0 0 0 0 0 0 -0.29 0 0 0.3 0 0 0 0 0 0 -0.3 0 0 0 0 0 0 0 0 0 -0.3 0 0 0 0 0 0 0 -0.29 0 0 0 0 0 0zm0.3 0l0 0 0 0 0 0zm-1.77 -1.47l0 -0.3 0 0 0 0 0.3 0 0 0 0 0 0 0 0.3 0 0 0 0 0 0.29 0 0 0 0 0 0 0.3 0 0 0.3 0 0 0 0 0 0 0 0.3 0.29 0 0 0 0 0 0 0 0.3 0 0 0 0 0.3 0 0 0.3 0 0 0 0 0 0.29 0 0 0 0 0 0.3 -0.3 0 0 0 0 -0.3 0 0 0 0 0 0 -0.3 -0.29 0 0 0 0 0 0 0 0 0 -0.3 0 0 0 0 0 0 -0.3 0 0 0 0 -0.3 0 0 0 0 0 0 -0.29 0 0 0 0 0 0 0 0 0 -0.3 0 0 0 0 -0.29 0 0 0 0 -0.3 0 0 0 0 0zm0 0l0 0 0 0 0 0zm-1.18 0.29l-0.3 -0.59 0 0 0 0 0.3 0 0 0 0 0 0 0 0 0 0 0 0 0 0.3 0 0 0 0 0 0 0 0 0 0 0 0.29 0 0 0 0 0 0 0 0 0 0 0 0 0 0.3 0 0 0 0 0 0 0 0 0 0 0 0 0 0.3 0 0 0 0 0 0 0 0 0.3 0 0 0 0 0 0 -0.3 0 0 0 0 0 0 0 0 0 0 0 0 0 0 0 -0.3 0 0 0 0 0.3 0 0 0 0 0 0 0 0 -0.29 0 0 0 0 0 0 0 0 0 0 0 0 0 -0.3 0 0 0 0 0 0 0 0 0 0 0 0 0 0 0 0 0zm-0.3 -0.59l0 0 0.59 0 -0.59 0zm-4.71 2.06l0 -0.59 0 0 0 0 0.3 0 0 0 0.3 0 0 0 0.29 -0.3 0 0 0.3 0 0 0 0.3 0 0.3 0 0 -0.3 0.29 0 0 0 0.3 0 0 0 0.3 0 0 0 0.3 -0.29 0 0 0.29 0 0 0 0.3 0 0 0 0.3 -0.3 0 0 0.3 0 0 0 0.29 0 0 0 0.3 0 0 -0.3 0.3 0.59 -0.3 0 0 0 -0.3 0 0 0.3 -0.29 0 0 0 -0.3 0 0 0 -0.3 0 0 0.29 -0.3 0 -0.29 0 0 0 -0.3 0 0 0 -0.3 0 0 0.3 -0.3 0 0 0 -0.29 0 0 0 -0.3 0 0 0.3 -0.3 0 0 0 -0.3 0 0 0 -0.29 0 0 0 -0.3 0.3 0 0 -0.3 0 0 0zm-9.13 2.94l0 -0.59 0 0 0.29 0 0 -0.3 0.3 0 0.3 0 0.29 -0.3 0.3 0 0.3 0 0.3 -0.29 0.29 0 0.3 0 0.3 0 0.3 -0.3 0.29 0 0.3 0 0.3 -0.3 0.3 0 0.29 0 0.3 -0.3 0.3 0 0.3 0 0.29 0 0.3 -0.29 0.3 0 0.3 0 0.29 -0.3 0.3 0 0.3 0 0.3 0 0.29 -0.3 0.3 0 0.3 0 0.29 -0.3 0 0.59 -0.29 0 -0.3 0.3 -0.3 0 -0.29 0 -0.3 0 -0.3 0.3 -0.3 0 -0.29 0 -0.3 0.29 -0.3 0 -0.3 0 -0.29 0 -0.3 0.3 0 0 -0.3 0 -0.3 0.3 -0.29 0 -0.3 0 -0.3 0.3 -0.3 0 -0.29 0 -0.3 0 -0.3 0.29 -0.3 0 -0.29 0 -0.3 0.3 -0.3 0 -0.3 0 -0.29 0.3 -0.3 0 -0.3 0 -0.29 0.3 0 0zm0 -0.59l0 0 0 0 0 0zm-1.18 2.36l-0.59 0 0 0 0 0 0 0 0 -0.3 0 0 0 -0.3 0 0 0 0 0 -0.3 0 0 0.3 0 0 -0.29 0 0 0 0 0 -0.3 0 0 0 0 0.3 0 0 -0.3 0 0 0 0 0 0 0.3 -0.3 0 0 0 0 0 0 0.29 0 0 0 0 -0.29 0.3 0 0 0 0 0 0.3 0 0 0.59 0 0 -0.3 0 0 0 0 0 0 0 -0.3 0 0 0 0 0 0 0.3 0 0 -0.29 0 0 0 0 0 0 0 0 0.3 0 0 -0.3 0 0 0 0 0 0 0.3 0 0 0 0 0 0 0 0.29 0 0 0 0 0 0.3 0 0 0 0 0 0 0 0.3 0 0 0 0 0 0zm1.48 1.47l0.29 0.59 -0.29 0 0 -0.29 0 0 -0.3 0 0 0 0 0 0 0 -0.3 0 0 0 0 0 -0.3 0 0 0 0 0 0 -0.3 -0.29 0 0 0 0 0 0 0 -0.3 0 0 -0.3 0 0 0 0 0 0 -0.3 -0.3 0 0 0 0 0 0 0 -0.29 0 0 0 0 0 -0.3 -0.3 0 0 -0.3 0.59 0 0 0 0 0.3 0 0 0 0 0 0.3 0 0 0 0 0 0 0.3 0 0 0.29 0 0 0 0 0 0 0 0 0 0 0.3 0.3 0 0 0 0 0 0 0 0 0.29 0 0 0 0 0 0 0 0.3 0.3 0 0 0 0 0 0 0.3 0 0 0 0 0 0.3 0 -0.3 0 0 0zm0.29 0.59l0 0 -0.29 0 0.29 0zm-5.59 29.75l0 0.3 0 0 0 0 0 0 0 0 0 0 0 0 -0.3 0 0 0 0 0 0 0 0 0.29 0 0 0 0 -0.3 0 0 0 0 0 0 0 0 0 0 0 0 0 -0.29 0 0 0 0 0 0 0 0 0 0 0 0 0 0 0 -0.3 0 0 0 0 0 0 0 0 0 0 -0.59 0 0 0 0 0 0 0 0 0 0 0 0 0.3 0 0 0 0 0 0 0 0 0 0 0 0 0 0 0 0.29 0 0 0 0 0 0 0 0 0 0 0 0 0 0.3 0 0 0 0 0 0 0 0 0 0 0 0 0 0 0 0.3 0 0 0 0 0 0 0 0 0zm0 0l0 0 0 0 0 0zm34.76 -11.49l0 0.59 0 0 -1.18 0.3 -0.88 0.29 -1.18 0.59 -1.18 0.3 -0.88 0.3 -1.18 0.29 -1.18 0.3 -1.18 0.59 -0.89 0.3 -1.18 0.29 -1.18 0.3 -0.89 0.3 -1.18 0.3 -1.18 0.59 -0.89 0.3 -1.18 0.3 -1.18 0.3 -0.89 0.29 -1.18 0.59 -1.18 0.3 -0.89 0.3 -1.18 0.29 -1.18 0.3 -0.89 0.59 -1.18 0.3 -1.18 0.29 -0.89 0.3 -1.18 0.3 -1.18 0.59 -0.88 0.29 -1.18 0.3 -1.18 0.3 0 -0.3 1.18 -0.59 0.88 -0.29 1.18 -0.3 1.18 -0.3 0.88 -0.3 1.18 -0.59 1.18 -0.3 0.88 -0.3 1.18 -0.3 1.18 -0.29 0.88 -0.59 1.18 -0.3 1.18 -0.3 0.88 -0.29 1.18 -0.3 1.18 -0.59 0.88 -0.3 1.18 -0.29 1.18 -0.3 0.88 -0.3 1.18 -0.59 1.18 -0.29 0.88 -0.3 1.18 -0.3 1.18 -0.3 0.89 -0.29 1.18 -0.59 1.18 -0.3 0.89 -0.3 1.18 -0.29 1.18 -0.3 1.18 -0.59 0 0zm0.89 -0.88l0.3 0.29 0 0 0 0 0 0 0 0 0 0 0 0.3 0 0 0 0 0 0 -0.3 0 0 0 0 0.3 0 0 0 0 0 0 0 0 0 0 -0.3 0.3 0 0 0 0 0 0 0 0 0 0 0 0 -0.3 0 0 0 0 0.29 0 0 0 0 -0.29 0 0 0 0 0 0 0 0 -0.59 0 0 0 0 0 0 0 0 0 0 0 0 0.29 0 0 0 0 0 0 0 0 0 0 0 0 -0.29 0 0 0.3 0 0 0 0 0 0 0 0 0 0 0 0 0 0 0 0 -0.3 0 0 0 0 0 0 0.3 0 0 0 0 0 0 -0.3 0 0 0 0 0 0 0 0zm1.18 -3.83l0.3 0 0 0 0 0.3 0 0 0 0 0 0.29 0 0 0 0.3 0 0 -0.3 0 0 0.3 0 0 0 0.3 0 0 0 0.29 0 0 -0.3 0 0 0.3 0 0 0 0.3 0 0 0 0 0 0.3 -0.29 0 0 0.29 0 0 0 0.3 0 0 0 0 0 0.3 0 0 -0.3 0.3 0 0 0 0.29 -0.3 -0.29 0 0 0 -0.3 0 0 0 -0.3 0 0 0.3 -0.3 0 0 0 0 0 -0.29 0 0 0 -0.3 0 0 0.3 -0.3 0 0 0 0 0 -0.3 0 0 0 -0.29 0 0 0.29 0 0 -0.3 0 0 0 -0.3 0 0 0 -0.3 0 0 0 0 0.3 -0.29 0 0 0 -0.3 0 0 0 0 0 0zm0 0l0 0 0 -0.3 0 0.3zm0.3 -0.89l0.3 -0.29 0 0 0 0 0 0 0 0 0 0 0 0 0 0.29 0 0 0 0 0 0 0 0 0 0 0 0.3 0 0 0 0 0 0 0 0 0 0 0 0 0 0.3 0 0 0 0 0 0 0 0 0 0 0 0 0 0 0 0.3 0 0 0 0 0 0 -0.3 0 0 0 -0.3 0 0 -0.3 0 0 0 0 0 0 0 0 0 0 0 0 0 0 0.3 -0.3 0 0 0 0 0 0 0 0 0 0 0 0 0 0 0 0 0 -0.3 0 0 0 0 0 0 0 0 0 0 0 0 0 0 0 0 0 0 0 0 0 0 0 0 0 0 0 0 0 0zm0 0l0 0 0 0 0 0zm-0.89 0l0 -0.59 0 0 0 0 0 0 0 0 0 0 0 0 0 0 0 0 0 0 0 0 0.3 0 0 0 0 0 0 0 0 0 0 0 0 0 0.3 0 0 0 0 0 0 0 0 0 0 0 0.3 0 0 0 0 0 0 0 0 0 0 0 0 0 0.29 0 0 0 0 0.29 -0.29 0.3 0 -0.3 0 0 0 0 0 0 -0.3 0 0 0 0 0 0 0 0 0 0 0 0 0 0 0 0 0 0 0 0 0 0 0 0 0 0 0 -0.3 0 0 0 0 0 0 0 0 0.3 0 0 0 0 0 0 0 0 -0.3 0 0 0 0 0 0 0 0 0 0 0 0 0zm0 -0.59l0 0 0 0 0 0zm-12.96 4.71l0 -0.3 0 0 0.3 -0.29 0.3 0 0.59 -0.3 0.29 0 0.3 -0.3 0.59 0 0.3 -0.3 0.59 0 0.29 0 0.3 -0.29 0.59 0 0.3 -0.3 0.29 0 0.59 -0.3 0.3 0 0.59 -0.3 0.29 0 0.3 0 0.59 -0.29 0.3 0 0.29 -0.3 0.59 0 0.3 -0.3 0.59 0 0.29 -0.3 0.3 0 0.59 0 0.3 -0.29 0.29 0 0.59 -0.3 0.3 0 0.59 -0.3 0 0.59 -0.3 0 -0.59 0.3 -0.3 0 -0.59 0.29 -0.3 0 -0.3 0.3 -0.59 0 -0.29 0.3 -0.3 0 -0.59 0 -0.3 0.3 -0.59 0 -0.3 0.29 -0.3 0 -0.59 0.3 -0.29 0 -0.3 0.3 -0.59 0 -0.3 0 -0.59 0.3 -0.3 0 -0.3 0.29 -0.59 0 -0.29 0.3 -0.3 0 -0.59 0.3 -0.3 0 -0.29 0 -0.59 0.3 -0.3 0 -0.59 0.29 -0.3 0 0 0 0 0zm-25.33 8.25l0 -0.59 0 0 0.88 0 0.59 -0.3 0.89 -0.29 0.88 -0.3 0.59 -0.3 0.89 -0.3 0.88 -0.29 0.59 -0.3 0.88 0 0.89 -0.3 0.59 -0.3 0.88 -0.29 0.89 -0.3 0.59 -0.3 0.88 -0.3 0.89 -0.29 0.59 0 0.89 -0.3 0.88 -0.3 0.89 -0.3 0.59 -0.29 0.88 -0.3 0.89 -0.3 0.59 0 0.89 -0.29 0.89 -0.3 0.59 -0.3 0.89 -0.3 0.88 -0.29 0.59 -0.3 0.89 -0.3 0.88 0 0 0.3 -0.88 0.3 -0.59 0.29 -0.89 0.3 -0.88 0.3 -0.59 0.3 -0.88 0 -0.89 0.29 -0.59 0.3 -0.88 0.3 -0.89 0.29 -0.59 0.3 -0.88 0.3 -0.89 0 -0.59 0.3 -0.89 0.29 -0.88 0.3 -0.59 0.3 -0.89 0.3 -0.88 0.29 -0.89 0.3 -0.59 0 -0.88 0.3 -0.89 0.3 -0.59 0.29 -0.89 0.3 -0.88 0.3 -0.59 0.3 -0.89 0.29 -0.88 0 -0.59 0.3 -0.89 0.3 -0.88 0.3 0 0 0 0zm-1.77 2.65l-0.3 0.3 0 0 0 -0.3 0 0 0 -0.3 0 0 0 -0.29 0 0 0 -0.3 0 0 0 -0.3 0 0 0 0 0 -0.3 0 0 0.3 -0.29 0 0 0 0 0 -0.3 0.3 0 0 0 0 -0.3 0.29 0 0 0 0 -0.3 0.3 0 0 0 0 0 0.3 -0.29 0 0 0.3 0 0 0 0.29 0 0 -0.3 0 0.59 0 0 0 0 -0.29 0 0 0.29 -0.3 0 0 0 0 0 -0.3 0.3 0 0 0 0 -0.3 0 0 0.3 0 0 0 0 -0.29 0 0 0.3 0 0 0 0 0 0.29 0 0 -0.3 0 0 0.3 0 0 0 0 0 0.3 0 0 0 0 0 0.3 0 0 0 0.29 0 0 0 0 0 0 0 0zm0 0l0 0 0 0 0 0zm2.65 2.06l0 0.59 0 0 -0.29 0 0 0 -0.3 0 0 0 -0.3 0 0 0 0 0 -0.29 0 0 -0.3 -0.3 0 0 0 -0.3 0 0 0 0 -0.3 -0.3 0 0 0 0 0 -0.29 -0.3 0 0 0 0 0 -0.29 -0.3 0 0 0 0 -0.3 0 0 -0.3 -0.3 0 0 0 -0.29 0 0 0 0 0 -0.3 0 0 0.3 -0.3 0 0.3 0 0 0 0.3 0 0 0.3 0 0 0.29 0 0 0 0 0 0.3 0 0 0.29 0 0 0 0 0.3 0 0 0.3 0 0 0.29 0 0 0 0 0.3 0 0 0 0 0.3 0.3 0 0 0 0 0 0.29 0 0 0 0.3 0 0 0 0.3 0 0 0 0 0 0.29 0 0 0 0 0zm0 0.59l0 0 0 0 0 0zm103.98 -38.88l0 -0.3 0 0 0.29 0 0 0 0.3 0 0 0 0 0 0.3 0 0 0.3 0 0 0.3 0 0 0 0 0 0 0.29 0.29 0 0 0 0 0 0.3 0.3 0 0 0 0 0 0.3 0 0 0.3 0 0 0.29 0 0 0 0.3 0 0 0 0 0 0.3 0 0 0 0.3 0.29 0 0 0.29 0 0 -0.59 0 0 0 0 -0.29 0 0 0 0 0 -0.3 0 0 0 0 0 -0.3 0 0 -0.3 0 0 -0.3 0 0 0 0 0 -0.29 0 0 -0.3 0 0 0 0 -0.3 0 0 0 0 -0.3 0 0 0 0 -0.3 0 0 -0.29 0 0 0 0 0 -0.3 0 0 0 0 0 0 -0.29 -0.3 0 0 0 0 0zm0 -0.3l0 0 0.29 0 -0.29 0zm-2.36 0.59l-0.3 -0.29 0 0 0.3 0 0 0 0 -0.3 0 0 0.3 0 0 0 0 0 0.3 0 0 0 0 0 0 0 0.29 0 0 0 0 0 0.3 0 0 0 0 0 0 0 0.3 0 0 0 0 0 0 0 0.29 0 0 0 0 0 0.3 0 0 0 0 0 0.3 0 0 0 0 0 0 0 0 0.3 0 0 0 0 -0.3 0 0 0 0 0 0 0 -0.3 0 0 0 0 0 0 0 -0.29 0 0 0 0 0 -0.3 0 0 0 0 0 0 0 -0.3 0 0 0 0 0.29 0 0 -0.29 0 0 0 0 0 0 0 -0.3 0 0 0 0 0 -0.3 0 0 0 0 0 0 0 0 0zm-19.74 6.48l0 -0.59 0 0 0.59 0 0.59 -0.3 0.59 -0.3 0.59 0 0.59 -0.3 0.59 -0.29 0.59 0 0.59 -0.3 0.59 -0.3 0.59 0 0.88 -0.3 0.59 -0.29 0.59 0 0.59 -0.3 0.59 -0.3 0.59 0 0.59 -0.3 0.59 -0.29 0.59 0 0.59 -0.3 0.59 -0.3 0.59 0 0.88 -0.3 0.59 -0.29 0.59 -0.3 0.59 0 0.59 -0.3 0.59 -0.3 0.59 0 0.59 -0.29 0.59 -0.3 0.59 0 0.3 0.3 -0.59 0.29 -0.59 0.3 -0.89 0 -0.59 0.3 -0.59 0.3 -0.59 0 -0.59 0.29 -0.59 0.3 -0.59 0 -0.59 0.3 -0.59 0.3 -0.59 0 -0.59 0.29 -0.59 0.3 -0.89 0 -0.59 0.3 -0.59 0.3 -0.59 0 -0.59 0.29 -0.59 0.3 -0.59 0.3 -0.59 0 -0.59 0.3 -0.59 0.29 -0.59 0 -0.59 0.3 -0.88 0.3 -0.59 0 -0.59 0.3 -0.59 0.29 -0.59 0 -0.59 0.3 0 0 0 0zm-19.74 6.48l0 -0.59 0 0 0.59 -0.3 0.59 0 0.59 -0.3 0.59 -0.3 0.59 0 0.89 -0.29 0.59 -0.3 0.59 0 0.59 -0.3 0.59 -0.3 0.59 0 0.59 -0.29 0.59 -0.3 0.59 0 0.59 -0.3 0.59 -0.3 0.59 -0.29 0.89 0 0.59 -0.3 0.59 -0.3 0.59 0 0.59 -0.29 0.59 -0.3 0.59 0 0.59 -0.3 0.59 -0.3 0.59 0 0.59 -0.29 0.59 -0.3 0.89 0 0.59 -0.3 0.59 -0.3 0 0.59 -0.59 0.3 -0.59 0 -0.59 0.3 -0.59 0.29 -0.59 0 -0.59 0.3 -0.89 0.3 -0.59 0 -0.59 0.3 -0.59 0.29 -0.59 0 -0.59 0.3 -0.59 0.3 -0.59 0 -0.59 0.3 -0.59 0.29 -0.59 0 -0.59 0.3 -0.59 0.3 -0.89 0 -0.59 0.29 -0.59 0.3 -0.59 0 -0.59 0.3 -0.59 0.3 -0.59 0.29 -0.59 0 -0.59 0.3 -0.59 0.3 -0.59 0 -0.59 0.3 -0.89 0.29 0 0zm0 0l0 0 0.3 -0.29 -0.3 0.29zm-0.3 0.89l-0.29 0.3 0 0 0 0 0 -0.3 0 0 0 0 -0.3 0 0 -0.3 0 0 0 0 0 0 0 -0.3 0 0 0 0 0 0 0 -0.29 0 0 0 0 0 0 0 0 0 -0.3 0.3 0 0 0 0 0 0 0 0 0 0 0 0.29 -0.3 0 0 0 0 0 0 0.3 0 0 0 0 0 0 0.59 0 0 0 0 0 0 0 0 -0.3 0 0 0 0 0 0 0 0 0 0 0 0 0 0 0 -0.29 0.3 0 0 0 0 0 0 0 0 0 0 0 0 0 0 0 0 0 0 0 0 0 0 0 0 0.29 0.29 0 0 0 0 0 0 0 0 0 0.3 0 0 0 0 0 0zm0 0l0 0 -0.29 -0.3 0.29 0.3zm1.48 2.65l-0.3 0 0 0 0 0 0 0 0 -0.3 -0.3 0 0 0 0 0 0 -0.29 0 0 0 0 0 -0.3 0 0 0 0 -0.3 0 0 -0.3 0 0 0 0 0 0 0 -0.3 -0.29 0 0 0 0 0 0 -0.29 0 0 0 0 0 0 -0.3 -0.3 0 0 0 0 0 0 0 -0.3 -0.3 0 0 0 0.3 -0.29 0.3 0 0 0 0 0.29 0 0 0 0 0 0 0.29 0.3 0 0 0 0 0 0 0 0.3 0 0 0.3 0 0 0 0 0.29 0 0 0 0 0 0.3 0.3 0 0 0 0 0 0 0.3 0 0 0 0 0 0.3 0.3 0 0 0 0 0.29 0 0 0 0 0 0 0 0.3 0 0zm0 0l0 0 0 0 0 0zm1.47 0.59l0.29 0.59 0 0 0 0 -0.29 0 0 0 0 0 -0.3 0 0 0 0 0 0 0 -0.3 0 0 0.29 0 0 0 -0.29 -0.3 0 0 0 0 0 0 0 -0.29 0 0 0 0 0 0 0 -0.3 0 0 -0.3 0 0 0 0 0 0 0 -0.3 -0.3 0 0 0 0 -0.29 0 0 0 0 0 -0.3 0.3 0 0 0 0 0 0 0.3 0.3 0 0 0 0 0 0 0.29 0 0 0 0 0 0 0 0 0.29 0 0 0 0 0.3 0 0 0 0 0 0 0 0 0 0 0.3 0 0 0 0 0 0 0 0 0 0.3 0 0 0 0 0 0 0 0.3 0 0 0 0 -0.3 0 0 0 0 0 0zm0.29 0.59l0 0 -0.59 0 0.59 0zm24.74 -8.54l0.3 0.29 0 0 -0.89 0.3 -0.88 0.3 -0.59 0.3 -0.88 0.29 -0.89 0.3 -0.59 0.3 -0.88 0 -0.89 0.3 -0.59 0.29 -0.88 0.3 -0.59 0.3 -0.88 0.29 -0.89 0.3 -0.59 0 -0.88 0.3 -0.89 0.3 -0.59 0.29 -0.89 0.3 -0.89 0.3 -0.59 0.3 -0.89 0 -0.88 0.29 -0.59 0.3 -0.89 0.3 -0.88 0.3 -0.59 0.29 -0.88 0.3 -0.89 0 -0.59 0.3 -0.88 0.3 -0.89 0.29 -0.59 0.3 -0.29 -0.59 0.88 -0.29 0.89 0 0.59 -0.3 0.88 -0.3 0.89 -0.3 0.59 -0.29 0.89 -0.3 0.88 -0.3 0.59 0 0.89 -0.3 0.88 -0.29 0.59 -0.3 0.88 -0.3 0.89 -0.3 0.59 -0.29 0.88 0 0.89 -0.3 0.59 -0.3 0.88 -0.3 0.59 -0.29 0.88 -0.3 0.89 -0.3 0.59 0 0.88 -0.3 0.89 -0.29 0.59 -0.3 0.88 -0.3 0.89 -0.29 0.59 -0.3 0.89 -0.3 0.88 0 0.59 -0.3 0 0 0 0zm14.14 -4.71l0 0.59 0 0 -0.3 0 -0.59 0.3 -0.3 0 -0.59 0.3 -0.3 0 -0.59 0.3 -0.3 0 -0.59 0.29 -0.29 0 -0.59 0.3 -0.3 0 -0.59 0.3 -0.29 0 -0.59 0.3 -0.3 0 -0.3 0.29 -0.59 0 -0.3 0.3 -0.59 0 -0.3 0.3 -0.59 0 -0.3 0.29 -0.59 0 -0.3 0.3 -0.59 0 -0.3 0 -0.59 0.3 -0.3 0 -0.59 0.3 -0.3 0 -0.59 0.29 -0.3 0 -0.29 -0.29 0.59 -0.3 0.3 0 0.59 -0.3 0.3 0 0.59 -0.3 0.3 0 0.59 -0.29 0.3 0 0.59 -0.3 0.3 0 0.59 -0.3 0.3 0 0.59 0 0.3 -0.29 0.59 0 0.3 -0.3 0.59 0 0.3 -0.3 0.59 0 0.3 -0.3 0.59 0 0.29 -0.29 0.59 0 0.3 -0.3 0.59 0 0.29 -0.3 0.3 0 0.59 -0.3 0.3 0 0.59 -0.29 0.3 0 0.59 -0.3 0 0 0 0zm1.77 -2.36l0.59 0 0 0 0 0 0 0.3 0 0 -0.29 0.3 0 0 0 0.29 0 0 0 0 0 0.3 0 0 0 0 0 0.3 -0.3 0 0 0.29 0 0 0 0 0 0 -0.3 0.3 0 0 0 0 -0.3 0.3 0 0 0 0 -0.29 0 0 0.3 0 0 -0.3 0 0 0 0 0 -0.3 0.29 0 0 -0.3 0 0 -0.59 0 0 0.3 0 0 0 0 0 0.3 -0.3 0 0 0 0 0.3 0 0 0 0 0 0.29 -0.3 0 0 0 0 0 0 0 -0.3 0.3 0 0 0 0 0 0 -0.29 0 0 0 0 0.3 -0.3 0 0 0 0 0 -0.3 0 0 0 0 0 0 0 -0.3 0 0 0 -0.29 0 0 0 0 0 0zm-32.99 64.22l0 0.59 0 0 -0.59 0 -0.59 0 -0.88 0 -0.59 0 -0.59 0 -0.59 0 -0.88 0 -0.59 0 -0.59 0 -0.59 0 -0.88 0 -0.59 0 -0.59 0 -0.59 0 -0.89 0 -0.59 0 -0.59 0 -0.59 0 -0.89 0 -0.59 0 -0.59 0 -0.59 0 -0.89 0 -0.59 0 -0.59 0 -0.59 0 -0.88 0 -0.59 0 -0.59 0 -0.59 0 -0.88 0 -0.59 0 0 -0.59 0.59 0 0.88 0 0.59 0 0.59 0 0.59 0 0.88 0 0.59 0 0.59 0 0.59 0 0.89 0 0.59 0 0.59 0 0.59 0 0.89 0 0.59 0 0.59 0 0.59 0 0.89 0 0.59 0 0.59 0 0.59 0 0.88 0 0.59 0 0.59 0 0.59 0 0.88 0 0.59 0 0.59 0 0.59 0 0.88 0 0.59 0 0.59 0 0 0zm1.18 -1.18l0.3 0 0 0 0 0.3 0 0 0 0 0 0.3 0 0 0 0 0 0.3 0 0 0 0 0 0 0 0.29 0 0 0 0 -0.3 0 0 0.3 0 0 0 0 0 0 0 0 -0.3 0 0 0.3 0 0 0 0 -0.29 0 0 0 0 0 0 0 -0.3 0 0 0 0 0 -0.3 0 0 0 0 -0.59 0 0 0.3 0 0 0 0 0 0 0 0.3 0 0 0 0 0 0 0 0 0 0.29 0 0 0 0 0 0 0 0 0 0 0 0 -0.3 0 0 0 0 0 0 0.3 0 0 0 0 0 0 -0.29 0 0 0 0 0 0 0 -0.3 0 0 0 0 0 0 0 -0.3 0 0 0 0zm0 -5.59l0.3 0 0 0 0 0.29 0 0 0 0.3 0 0 0 0.3 0 0.3 0 0 0 0.29 0 0 0 0.3 0 0.3 0 0 0 0.3 0 0 0 0.29 0 0.3 0 0 0 0.3 0 0 0 0.3 0 0.29 0 0 0 0.3 0 0 0 0.3 0 0.29 0 0 0 0.3 0 0 0 0.3 0 0.3 0 0 -0.3 0 0 0 0 -0.3 0 -0.3 0 0 0 -0.3 0 0 0 -0.29 0 -0.3 0 0 0 -0.3 0 0 0 -0.29 0 -0.3 0 0 0 -0.3 0 0 0 -0.3 0 -0.29 0 0 0 -0.3 0 0 0 -0.3 0 -0.3 0 0 0 -0.29 0 0 0 -0.3 0 -0.3 0 0 0 -0.3 0 0 0 -0.29 0 0zm-0.89 -0.89l0 -0.59 0 0 0 0 0 0 0.3 0 0 0 0 0 0 0 0.3 0 0 0 0 0 0 0 0 0 0.3 0.29 0 0 0 0 0 0 0 0 0 0 0 0 0.29 0.3 0 0 0 0 0 0 0 0.3 0 0 0 0 0 0 0 0.3 0 0 0 0 0 0 0 0.29 0 0 -0.29 0 0 0 0 -0.29 0 0 0 0 0 0 0 0 0 -0.3 0 0 0 0 0 0 0 0 -0.3 0 0 0 0 -0.3 0 0 0 0 0 0 0 0 0 0 0 0 0 0 0 0 0 0 -0.3 0 0 0 0 0 0 0 0 0 0 0 -0.3 0 0 0 0 0 0 0 0 0zm0 0l0 0 0 0 0 0zm-5 0l0 -0.59 0 0 0 0 0.29 0 0 0 0.3 0 0.3 0 0 0 0.3 0 0 0 0.29 0 0 0 0.3 0 0 0 0.3 0 0 0 0.3 0 0 0 0.29 0 0 0 0.3 0 0.3 0 0 0 0.3 0 0 0 0.29 0 0 0 0.3 0 0 0 0.3 0 0 0 0.3 0 0 0 0.29 0 0 0.59 -0.29 0 0 0 -0.3 0 0 0 -0.3 0 0 0 -0.3 0 0 0 -0.29 0 0 0 -0.3 0 0 0 -0.3 0 -0.3 0 0 0 -0.29 0 0 0 -0.3 0 0 0 -0.3 0 0 0 -0.3 0 0 0 -0.29 0 0 0 -0.3 0 0 0 -0.3 0 -0.3 0 0 0 -0.29 0 0 0 0 0zm-1.77 -2.06l0.59 0 0 0 0 0 0 0.29 0 0 0 0 0 0.3 0 0 0 0 0 0.3 0 0 0 0 0 0 0 0 0 0.3 0 0 0 0 0 0 0 0 0.3 0 0 0 0 0.29 0 0 0 0 0 0 0.3 0 0 0 0 0 0 0 0.3 0 0 0 0 0 0 0 0.29 0 0 0.59 0 0 -0.29 0 0 0 -0.3 0 0 0 0 0 0 0 -0.3 -0.3 0 0 0 0 -0.3 0 0 0 0 0 0 0 0 -0.29 -0.29 0 0 0 0 0 0 -0.3 0 0 0 0 0 0 -0.3 -0.3 0 0 0 0 0 -0.3 0 0 0 0 0 -0.29 0 0 0 -0.3 0 0 0 0 0 0zm0 0l0 0 0 0 0 0zm2.65 -3.24l0 0.59 0 0 -0.3 -0.29 0 0 -0.29 0 -0.3 0 0 0 -0.3 0 -0.29 0 0 0 0 0 -0.3 0.29 0 0 0 0 0 0 -0.3 0 0 0 0 0 0 0 0 0 0 0.3 0 0 0 0 0 0.3 0 0 0 0.3 0 0 0 0.29 0 0 0 0.3 0 0.3 0 0.3 0 0.29 0 0.3 -0.59 0 0 -0.3 0 -0.29 0 -0.3 0 -0.3 0 -0.3 0 0 0 -0.29 0 0 0 -0.3 0 -0.3 0 0 0 0 0.3 -0.3 0 0 0 -0.29 0 0 0 0 0.3 -0.3 0 0 0 0 0.29 0 0 0 0 0 0.3 0 0 0 0.3 0 0.3 0 0 0 0.29 0 0.3 0 0.3 0 0 0 0 0 0 0zm1.18 -1.47l0.3 0 0 0 0 0 0 0.29 0 0 0 0 0 0.3 0 0 0 0 0 0.3 0 0 0 0 0 0.3 0 0 0 0 0 0 0 0.29 0 0 -0.3 0 0 0 0 0 0 0.3 0 0 -0.29 0 0 0 0 0 0 0 -0.3 0 0 0 0 0 -0.3 0 0 0 0 0.3 -0.29 0 0 -0.59 0.29 0 0 0 0 0 0.3 0 0 0 0 0 0 0 0 0 0.3 -0.3 0 0 0 0 0 0 0 0 0 0 0 0 0 0 0 0 0.29 0 0 -0.29 0 0 0 0 0 0 0 0 0 -0.3 0 0 0 0 0 0 0 0 0 -0.3 0 0 0 0 0 -0.3 0 0 0 0zm0.3 0l0 0 0.3 1.18 -0.3 -1.18zm-0.59 -0.89l0.3 -0.3 0 0 0 0.3 0 0 0 0 0 0 0 0 0 0 0 0 0 0 0 0 0.3 0.3 0 0 0 0 0 0 0 0 0 0 0 0 0 0 0 0 0 0.3 0 0 0 0 0 0 0 0 0 0 0 0 0 0 0 0 0 0.29 0 0 0 0 0 0 0 0 -0.3 0 0 0 0 0 0 0 0 0 0 0 0 0 0 0 -0.3 0 0 -0.29 0 0 0 0 0 0 0 0 0 0 0 0 0 0 0 0 0 -0.3 0 0 0 0 0 0 0 0 0 0 0 0 0 0 0 0 0 0 0 -0.3 0 0 0 0 0 0 0 0 0 0zm0 0l0 0 0 0 0 0zm-10.01 -31.22l0.29 -0.3 0 0 0.3 1.18 0.3 0.88 0.3 0.89 0.59 1.18 0.3 0.89 0.3 0.88 0.3 1.18 0.29 0.89 0.3 0.88 0.3 1.18 0.3 0.88 0.29 0.89 0.3 1.18 0.3 0.88 0.29 0.89 0.3 0.88 0.3 1.18 0.3 0.88 0.29 0.89 0.3 1.18 0.59 0.89 0.3 0.88 0.29 1.18 0.3 0.89 0.3 0.88 0.3 1.18 0.29 0.88 0.3 0.89 0.3 1.18 0.3 0.88 0.29 0.89 0.3 0.89 -0.3 0.29 -0.29 -0.88 -0.3 -1.18 -0.3 -0.88 -0.3 -0.89 -0.29 -1.18 -0.59 -0.88 -0.3 -0.89 -0.3 -0.88 -0.29 -1.18 -0.3 -0.88 -0.3 -0.89 -0.3 -1.18 -0.29 -0.88 -0.3 -0.89 -0.3 -1.18 -0.3 -0.89 -0.29 -0.88 -0.3 -1.18 -0.3 -0.88 -0.29 -0.89 -0.3 -1.18 -0.3 -0.88 -0.3 -0.89 -0.59 -0.88 -0.3 -1.18 -0.3 -0.88 -0.3 -0.89 -0.29 -1.18 -0.3 -0.88 -0.3 -0.89 -0.3 -1.18 -0.29 -0.89 0 0zm-8.25 -7.07l0 -0.3 0 0 0.29 0 0.3 0 0.59 0 0.3 0 0.29 0 0.3 0.3 0.3 0 0.3 0 0.29 0.29 0.59 0 0.3 0.3 0.3 0 0.29 0.3 0.3 0.3 0.3 0 0.3 0.29 0.29 0.3 0 0.3 0.3 0.3 0.3 0.29 0.3 0.3 0.29 0.3 0.3 0.3 0 0.29 0.3 0.3 0.3 0.3 0 0.59 0.29 0.29 0.3 0.3 0 0.59 0.3 0.3 0 0.29 -0.3 0.3 -0.3 -0.3 0 -0.59 -0.29 -0.3 0 -0.3 -0.3 -0.59 0 -0.29 -0.3 -0.3 -0.3 -0.3 0 -0.3 -0.29 -0.29 -0.3 -0.3 -0.3 -0.3 -0.3 -0.3 0 -0.29 -0.29 -0.3 -0.3 0 -0.3 -0.3 -0.3 -0.3 -0.29 -0.29 -0.3 0 -0.3 -0.3 -0.29 0 -0.3 -0.3 -0.3 0 -0.3 0 -0.29 -0.3 -0.3 0 -0.3 0 -0.59 0 -0.29 -0.29 -0.3 0 -0.3 0 0 0 0 0zm-8.25 7.07l-0.3 -0.3 0 0 0 -0.29 0.3 -0.3 0.3 -0.59 0 -0.3 0.29 -0.29 0 -0.59 0.3 -0.3 0.3 -0.3 0.3 -0.29 0 -0.3 0.29 -0.3 0.3 -0.29 0.3 -0.3 0.3 -0.3 0.29 -0.3 0 -0.29 0.3 0 0.3 -0.3 0.3 -0.3 0.29 -0.3 0.3 0 0.59 -0.29 0.3 0 0.29 -0.3 0.3 0 0.3 0 0.3 -0.3 0.29 0 0.3 0 0.59 0 0.3 0 0.29 0 0 0.3 -0.29 0 -0.3 0 -0.3 0.3 -0.59 0 -0.29 0 -0.3 0 -0.3 0.29 -0.3 0 -0.29 0 -0.3 0.3 -0.3 0 -0.3 0.3 -0.29 0.3 -0.3 0 -0.3 0.29 -0.3 0.3 -0.29 0 0 0.3 -0.3 0.3 -0.3 0.29 -0.3 0.3 -0.29 0.3 0 0.29 -0.3 0.3 -0.3 0.3 0 0.3 -0.3 0.29 -0.29 0.59 0 0.3 -0.3 0.3 0 0.59 -0.3 0.3 0 0 0 0zm-3.24 10.9l-0.59 -0.3 0 0 0.3 -0.3 0 -0.3 0 -0.29 0.3 -0.3 0 -0.59 0 -0.3 0.29 -0.29 0 -0.3 0.3 -0.3 0 -0.3 0 -0.29 0.3 -0.59 0 -0.3 0 -0.3 0.3 -0.29 0 -0.3 0 -0.3 0.29 -0.59 0 -0.29 0.3 -0.3 0 -0.3 0 -0.3 0.3 -0.29 0 -0.3 0 -0.59 0.3 -0.3 0 -0.29 0.29 -0.3 0 -0.3 0 -0.3 0.3 -0.59 0 -0.3 0.3 0.3 0 0.29 0 0.3 -0.3 0.3 0 0.59 -0.3 0.29 0 0.3 0 0.3 -0.29 0.3 0 0.29 0 0.3 -0.3 0.59 0 0.3 0 0.29 -0.3 0.3 0 0.3 -0.3 0.3 0 0.29 0 0.59 -0.29 0.3 0 0.3 0 0.29 -0.3 0.3 0 0.3 -0.3 0.59 0 0.29 0 0.3 -0.3 0.3 0 0.3 0 0.29 -0.29 0.3 0 0.59 0 0.3 0 0 0 0zm-6.78 20.32l-0.3 0 0 0 0.3 -0.59 0 -0.88 0.3 -0.59 0.3 -0.59 0 -0.59 0.29 -0.59 0.3 -0.59 0.3 -0.89 0 -0.59 0.3 -0.59 0.29 -0.59 0 -0.59 0.3 -0.88 0.3 -0.59 0 -0.59 0.29 -0.59 0.3 -0.59 0 -0.59 0.3 -0.89 0.3 -0.59 0.29 -0.59 0 -0.59 0.3 -0.59 0.3 -0.59 0 -0.88 0.3 -0.59 0.29 -0.59 0 -0.59 0.3 -0.59 0.3 -0.59 0.3 -0.88 0 -0.59 0.59 0.29 -0.29 0.59 -0.3 0.59 -0.3 0.59 0 0.59 -0.3 0.88 -0.29 0.59 0 0.59 -0.3 0.59 -0.3 0.59 0 0.89 -0.3 0.59 -0.29 0.59 0 0.59 -0.3 0.59 -0.3 0.59 -0.29 0.88 0 0.59 -0.3 0.59 -0.3 0.59 0 0.59 -0.3 0.59 -0.29 0.89 0 0.59 -0.3 0.59 -0.3 0.59 -0.3 0.59 0 0.59 -0.29 0.89 -0.3 0.59 0 0.59 -0.3 0.59 -0.3 0.59 0 0 0 0zm1.47 2.36l0 0.29 0 0 -0.3 0 0 0 -0.29 0 -0.3 0 0 0 0 0 -0.3 0 0 0 -0.3 0 0 0 0 0 -0.29 -0.29 0 0 0 0 0 0 -0.3 -0.3 0 0 0 0 0 -0.3 0 0 0 0 0 -0.3 0 0 0 -0.29 0 0 0 -0.3 0 0 0 -0.3 0 0 0.3 -0.3 0 -0.29 0 0 0.29 0 0 0.29 0 0.3 0 0 0 0.3 0 0 -0.29 0.3 0 0 0 0 0 0.29 0 0 0 0 0 0.3 0 0 0 0 0 0 0.29 0.3 0 0 0 0 0 0 0 0 0 0 0.3 0 0 0 0 0 0 0.3 0.3 0 0 0 0.3 0 0 0 0.29 0 0 0 0.3 0 0 0zm25.63 0l0 0.29 0 0 -0.88 0 -0.89 0 -0.59 0 -0.89 0 -0.88 0 -0.89 0 -0.59 0 -0.88 0 -0.89 0 -0.88 0 -0.59 0 -0.89 0 -0.88 0 -0.59 0 -0.88 0 -0.89 0 -0.88 0 -0.59 0 -0.89 0 -0.88 0 -0.59 0 -0.89 0 -0.88 0 -0.89 0 -0.59 0 -0.89 0 -0.88 0 -0.59 0 -0.89 0 -0.88 0 -0.89 0 -0.59 0 0 -0.29 0.59 0 0.89 0 0.88 0 0.89 0 0.59 0 0.88 0 0.89 0 0.59 0 0.89 0 0.88 0 0.89 0 0.59 0 0.88 0 0.89 0 0.59 0 0.88 0 0.89 0 0.88 0 0.59 0 0.88 0 0.89 0 0.59 0 0.88 0 0.89 0 0.88 0 0.59 0 0.89 0 0.88 0 0.89 0 0.59 0 0.89 0 0.88 0 0 0zm2.95 3.24l-0.59 0 0 0 0 -0.3 0 -0.3 0 -0.3 0 -0.29 0 0 0 -0.3 0 -0.3 0 0 0 -0.3 0 0 0 -0.29 0 0 0 0 0 -0.3 0 0 0 0 0 0 -0.3 0 0 0 0 0 0 0 -0.3 0 0 -0.3 0 0 -0.29 0 -0.3 0 0 0 -0.3 0 -0.3 0 0 0 -0.29 0 -0.3 0 0 -0.3 0.3 0 0.29 0 0 0 0.3 0 0.3 0 0 0 0.3 0 0.29 0 0 0 0.3 0 0 0 0 0 0.3 0 0 0 0 0.3 0.3 0 0 0 0 0.3 0 0 0 0 0.29 0.3 0 0 0 0.29 0 0.3 0 0 0 0.3 0 0.3 0 0 0 0.29 0 0.3 0 0.3 0 0.3 0 0 0 0zm0 0l0 0 0 0 0 0zm-1.77 2.06l0 -0.59 0 0 0 0 0.29 0 0 0 0 0 0.3 0 0 0 0 0 0 0 0 0 0.3 0 0 0 0 0 0 -0.3 0 0 0 0 0 0 0.3 0 0 0 0 0 0 0 0 -0.3 0 0 0 0 0 0 0 0 0 -0.3 0 0 0 0 0 -0.29 0 0 0 0 0 -0.3 0.59 0 0 0.3 0 0 0 0.29 0 0 0 0 0 0.3 0 0 0 0 -0.29 0.3 0 0 0 0 0 0 0 0.3 0 0 0 0 -0.3 0 0 0.29 0 0 0 0 0 0 -0.3 0 0 0 0 0 0 0 -0.3 0.3 0 0 0 0 -0.29 0 0 0 0 0 -0.3 0 0 0 0 0 0 0zm0 -0.59l0 0 0 0 0 0zm-5.6 0.59l0 -0.59 0 0 0.3 0 0 0 0.3 0 0 0 0.29 0 0.3 0 0 0 0.3 0 0 0 0.3 0 0.29 0 0 0 0.3 0 0 0 0.3 0 0.29 0 0 0 0.3 0 0 0 0.3 0 0.3 0 0 0 0.29 0 0 0 0.3 0 0.3 0 0 0 0.3 0 0 0 0.29 0 0 0 0.3 0 0 0.59 -0.3 0 0 0 -0.29 0 0 0 -0.3 0 -0.3 0 0 0 -0.3 0 0 0 -0.29 0 0 0 -0.3 0 -0.3 0 0 0 -0.3 0 0 0 -0.29 0 -0.3 0 0 0 -0.3 0 0 0 -0.29 0 -0.3 0 0 0 -0.3 0 0 0 -0.3 0 -0.29 0 0 0 -0.3 0 0 0 -0.3 0 0 0zm-25.33 0l0 -0.59 0 0 0.88 0 0.59 0 0.88 0 0.89 0 0.59 0 0.88 0 0.89 0 0.59 0 0.89 0 0.88 0 0.59 0 0.89 0 0.88 0 0.89 0 0.59 0 0.88 0 0.89 0 0.59 0 0.89 0 0.88 0 0.59 0 0.89 0 0.88 0 0.89 0 0.59 0 0.88 0 0.89 0 0.59 0 0.89 0 0.88 0 0.59 0 0.89 0 0 0.59 -0.89 0 -0.59 0 -0.88 0 -0.89 0 -0.59 0 -0.89 0 -0.88 0 -0.59 0 -0.89 0 -0.88 0 -0.89 0 -0.59 0 -0.88 0 -0.89 0 -0.59 0 -0.89 0 -0.88 0 -0.59 0 -0.89 0 -0.88 0 -0.89 0 -0.59 0 -0.88 0 -0.89 0 -0.59 0 -0.89 0 -0.88 0 -0.59 0 -0.89 0 -0.88 0 -0.59 0 -0.88 0 0 0zm-1.47 1.47l-0.3 0 0 0 0 -0.29 0 0 0 -0.3 0 0 0 -0.3 0 0 0 0 0 -0.3 0 0 0 0 0 -0.29 0 0 0 0 0.3 -0.3 0 0 0 0 0 0 0 0 0.29 -0.3 0 0 0 0 0 0 0.3 0 0 0 0 0 0 0 0.3 0 0 0 0.29 0 0 0 0 0 0.3 0 0 0.59 -0.3 0 0 0 0 0 -0.29 0 0 0 0 0 -0.3 0 0 0 0 0 0 0 -0.3 0 0 0 0 0 0 0 0 0 0 0 0 0 0 0 0 0 0 0.3 0 0 0 0 0 0 0 0 0 0.29 0 0 -0.29 0 0 0.3 0 0 0 0.3 0 0 0 0.3 0 0 0 -0zm0 4.71l-0.3 0 0 0 0 -0.29 0 0 0 -0.3 0 0 0 -0.3 0 0 0 -0.3 0 0 0 -0.29 0 0 0 -0.3 0 0 0 -0.3 0 0 0 -0.29 0 0 0 -0.3 0 0 0 -0.3 0 0 0 -0.3 0 0 0 -0.29 0 0 0 -0.3 0 0 0 -0.3 0 0 0 -0.3 0 0 0 -0.29 0 0 0.3 0 0 0 0 0.29 0 0 0 0.3 0 0 0 0.3 0 0 0 0.3 0 0 0 0.29 0 0 0 0.3 0 0 0 0.3 0 0 0 0.3 0 0 0 0.29 0 0 0 0.3 0 0 0 0.3 0 0 0 0.29 0 0 0 0.3 0 0 0 0.3 0 0 0 0.3 0 0 0 0.29 0 0zm1.47 1.48l0 0.59 0 0 -0.3 0 0 0 0 0 -0.3 0 0 0 0 0 -0.3 0 0 0 0 0 -0.29 0 0 0 0 0 0 -0.3 -0.3 0 0 0 0 0 0 0 0 -0.3 -0.3 0 0 0 0 0 0 -0.3 0 0 0 0 0 -0.29 0 0 0 -0.3 0 0 0 -0.3 0 0 0 -0.3 0 0 0.3 0 0 0 0 0.3 0 0 0 0.3 0 0 0.3 0.3 0 0 0 0 0 0.29 0 0 0 0 0 0 0 0 0 0.3 0 0 0 0 0 0 0 0 0 0 0 0 0 0 0.29 0 0 0 0 0 0 0 0.3 0 0 0 0 0 0.3 0 0 0 0 0 0.3 0 0 0 0 0zm20.91 0l0 0.59 0 0 -0.59 0 -0.59 0 -0.88 0 -0.59 0 -0.59 0 -0.59 0 -0.59 0 -0.89 0 -0.59 0 -0.59 0 -0.59 0 -0.89 0 -0.59 0 -0.59 0 -0.59 0 -0.59 0 -0.88 0 -0.59 0 -0.59 0 -0.59 0 -0.88 0 -0.59 0 -0.59 0 -0.59 0 -0.59 0 -0.89 0 -0.59 0 -0.59 0 -0.59 0 -0.89 0 -0.59 0 -0.59 0 0 -0.59 0.59 0 0.59 0 0.89 0 0.59 0 0.59 0 0.59 0 0.89 0 0.59 0 0.59 0 0.59 0 0.59 0 0.88 0 0.59 0 0.59 0 0.59 0 0.88 0 0.59 0 0.59 0 0.59 0 0.59 0 0.89 0 0.59 0 0.59 0 0.59 0 0.89 0 0.59 0 0.59 0 0.59 0 0.59 0 0.88 0 0.59 0 0.59 0 0 0zm-53.02 -38.3l0.3 0.59 0 0 -0.3 0 -0.29 0.3 -0.3 0 -0.3 0 0 0.29 -0.3 0 -0.29 0 -0.3 0.3 0 0 -0.3 0 -0.29 0.3 0 0 -0.3 0.3 0 0 -0.3 0.29 -0.3 0.3 0 0 -0.29 0.3 0 0 -0.3 0.3 0 0.29 -0.3 0 0 0.3 -0.3 0.3 0 0.29 0 0 -0.29 0.3 0 0.3 0 0.3 -0.3 0.29 0 0.3 0 0.3 -0.59 -0.3 0.3 -0.3 0 -0.29 0 -0.3 0.3 -0.3 0 -0.3 0 0 0.29 -0.29 0 -0.3 0.3 -0.3 0 -0.29 0.3 0 0 -0.3 0.3 -0.3 0 0 0.29 -0.3 0 -0.29 0.3 0 0.3 -0.3 0 0 0.29 -0.3 0.3 0 0 -0.3 0.3 0 0.3 -0.29 0.29 0 0 -0.3 0.3 0 0.3 0 0.3 -0.3 0.29 0 0.3 0 0 -0.3 0 0 0 0zm13.26 -4.12l0.3 0.59 0 0 -0.59 0 -0.3 0 -0.29 0.29 -0.59 0 -0.3 0.3 -0.59 0 -0.29 0.3 -0.3 0 -0.59 0.3 -0.3 0 -0.59 0.29 -0.29 0 -0.3 0 -0.59 0.3 -0.3 0 -0.59 0.3 -0.3 0 -0.3 0.3 -0.59 0 -0.29 0.29 -0.59 0 -0.3 0.3 -0.59 0 -0.29 0.3 -0.3 0 -0.59 0 -0.3 0.29 -0.59 0 -0.3 0.3 -0.3 0 -0.59 0.3 -0.29 0 -0.3 -0.59 0.59 0 0.29 0 0.59 -0.3 0.3 0 0.3 -0.29 0.59 0 0.3 -0.3 0.59 0 0.3 -0.3 0.29 0 0.59 0 0.3 -0.3 0.59 0 0.29 -0.29 0.59 0 0.3 -0.3 0.3 0 0.59 -0.3 0.29 0 0.59 -0.29 0.3 0 0.3 0 0.59 -0.3 0.3 0 0.59 -0.3 0.3 0 0.29 -0.3 0.59 0 0.3 -0.29 0.59 0 0.29 -0.3 0.3 0 0 0zm1.18 -1.77l0.3 0 0 0 0 0 0 0.29 0 0 0 0 0 0.3 0 0 0 0 0 0.3 0 0 0 0 0 0.3 0 0 0 0 0 0.29 0 0 0 0 0 0 -0.3 0.3 0 0 0 0 0 0 0 0 -0.29 0 0 0.3 0 0 0 0 -0.3 0 0 0 0 0 0 0 -0.3 0 0 0.3 -0.3 -0.59 0.3 0 0 0 0 0 0.3 0 0 0 0 -0.3 0 0 0.3 0 0 0 0 0 0 0 0 0 0 0 0 -0.3 0 0 0.29 0 0 0 0 0 0 0 0 0 0 -0.29 0 0 0 0 0 0 0 -0.3 0 0 0 0 0 0 0 -0.3 0 0 0 0 0 -0.3 0 0 0 0zm-2.06 -9.13l0.3 0 0 0 0 0.3 0.29 0.3 0 0.3 0 0.29 0 0.3 0 0.3 0.3 0.3 0 0.29 0 0.3 0 0.3 0 0.3 0.3 0.29 0 0.3 0 0.3 0 0.3 0 0 0.3 0.29 0 0.3 0 0.3 0 0.3 0 0.29 0.29 0.3 0 0.3 0 0.29 0 0.3 0.3 0.3 0 0.3 0 0.29 0 0.3 0 0.3 0.3 0.3 0 0.29 -0.3 0 -0.3 -0.29 0 -0.3 0 -0.3 0 -0.3 -0.29 -0.29 0 0 0 -0.3 0 -0.3 0 -0.3 -0.3 -0.29 0 -0.3 0 -0.3 0 -0.29 -0.3 -0.3 0 -0.3 0 -0.3 0 -0.29 0 -0.3 -0.3 -0.3 0 -0.3 0 -0.29 0 -0.3 0 -0.3 -0.29 -0.3 0 -0.29 0 -0.3 0 -0.3 0 -0.3 -0.3 -0.29 0 -0.3 0 -0.3 0 -0.3 0 0zm-1.47 -0.88l0 -0.59 0 0 0 0 0 0 0.29 0 0 0 0 0 0.3 0 0 0 0 0 0 0 0.3 0 0 0 0 0 0.3 0 0 0 0 0 0 0 0 0.3 0.29 0 0 0 0 0 0 0.3 0 0 0 0 0.3 0 0 0.29 0 0 0 0 0 0.3 0 0 0 0 0 0.3 0 0 -0.3 0 0 0 0 0 0 -0.3 0 0 0 0 -0.29 0 0 -0.3 0 0 0 0 0 0 0 -0.29 0 0 0 0 0 0 0 0 -0.3 0 0 0 0 0 0 0 0 0 0 0 0 0 -0.3 0 0 0 0 0 0 0 0 0 -0.3 0 0 0 0 0 -0.29 0 0 0 0 0 0 0zm0 0l0 0 0.29 0 -0.29 0zm-4.13 0.59l0.3 -0.59 0 0 0 0 0.3 0 0 0 0 0.3 0.3 0 0 0 0.29 0 0 0 0 0 0.3 0 0 0 0.3 0 0 0 0 -0.3 0.29 0 0 0 0.3 0 0 0 0 0 0.3 0 0 0 0.3 0 0 0 0 0 0.29 -0.3 0 0 0.3 0 0 0 0 0 0.3 0 0 0 0.3 -0.3 0 0.59 0 0 -0.3 0 0 0 -0.3 0.3 0 0 0 0 -0.3 0 0 0 -0.29 0 0 0 0 0.3 -0.3 0 0 0 -0.3 0 0 0 -0.3 0 0 0 0 0 -0.29 0 0 0 -0.3 0 0 0 -0.3 0 0 0 0 0 -0.29 0 0 0 -0.3 0 0 0 -0.3 0 0 0 -0.3 0 0 0zm-4.71 -6.19l0.3 0 0 0 0 0.3 0 0 0 0.3 0 0.3 0.29 0.29 0 0.3 0 0.3 0 0 0.3 0.3 0 0.29 0 0.3 0.3 0 0 0.3 0.3 0.29 0 0.3 0.29 0 0 0.3 0.3 0 0 0.3 0.3 0.29 0.3 0 0 0.3 0.29 0 0.3 0.3 0 0 0.3 0.3 0.3 0 0 0 0.29 0.29 0.3 0 0.3 0 0.3 0 -0.3 0.59 0 0 -0.3 -0.3 -0.3 0 -0.29 0 -0.3 -0.29 -0.3 0 0 0 -0.3 -0.3 -0.29 0 -0.3 -0.3 0 0 -0.3 -0.3 -0.3 -0.29 0 0 -0.29 -0.3 0 -0.3 -0.3 0 0 -0.29 -0.3 -0.3 0 -0.3 -0.3 0 0 -0.3 -0.29 -0.29 0 -0.3 0 -0.3 -0.3 -0.3 0 -0.29 0 -0.3 0 0 0 -0.3 0 -0.3 0 -0.29 0 0 0 -0zm4.42 -7.07l0.3 0.3 0 0 -0.3 0 -0.29 0.29 -0.3 0 -0.3 0.3 -0.3 0 0 0 -0.29 0.3 -0.3 0 0 0.29 -0.3 0 -0.3 0.3 0 0.3 -0.29 0 0 0.3 -0.3 0.29 0 0 -0.3 0.3 0 0.3 -0.3 0.3 0 0 0 0.29 -0.29 0.3 0 0.3 0 0.3 0 0.29 -0.3 0.3 0 0.3 0 0.3 0 0.29 0 0.3 0 0.3 0 0.3 -0.3 0 0 -0.3 0 -0.3 0 -0.59 0 -0.29 0 -0.3 0 -0.3 0 -0.3 0 -0.29 0.3 -0.3 0 0 0 -0.3 0.3 -0.3 0 -0.29 0 -0.3 0.29 -0.3 0 -0.3 0.3 0 0 -0.29 0.3 -0.3 0.3 -0.3 0 0 0.29 -0.3 0.3 0 0 -0.29 0.3 -0.3 0.3 0 0.29 -0.3 0.3 0 0 0 0.3 -0.3 0.3 0 0.29 0 0 0 0 0zm14.73 -4.42l0 0.3 0 0 -0.59 0.3 -0.3 0 -0.59 0.3 -0.3 0 -0.59 0.29 -0.3 0 -0.59 0 -0.3 0.3 -0.59 0 -0.3 0.3 -0.59 0 -0.59 0.3 -0.29 0 -0.59 0.29 -0.3 0 -0.59 0.3 -0.29 0 -0.59 0.3 -0.3 0 -0.59 0 -0.3 0.3 -0.59 0 -0.59 0.29 -0.3 0 -0.59 0.3 -0.29 0 -0.59 0.3 -0.3 0 -0.59 0.3 -0.29 0 -0.59 0.29 -0.3 0 -0.3 -0.29 0.59 -0.3 0.3 0 0.59 -0.3 0.29 0 0.59 -0.3 0.59 0 0.3 -0.29 0.59 0 0.3 -0.3 0.59 0 0.3 -0.3 0.59 0 0.29 -0.3 0.59 0 0.3 -0.29 0.59 0 0.29 0 0.59 -0.3 0.59 0 0.3 -0.3 0.59 0 0.3 -0.3 0.59 0 0.3 -0.29 0.59 0 0.3 -0.3 0.59 0 0.3 -0.3 0.59 0 0.59 0 0.3 -0.3 0.59 0 0 0 -0 0zm2.36 -0.3l-0.3 0.59 0 0 0 0 0 0 0 0 -0.3 0 0 0 0 -0.3 0 0 0 0 -0.29 0 0 0 0 0 0 0 -0.3 0 0 0.3 0 0 0 0 -0.3 0 0 0 0 0 0 0 0 0 -0.29 0 0 0 0 0 0 0 -0.3 0 0 0 0 0 0 0 -0.3 0 0 0 0 0 0 -0.3 0 0 0 -0.29 0 0 0.3 0 0 0 0 0 0 0 0.3 0 0 0 0 0 0 0 0.29 0 0 0 0 0 0 0 0.3 0 0 0 0 0 0 0 0.3 0 0 0 0 0 0 0 0.29 0 0 0 0 0 0 0 0.3 0 0 0 0 0 0 0 0.3 0 0 0 0 -0zm5.3 6.19l-0.29 0 0 0 0 -0.3 -0.3 -0.3 0 -0.29 0 -0.3 0 -0.3 -0.3 -0.3 0 -0.29 0 0 -0.29 -0.3 0 -0.3 0 -0.3 -0.3 -0.29 0 0 -0.3 -0.3 0 -0.3 -0.3 0 -0.29 -0.3 0 -0.29 -0.3 0 0 -0.3 -0.3 0 -0.3 -0.3 0 0 -0.29 0 -0.3 -0.3 -0.3 0 0 0 -0.3 -0.29 -0.29 0 -0.3 0 -0.3 0 -0.3 0 0.3 -0.59 0 0 0.3 0 0.3 0 0.29 0.3 0.3 0 0.3 0 0.3 0.29 0 0 0.29 0 0.3 0.3 0.3 0 0 0.3 0.3 0.3 0.29 0 0 0.29 0.3 0 0.3 0.3 0 0.3 0.3 0.3 0 0 0.29 0.29 0 0.3 0.3 0.3 0 0.3 0 0.29 0.3 0.3 0 0.3 0 0.3 0.29 0.29 0 0.3 0 0.3 0 0.29 0 0 0 0zm-3.83 6.78l-0.3 -0.3 0 0 0.3 -0.3 0.3 0 0.29 0 0 -0.3 0.3 0 0.3 -0.29 0 0 0.3 -0.3 0 0 0.29 -0.3 0.3 -0.3 0 0 0.3 -0.29 0 -0.3 0 0 0.3 -0.3 0 -0.3 0.29 0 0 -0.29 0 -0.3 0.3 -0.3 0 -0.3 0 0 0 -0.29 0 -0.3 0.3 -0.3 0 -0.29 0 -0.3 0 0 0 -0.3 0 -0.3 0 -0.29 0.3 0 0 0.29 0 0.3 0 0.3 0 0 0 0.3 0 0.29 0 0.3 0 0.3 -0.3 0.29 0 0.3 0 0.3 0 0.3 -0.3 0 0 0.29 -0.3 0.3 0 0.3 0 0.3 -0.29 0 0 0.29 -0.3 0.3 0 0.3 -0.3 0 -0.3 0.3 0 0.29 -0.29 0 -0.3 0.3 0 0 -0.3 0.3 -0.3 0 -0.29 0.3 0 0 -0.3 0 0 0zm-0.3 -0.3l0 0 0 0 0 0zm-2.06 1.18l0 -0.59 0 0 0 0 0 0 0 0 0.3 0 0 0 0 0 0 0 0.3 0 0 0 0 0 0 0 0.3 0 0 -0.29 0 0 0 0 0.29 0 0 0 0 0 0 0 0.3 0 0 0 0 0 0 0 0.3 0 0 -0.3 0 0 0 0 0 0 0.3 0 0 0 0 0 0 0 0.29 0.3 0 0 -0.29 0.29 0 0 0 0 0 0 -0.3 0 0 0 0 0 0 0 -0.3 0 0 0 0 0 0 0.3 -0.3 0 0 0 0 0 0 0 -0.29 0 0 0 0 0 0 0 -0.3 0 0 0 0 0 0 0 0 0.3 -0.3 0 0 0 0 0 0 0 -0.3 0 0 0 0 0 0 0zm0 0l0 0 0.3 0 -0.3 0zm-0.59 0.89l-0.3 0.29 0 0 0 -0.29 0 0 0 0 0 0 0 -0.3 0 0 0 0 0 0 0 0 0 -0.3 0 0 0 0 0 0 0 0 0 -0.3 0 0 0 0 0 0 0.3 0 0 0 0 -0.29 0 0 0 0 0 0 0 0 0.29 0 0 0 0 0 0 0 0 0 0 -0.3 0.3 0 0 0.59 0 0 0 0 0 0 -0.3 0 0 0 0 0 0 0 0 0.29 0 0 0 0 0 0 0 0 0 0 0 0 0 0 -0.29 0 0 0 0 0 0 0 0 0 0 0 0 0.3 0 0 0 0 0 0 0 0 0 0 0 0 0 0.3 0 0 0 0 0 0 0 0 0 0zm2.35 10.01l-0.59 0 0 0 0 -0.29 0 -0.3 0 -0.3 0 -0.29 -0.29 -0.3 0 -0.3 0 -0.3 0 -0.29 -0.3 -0.3 0 -0.3 0 -0.3 0 -0.29 -0.3 -0.3 0 -0.3 0 -0.3 0 -0.29 0 -0.59 -0.3 -0.3 0 -0.3 0 -0.29 0 -0.3 -0.29 -0.3 0 -0.3 0 -0.29 0 -0.3 0 -0.3 -0.3 -0.3 0 -0.29 0 -0.3 0 -0.3 -0.3 -0.3 0 -0.29 0.3 -0.3 0.3 0.3 0 0.29 0 0.3 0 0.3 0.29 0.59 0 0.29 0 0.3 0 0.3 0.3 0.3 0 0.29 0 0.3 0 0.3 0.3 0.3 0 0.29 0 0.3 0 0.3 0 0.3 0.3 0.29 0 0.3 0 0.3 0 0.3 0.29 0.29 0 0.59 0 0.3 0 0.3 0 0.29 0.3 0.3 0 0.3 0 0.3 0 0.29 0.3 0.3 0 0.3 0 0 0 -0zm0.89 0.59l0 0.3 0 0 0 0.29 0 0 0 0 -0.3 0 0 0 0 0 0 0 0 0 -0.3 0 0 0 0 0 0 0 0 0 -0.3 0 0 0 0 0 0 -0.29 0 0 0 0 0 0 -0.29 0 0 0 0 0 0 -0.3 0 0 0 0 0 0 0 -0.3 0 0 0 0 -0.3 0 0 -0.3 0.59 0 0 0 0 0.3 0 0 0 0 0 0 0 0 0 0 0 0 0 0.3 0 0 0 0 0 0 0.3 0 0 0 0 0 0 0 0 0 0 0 0 0 0 0 0 0 0 0 0 0 0.29 0 0 0 0 0 0 0 0 0 0 0 0 0 0.3 0 0 0 0 0 0 0zm16.2 -5.3l0 0.59 0 0 -0.3 0 -0.59 0.3 -0.59 0 -0.59 0.29 -0.3 0 -0.59 0.3 -0.59 0 -0.59 0.3 -0.3 0.3 -0.59 0 -0.59 0.29 -0.29 0 -0.59 0.3 -0.59 0 -0.59 0.3 -0.29 0 -0.59 0.3 -0.59 0.29 -0.3 0 -0.59 0.3 -0.59 0 -0.59 0.3 -0.3 0 -0.59 0.3 -0.59 0.29 -0.59 0 -0.3 0.3 -0.59 0 -0.59 0.3 -0.3 0 -0.59 0.3 -0.59 0 0 -0.3 0.59 -0.3 0.3 0 0.59 -0.3 0.59 0 0.3 -0.29 0.59 -0.3 0.59 0 0.59 -0.3 0.3 0 0.59 -0.3 0.59 0 0.3 -0.29 0.59 0 0.59 -0.3 0.59 -0.3 0.3 0 0.59 -0.3 0.59 0 0.3 -0.29 0.59 0 0.59 -0.3 0.59 0 0.3 -0.3 0.59 -0.3 0.59 0 0.59 -0.29 0.3 0 0.59 -0.3 0.59 0 0.29 -0.3 0.59 0 0.59 -0.3 0 0 0 0zm1.18 -0.88l0.3 0.3 0 0 0 0 0 0 0 0 -0.3 0 0 0.29 0 0 0 0 0 0 0 0 0 0 0 0 -0.3 0.3 0 0 0 0 0 0 0 0 0 0 0 0 -0.29 0 0 0.3 0 0 0 0 0 0 0 0 0 0 -0.3 0 0 0 0 0 0 0 0 0 -0.3 0.3 0 0 0 -0.59 0 0 0 0 0 0 0 0 0.3 0 0 0 0 0 0 0 0 -0.3 0 0 0 0 0.3 0 0 0 0 0 0 0 0 0 0 0 0 0 0 -0.3 0.29 0 0 0 0 0 0 0 0 0 0 0 0 0 0 -0.29 0 0 0 0 0.3 0 0 0 0 0 0 0 0 0zm15.32 -5.01l-0.3 0.3 0 0 -0.59 0 -0.3 -0.3 -0.59 -0.3 -0.59 0 -0.59 -0.3 -0.3 0 -0.59 0 -0.59 0 -0.59 0 -0.3 0 -0.59 0 -0.59 0 -0.3 0 -0.59 0.3 -0.59 0 -0.29 0 -0.59 0.3 -0.59 0.3 -0.3 0 -0.59 0.29 -0.29 0.3 -0.59 0.3 -0.3 0.3 -0.59 0.29 -0.29 0.3 -0.3 0.59 -0.59 0.3 -0.3 0.29 -0.29 0.59 -0.59 0.3 -0.3 0.59 -0.3 0.59 -0.29 -0.29 0.29 -0.59 0.3 -0.59 0.59 -0.3 0.3 -0.59 0.29 -0.3 0.59 -0.59 0.3 -0.3 0.59 -0.29 0.29 -0.3 0.59 -0.3 0.3 -0.3 0.59 -0.29 0.3 -0.3 0.59 -0.3 0.59 -0.3 0.3 0 0.59 -0.29 0.59 0 0.3 0 0.59 -0.3 0.59 0 0.59 0 0.3 0 0.59 0 0.59 0 0.59 0.3 0.59 0 0.3 0 0.59 0.29 0.59 0 0.59 0.3 0.59 0.3 0 0 0 0zm1.47 0l0 0.59 0 0 0 0 0 0 0 0 -0.3 0 0 0 0 0 0 0 0 0 0 0 -0.3 0 0 0 0 0 0 0 0 0 -0.29 0 0 0 0 0 0 0 0 0 -0.3 0 0 0 0 0 0 0 0 0 0 0 -0.3 0 0 0 0 0 0 0 0 0 -0.3 -0.3 0 0 0.3 -0.3 0 0 0 0 0 0 0 0 0.3 0 0 0 0 0 0 0 0 0 0 0 0.3 0 0 0 0 0 0 0.3 0 0 0 0 0 0 0.29 0 0 0 0 0 0 0 0 0 0 0 0.3 0 0 0 0 -0.3 0 0 0 0 0 0 0.3 0 0 0 0 0 0 0 0 0zm0 0.59l0 0 0 0 0 0zm20.32 -7.07l0.3 0.3 0 0 -0.88 0.29 -0.59 0.3 -0.59 0 -0.59 0.3 -0.59 0.29 -0.59 0.3 -0.89 0 -0.59 0.3 -0.59 0.3 -0.59 0 -0.59 0.29 -0.59 0.3 -0.88 0 -0.59 0.3 -0.59 0.3 -0.59 0.29 -0.59 0 -0.59 0.3 -0.89 0.3 -0.59 0 -0.59 0.3 -0.59 0.29 -0.59 0.3 -0.59 0 -0.88 0.3 -0.59 0.3 -0.59 0 -0.59 0.29 -0.59 0.3 -0.59 0 -0.89 0.3 -0.59 0.3 0 -0.59 0.59 0 0.59 -0.3 0.59 -0.3 0.89 -0.29 0.59 0 0.59 -0.3 0.59 -0.3 0.59 0 0.59 -0.3 0.89 -0.29 0.59 0 0.59 -0.3 0.59 -0.3 0.59 -0.3 0.59 0 0.59 -0.29 0.88 -0.3 0.59 0 0.59 -0.3 0.59 -0.3 0.59 -0.29 0.59 0 0.89 -0.3 0.59 -0.3 0.59 0 0.59 -0.3 0.59 -0.29 0.59 0 0.89 -0.3 0.59 -0.3 0.59 -0.3 0.59 0 0 0 0 0zm0 0l0 0 -0.29 0 0.29 0zm0.59 -1.18l0.3 0 0 0 0 0 0 0.29 0 0 0 0 0.3 0 0 0.3 0 0 0 0 0 0 -0.3 0 0 0.3 0 0 0 0 0 0 0 0 0 0.29 0 0 0 0 0 0 0 0 -0.3 0 0 0 0 0.3 0 0 0 0 0 0 -0.3 0 0 0 0 0 0 0 0 0 0 0 -0.29 -0.3 0 0 0 0 0.29 0 0 0 0 -0.29 0 0 0 0 0 0 0 0 0.3 0 0 0 0 0 0 0 0 0 0 0 0 0 0 0 0 0 0 -0.3 0 0 0 0 0 0 0 0 0 0 0 0 0 0 0 -0.3 0 0 0 0 0 0 0 0 0 -0.29 0 0zm0.3 0l0 0 0.3 0.88 -0.3 -0.88zm-2.65 -10.31l0.59 -0.3 0 0 0 0.59 0 0.3 0 0.29 0.3 0.3 0 0.3 0 0.3 0 0.29 0 0.3 0.3 0.3 0 0.59 0 0.29 0 0.3 0.29 0.3 0 0.3 0 0.29 0 0.3 0.3 0.3 0 0.3 0 0.59 0 0.3 0.3 0.3 0 0.3 0 0.29 0 0.3 0.29 0.3 0 0.3 0 0.29 0 0.59 0.3 0.3 0 0.3 0 0.29 0 0.3 -0.3 0 0 -0.3 -0.29 -0.29 0 -0.3 0 -0.3 0 -0.3 -0.3 -0.29 0 -0.3 0 -0.3 0 -0.59 -0.3 -0.29 0 -0.3 0 -0.3 0 -0.3 -0.29 -0.29 0 -0.3 0 -0.3 0 -0.3 0 -0.59 -0.3 -0.3 0 -0.3 0 -0.3 0 -0.29 -0.3 -0.3 0 -0.3 0 -0.3 0 -0.29 -0.3 -0.59 0 -0.3 0 -0.3 0 -0.29 -0.29 -0.3 0 -0.3 0 0 -0 0zm0 0l0 0 0 0 0 0zm-0.88 -0.59l0 -0.59 0 0 0 0 0 0 0 0 0.3 0 0 0 0 0 0 0 0.3 0 0 0 0 0 0 0 0 0 0 0 0.29 0 0 0 0 0 0 0.29 0 0 0 0 0.3 0 0 0 0 0 0 0 0 0.3 0 0 0 0 0 0 0 0.3 0 0 0 0 0.3 0 0 0 -0.59 0.3 0 0 0 -0.3 0 0 0 0 0 0 0 0 0 0 0 -0.3 0 0 0 0 0 0 -0.3 0 0 0 0 0 0 0 0 0 0 0 0 0 0 0 0 0 0 0 0 0 0 0 -0.3 0 0 0 0 0 0 0 0 0 0 0 0 0 -0.29 0 0 0 0 0 0 0zm0 0l0 0 0 0 0 0zm-2.94 0.59l0 -0.3 0 0 0 0 0.29 0 0 -0.3 0 0 0.3 0 0 0 0 0 0.3 0 0 0 0 0 0 0 0.3 0 0 0 0 0 0.29 0 0 0 0 0 0.3 0 0 -0.29 0 0 0.3 0 0 0 0 0 0 0 0.3 0 0 0 0 0 0.29 0 0 0 0 -0.3 0.3 0 0 0 0 0.59 0 0 0 0 -0.3 0 0 0 0 0 -0.29 0 0 0.29 0 0 -0.3 0 0 0 0 0 0 0 -0.3 0 0 0 0 0 -0.3 0 0 0 0 0 -0.29 0.3 0 0 0 0 -0.3 0 0 0 0 0 -0.3 0 0 0 0 0 0 0 -0.3 0 0 0 0 0 -0.29 0 0 0 0 0zm0 0l0 0 0 0 0 0zm-6.19 -5.3l0.3 0 0 0 0 0.3 0 0.3 0.3 0.29 0 0 0 0.3 0.3 0.3 0 0.3 0.29 0.29 0 0.3 0.3 0 0 0.3 0.3 0.3 0 0.29 0.3 0 0.29 0.3 0 0 0.3 0.3 0.3 0 0 0.29 0.3 0 0.29 0.3 0.3 0 0 0 0.3 0.3 0.3 0 0.29 0 0.3 0 0.3 0.3 0 0 0.29 0 0.3 0 0.3 0 0 0.29 -0.3 0 -0.3 0 -0.29 0 -0.3 0 0 0 -0.3 0 -0.29 0 -0.3 -0.29 -0.3 0 -0.3 0 -0.29 -0.3 -0.3 0 0 -0.3 -0.3 0 -0.3 -0.3 -0.29 0 0 -0.29 -0.3 -0.3 -0.3 0 0 -0.3 -0.3 -0.29 0 -0.3 -0.29 0 -0.3 -0.3 0 -0.3 0 -0.29 -0.3 -0.3 0 -0.3 -0.3 -0.3 0 -0.29 0 -0.3 0 -0.3 0 0zm3.83 -7.66l0 0.3 0 0 -0.3 0.29 -0.29 0 0 0 -0.3 0.3 -0.3 0 -0.29 0.3 0 0 -0.3 0.29 -0.3 0.3 0 0 -0.3 0.3 0 0.3 -0.29 0 0 0.29 -0.3 0.3 0 0.3 0 0.3 -0.3 0.29 0 0 0 0.3 -0.3 0.3 0 0.3 0 0.29 0 0.3 0 0.3 0 0.3 0 0.29 0 0.3 0 0.3 0 0.3 0 0.29 0 0.3 -0.29 0 -0.3 -0.3 0 -0.29 0 -0.3 0 -0.3 0 -0.3 0 -0.29 0 -0.3 0 -0.3 0.3 -0.3 0 -0.29 0 -0.3 0 -0.3 0.29 -0.3 0 -0.29 0 -0.3 0.3 -0.3 0 -0.3 0.3 -0.29 0 -0.3 0.3 0 0 -0.3 0.29 -0.3 0 -0.29 0.3 0 0.3 -0.3 0.3 0 0 -0.3 0.29 -0.29 0.3 0 0.3 0 0.29 -0.3 0.3 0 0 0zm15.91 -5.01l0.3 0.59 0 0 -0.59 0 -0.59 0.3 -0.59 0 -0.3 0.29 -0.59 0 -0.59 0.3 -0.59 0 -0.3 0.3 -0.59 0 -0.59 0.29 -0.29 0 -0.59 0.3 -0.59 0 -0.3 0.3 -0.59 0 -0.59 0.3 -0.59 0 -0.3 0.29 -0.59 0 -0.59 0.3 -0.3 0 -0.59 0.3 -0.59 0 -0.29 0.3 -0.59 0 -0.59 0.29 -0.59 0 -0.29 0.3 -0.59 0.3 -0.59 0 -0.3 0.3 -0.59 0 0 -0.3 0.29 -0.3 0.59 0 0.59 -0.3 0.3 -0.29 0.59 0 0.59 -0.3 0.3 0 0.59 -0.3 0.59 0 0.59 -0.3 0.3 0 0.59 -0.29 0.59 -0.3 0.29 0 0.59 -0.3 0.59 0 0.3 -0.3 0.59 0 0.59 -0.29 0.59 0 0.3 -0.3 0.59 0 0.59 -0.3 0.3 0 0.59 -0.29 0.59 0 0.59 0 0.3 -0.3 0.59 0 0.59 -0.3 0.29 0 0.59 -0.3 0 0 0 0zm6.78 5.01l-0.3 0 0 0 -0.29 -0.3 0 0 0 -0.3 -0.3 -0.29 0 -0.3 0 -0.3 -0.3 -0.3 0 -0.29 -0.3 -0.3 0 0 -0.29 -0.3 -0.3 -0.3 0 0 -0.3 -0.29 -0.29 -0.3 0 0 -0.3 -0.3 -0.3 0 -0.3 -0.3 0 0 -0.29 0 -0.3 -0.29 -0.3 0 -0.3 0 0 0 -0.29 0 -0.3 -0.3 -0.3 0 -0.3 0 -0.29 0.3 -0.3 0 0 0 -0.3 -0.59 0.3 0 0.3 0 0.29 0 0.3 0 0.3 0 0.3 0 0.29 0 0.3 0 0.3 0 0 0.3 0.3 0 0.29 0 0.3 0.29 0.3 0 0.3 0.3 0 0 0.29 0.3 0.3 0.3 0.3 0 0 0.29 0.29 0.3 0.3 0.3 0 0 0.3 0.3 0 0.29 0.3 0.3 0 0.3 0.29 0.3 0 0.29 0.3 0.3 0 0.3 0 0.29 0 0 0 0zm-3.54 7.95l-0.29 -0.3 0 0 0.29 -0.29 0.3 0 0.3 0 0.3 -0.3 0 -0.3 0.29 0 0.3 -0.3 0 0 0.3 -0.29 0.3 -0.3 0 0 0.29 -0.3 0 -0.3 0.3 -0.29 0 -0.3 0 0 0.3 -0.3 0 -0.29 0 -0.3 0.3 -0.3 0 -0.3 0 -0.29 0 -0.3 0 -0.3 0 -0.3 0 -0.29 0 -0.3 0 -0.3 0 -0.3 0 -0.29 0 -0.3 0 -0.3 0.29 0 0 0.3 0.3 0.3 0 0.29 0 0.3 0 0.3 0 0.3 0 0.29 0 0.3 0 0.59 -0.3 0.3 0 0.29 0 0.3 0 0.3 -0.29 0 0 0.3 0 0.29 -0.3 0.3 0 0.3 -0.3 0.3 0 0.29 -0.3 0.3 0 0 -0.29 0.3 -0.3 0.29 0 0.3 -0.3 0 -0.3 0.3 -0.29 0 -0.3 0.3 0 0 -0.3 0.29 -0.3 0 0 0 0 0zm-2.35 0.88l0 -0.59 0 0 0 0 0 0 0 0 0.3 0 0 0 0 0 0 0 0.29 0 0 0 0 0 0 0 0.3 0 0 0 0 -0.3 0 0 0.3 0 0 0 0 0 0 0 0.3 0 0 0 0 0 0 0 0 0 0.29 0 0 -0.3 0 0 0 0 0.3 0 0 0 0 0 0 0 0.3 0.3 0 0.3 -0.3 0 0 0 0 0 0 0 -0.3 0 0 0 0 0 0 0 -0.29 0 0 0 0 0.29 0 0 -0.3 0 0 0 0 0 0 0 -0.3 0 0 0 0 0 0 0 -0.3 0 0 0 0 0 0 0.3 -0.29 0 0 0 0 0 0 0 -0.3 0 0 0 0 0 0 0 0 0zm0 0l0 0 -0.3 0 0.3 0zm-0.59 0.89l-0.3 0.3 0 0 0 0 0 -0.3 0 0 0 0 0 0 0 -0.3 0 0 0 0 0 0 0 -0.3 0 0 0 0 0 0 0 0 0 -0.29 0 0 0 0 0 0 0 0 0.3 0 0 -0.3 0 0 0 0 0 0 0 0 0 0 0.3 0 0 0 0 0 0 0 0 0 0.3 -0.3 0 0.59 0 0 0 0 -0.3 0 0 0 0 0 0 0 0 0 0 0.3 0 0 0 0 0 0 -0.3 0 0 0 0 0 0 0 0 0 0 0 0 0 0 0 0 0 0 0.29 0 0 0 0 0 0 0 0 0 0 0 0 0 0.3 0 0 0 0 0 0 0 0 0 0 0 0zm-0.3 0.3l0 0 0 0 0 0zm2.65 10.01l-0.59 0 0 0 0 -0.29 0 -0.3 0 -0.3 -0.3 -0.29 0 -0.3 0 -0.3 0 -0.3 -0.3 -0.59 0 -0.3 0 -0.3 0 -0.3 0 -0.29 -0.29 -0.3 0 -0.3 0 -0.3 0 -0.29 -0.3 -0.3 0 -0.3 0 -0.3 0 -0.29 -0.3 -0.3 0 -0.3 0 -0.59 0 -0.29 0 -0.3 -0.3 -0.3 0 -0.3 0 -0.29 0 -0.3 -0.29 -0.3 0 -0.3 0 -0.29 0.29 -0.3 0 0.3 0.3 0.59 0 0.3 0 0.3 0 0.3 0.3 0.29 0 0.3 0 0.3 0 0.3 0.3 0.29 0 0.3 0 0.3 0 0.3 0.29 0.29 0 0.3 0 0.59 0 0.3 0 0.29 0.3 0.3 0 0.3 0 0.3 0 0.29 0.3 0.3 0 0.3 0 0.3 0 0.29 0 0.3 0.3 0.3 0 0.3 0 0.59 0 0.3 0.29 0.3 0 0 0 -0zm0.88 0.59l0.3 0.59 0 0 0 0 -0.3 0 0 0 0 0 0 0 -0.3 0 0 0 0 0 0 0 -0.29 0 0 0 0 0 0 0 0 0 -0.3 0 0 0 0 0 0 -0.3 0 0 0 0 -0.3 0 0 0 0 0 0 -0.29 0 0 0 0 0 0 0 -0.3 -0.3 0 0 0 0 -0.3 0 0 0.59 0 0 0 0 0 0 0 0 0.3 0 0 0 0 0 0 0 0 0 0.3 0 0 0 0 0.3 0 0 0 0 0 0 0 0 0 0 0 0 0 0 0 0 0 0 0 0.3 0 0 0 0 0 0 0 0 0 0 0 0.29 0 0 0 0 0 0 0 0 0 0 0 0 -0zm0 0l0 0 0 0 0 0zm10.61 -3.54l0 0.59 0 0 -0.3 0 -0.3 0.3 -0.29 0 -0.3 0.3 -0.3 0 -0.3 0 -0.29 0.29 -0.59 0 -0.3 0 -0.3 0.3 -0.29 0 -0.3 0 -0.3 0.3 -0.3 0 -0.29 0 -0.3 0.3 -0.59 0 -0.3 0.29 -0.29 0 -0.3 0 -0.3 0.3 -0.3 0 -0.29 0 -0.3 0.3 -0.3 0 -0.59 0 -0.29 0.3 -0.3 0 -0.3 0 -0.3 0.29 -0.29 0 -0.3 0.3 -0.3 -0.59 0.59 0 0.3 -0.29 0.29 0 0.3 0 0.3 -0.3 0.3 0 0.29 -0.3 0.3 0 0.3 0 0.59 -0.3 0.29 0 0.3 0 0.3 -0.29 0.3 0 0.29 0 0.3 -0.3 0.3 0 0.3 0 0.29 -0.3 0.59 0 0.3 -0.3 0.3 0 0.29 0 0.3 -0.29 0.3 0 0.3 0 0.29 -0.3 0.3 0 0.59 0 0.3 -0.3 0.29 0 0.3 -0.3 0 0 0 0zm5.01 0l0 0.3 0 0 -0.3 0 0 0 -0.3 0 0 0 -0.3 0 0 0 -0.29 -0.3 0 0 -0.3 0 -0.3 0 0 0 -0.3 0 0 0 -0.29 0 0 0 -0.3 0 0 0 -0.3 0 0 0 -0.3 0.3 0 0 -0.29 0 0 0 -0.3 0 0 0 -0.3 0 0 0 -0.3 0 0 0.3 -0.29 0 0 0 -0.3 0 0 -0.59 0 0 0.3 0 0 0 0.29 0 0 0 0.3 0 0.3 -0.3 0 0 0.3 0 0 0 0.29 0 0 0 0.3 0 0 0 0.3 0 0 0 0.3 0 0 0 0.29 0 0 0 0.3 0 0.3 0 0 0 0.3 0 0 0 0.29 0 0 0 0.3 0 0 0 0.3 0 0 0 0.3 0.3 0 0 0 0zm4.71 6.48l-0.3 0 0 0 0 -0.3 0 0 0 -0.3 -0.3 -0.3 0 -0.29 0 -0.3 0 -0.3 -0.3 -0.3 0 0 0 -0.29 -0.29 -0.3 0 -0.3 0 -0.3 -0.3 0 0 -0.29 -0.3 -0.3 0 -0.3 -0.3 0 0 -0.3 -0.29 0 -0.3 -0.29 0 -0.3 -0.3 0 0 -0.3 -0.3 0 -0.29 -0.3 -0.3 0 0 0 -0.3 -0.29 -0.3 0 -0.29 0 0 -0.3 0 -0.3 0.29 0 0.3 0 0 0.3 0.3 0 0.3 0 0.29 0.3 0.3 0 0 0.29 0.3 0 0.3 0.3 0 0.3 0.29 0 0.3 0.3 0 0.29 0.3 0 0 0.3 0.3 0.3 0 0.3 0.29 0 0 0.29 0.3 0.3 0 0.3 0 0.3 0.3 0.29 0 0.3 0 0.3 0.3 0.3 0 0 0 0.29 0 0.3 0 0.3 0 0.3 0 0zm-4.13 7.66l-0.29 -0.59 0 0 0.29 0 0.3 0 0.3 -0.3 0 0 0.3 -0.3 0.29 0 0 -0.29 0.3 0 0.3 -0.3 0 0 0.3 -0.3 0.29 -0.3 0 0 0.3 -0.29 0 -0.3 0 0 0.3 -0.3 0 -0.3 0.29 -0.29 0 -0.3 0 -0.3 0.3 -0.3 0 -0.29 0 0 0 -0.3 0 -0.3 0.3 -0.3 0 -0.29 0 -0.3 0 -0.3 0 -0.59 0 -0.29 0.3 0 0 0.29 0 0.59 0 0.3 0 0.3 0 0.29 0 0.3 0 0.3 -0.3 0.3 0 0.29 0 0.3 0 0.3 -0.3 0.3 0 0.29 0 0.3 -0.3 0.3 0 0 -0.29 0.3 0 0.29 -0.3 0.3 0 0.3 -0.3 0 -0.29 0.3 0 0.29 -0.3 0 -0.3 0.3 0 0 -0.3 0.3 -0.29 0 -0.3 0.3 -0.3 0 -0.3 0.29 0 0 0 0 0 0zm-15.02 5.01l0 -0.59 0 0 0.3 0 0.59 -0.3 0.3 0 0.59 -0.3 0.3 0 0.59 -0.29 0.59 0 0.29 -0.3 0.59 -0.3 0.3 0 0.59 -0.3 0.59 0 0.29 -0.29 0.59 0 0.3 -0.3 0.59 0 0.29 -0.3 0.59 0 0.59 -0.3 0.3 0 0.59 -0.29 0.3 0 0.59 -0.3 0.3 0 0.59 -0.3 0.59 0 0.3 -0.29 0.59 0 0.29 -0.3 0.59 0 0.59 -0.3 0.3 -0.3 0.3 0.59 -0.59 0.3 -0.59 0 -0.3 0.3 -0.59 0 -0.29 0.29 -0.59 0 -0.59 0.3 -0.3 0 -0.59 0.3 -0.3 0 -0.59 0.3 -0.3 0 -0.59 0.29 -0.59 0 -0.3 0.3 -0.59 0.3 -0.29 0 -0.59 0.29 -0.59 0 -0.3 0.3 -0.59 0 -0.29 0.3 -0.59 0 -0.3 0.3 -0.59 0 -0.59 0.29 -0.3 0 -0.59 0.3 -0.3 0 -0.59 0.3 -0.3 0 -0.59 0.3 0 0 0 0zm-24.74 7.95l0 -0.59 0 0 0.59 -0.3 0.89 -0.3 0.88 0 0.59 -0.29 0.89 -0.3 0.59 -0.3 0.88 -0.29 0.89 -0.3 0.59 0 0.89 -0.3 0.88 -0.3 0.59 -0.29 0.89 -0.3 0.59 -0.3 0.89 0 0.89 -0.3 0.59 -0.29 0.89 -0.3 0.88 -0.3 0.59 -0.3 0.89 -0.29 0.59 0 0.89 -0.3 0.88 -0.3 0.59 -0.3 0.89 -0.29 0.59 -0.3 0.88 -0.3 0.89 0 0.59 -0.3 0.89 -0.29 0.88 -0.3 0 0.59 -0.88 0.29 -0.59 0 -0.88 0.3 -0.89 0.3 -0.59 0.3 -0.88 0.29 -0.59 0.3 -0.89 0 -0.88 0.3 -0.59 0.3 -0.88 0.29 -0.59 0.3 -0.89 0.3 -0.88 0.3 -0.59 0 -0.88 0.29 -0.89 0.3 -0.59 0.3 -0.88 0.3 -0.59 0.29 -0.89 0 -0.88 0.3 -0.59 0.3 -0.88 0.3 -0.89 0.29 -0.59 0.3 -0.88 0.3 -0.59 0 -0.89 0.3 -0.88 0.29 -0.59 0.3 -0.88 0.3 0 0zm-0.59 1.47l-0.3 0 0 0 0 0 -0.29 -0.3 0 0 0 0 0 0 0 -0.3 0 0 0 0 0 -0.29 0 0 0 0 0 0 0 -0.3 0 0 0 0 0 0 0 -0.3 0.29 0 0 0 0 0 0 0 0 -0.3 0 0 0.3 0 0 0 0 0 0 0 0.3 0 0 -0.29 0 0 0 0 0.3 0 0 0.59 0 0 0 0 -0.3 0 0 0 0 0 0 0 0 0 -0.3 0.3 0 0 0 0 0 0 0 0 0 0 0 0 0 0 0 0 0 0 0 0.3 0 0 0 0 0 0 -0.3 0 0 0 0.3 0 0 0.3 0 0 0 0 0 0 0 0.29 0 0 0 0 0 0.3 0 0 0 0zm8.25 25.92l-0.3 0.3 0 0 -0.29 -0.89 -0.3 -0.88 -0.3 -0.59 0 -0.89 -0.3 -0.88 -0.29 -0.89 -0.3 -0.59 -0.3 -0.89 -0.3 -0.88 -0.29 -0.89 -0.3 -0.88 -0.3 -0.59 0 -0.89 -0.3 -0.88 -0.29 -0.89 -0.3 -0.59 -0.3 -0.88 -0.3 -0.89 -0.29 -0.88 -0.3 -0.89 -0.3 -0.59 0 -0.89 -0.3 -0.88 -0.29 -0.89 -0.3 -0.59 -0.3 -0.88 -0.3 -0.89 -0.29 -0.88 -0.3 -0.89 -0.3 -0.59 0 -0.88 -0.3 -0.89 0.3 0 0.3 0.59 0.3 0.89 0.29 0.88 0.3 0.89 0 0.59 0.3 0.88 0.3 0.89 0.29 0.88 0.3 0.89 0.3 0.59 0.3 0.89 0.29 0.88 0.3 0.89 0 0.59 0.3 0.88 0.3 0.89 0.29 0.88 0.3 0.89 0.3 0.59 0.3 0.88 0.29 0.89 0.3 0.88 0 0.59 0.3 0.88 0.3 0.89 0.29 0.88 0.3 0.89 0.3 0.59 0.3 0.88 0.29 0.89 0.3 0.88 0 0.59 0 0zm0.59 2.94l-0.59 0 0 0 0 0 0 -0.3 0 0 0 0 0 -0.29 0 0 0 0 0 0 0 -0.3 0 0 0 0 0 -0.3 0 0 0 0 0 0 0 -0.3 0 0 0 0 0 0 0 -0.29 0 0 0 0 0 -0.3 0 0 0 0 0 0 -0.3 -0.3 0 0 0 0 0 0 0 -0.3 0 0 0.3 -0.29 0 0.29 0.3 0 0 0 0 0.3 0 0 0 0 0 0 0 0.3 0 0 0 0 0 0.3 0 0 0 0 0 0 0 0.29 0.29 0 0 0 0 0.3 0 0 0 0 0 0.3 0 0 0 0 0 0 0 0.3 0 0 0 0 0 0.29 0 0 0 0 0 0.3 0 0 0 0 0 0zm-0.59 0l0 0 0 0 0 0zm1.18 0.89l0 0.29 0 0 0 0 0 0 0 0 -0.29 0 0 0 0 0 0 0 0 0 -0.3 0 0 0 0 0 0 0 0 0 0 0 -0.3 -0.29 0 0 0 0 0 0 0 0 0 0 0 -0.3 0 0 0 0 0 0 -0.3 0 0 -0.3 0 0 0 0 0 0 0 -0.3 0 0 0 0 0.59 0 0 0 0 0 0 0.3 0 0 0 0 0 0 0 0 0 0 0 0 0 0.3 0 0 0 0 0 0 0 0 0 0 0 0 0 0 0 0 0 0 0.3 0 0 0 0 0.3 0 0 0 0 0 0 0 0 0 0 0.3 0 0 0 0 0 0 0 0 0 0 0 -0 0zm2.95 0.29l-0.3 0.3 0 0 0 0 -0.3 0 0 0 0 0 0 0 0 -0.3 -0.3 0 0 0 0 0 0 0 -0.29 0 0 0 0 0 0 0 -0.3 0 0 0 0 0 0 0 -0.3 0 0 0 0 0 -0.3 0 0 0 0 0 -0.29 0 0 0 0 0 -0.3 0 0 0 0 0 0 0 -0.3 0 0 -0.29 0.3 0 0 0 0 0 0 0 0.3 0 0 0 0 0 0.29 0 0 0 0 0 0.3 0 0 0 0 0 0 -0.3 0.3 0 0 0 0 0 0.3 0 0 0 0 0 0.29 0 0 0.3 0 0 0.3 0 0 0 0 0 0 0 0.3 0 0 0 0 0.29 0 0 0.3 0 0 0zm0 0l0 0 0 0 0 0zm0.29 3.54l-0.59 0 0 0 0 0 0 -0.3 0 0 0 -0.29 0 0 0 0 0 -0.3 0.29 0 0 0 0 -0.3 0 0 0 -0.3 0 0 0 0 0 -0.29 0 0 0 0 0 -0.3 0 0 0 0 0 -0.3 0 0 0 0 0 -0.3 0 0 -0.29 0 0 -0.29 0 0 0 0 0 0 0 -0.3 0 0 0.29 -0.3 0 0 0 0.3 0 0 0.3 0 0 0.3 0 0 0 0.29 0 0 0 0 0 0.3 0 0 0 0 0 0.3 0 0 0 0.3 0 0 0 0 0 0.29 0 0 0 0.3 0 0 0 0 0 0.3 0 0 0 0 0 0.3 0 0 0 0.29 0 0 0 0 0 0.3 0 0 0 0 0 0zm0 12.37l-0.59 0 0 0 0 -0.29 0 -0.3 0 -0.59 0 -0.3 0 -0.29 0 -0.59 0 -0.3 0 -0.3 0 -0.59 0 -0.3 0 -0.3 0 -0.59 0 -0.29 0 -0.3 0 -0.3 0 -0.59 0 -0.29 0 -0.3 0 -0.59 0 -0.3 0 -0.29 0 -0.59 0 -0.3 0 -0.3 0 -0.59 0 -0.3 0 -0.3 0 -0.59 0 -0.29 0 -0.3 0 -0.59 0 -0.3 0.59 0 0 0.3 0 0.59 0 0.3 0 0.29 0 0.59 0 0.3 0 0.3 0 0.59 0 0.3 0 0.3 0 0.59 0 0.29 0 0.3 0 0.59 0 0.3 0 0.29 0 0.59 0 0.3 0 0.3 0 0.29 0 0.59 0 0.3 0 0.3 0 0.59 0 0.3 0 0.3 0 0.59 0 0.29 0 0.3 0 0.59 0 0.3 0 0.29 0 0zm-1.47 2.06l0 -0.59 0 0 0 0 0 0 0 0 0.3 0 0 0 0 0 0 0 0.3 0 0 0 0 0 0 0 0 0 0 -0.29 0.3 0 0 0 0 0 0 0 0 0 0 0 0 0 0 -0.3 0 0 0 0 0 0 0 0 0 -0.3 0 0 0 0 0 -0.29 0 0 0 0 0 -0.3 0.59 0 0 0.3 0 0 0 0.29 0 0 0 0 0 0 0 0.3 0 0 0 0 0 0.3 -0.29 0 0 0 0 0 0 0.29 0 0 0 0 0 0 -0.3 0.3 0 0 0 0 0 0 0 0 -0.3 0 0 0 0 0 0 0.3 -0.3 0 0 0 0 0 -0.29 0 0 0 0 0 0 0 -0 0zm-50.37 0l0 -0.59 0 0 1.47 0 1.47 0 1.77 0 1.47 0 1.47 0 1.77 0 1.47 0 1.47 0 1.77 0 1.47 0 1.47 0 1.77 0 1.47 0 1.47 0 1.77 0 1.47 0 1.47 0 1.77 0 1.47 0 1.47 0 1.77 0 1.47 0 1.47 0 1.77 0 1.47 0 1.77 0 1.47 0 1.47 0 1.77 0 1.47 0 1.47 0 1.77 0 0 0.59 -1.77 0 -1.47 0 -1.47 0 -1.77 0 -1.47 0 -1.47 0 -1.77 0 -1.47 0 -1.77 0 -1.47 0 -1.47 0 -1.77 0 -1.47 0 -1.47 0 -1.77 0 -1.47 0 -1.47 0 -1.77 0 -1.47 0 -1.47 0 -1.77 0 -1.47 0 -1.47 0 -1.77 0 -1.47 0 -1.47 0 -1.77 0 -1.47 0 -1.47 0 -1.77 0 -1.47 0 -1.47 0 0 0zm0 0l0 0 0 0 0 0zm-1.77 -1.76l0.59 0 0 0 0 0 0 0 0 0.29 0 0 0 0 0 0 0 0.3 0 0 0 0 0 0 0 0.3 0 0 0 0 0 0 0 0 0.3 0 0 0 0 0 0 0 0 0.29 0 0 0 0 0 0 0.29 0 0 0 0 0 0 0 0 0 0.3 0 0 0 0 0 0.3 0 0 0.59 -0.3 0 0 0 0 0 -0.3 0 0 0 0 0 -0.29 0 0 -0.29 0 0 0 0 0 0 -0.3 0 0 0 0 0 0 0 0 -0.3 -0.3 0 0 0 0 0 0 -0.3 0 0 0 0 0 0 0 -0.3 0 0 -0.29 0 0 -0.29 0 0 0 0 0 -0.3 0 0 0 0 0 0 -0 0zm0 0l0 0 0 0 0 0zm0 -14.73l0.59 0 0 0 0 0.29 0 0.59 0 0.3 0 0.59 0 0.29 0 0.59 0 0.59 0 0.3 0 0.59 0 0.3 0 0.59 0 0.3 0 0.59 0 0.59 0 0.3 0 0.59 0 0.3 0 0.59 0 0.3 0 0.59 0 0.59 0 0.29 0 0.59 0 0.3 0 0.59 0 0.29 0 0.59 0 0.3 0 0.59 0 0.59 0 0.3 0 0.59 -0.59 0 0 -0.59 0 -0.3 0 -0.59 0 -0.59 0 -0.3 0 -0.59 0 -0.29 0 -0.59 0 -0.3 0 -0.59 0 -0.59 0 -0.3 0 -0.59 0 -0.3 0 -0.59 0 -0.3 0 -0.59 0 -0.3 0 -0.59 0 -0.59 0 -0.3 0 -0.59 0 -0.3 0 -0.59 0 -0.3 0 -0.59 0 -0.59 0 -0.29 0 -0.59 0 -0.3 0 -0.59 0 -0.29 0 0zm0 0l0 0 0 0 0 0zm1.47 -1.77l0 0.29 0 0 0 0 0 0 -0.3 0 0 0 0 0 0 0 0 0 -0.29 0.3 0 0 0 0 0 0 0 0 0 0 0 0 0 0 0 0 -0.3 0 0 0 0 0.3 0 0 0 0 0 0 0 0 0 0 0 0.3 0 0 0 0 0 0 0 0.29 0 0 0 0 0 0.3 -0.59 0 0 -0.3 0 0 0 0 0 -0.29 0 0 0 0 0.3 -0.3 0 0 0 0 0 0 0 -0.3 0 0 0 0 0 0 0 -0.3 0 0 0.3 0 0 0 0 0 0 -0.29 0 0 0.29 0 0 0 0 0 0 0 0.3 0 0 0 0 0 0 0 0.3 0 0 0 0 0 0 0 0 0zm0 0l0 0 0 0 0 0zm0.3 0l0 0.29 0 0 0 0 0 0 0 0 0 0 0 0 0 0 0 0 0 0 0 0 0 0 0 0 0 0 0 0 0 0 0 0 0 0 0 0 0 0 0 0 0 0 0 0 0 0 0 0 0 0 0 0 -0.29 0 0 0 0 0 0 0 0 0 0 0 0 0 0 -0.29 0 0 0 0 0 0 0 0 0.29 0 0 0 0 0 0 0 0 0 0 0 0 0 0 0 0 0 0 0 0 0 0 0 0 0 0 0 0 0 0 0 0 0 0 0 0 0 0 0 0 0 0 0 0 0 0 0 0 0 0 0 0 0 0 0 0 0zm0 0l0 0 0 0 0 0zm2.36 -2.06l0.3 0 0 0 0 0.3 0 0 0 0.29 0 0 0 0.3 0 0.3 -0.3 0 0 0 0 0.3 0 0 0 0.29 0 0 0 0 0 0.3 -0.3 0 0 0 0 0 0 0.3 -0.3 0 0 0 0 0 -0.29 0 0 0 0 0 -0.3 0 0 0 -0.3 0 0 0 -0.3 0 0 0 -0.29 0 -0.3 0 0 -0.3 0.3 0 0.29 0 0 0 0.3 0 0 0 0.3 0 0 0 0 0 0.3 0 0 0 0 -0.3 0.29 0 0 0 0 0 0 0 0 0 0 0 0 0 0.3 -0.29 0 0 0 0 0 0 0 -0.3 0 0 0 0 0 -0.3 0 0 0 -0.3 0 0 0 -0.29 0 -0.3 0.3 0 0 0zm0.3 -1.47l0.29 0 0 0 0 0 0 0.3 0 0 0 0 0 0 0 0 0 0 0 0 0 0.29 0 0 0 0 0 0 0 0 0 0 -0.29 0 0 0.3 0 0 0 0 0 0 0 0 0 0 0 0 0 0.3 0 0 0 0 0 0 0 0 0 0 0 0 0 0.3 0 0 0 0 -0.3 0 0 -0.3 0 0 0 0 0 0 0 0 0 0 0 -0.3 0 0 0 0 0 0 0 0 0 0 0 0 0 -0.3 0 0 0 0 0 0 0 0 0 0 0 -0.29 0 0 0 0 0 0 0 0 0 0 0.3 0 0 -0.3 0 0 0 0 0 0 0 0 0 0 0 0zm5 -16.2l0.59 0 0 0 -0.3 0.59 0 0.59 -0.29 0.59 -0.3 0.3 0 0.59 -0.3 0.59 0 0.3 -0.3 0.59 0 0.59 -0.29 0.59 0 0.3 -0.3 0.59 0 0.59 -0.3 0.29 -0.3 0.59 0 0.59 -0.29 0.59 0 0.29 -0.3 0.59 0 0.59 -0.3 0.3 0 0.59 -0.3 0.59 -0.29 0.59 0 0.3 -0.3 0.59 0 0.59 -0.3 0.3 0 0.59 -0.3 0.59 0 0.59 -0.29 0.3 -0.3 0 0 -0.59 0.3 -0.59 0 -0.3 0.29 -0.59 0.3 -0.59 0 -0.59 0.3 -0.3 0 -0.59 0.3 -0.59 0 -0.3 0.29 -0.59 0 -0.59 0.3 -0.59 0 -0.3 0.3 -0.59 0.3 -0.59 0 -0.3 0.29 -0.59 0 -0.59 0.3 -0.59 0 -0.3 0.3 -0.59 0 -0.59 0.3 -0.3 0 -0.59 0.29 -0.59 0.3 -0.59 0 -0.29 0.3 -0.59 0 -0.59 0.3 -0.3 0 -0.59 0 0 -0 0zm0 0l0 0 0 0 0 0zm0.59 -1.18l0.3 -0.29 0 0.29 0 0 0 0 0 0 0 0 0 0 0 0.3 0 0 0 0 0 0 0 0 -0.3 0 0 0 0 0.3 0 0 0 0 0 0 0 0 0 0 0 0.3 0 0 0 0 0 0 0 0 0 0 0 0 0 0 0 0.29 0 0 0 0 0 0 0 0 0 0 -0.59 0 0 0 0 0 0 -0.29 0 0 0 0 0.3 0 0 0 0 0 0 0 0 -0.3 0 0 0 0 0 0 0 0 0 0 0 0 0 -0.3 0 0 0 0 0 0 0 0 0 0 0 0 0 -0.3 0 0 0 0 0 0 0 0 0 0 0.3 0 0 -0.29 0 0 0 0.29 0 0zm0.3 -0.29l0 0 0 0.29 0 -0.29zm-1.47 0.59l0 -0.59 0 0 0 0 0 0 0 0 0 0 0.3 0 0 0 0 0 0 0 0 0 0 0 0 0 0 0 0 0 0.29 0 0 0 0 0 0 0 0 -0.29 0 0 0 0 0.3 0 0 0 0 0 0 0 0 0 0 0 0.3 0 0 0 0 0.29 0 0 0 0 0.3 0 -0.3 0.3 0 0 0 0 0 0 0 0 -0.3 0 0 0 0 0 0 0 0 0 0 0 0 0 0 0 0 0 -0.3 0 0 0 0 0 0 0 0 0 0 0 0 0 0 0 0 0 -0.29 0 0 0 0 0 0 0.3 0 0 0 0 0 0 0 0 0 0 -0.3 0 0 0 0 0zm0 0l0 0 0.3 0 -0.3 0zm-30.64 10.02l0 -0.59 0 0 0.89 -0.3 0.89 -0.29 1.18 -0.3 0.88 -0.3 0.89 -0.3 0.88 -0.29 1.18 -0.3 0.88 -0.3 0.89 -0.59 0.88 -0.29 1.18 -0.3 0.89 -0.3 0.88 -0.29 0.89 -0.3 1.18 -0.3 0.89 -0.3 0.88 -0.29 0.89 -0.3 1.18 -0.3 0.89 -0.3 0.88 -0.29 0.89 -0.3 1.18 -0.3 0.88 -0.3 0.89 -0.29 0.88 -0.3 1.18 -0.59 0.88 -0.3 0.89 -0.29 0.88 -0.3 1.18 -0.3 0.89 -0.3 0 0.59 -0.89 0.3 -0.88 0.3 -0.89 0.29 -1.18 0.3 -0.88 0.3 -0.89 0.3 -0.88 0.29 -1.18 0.3 -0.88 0.3 -0.89 0.3 -0.88 0.29 -1.18 0.3 -0.89 0.59 -0.88 0.3 -0.89 0.29 -1.18 0.3 -0.89 0.3 -0.88 0.3 -1.18 0.29 -0.88 0.3 -0.89 0.3 -0.88 0.3 -1.18 0.29 -0.89 0.3 -0.88 0.3 -0.89 0.29 -1.18 0.3 -0.89 0.3 -0.88 0.3 -0.89 0.29 -1.18 0.59 -0.89 0.3 0 0zm0 -0.59l0 0 0 0 0 0zm-3.83 1.18l0 -0.59 0 0 0 0 0.3 0 0 0 0.29 0 0 0 0.3 0 0 0 0 0 0.3 0 0 0 0 0 0.3 0 0 0 0.29 0 0 0 0 0 0.3 0 0 0 0.3 -0.3 0 0 0 0 0.3 0 0 0 0.29 0 0 0 0 0 0.3 0 0 0 0.3 -0.3 0 0 0 0 0.3 0 0 0.59 0 0 -0.3 0 0 0 0 0 -0.3 0 0 0 -0.3 0 0 0.3 0 0 -0.29 0 0 0 -0.3 0 0 0 0 0 -0.3 0 0 0 -0.3 0 0 0.3 -0.29 0 0 0 0 0 -0.3 0 0 0 -0.3 0 0 0 0 0 -0.3 0 0 0 -0.29 0 0 0 -0.3 0 0 0 0 0zm-6.19 -5.89l0.59 0 0 0 0 0.3 0 0.3 0.29 0.3 0 0.29 0 0.3 0.3 0 0 0.3 0.3 0.3 0 0.29 0.3 0.3 0 0 0.29 0.3 0 0.3 0.3 0 0 0.29 0.3 0.3 0 0 0.3 0.3 0.29 0 0 0.3 0.3 0 0.3 0 0.3 0.29 0 0 0.29 0.3 0.3 0 0.3 0 0.3 0 0 0.3 0.29 0 0.3 0 0.3 0 0 0.59 -0.3 0 -0.3 -0.3 -0.29 0 -0.3 0 -0.3 0 -0.3 -0.3 0 0 -0.29 0 -0.3 -0.3 -0.3 0 -0.3 0 0 -0.29 -0.29 0 -0.3 -0.3 0 -0.3 -0.3 0 -0.3 -0.3 0 -0.29 -0.29 0 0 -0.3 -0.3 -0.3 -0.3 0 0 -0.3 -0.3 -0.29 0 -0.3 0 -0.3 -0.29 -0.3 0 -0.29 -0.3 -0.3 0 -0.3 0 -0.3 -0.3 -0.29 0 0 0 -0zm0 0l0 0 0 0 0 0zm0.59 -3.53l0 3.53 -0.59 0 0 -3.53 0 0 0.59 0zm-0.59 0l0 0 0 0 0 0z"/>
    </g>
    <g>
     <path class="fil1" d="M71.7 69.04c0,-1.18 -0.89,-2.06 -1.77,-2.06 -0.89,0 -1.77,0.89 -1.77,1.77 0,1.18 0.88,2.06 1.77,2.06 0.88,0 1.77,-0.88 1.77,-1.77zm-1.77 -6.78c3.24,0 5.89,2.95 5.89,6.48 0,3.83 -2.65,6.78 -5.89,6.78 -3.24,0 -5.89,-2.94 -5.6,-6.78 0,-3.53 2.36,-6.48 5.6,-6.48z"/>
     <path id="_1_77" class="fil1" d="M69.93 67.28l0 -0.59 0 0 0 0 0.29 0 0 0 0 0 0.3 0 0 0 0 0 0.3 0.29 0 0 0 0 0 0 0.3 0 0 0.3 0 0 0 0 0.29 0 0 0.3 0 0 0 0 0.3 0 0 0.3 0 0 0 0 0 0.29 0 0 0 0 0 0.3 0.3 0 0 0.3 0 0 0 0 0 0.3 -0.59 0 0 -0.3 0 0 0 0 0 0 0 -0.3 0 0 0 0 0 -0.3 0 0 0 0 0 0 -0.3 -0.29 0 0 0 0 0 0 0 -0.3 0 0 -0.29 0 0 0 0 0 0 0 -0.3 -0.3 0 0 0 0 0 0 0 0 -0.3 0 0 0 0 0 0 0 -0.3 0 0 0 0 0 0 0zm0 -0.59l0 0 0 0 0 0zm-1.47 2.06l-0.3 0 0 0 0 0 0 0 0 -0.29 0 0 0 0 0 -0.3 0 0 0 0 0 -0.3 0 0 0.3 0 0 -0.29 0 0 0 0 0 0 0.29 -0.3 0 0 0 0 0 0 0.3 -0.3 0 0 0 0 0 0 0.3 0 0 0 0 -0.3 0 0 0.3 0 0 0 0 0 0.29 0 0 0 0 0.59 0 0 0 0 -0.29 0 0 0 0 0 0 0 -0.3 0 0 0 0 0 0 0 0 0.3 -0.3 0 0 0 0 0 0 0 0 0 -0.3 0.3 0 0 0 0 0 0 0 0.29 0 0 0 0 -0.29 0 0 0.3 0 0 0 0 0 0 0 0.3 0 0 0 0 0 0 0 0 0 -0zm0 0l0 0 0 0 0 0zm1.47 2.06l0 0.3 0 0 0 0 0 0 -0.3 0 0 0 0 0 -0.3 0 0 0 0 0 -0.29 -0.3 0 0 0 0 0 0 -0.3 0 0 -0.29 0 0 0 0 -0.3 0 0 -0.3 0 0 0 0 0 -0.3 -0.3 0 0 0 0 -0.3 0 0 0 0 0 -0.29 0 0 0 0 0 -0.3 0 0 0 -0.3 0.3 0 0 0.3 0 0 0 0 0 0.3 0 0 0 0 0 0 0 0.29 0 0 0.3 0 0 0 0 0.3 0 0 0 0 0 0 0.3 0.3 0 0 0 0 0 0 0 0 0.29 0.3 0 0 0 0 0 0 0.3 0 0 0 0 0 0 0 0 0 0.3 0 0 0 0 0.29 0 0zm0 0l0 0 0 0 0 0zm1.47 -1.77l0.59 0 0 0 0 0 0 0 0 0.3 0 0 -0.3 0 0 0.3 0 0 0 0 0 0.29 0 0 0 0 -0.3 0.3 0 0 0 0 0 0.3 0 0 -0.3 0 0 0 0 0.3 0 0 -0.29 0 0 0 0 0 0 0 -0.3 0.29 0 0 0 0 -0.3 0 0 0 0 0 0 0 -0.3 0 0 -0.29 0 -0.3 0.3 0 0 0 0 0 0 0 0.3 0 0 0 0 0 0 0 0 0 0.3 0 0 -0.3 0 0 0 0 0 0 0.29 0 0 -0.3 0 0 0 0 0 0 0 -0.29 0.3 0 0 0 0 0 0 -0.3 0 0 0 0 0 0 0 -0.3 0 0 0 0 0 0 0 0 0 0zm4.42 -0.3l-0.3 0 0 0 0 -0.29 0 -0.3 0 -0.3 0 -0.29 -0.29 -0.3 0 -0.3 0 -0.3 -0.3 -0.29 0 -0.3 0 -0.3 -0.3 -0.3 0 -0.29 -0.3 0 0 -0.3 -0.29 -0.3 -0.3 -0.3 0 0 -0.3 -0.29 -0.3 -0.3 0 0 -0.29 -0.3 -0.3 0 -0.3 -0.3 -0.3 0 0 -0.29 -0.29 0 -0.3 0 -0.3 -0.3 -0.3 0 -0.29 0 -0.3 0 -0.3 0 0 -0.59 0.3 0 0.3 0 0.29 0 0.3 0.3 0.3 0 0.3 0 0.29 0.3 0.3 0 0.3 0.29 0.3 0 0.29 0.3 0 0 0.3 0.3 0.3 0.3 0.3 0 0 0.29 0.29 0.3 0.3 0.3 0 0.3 0.3 0 0 0.29 0.3 0.3 0 0.3 0.29 0.3 0 0.29 0 0.59 0.3 0.3 0 0.3 0 0.29 0 0.3 0 0.3 0 0.29 0 0zm-5.89 7.07l0 -0.59 0 0 0.29 0 0.3 0 0.3 0 0.3 0 0.29 0 0.3 -0.29 0.3 0 0 0 0.3 -0.3 0.29 0 0.3 -0.3 0.3 0 0 -0.3 0.3 -0.29 0.29 0 0 -0.3 0.3 -0.3 0.3 -0.3 0 0 0.3 -0.29 0 -0.3 0.29 -0.3 0 -0.3 0 -0.29 0.3 -0.3 0 -0.3 0 -0.3 0.3 -0.29 0 -0.3 0 -0.3 0 -0.3 0 -0.59 0.3 0 0 0.59 0 0.3 0 0.3 0 0.3 0 0.29 -0.3 0.3 0 0.59 0 0.3 -0.3 0.29 0 0.3 -0.3 0.3 0 0.3 -0.29 0.29 0 0 -0.3 0.3 -0.3 0.3 0 0.3 -0.3 0.29 -0.29 0 -0.3 0.3 0 0.3 -0.3 0 -0.3 0.3 -0.29 0 -0.3 0.29 -0.3 0 -0.3 0 -0.29 0.3 -0.3 0 -0.3 0 -0.3 0 -0.29 0 0 0zm-5.89 -7.07l0.3 0 0 0 0 0.3 0 0.3 0 0.59 0.3 0.29 0 0.3 0 0.3 0 0.3 0.3 0.29 0 0.3 0.29 0.3 0 0.3 0 0.29 0.3 0 0.3 0.3 0 0.3 0.3 0.3 0 0.29 0.29 0 0.3 0.3 0.3 0.3 0 0 0.3 0.3 0.29 0 0.3 0.29 0.3 0 0 0 0.3 0.3 0.29 0 0.3 0 0.3 0 0.3 0 0.29 0 0 0.59 -0.29 0 -0.3 0 -0.3 0 -0.3 0 -0.29 -0.3 -0.3 0 -0.3 0 -0.3 -0.3 -0.29 0 -0.3 -0.29 0 0 -0.3 -0.3 -0.3 -0.3 -0.29 0 -0.3 -0.3 0 -0.29 -0.3 -0.3 -0.3 -0.3 0 -0.3 -0.29 -0.29 0 -0.3 -0.3 -0.3 0 -0.3 -0.3 -0.29 0 -0.3 0 -0.3 -0.3 -0.29 0 -0.3 0 -0.3 0 -0.3 0 -0.59 0 -0.3 0 0 0 -0zm5.89 -6.77l0 0.59 0 0 -0.3 0 -0.3 0 -0.29 0 -0.3 0 0 0.3 -0.3 0 -0.3 0 -0.29 0.3 -0.3 0 -0.3 0 -0.3 0.3 0 0.29 -0.29 0 -0.3 0.3 0 0 -0.3 0.3 -0.3 0.3 0 0.29 -0.29 0 0 0.3 -0.3 0.3 0 0.3 -0.3 0.29 0 0.3 -0.3 0.3 0 0.3 0 0.29 0 0.3 0 0.3 -0.29 0.3 0 0.29 0 0.3 -0.3 0 0 -0.3 0 -0.29 0 -0.3 0 -0.3 0.3 -0.59 0 -0.29 0 -0.3 0.29 -0.3 0 -0.3 0 -0.29 0.3 -0.3 0 -0.3 0.3 -0.3 0.3 0 0 -0.29 0.29 -0.3 0.3 -0.3 0 -0.3 0.3 0 0.3 -0.29 0.29 0 0.3 -0.3 0 -0.3 0.3 0 0.3 0 0.29 -0.3 0.3 0 0.3 0 0.3 -0.29 0.29 0 0.3 0 0.3 0 0 0z"/>
    </g>
   </g>
  </g>
  <rect class="fil0" width="140" height="140"/>
 </g>
</svg>
