<?xml version="1.0" encoding="UTF-8"?>
<!DOCTYPE svg PUBLIC "-//W3C//DTD SVG 1.1//EN" "http://www.w3.org/Graphics/SVG/1.1/DTD/svg11.dtd">
<!-- Creator: CorelDRAW -->
<svg xmlns="http://www.w3.org/2000/svg" xml:space="preserve" width="0.14in" height="0.14in" version="1.1" style="shape-rendering:geometricPrecision; text-rendering:geometricPrecision; image-rendering:optimizeQuality; fill-rule:evenodd; clip-rule:evenodd"
viewBox="0 0 140 140"
 xmlns:xlink="http://www.w3.org/1999/xlink"
 xmlns:xodm="http://www.corel.com/coreldraw/odm/2003">
 <defs>
  <style type="text/css">
   <![CDATA[
    .str0 {stroke:#1C2335;stroke-width:3.33;stroke-miterlimit:2.61313}
    .fil0 {fill:none}
    .fil1 {fill:#1C2335;fill-rule:nonzero}
   ]]>
  </style>
 </defs>
 <g id="Layer_x0020_1">
  <metadata id="CorelCorpID_0Corel-Layer"/>
  <rect class="fil0" width="140" height="140"/>
  <g id="_1782456618464">
   <circle class="fil0 str0" transform="matrix(0.606545 0.179914 -0.179914 0.606545 70 70)" r="107.11"/>
   <g>
    <path class="fil1" d="M100.63 110.96c4.72,0 9.15,0 13.87,0 1.18,0 2.66,-0.3 2.66,1.48 0,1.77 -1.48,1.47 -2.66,1.47 -13.57,0 -27.15,0 -40.73,0 -4.43,0 -8.85,0 -13.28,0 -5.31,0 -10.92,0 -16.23,0 -6.5,0 -12.99,0 -19.19,0 -1.18,0 -2.07,-0.3 -2.07,-1.47 -0.3,-1.48 0.89,-1.48 2.07,-1.48 4.43,0 9.15,0 13.57,0 0.59,0 1.18,0 2.07,0 0,-0.59 0,-1.18 0,-1.48 0,-6.49 0,-12.69 0,-18.89 0,-1.48 -0.59,-1.77 -1.77,-1.77 -4.72,0 -9.44,0 -14.17,0 -0.59,0 -1.77,-0.3 -2.07,-0.89 -0.3,-0.3 0,-1.48 0.3,-2.07 1.77,-2.95 3.54,-5.61 5.31,-8.56 0.3,-0.3 0.59,-0.59 0.89,-1.18 -1.77,0 -2.95,0 -4.43,0 -0.59,-0.3 -1.77,-0.3 -2.07,-0.89 -0.3,-0.59 0,-1.77 0.3,-2.36 1.77,-2.65 3.54,-5.31 5.31,-8.26 0.3,-0.3 0.59,-0.89 0.89,-1.48 -1.77,0 -3.25,0 -4.72,0 -2.07,0 -2.66,-0.89 -1.48,-2.95 6.49,-10.04 12.69,-20.37 19.19,-30.4 0.59,-0.89 0.89,-1.48 1.48,-2.07 1.18,-2.07 2.36,-2.07 3.54,0 4.13,6.2 7.97,12.39 11.81,18.59 2.66,3.84 5.02,7.97 7.68,11.81 0.3,-0.3 0.59,-0.59 0.89,-0.59 1.77,-2.07 2.07,-2.07 3.83,0 1.48,1.48 3.25,2.95 4.72,4.72 0.3,-1.18 0.3,-2.06 0.3,-2.95 0.89,-3.25 2.36,-5.91 5.02,-7.97 0.59,-0.59 1.18,-1.18 1.18,-1.77 0.3,-6.49 5.9,-11.81 12.4,-12.1 7.38,-0.59 13.87,3.83 15.05,10.33 0.3,2.07 1.18,3.25 2.66,4.72 3.83,3.54 4.72,7.97 3.24,13.28 0,0.59 -0.3,1.47 0,2.07 4.72,9.15 -1.47,19.19 -12.1,19.48 -3.24,0.29 -3.24,0.29 -3.24,3.54 0,6.2 0,12.1 0,18 0,0.59 0,1.18 0,2.07l0 0zm-74.38 -50.77l0 0c2.07,0 3.25,0 4.72,0 2.36,0.29 2.95,1.18 1.77,2.95 -1.77,2.66 -3.24,5.31 -5.02,7.68 -0.3,0.89 -0.89,1.47 -1.48,2.36 1.77,0 3.25,0 4.72,0 0.59,0 1.77,0.3 2.07,0.89 0.29,0.59 -0.3,1.48 -0.59,2.07 -1.18,2.07 -2.36,4.13 -3.54,5.91 -0.89,1.18 -1.48,2.36 -2.36,3.83 12.69,0 25.09,0 37.78,0 -0.3,-0.59 -0.59,-1.18 -0.89,-1.48 -1.77,-2.95 -3.54,-5.61 -5.31,-8.26 -1.18,-1.77 -0.59,-2.95 1.48,-2.95 1.77,0 3.25,0 5.02,0 -2.36,-3.54 -4.43,-6.49 -6.2,-9.74 -0.59,-0.59 -0.89,-1.77 -0.59,-2.36 0.29,-0.3 1.47,-0.59 2.36,-0.59 1.18,-0.29 2.66,-0.29 4.13,-0.29 -6.2,-10.04 -12.69,-19.78 -18.89,-29.81 -6.5,10.04 -12.69,19.78 -19.19,29.81l0 0zm72.02 14.46l0 0c0.89,-1.77 1.77,-2.95 2.36,-4.43 0.59,-0.89 1.18,-1.77 2.36,-1.18 1.18,0.59 0.89,1.77 0.3,2.65 -1.48,2.66 -2.95,5.31 -4.43,8.26 -0.89,1.48 -0.89,2.66 -0.59,4.43 2.06,0 4.13,0 6.2,0 8.26,-0.3 12.99,-8.85 8.85,-15.94 -0.59,-0.89 -0.89,-1.77 -0.3,-2.66 2.07,-5.02 0.3,-10.04 -4.13,-12.69 -0.89,-0.59 -1.48,-1.18 -1.48,-2.36 0,-6.2 -4.72,-10.63 -10.92,-10.63 -6.2,0 -10.92,4.43 -10.92,10.63 0,1.18 -0.3,1.77 -1.18,2.36 -4.72,2.66 -6.2,7.68 -4.13,12.69 0.3,0.89 0.3,1.77 -0.3,2.66 -4.13,5.9 -0.59,14.17 6.5,15.64 2.66,0.3 5.61,0.3 8.56,0.3 -0.3,-3.25 0.59,-6.2 -1.18,-9.15 -1.47,-1.77 -2.36,-4.13 -3.54,-6.2 -0.3,-0.29 -0.59,-0.59 -0.59,-0.89 0,-0.59 0,-1.77 0.59,-2.06 0.59,-0.59 1.47,-0.3 2.07,0.59 0.89,1.47 1.47,2.95 2.36,4.43 0.3,-2.07 0.3,-3.83 0.3,-5.61 -0.3,-1.48 -0.59,-2.95 -1.18,-4.13 -1.18,-2.36 -2.65,-5.02 -3.83,-7.38 -0.59,-0.89 -0.89,-1.77 0.3,-2.36 1.18,-0.89 1.77,0.3 2.36,0.89 0.59,1.48 1.48,2.66 2.07,4.13 0.3,-1.18 0.3,-2.36 0.3,-3.54 0,-1.18 0.3,-2.36 1.48,-2.36 1.48,0.3 1.48,1.18 1.48,2.07 0,1.77 0,3.25 0,5.02 0,1.18 0,2.65 0,4.13 1.18,-1.48 2.07,-2.95 2.65,-4.13 0.59,-1.18 1.18,-1.48 2.36,-1.18 0.89,0.59 0.89,1.47 0.3,2.36 -0.89,2.07 -1.77,3.84 -2.95,5.61 -2.07,2.95 -2.65,6.2 -2.07,10.04l0 0zm-13.58 12.1l0 0c-0.3,0 -0.3,-0.3 -0.59,-0.3 -6.79,-2.36 -11.22,-10.63 -7.38,-18 0,-0.3 0,-0.89 -0.3,-1.18 -2.07,-2.66 -4.43,-5.31 -6.79,-7.97 -0.59,0.89 -1.18,1.18 -1.18,1.77 -0.3,2.07 -0.3,2.07 -2.36,2.07 -1.48,0 -2.66,0 -4.43,0 1.77,3.24 3.54,5.9 5.31,8.56 0.59,1.18 2.07,2.07 1.18,3.54 -0.59,1.47 -2.36,0.59 -3.54,0.89 -0.89,0 -1.77,0 -2.95,0 2.07,3.54 4.13,6.49 6.2,9.74 1.18,2.07 0.59,2.95 -1.77,2.95 -2.36,0 -5.02,0 -7.38,0 -1.18,0 -2.36,0 -3.54,0 1.18,4.72 7.97,9.44 12.99,8.56 0,-1.18 0,-2.66 0,-4.13 0,-0.89 0,-2.07 1.48,-2.07 1.18,0 1.47,1.18 1.47,2.07 0,1.48 0,2.95 0,4.43 6.5,0.3 12.69,-4.72 13.58,-10.92l0 -0zm7.68 0.59l0 0c-1.48,0 -2.66,0 -4.13,0 -0.3,0.3 -0.89,0.59 -0.89,0.89 -1.48,6.79 -6.2,10.33 -12.4,11.81 -1.48,0.3 -2.95,0.3 -3.54,1.18 -0.88,0.59 -0.29,2.36 -0.29,3.54 0,2.06 0,4.13 0,5.9 7.08,0 14.17,0 21.25,0 0,-7.67 0,-15.35 0,-23.32zm-24.2 23.61l0 0c0,-3.25 0,-6.2 0,-9.15 0,-0.89 -0.3,-1.18 -1.48,-1.48 -4.43,-0.59 -8.56,-2.07 -11.51,-5.61 -0.59,-0.59 -0.89,-1.18 -1.48,-1.77 0,5.9 0,11.81 0,18 4.72,0 9.44,0 14.46,0l0 0zm-24.5 -21.84l0 0c0,7.38 0,14.46 0,21.55 2.36,0 4.43,0 6.79,0 0,-7.09 0,-14.46 0,-21.55 -2.36,0 -4.43,0 -6.79,0zm51.95 -1.48l0 0c0,7.67 0,15.35 0,23.32 0.59,0 1.18,0 1.77,0 0,-7.97 0,-15.65 0,-23.32 -0.59,0 -1.18,0 -1.77,0z"/>
    <path id="_1" class="fil1" d="M114.5 110.66l0 0.59 0 0 -0.59 0 -0.3 0 -0.29 0 -0.59 0 -0.3 0 -0.59 0 -0.3 0 -0.59 0 -0.3 0 -0.59 0 -0.3 0 -0.59 0 -0.3 0 -0.3 0 -0.59 0 -0.3 0 -0.59 0 -0.3 0 -0.59 0 -0.3 0 -0.59 0 -0.3 0 -0.59 0 -0.3 0 -0.59 0 -0.3 0 -0.59 0 -0.3 0 -0.59 0 -0.3 0 -0.59 0 -0.3 0 0 -0.59 0.3 0 0.59 0 0.3 0 0.59 0 0.3 0 0.59 0 0.3 0 0.59 0 0.3 0 0.59 0 0.3 0 0.59 0 0.3 0 0.59 0 0.3 0 0.59 0 0.3 0 0.59 0 0.3 0 0.3 0 0.59 0 0.3 0 0.59 0 0.3 0 0.59 0 0.3 0 0.59 0 0.3 0 0.59 0 0.29 0 0.3 0 0.59 0 0 0zm2.95 1.77l-0.59 0 0 0 0 -0.3 0 0 0 -0.3 0 0 0 0 0 -0.3 0 0 0 0 -0.3 0 0 0 0 -0.3 0 0 0 0 -0.3 0 0 0 0 0 -0.3 0 0 0 0 0 -0.3 0 0 0 0 0 -0.3 0 0 0 0 0 -0.29 0 0 0 -0.3 0 0 0 0 0 -0.3 0 0 0 0 -0.59 0 0 0.3 0 0 0 0 0 0.3 0 0 0 0.29 0 0 0 0 0 0.3 0 0 0 0.3 0 0 0 0 0 0.3 0 0 0 0.3 0 0 0.3 0 0 0.3 0 0 0 0 0 0.3 0.3 0 0 0 0 0 0.3 0 0 0.3 0.3 0 0 0 0 0 0.29 0 0.3 0 0 0 0zm-2.95 1.47l0 -0.3 0 0 0 0 0.3 0 0 0 0 0 0.3 0 0 0 0.3 0 0 0 0 0 0.3 0 0 0 0 0 0.3 0 0 0 0 0 0.3 0 0 0 0 -0.29 0.3 0 0 0 0 0 0 0 0 0 0.3 0 0 -0.3 0 0 0 0 0 -0.3 0 0 0 0 0 -0.3 0 0 0.59 0 0 0 0 0.3 0 0 0 0.3 -0.3 0 0 0.3 0 0 0 0 0 0.29 -0.3 0 0 0 0 0 -0.3 0.3 0 0 0 0 -0.3 0 0 0 -0.3 0 0 0 0 0 -0.3 0 0 0 -0.3 0 0 0 -0.29 0 0 0 0 0 -0.3 0 0 0 -0.3 0 0 0 0 0 0 0 -0 0zm-40.73 0l0 -0.3 0 0 1.18 0 1.18 0 1.48 0 1.18 0 1.18 0 1.48 0 1.18 0 1.18 0 1.48 0 1.18 0 1.18 0 1.48 0 1.18 0 1.18 0 1.18 0 1.48 0 1.18 0 1.18 0 1.48 0 1.18 0 1.18 0 1.48 0 1.18 0 1.18 0 1.48 0 1.18 0 1.18 0 1.18 0 1.47 0 1.18 0 1.18 0 1.48 0 0 0.3 -1.48 0 -1.18 0 -1.18 0 -1.47 0 -1.18 0 -1.18 0 -1.18 0 -1.48 0 -1.18 0 -1.18 0 -1.48 0 -1.18 0 -1.18 0 -1.48 0 -1.18 0 -1.18 0 -1.48 0 -1.18 0 -1.18 0 -1.18 0 -1.48 0 -1.18 0 -1.18 0 -1.48 0 -1.18 0 -1.18 0 -1.48 0 -1.18 0 -1.18 0 -1.48 0 -1.18 0 -1.18 0 0 0zm-13.28 0l0 -0.3 0 0 0.59 0 0.3 0 0.59 0 0.3 0 0.3 0 0.59 0 0.3 0 0.59 0 0.3 0 0.29 0 0.59 0 0.29 0 0.3 0 0.59 0 0.3 0 0.59 0 0.3 0 0.3 0 0.59 0 0.3 0 0.59 0 0.3 0 0.3 0 0.59 0 0.3 0 0.3 0 0.59 0 0.3 0 0.59 0 0.3 0 0.3 0 0.59 0 0 0.3 -0.59 0 -0.3 0 -0.3 0 -0.59 0 -0.3 0 -0.59 0 -0.3 0 -0.3 0 -0.59 0 -0.3 0 -0.3 0 -0.59 0 -0.3 0 -0.59 0 -0.3 0 -0.3 0 -0.59 0 -0.3 0 -0.59 0 -0.3 0 -0.29 0 -0.59 0 -0.29 0 -0.3 0 -0.59 0 -0.3 0 -0.59 0 -0.3 0 -0.3 0 -0.59 0 -0.3 0 -0.59 0 0 0zm-16.24 0.3l0 -0.59 0 0 0.3 0 0.59 0 0.59 0 0.59 0 0.3 0 0.59 0 0.59 0 0.3 0 0.59 0 0.59 0 0.59 0 0.29 0 0.59 0 0.59 0 0.59 0 0.3 0 0.59 0 0.59 0 0.59 0 0.3 0 0.59 0 0.59 0 0.59 0 0.3 0 0.59 0 0.59 0 0.59 0 0.3 0 0.59 0 0.59 0 0.59 0 0.3 0 0 0.3 -0.3 0 -0.59 0 -0.59 0 -0.59 0 -0.3 0 -0.59 0 -0.59 0 -0.59 0.3 -0.3 0 -0.59 0 -0.59 0 -0.59 0 -0.3 0 -0.59 0 -0.59 0 -0.59 0 -0.3 0 -0.59 0 -0.59 0 -0.59 0 -0.29 0 -0.59 0 -0.59 0 -0.3 0 -0.59 0 -0.59 0 -0.59 0 -0.3 0 -0.59 0 -0.59 0 -0.59 0 -0.3 0 0 0 0 0zm-19.19 -0.3l0 -0.3 0 0 0.59 0 0.59 0 0.59 0 0.59 0 0.59 0 0.59 0 0.59 0 0.59 0 0.59 0 0.59 0 0.59 0 0.59 0 0.59 0 0.59 0 0.59 0 0.59 0 0.59 0 0.59 0 0.59 0 0.59 0 0.59 0 0.59 0 0.59 0 0.59 0 0.59 0 0.59 0 0.59 0 0.59 0 0.59 0 0.59 0 0.89 0 0.59 0 0 0.59 -0.59 0 -0.89 0 -0.59 0 -0.59 0 -0.59 0 -0.59 0 -0.59 0 -0.59 0 -0.59 0 -0.59 0 -0.59 0 -0.59 0 -0.59 0 -0.59 0 -0.59 0 -0.59 0 -0.59 0 -0.59 0 -0.59 0 -0.59 0 -0.59 0 -0.59 0 -0.59 0 -0.59 0 -0.59 -0.3 -0.59 0 -0.59 0 -0.59 0 -0.59 0 -0.59 0 -0.59 0 -0.59 0 0 0 0 -0zm-2.36 -1.47l0.3 0 0 0 0 0 0 0.3 0 0 0 0 0.3 0 0 0.29 0 0 0 0 0 0 0 0 0 0.3 0 0 0.3 0 0 0 0 0 0 0 0 0 0.3 0 0 0 0 0.3 0 0 0.3 0 0 0 0 0 0.3 0 0 0 0 0 0 0 0.3 0 0 0 0 0 0.29 0 0 0.3 -0.29 0 0 0 0 0 -0.3 0 0 0 0 0 -0.3 0 0 0 0 0 -0.3 0 0 0 0 0 -0.3 0 0 0 0 0 0 0 -0.3 -0.3 0 0 0 0 -0.3 0 0 0 0 -0.3 0 0 0 0 -0.3 0 0 -0.3 0 0 0 0 0 -0.29 0 0 0 -0.3 0 0 0 0zm0.3 0l0 0 0 0 0 0zm2.07 -1.77l0 0.59 0 0 0 0 -0.3 0 0 0 0 0 -0.3 0 0 0 0 0 -0.3 0 0 0 0 0 -0.29 0 0 0 0 0 0 0 -0.3 0 0 0 0 0 0 0.3 0 0 -0.3 0 0 0 0 0 0 0 0 0.3 0 0 0 0 -0.3 0 0 0.29 0 0 0 0 0 0.3 0 0 -0.3 0 0 0 0 -0.3 0 0 0 -0.29 0 0 0 0 0 -0.3 0 0 0.3 0 0 -0.3 0 0 0 0 0.3 0 0 -0.3 0 0 0 0 0.3 0 0 0 0 0 0.3 0 0 -0.3 0 0 0.29 0 0 0 0 0 0.3 0 0 0 0 0 0.3 0 0 0 0.3 0 0 0 0 0 0 0zm13.58 0l0 0.59 0 0 -0.3 0 -0.59 0 -0.3 0 -0.3 0 -0.59 0 -0.3 0 -0.59 0 -0.3 0 -0.59 0 -0.3 0 -0.59 0 -0.3 0 -0.3 0 -0.59 0 -0.3 0 -0.59 0 -0.3 0 -0.59 0 -0.3 0 -0.59 0 -0.3 0 -0.59 0 -0.3 0 -0.3 0 -0.59 0 -0.3 0 -0.59 0 -0.3 0 -0.59 0 -0.3 0 -0.59 0 -0.3 0 0 -0.59 0.3 0 0.59 0 0.3 0 0.59 0 0.3 0 0.59 0 0.3 0 0.59 0 0.3 0 0.3 0 0.59 0 0.3 0 0.59 0 0.3 0 0.59 0 0.3 0 0.59 0 0.3 0 0.59 0 0.3 0 0.3 0 0.59 0 0.3 0 0.59 0 0.3 0 0.59 0 0.3 0 0.59 0 0.3 0 0.3 0 0.59 0 0.3 0 0 0zm1.77 0.3l0.3 0 0 0.3 -0.3 0 0 0 0 0 0 0 -0.3 0 0 0 0 0 0 0 0 0 -0.3 0 0 0 0 0 0 0 0 0 -0.3 0 0 0 0 0 0 0 0 0 0 0 -0.3 0 0 0 0 0 0 0 0 0 -0.3 0 0 0 0 0 0 0 0 0 0 0 -0.3 0 0 -0.59 0.3 0 0 0 0 0 0 0 0 0 0 0 0.3 0 0 0 0 0 0 0 0 0 0.3 0 0 0 0 0 0 0 0 0 0 0 0.3 0 0 0 0 0 0 0 0 0 0.3 0 0 0 0 0 0 0 0 0 0.3 0 0 0 0 0 0 0 0.3 0 -0.3 0.3 0 0zm0.3 0l0 0.3 0 0 0 -0.3zm-0.3 -1.48l0.59 0 0 0 0 0 0 0 0 0 0 0 0 0 0 0.3 0 0 0 0 0 0 0 0 0 0 0 0 0 0.3 0 0 0 0 0 0 0 0 -0.3 0 0 0.29 0 0 0 0 0 0 0 0 0 0 0 0.3 0 0 0 0 0 0 0 0 0 0 0 0.3 0 0 -0.3 0 0 0 0 -0.3 0 0 0 0 0 0 0 0 0 -0.3 0 0 0 0 0 0 0 0 0 0 0 -0.29 0 0 0 0 0 0 0 0 0 0 0 0 0 -0.3 0 0 0 0 0 0 0 0 0 0 0 -0.3 0 0 0 0 0 0 0 0 0 0 0 0 0 0 0 0zm0 -18.89l0.59 0 0 0 0 0.59 0 0.59 0 0.59 0 0.59 0 0.59 0 0.59 0 0.59 0 0.59 0 0.59 0 0.59 0 0.59 0 0.59 0 0.59 0 0.59 0 0.59 0 0.59 0 0.59 0 0.59 0 0.59 0 0.59 0 0.59 0 0.59 0 0.59 0 0.59 0 0.59 0 0.59 0 0.59 0 0.59 0 0.59 0 0.59 0 0.59 0 0.59 -0.59 0 0 -0.59 0 -0.59 0 -0.59 0 -0.59 0 -0.59 0 -0.59 0 -0.59 0 -0.59 0 -0.59 0 -0.59 0 -0.59 0 -0.59 0 -0.59 0 -0.59 0 -0.59 0 -0.59 0 -0.59 0 -0.59 0 -0.59 0 -0.59 0 -0.59 0 -0.59 0 -0.59 0 -0.59 0 -0.59 0 -0.59 0 -0.59 0 -0.59 0 -0.59 0 -0.59 0 -0.59 0 -0.59 0 0zm-1.48 -1.48l0 -0.59 0 0 0 0 0.3 0 0 0 0.29 0 0 0 0 0.3 0.3 0 0 0 0 0 0.3 0 0 0 0 0 0 0 0.3 0 0 0 0 0.3 0 0 0.3 0 0 0 0 0.29 0 0 0 0 0 0 0 0.3 0 0 0.3 0 0 0.3 0 0 0 0.3 0 0 0 0 0 0.3 -0.59 0 0 -0.3 0 0 0 0 0 -0.3 0 0 0 0 0 -0.3 0 0 0 0 0 0 0 -0.3 0 0 -0.3 0 0 0 0 0 0 0 0 0 0 0 0 -0.29 0 0 -0.3 0 0 0 0 0 0 0 -0.3 0 0 0 0 0 -0.3 0 0 0 0 0 -0.3 0 0 0 0 0 0 0zm-14.17 0l0 -0.59 0 0 0.59 0 0.3 0 0.59 0 0.3 0 0.59 0 0.3 0 0.59 0 0.3 0.3 0.59 0 0.3 0 0.59 0 0.3 0 0.59 0 0.3 0 0.59 0 0.3 0 0.59 0 0.3 0 0.59 0 0.3 0 0.59 0 0.3 0 0.59 0 0.3 0 0.59 0 0.3 0 0.59 -0.3 0.3 0 0.59 0 0.3 0 0.3 0 0.59 0 0 0.59 -0.3 0 -0.59 0 -0.3 0 -0.59 0 -0.3 0 -0.59 0 -0.3 0 -0.59 0 -0.3 0 -0.59 0 -0.3 0 -0.59 0 -0.3 0 -0.59 0 -0.3 0 -0.59 0 -0.3 0 -0.59 0 -0.3 0 -0.59 0 -0.3 0 -0.59 0 -0.3 0 -0.59 0 -0.3 0 -0.59 0 -0.3 0 -0.59 0 -0.3 0 -0.59 0 -0.3 0 -0.59 0 0 0zm-2.36 -0.89l0.3 -0.3 0 0 0.3 0 0 0 0 0 0 0 0 0.3 0 0 0 0 0 0 0.3 0 0 0 0 0 0 0 0.3 0 0 0.3 0 0 0 0 0 0 0.3 0 0 0 0 0 0.3 0 0 0 0 0 0 0 0.3 0 0 0 0 0 0 0 0.3 0 0 0 0 0 0 0 0 0.59 0 0 0 0 0 0 -0.3 0 0 0 0 0 -0.3 0 0 0 0 0 0 0 -0.3 -0.3 0 0 0 0 -0.3 0 0 0 0 0 -0.3 0 0 0 0 0 0 0 -0.3 0 0 -0.3 0 0 0 0 -0.3 0 0 0 0 0 0 0 0 -0.3 -0.3 0 0 0 0 0 0 0 0 0zm0.3 -0.3l0 0 0 0 0 0zm0.3 -2.36l0.3 0.3 0 0 0 0 0 0 0 0.3 0 0 -0.3 0 0 0 0 0.3 0 0 0 0 0 0 0 0.3 0 0 0 0 0 0 -0.3 0.3 0 0 0 0 0 0 0 0.3 0 0 0 0 0 0 0 0.29 0 0 0 0 0 0 0 0 0 0.3 0 0 0 0 0 0 0 0 -0.3 0.3 0 0 0 -0.3 0 0 0 0 0 0 0 -0.3 0 0 0 0 0 0 0 -0.29 0 0 0 0 0 -0.3 0 0 0 0 0 0 0 -0.3 0 0 0 0 0 -0.3 0 0 0 0 0.3 0 0 -0.3 0 0 0 0 0 0 0 -0.3 0 0 0 0 0.3 0 0 -0.3 0 0zm5.02 -8.26l0.59 0.3 0 0 -0.3 0.3 0 0.3 -0.3 0 0 0.3 -0.3 0.3 -0.3 0.29 0 0.3 -0.29 0.3 0 0.3 -0.3 0.3 0 0 -0.3 0.3 -0.3 0.3 0 0.3 -0.3 0.3 0 0.3 -0.3 0.29 0 0.3 -0.3 0.3 0 0 -0.3 0.3 -0.3 0.3 0 0.3 -0.3 0.3 0 0.3 -0.29 0.3 0 0.29 -0.3 0 0 0.3 -0.3 0.3 0 0.3 -0.3 0.3 -0.3 -0.3 0 -0.3 0.3 0 0 -0.3 0.3 -0.3 0 -0.29 0.3 -0.3 0 -0.3 0.3 -0.3 0.29 -0.3 0 -0.3 0.3 0 0 -0.3 0.3 -0.3 0 -0.3 0.3 -0.29 0 -0.3 0.3 -0.3 0.3 -0.3 0 -0.3 0.3 0 0 -0.3 0.3 -0.3 0 -0.3 0.3 -0.3 0.3 -0.3 0 -0.29 0.29 -0.3 0 0 0.3 -0.3 0 -0.3 0.3 -0.3 0 -0.3 0 0 0 0zm1.18 -0.89l0 -0.59 0 0.3 0 0 0 0.3 0 0 0 0 0 0 0 0 0 0 0 0.3 0 0 -0.3 0 0 0 0 0 0 0 0 0 0 0.3 0 0 0 0 0 0 0 0 0 0 0 0 -0.3 0.3 0 0 0 0 0 0 0 0 0 0 0 0 0 0 0 0.29 0 0 0 0 -0.59 -0.29 0.3 0 0 0 0 0 0 0 0 -0.3 0 0 0 0 0 0 0 0 0 0 0 0 0 0 0 -0.3 0 0 0.3 0 0 0 0 0 0 0 0 0 0 -0.3 0 0 0 0 0 0 0 0 0 0 0 0 0.3 -0.3 0 0 0 0 0 0 0 0 0 -0.3 0.29 0.59 0 0zm0 -0.59l0.3 0 -0.3 0.3 0 -0.3zm-4.43 0.3l0 -0.3 0 0 0.3 0 0 0 0.3 0 0 0 0 0 0.3 0 0 0 0.3 0 0 0 0.3 0 0 0 0 0 0.3 0 0 0 0.29 0 0 0 0.3 0 0 0 0.3 0 0 0 0 0 0.3 0 0 0 0.3 0 0 0 0.3 0 0 0 0.3 0 0 0 0.3 0 0 0 0.3 0 0 0.59 -0.3 0 0 0 -0.3 0 0 0 -0.3 0 0 0 -0.3 0 0 0 -0.3 0 0 0 -0.3 0 0 0 0 0 -0.3 0 0 0 -0.3 0 0 0 -0.29 0 0 0 -0.3 0 0 0 0 0 -0.3 0 0 0 -0.3 0 0 0 -0.3 0 0 0 -0.3 0 0 0 0 -0.29 -0.3 0 0 0 0 -0zm-2.36 -0.89l0.3 0 0 0 0 0 0.3 0 0 0 0 0 0 0 0 0 0 0 0 0 0 0.3 0.3 0 0 0 0 0 0 0 0.3 0 0 0 0 0 0 0 0.3 0 0 0 0 0 0 0.3 0.3 0 0 0 0 0 0 0 0.3 0 0 0 0 0 0.3 0 0 0 0 0 0 0 0 0.3 0 0 0 0 -0.3 0 0 0 0 0 -0.3 0 0 0 0 0 0 0 -0.3 0 0 0 0 0 -0.3 0 0 0 0 0 0 0 -0.3 -0.3 0 0 0 0 -0.3 0 0 0 0 0 0 0 -0.3 0 0 0 0 -0.3 0 0 0 0 -0.3 0 0 0 0 -0.3 0 0 0 0zm0.59 -2.36l0.3 0.29 0 0 0 0 0 0 0 0 0 0 -0.3 0.3 0 0 0 0 0 0 0 0.3 0 0 0 0 0 0 0 0.3 0 0 0 0 -0.3 0 0 0.3 0 0 0 0 0 0 0 0.3 0 0 0 0 0 0 0 0 0 0.3 0 0 0 0 0 0 0 0 0 0 0 0.3 -0.3 0 0 0 0 0 0 0 0 -0.3 0 0 0 0 0 0 0 -0.3 0 0 0 0 0 -0.3 0 0 0 0 0 0 0 -0.3 0 0 0 0 0 -0.3 0 0 0 0 0 0 0.3 -0.3 0 0 0 0 0 0 0 -0.3 0 0 0 0 0 -0.29 0 0 0.3 0 0 0 0 0zm5.02 -8.27l0.3 0.3 0 0 0 0.3 -0.3 0 0 0.3 -0.3 0.3 0 0.3 -0.3 0.3 0 0.29 -0.3 0.3 0 0.3 -0.3 0 -0.3 0.3 0 0.3 -0.29 0.3 0 0.3 -0.3 0.3 0 0.3 -0.3 0 0 0.29 -0.3 0.3 -0.3 0.3 0 0.3 -0.3 0.3 0 0.3 -0.3 0.3 0 0 -0.3 0.3 0 0.3 -0.3 0.3 0 0.29 -0.3 0.3 0 0.3 -0.29 0.3 -0.3 -0.3 0 -0.3 0.3 -0.3 0 -0.29 0.29 -0.3 0 -0.3 0.3 0 0 -0.3 0.3 -0.3 0.3 -0.3 0 -0.3 0.3 -0.3 0 -0.3 0.3 -0.3 0 0 0.3 -0.29 0 -0.3 0.3 -0.3 0 -0.3 0.3 -0.3 0.3 -0.3 0 -0.3 0.29 0 0 -0.3 0.3 -0.3 0 -0.29 0.3 -0.3 0 -0.3 0.3 -0.3 0.3 0 0 -0.3 0.3 -0.3 0 -0.3 0 0zm0 0l0 0 0 0 0 0zm1.18 -1.18l0 -0.59 0.3 0.3 -0.3 0.3 0 0 0 0 0 0 0 0.3 0 0 0 0 0 0 0 0 -0.3 0 0 0.3 0 0 0 0 0 0 0 0 0 0 0 0.3 0 0 0 0 -0.3 0 0 0 0 0 0 0 0 0.3 0 0 0 0 0 0 0 0 0 0 0 0 0 0.29 -0.3 0 -0.3 -0.29 0 0 0 0 0 0 0.3 -0.3 0 0 0 0 0 0 0 0 0 0 0 0 0 -0.3 0 0 0 0 0 0 0 0 0.3 0 0 0 0 -0.3 0 0 0 0 0 0 0 0 0 0 0 -0.3 0 0 0.3 0 0 0 0 0 0 -0.3 0 0 0 0 0 0 0.3 0.3 0 0zm0 -0.59l0.3 0 0 0.29 -0.3 -0.29zm-4.72 0.59l0 -0.59 0 0 0.3 0 0 0 0.3 0 0 0 0 0 0.3 0 0 0 0.3 0 0 0 0.29 0 0 0 0.3 0 0 0 0.3 0 0 0 0.3 0 0 0 0.3 0 0 0 0.3 0 0 0 0.3 0 0 0 0.3 0 0 0 0.3 0 0 0 0.3 0 0 0 0.29 0 0 0 0.3 0 0 0.59 -0.3 0 0 0 -0.29 0 0 0 -0.3 0 0 0 -0.3 0 0 0 -0.3 0 0 0 -0.3 0 0 0 -0.3 0 0 0 -0.3 0 0 0 -0.3 0 0 0 -0.3 0 0 0 -0.3 0 0 0 -0.29 0 0 0 -0.3 0 0 0 -0.3 0 0 0 0 0 -0.3 0 0 0 -0.3 0 0 0zm-1.77 -3.24l0.3 0.29 0 0 0 0 0 0.3 0 0 -0.3 0.3 0 0 0 0.3 0 0 0 0.3 0 0 0 0 0 0.3 0 0 0 0 0 0.3 0 0 0 0 0 0 0 0.3 0 0 0.3 0 0 0 0 0 0.3 0.3 0 0 0 0 0.3 0 0 0 0.3 0 0 0 0.3 0 0.3 0 0 0 0 0.59 -0.3 0 0 0 -0.3 0 0 0 -0.3 0 -0.3 -0.3 0 0 -0.3 0 0 0 -0.3 0 0 -0.3 0 0 -0.3 0 0 0 0 -0.3 0 0 -0.29 0 0 -0.3 0 0 0 -0.3 0 0 0 -0.3 0 0 0 -0.3 0 0 0 -0.29 0.29 0 0 -0.3 0 0 0 -0.3 0.3 0 0 -0.3 0 0 0 0zm19.48 -30.7l0.3 0.3 0 0 -0.59 0.89 -0.59 1.18 -0.59 0.89 -0.59 0.89 -0.59 0.89 -0.59 1.18 -0.59 0.89 -0.59 0.89 -0.59 0.89 -0.88 1.18 -0.59 0.89 -0.59 0.89 -0.59 0.89 -0.59 0.89 -0.59 1.18 -0.59 0.89 -0.59 0.89 -0.59 0.89 -0.59 1.18 -0.59 0.89 -0.59 0.89 -0.59 0.89 -0.59 1.18 -0.59 0.89 -0.59 0.89 -0.59 0.89 -0.59 1.18 -0.59 0.89 -0.59 0.89 -0.59 0.89 -0.59 1.18 -0.89 0.89 -0.3 -0.3 0.59 -0.89 0.59 -0.89 0.59 -1.18 0.59 -0.89 0.59 -0.89 0.59 -0.89 0.59 -1.18 0.89 -0.89 0.59 -0.89 0.59 -0.88 0.59 -1.18 0.59 -0.89 0.59 -0.89 0.59 -0.89 0.59 -1.18 0.59 -0.89 0.59 -0.89 0.59 -0.89 0.59 -1.18 0.59 -0.89 0.59 -0.89 0.59 -0.89 0.59 -1.18 0.59 -0.89 0.59 -0.89 0.59 -0.89 0.59 -0.89 0.59 -1.18 0.89 -0.89 0.59 -0.88 0.59 -0.89 0.59 -1.18 0 0zm0 0l0 0 0 0 0 0zm1.18 -2.07l0.3 0.3 0 0 0 0 0 0.3 0 0 0 0 0 0 0 0 -0.3 0.3 0 0 0 0 0 0 0 0.29 0 0 0 0 -0.3 0 0 0 0 0.3 0 0 0 0 0 0 0 0.3 -0.3 0 0 0 0 0 0 0 0 0.3 0 0 0 0 0 0 -0.29 0 0 0.3 0 0 0 0 -0.3 -0.3 0 0 0 0 0 0 0 -0.3 0 0 0 0 0.3 0 0 0 0 -0.3 0 0 0 0 0 0 0 0 0.29 -0.3 0 0 0 0 0 0 0 -0.29 0 0 0 0 0.3 0 0 0 0 -0.3 0 0 0 0 0 0 0 -0.3 0.3 0 0 0 0 0 0 0 0 -0.3 0 0zm4.13 0l-0.59 0.3 0 0 0 -0.3 0 0 -0.3 -0.3 0 0 -0.3 -0.3 0 0 0 0 -0.3 -0.3 0 0 0 0 -0.3 -0.3 0 0 0 0 -0.3 0 0 0 0 0 0 0 -0.3 0 0 0 0 0 -0.29 0.3 0 0 0 0 -0.3 0 0 0.3 0 0 -0.3 0 0 0.3 0 0 -0.3 0.3 0 0.3 -0.3 0 -0.3 -0.3 0 0 0.3 -0.3 0 0 0.3 -0.3 0 -0.3 0.3 0 0 0 0 -0.3 0.3 0 0 0 0.3 -0.3 0 0 0.29 0 0 0 0 0 0.3 0 0 0 0.3 0 0 0 0.3 0 0 0 0.3 0 0 0.3 0 0 0.3 0 0 0.3 0.3 0 0 0.3 0 0 0.3 0.3 0 0.3 0.3 0 0 0 0 0zm11.81 18.89l-0.3 0.3 0 0 -0.59 -0.59 -0.3 -0.59 -0.3 -0.59 -0.3 -0.59 -0.59 -0.59 -0.3 -0.59 -0.3 -0.59 -0.3 -0.59 -0.59 -0.59 -0.3 -0.59 -0.29 -0.59 -0.3 -0.59 -0.59 -0.59 -0.3 -0.59 -0.3 -0.59 -0.3 -0.59 -0.59 -0.59 -0.3 -0.59 -0.3 -0.59 -0.3 -0.59 -0.59 -0.59 -0.3 -0.59 -0.3 -0.59 -0.59 -0.59 -0.3 -0.59 -0.3 -0.59 -0.29 -0.59 -0.59 -0.59 -0.29 -0.59 -0.3 -0.59 -0.3 -0.59 -0.59 -0.59 0.59 -0.3 0.3 0.59 0.3 0.59 0.29 0.59 0.59 0.59 0.29 0.59 0.3 0.59 0.59 0.59 0.3 0.59 0.3 0.59 0.3 0.59 0.59 0.59 0.3 0.59 0.3 0.59 0.3 0.59 0.59 0.59 0.3 0.59 0.3 0.59 0.3 0.59 0.59 0.59 0.3 0.59 0.29 0.59 0.3 0.59 0.59 0.59 0.3 0.59 0.3 0.59 0.3 0.59 0.59 0.59 0.3 0.59 0.3 0.59 0.59 0.59 0.3 0.59 0.3 0.59 0 0zm7.08 11.81l0.3 0.3 -0.3 -0.3 -0.3 -0.3 -0.3 -0.3 0 -0.3 -0.3 -0.59 -0.29 -0.3 -0.3 -0.3 -0.3 -0.3 0 -0.59 -0.3 -0.3 -0.3 -0.3 -0.3 -0.29 -0.3 -0.59 0 -0.29 -0.3 -0.3 -0.3 -0.3 -0.3 -0.59 -0.29 -0.3 0 -0.3 -0.3 -0.3 -0.3 -0.3 -0.3 -0.59 0 -0.3 -0.3 -0.3 -0.3 -0.3 -0.3 -0.59 -0.3 -0.3 0 -0.3 -0.3 -0.29 -0.29 -0.59 -0.3 -0.29 0 -0.3 -0.3 -0.3 0.3 -0.3 0.3 0.3 0.29 0.3 0 0.59 0.3 0.3 0.3 0.3 0.3 0.29 0.3 0.59 0 0.29 0.3 0.3 0.3 0.3 0.3 0.3 0 0.59 0.3 0.3 0.29 0.3 0.3 0.3 0.3 0.59 0 0.3 0.3 0.3 0.3 0.3 0.3 0.59 0 0.3 0.3 0.3 0.3 0.29 0.3 0.59 0.3 0.3 0 0.3 0.29 0.3 0.3 0.59 0.3 0.3 0.3 0.3 0 0.3 0.3 0.59 -0.3 0 0 0zm0.3 0.3l-0.3 0 0 -0.3 0.3 0.3zm0.59 -1.18l0.3 0.3 0 0 0 0 0 0 0 0 0 0 0 0.3 0 0 0 0 -0.3 0 0 0 0 0 0 0 0 0 0 0 0 0 0 0 0 0 0 0 0 0.3 -0.3 0 0 0 0 0 0 0 0 0 0 0 0 0 0 0 0 0 0 0 -0.3 0 0 0 0 0.3 0 0 -0.3 -0.3 0 -0.3 0 0 0 0 0.3 0 0 0 0 0 0 0 0 0 0 0 0 0 0 0 0 0 0 -0.3 0.3 0 0 0 0 0 0 0 0 0 0 0 0 0 0 0 0 0 0 0 0 0 0 0 0.3 0 0 -0.3 0 0 0 0 0 0 0 0 0 0 0 0zm4.43 0l-0.3 0.3 0 0 -0.3 0 0 -0.3 -0.3 -0.3 0 0 -0.3 0 0 -0.3 -0.3 0 0 0 0 -0.3 -0.3 0 0 0 0 0 -0.3 0 0 0 0 0 0 0 -0.29 0 0 0 0 0 -0.3 0 0 0 0 0 -0.3 0 0 0.3 0 0 -0.3 0 0 0.3 -0.3 0 0 0.3 -0.3 0 0 0.3 -0.3 0 -0.3 -0.3 0.3 0 0 -0.3 0.3 -0.3 0 0 0.3 0 0 -0.3 0.3 0 0 -0.3 0.3 0 0 0 0 0 0.3 -0.29 0 0 0.3 0 0 0 0.29 0 0 0 0 0 0.3 0 0 0 0.3 0.29 0 0 0 0 0.3 0 0 0.3 0.3 0 0 0.3 0.3 0 0 0 0.3 0.3 0 0 0.3 0.3 0 0zm4.43 5.02l0.3 0 -0.3 0.3 -0.3 -0.3 0 0 -0.3 -0.29 0 -0.3 -0.29 0 0 -0.3 -0.3 0 0 -0.3 -0.3 0 -0.3 -0.3 0 0 -0.3 -0.3 0 0 -0.3 -0.3 0 0 -0.3 -0.3 0 0 0 -0.3 -0.3 0 0 -0.3 -0.3 0 0 -0.29 -0.29 0 0 -0.3 -0.3 0 0 -0.3 -0.3 0 0 -0.3 -0.3 0 0 -0.3 -0.3 0 0 -0.3 0.3 -0.3 0 0.3 0.3 0 0 0.3 0.3 0 0 0.3 0.3 0 0 0.3 0.29 0 0 0.3 0.3 0 0 0.3 0.3 0 0 0.29 0.3 0 0 0.3 0.3 0 0 0.3 0.3 0 0 0.3 0.3 0 0 0.3 0.3 0 0 0.3 0.3 0 0 0.3 0.29 0 0 0.3 0.3 0 0 0.3 0.3 0.3 0 0 0.3 0.29 -0.3 0zm0.3 0l0 0.59 -0.3 -0.3 0.3 -0.3 0 -0zm0 -2.95l0.3 0 0 0 0 0 0 0 0 0.3 0 0 0 0 0 0.3 0 0 0 0 0 0.3 0 0 0 0 0 0 0 0.29 -0.3 0 0 0 0 0.3 0 0 0 0 0 0.3 0 0 0 0 0 0.3 0 0 0 0 0 0.3 0 0 0 0 0 0.3 0 0 0 0 0 0.3 0 0 -0.3 0 0 0 0 -0.3 0 0 0 0 0 -0.3 0 0 0 0 0 -0.3 0 0 0 0 0 -0.3 0 0 0 0 0 -0.3 0 0 0 0 0 -0.3 0 0 0 0 0 -0.29 0 0 0 0 0 -0.3 0 0 0 0 0 -0.3 0 0 0 0 0 0 0 -0.3 0.3 0 0 0 0 0zm5.02 -8.26l0.29 0.29 0 0 -0.29 0.3 -0.3 0.3 0 0 -0.3 0.3 -0.3 0.3 -0.3 0 0 0.3 -0.3 0.3 -0.3 0.3 0 0 -0.3 0.3 -0.3 0.29 0 0.3 -0.3 0 0 0.3 -0.29 0.3 -0.3 0.3 0 0.3 0 0.3 -0.3 0.3 0 0 -0.3 0.3 0 0.29 -0.3 0.3 0 0.3 0 0.3 -0.3 0.3 0 0.3 0 0.3 0 0.3 -0.3 0.3 0 0.3 -0.3 0 0 -0.3 0 -0.3 0 -0.3 0.3 -0.3 0 -0.3 0 -0.3 0.3 -0.3 0 -0.3 0 -0.3 0.3 -0.29 0 -0.3 0.3 -0.3 0 -0.3 0.3 -0.3 0 -0.3 0.3 -0.3 0 -0.3 0.3 0 0 -0.3 0.29 -0.29 0.3 -0.3 0 -0.3 0.3 0 0.3 -0.3 0 -0.3 0.3 -0.3 0.3 0 0.3 -0.3 0 -0.3 0.3 -0.3 0.3 0 0.3 -0.29 0 0zm0.3 0.29l0 0 0 0 0 0zm0.59 -1.77l0.3 0 0 0 0 0 0 0 0 0.3 0 0 0 0 0 0 0 0 0 0.3 0 0 0 0 0 0 0 0.29 0 0 0 0 -0.3 0 0 0 0 0.3 0 0 0 0 0 0 0 0 0 0.3 -0.29 0 0 0 0 0 0 0 0 0 0 0.3 -0.3 0 0 0 0 0 0 0 -0.3 -0.3 0 0 0 0 0 0 0.3 0 0 -0.3 0 0 0 0 0 0 0 0 0 0 0 -0.3 0.3 0 0 0 0 0 0 0 0 0 0 -0.29 0 0 0 0 0 0 0 0 0 0 0.29 -0.3 0 0 0 0 0 0 0 0 0 -0.3 0 0 0 0 0 0 0 0 0 0zm12.69 -12.4l0 0.3 0 0 -0.59 0.3 -0.59 0 -0.59 0 -0.59 0.3 -0.59 0 -0.3 0.3 -0.59 0.29 -0.59 0 -0.59 0.3 -0.59 0.3 -0.3 0.3 -0.59 0.3 -0.59 0.3 -0.29 0.59 -0.59 0.3 -0.3 0.3 -0.59 0.59 -0.3 0.3 -0.3 0.59 -0.3 0.3 -0.3 0.59 -0.59 0.59 -0.3 0.3 0 0.59 -0.3 0.59 -0.3 0.59 -0.3 0.3 0 0.59 -0.3 0.59 0 0.59 0 0.59 -0.29 0.59 -0.3 0 0 -0.59 0 -0.59 0.3 -0.59 0 -0.59 0.29 -0.59 0.3 -0.59 0 -0.59 0.3 -0.59 0.3 -0.3 0.3 -0.59 0.3 -0.59 0.3 -0.59 0.59 -0.3 0.3 -0.59 0.3 -0.3 0.59 -0.59 0.3 -0.3 0.59 -0.3 0.3 -0.59 0.59 -0.3 0.59 -0.3 0.59 -0.3 0.3 -0.3 0.59 -0.3 0.59 -0.3 0.59 -0.3 0.59 0 0.59 -0.29 0.59 0 0.59 -0.3 0.59 0 0.59 0 0 0 0 0zm15.35 10.63l-0.59 0 0 0 0 -0.59 -0.3 -0.59 0 -0.59 -0.3 -0.59 -0.3 -0.29 -0.3 -0.59 -0.3 -0.59 -0.3 -0.59 -0.3 -0.3 -0.29 -0.59 -0.3 -0.3 -0.59 -0.59 -0.3 -0.3 -0.59 -0.59 -0.3 -0.29 -0.59 -0.3 -0.59 -0.3 -0.3 -0.3 -0.59 -0.3 -0.59 -0.3 -0.59 -0.3 -0.59 -0.3 -0.59 0 -0.59 -0.3 -0.59 0 -0.59 -0.3 -0.59 0 -0.89 0 -0.59 -0.29 -0.59 0 -0.59 0 -0.89 0 0 -0.3 0.89 0 0.59 0 0.59 0 0.89 0 0.59 0 0.59 0.3 0.59 0 0.59 0.29 0.59 0 0.89 0.3 0.59 0.3 0.59 0.3 0.3 0.3 0.59 0.3 0.59 0.3 0.59 0.3 0.59 0.3 0.29 0.3 0.59 0.59 0.29 0.29 0.59 0.59 0.29 0.29 0.3 0.59 0.59 0.59 0.3 0.3 0.3 0.59 0.3 0.59 0 0.59 0.3 0.59 0.3 0.59 0 0.59 0.3 0.59 0 0 0 0zm2.36 4.43l-0.3 0.3 0 0 0 0 -0.3 -0.3 0 0 -0.3 0 0 -0.3 0 0 -0.3 -0.29 0 0 -0.3 -0.3 0 0 0 -0.3 -0.3 0 0 -0.3 0 0 0 -0.3 -0.3 0 0 -0.3 0 0 0 -0.3 -0.3 0 0 -0.3 0 0 0 -0.3 0 0 -0.3 -0.29 0 0 0 -0.3 0 0 0 -0.3 0 -0.3 -0.29 0 0 -0.3 0.59 0 0 0.3 0 0 0 0.3 0 0 0.3 0.3 0 0 0 0.3 0 0 0 0.29 0 0 0.29 0.3 0 0 0 0.3 0 0 0 0.3 0.3 0 0 0.3 0 0 0 0.3 0.3 0 0 0 0 0.3 0.3 0 0 0.3 0 0 0.3 0.3 0 0 0.3 0.29 0 0 0 0 0.3 0.3 0 0 0 0 0 0zm3.54 13.58l-0.59 -0.3 0 0 0.3 -0.3 0 -0.59 0.3 -0.3 0 -0.59 0 -0.3 0 -0.59 0 -0.3 0.3 -0.59 0 -0.3 0 -0.59 0 -0.3 -0.3 -0.59 0 -0.3 0 -0.59 0 -0.3 0 -0.29 -0.3 -0.59 0 -0.29 -0.3 -0.59 0 -0.29 -0.3 -0.3 0 -0.3 -0.3 -0.59 -0.3 -0.3 -0.3 -0.3 -0.29 -0.59 0 -0.3 -0.3 -0.3 -0.3 -0.3 -0.59 -0.3 -0.3 -0.59 -0.3 -0.3 0.3 -0.3 0.3 0.3 0.59 0.59 0.3 0.3 0.3 0.3 0.29 0.3 0.3 0.59 0.3 0.3 0 0.3 0.3 0.59 0.3 0.3 0.3 0.3 0 0.59 0.3 0.3 0 0.3 0.3 0.59 0 0.3 0 0.59 0.3 0.3 0 0.59 0 0.3 0 0.59 0 0.3 0 0.59 0 0.3 0 0.59 0 0.3 0 0.59 -0.3 0.29 0 0.59 0 0.59 -0.3 0.3 0 0.59 0 0 0 -0zm0 1.77l-0.3 0.3 0 0 0 0 0 0 -0.3 -0.3 0 0 0 0 0 0 0 0 0 -0.3 0 0 0 0 0 0 0 -0.3 0 0 0 0 0 0 0 -0.3 0 0 0 0 0 0 0 -0.3 0 0 0 0 0 0 0 -0.29 0 0 0 0 0 0 0 -0.3 0 0 0 0 0 0 0 -0.3 0.59 0.3 0 0 0 0 0 0 0 0.3 0 0 0 0 0 0 0 0.29 0 0 0 0 -0.29 0 0 0 0 0.3 0 0 0 0 0 0 0 0.3 0 0 0 0 0.29 0 0 0 0 0.3 0 0 0 0 0 0 0 0 0 0.3 0 0 0 0 0 0 0 0 0 0 0 0 0 0zm-12.4 20.07l0 -0.3 0 0 1.18 -0.3 0.89 0 0.89 -0.3 0.89 0 0.89 -0.3 0.89 -0.29 0.59 -0.3 0.89 -0.59 0.59 -0.3 0.89 -0.59 0.59 -0.59 0.59 -0.3 0.59 -0.59 0.3 -0.59 0.59 -0.88 0.59 -0.59 0.29 -0.59 0.3 -0.89 0.3 -0.59 0.3 -0.89 0.3 -0.59 0 -0.89 0.3 -0.89 0 -0.89 0 -0.59 0 -0.89 -0.3 -0.89 0 -0.89 -0.3 -0.89 -0.3 -0.89 -0.3 -0.89 -0.3 -0.89 0.3 -0.29 0.59 0.88 0.3 0.89 0.3 1.18 0 0.89 0.3 0.89 0 0.89 0 0.59 0 0.89 0 0.89 0 0.89 -0.3 0.89 0 0.89 -0.3 0.59 -0.3 0.89 -0.59 0.59 -0.3 0.89 -0.59 0.59 -0.3 0.59 -0.59 0.89 -0.59 0.59 -0.59 0.59 -0.89 0.3 -0.59 0.59 -0.59 0.59 -0.89 0.3 -0.89 0.29 -0.89 0.3 -0.89 0.3 -0.89 0.3 -0.89 0 -0.89 0.3 -1.18 0 0 0zm-3.24 3.25l-0.3 0 0 0 0 -0.3 0 -0.3 0 -0.3 0 0 0 -0.3 0 -0.3 0 -0.3 0 0 0 -0.29 0 -0.3 0 0 0 -0.3 0.3 0 0 -0.3 0 0 0.3 0 0 -0.3 0 0 0.29 0 0 0 0.3 -0.3 0 0 0.3 0 0 0 0.3 0 0.3 0 0.3 0 0 0 0.3 0 0.3 0 0.3 0 0.29 0 0 0.3 -0.29 0 -0.3 0 -0.3 0 0 0 -0.3 0 -0.3 0 -0.3 0 0 0.3 -0.3 0 0 0 -0.3 0 0 0 -0.3 0 0 0 0 0.3 0 0 -0.29 0 0 0 0 0.3 0 0 0 0 0 0.3 0 0 0 0.29 -0.3 0 0 0.3 0 0.3 0 0.3 0 0 0 0.3 0 0.3 0 0.3 0 0zm0 18l-0.3 0 0 0 0 -0.59 0 -0.59 0 -0.59 0 -0.59 0 -0.3 0 -0.59 0 -0.59 0 -0.59 0 -0.59 0 -0.59 0 -0.59 0 -0.59 0 -0.59 0 -0.3 0 -0.59 0 -0.59 0 -0.59 0 -0.59 0 -0.59 0 -0.59 0 -0.59 0 -0.59 0 -0.59 0 -0.29 0 -0.59 0 -0.59 0 -0.59 0 -0.59 0 -0.59 0 -0.59 0 -0.59 0 -0.59 0.3 0 0 0.59 0 0.59 0 0.59 0 0.59 0 0.59 0 0.59 0 0.59 0 0.59 0 0.29 0 0.59 0 0.59 0 0.59 0 0.59 0 0.59 0 0.59 0 0.59 0 0.59 0 0.59 0 0.3 0 0.59 0 0.59 0 0.59 0 0.59 0 0.59 0 0.59 0 0.59 0 0.59 0 0.3 0 0.59 0 0.59 0 0.59 0 0.59 0 0zm0 1.77l0 0.59 -0.3 -0.3 0 0 0 -0.3 0 0 0 0 0 0 0 -0.3 0 0 0 0 0 0 0 -0.3 0 0 0 0 0 0 0 0 0 -0.3 0 0 0 0 0 0 0 0 0 -0.3 0 0 0 0 0 0 0 0 0 -0.3 0 0 0 0 0 0 0 0 0 -0.29 0 0 0 0 0.3 0 0 0 0 0 0 0.29 0 0 0 0 0 0 0 0 0 0.3 0 0 0 0 0 0 0 0 0 0.3 0 0 0 0 0 0 0 0 0 0.3 0 0 0 0 0 0 0 0 0 0.3 0 0 0 0 0 0 0 0.3 0 0 0 0 0 0 0 0.3 0 0 0 -0.3 0 0zm0 0.59l-0.3 0 0 -0.3 0.3 0.3zm-74.38 -51.06l0 0 0 0 0 0 0 0 0 0zm0 0.3l-0.3 0 0.3 -0.3 0 0.3zm4.72 -0.3l0 0.29 0 0 0 0 -0.29 0 0 0 -0.3 0 0 0 0 0 -0.3 0 0 0 -0.3 0 0 0 -0.3 0 0 0 -0.3 0 0 0 -0.3 0 0 0 -0.3 0 0 0 -0.3 0 0 0 -0.3 0 0 0 -0.29 0 0 0 -0.3 0 0 0 -0.3 0 0 0 -0.3 0 0 0 -0.3 0 -0.3 0 0 -0.29 0.3 0 0.3 0 0 0 0.3 0 0 0 0.3 0 0 0 0.3 0 0 0 0.29 0 0 0 0.3 0 0 0 0.3 0 0 0 0.3 0 0 0 0.3 0 0 0 0.3 0 0 0 0.3 0 0 0 0.3 0 0 0 0.3 0 0 0 0 0 0.3 0 0 0 0.29 0 0 0 0 0zm1.77 3.24l-0.3 -0.3 0 0 0 -0.29 0.3 0 0 -0.3 0 0 0 -0.3 0.3 0 0 -0.3 0 0 0 0 0 -0.3 0 0 0 -0.3 0 0 0 0 0 0 0 -0.3 -0.3 0 0 0 0 0 0 -0.3 0 0 -0.3 0 0 0 -0.29 0 0 0 0 0 -0.3 -0.3 0 0 -0.3 0 0 0 -0.3 0 -0.3 0 0 -0.3 0.3 0 0.3 0 0 0 0.3 0 0 0 0.3 0 0.29 0 0 0 0.3 0.3 0 0 0 0 0.3 0 0 0.3 0 0 0.3 0 0 0.3 0 0 0 0 0 0.3 0 0 0 0.3 0 0 0 0.3 0 0 0 0.3 0 0 0 0.3 0 0 -0.3 0.3 0 0 0 0.29 -0.3 0.3 0 0zm-4.72 7.68l-0.3 -0.3 0 0 0 -0.3 0.3 -0.3 0 -0.3 0.3 0 0 -0.3 0.3 -0.3 0 -0.3 0.3 -0.3 0 0 0.29 -0.29 0 -0.3 0.3 -0.3 0 -0.3 0.3 -0.3 0 0 0.3 -0.3 0 -0.3 0.3 -0.3 0 -0.3 0.3 0 0 -0.29 0.3 -0.3 0 -0.3 0.3 -0.3 0.3 0 0 -0.3 0.3 -0.3 0 -0.3 0.29 -0.3 0 -0.3 0.3 0 0 -0.3 0.3 0.3 0 0 -0.3 0.3 0 0.3 -0.3 0.3 0 0.3 -0.29 0.3 0 0 -0.3 0.3 0 0.3 -0.3 0.3 0 0.29 -0.3 0 0 0.3 -0.3 0.3 0 0.3 -0.3 0.3 0 0 -0.3 0.3 0 0.3 -0.3 0.3 0 0.3 -0.3 0.29 0 0 -0.3 0.3 0 0.3 -0.29 0.3 0 0.3 -0.3 0 0 0.3 -0.3 0.3 -0.3 0.3 0 0.3 0 0zm-1.77 1.77l0 0.59 0 -0.3 0 -0.3 0 0 0 0 0.3 0 0 -0.3 0 0 0 0 0 0 0 -0.3 0 0 0.3 0 0 0 0 -0.3 0 0 0 0 0 0 0.3 -0.3 0 0 0 0 0 0 0 -0.3 0 0 0 0 0.3 0 0 -0.3 0 0 0 0 0 0 0 0 0 -0.29 0.29 0 0 0 0.3 0.29 0 0 0 0 0 0 -0.3 0.3 0 0 0 0 0 0 0 0 0 0.3 0 0 -0.29 0 0 0 0 0.3 0 0 0 0 0 0 0 0.3 -0.3 0 0 0 0 0 0 0.3 0 0 0 0 -0.3 0 0 0.3 0 0 0 0 0 0 0 0.3 -0.3 0 0 0 0 0.3 -0.3 -0.59zm0 0.59l-0.3 0 0.3 -0.3 0 0.3zm4.72 -0.3l-0.29 0.3 0 0 0 0 0 0 -0.3 0 0 0 -0.3 0 0 0 -0.3 0 0 0 0 0 -0.3 0 0 0 -0.3 0 0 0 -0.3 0 0 0 -0.3 0 0 0 -0.3 0 0 0 0 0 -0.3 0 0 0 -0.29 0 0 0 -0.3 0 0 0 -0.3 0 0 0 -0.3 0 0 0 -0.3 0 -0.3 0 0 -0.59 0.3 0 0.3 0 0 0 0.3 0 0 0 0.3 0 0 0 0.3 0 0 0 0.29 0 0 0 0.3 0 0 0 0 0 0.3 0 0 0 0.3 0 0 0 0.3 0 0 0 0.3 0 0 0 0.3 0 0 0 0 0 0.3 0 0 0 0.3 0 0 0 0.3 0 0 0 0.29 0.3 0 0 0 0zm2.07 0.59l-0.3 0.3 0 0 0 0 0 0 0 0 0 0 0 0 -0.3 0 0 -0.3 0 0 0 0 0 0 0 0 -0.29 0 0 0 0 0 0 0 0 0 -0.3 0 0 0 0 0 0 -0.3 -0.3 0 0 0 0 0 -0.3 0 0 0 0 0 0 0 -0.3 0 0 0 0 0 0 0 -0.3 0 0.3 -0.3 0 0 0 0 0 0 0.3 0 0 0 0 0 0 0 0.3 0 0 0 0 0 0.3 0 0 0 0 0 0 0 0.3 0 0 0 0 0 0.29 0 0 0.3 0 0 0 0 0.3 0 0 0 0 0 0 0 0 0 0.3 0.3 0 0 0 0 0 0 0 0 0 0 0 0zm-0.3 2.66l-0.59 -0.3 0 0 0.3 0 0 0 0 -0.3 0 0 0 0 0 0 0 0 0 -0.3 0 0 0 0 0.3 0 0 -0.29 0 0 0 0 0 0 0 -0.3 0 0 0 0 0 0 0 -0.3 0 0 0 0 0 0 0 0 0 -0.3 0 0 0 0 0 0 0 0 0 -0.3 0 0 0 0 0.3 -0.3 0 0.3 0.3 0 0 0 0 0 0 0.3 0 0 0 0 0 0.3 0 0 0 0 0 0 0 0.3 0 0 0 0 -0.3 0 0 0.3 0 0 0 0 0 0.29 0 0 0 0 0 0 0 0.3 0 0 0 0 0 0 -0.3 0.3 0 0 0 0 0 0 0 0.3 0 0 0 0 0 0zm-3.83 5.9l-0.3 -0.29 0 0 0 -0.3 0.3 0 0 -0.3 0.29 0 0 -0.3 0 -0.3 0.3 0 0 -0.3 0.3 -0.3 0 0 0 -0.3 0.3 0 0 -0.3 0.3 -0.29 0 0 0 -0.3 0.3 0 0 -0.3 0.3 -0.3 0 0 0 -0.3 0.3 -0.3 0 0 0 -0.3 0.3 0 0 -0.3 0.3 -0.3 0 0 0 -0.29 0.29 -0.3 0 0 0 -0.3 0.59 0.3 -0.29 0 0 0.3 0 0.29 -0.3 0 0 0.3 0 0.3 -0.3 0 0 0.3 -0.3 0.3 0 0 0 0.3 -0.3 0 0 0.3 -0.3 0.3 0 0 0 0.3 -0.3 0.29 0 0 -0.3 0.3 0 0 0 0.3 -0.3 0.3 0 0 -0.29 0.3 0 0.3 0 0 -0.3 0.3 0 0 -0.3 0.3 0 0.3 0 0 -0.3 0.29 0 0 0 0zm-2.36 3.25l0 0.59 -0.3 -0.3 0 -0.29 0.3 0 0 -0.3 0 0 0 0 0.3 -0.3 0 0 0 -0.3 0 0 0.3 -0.3 0 0 0 0 0 -0.3 0.3 0 0 0 0 -0.3 0 0 0.29 -0.3 0 0 0 0 0 -0.3 0.3 0 0 -0.3 0 0 0 0 0.3 -0.29 0 0 0 0 0 -0.3 0 0 0.3 -0.3 0 0 0.3 0.3 0 0 0 0.3 0 0 -0.3 0 0 0.29 0 0 0 0 -0.3 0.3 0 0 0 0.3 0 0 -0.3 0 0 0.3 0 0 0 0.3 -0.3 0 0 0 0 0.3 0 0 -0.29 0 0 0.3 0 0 0 0.3 -0.3 0 0 0 0 0.3 0 0 -0.3 0.3 0 0 0 0.29 0 0 -0.3 0 0 -0.29 0 -0zm0 0.59l-0.59 0 0.3 -0.3 0.3 0.3 0 0zm37.48 -0.3l0.59 0 -0.29 0.3 -1.18 0 -1.18 0 -1.18 0 -1.18 0 -1.18 0 -1.18 0 -1.18 0 -1.18 0 -1.18 0 -1.18 0 -1.18 0 -1.18 0 -1.18 0 -1.18 0 -1.18 0 -1.18 0 -1.18 0 -1.18 0 -1.18 0 -1.18 0 -1.18 0 -1.18 0 -1.18 0 -1.18 0 -1.18 0 -1.18 0 -1.18 0 -1.18 0 -1.18 0 -1.18 0 -1.18 0 -1.18 0 0 -0.59 1.18 0 1.18 0 1.18 0 1.18 0 1.18 0 1.18 0 1.18 0 1.18 0 1.18 0 1.18 0 1.18 0 1.18 0 1.18 0 1.18 0 1.18 0 1.18 0 1.18 0 1.18 0 1.18 0 1.18 0 1.18 0 1.18 0 1.18 0 1.18 0 1.18 0 1.18 0 1.18 0 1.18 0 1.18 0 1.18 0 1.18 0 1.18 0 -0.3 0.3 -0 0zm0.59 0l0 0.3 -0.3 0 0.3 -0.3zm-1.48 -1.48l0.59 -0.3 0 0 0 0.3 0 0 0 0 0 0 0 0 0 0 0 0 0 0.3 0 0 0.3 0 0 0 0 0 0 0 0 0.3 0 0 0 0 0 0 0 0 0 0 0 0 0.3 0.3 0 0 0 0 0 0 0 0 0 0.3 0 0 0 0 0 0 0 0 0.3 0 0 0.3 -0.59 0 0 0 0 0 0 0 0 0 0 -0.3 0 0 0 0 0 0 -0.3 0 0 0 0 -0.3 0 0 0 0 0 0 0 0 0 0 0 -0.3 0 0 -0.3 0 0 0 0 0 0 0 0 -0.3 0 0 0 0 0 0 0 0 0 0 0 0 0 -0.3 -0.3 0 0 0 0 0zm-5.02 -8.26l0.3 -0.3 0 0 0 0.3 0.3 0.3 0 0.3 0.29 0.3 0.3 0.3 0 0.3 0.3 0 0 0.3 0.3 0.3 0 0.29 0.3 0.3 0 0.3 0.3 0.3 0.3 0.3 0 0 0.3 0.3 0 0.3 0.3 0.3 0 0.3 0.29 0.29 0.3 0.3 0 0.3 0.3 0 0 0.3 0.3 0.3 0 0.3 0.3 0.3 0 0.3 0.3 0.3 0.3 0.29 0 0.3 0.3 0 -0.59 0.3 0 -0.3 -0.3 -0.3 0 0 -0.3 -0.29 0 -0.3 -0.3 -0.3 -0.3 -0.3 0 -0.3 -0.3 -0.3 0 -0.3 -0.3 -0.3 0 0 -0.3 -0.3 0 -0.29 -0.3 -0.3 -0.29 -0.3 0 -0.3 -0.3 -0.3 0 -0.3 -0.3 0 0 -0.3 -0.3 -0.3 0 -0.3 -0.3 -0.29 -0.3 -0.3 0 -0.3 -0.3 -0.3 0 0 -0.3 -0.3 0 -0.3 -0.3 -0.3 0 -0.3 0 0 0 0zm1.48 -3.24l0 0.59 0 0 0 0 -0.3 0 0 0 -0.3 0 0 0 -0.3 0 0 0 -0.3 0.3 0 0 0 0 -0.3 0 0 0 0 0 0 0.29 0 0 -0.3 0 0 0 0 0.3 0 0 0 0 0 0 0 0.3 0 0 0 0 0 0.3 0 0 0.3 0.3 0 0 0 0.3 0 0 0 0.3 0.3 0 -0.3 0.3 -0.3 -0.3 0 0 0 -0.3 -0.29 0 0 -0.3 0 0 0 -0.3 0 0 0 -0.3 0 0 0 -0.3 0 0 0 -0.3 0 0 0 0 0 -0.29 0 0 0.29 0 0 -0.3 0 0 0.3 0 0 0 0 -0.3 0.3 0 0 0 0.3 0 0 0 0.3 0 0 0 0.3 -0.3 0.3 0 0 0 0 0 0 0zm4.72 0.59l0.3 -0.3 0 0.3 -0.3 0 -0.3 0 0 0 -0.3 0 0 0 -0.29 0 0 0 -0.3 0 0 0 -0.3 0 0 0 -0.3 0 0 0 -0.3 0 0 0 -0.3 0 0 0 -0.3 0 0 0 -0.3 0 0 0 -0.3 0 0 0 -0.29 0 0 0 -0.3 0 0 0 -0.3 0 0 0 -0.3 0 0 0 -0.3 0 0 -0.59 0.3 0 0 0 0.3 0 0 0 0.3 0 0 0 0.3 0 0 0 0.29 0 0 0 0.3 0 0 0 0.3 0 0 0 0.3 0 0 0 0.3 0 0 0 0.3 0 0 0 0.3 0 0 0 0.3 0 0 0 0.3 0 0 0 0.29 0 0 0 0.3 0 0 0 0.3 0 0.3 0 -0.3 0.59zm0.3 -0.3l0.3 0.3 -0.3 0 0 -0.3zm-6.49 -9.74l0.3 -0.3 0 0 0.3 0.3 0.29 0.3 0 0.3 0.3 0.3 0 0.3 0.3 0.3 0.3 0.3 0 0.3 0.3 0.29 0.3 0.59 0 0.29 0.3 0.3 0 0.3 0.3 0.3 0.3 0.3 0 0.3 0.29 0.3 0.3 0.3 0 0.3 0.3 0.29 0.3 0.3 0 0.3 0.3 0.3 0.3 0.3 0 0.3 0.3 0.3 0.3 0.3 0 0.3 0.3 0.3 0.29 0.59 0.3 0.29 0 0.3 -0.3 0.3 -0.29 -0.59 0 -0.3 -0.3 -0.3 -0.3 -0.29 -0.3 -0.3 0 -0.3 -0.3 -0.3 -0.3 -0.3 0 -0.3 -0.3 -0.3 -0.3 -0.3 0 -0.3 -0.3 -0.3 -0.29 -0.29 0 -0.3 -0.3 -0.59 -0.3 -0.3 0 -0.3 -0.3 -0.3 0 -0.3 -0.3 -0.3 -0.3 -0.3 0 -0.3 -0.3 -0.3 -0.3 -0.29 0 -0.3 -0.3 -0.3 -0.29 -0.3 0 -0.3 -0.3 -0.3 0 -0.3 -0.3 -0.3 0 0zm0 0l0 0 0 0 0 0zm-0.3 -2.36l0.3 0.29 0 0 0 0 0 0 0 0 0 0 0 0 0 0.3 0 0 0 0 0 0 0 0 0 0 0 0.3 0 0 0 0 0 0 0 0.3 0 0 0 0 0 0 0 0.3 0 0 0 0 0 0 0 0.3 0.3 0 0 0 0 0 0 0 0 0.3 0 0 0 0 0 0 -0.3 0.3 0 0 0 0 0 -0.3 -0.3 0 0 0 0 0 0 -0.3 0 0 0 0 0 0 0 -0.3 0 0 0 0 -0.3 0 0 -0.3 0 0 0 0 0 -0.3 0 0 0 0 0 0 0 -0.3 0 0 0 0 0 0 0 -0.3 0 0 0 0 0 0 0 -0.29 0 0 0.3 0 0 0zm0 0l0 0 0 0 0 0zm2.36 -0.89l0 0.29 0 0 0 0 -0.3 0 0 0 0 0 -0.3 0 0 0 0 0.3 0 0 -0.3 0 0 0 0 0 0 0 -0.3 0 0 0 0 0 0 0 -0.3 0 0 0 0 0 0 0 0 0.3 -0.3 0 0 0 0 0 0 0 0 0 -0.3 0 0 0 0 0 0 0.3 0 0 0 0 -0.3 -0.3 0 0 0 0 0 -0.3 0 0 0 0 0.3 0 0 0 0 0 0 -0.3 0.3 0 0 0 0 0 0 0 0.3 0 0 0 0 0 0 0 0.3 0 0 -0.29 0 0 0.3 0 0 0 0 0 0 0 0.3 0 0 0 0 0 0.3 0 0 0 0 0 0 0 0.3 0 0 0zm4.13 0.3l0.3 -0.3 -0.3 0.3 0 0 -0.3 0 0 0 -0.3 0 0 0 -0.29 0 0 0 -0.3 0 0 0 -0.3 0 0 0 0 0 -0.3 0 0 0 -0.3 0 0 0 -0.3 0 0 0 -0.3 0 0 0 -0.3 0 0 0 0 0 -0.3 0 0 0 -0.29 0 0 0 -0.3 0 0 0 0 0 -0.3 0 0 0 0 -0.3 0 0 0 0 0.3 0 0 0 0.3 0 0 0 0.29 0 0 0 0.3 0 0 0 0 0 0.3 0 0 0 0.3 0 0 0 0.3 0 0 0 0.3 0 0 0 0.3 0 0 0 0 0 0.3 0 0 0 0.3 0 0 0 0.29 0 0 0 0.3 0 0 0 0.3 0 0 0 0 0.3zm0.3 -0.3l0.3 0.29 -0.59 0 0.3 -0.29 0 0zm-19.19 -29.81l-0.3 -0.3 0.3 0 0.89 0.89 0.59 1.18 0.59 0.89 0.59 0.89 0.59 0.89 0.59 0.88 0.59 0.89 0.59 1.18 0.59 0.89 0.59 0.89 0.59 0.89 0.59 0.89 0.59 0.89 0.59 1.18 0.59 0.89 0.59 0.89 0.59 0.89 0.59 0.89 0.59 0.89 0.59 1.18 0.59 0.89 0.59 0.89 0.59 0.89 0.59 0.89 0.59 1.18 0.59 0.89 0.59 0.89 0.59 0.89 0.59 0.89 0.59 1.18 0.59 0.89 0.59 0.89 -0.3 0.3 -0.59 -0.89 -0.59 -1.18 -0.59 -0.89 -0.59 -0.89 -0.59 -0.89 -0.59 -0.89 -0.59 -1.18 -0.59 -0.89 -0.59 -0.89 -0.59 -0.89 -0.59 -0.89 -0.89 -1.18 -0.59 -0.89 -0.59 -0.89 -0.59 -0.89 -0.59 -0.89 -0.59 -0.89 -0.59 -1.18 -0.59 -0.89 -0.59 -0.89 -0.59 -0.89 -0.59 -0.89 -0.59 -0.89 -0.59 -1.18 -0.59 -0.89 -0.59 -0.89 -0.59 -0.89 -0.59 -0.89 -0.59 -0.89 -0.59 -1.18 -0.59 -0.89 -0.59 -0.89 0.3 0zm-0.3 -0.3l0.3 -0.29 0 0.29 -0.3 0zm-18.89 30.11l0 0.29 0 -0.29 0.59 -0.89 0.59 -0.89 0.59 -1.18 0.59 -0.89 0.59 -0.89 0.59 -0.89 0.59 -0.89 0.59 -1.18 0.59 -0.89 0.59 -0.89 0.59 -0.89 0.59 -0.89 0.59 -0.89 0.59 -1.18 0.59 -0.89 0.59 -0.89 0.59 -0.89 0.59 -0.89 0.59 -1.18 0.59 -0.89 0.59 -0.88 0.59 -0.89 0.59 -0.89 0.59 -0.89 0.59 -1.18 0.59 -0.89 0.59 -0.89 0.59 -0.89 0.59 -0.89 0.59 -0.89 0.59 -1.18 0.59 -0.89 0.29 0.3 -0.59 0.89 -0.59 0.89 -0.59 1.18 -0.59 0.89 -0.59 0.89 -0.59 0.89 -0.59 0.89 -0.59 0.89 -0.59 1.18 -0.59 0.89 -0.59 0.89 -0.59 0.89 -0.59 0.89 -0.59 0.89 -0.59 1.18 -0.59 0.89 -0.59 0.89 -0.59 0.89 -0.59 0.89 -0.59 0.89 -0.59 1.18 -0.59 0.89 -0.59 0.89 -0.59 0.89 -0.59 0.89 -0.59 1.18 -0.59 0.89 -0.59 0.89 -0.59 0.89 -0.59 0.89 -0.59 1.18 -0.59 0.89 -0.3 -0.29zm0 0.3l-0.3 0 0.3 -0.3 0 0.3zm72.02 14.17l0 0 0 0 0 0 -0.3 -0.3 0.3 0.3zm0.3 0l-0.3 0.59 -0.3 -0.59 0.59 0 0 0zm1.77 -4.43l0.59 0.3 0 0 -0.3 0 0 0 0 0.29 0 0 0 0.3 -0.3 0 0 0.3 0 0 0 0 -0.3 0.3 0 0 0 0.3 0 0 -0.3 0.3 0 0 0 0.3 0 0 -0.3 0.3 0 0 0 0 0 0.3 -0.3 0 0 0.29 0 0 0 0.3 -0.29 0 0 0.3 0 0 0 0.3 -0.3 0 0 0.3 0 0 -0.59 -0.3 0.29 0 0 -0.3 0 0 0 -0.3 0.3 0 0 0 0 -0.3 0.3 0 0 -0.29 0 0 0 -0.3 0.3 0 0 -0.3 0 0 0 -0.3 0.3 0 0 -0.3 0 0 0 0 0.3 -0.3 0 0 0 -0.3 0 0 0 -0.3 0.3 0 0 -0.3 0 0 0 0 0.3 -0.29 0 0 0 -0.3 0 0 0 0zm2.66 -1.18l-0.3 0.3 0 0 0 0 0 0 -0.3 0 0 0 0 0 0 0 -0.3 -0.3 0 0 0 0.3 0 0 -0.3 0 0 0 0 0 0 0 0 0 -0.3 0 0 0 0 0 0 0 0 0.3 0 0 -0.3 0 0 0 0 0 0 0.29 0 0 -0.3 0 0 0 0 0.3 0 0 0 0 0 0.3 -0.59 -0.3 0 0 0.3 -0.3 0 0 0 0 0 -0.29 0 0 0.3 0 0 0 0 -0.3 0 0 0 0 0.3 0 0 -0.3 0 0 0 0 0.3 0 0 0 0 -0.3 0 0 0.3 0 0 0 0 0 0.3 0 0 0 0 0 0.3 0 0 0 0.29 0 0 0 0 0 0.3 0.3 0 0 0 0 0 0zm0.59 2.66l-0.59 -0.3 0 0 0 0 0.3 0 0 0 0 -0.3 0 0 0 0 0 -0.3 0 0 0 0 0.3 0 0 -0.3 0 0 0 0 0 0 0 -0.3 0 0 0 0 0 0 0 0 0 -0.3 0 0 -0.3 0 0 0 0 0 0 -0.3 0 0 0 0 -0.3 0 0 0 0 -0.29 0 0 -0.3 0 0.3 -0.3 0 0 0.3 0 0 0 0 0.3 0.3 0 0 0 0 0 0 0.29 0.3 0 0 0 0 0.3 0 0 0 0 0 0 0 0.3 0 0 0 0 0 0.3 0 0 0 0 0 0.3 0 0 0 0 0 0.3 0 0 0 0 -0.3 0.3 0 0 0 0 0 0 0 0.3 0 0 0 0 0 0zm-4.72 8.26l-0.3 -0.3 0 0 0 -0.3 0.3 -0.3 0 0 0.3 -0.3 0 -0.3 0.3 -0.3 0 -0.29 0.3 -0.3 0 -0.3 0.3 0 0 -0.3 0.29 -0.3 0 -0.3 0.3 -0.3 0 -0.3 0.3 -0.3 0 -0.3 0.3 0 0 -0.29 0.3 -0.3 0 -0.3 0.3 -0.3 0 -0.3 0.3 -0.3 0 -0.3 0 0 0.3 -0.3 0 -0.3 0.3 -0.29 0 -0.3 0.29 -0.3 0 -0.3 0.59 0.3 -0.3 0.3 0 0.3 -0.3 0.29 0 0.3 -0.3 0 0 0.3 -0.3 0.3 0 0.3 -0.3 0.3 0 0.3 -0.3 0.3 0 0.3 -0.3 0 0 0.29 0 0.3 -0.3 0.3 0 0.3 -0.29 0.3 0 0.3 -0.3 0.3 0 0 -0.3 0.3 0 0.3 -0.3 0.3 0 0.29 -0.3 0.3 0 0.3 -0.3 0 0 0.3 -0.3 0.3 0 0.3 -0.3 0.3 0 0 0 0zm-0.59 4.13l0 0.59 -0.3 -0.3 0 0 0 -0.3 0 -0.3 0 0 0 -0.3 0 0 0 -0.3 0 0 0 -0.3 0 0 0 0 0 -0.3 0 0 0 -0.3 0 0 0 -0.3 0 0 0 -0.29 0 0 0 -0.3 0 0 0 -0.3 0 0 0 -0.3 0 0 0.3 -0.3 0 0 0 -0.3 0 0 0 -0.3 0.3 0 0 -0.3 0.3 0.3 0 0 0 0.3 0 0 -0.3 0.3 0 0 0 0.3 0 0 0 0 0 0.3 0 0 0 0.3 -0.3 0 0 0.3 0 0 0 0.29 0 0 0 0.3 0 0 0 0.3 0 0 0 0 0 0.3 0 0 0 0.3 0 0 0 0.3 0 0 0 0.3 0 0 0.3 0.3 0 0 0 0.3 -0.3 -0.3 0 -0zm0 0.59l-0.3 0 0 -0.3 0.3 0.3zm6.2 -0.59l0 0.59 0 0 -0.29 0 -0.3 0 0 0 -0.3 0 -0.3 0 0 0 -0.3 0 0 0 -0.3 0 -0.3 0 0 0 -0.3 0 -0.3 0 0 0 -0.3 0 -0.29 0 0 0 -0.3 0 -0.3 0 0 0 -0.3 0 0 0 -0.3 0 -0.3 0 0 0 -0.3 0 -0.3 0 0 0 -0.3 0 -0.29 0 0 0 -0.3 0 0 -0.59 0.3 0 0 0 0.29 0 0.3 0 0 0 0.3 0 0.3 0 0 0 0.3 0 0.3 0 0 0 0.3 0 0 0 0.3 0 0.3 0 0 0 0.29 0 0.3 0 0 0 0.3 0 0.3 0 0 0 0.3 0 0.3 0 0 0 0.3 0 0 0 0.3 0 0.3 0 0 0 0.3 0 0.29 0 0 0zm8.56 -15.64l0.3 0 0 0 0.59 0.59 0.3 0.59 0.29 0.89 0.3 0.59 0 0.59 0.3 0.89 0 0.59 0 0.59 0 0.89 0 0.59 -0.3 0.59 0 0.59 -0.3 0.89 -0.29 0.59 0 0.59 -0.59 0.59 -0.29 0.59 -0.3 0.59 -0.3 0.59 -0.59 0.3 -0.59 0.59 -0.3 0.3 -0.59 0.59 -0.59 0.3 -0.59 0.3 -0.88 0.3 -0.59 0.3 -0.59 0.3 -0.89 0.29 -0.59 0 -0.89 0.3 -0.59 0 0 -0.59 0.59 0 0.89 0 0.59 -0.3 0.59 0 0.89 -0.3 0.59 -0.29 0.59 -0.3 0.59 -0.3 0.59 -0.3 0.59 -0.59 0.3 -0.3 0.59 -0.59 0.3 -0.3 0.59 -0.59 0.3 -0.59 0.3 -0.59 0.29 -0.59 0.3 -0.59 0.3 -0.59 0 -0.59 0.3 -0.59 0 -0.59 0 -0.59 0 -0.89 0 -0.59 0 -0.59 0 -0.59 -0.3 -0.89 -0.3 -0.59 -0.3 -0.59 -0.29 -0.59 -0.3 -0.89 0 0 0 0zm-0.3 -2.95l0.29 0.3 0 0 0 0 0 0.3 0 0 0 0 0 0 0 0.3 0 0 0 0 0 0.3 0 0 0 0 0 0 0 0.3 0 0 0 0 0 0 0 0.29 0 0 0 0 0 0 0 0.3 0 0 0 0 0 0 0 0.3 0 0 0.3 0 0 0.3 0 0 0 0 0 0 0 0.3 -0.3 0 0 0 0 0 -0.29 0 0 -0.3 0 0 0 0 0 -0.3 0 0 0 0 0 -0.3 -0.3 0 0 0 0 0 0 -0.3 0 0 0 0 0 -0.29 0 0 0 0 0 -0.3 0 0 0 0 0 -0.3 0 0 0 0 0 -0.3 0 0 0 0 0.3 -0.3 0 0 0 0 0 -0.3 0 0zm-4.13 -12.4l0.3 -0.3 0 0 0.3 0.3 0.59 0.3 0.3 0.3 0.3 0.3 0.59 0.3 0.3 0.3 0.3 0.3 0.3 0.59 0.29 0.3 0.3 0.3 0.3 0.29 0 0.59 0.3 0.29 0.3 0.3 0 0.59 0.3 0.3 0 0.59 0.3 0.3 0 0.59 0 0.3 0 0.59 0 0.3 0 0.59 0 0.3 0 0.59 0 0.3 0 0.59 -0.3 0.59 0 0.3 0 0.59 -0.3 0.3 -0.3 0.59 -0.3 -0.3 0.3 -0.29 0 -0.59 0.3 -0.29 0 -0.59 0 -0.29 0 -0.59 0.3 -0.3 0 -0.59 0 -0.3 0 -0.59 0 -0.3 0 -0.59 -0.3 -0.3 0 -0.59 0 -0.3 -0.3 -0.3 0 -0.59 -0.3 -0.3 0 -0.3 -0.3 -0.59 -0.3 -0.3 0 -0.3 -0.29 -0.3 -0.3 -0.59 -0.3 -0.3 -0.3 -0.3 -0.3 -0.3 -0.59 -0.29 -0.3 -0.3 -0.3 -0.3 -0.3 -0.3 -0.59 -0.3 0 0 0 -0zm-1.18 -2.36l0.3 0 0 0 0 0 0 0.3 0 0 0 0 0 0.29 0 0 0 0 0 0 0 0.3 0.3 0 0 0 0 0 0 0 0 0.3 0 0 0 0 0 0 0 0 0 0.3 0.3 0 0 0 0 0 0 0 0 0.3 0 0 0.3 0 0 0 0 0 0 0 0.29 0.3 0 0 0 0 -0.29 0.3 0 0 0 0 -0.3 0 0 -0.3 0 0 0 0 -0.3 0 0 0 0 -0.3 0 0 0 0 -0.3 0 0 -0.3 0 0 0 0 0 0 0 0 -0.3 -0.3 0 0 0 0 0 -0.3 0 0 0 0 0 0 0 -0.3 0 0 0 0 0 -0.29 0 0 0 0 0 -0.3 0 0 0 0zm-10.92 -10.33l0 -0.59 0 0 0.59 0.29 0.59 0 0.59 0 0.59 0 0.59 0.3 0.59 0 0.3 0.3 0.59 0 0.59 0.3 0.3 0.3 0.59 0.3 0.59 0 0.3 0.3 0.3 0.59 0.59 0.3 0.3 0.3 0.29 0.3 0.3 0.3 0.59 0.59 0.3 0.29 0.3 0.59 0.3 0.29 0 0.59 0.3 0.29 0.3 0.59 0 0.59 0.3 0.59 0 0.3 0.3 0.59 0 0.59 0 0.59 0 0.59 -0.3 0 0 -0.59 -0.3 -0.59 0 -0.3 0 -0.59 -0.3 -0.59 0 -0.59 -0.3 -0.3 0 -0.59 -0.3 -0.59 -0.3 -0.3 -0.3 -0.59 -0.29 -0.3 -0.3 -0.3 -0.3 -0.59 -0.3 -0.3 -0.3 -0.3 -0.3 -0.3 -0.59 -0.3 -0.3 -0.3 -0.3 -0.3 -0.59 -0.3 -0.3 -0.29 -0.59 -0.3 -0.3 0 -0.59 -0.3 -0.59 -0.3 -0.59 0 -0.3 0 -0.59 -0.3 -0.59 0 -0.59 0 -0.59 0 0 0 -0 0zm-10.63 10.33l-0.59 0 0 0 0 -0.59 0 -0.59 0.3 -0.59 0 -0.3 0 -0.59 0.3 -0.59 0 -0.59 0.3 -0.3 0.3 -0.59 0.29 -0.59 0.3 -0.3 0.3 -0.59 0.3 -0.3 0.3 -0.59 0.3 -0.3 0.3 -0.3 0.3 -0.29 0.59 -0.3 0.3 -0.3 0.59 -0.3 0.3 -0.3 0.59 -0.3 0.3 -0.3 0.59 -0.3 0.59 0 0.59 -0.3 0.3 0 0.59 -0.3 0.59 0 0.59 0 0.59 0 0.59 -0.29 0 0.59 -0.59 0 -0.59 0 -0.59 0 -0.3 0.3 -0.59 0 -0.59 0 -0.59 0.29 -0.3 0.3 -0.59 0 -0.3 0.3 -0.59 0.3 -0.3 0.3 -0.59 0.3 -0.3 0.3 -0.59 0.3 -0.3 0.3 -0.3 0.3 -0.3 0.29 -0.3 0.59 -0.3 0.3 -0.29 0.59 -0.3 0.3 -0.3 0.59 0 0.3 -0.3 0.59 -0.3 0.3 0 0.59 -0.3 0.59 0 0.59 0 0.29 0 0.59 0 0.59 0 0zm-1.48 2.36l-0.3 -0.3 0 0 0 0 0.3 0 0 -0.29 0 0 0 0 0.3 0 0 0 0 0 0 -0.3 0 0 0 0 0.3 0 0 0 0 -0.3 0 0 0 0 0 0 0 0 0 -0.3 0 0 0.3 0 0 0 0 0 0 -0.3 0 0 0 0 0 0 0 -0.3 0 0 0 0 0 -0.3 0 0 0.59 0 0 0.3 0 0 0 0 -0.3 0 0 0.3 0 0 0 0 0 0.3 0 0 0 0 0 0.3 0 0 0 0 0 0 0 0.3 -0.3 0 0 0 0 0 0 0.3 0 0 0 0 -0.3 0 0 0 0 0.29 0 0 0 0 -0.29 0 0 0 0 0.3 0 0 -0.3 0 0 0 0 0 -0 0zm-4.13 12.4l-0.3 0.3 0 0 -0.3 -0.59 0 -0.3 -0.3 -0.59 0 -0.3 -0.3 -0.59 0 -0.3 0 -0.59 0 -0.59 0 -0.3 0 -0.59 0 -0.3 0 -0.59 0 -0.3 0.3 -0.59 0 -0.3 0 -0.59 0.3 -0.3 0 -0.3 0.3 -0.59 0.3 -0.3 0.3 -0.3 0 -0.59 0.29 -0.3 0.3 -0.29 0.3 -0.59 0.3 -0.29 0.3 -0.3 0.59 -0.3 0.3 -0.3 0.3 -0.3 0.59 -0.3 0.3 -0.3 0.3 0.3 -0.3 0.3 -0.59 0.3 -0.3 0.3 -0.3 0.3 -0.3 0.3 -0.59 0.29 -0.3 0.3 -0.3 0.59 0 0.3 -0.3 0.3 -0.3 0.3 -0.29 0.59 -0.3 0.3 0 0.3 -0.3 0.59 0 0.3 -0.3 0.3 0 0.59 0 0.3 0 0.3 -0.3 0.59 0 0.3 0 0.59 0 0.3 0 0.59 0.3 0.3 0 0.59 0 0.3 0.3 0.59 0 0.3 0.3 0.59 0 0.3 0 0 0 0zm-0.3 3.25l-0.3 -0.3 0 0 0 0 0 -0.3 0 0 0.3 0 0 -0.3 0 0 0 0 0 0 0 -0.3 0 0 0 0 0 0 0 -0.3 0.3 0 0 0 0 0 0 -0.3 0 0 0 0 0 0 0 -0.29 0 0 0 0 0 -0.3 0 0 -0.3 0 0 0 0 -0.3 0 0 0 0 0 -0.3 0 0 0.3 -0.3 0 0.3 0.3 0 0 0.3 0 0 0 0 0 0.3 0 0 0 0 0 0.3 0 0 0 0 0 0 0 0.29 0 0 0 0 0 0.3 0 0 0 0 0 0.3 0 0 0 0 0 0.3 0 0 -0.3 0 0 0 0 0.3 0 0 0 0 0 0.3 0 0 -0.3 0 0 0.3 0 0zm6.49 15.05l0 0.3 0 0 -0.89 0 -0.59 -0.3 -0.59 -0.3 -0.59 0 -0.59 -0.3 -0.59 -0.59 -0.59 -0.3 -0.3 -0.29 -0.59 -0.59 -0.3 -0.3 -0.59 -0.59 -0.3 -0.3 -0.3 -0.59 -0.3 -0.59 -0.3 -0.59 -0.3 -0.59 -0.3 -0.3 0 -0.59 -0.29 -0.59 0 -0.59 -0.3 -0.89 0 -0.59 0 -0.59 0 -0.59 0 -0.59 0.3 -0.59 0 -0.59 0.29 -0.59 0.3 -0.59 0.3 -0.59 0.3 -0.59 0.3 -0.59 0.3 0.3 -0.3 0.3 -0.3 0.59 -0.3 0.59 -0.3 0.59 0 0.59 -0.3 0.59 0 0.59 0 0.59 0 0.59 0 0.59 0 0.59 0 0.59 0 0.59 0.3 0.59 0.3 0.59 0 0.59 0.3 0.59 0.3 0.3 0.3 0.59 0.3 0.59 0.3 0.3 0.59 0.59 0.3 0.3 0.59 0.59 0.3 0.3 0.59 0.3 0.59 0.3 0.59 0.3 0.59 0.3 0.59 0.3 0.59 0 0.59 0.3 0 0 0 0zm8.26 0.89l0.59 -0.3 -0.3 0.3 -0.29 0 -0.3 0 -0.3 0 -0.3 0 -0.3 0 -0.3 0 -0.3 0 -0.3 0 -0.3 0 -0.29 0 0 0 -0.3 0 -0.3 0 -0.3 0 -0.3 0 -0.3 0 -0.3 0 -0.3 0 -0.3 0 -0.3 0 -0.29 0 -0.3 0 0 -0.3 -0.3 0 -0.3 0 -0.3 0 -0.3 0 -0.3 0 -0.3 0 -0.3 0 -0.29 0 0 -0.3 0 -0.29 0.29 0 0.3 0 0 0 0.3 0.29 0.3 0 0.3 0 0.3 0 0.3 0 0.3 0 0.3 0 0 0 0.29 0 0.3 0 0.3 0 0.3 0 0.3 0 0.3 0 0.3 0 0.3 0 0.3 0 0.3 0 0.29 0 0 0 0.3 0 0.3 0.3 0.3 0 0.3 0 0.3 0 0.3 0 0.3 0 0.3 0 0.29 0 -0.29 0.3 -0 0zm0.59 -0.3l0 0.3 -0.3 0 0.3 -0.3zm-1.77 -8.85l0.3 -0.3 0 0 0.3 0.3 0 0.3 0.3 0.3 0 0.3 0.3 0.3 0 0.3 0 0.3 0.3 0.29 0 0.3 0 0 0 0.3 0 0.3 0.3 0.3 0 0.3 0 0.3 0 0.3 0 0.3 0 0.29 0 0.3 0 0.3 0 0.3 0 0.3 0 0.3 0 0.3 0 0.3 0 0.3 0 0.3 0 0.29 0 0.3 0 0.3 0 0.3 0 0.3 -0.59 0.3 0 -0.59 0 -0.3 0 -0.3 0 -0.3 0 -0.3 0 -0.3 0 -0.3 0 -0.29 0 -0.3 0 -0.3 0 -0.3 0 -0.3 0 -0.3 0 -0.3 0 -0.3 0 -0.3 0 -0.3 0 -0.29 0 0 0 -0.3 0 -0.3 0 -0.3 -0.3 -0.3 0 -0.3 0 -0.3 0 -0.3 -0.3 -0.3 0 -0.29 0 -0.3 -0.3 0 0 -0.3 -0.3 -0.3 0 0 0 0zm-3.54 -6.49l0.3 0 0 0 0.3 0 0 0.3 0 0.3 0.29 0 0 0.29 0.3 0.3 0 0 0 0.3 0.3 0.3 0 0 0 0.3 0.3 0.3 0 0 0 0.3 0.3 0.3 0 0.3 0 0 0.3 0.29 0 0.3 0.3 0 0 0.3 0 0.3 0.3 0 0 0.3 0 0.3 0.3 0 0 0.3 0.3 0 0 0.3 0 0.3 0.29 0 0 0.3 -0.29 0.29 0 -0.29 -0.3 0 0 -0.3 -0.3 -0.3 0 0 -0.3 -0.3 0 -0.3 0 0 -0.3 -0.3 0 -0.3 0 0 -0.3 -0.3 0 -0.3 -0.3 0 0 -0.3 0 -0.29 -0.3 -0.3 0 0 0 -0.3 -0.3 -0.3 0 0 0 -0.3 -0.3 -0.3 0 0 0 -0.3 -0.29 -0.3 0 0 -0.3 -0.3 0 -0.29 0 0 -0.3 -0.3 0 -0.3 0 0zm0.3 0l0 0 0 0 0 0zm-0.89 -0.89l0.59 0 0 0 0 0 0 0 0 0 0 0 0 0 0 0 0 0 0 0 0 0 0 0 0 0.3 0 0 0 0 0 0 0 0 0 0 0 0 0 0 0 0 0.3 0 0 0 0 0.3 0 0 0 0 0 0 0 0 0 0 0 0 0 0 0 0 0 0 0 0.29 -0.3 0 0 0 0 0 0 0 0 0 0 0 0 0 0 0 0 0 -0.3 -0.29 0 0 0 0 0 0 0 0 0 0 0 0 0 0 0 0 0 0 0 -0.3 0 0 0 0 0 0 0 0 0 0 -0.3 0 0 0 0 -0.3 0 0 0 0 0 0 0 0 0 0 0 0 0 0zm0.59 -2.07l0.3 0.3 0 0 0 0 0 0 0 0 0 0 0 0 0 0 0 0.3 0 0 0 0 -0.3 0 0 0 0 0 0 0.3 0 0 0 0 0 0 0 0 0 0.3 0 0 0 0 0 0 0 0.3 0 0 0 0 0 0 0 0 0 0.3 0 0 0 0 0 0 0 0.29 0 0 -0.59 0 0 0 0 -0.29 0 0 0 0 0 0 0 -0.3 0 0 0 0 0 0 0.3 -0.3 0 0 0 0 0 0 0 -0.3 0 0 0 0 0 0 0 0 0 -0.3 0 0 0 0 0 0 0 -0.3 0 0 0 0 0 0 0.3 0 0 -0.3 0 0 0 0 0 0 0 0 0 0 0 0zm0 0l0 0 -0.3 0.3 0.3 -0.3zm2.36 0.59l-0.3 0.3 0 0 0 -0.3 0 0 0 0 -0.3 0 0 -0.3 0 0 0 0 0 0 0 0 -0.3 0 0 0 0 -0.3 0 0 0 0 -0.3 0 0 0 0 0 0 0 0 0 0 0 -0.3 0 0 0 0 0 0 0 0 0 -0.3 0 0 0 0 0 0 0 0 0 -0.3 0.3 0 0 -0.3 -0.3 0 -0.3 0.3 0 0 0 0 0 0.3 0 0 0 0 0 0 0 0.3 -0.3 0 0 0 0 0.3 0 0 0 0 0.3 0 0 0.3 0 0 0 0 0 0.3 0 0 0 0 0 0 0 0.3 0.3 0 0 0 0 0 0 0 0 0.3 0.3 0 0 0 0 0 0 0 0.3 0 0zm2.06 4.43l0.59 0 -0.59 0 0 0 0 -0.3 0 0 -0.3 -0.3 0 0 0 -0.3 0 0 -0.29 0 0 -0.3 0 0 0 -0.3 -0.3 0 0 -0.3 0 0 -0.3 -0.3 0 0 0 -0.3 0 0 -0.3 -0.29 0 0 0 0 0 -0.3 -0.3 0 0 -0.3 0 0 0 -0.3 -0.3 0 0 -0.3 0 0 0 -0.3 -0.3 0 0 0 0.3 -0.3 0.3 0 0 0.3 0 0 0 0.3 0.3 0 0 0.3 0 0 0 0 0.3 0.3 0 0 0 0.3 0.3 0 0 0.3 0 0 0 0.29 0.3 0 0 0.3 0 0 0 0.3 0.29 0 0 0 0 0.3 0 0 0.3 0.3 0 0 0 0.3 0 0 0.3 0.3 0 0 0 0.3 0 0 0.3 0.3 -0.59 0 0 0zm0.59 0l-0.3 0.59 -0.3 -0.59 0.59 0 0 0zm-0.3 -5.61l0.59 0 0 0 0 0 0 0.3 0 0 0 0.3 0 0.3 0 0 0 0.3 0 0 0 0.3 0 0.29 0 0 0 0.3 0 0 0 0.3 0 0.3 0 0 0 0.3 0 0 0 0.3 0 0.3 0 0 -0.3 0.3 0 0 0 0.3 0 0.3 0 0 0 0.29 0 0.3 0 0 0 0.3 0 0 0 0.3 -0.59 0 0 -0.3 0 0 0.3 -0.3 0 -0.3 0 0 0 -0.29 0 0 0 -0.3 0 -0.3 0 0 0 -0.3 0 0 0 -0.3 0 -0.3 0 0 0 -0.3 0 0 0 -0.3 0 -0.3 0 0 0 -0.3 0 0 0 -0.29 0 -0.3 0 0 0 -0.3 0 0 0 -0.3 0 0 0 -0.3 0 -0.3 0 0 0 0zm-0.89 -3.83l0.3 -0.3 0 0 0 0 0 0.3 0.3 0 0 0.3 0 0 0 0 0 0.29 0 0 0.3 0.3 0 0 0 0 0 0.3 0 0 0 0.3 0 0 0 0.3 0.3 0 0 0.3 0 0 0 0 0 0.3 0 0 0 0.3 0 0 0 0.3 0 0 0 0 0 0.29 0 0 0 0.3 0.3 0 0 0.3 -0.59 0 0 -0.3 0 0 0 0 0 -0.3 0 0 0 -0.29 0 0 0 -0.3 0 0 -0.3 0 0 -0.3 0 0 0 -0.3 0 0 0 -0.3 0 0 0 0 0 -0.3 0 0 -0.3 -0.3 0 0 0 -0.3 0 0 0 0 0 -0.3 0 0 0 -0.29 -0.3 0 0 0 0 -0.3 0 0 0 0 0 0 0 0zm-4.13 -7.68l0.3 0 0 0 0.3 0 0 0.3 0.3 0.3 0 0.3 0.29 0.3 0 0 0 0.3 0.3 0.3 0 0.3 0.3 0 0 0.29 0.3 0.3 0 0.3 0.3 0.3 0 0 0 0.3 0.3 0.3 0 0.3 0.3 0.3 0 0 0.3 0.3 0 0.3 0 0.29 0.3 0 0 0.3 0.3 0.3 0 0.3 0 0.3 0.29 0.3 0 0 0.3 0.3 0 0.3 -0.3 0.3 -0.29 -0.3 0 -0.3 -0.3 -0.3 0 -0.3 0 0 -0.3 -0.3 0 -0.3 -0.3 -0.3 0 -0.3 0 0 -0.3 -0.29 0 -0.3 -0.3 -0.3 0 -0.3 0 0 -0.3 -0.3 0 -0.3 -0.3 -0.3 0 0 -0.3 -0.3 0 -0.3 -0.3 -0.3 0 -0.29 0 0 -0.29 -0.3 0 -0.3 -0.3 -0.3 0 -0.3 -0.3 0 0 -0.3 0 -0.3 -0.3 -0.3 0 0zm0.59 -2.66l0 0.3 0 0 0 0.3 0 0 -0.3 0 0 0 0 0 0 0 0 0.3 0 0 -0.3 0 0 0 0 0 0 0.3 0 0 0 0 0 0 0 0 0 0.3 0 0 0 0 0 0 0 0.3 0 0 0 0 0 0 0 0.3 0.3 0 0 0 0 0 0 0.3 0 0 0 0 0 0.29 -0.3 0 0 0 0 0 0 -0.29 -0.3 0 0 0 0 0 0 -0.3 0 0 0 0 0 -0.3 0 0 0 0 0 -0.3 -0.3 0 0 0 0 -0.3 0 0 0.3 0 0 -0.3 0 0 0 0 0 0 0 -0.3 0 0 0 0 0.3 -0.3 0 0 0 0 0.3 0 0 -0.3 0 0 0.3 0 0 0zm2.36 1.18l-0.29 0.3 0 0 0 0 0 -0.3 0 0 -0.3 0 0 0 0 -0.3 0 0 0 0 0 0 -0.3 -0.3 0 0 0 0 0 0 0 0 -0.3 -0.29 0 0 0 0 0 0 0 0 0 0 -0.3 0 0 0 0 0 0 0 -0.3 0 0 0 0 0 0 0 -0.3 0 0 0 0 0 -0.3 0 0 -0.3 0 0 0 0 0.3 0 0 -0.3 0.3 0 0 0 0 0 0.3 0 0 0 0 0 0.3 0 0 0 0 0.3 0.3 0 0 0 0 0 0 0 0.3 0 0 0.3 0 0 0 0 0.3 0 0 0.29 0 0 0 0 0 0 0 0.3 0.29 0 0 0 0 0.3 0 0 0 0 0 0zm1.77 4.13l0.59 0 -0.59 0 0 0 0 -0.3 0 0 -0.3 -0.3 0 0 0 0 0 -0.3 -0.29 0 0 -0.3 0 0 0 0 0 -0.3 -0.3 0 0 -0.29 0 0 0 -0.3 -0.3 0 0 0 0 -0.3 0 0 0 -0.3 -0.3 0 0 0 0 -0.3 0 0 -0.3 -0.3 0 0 0 -0.3 0 0 -0.3 0 0 -0.3 0 0 0.3 -0.3 0.3 0.3 0 0 0 0 0 0.3 0 0 0.3 0.3 0 0 0 0 0 0.3 0.3 0 0 0.3 0 0 0 0 0.3 0.3 0 0 0 0.3 0 0 0 0.3 0.29 0 0 0 0 0.29 0 0 0.3 0.3 0 0 0 0 0 0.3 0 0 0.3 0.3 0 0 0 0.3 0 0 0.3 0 -0.59 0.3 0 0zm0.59 0l-0.3 0.59 -0.3 -0.59 0.59 0 0 0zm-0.3 -3.54l0.59 0 0 0 0 0 0 0 0 0.3 0 0 0 0 0 0.3 0 0 0 0.3 0 0 0 0 0 0.3 0 0 0 0 0 0.3 0 0 0 0.3 0 0 0 0 -0.3 0.3 0 0 0 0.3 0 0 0 0 0 0.29 0 0 0 0.3 0 0 0 0 0 0.3 0 0 0 0.3 0 0 -0.59 0 0 -0.3 0 0 0 -0.3 0.3 0 0 0 0 -0.3 0 0 0 0 0 -0.29 0 0 0 -0.3 0 0 0 0 0 -0.3 0 0 0 0 0 -0.3 0 0 0 -0.3 0 0 0 0 0 -0.3 0 0 0 0 0 -0.3 0 0 0 -0.3 0 0 0 0 0 -0.3 0 0 0 0 0 0zm1.77 -2.36l0 0.3 0 0 0 0 0 0 -0.3 0 0 0 0 0 -0.3 0 0 0.29 0 0 0 0 -0.29 0 0 0 0 0 0 0 0 0.3 0 0 0 0 -0.3 0 0 0 0 0.3 0 0 0 0 0 0 0 0.3 0 0 0 0 0 0.3 0 0 0 0 0 0.3 0 0 0 0 0 0.3 -0.59 0 0 -0.3 0 0 0 -0.3 0 0 0 0 0 -0.3 0 0 0 0 0 -0.3 0.29 0 0 0 0 -0.3 0 0 0 0 0 0 0 -0.3 0 0 0.3 0 0 -0.29 0 0 0 0 0.3 0 0 0 0 -0.3 0.3 0 0 0 0 0 0.3 0 0 0 0 0 0.3 0 0 0 0 0 0 0zm1.77 2.06l-0.3 0 0 0 0 0 0 0 0 -0.29 0 0 0 0 0 0 0 -0.3 0 0 -0.3 0 0 -0.3 0 0 0 0 0 0 0 -0.3 0 0 0 0 0 0 0 0 0 -0.3 -0.3 0 0 0 0 0 0 0 0 0 -0.3 0 0 0 0 -0.3 0 0 -0.3 0 0 0 0 0 -0.29 0 0 -0.3 0.29 0 0 0 0.3 0 0 0 0 0 0.3 0 0 0 0 0 0.3 0.3 0 0 0 0 0 0 0.3 0.3 0 0 0 0 0 0 0 0.3 0.3 0 0 0 0 0 0 0.3 0 0 0 0 0 0.3 0 0 0 0 0 0.3 0 0 0 0 0 0.29 0 0 0 0 0 0zm0 0l0 0 0 0 0 0zm0 5.02l-0.3 0 0 0 0 -0.3 0 0 0 -0.3 0 0 0 -0.3 0 0 0 -0.3 0 0 0 -0.3 0 0 0 -0.3 0 0 0 -0.29 0 0 0 -0.3 0 0 0 -0.3 0 0 0 -0.3 0 0 0 -0.3 0 -0.3 0 0 0 -0.3 0 0 0 -0.3 0 0 0 -0.3 0 0 0 -0.29 0 0 0 -0.3 0.3 0 0 0.3 0 0 0 0.29 0 0 0 0.3 0 0 0 0.3 0 0 0 0.3 0 0 0 0.3 0 0.3 0 0 0 0.3 0 0 0 0.3 0 0 0 0.3 0 0 0 0.29 0 0 0 0.3 0 0 0 0.3 0 0 0 0.3 0 0 0 0.3 0 0 0 0.3 0 0 0 0.3 0 0zm-0.3 3.84l0.3 0.3 -0.3 0 0 -0.3 0 0 0 0 0 -0.3 0 0 0 -0.3 0 0 0 -0.3 0 0 0 -0.3 0 0 0 0 0 -0.3 0 0 0 -0.3 0 0 0 -0.3 0 0 0 -0.3 0 0 0 0 0 -0.29 0 0 0 -0.3 0 0 0 -0.3 0 0 0 -0.3 0 0 0 0 0 -0.3 0 0 0.3 0 0 0 0 0.3 0 0 0 0 0 0.3 0 0 0 0.3 0 0 0 0.3 0 0 0 0.29 0 0 0 0 0 0.3 0 0 0 0.3 0 0 0 0.3 0 0 0 0.3 0 0 0 0 0 0.3 0 0 0 0.3 0 0 0 0.3 0 0 0 0.3 0 0 0 0 0 0.3 -0.3 -0.3zm0.3 0.3l-0.3 0.59 0 -0.59 0.3 0zm2.36 -4.43l0.3 0.3 0 0 0 0 0 0.3 -0.3 0 0 0.3 0 0 0 0.3 -0.3 0 0 0.29 0 0 0 0 -0.3 0.3 0 0 0 0.3 0 0 -0.3 0.3 0 0 0 0.3 -0.3 0 0 0 0 0.3 0 0 -0.3 0.3 0 0 0 0.3 -0.3 0 0 0.3 0 0 -0.3 0.29 0 0 0 0 -0.3 0.3 0 0 -0.29 -0.3 0 0 0.29 0 0 -0.29 0 0 0 -0.3 0.3 0 0 -0.3 0 0 0.3 -0.3 0 0 0 0 0.3 -0.3 0 0 0 -0.3 0 0 0.3 -0.3 0 0 0 -0.3 0 0 0.3 0 0 -0.3 0 0 0 -0.29 0.3 0 0 -0.3 0 0 0 -0.3 0.3 0 0 0 0 -0.3 0 0 0.3 -0.3 0 0zm2.36 -0.89l0 0.3 0 0 -0.3 0 0 0 0 0 -0.3 0 0 0 0 -0.3 0 0 -0.3 0 0 0 0 0 0 0 0 0.3 -0.3 0 0 0 0 0 0 0 0 0 -0.3 0 0 0 0 0 0 0 0 0.3 -0.3 0 0 0 0 0 0 0 0 0.3 0 0 0 0 -0.3 0 0 0.3 0 0 -0.29 -0.3 0 0 0 0 0 -0.3 0 0 0.29 0 0 0 0 -0.3 0 0 0 0 0.3 0 0 -0.3 0 0 0 0 0.3 0 0 0 0 -0.3 0 0 0.3 0 0 0 0 0 0.3 0 0 0 0 0 0.3 0 0 0 0 0 0.3 0 0 0 0 0 0.3 0 0 0.3 0 0 0 0zm0.59 2.66l-0.59 -0.3 0 0 0.3 0 0 -0.3 0 0 0 0 0 0 0 -0.3 0 0 0 0 0.3 0 0 -0.3 0 0 0 0 0 0 0 -0.3 0 0 0 0 0 0 0 0 0 -0.29 0 0 -0.3 0 0 0 0 0 0 -0.3 0 0 0 0 0 0 0 0 -0.3 0 0 -0.3 0 0 0 0 0 -0.3 0.3 0 0 0 0 0 0.3 0.3 0 0 0 0 0 0 0 0.3 0.3 0 0 0 0 0 0 0.3 0 0 0 0 0 0.29 0 0 0 0 0 0.3 0 0 0 0 0 0 0 0.3 0 0 0 0 0 0.3 0 0 0 0 -0.3 0.3 0 0 0 0 0 0 0 0.3 0 0 0 0zm-3.24 5.61l-0.3 -0.3 0 0 0 -0.29 0.3 0 0 -0.3 0.3 0 0 -0.3 0 -0.3 0.3 0 0 -0.3 0 0 0.29 -0.3 0 0 0 -0.3 0.3 -0.3 0 0 0 -0.3 0 0 0.3 -0.29 0 -0.3 0 0 0.3 -0.3 0 0 0 -0.3 0.3 -0.3 0 0 0 -0.3 0.3 0 0 -0.3 0 -0.3 0.3 0 0 -0.3 0 0 0 -0.3 0.59 0.3 -0.3 0 0 0.3 0 0.3 0 0 -0.3 0.3 0 0 0 0.3 -0.3 0 0 0.3 0 0.3 -0.3 0 0 0.3 0 0 -0.3 0.3 0 0.29 0 0 0 0.3 -0.3 0 0 0.3 0 0.3 -0.29 0 0 0.3 0 0 -0.3 0.3 0 0.3 0 0 -0.3 0.3 0 0 -0.3 0.3 0 0 0 0.29 -0.3 0.3 0 0 0 0zm-2.36 9.44l0.59 0.3 -0.59 0 0 -0.3 0 -0.3 0 -0.59 0 -0.3 0 -0.29 0 -0.3 0 -0.3 0 -0.3 0 -0.59 0 -0.3 0 -0.3 0 -0.3 0 -0.3 0 -0.3 0 -0.3 0 -0.29 0.3 -0.3 0 -0.3 0 -0.3 0 -0.3 0.3 -0.3 0 -0.3 0 -0.3 0.3 -0.3 0 -0.3 0.3 -0.29 0 -0.3 0.29 -0.3 0 -0.3 0.3 -0.3 0 -0.3 0.3 -0.3 0.3 0.3 0 0.3 -0.3 0 0 0.3 -0.3 0.3 0 0.3 -0.3 0.3 0 0.29 -0.29 0.3 0 0.3 -0.3 0.3 0 0.3 0 0.3 -0.3 0.3 0 0.3 0 0.3 0 0.3 0 0.29 -0.3 0.3 0 0.3 0 0.3 0 0.3 0 0.3 0 0.3 0 0.59 0 0.3 0 0.3 0 0.3 0 0.29 0 0.3 0 0.3 0.3 0.59 0 0.3 -0.59 -0.3 0 0zm0.59 0.3l-0.3 0.59 -0.3 -0.59 0.59 0 0 0zm-13.87 12.1l0 0 0 0 0 0 -0.3 0.3 0.3 -0.3zm0 -0.3l0 0.3 0 0 0 -0.3zm-0.59 0.3l0.3 -0.3 0 0 0 0 0 0 0 0 0 0 0 0 0 0 0 0 0 0 0 0 0 0 0 0 0 0 0 0 0 0 0 0 0 0 0 0 0 0 0 0 0.3 0 0 0 0 0 0 0 0 0 0 0 0 0 0 0 0 0 0 0 0 0 0 0 0 0 -0.3 0.59 0 0 0 0 0 0 0 0 0 -0.3 0 0 0 0 0 0 0 0 0 0 0 0 0 0 0 0 0 0 0 0 -0.3 0 0 0 0 0 0 0 0 0 0 0 0 0 0 0 0 0 0 0 0 0 0 0 0 0 0 0 0 0 0 0 0 0 0 0 0 0zm0 0l0 0 0 0 0 0zm-7.67 -18.59l0.3 0.3 0 0 -0.3 0.59 -0.3 0.89 0 0.59 -0.3 0.59 -0.3 0.89 0 0.59 0 0.89 0 0.59 0 0.59 0 0.59 0 0.89 0.3 0.59 0 0.59 0.3 0.59 0.3 0.59 0.3 0.89 0.3 0.59 0.3 0.59 0.3 0.59 0.3 0.3 0.59 0.59 0.3 0.59 0.59 0.59 0.3 0.3 0.59 0.59 0.59 0.3 0.59 0.3 0.3 0.59 0.59 0.3 0.59 0.29 0.89 0.3 0.59 0.3 -0.3 0.3 -0.59 -0.3 -0.59 -0.3 -0.59 -0.3 -0.59 -0.29 -0.59 -0.3 -0.59 -0.59 -0.59 -0.3 -0.59 -0.59 -0.59 -0.3 -0.3 -0.59 -0.59 -0.59 -0.3 -0.59 -0.29 -0.59 -0.59 -0.59 -0.29 -0.59 -0.3 -0.59 -0.3 -0.59 0 -0.59 -0.3 -0.59 -0.3 -0.89 0 -0.59 0 -0.59 -0.3 -0.89 0 -0.59 0 -0.89 0.3 -0.59 0 -0.59 0 -0.89 0.3 -0.59 0.3 -0.89 0.3 -0.59 0.3 -0.89 0 0 0 0zm0 0l0 0 0 0 0 0zm0 -0.89l0.3 0 0 0 0 0 0 0 0 0 0 0 0 0 0 0 0.3 0 0 0.3 0 0 0 0 0 0 0 0 0 0 0 0 0 0.3 0 0 0 0 0 0 0 0 0 0 0 0 0 0.3 0 0 0 0 0 0 0 0 0 0 -0.3 0 0 0.3 0 0 0 0 0 0 -0.3 -0.3 0 0 0 0 0 0 0 0 0 0 0 0 0 0 0 0 0 0 0 -0.3 0 0 0 0 0 0 0 0 0 0 0 0 0 0 0 0 0 -0.3 0 0 0 0 0 0 0 0 0 0 0 0 0 0 0 0 0 0 0 0 0 0 0 0 0 -0.3 0 0zm0.3 0l0 0 0 0 0 0zm-7.08 -7.97l-0.3 -0.3 0.3 0 0.3 0.3 0.3 0.3 0.3 0.3 0 0.3 0.29 0.29 0.3 0.3 0.3 0 0 0.3 0.3 0.3 0.3 0.3 0.3 0.3 0 0.3 0.3 0.3 0.3 0 0.3 0.3 0 0.3 0.29 0.29 0.3 0.3 0.3 0.3 0 0.3 0.3 0 0.3 0.3 0.3 0.3 0 0.3 0.3 0.3 0.3 0.3 0 0 0.3 0.29 0.29 0.3 0.3 0.3 0 0.3 0.3 0.3 -0.3 0 -0.3 0 -0.29 -0.3 0 -0.3 -0.3 -0.3 -0.3 -0.3 0 -0.29 -0.3 0 -0.3 -0.3 -0.3 -0.3 0 -0.3 -0.3 -0.3 -0.3 -0.3 -0.3 0 0 -0.3 -0.29 -0.3 -0.3 -0.3 0 -0.29 -0.3 -0.3 -0.3 0 -0.3 -0.3 0 -0.3 -0.3 -0.3 -0.3 -0.3 -0.3 -0.3 0 -0.3 -0.3 0 -0.29 -0.3 -0.3 -0.3 -0.3 -0.29 0 -0.3 -0.3 -0.3 -0.3 -0.3 0.3 0zm-0.3 -0.3l0.3 0 0 0 -0.3 0zm-0.59 2.07l-0.59 0 0 0 0 0 0 -0.3 0 0 0 0 0 0 0.3 0 0 -0.3 0 0 0 0 0 0 0 0 0 0 0 -0.3 0 0 0.3 0 0 0 0 0 0 -0.3 0 0 0 0 0 0 0.29 0 0 -0.3 0 0 0 0 0 0 0 0 0 -0.3 0.3 0 0 0 0 0 0 -0.3 0.3 0.3 0 0.3 0 0 0 0 0 0 0 0 -0.3 0.3 0 0 0 0 0 0 0 0.3 0 0 -0.3 0 0 0 0 0 0 0.3 0 0 0 0 0 0 0 0 -0.29 0 0 0 0 0.3 0 0 0 0 0 0 0 0 0 0 0 0 0 0.3 0 0 0 0 0 0 0 0 0 0zm-2.66 2.36l0 -0.59 0 0 0.3 0 0 0 0.3 0 0 0 0.3 0 0 0 0.3 0 0 0 0 0 0.3 0 0 0 0 0 0 0 0.3 0 0 0 0 0 0 -0.3 0 0 0 0 0 0 0 0 0 -0.3 0.29 0 0 0 0 -0.29 0 0 0 0 0 -0.3 0 0 0 -0.3 0 -0.3 0 0 0.59 0 0 0.3 0 0 0 0.3 -0.3 0 0 0.3 0 0 0 0.29 0 0 0 0.3 0 0 0 0 0 0.3 0 0 -0.3 0 0 0 0 0.3 0 0 -0.3 0 0 0 0 0 -0.3 0 0 0.3 0 0 -0.3 0 0 0 -0.3 0 0 0 -0.3 0 0 0 -0.3 0 0 0 -0.29 0 0 0 -0 0zm-4.13 -0.3l-0.59 0 0.3 -0.29 0 0 0.3 0 0 0 0.3 0 0 0 0.3 0 0 0 0.3 0 0 0 0.3 0 0 0 0.3 0 0 0 0.3 0 0 0 0.29 0 0 0 0.3 0 0 0 0.3 0 0 0 0 0 0.3 0 0 0 0.3 0 0 0 0.3 0 0 0 0.3 0 0 0 0 0 0.3 0 0 0.59 0 0 -0.3 0 0 0 -0.3 0 0 0 -0.3 0 0 0 -0.3 0 0 0 -0.3 0 0 0 0 0 -0.3 0 0 0 -0.3 0 0 0 -0.29 0 0 0 -0.3 0 0 0 -0.3 0 0 0 -0.3 0 0 0 -0.3 0 0 0 -0.3 0 0 0 -0.3 0 0 0 -0.3 0 0 0 0.3 -0.3 0 -0zm-0.59 0l-0.29 -0.29 0.59 0 -0.3 0.29 -0 0zm5.91 8.56l-0.59 0 0 0 0 0 -0.3 -0.3 0 -0.3 -0.3 -0.3 0 -0.3 -0.3 -0.3 0 -0.3 -0.3 -0.3 0 0 -0.29 -0.29 -0.3 -0.3 0 -0.3 -0.3 -0.3 0 -0.3 -0.3 -0.3 0 -0.3 -0.3 -0.3 0 0 -0.3 -0.3 -0.3 -0.3 0 -0.29 -0.3 -0.3 0 -0.3 -0.3 -0.3 -0.3 -0.3 0 -0.3 -0.29 -0.3 0 -0.3 -0.3 -0.3 -0.3 -0.29 0 -0.3 -0.3 -0.3 0.59 0 0 0.3 0.3 0.3 0 0.29 0.3 0.3 0.3 0.3 0 0 0.3 0.3 0 0.3 0.29 0.3 0 0.3 0.3 0.3 0.3 0.3 0 0.29 0.3 0.3 0 0.3 0.3 0.3 0.3 0 0 0.3 0.3 0.3 0 0.3 0.3 0.3 0 0.3 0.3 0.3 0 0.29 0.3 0.3 0 0 0.29 0.3 0.3 0.3 0 0.3 0.3 0.3 0 0.3 0.3 0.3 0 0zm1.18 3.83l-0.3 -0.3 0 0 0 -0.3 0 0 0 0 0 -0.3 0 0 0 -0.29 0 0 0 0 0 -0.3 0 0 0 0 0 -0.3 0 0 0 0 0 -0.3 -0.3 0 0 0 0 -0.3 0 0 -0.3 0 0 -0.3 0 0 0 0 -0.3 -0.3 0 0 0 0 0 -0.3 -0.3 0 0 0 0 -0.3 0 0 -0.29 -0.29 0.59 0 0 0 0 0 0 0.29 0.3 0 0 0 0 0.3 0 0 0.29 0 0 0.3 0 0 0 0 0.3 0.3 0 0 0 0.3 0 0 0.3 0 0 0.3 0 0 0 0 0.3 0.3 0 0 0 0.3 0 0 0 0.3 0 0 0 0.29 0 0 0 0.3 0 0 0 0.3 -0.3 0 0 0.3 0 0 0 0zm-3.84 0.59l0 -0.3 0 0 0 0 0.3 0 0 0 0.3 0 0 0 0 0 0.3 0 0 0 0.3 0 0 0 0.3 0 0 0 0 0 0.3 0 0 0 0.29 0 0 0 0 0 0.3 0 0 0 0.3 0 0 0 0 0 0 0 0.3 0 0 0 0 -0.3 0.3 0 0 0 0 0 0 -0.29 0.3 0 0.3 0.29 0 0 -0.3 0 0 0.3 0 0 -0.3 0.3 0 0 0 0 -0.3 0 0 0 -0.3 0.3 0 0 -0.3 0 0 0 0 0 -0.3 0 0 0 -0.29 0 0 0 -0.3 0 0 0 -0.3 0 0 0 0 0 -0.3 0 0 0 -0.3 -0.3 0 0 -0.3 0 0 0 0 0 -0.3 0 0 0 0 0zm-2.65 -0.3l-0.59 0.3 0.3 -0.3 0 0 0.3 0 0 0 0 0 0.3 0 0 0 0 0 0.3 0 0 0 0 0 0.3 0 0 0 0 0 0.3 0 0 0 0 0 0.3 0 0 0 0 0 0 0 0.3 0 0 0 0 0 0.29 0 0 0 0 0 0 0 0.3 0 0 0 0 0 0 0 0.3 0 0 0.3 0 0.3 -0.3 0 0 0 0 0 -0.3 0 0 0 0 0 0 0 -0.29 0 0 0 0 0 -0.3 0 0 0 0 0 0 0 -0.3 0 0 0 0 0 -0.3 0 0 0 0 0 -0.3 0 0 0 0 0 -0.3 0 0 0 0 0 -0.3 0 0 0 0 0 -0.3 0 0 0 0.3 -0.59 0 0zm-0.59 0.3l0 -0.3 0.3 0 -0.3 0.3zm6.79 9.74l-0.59 0.3 0 0 0 -0.3 -0.3 -0.3 0 -0.3 -0.3 -0.3 -0.3 -0.29 0 -0.3 -0.3 -0.3 -0.3 -0.3 0 -0.3 -0.3 -0.59 -0.3 -0.3 0 -0.3 -0.29 -0.3 -0.3 -0.3 0 -0.3 -0.3 -0.29 -0.3 -0.3 0 -0.3 -0.3 -0.3 -0.3 -0.3 0 -0.3 -0.3 -0.3 -0.3 -0.3 0 -0.3 -0.3 -0.3 -0.3 -0.29 0 -0.3 -0.29 -0.3 -0.3 -0.3 0 -0.59 -0.3 -0.3 -0.3 -0.3 0.59 -0.3 0 0.59 0.3 0.3 0.3 0.3 0 0.3 0.3 0.3 0.3 0.3 0 0.3 0.29 0.29 0.3 0.3 0 0.3 0.3 0.3 0.3 0.3 0 0.3 0.3 0.3 0.3 0.3 0 0.59 0.3 0.3 0.3 0.3 0 0.29 0.3 0.3 0.3 0.3 0 0.3 0.29 0.3 0.3 0.3 0 0.3 0.3 0.3 0.3 0.3 0 0.3 0.3 0.29 0 0.3 0.3 0.3 0.3 0.3 0 0zm-2.07 3.25l0 -0.59 0 0 0.3 0 0.3 0 0 0 0.3 0 0 0 0.3 0 0 0 0.3 0 0 0 0.3 -0.3 0 0 0 0 0 0 0.29 0 0 -0.3 0 0 0 0 0 0 0 -0.3 0 0 0 0 0 -0.3 0 0 0 0 0 -0.3 0 0 0 -0.3 0 0 -0.29 -0.3 0 0 0 -0.29 -0.3 0 0.59 -0.3 0 0 0 0.3 0.3 0.29 0 0 0 0.3 0 0 0.3 0.3 0 0 0 0.3 0 0 0 0.3 0 0 0 0.3 0 0 0 0.3 -0.3 0 0 0 0 0.3 0 0 -0.3 0 0 0.3 -0.3 0 0 0 -0.3 0 0 0 -0.3 0.3 0 0 -0.3 0 0 0 -0.3 0 -0.3 0 -0.29 0 0 0 -0 0zm-7.38 0l0 -0.59 0 0 0.3 0 0 0 0.3 0 0.29 0 0.3 0 0.3 0 0 0 0.3 0 0.3 0 0.3 0 0.3 0 0 0.3 0.3 0 0.3 0 0.3 0 0.29 0 0 0 0.3 0 0.3 0 0.3 0 0.3 0 0 0 0.3 0 0.3 0 0.3 -0.3 0.3 0 0 0 0.29 0 0.3 0 0.3 0 0.3 0 0 0 0 0.59 0 0 -0.3 0 -0.3 0 -0.3 0 -0.29 0 0 0 -0.3 0 -0.3 0 -0.3 0 -0.3 0 0 0 -0.3 0 -0.3 0 -0.3 0 -0.3 0 0 0 -0.29 0 -0.3 0 -0.3 0 -0.3 0 0 0 -0.3 0 -0.3 0 -0.3 0 -0.3 0 0 0 -0.3 0 -0.3 0 -0.29 0 -0.3 0 0 0 -0.3 0 0 0zm-3.25 -0.3l-0.3 0 0 -0.3 0.3 0 0 0 0.3 0 0 0 0 0 0.3 0 0 0 0 0 0.3 0 0 0 0 0 0.3 0 0 0 0 0 0.3 0 0 0 0.29 0 0 0 0 0 0.3 0 0 0 0 0 0.3 0 0 0 0 0 0.3 0 0 0 0 0 0.3 0 0 0 0 0 0.3 0 0 0.59 -0.3 0 0 0 0 0 -0.3 0 0 0 0 0 -0.3 0 0 0 0 0 -0.3 0 0 0 0 0 -0.3 0 0 0 0 0 -0.29 0 0 0 -0.3 0 0 0 0 0 -0.3 0 0 0 0 0 -0.3 0 0 0 0 0 -0.3 0 0 0 0 0 -0.3 0 0 0 -0.3 0 0.3 -0.3 0 0zm-0.3 0l-0.3 -0.3 0.3 0 0 0.3zm12.69 8.56l0.3 0 0 0.3 -0.59 0 -0.3 0 -0.59 0 -0.59 0 -0.59 0 -0.3 0 -0.59 -0.3 -0.59 0 -0.59 -0.3 -0.29 0 -0.59 -0.3 -0.59 -0.29 -0.3 -0.3 -0.59 -0.3 -0.59 -0.3 -0.3 -0.3 -0.59 -0.3 -0.3 -0.3 -0.59 -0.3 -0.3 -0.3 -0.59 -0.3 -0.3 -0.59 -0.29 -0.29 -0.3 -0.59 -0.3 -0.29 -0.3 -0.3 -0.3 -0.59 -0.3 -0.3 -0.3 -0.59 0 -0.3 -0.3 -0.59 0 -0.59 0.3 0 0.3 0.59 0 0.29 0.3 0.3 0 0.59 0.3 0.3 0.3 0.59 0.3 0.3 0.3 0.59 0.29 0.3 0.3 0.3 0.3 0.3 0.59 0.59 0.3 0.3 0.59 0.3 0.3 0.3 0.59 0.3 0.3 0.3 0.59 0.3 0.3 0.29 0.59 0.3 0.59 0.3 0.3 0 0.59 0.3 0.59 0 0.3 0.3 0.59 0 0.59 0.3 0.3 0 0.59 0 0.59 0 0.3 0 0.59 0 -0.29 0 0 0zm0.3 0l0 0.3 0 0 0 -0.3zm-0.3 -4.13l0.3 0 0 0 0 0.29 0 0 0 0 0 0.3 0.3 0 0 0.3 0 0 0 0.3 0 0 0 0.3 0 0 0 0 0 0.3 0 0 0 0.3 0 0 0 0.3 0 0 0 0.3 0 0 0 0 0 0.29 0 0 -0.3 0.3 0 0 0 0.3 0 0 0 0.3 0 0 0 0 0 0.3 0 0 -0.3 0 0 0 0 -0.3 0 0 0 0 0 -0.3 0 0 0 -0.3 0 0 0 -0.3 0 0 0 -0.29 0 0 0 0 0 -0.3 0 0 0 -0.3 0 0 0 -0.3 0 0 0 -0.3 0 0 0 0 0 -0.3 0 0 0 -0.3 0 0 0 -0.3 0 0 0 0 0 -0.3 0 0 0 -0.29 0 0zm1.77 -2.07l0 0.3 0 0 -0.3 0 0 0 0 0 -0.3 0 0 0 0 0 0 0.29 -0.3 0 0 0 0 0 0 0 0 0 0 0 -0.3 0 0 0.3 0 0 0 0 0 0 0 0 0 0.3 0 0 0 0 0 0 0 0.3 0 0 0 0 0 0.3 0 0 -0.3 0 0 0.3 0 0 0 0 -0.3 0 0 0 0 -0.3 0 0 0 0 0 -0.3 0 0 0 0 0 -0.3 0 0 0 0 0 0 0 -0.3 0.3 0 0 0 0 -0.3 0 0 0 0 0 0 0 -0.29 0.3 0 0 0 0 0 0 -0.3 0.3 0 0 0 0 0 0.3 0 0 0 0.3 0 0 0 0 0 0.3 0 0 0zm1.77 2.07l-0.59 0 0 0 0 0 0 0 0 -0.3 0 0 0 0 0 -0.3 0 0 0 0 0 0 0 -0.3 0 0 0 0 0 0 0 -0.3 -0.29 0 0 0 0 0 0 0 0 -0.3 0 0 0 0 0 0 -0.3 0 0 0 0 0 0 -0.3 -0.3 0 0 0 0 0 0 0 -0.3 0 0 0 0 -0.3 0 0 0.3 0 0 0 0.3 0 0 0 0 0 0.3 0 0 0 0 0.3 0 0 0.29 0 0 0 0 0 0 0.3 0.3 0 0 0 0 0 0 0.3 0 0 0 0 0 0.3 0 0 0 0 0 0.3 0 0 0 0 0.3 0.3 0 0 0 0 0 0.3 0 0 0 0 0 0 0 0zm-0.29 4.13l0 0.3 -0.3 0 0 -0.3 0 0 0 -0.3 0 0 0 -0.3 0 0 0 0 0 -0.29 0 0 0 -0.3 0 0 0 -0.3 0 0 0 -0.3 0 0 0 -0.3 0 0 0 0 0 -0.3 0 0 0 -0.3 0 0 0 -0.3 0 0 0 -0.3 0 0 0 0 0 -0.3 0 0 0 -0.29 0 0 0 -0.3 0.59 0 0 0.3 0 0 0 0.29 0 0 0 0.3 0 0 0 0 0 0.3 0 0 0 0.3 0 0 0 0.3 0 0 0 0.3 0 0 0 0 0 0.3 0 0 0 0.3 0 0 0 0.3 0 0 0 0.3 0 0 0 0.29 0 0 0 0 0 0.3 0 0 0 0.3 0 0 0 0.3 -0.3 -0.3 0 0zm0 0.3l-0.3 0 0 0 0.3 0zm13.28 -10.63l0.3 -0.59 0 0.3 0 0.59 0 0.59 -0.3 0.59 0 0.59 -0.3 0.59 -0.29 0.59 -0.3 0.3 -0.3 0.59 -0.3 0.59 -0.3 0.59 -0.3 0.3 -0.3 0.59 -0.59 0.3 -0.3 0.59 -0.59 0.3 -0.3 0.3 -0.59 0.59 -0.59 0.3 -0.3 0.3 -0.59 0.3 -0.59 0.3 -0.59 0.3 -0.59 0 -0.59 0.3 -0.59 0.29 -0.59 0 -0.59 0.3 -0.59 0 -0.59 0 -0.59 0 -0.59 0 -0.59 0 0 -0.3 0.59 0 0.59 0 0.59 0 0.59 0 0.59 -0.29 0.59 0 0.59 -0.3 0.59 0 0.59 -0.3 0.59 -0.3 0.3 0 0.59 -0.3 0.59 -0.3 0.59 -0.3 0.3 -0.59 0.59 -0.3 0.3 -0.3 0.59 -0.3 0.3 -0.59 0.3 -0.29 0.59 -0.59 0.3 -0.29 0.3 -0.59 0.3 -0.59 0.29 -0.3 0.3 -0.59 0.3 -0.59 0 -0.59 0.3 -0.3 0 -0.59 0.3 -0.59 0 -0.59 0 0.3 0 0zm0.3 -0.59l0 0.3 0 0 0 -0.3zm7.68 0.89l0 0 0 0 0 0 0 0.3 0 -0.3zm0 0l0.29 0 0 0 -0.29 0zm-4.13 0.3l0 -0.3 0 0 0.3 0 0 0 0.3 0 0 0 0 0 0.3 0 0 0 0.29 0 0 0 0.3 0 0 -0.3 0 0 0.3 0 0 0 0.3 0 0 0 0.3 0 0 0 0 0 0.3 0.3 0 0 0.3 0 0 0 0.3 0 0 0 0.3 0 0 0 0 0 0.29 0 0 0 0.3 0 0 0 0 0.3 0 0 -0.3 0 0 0 -0.29 0 0 0 0 0 -0.3 0 0 0 -0.3 0 0 0 -0.3 0 0 0 -0.3 0 0 0 0 0 -0.3 0 0 0 -0.3 0 0 0 -0.3 0 0 0 0 0 -0.3 0 0 0 -0.29 0 0 0 0 0 -0.3 0 0 0 -0.3 0 0 0 -0.3 0 0 0zm0 0l0 0 0.3 0 -0.3 0zm-0.59 0.89l-0.59 -0.3 0 0 0 0 0.3 0 0 0 0 0 0 0 0 -0.3 0 0 0 0 0 0 0 0 0 0 0 0 0.3 -0.3 0 0 0 0 0 0 0 0 0 0 0 0 0 0 0.3 -0.3 0 0 0 0 0 0 0 0 0 0 0 0 0.3 0 0 0 0 0 0 0 0 0 0 0.3 0 0 0 0 0 0 0 0 0 0 0 0 0 0 0 0 0 0 0 0.3 0 0 -0.3 0 0 0 0 0 0 0 0 0 0 0 0 0 0 0 0 0 0 0.3 -0.3 0 0 0 0 0 0 0 0 0 0 0 0 0 0 0 0 0 0 0.3 0 0 0 0 0 0zm0 0l0 0 0 0 0 0zm-12.69 11.81l-0.3 -0.3 0 0 0.59 -0.3 0.59 -0.3 0.59 0 0.59 -0.3 0.59 0 0.59 -0.3 0.59 -0.3 0.3 -0.3 0.59 -0.29 0.59 0 0.3 -0.3 0.59 -0.3 0.3 -0.3 0.59 -0.3 0.3 -0.59 0.59 -0.3 0.3 -0.3 0.3 -0.3 0.29 -0.59 0.59 -0.3 0.29 -0.3 0.3 -0.59 0.3 -0.3 0.3 -0.59 0.3 -0.59 0.3 -0.3 0 -0.59 0.3 -0.59 0.3 -0.59 0 -0.59 0.3 -0.59 0 -0.59 0.59 0.3 -0.3 0.59 0 0.59 -0.3 0.59 0 0.59 -0.3 0.59 -0.3 0.3 -0.3 0.59 -0.3 0.59 -0.3 0.3 -0.3 0.59 -0.29 0.59 -0.3 0.3 -0.3 0.3 -0.59 0.59 -0.3 0.3 -0.3 0.3 -0.59 0.59 -0.3 0.3 -0.59 0.3 -0.3 0.3 -0.59 0.3 -0.59 0.29 -0.3 0.3 -0.59 0.3 -0.59 0 -0.59 0.3 -0.3 0.3 -0.59 0.3 -0.59 0 -0.59 0.3 -0.59 0 -0.59 0.3 0 0 0 0zm-3.54 0.89l-0.29 -0.3 0 0 0 0 0 0 0.29 -0.3 0 0 0 0 0.3 0 0 0 0 -0.3 0.3 0 0 0 0.3 0 0 0 0 0 0.3 0 0 0 0.3 0 0 0 0 -0.3 0.3 0 0 0 0.3 0 0 0 0.3 0 0 0 0.3 0 0 0 0 0 0.29 0 0 0 0.3 0 0 0 0 0 0.3 0.3 -0.3 0 0 0 -0.3 0 0 0 0 0 -0.29 0.3 0 0 -0.3 0 0 0 -0.3 0 0 0 0 0 -0.3 0 0 0 -0.3 0 0 0 -0.3 0 0 0 0 0 -0.3 0 0 0 0 0.3 -0.3 0 0 0 0 0 -0.3 0 0 0 0 0 0 0 -0.3 0.3 0 0 0 0 0 0zm0 3.54l-0.59 0 0 0 0 -0.3 0 0 0 0 0 -0.29 0 0 0 -0.3 0 0 0 0 0 -0.3 0 0 0 -0.3 0 0 0 -0.3 0 0 0 0 0 -0.3 0 0 0 -0.3 0 0 0 -0.3 0 0 0 0 0 -0.3 0 0 0 -0.3 0 0 0 0 0 -0.29 0 0 0.3 0 0 -0.3 0 0 0.3 0.3 0 0 0 0 0 0.29 0 0 -0.3 0 0 0 0 0.3 0 0 0 0 0 0.3 0 0 0 0.3 0 0 0 0 0 0.3 0 0 0 0 0 0.3 0 0 0 0.3 0 0 0 0.3 0 0 0 0 0 0.3 0 0 0 0.3 0 0 0 0.29 0.3 0 0 0 0 0.3 0 0 0 0zm-0.29 5.91l0 0.3 -0.3 -0.3 0 0 0 -0.3 0 0 0 -0.3 0 -0.3 0 0 0 -0.3 0 -0.3 0 0 0 -0.3 0 -0.3 0 0 0 -0.29 0 -0.3 0 0 0 -0.3 0 0 0 -0.3 0 -0.3 0 0 0 -0.3 0 -0.3 0 0 0 -0.3 0 -0.3 0 0 0 -0.3 0 -0.29 0 0 0 -0.3 0 -0.3 0 0 0.59 0 0 0.3 0 0 0 0.3 0 0 0 0.29 -0.3 0.3 0 0 0 0.3 0 0.3 0 0 0 0.3 0 0.3 0 0 0 0.3 0 0.3 0 0 0 0.3 0 0 0 0.3 0 0.29 0 0 0 0.3 0 0.3 0.3 0 0 0.3 0 0.3 0 0 0 0.3 0 0.3 0 0 0 0.3 0 0 -0.3 0 0 0zm0 0.3l-0.3 0 0 -0.3 0.3 0.3zm21.25 -0.3l0.29 0 -0.29 0.3 -0.59 0 -0.59 0 -0.59 0 -0.89 0 -0.59 0 -0.59 0 -0.59 0 -0.89 0 -0.59 0 -0.59 0 -0.59 0 -0.89 0 -0.59 0 -0.59 0 -0.89 0 -0.59 0 -0.59 0 -0.59 0 -0.88 0 -0.59 0 -0.59 0 -0.59 0 -0.89 0 -0.59 0 -0.59 0 -0.59 0 -0.89 0 -0.59 0 -0.59 0 -0.89 0 -0.59 0 -0.59 0 0 -0.3 0.59 0 0.59 0 0.89 0 0.59 0 0.59 0 0.89 0 0.59 0 0.59 0 0.59 0 0.89 0 0.59 0 0.59 0 0.59 0 0.88 0 0.59 0 0.59 0 0.59 0 0.89 0 0.59 0 0.59 0 0.89 0 0.59 0 0.59 0 0.59 0 0.89 0 0.59 0 0.59 0 0.59 0 0.89 0 0.59 0 0.59 0 0.59 0 0 0zm0.29 0l0 0.3 -0.29 0 0.29 -0.3zm-0.29 -23.02l0 -0.3 0.29 0 0 0.89 0 0.59 0 0.89 0 0.59 0 0.89 0 0.59 0 0.89 0 0.59 0 0.89 0 0.59 0 0.89 0 0.59 0 0.88 0 0.59 0 0.89 0 0.59 0 0.89 0 0.59 0 0.89 0 0.59 0 0.59 0 0.89 0 0.59 0 0.89 0 0.59 0 0.89 0 0.59 0 0.89 0 0.59 0 0.89 0 0.59 0 0.59 -0.29 0 0 -0.59 0 -0.59 0 -0.89 0 -0.59 0 -0.89 0 -0.59 0 -0.89 0 -0.59 0 -0.89 0 -0.59 0 -0.89 0 -0.59 0 -0.59 0 -0.89 0 -0.59 0 -0.89 0 -0.59 0 -0.89 0 -0.59 0 -0.88 0 -0.59 0 -0.89 0 -0.59 0 -0.89 0 -0.59 0 -0.89 0 -0.59 0 -0.89 0 -0.59 0 -0.89 0 -0.59 0 -0.89 0 0.3zm0 -0.3l0.29 0 0 0 -0.29 0zm-24.2 23.61l0 0 0 0 0 0 -0.3 0 0.3 0zm0.3 0l0 0 -0.3 0 0.3 0zm-0.59 -9.15l0.59 0 0 0 0 0.3 0 0.3 0 0.3 0 0.3 0 0.3 -0.3 0.3 0 0.3 0 0.3 0 0.3 0 0.29 0 0.3 0 0 0 0.3 0 0.3 0 0.3 0 0.3 0 0.3 0 0.3 0 0.3 0 0.29 0 0.3 0 0.3 0 0.3 0 0.3 0 0.3 0 0.3 0.3 0.3 0 0.3 0 0.3 0 0.29 0 0.3 0 0.3 -0.59 0 0 -0.3 0 -0.3 0 -0.29 0 -0.3 0 -0.3 0 -0.3 0 -0.3 0 -0.3 0 -0.3 0 -0.3 0 -0.3 0 -0.3 0 -0.29 0 -0.3 0 -0.3 0 -0.3 0 -0.3 0 -0.3 0 -0.3 0 -0.3 0 0 0 -0.3 0 -0.29 0 -0.3 0 -0.3 0 -0.3 0 -0.3 0 -0.3 0 -0.3 0 -0.3 0 -0.3 0 -0.3 0 0zm-1.18 -1.18l0 -0.3 0 0 0.3 0 0 0 0 0 0 0 0.3 0 0 0 0 0 0.3 0 0 0 0 0 0 0 0.3 0 0 0.3 0 0 0 0 0 0 0.29 0 0 0 0 0.3 0 0 0 0 0 0 0 0.29 0 0 0 0 0 0 0.3 0.3 0 0 0 0 0 0.3 0 0 0 0 -0.59 0 0 0 0 0 0 -0.3 0 0 0 0 0 0 0 -0.3 0 0 0 0 0 0 0 0 0 0 0 -0.29 -0.3 0 0 0 0 0 0 0 0 0 0 0 0 0 0 0 -0.3 0 0 0 0 -0.3 0 0 0 0 -0.29 0 0 0 0 0 0 0 -0.3 0 0 0 0 0 0 0zm-11.81 -5.61l0.3 -0.3 0 0 0.3 0.3 0.3 0.3 0.3 0.3 0.3 0.3 0.59 0.3 0.3 0 0.3 0.3 0.3 0.3 0.29 0.29 0.3 0.3 0.3 0 0.3 0.3 0.3 0.3 0.59 0 0.3 0.3 0.3 0.3 0.3 0 0.59 0.3 0.3 0 0.3 0.3 0.3 0 0.59 0.3 0.3 0 0.29 0 0.59 0.29 0.3 0 0.3 0 0.59 0.3 0.3 0 0.3 0 0.59 0 0.3 0.3 0 0.3 -0.3 0 -0.59 0 -0.3 -0.3 -0.59 0 -0.3 0 -0.3 0 -0.59 -0.3 -0.3 0 -0.59 -0.3 -0.3 0 -0.29 0 -0.59 -0.29 -0.29 0 -0.3 -0.3 -0.3 0 -0.59 -0.3 -0.3 -0.3 -0.3 0 -0.3 -0.3 -0.59 -0.3 -0.3 0 -0.3 -0.3 -0.3 -0.3 -0.3 -0.3 -0.3 -0.29 -0.29 0 -0.3 -0.3 -0.59 -0.3 -0.3 -0.3 -0.3 -0.3 -0.3 -0.3 -0.3 -0.3 0 0 0 0zm-1.18 -2.06l-0.3 0 0.3 -0.3 0 0 0 0.3 0.3 0 0 0 0 0 0 0 0 0.3 0.3 0 0 0 0 0 0 0.29 0 0 0 0 0.3 0 0 0 0 0.3 0 0 0 0 0 0 0.3 0 0 0.3 0 0 0 0 0 0 0 0 0.3 0.3 0 0 0 0 0 0 0 0 0 0 0 0.3 -0.3 0.3 0 -0.3 0 0 0 0 0 0 -0.3 0 0 -0.3 0 0 0 0 0 0 0 0 0 0 -0.3 -0.3 0 0 0 0 0 0 0 -0.3 0 0 -0.3 0 0 0 0 0 0 -0.3 0 0 0 0 -0.3 0 0 0 0 -0.29 0 0 0 0 -0.3 0 0 -0.3 0 0 0 0 0.3 0zm-0.3 0l0 -0.89 0.3 0.59 -0.3 0.3zm0.3 17.71l0 0.3 -0.3 0 0 -0.59 0 -0.59 0 -0.59 0 -0.59 0 -0.59 0 -0.59 0 -0.59 0 -0.59 0 -0.3 0 -0.59 0 -0.59 0 -0.59 0 -0.59 0 -0.59 0 -0.59 0 -0.59 0 -0.59 0 -0.59 0 -0.3 0 -0.59 0 -0.59 0 -0.59 0 -0.59 0 -0.59 0 -0.59 0 -0.59 0 -0.59 0 -0.59 0 -0.59 0 -0.59 0 -0.59 0 -0.3 0.3 0 0 0.3 0 0.59 0 0.59 0 0.59 0 0.59 0 0.59 0 0.59 0 0.59 0 0.59 0 0.59 0 0.59 0 0.59 0 0.59 0 0.3 0 0.59 0 0.59 0 0.59 0 0.59 0 0.59 0 0.59 0 0.59 0 0.59 0 0.59 0 0.3 0 0.59 0 0.59 0 0.59 0 0.59 0 0.59 0 0.59 0 0.59 0 0.59 0 -0.3zm0 0.3l-0.3 0 0 0 0.3 0zm14.17 0l0.59 0 -0.3 0 -0.59 0 -0.3 0 -0.59 0 -0.59 0 -0.3 0 -0.59 0 -0.3 0 -0.59 0 -0.3 0 -0.59 0 -0.3 0 -0.59 0 -0.3 0 -0.59 0 -0.59 0 -0.3 0 -0.59 0 -0.3 0 -0.59 0 -0.3 0 -0.59 0 -0.3 0 -0.59 0 -0.3 0 -0.59 0 -0.3 0 -0.59 0 -0.3 0 -0.59 0 -0.3 0 -0.59 0 -0.3 0 0 -0.3 0.3 0 0.59 0 0.3 0 0.59 0 0.3 0 0.59 0 0.3 0 0.59 0 0.3 0 0.59 0 0.3 0 0.59 0 0.3 0 0.59 0 0.3 0 0.59 0 0.3 0 0.59 0 0.59 0 0.3 0 0.59 0 0.3 0 0.59 0 0.3 0 0.59 0 0.3 0 0.59 0 0.3 0 0.59 0 0.59 0 0.3 0 0.59 0 -0.3 0.3 0 0zm0.59 0l0 0 -0.3 0 0.3 0zm-24.8 -21.84l0 0 0 0 0 0 0.3 0 -0.3 0zm-0.3 0l0 -0.3 0.3 0 -0.3 0.3zm0.3 21.55l0 0.3 -0.29 -0.3 0 -0.59 0 -0.59 0 -0.59 0 -0.89 0 -0.59 0 -0.59 0 -0.89 0 -0.59 0 -0.59 0 -0.59 0 -0.89 0 -0.59 0 -0.59 0 -0.89 0 -0.59 0 -0.59 0 -0.89 0 -0.59 0 -0.59 0 -0.59 0 -0.89 0 -0.59 0 -0.59 0 -0.89 0 -0.59 0 -0.59 0 -0.89 0 -0.59 0 -0.59 0 -0.89 0 -0.59 0 -0.59 0.59 0 0 0.59 0 0.59 0 0.89 0 0.59 0 0.59 0 0.89 0 0.59 0 0.59 0 0.89 0 0.59 0 0.59 0 0.89 0 0.59 0 0.59 0 0.59 0 0.89 0 0.59 0 0.59 0 0.89 0 0.59 0 0.59 0 0.89 0 0.59 0 0.59 0 0.59 0 0.89 0 0.59 0 0.59 0 0.89 0 0.59 0 0.59 0 0.59 -0.3 0 -0 0zm0 0.3l-0.29 0 0 -0.3 0.29 0.3zm6.5 -0.3l0.59 0 -0.3 0.3 -0.3 0 -0.3 0 0 0 -0.3 0 -0.3 0 0 0 -0.3 0 -0.3 0 -0.3 0 0 0 -0.29 0 -0.3 0 0 0 -0.3 0 -0.3 0 0 0 -0.3 0 -0.3 0 -0.3 0 0 0 -0.3 0 -0.3 0 0 0 -0.29 0 -0.3 0 -0.3 0 0 0 -0.3 0 -0.3 0 0 0 -0.3 0 -0.3 0 0 -0.3 0.3 0 0.3 0 0 0 0.3 0 0.3 0 0 0 0.3 0 0.3 0 0.29 0 0 0 0.3 0 0.3 0 0 0 0.3 0 0.3 0 0.3 0 0 0 0.3 0 0.3 0 0 0 0.3 0 0.29 0 0 0 0.3 0 0.3 0 0.3 0 0 0 0.3 0 0.3 0 0 0 0.3 0 0.3 0 -0.3 0 0 0zm0.59 0l0 0.3 -0.3 0 0.3 -0.3zm-0.3 -21.25l0 -0.59 0.3 0.3 0 0.59 0 0.59 0 0.89 0 0.59 0 0.59 0 0.89 0 0.59 0 0.59 0 0.89 0 0.59 0 0.59 0 0.59 0 0.89 0 0.59 0 0.59 0 0.89 0 0.59 0 0.59 0 0.89 0 0.59 0 0.59 0 0.59 0 0.89 0 0.59 0 0.59 0 0.89 0 0.59 0 0.59 0 0.89 0 0.59 0 0.59 0 0.59 -0.59 0 0 -0.59 0 -0.59 0 -0.59 0 -0.89 0 -0.59 0 -0.59 0 -0.89 0 -0.59 0 -0.59 0 -0.89 0 -0.59 0 -0.59 0 -0.59 0 -0.89 0 -0.59 0 -0.59 0 -0.89 0 -0.59 0 -0.59 0 -0.89 0 -0.59 0 -0.59 0 -0.59 0 -0.89 0 -0.59 0 -0.59 0 -0.89 0 -0.59 0 -0.59 0 -0.89 0 -0.59 0 -0.59 0.29 0.29 0 0zm0 -0.59l0.3 0 0 0.3 -0.3 -0.3zm-6.5 0.3l-0.59 0 0.3 -0.3 0.3 0 0.3 0 0 0 0.3 0 0.3 0 0 0 0.3 0 0.29 0 0.3 0 0 0 0.3 0 0.3 0 0 0 0.3 0 0.3 0 0.3 0 0 0 0.3 0 0.3 0 0 0 0.3 0 0.29 0 0.3 0 0 0 0.3 0 0.3 0 0 0 0.3 0 0.3 0 0 0 0.3 0 0.3 0 0 0.59 -0.3 0 -0.3 0 0 0 -0.3 0 -0.3 0 0 0 -0.3 0 -0.3 0 0 0 -0.3 0 -0.29 0 -0.3 0 0 0 -0.3 0 -0.3 0 0 0 -0.3 0 -0.3 0 -0.3 0 0 0 -0.3 0 -0.3 0 0 0 -0.3 0 -0.29 0 -0.3 0 0 0 -0.3 0 -0.3 0 0 0 -0.3 0 -0.3 0 0.3 -0.3 0 0zm-0.59 0l0 -0.3 0.3 0 -0.3 0.3zm52.24 -1.48l0 0 0 0 0 0 0.3 0 -0.3 0zm0 0l0 -0.3 0 0 0 0.3zm0 23.02l0 0.3 0 0 0 -0.89 0 -0.59 0 -0.88 0 -0.59 0 -0.89 0 -0.59 0 -0.89 0 -0.59 0 -0.89 0 -0.59 0 -0.89 0 -0.59 0 -0.59 0 -0.89 0 -0.59 0 -0.89 0 -0.59 0 -0.89 0 -0.59 0 -0.89 0 -0.59 0 -0.89 0 -0.59 0 -0.59 0 -0.89 0 -0.59 0 -0.89 0 -0.59 0 -0.89 0 -0.59 0 -0.89 0 -0.59 0.3 0 0 0.59 0 0.89 0 0.59 0 0.89 0 0.59 0 0.89 0 0.59 0 0.89 0 0.59 0 0.59 0 0.89 0 0.59 0 0.89 0 0.59 0 0.89 0 0.59 0 0.89 0 0.59 0 0.89 0 0.59 0 0.59 0 0.89 0 0.59 0 0.89 0 0.59 0 0.89 0 0.59 0 0.89 0 0.59 0 0.88 0 0.59 0 0.89 -0.3 -0.3zm0 0.3l0 0 0 0 0 0zm1.48 0l0.59 0 -0.3 0 0 0 0 0 -0.3 0 0 0 0 0 0 0 0 0 -0.3 0 0 0 0 0 0 0 0 0 0 0 -0.29 0 0 0 0 0 0 0 0 0 0 0 -0.3 0 0 0 0 0 0 0 0 0 0 0 -0.3 0 0 0 0 0 0 0 0 0 0 0 -0.3 0 0 -0.3 0.3 0 0 0 0 0 0 0 0 0 0 0 0.3 0 0 0 0 0 0 0 0 0 0 0 0.3 0 0 0 0 0 0 0 0 0 0 0 0.29 0 0 0 0 0 0 0 0 0 0 0 0.3 0 0 0 0 0 0 0 0 0 0.3 0 0 0 0 0 -0.3 0.3 0 0zm0.59 0l0 0 -0.3 0 0.3 0zm-0.3 -23.02l0 -0.59 0.3 0.3 0 0.59 0 0.89 0 0.59 0 0.89 0 0.59 0 0.89 0 0.59 0 0.89 0 0.59 0 0.59 0 0.89 0 0.59 0 0.89 0 0.59 0 0.89 0 0.59 0 0.89 0 0.59 0 0.89 0 0.59 0 0.59 0 0.89 0 0.59 0 0.89 0 0.59 0 0.89 0 0.59 0 0.89 0 0.59 0 0.89 0 0.59 0 0.89 -0.59 0 0 -0.89 0 -0.59 0 -0.89 0 -0.59 0 -0.89 0 -0.59 0 -0.89 0 -0.59 0 -0.89 0 -0.59 0 -0.89 0 -0.59 0 -0.59 0 -0.89 0 -0.59 0 -0.89 0 -0.59 0 -0.89 0 -0.59 0 -0.89 0 -0.59 0 -0.89 0 -0.59 0 -0.59 0 -0.89 0 -0.59 0 -0.89 0 -0.59 0 -0.89 0 -0.59 0 -0.89 0 -0.59 0.3 0.3 0 0zm0 -0.59l0.3 0 0 0.3 -0.3 -0.3zm-1.48 0.3l-0.3 0 0 -0.3 0.3 0 0 0 0 0 0 0 0 0 0 0 0.3 0 0 0 0 0 0 0 0 0 0 0 0.3 0 0 0 0 0 0 0 0 0 0 0 0.3 0 0 0 0 0 0 0 0 0 0 0 0.3 0 0 0 0 0 0 0 0 0 0.3 0 0 0 0 0 0 0.59 0 0 0 0 -0.3 0 0 0 0 0 0 0 0 0 -0.3 0 0 0 0 0 0 0 0 0 0 0 -0.3 0 0 0 0 0 0 0 0 0 0 0 -0.3 0 0 0 0 0 0 0 0 0 0 0 -0.3 0 0 0 0 0 0 0 0 0 0 0 -0.3 0 0.3 -0.3 0 0zm-0.3 0l0 -0.3 0 0 0 0.3z"/>
   </g>
  </g>
 </g>
</svg>
