<?xml version="1.0" encoding="UTF-8"?>
<!DOCTYPE svg PUBLIC "-//W3C//DTD SVG 1.1//EN" "http://www.w3.org/Graphics/SVG/1.1/DTD/svg11.dtd">
<!-- Creator: CorelDRAW -->
<svg xmlns="http://www.w3.org/2000/svg" xml:space="preserve" width="0.14in" height="0.14in" version="1.1" style="shape-rendering:geometricPrecision; text-rendering:geometricPrecision; image-rendering:optimizeQuality; fill-rule:evenodd; clip-rule:evenodd"
viewBox="0 0 140 140"
 xmlns:xlink="http://www.w3.org/1999/xlink"
 xmlns:xodm="http://www.corel.com/coreldraw/odm/2003">
 <defs>
  <style type="text/css">
   <![CDATA[
    .str0 {stroke:#1C2335;stroke-width:3.33;stroke-miterlimit:2.61313}
    .fil0 {fill:none}
    .fil1 {fill:#1C2335;fill-rule:nonzero}
   ]]>
  </style>
 </defs>
 <g id="Layer_x0020_1">
  <metadata id="CorelCorpID_0Corel-Layer"/>
  <g id="_1819277118336">
   <circle class="fil0 str0" transform="matrix(0.602035 0.178576 -0.178576 0.602035 70 70)" r="107.11"/>
   <g id="_2562645672304">
    <g>
     <path class="fil1" d="M54.11 111.53c-2.05,0 -3.81,0 -5.57,0 -0.3,-0.59 -0.59,-0.88 -0.59,-1.46 0,-1.17 0,-2.35 0,-3.52 -4.39,0 -8.5,0 -12.89,0 0,1.17 0,2.34 0,3.52 0,0.59 -0.29,0.88 -0.59,1.46 -1.76,0 -3.81,0 -5.86,0 0,-27.83 0,-55.37 0,-82.91 2.05,0 4.1,0 5.86,0 0.3,0.3 0.59,0.88 0.59,1.17 0,1.17 0,2.34 0,3.81 3.52,0 7.03,0 10.55,0 0,0.29 0,0.88 0,1.46 -3.52,0 -7.03,0 -10.55,0 0,1.17 0,2.05 0,3.22 4.4,0 8.5,0 12.89,0 0,-2.93 0,-5.57 0,-8.5 0,-0.3 0.29,-0.88 0.59,-1.17 1.76,0 3.52,0 5.57,0 0,0.29 0.29,0.88 0.29,1.17 0,1.17 0,2.34 0,3.51 0.59,0 0.88,0 1.17,0 18.16,0 36.33,0 54.49,0.3 0.29,0 0.88,0.29 1.46,0.29 0,25.78 0,51.56 0,77.64 -2.05,0 -4.1,0 -6.15,0 0,-0.59 -0.3,-0.88 -0.3,-1.46 -0.29,-1.17 0,-2.34 0,-3.52 -16.11,0 -32.22,0 -48.04,0 0,-0.59 0,-1.17 0,-1.46 0,0 0.29,0 0.29,0 16.11,0 32.22,0 48.05,0 0.88,0 1.17,0 1.17,0.88 0,1.46 0,2.64 0,3.81 1.17,0 2.05,0 3.22,0 0,-24.9 0,-49.81 0,-74.71 -18.46,0 -36.91,0 -55.37,0 0,1.17 0,2.05 0,3.22 0.59,0 0.88,0 1.17,0 16.41,0 32.81,0 49.51,0 1.46,0 1.46,0 1.46,1.46 0,5.27 0,10.84 0,16.11 0,1.17 0,1.46 -1.46,1.46 -16.41,0 -33.1,0 -49.51,0 -0.29,0 -0.59,0 -1.17,0 0,0.88 0,2.05 0,3.22 0.59,0 0.88,0 1.17,0 16.41,0 33.11,0 49.51,0 1.17,0 1.46,0 1.46,1.17 0,5.57 0,10.84 0,16.41 0,1.46 0,1.46 -1.46,1.46 -16.41,0 -33.1,0 -49.51,0 -0.29,0 -0.59,0 -1.17,0 0,1.17 0,2.05 0,3.22 0.59,0 0.88,0 1.17,0 16.41,0 33.11,0 49.51,0 1.17,0 1.46,0 1.46,1.17 0,5.57 0,10.84 0,16.41 0,1.17 0,1.17 -1.46,1.17 -16.41,0 -33.1,0 -49.51,0 -0.29,0 -0.88,0 -1.17,0 0,2.93 0,5.86 0,8.5 0,0.59 -0.3,0.88 -0.3,1.46l0 0zm50.68 -26.95l0 0c-16.7,0 -33.4,0 -50.39,0 0,0.88 0,2.05 0,2.93 0.29,0 0.59,0 0.88,0 4.39,0 8.5,0 12.6,0 0.88,0 1.17,0.29 1.17,1.46 0,3.22 0,6.74 0,10.25 0,0.29 0,0.59 0,0.88 3.81,0 7.61,0 11.43,0 -0.59,-0.88 -1.17,-1.46 -1.76,-2.05 -0.88,-0.59 -0.88,-0.88 0,-1.46 2.64,-2.93 5.57,-5.57 8.2,-8.5 0.59,-0.59 1.17,-0.59 1.46,0 0.59,0.59 1.17,1.17 2.05,2.05 0,-0.59 0,-0.88 0,-1.17 0,-1.17 0,-1.46 1.46,-1.46 4.1,0 7.91,0 12.01,0 0.3,0 0.59,0 0.88,0 0,-0.88 0,-2.05 0,-2.93l0 0zm0 -22.56l0 0c-16.7,0 -33.4,0 -50.39,0 0,1.17 0,2.34 0,3.52 0.59,0 0.88,0 1.17,0 4.1,0 8.2,0 12.3,0 0.88,0 1.17,0.29 1.17,1.17 0,0.3 0,0.59 0,0.88 0,0 0,0.29 0.29,0.29 0.59,-0.59 0.88,-1.17 1.46,-1.76 0.59,-0.59 1.17,-0.59 1.76,0 2.64,2.64 5.57,5.57 8.2,8.2 0.59,0.59 0.59,0.88 0,1.76 -0.59,0.59 -1.17,1.17 -1.76,1.76 2.05,0 4.1,0 6.45,0 -0.88,-0.59 -1.46,-1.17 -2.05,-1.76 -0.59,-0.59 -0.59,-1.17 0,-1.76 2.93,-2.64 5.56,-5.57 8.5,-8.2 0.59,-0.59 0.88,-0.59 1.46,0 0.59,0.59 1.17,1.17 1.76,1.76 0,-0.59 0,-0.88 0,-1.17 0,-0.88 0.3,-1.17 1.17,-1.17 0.88,0 2.05,0 2.93,0 1.76,0 3.81,0 5.57,0 0,-1.17 0,-2.35 0,-3.52zm-50.39 -18.75l0 0c0.59,0 0.88,0 1.17,0 5.56,0 11.13,0 16.7,0 1.46,0 1.46,0 1.76,1.46 0,3.22 0,6.74 0,9.96 0,0.3 0,0.59 0,0.88 2.05,0 4.1,0 6.44,0 -0.59,-0.59 -1.17,-1.46 -1.76,-2.05 -0.88,-0.59 -0.88,-0.88 0,-1.46 2.64,-2.64 5.57,-5.57 8.2,-8.5 0.59,-0.3 1.17,-0.3 1.46,0 0.59,0.58 1.17,1.17 1.76,1.76 0.3,-0.29 0.3,-0.29 0.3,-0.59 0,-1.46 0,-1.46 1.46,-1.46 4.1,0 8.2,0 12.3,0 0,0 0.29,0 0.59,0 0,-1.17 0,-2.34 0,-3.22 -16.7,0 -33.4,0 -50.39,0 0,0.88 0,2.05 0,3.22zm-21.09 66.5l0 0c0,-26.66 0,-53.03 0,-79.39 -0.88,0 -2.05,0 -2.93,0 0,26.37 0,53.03 0,79.39 0.88,0 2.05,0 2.93,0zm19.63 0l0 0c0,-26.66 0,-53.03 0,-79.39 -1.17,0 -2.34,0 -3.22,0 0,26.37 0,53.03 0,79.39 0.88,0 2.05,0 3.22,0zm-17.87 -69.72l0 0c0,1.46 0,2.93 0,4.39 4.39,0 8.5,0 12.89,0 0,-1.46 0,-2.93 0,-4.39 -4.39,0 -8.5,0 -12.89,0zm0 26.66l0 0c4.39,0 8.5,0 12.89,0 0,-1.46 0,-2.93 0,-4.69 -4.39,0 -8.5,0 -12.89,0 0,1.76 0,3.22 0,4.69zm0 11.13l0 0c4.39,0 8.5,0 12.89,0 0,-1.46 0,-2.93 0,-4.69 -4.39,0 -8.5,0 -12.89,0 0,1.76 0,3.22 0,4.69zm0 22.26l0 0c4.39,0 8.5,0 12.89,0 0,-1.76 0,-3.22 0,-4.69 -4.39,0 -8.5,0 -12.89,0 0,1.46 0,2.93 0,4.69zm0 -11.13l0 0c4.39,0 8.5,0 12.89,0 0,-1.76 0,-3.22 0,-4.39 -4.39,0 -8.5,0 -12.89,0 0,1.46 0,2.93 0,4.39zm12.89 -33.4l0 0c0,-1.46 0,-2.93 0,-4.4 -4.39,0 -8.5,0 -12.89,0 0,1.46 0,2.93 0,4.4 4.4,0 8.5,0 12.89,0zm0 -6.15l0 0c0,-1.17 0,-2.05 0,-3.22 -4.39,0 -8.5,0 -12.89,0 0,1.17 0,2.35 0,3.22 4.4,0 8.5,0 12.89,0zm0 44.24l0 0c0,-0.88 0,-2.05 0,-2.93 -4.39,0 -8.5,0 -12.89,0 0,0.88 0,2.05 0,2.93 4.4,0 8.5,0 12.89,0zm-12.89 -33.4l0 0c4.39,0 8.5,0 12.89,0 0,-0.88 0,-2.05 0,-2.93 -4.39,0 -8.5,0 -12.89,0 0,0.88 0,2.05 0,2.93zm0 22.56l0 0c4.39,0 8.5,0 12.89,0 0,-1.17 0,-2.34 0,-3.22 -4.39,0 -8.5,0 -12.89,0 0,1.17 0,2.05 0,3.22zm12.89 -14.35l0 0c-4.39,0 -8.5,0 -12.89,0 0,1.17 0,2.05 0,3.22 4.4,0 8.5,0 12.89,0 0,-1.17 0,-2.05 0,-3.22zm-12.89 33.4l0 0c0,0.88 0,2.05 0,2.93 4.39,0 8.5,0 12.89,0 0,-0.88 0,-2.05 0,-2.93 -4.39,0 -8.5,0 -12.89,0zm24.31 -57.13l0 0c0,3.81 0,7.33 0,10.84 1.17,0 2.05,0 3.22,0 0,-3.52 0,-7.33 0,-10.84 -1.17,0 -2.05,0 -3.22,0zm4.98 0l0 0c0,3.81 0,7.33 0,10.84 0.88,0 2.05,0 2.93,0 0,-3.52 0,-7.33 0,-10.84 -0.88,0 -2.05,0 -2.93,0zm4.69 10.84l0 0c1.17,0 2.05,0 3.22,0 0,-3.52 0,-7.33 0,-10.84 -1.17,0 -2.05,0 -3.22,0 0,3.81 0,7.33 0,10.84zm31.05 22.26l0 0c0,-3.52 0,-7.03 0,-10.84 -1.17,0 -2.05,0 -3.22,0 0,3.81 0,7.32 0,10.84 1.17,0 2.05,0 3.22,0zm-45.7 -22.26l0 0c1.17,0 2.34,0 3.22,0 0,-3.52 0,-7.33 0,-10.84 -1.17,0 -2.05,0 -3.22,0 0,3.81 0,7.33 0,10.84zm47.46 11.43l0 0c0,3.81 0,7.32 0,10.84 0.88,0 2.05,0 2.93,0 0,-3.52 0,-7.03 0,-10.84 -0.88,0 -2.05,0 -2.93,0zm-7.03 2.93l0 0c-0.88,-0.88 -1.46,-1.46 -2.05,-2.34 -2.64,2.63 -4.98,5.27 -7.62,7.61 0.59,0.88 1.46,1.46 2.05,2.05 2.64,-2.34 4.98,-4.98 7.62,-7.32zm-2.93 30.17l0 0c1.17,0 2.34,0 3.22,0 0,-3.81 0,-7.32 0,-10.84 -0.88,0 -2.05,0 -3.22,0 0,3.52 0,7.03 0,10.84zm12.89 -10.84l0 0c-0.88,0 -2.05,0 -2.93,0 0,3.52 0,7.33 0,10.84 0.88,0 2.05,0 2.93,0 0,-3.81 0,-7.32 0,-10.84zm-7.91 0l0 0c0,3.52 0,7.33 0,10.84 1.17,0 2.05,0 3.22,0 0,-3.81 0,-7.32 0,-10.84 -1.17,0 -2.05,0 -3.22,0zm-9.08 0.59l0 0c-2.64,2.64 -4.98,4.98 -7.62,7.62 0.88,0.59 1.46,1.17 2.05,1.76 2.64,-2.34 4.98,-4.98 7.62,-7.32 -0.59,-0.59 -1.46,-1.46 -2.05,-2.05zm-20.51 -12.01l0 0c0,-3.52 0,-7.03 0,-10.55 -0.88,0 -2.05,0 -2.93,0 0,3.52 0,7.03 0,10.55 0.88,0 2.05,0 2.93,0zm-12.89 -10.84l0 0c0,3.81 0,7.32 0,10.84 1.17,0 2.34,0 3.22,0 0,-3.52 0,-7.03 0,-10.84 -0.88,0 -2.05,0 -3.22,0zm8.2 0.29l0 0c-1.17,0 -2.34,0 -3.22,0 0,3.52 0,7.03 0,10.55 1.17,0 2.05,0 3.22,0 0,-3.52 0,-7.03 0,-10.55zm16.7 7.91l0 0c-2.64,-2.34 -5.28,-4.98 -7.62,-7.32 -0.59,0.59 -1.46,1.46 -2.05,2.05 2.35,2.34 4.98,4.98 7.33,7.32 0.88,-0.59 1.46,-1.17 2.34,-2.05zm11.13 -19.63l0 0c0,-2.05 0,-4.1 0,-5.86 -2.05,2.05 -4.1,3.81 -5.86,5.86 1.76,0 3.81,0 5.86,0zm-21.39 22.26l0 0c2.05,0 4.1,0 5.86,0 -2.05,-1.76 -3.81,-3.81 -5.86,-5.86 0,2.05 0,3.81 0,5.86zm21.39 16.41l0 0c-2.05,2.05 -4.1,3.81 -5.86,5.86 1.76,0 3.81,0 5.86,0 0,-2.05 0,-4.1 0,-5.86zm1.76 -47.17l0 0c0,2.05 0,4.1 0,6.15 0.88,0 2.05,0 2.93,0 0,-2.05 0,-4.1 0,-6.15 -0.88,0 -2.05,0 -2.93,0zm4.69 0.3l0 0c0,1.76 0,3.81 0,5.86 1.17,0 2.05,0 3.22,0 0,-2.05 0,-4.1 0,-5.86 -1.17,0 -2.05,0 -3.22,0zm-39.26 50.39l0 0c0,-2.05 0,-3.81 0,-5.86 -1.17,0 -2.05,0 -3.22,0 0,2.05 0,3.81 0,5.86 1.17,0 2.34,0 3.22,0zm1.76 -5.86l0 0c0,2.05 0,3.81 0,5.86 1.17,0 2.05,0 3.22,0 0,-2.05 0,-3.81 0,-5.86 -1.17,0 -2.05,0 -3.22,0zm4.69 5.86l0 0c1.17,0 2.34,0 3.22,0 0,-2.05 0,-3.81 0,-5.86 -0.88,0 -2.05,0 -3.22,0 0,2.05 0,3.81 0,5.86zm40.72 -50.39l0 0c-0.88,0 -2.05,0 -2.93,0 0,1.76 0,3.81 0,5.86 0.88,0 2.05,0 2.93,0 0,-2.05 0,-4.1 0,-5.86zm-22.85 3.81l0 0c0.88,0.59 1.46,1.46 2.05,2.05 1.46,-1.17 2.93,-2.63 4.1,-4.1 -0.59,-0.59 -1.46,-1.46 -2.05,-2.05 -1.46,1.46 -2.64,2.64 -4.1,4.1zm7.32 26.66l0 0c2.05,0 4.1,0 5.86,0 0,-2.05 0,-3.81 0,-5.86 -1.76,2.05 -3.81,4.1 -5.86,5.86zm-31.64 11.43l0 0c-1.17,0 -2.05,0 -3.22,0 0,0.29 0,0.59 0,0.88 1.17,0 2.34,0 3.22,0 0,-0.29 0,-0.59 0,-0.88zm1.76 0.88l0 0c0.88,0 2.05,0 3.22,0 0,-0.29 0,-0.59 0,-0.88 -1.17,0 -2.05,0 -3.22,0 0,0.29 0,0.59 0,0.88zm4.98 0l0 0c0.88,0 2.05,0 2.93,0 0,-0.29 0,-0.59 0,-0.88 -0.88,0 -2.05,0 -2.93,0 0,0.29 0,0.59 0,0.88zm35.74 -45.41l0 0c-1.17,0 -2.05,0 -3.22,0 0,0.29 0,0.59 0,0.88 1.17,0 2.05,0 3.22,0 0,-0.29 0,-0.59 0,-0.88zm4.69 0l0 0c-0.88,0 -2.05,0 -2.93,0 0,0.29 0,0.59 0,0.88 0.88,0 2.05,0 2.93,0 0,-0.29 0,-0.59 0,-0.88zm-12.89 0.88l0 0c1.17,0 2.34,0 3.22,0 0,-0.29 0,-0.59 0,-0.88 -0.88,0 -2.05,0 -3.22,0 0,0.29 0,0.59 0,0.88zm4.98 9.96l0 0c1.17,0 2.05,0 3.22,0 0,-0.3 0,-0.59 0,-0.59 -1.17,0 -2.05,0 -3.22,0 0,0 0,0.29 0,0.59zm-4.98 0l0 0c1.17,0 2.34,0 3.22,0 0,-0.3 0,-0.59 0,-0.59 -0.88,0 -2.05,0 -3.22,0 0,0 0,0.29 0,0.59zm9.96 0l0 0c0.88,0 2.05,0 2.93,0 0,-0.3 0,-0.59 0,-0.88 -0.88,0 -2.05,0 -2.93,0 0,0.3 0,0.59 0,0.88zm-12.01 -7.91l0 0c-0.88,-0.88 -1.46,-1.46 -2.34,-2.34 0,0 -0.3,0.29 -0.3,0.29 0.88,0.88 1.46,1.76 2.35,2.35 0,0 0.29,-0.3 0.29,-0.3zm-9.67 4.98l0 0c0.88,0.88 1.46,1.76 2.35,2.35 0,0 0.29,-0.3 0.29,-0.3 -0.88,-0.88 -1.46,-1.46 -2.34,-2.34 0,0 -0.3,0.29 -0.3,0.29zm-22.56 47.46l0 0c0,0 0,-0.29 0.3,-0.29 -0.3,0 -0.59,-0.29 -0.59,-0.29 -0.88,0 -1.76,0 -2.64,0 -0.29,0 -0.29,0 -0.29,0.29 0.29,0 0.29,0.29 0.59,0.29 0.88,0 1.76,0 2.63,0zm4.69 0l0 0c0.29,0 0.29,-0.29 0.29,-0.29 -0.29,0 -0.29,-0.29 -0.59,-0.29 -0.59,0 -1.46,0 -2.05,0 -0.58,0 -0.58,0 -0.58,0.59 1.17,0 2.05,0 2.93,0l0 -0zm5.28 -0.29l0 0c-0.3,-0.29 -0.3,-0.29 -0.3,-0.29 -1.17,0 -2.05,0 -2.93,0 -0.29,0 -0.29,0 -0.29,0.29 0.29,0 0.29,0.29 0.59,0.29 0.88,0 1.46,0 2.34,0 0.29,0 0.29,-0.29 0.59,-0.29l0 0z"/>
     <path class="fil1" d="M94.54 94.83c0,1.17 0,2.05 0,3.22 -0.59,0 -1.17,0 -1.76,0 0,-1.17 0,-2.05 0,-3.22 0.59,0 1.17,0 1.76,0z"/>
     <path class="fil1" d="M104.2 98.06c-0.59,0 -1.17,0 -1.76,0 0,-1.17 0,-2.05 0,-3.22 0.59,0 1.17,0 1.76,0 0,0.88 0,2.05 0,3.22z"/>
     <path class="fil1" d="M99.22 98.06c-0.59,0 -0.88,0 -1.46,0 0,-1.17 0,-2.05 0,-3.22 0.59,0 0.88,0 1.46,0 0,0.88 0,2.05 0,3.22z"/>
     <path class="fil1" d="M84.58 94.24c0.29,0.3 0.58,0.59 0.88,0.88 -0.59,0.88 -1.46,1.46 -2.34,2.34 -0.3,-0.29 -0.59,-0.59 -0.88,-1.17 0.59,-0.59 1.46,-1.17 2.35,-2.05z"/>
     <path class="fil1" d="M64.95 69.34c0.59,0 1.17,0 1.76,0 0,2.05 0,4.39 0,6.44 -0.59,0 -1.17,0 -1.76,0 0,-2.05 0,-4.1 0,-6.44z"/>
     <path class="fil1" d="M55.28 69.34c0.59,0 1.17,0 1.46,0 0,2.05 0,4.39 0,6.44 -0.29,0 -0.88,0 -1.46,0 0,-2.05 0,-4.1 0,-6.44z"/>
     <path class="fil1" d="M60.26 75.79c0,-2.05 0,-4.39 0,-6.44 0.29,0 0.88,0 1.46,0 0,2.05 0,4.39 0,6.44 -0.59,0 -0.88,0 -1.46,0z"/>
     <path class="fil1" d="M77.25 74.32c-0.29,0.29 -0.59,0.59 -0.88,0.88 -1.46,-1.46 -3.22,-2.93 -4.69,-4.39 0.3,-0.29 0.59,-0.59 0.88,-0.88 1.46,1.46 2.93,2.93 4.69,4.39z"/>
    </g>
   </g>
  </g>
  <rect class="fil0" width="140" height="140"/>
 </g>
</svg>
