<?xml version="1.0" encoding="UTF-8"?>
<!DOCTYPE svg PUBLIC "-//W3C//DTD SVG 1.1//EN" "http://www.w3.org/Graphics/SVG/1.1/DTD/svg11.dtd">
<!-- Creator: CorelDRAW -->
<svg xmlns="http://www.w3.org/2000/svg" xml:space="preserve" width="0.14in" height="0.14in" version="1.1" style="shape-rendering:geometricPrecision; text-rendering:geometricPrecision; image-rendering:optimizeQuality; fill-rule:evenodd; clip-rule:evenodd"
viewBox="0 0 140 140"
 xmlns:xlink="http://www.w3.org/1999/xlink"
 xmlns:xodm="http://www.corel.com/coreldraw/odm/2003">
 <defs>
  <style type="text/css">
   <![CDATA[
    .str0 {stroke:#1C2335;stroke-width:3.33;stroke-miterlimit:2.61313}
    .fil0 {fill:none}
    .fil1 {fill:#1C2335;fill-rule:nonzero}
   ]]>
  </style>
 </defs>
 <g id="Layer_x0020_1">
  <metadata id="CorelCorpID_0Corel-Layer"/>
  <g id="_1783030186640">
   <g>
    <path class="fil0 str0" d="M133.05 88.7c10.33,-34.82 -9.53,-71.42 -44.35,-81.75 -34.82,-10.33 -71.42,9.53 -81.75,44.35 -10.33,34.82 9.53,71.42 44.35,81.75 34.82,10.33 71.42,-9.53 81.75,-44.35z"/>
   </g>
   <g id="_2134926184128">
    <g>
     <path class="fil1" d="M46.44 117.76c-0.57,-0.57 -1.15,-1.15 -0.86,-2 0.29,-0.86 1.15,-0.86 2,-0.86 5.44,0 11.17,0 16.9,0 0.29,0 0.86,0 1.15,0 0,-1.15 0,-2.29 0,-3.44 -1.72,0.28 -3.72,0.28 -4.87,-1.43 -0.57,-0.57 -0.86,-1.72 -1.15,-2.58 -0.28,-3.15 0.29,-4.3 2.58,-4.87 -3.15,-3.15 -4.58,-6.87 -4.01,-11.17 0.57,-3.15 2.01,-5.73 4.3,-7.73 4.87,-4.01 11.74,-3.44 16.04,1.15 4.3,4.3 4.87,12.31 -0.86,17.76 1.15,0.28 2.29,0.86 2.57,2 0,1.15 0.29,2.29 0,3.15 -0.57,3.44 -2.86,4.01 -5.73,3.72 0,1.15 0,2.29 0,3.44 10.03,0 20.05,0 30.08,0 -0.29,-2 -0.57,-3.72 -0.86,-5.73 -1.43,-8.88 -2.57,-17.76 -4.01,-26.64 -1.15,-7.16 -2.29,-14.61 -3.44,-21.77 0,-1.15 -0.57,-1.72 -1.72,-1.72 -6.59,0 -13.18,0 -19.76,0 -0.29,0 -0.29,0 -0.29,0 0,1.15 0,2.29 0,3.44 1.43,0 2.87,0 4.3,0 2.29,0 4.01,1.43 4.58,3.72 0.28,2.29 -1.43,4.58 -3.72,5.16 -0.29,0 -0.57,0 -0.57,0 -6.02,0 -12.03,0 -18.04,0 -2.87,0 -4.87,-2.58 -4.3,-5.44 0.57,-2.29 2.29,-3.44 4.58,-3.44 1.43,0 2.87,0 4.3,0 0,-1.15 0,-2.29 0,-3.44 -0.29,0 -0.57,0 -0.86,0 -6.3,0 -12.6,0 -18.62,0 -2,0 -2.29,0.28 -2.57,2.29 -1.43,9.17 -2.87,18.33 -4.3,27.5 -1.15,8.59 -2.57,16.9 -3.72,25.2 0,0.29 0,0.57 0,0.86 1.15,0 2.57,0 4.01,0 0.57,0 0.86,0 1.43,0 0.86,0 1.43,0 1.72,0.86 0.28,0.86 0,1.43 -0.86,2 -4.3,0 -8.59,0 -13.17,0 -2.01,-1.43 -2.29,-2 -1.72,-4.58 1.72,-11.17 3.44,-22.34 5.16,-33.51 0.28,-2.29 0.57,-4.58 0.86,-6.87 0.29,-0.86 0.86,-1.43 1.72,-1.43 0.86,0.29 1.15,0.86 1.15,2.01 -2.29,13.46 -4.3,26.93 -6.3,40.67 0,0.28 0,0.57 0,0.86 0.86,0 2,0 3.15,0 0.29,-1.72 0.57,-3.44 0.86,-5.44 1.43,-9.45 2.86,-19.19 4.3,-28.93 1.15,-6.87 2,-13.75 3.15,-20.33 0.29,-2.58 2.01,-4.01 4.58,-4.01 6.3,0 12.61,0 18.91,0 0.29,0 0.57,0 1.15,0 0,-1.15 0,-2.29 0,-3.44 -0.29,0 -0.57,0 -0.86,0 -7.16,0 -14.32,0 -21.48,0 -2.87,0 -4.58,1.72 -5.16,4.87 -0.57,3.15 -0.86,6.3 -1.43,9.45 -0.29,1.15 -0.86,1.72 -1.43,1.43 -0.86,0 -1.43,-0.57 -1.15,-1.72 0.29,-3.72 0.86,-7.16 1.43,-10.89 0.86,-3.44 3.72,-5.73 7.44,-5.73 7.16,-0.29 14.32,0 21.48,-0.29 0.29,0 0.57,0 1.15,0 0,-0.28 0,-0.57 0,-0.86 0,-7.73 0,-15.76 0,-23.49 0,-2.58 1.72,-3.72 4.3,-3.15 6.59,2.29 13.18,4.58 19.76,6.87 1.72,0.57 2.29,1.72 2.29,2.86 0,1.43 -0.57,2.58 -2.29,3.15 -4.58,1.72 -9.45,3.15 -14.32,4.87 -0.29,0 -0.57,0.29 -1.15,0.29 0,3.15 0,6.3 0,9.45 0.57,0 0.86,0 1.15,0 7.16,0 14.04,0 21.2,0.29 4.58,0 7.16,2.29 8.02,7.16 1.43,9.74 2.86,19.48 4.3,29.22 1.43,8.88 2.87,18.04 4.3,27.21 0.29,2.01 -0.28,3.15 -2,4.01 -21.48,0 -43.25,0 -64.74,0l0 0zm28.07 -61.58l0 0c0.29,0 0.57,0 1.15,0 6.02,0 12.32,0 18.62,0 2.58,0 4.3,1.43 4.58,4.01 0.86,4.3 1.43,8.88 2.29,13.17 1.15,8.88 2.58,17.76 4.01,26.64 0.57,4.87 1.43,9.45 2,14.32 0.29,0.29 0.29,0.57 0.57,0.57 0.86,0 1.72,0 2.87,0 -0.29,-1.43 -0.29,-2.87 -0.57,-4.3 -1.43,-8.88 -2.87,-17.76 -4.01,-26.64 -1.43,-8.59 -2.86,-17.47 -4.3,-26.35 -0.29,-3.15 -2,-4.87 -5.16,-4.87 -7.16,0 -14.04,0 -21.2,0 -0.28,0 -0.57,0 -0.86,0 0,1.15 0,2.29 0,3.44l0 0zm4.58 36.95l0 0c0,-5.15 -4.01,-9.45 -9.17,-9.45 -4.87,0 -9.17,4.3 -9.17,9.45 0,5.16 4.3,9.45 9.17,9.45 5.16,0 9.17,-4.3 9.17,-9.45zm10.31 -60.72l0 0c0,0 0,-0.28 0,-0.28 -7.16,-2.29 -14.04,-4.87 -20.91,-7.16 0,4.87 0,9.74 0,14.61 6.87,-2.29 13.75,-4.87 20.91,-7.16l0 0zm-12.03 73.04l0 0c-4.87,0 -10.02,0 -14.89,0 0,0.29 0,0.57 0,0.86 0,2.01 0.28,2.58 2.29,2.58 3.15,0 6.59,-0.29 10.02,0 2.87,0 2.87,-0.86 2.87,-3.15 0,-0.29 0,-0.29 -0.29,-0.29zm-8.88 -46.4l0 0c0,3.15 0,6.3 0,9.45 1.15,0 2,0 3.15,0 0,-3.15 0,-6.3 0,-9.45 -1.15,0 -2.29,0 -3.15,0zm3.15 -2.87l0 0c0,-2.29 0,-4.3 0,-6.3 -1.15,0 -2.29,0 -3.15,0 0,2.01 0,4.01 0,6.3 0.86,0 2,0 3.15,0zm-6.02 8.88l0 0c-0.57,0 -0.86,0 -1.43,0 -1.15,0 -2.29,0 -3.15,0.28 -1.15,0 -1.72,0.57 -1.72,1.43 0,0.86 0.57,1.72 1.43,1.72 1.43,0 3.15,0 4.87,0 0,-1.15 0,-2.01 0,-3.44l0 0zm8.88 3.44l0 0c1.43,0 2.87,0 4.58,0 0.86,0 1.43,-0.57 1.43,-1.43 0,-0.86 -0.57,-1.72 -1.43,-1.72 -1.43,-0.28 -3.15,0 -4.58,0 0,0.86 0,2.01 0,3.15zm-6.01 -21.48l0 0c0.86,0 2,0 3.15,0 0,-2 0,-3.72 0,-5.44 -1.15,0.28 -2.29,0.57 -3.15,0.86 0,1.43 0,2.87 0,4.58zm0 64.74l0 0c0,1.15 0,2 0,3.15 1.15,0 2,0 3.15,0 0,-1.15 0,-2.29 0,-3.15 -1.15,0 -2.29,0 -3.15,0z"/>
     <path id="_1" class="fil1" d="M45.58 115.76l0.29 0.29 0 0 0 0 0 0 0 0 0 0.28 0 0 0 0 0 0 0 0 0 0.29 0 0 0 0 0 0 0 0 0 0 0 0.29 0 0 0 0 0 0 0.29 0 0 0 0 0.28 0 0 0 0 0 0 0 0 0.28 0 0 0 0 0.29 0 0 0 0 0 0 0.29 0 -0.29 0.57 -0.28 -0.29 0 0 0 0 0 0 0 0 -0.29 0 0 -0.29 0 0 0 0 0 0 0 0 -0.29 -0.28 0 0 0 0 0 0 0 0 0 -0.29 0 0 0 0 -0.28 0 0 -0.29 0 0 0 0 0 0 0 -0.28 0 0 0 0 0 -0.29 0 0 0 0 0 -0.29 0.28 0 0 0 0 0zm2 -1.15l0 0.57 0 0 -0.28 0 0 0 0 0 0 0 -0.29 0 0 0 0 0 0 0 -0.29 0 0 0 0 0 0 0 0 0 0 0 -0.28 0 0 0 0 0 0 0.28 0 0 0 0 -0.29 0 0 0 0 0 0 0 0 0 0 0 0 0.29 0 0 -0.29 0 0 0 0 0 0 0.29 -0.29 -0.29 0 0 0 -0.29 0 0 0 0 0 0 0 -0.28 0.29 0 0 0 0 0 0 0 0 -0.29 0.29 0 0 0 0 0 0 0 0.29 0 0 0 0 0 0 0 0.28 0 0 -0.29 0 0 0 0 0.29 0 0 0 0 0 0 0 0.29 0 0 0 0 0 0 0 0.28 0 0 0 0 0zm16.9 0l0 0.57 0 0 -0.57 0 -0.28 0 -0.57 0 -0.57 0 -0.57 0 -0.57 0 -0.57 0 -0.57 0 -0.57 0 -0.29 0 -0.57 0 -0.57 0 -0.57 0 -0.57 0 -0.57 0 -0.57 0 -0.29 0 -0.57 0 -0.57 0 -0.57 0 -0.57 0 -0.57 0 -0.57 0 -0.57 0 -0.28 0 -0.57 0 -0.57 0 -0.57 0 -0.57 0 -0.57 0 -0.57 0 -0.29 0 0 -0.57 0.29 0 0.57 0 0.57 0 0.57 0 0.57 0 0.57 0 0.57 0 0.28 0 0.57 0 0.57 0 0.57 0 0.57 0 0.57 0 0.57 0 0.57 0 0.29 0 0.57 0 0.57 0 0.57 0 0.57 0 0.57 0 0.57 0 0.29 0 0.57 0 0.57 0 0.57 0 0.57 0 0.57 0 0.57 0 0.57 0 0.28 0 0.57 0 0 0zm0.86 0.29l0.57 0 -0.29 0.28 0 0 0 0 -0.28 0 0 0 0 0 0 0 0 0 0 0 0 0 0 0 0 0 -0.29 0 0 0 0 0 0 0 0 0 0 0 0 0 0 0 0 0 -0.29 0 0 0 0 0 0 0 0 0 0 0 0 0 0 0 0 0 -0.29 0 0 0 0 0 0 -0.57 0 0 0 0 0.29 0 0 0 0 0 0 0 0 0 0 0 0 0 0 0 0 0 0.29 0 0 0 0 0 0 0 0 0 0 0 0 0 0 0 0 0 0.29 0 0 0 0 0 0 0 0 0 0 0 0 0 0 0 0 0 0.28 0 0 0 0 0 -0.28 0.28 -0 0zm0.57 0l0 0.28 -0.29 0 0.29 -0.28zm-0.29 -3.15l0 -0.57 0.29 0.29 0 0.28 0 0 0 0 0 0.29 0 0 0 0.29 0 0 0 0 0 0.28 0 0 0 0 0 0.29 0 0 0 0.29 0 0 0 0 0 0.28 0 0 0 0 0 0.29 0 0 0 0 0 0.29 0 0 0 0.28 0 0 0 0 0 0.29 0 0 0 0 0 0.29 0 0 -0.57 0 0 0 0 -0.29 0 0 0 0 0 -0.29 0 0 0 0 0 -0.28 0 0 0 -0.29 0 0 0 0 0 -0.29 0 0 0 0 0 -0.28 0 0 0 0 0 -0.29 0 0 0 -0.29 0 0 0 0 0 -0.28 0 0 0 0 0 -0.29 0 0 0 -0.29 0 0 0 0 0 -0.28 0.29 0.28 0 0zm0 -0.57l0.29 0 0 0.29 -0.29 -0.29zm-5.16 -0.86l0.57 -0.29 0 0 0 0 0 0.29 0.29 0 0 0 0.28 0.28 0 0 0 0 0.29 0.29 0 0 0.29 0 0 0 0.28 0.29 0 0 0.29 0 0 0 0.29 0 0 0 0.28 0 0 0 0.29 0 0 0.28 0.29 0 0.28 0 0 0 0.29 0 0 0 0.29 0 0 0 0.28 0 0.29 0 0 0 0.29 -0.28 0 0.57 -0.29 0 0 0 -0.29 0 0 0 -0.28 0 -0.29 0 0 0 -0.29 0 0 0 -0.28 0 -0.29 0 0 0 -0.29 0 0 0 -0.28 0 -0.29 0 0 0 -0.29 -0.28 0 0 -0.28 0 0 0 -0.29 0 0 -0.29 -0.29 0 0 0 -0.28 -0.29 0 0 -0.29 0 0 -0.28 -0.29 0 0 -0.29 -0.28 0 0 0 -0 0zm0.57 -0.29l0 0 -0.57 -0.57 0.57 0.57zm-1.43 -2.58l0.29 0 0 0 0 0 0 0.29 0 0 0 0 0 0 0 0.29 0 0 0.29 0 0 0.28 0 0 0 0 0 0 0 0.29 0 0 0 0 0 0.29 0 0 0.28 0 0 0 0 0.28 0 0 0 0 0 0 0 0.29 0.29 0 0 0 0 0 0 0.29 0 0 0 0 0 0 0.29 0.28 -0.57 0.29 0 -0.29 0 0 0 0 0 0 -0.29 -0.28 0 0 0 0 0 0 0 -0.29 0 0 0 0 -0.28 -0.29 0 0 0 0 0 -0.28 0 0 0 0 0 0 -0.29 -0.29 0 0 0 0 0 -0.29 0 0 0 0 0 -0.28 0 0 0 0 0 -0.29 0 0 0 0 0 -0.29 0 0 0 0 0 0zm2.58 -4.87l0.29 -0.28 0 0.57 -0.29 0 -0.29 0 0 0 -0.28 0 -0.29 0.29 0 0 -0.29 0 0 0 -0.28 0.29 0 0 0 0 -0.29 0.28 0 0 0 0 -0.29 0.29 0 0 0 0.29 0 0 0 0.28 -0.29 0 0 0.29 0 0.29 0 0 0 0.28 0 0.29 0 0 0 0.29 0 0.28 0 0.29 0 0.29 0 0.28 0 0.29 -0.28 0 -0.29 -0.29 0 -0.28 0 -0.29 0 -0.29 0 -0.28 0 -0.29 0 0 0 -0.29 0 -0.28 0.29 -0.29 0 0 0 -0.29 0 -0.28 0 0 0.28 -0.29 0 0 0 -0.29 0 -0.28 0.29 0 0 0 0.29 -0.29 0 0 0.29 -0.29 0 0 0.28 0 0 -0.28 0.29 0 0 0 0.29 0 0.28 -0.29 0 0 0.29 0 0 0.29 0 -0zm0.29 -0.28l0.28 0.28 -0.28 0.29 0 -0.57 0 0zm-4.58 -10.89l0.57 0 0 0 0 0.57 0 0.28 0 0.29 0 0.57 0 0.28 0 0.29 0 0.57 0 0.28 0 0.29 0 0.57 0.29 0.28 0 0.29 0 0.29 0 0.57 0.29 0.29 0 0.29 0.28 0.28 0 0.29 0.29 0.29 0 0.57 0.29 0.29 0.28 0.29 0 0.28 0.29 0.29 0.29 0.29 0 0.28 0.28 0.29 0.29 0.29 0.29 0.28 0.28 0.29 0.29 0.29 0.29 0.28 -0.29 0.29 -0.29 -0.29 -0.28 -0.28 -0.29 -0.29 -0.29 -0.29 -0.28 -0.28 -0.29 -0.29 -0.29 -0.29 0 -0.28 -0.28 -0.29 -0.29 -0.29 0 -0.28 -0.29 -0.57 -0.28 -0.29 0 -0.28 -0.29 -0.29 0 -0.29 -0.29 -0.57 0 -0.29 0 -0.29 -0.28 -0.28 0 -0.57 0 -0.29 -0.29 -0.28 0 -0.57 0 -0.29 0 -0.28 0 -0.57 0 -0.29 0 -0.57 0 -0.29 0 -0.57 0 -0.28 0 0 0 0zm4.3 -7.73l0.29 0.28 0 0 0 0.29 -0.29 0 -0.29 0.29 0 0.28 -0.28 0 -0.29 0.29 0 0.29 -0.29 0 -0.28 0.28 0 0.29 -0.29 0.29 0 0 -0.29 0.28 0 0.29 -0.29 0.29 0 0.28 -0.28 0 0 0.29 -0.29 0.29 0 0.28 0 0.29 -0.29 0.29 0 0.29 0 0.28 -0.28 0.29 0 0 0 0.29 0 0.28 0 0.29 -0.29 0.29 0 0.28 0 0.29 -0.57 0 0.29 -0.29 0 -0.28 0 -0.29 0 -0.29 0 -0.28 0.29 -0.29 0 -0.29 0 -0.28 0.28 -0.29 0 -0.29 0 -0.29 0.29 -0.28 0 -0.29 0 0 0.29 -0.29 0 -0.28 0.29 -0.29 0 -0.29 0.28 -0.28 0 -0.29 0.29 0 0 -0.29 0.29 -0.28 0.28 -0.29 0 0 0.29 -0.29 0.29 -0.28 0 -0.29 0.28 0 0.29 -0.29 0.29 -0.28 0 0 0 0 0 0zm16.61 0.86l-0.57 0.28 0 0 -0.29 -0.28 -0.28 -0.57 -0.57 -0.29 -0.29 -0.28 -0.57 -0.29 -0.57 -0.29 -0.29 -0.28 -0.57 -0.29 -0.57 -0.29 -0.29 0 -0.57 -0.28 -0.57 0 -0.57 -0.29 -0.57 0 -0.57 0 -0.29 -0.29 -0.57 0 -0.57 0 -0.57 0 -0.57 0.29 -0.57 0 -0.28 0 -0.57 0.29 -0.57 0 -0.57 0.28 -0.57 0.29 -0.29 0 -0.57 0.29 -0.57 0.28 -0.29 0.29 -0.57 0.57 -0.57 0.28 -0.29 -0.28 0.57 -0.57 0.57 -0.29 0.28 -0.28 0.57 -0.29 0.57 -0.29 0.57 -0.28 0.57 -0.29 0.29 0 0.57 -0.29 0.57 0 0.57 -0.28 0.57 0 0.57 0 0.57 0 0.57 0 0.57 0 0.57 0 0.57 0 0.29 0 0.57 0.28 0.57 0 0.57 0.29 0.57 0.29 0.57 0.28 0.29 0 0.57 0.29 0.57 0.29 0.57 0.57 0.28 0.29 0.57 0.29 0.29 0.28 0.57 0.57 0 0 0 0zm-1.15 17.76l0 0.57 0 -0.57 0.28 -0.57 0.57 -0.29 0.29 -0.57 0.57 -0.57 0.29 -0.57 0.29 -0.57 0.28 -0.57 0.29 -0.57 0.29 -0.57 0.28 -0.57 0 -0.57 0.29 -0.57 0 -0.57 0 -0.57 0.29 -0.57 0 -0.57 0 -0.57 0 -0.57 -0.29 -0.57 0 -0.57 0 -0.57 -0.29 -0.57 0 -0.57 -0.28 -0.57 -0.29 -0.57 -0.29 -0.57 -0.28 -0.57 -0.29 -0.57 -0.29 -0.29 -0.28 -0.57 -0.29 -0.28 -0.57 -0.57 0.57 -0.29 0.29 0.57 0.28 0.29 0.57 0.57 0.29 0.57 0.28 0.28 0.29 0.57 0.29 0.57 0 0.57 0.28 0.57 0.29 0.57 0 0.57 0.29 0.57 0 0.57 0 0.57 0 0.86 0 0.57 0 0.57 0 0.57 0 0.57 -0.29 0.57 0 0.57 -0.29 0.86 -0.28 0.57 0 0.57 -0.29 0.57 -0.29 0.57 -0.57 0.57 -0.29 0.57 -0.29 0.57 -0.57 0.57 -0.57 0.57 -0.29 0.28 -0.28 -0.28zm0 0.57l-0.57 -0.29 0.57 -0.28 0 0.57 0 0zm2.57 1.72l-0.28 0 0 0 0 0 0 -0.29 0 0 -0.29 0 0 -0.29 0 0 0 0 0 -0.28 0 0 -0.29 0 0 0 0 0 0 -0.29 0 0 -0.28 0 0 0 0 0 0 -0.29 -0.29 0 0 0 0 0 -0.29 0 0 0 0 -0.28 -0.28 0 0 0 0 0 -0.29 0 0 0 0 0 -0.29 0 0 0 0 -0.57 0.29 0 0 0 0 0 0.29 0 0 0 0.28 0.29 0 0 0 0 0.29 0 0 0 0 0 0.29 0.28 0 0 0 0 0.28 0 0 0 0 0.29 0.29 0 0 0 0 0 0 0.29 0.29 0 0 0 0 0.28 0 0 0.28 0 0 0.29 0 0 0 0 0 0.29 0 0 0 0.28 0 0 0 0zm0.29 3.44l-0.57 -0.29 0 0 0 0 0 0 0 -0.29 0 0 0 0 0.28 -0.28 0 0 0 -0.29 0 0 0 0 0 -0.29 0 0 0 0 0 -0.28 0 0 0 0 0 -0.29 0 0 -0.28 0 0 -0.29 0 0 0 -0.28 0 0 0 0 0 -0.29 0 0 0 0 0 -0.29 0 0 0 0 0 -0.28 0 0 0.28 0 0 0 0.29 0 0 0.28 0 0 0 0 0 0.29 0 0 0 0.29 0 0 0 0 0 0.28 0 0 0 0 0 0.29 0 0 0 0.29 0 0 0 0 0 0.28 0 0 0 0 0 0.29 0 0 0 0.29 0 0 0 0 0 0.28 0 0 0 0 0 0.29 0 0 0 0.29 0 0 0 0zm-6.02 3.44l-0.28 0 0.28 -0.29 0.29 0.29 0 0 0.29 0 0.28 0 0.29 0 0.29 0 0.28 0 0.29 -0.29 0 0 0.29 0 0.28 0 0.29 0 0 0 0.29 -0.29 0.28 0 0 0 0.29 -0.28 0.29 0 0 0 0.28 -0.29 0 0 0.29 -0.29 0 -0.28 0.29 0 0 -0.29 0 -0.29 0.29 0 0 -0.28 0 -0.29 0.28 -0.29 0 -0.28 0 -0.29 0.57 0.29 0 0.28 -0.29 0.29 0 0.29 0 0.28 -0.29 0 0 0.29 -0.28 0.29 0 0.28 -0.29 0.29 0 0 -0.29 0.29 0 0 -0.28 0.28 -0.29 0 0 0.29 -0.29 0 -0.28 0.29 0 0 -0.29 0 -0.29 0 -0.28 0.28 -0.29 0 0 0 -0.29 0 -0.28 0 -0.29 0 -0.29 0 -0.28 0 -0.29 0 -0.29 0 -0.28 0 0 0 0 -0.28 -0 0zm-0.28 0l0 -0.29 0.28 0 -0.28 0.29zm0.28 3.15l0 0.57 -0.28 -0.29 0 0 0 -0.29 0 0 0 -0.28 0 0 0 0 0 -0.29 0 0 0 0 0 -0.29 0 0 0 0 0 -0.28 0 0 0 -0.29 0 0 0 0 0 -0.29 0 0 0 0 0 -0.28 0 0 0 0 0 -0.29 0 0 0 0 0 -0.29 0 0 0 -0.29 0 0 0 0 0 -0.28 0.28 0 0 0.28 0 0 0 0 0 0.29 0 0 0 0.29 0 0 0 0 0 0.29 0 0 0 0 0 0.28 0 0 0 0 0 0.29 0 0 0 0 0 0.29 0 0 0 0.28 0 0 0 0 0 0.29 0 0 0 0 0 0.29 0 0 0 0 0 0.28 0 0 0 0.29 0 0 0 -0.29 0 0zm0 0.57l-0.28 0 0 -0.29 0.28 0.29zm29.79 -0.29l0.57 0 -0.29 0.28 -0.86 0 -1.15 0 -0.86 0 -0.86 0 -1.15 0 -0.86 0 -0.86 0 -0.86 0 -1.15 0 -0.86 0 -0.86 0 -1.15 0 -0.86 0 -0.86 0 -1.15 0 -0.86 0 -0.86 0 -0.86 0 -1.15 0 -0.86 0 -0.86 0 -1.15 0 -0.86 0 -0.86 0 -0.86 0 -1.15 0 -0.86 0 -0.86 0 -1.15 0 -0.86 0 -0.86 0 -0.86 0 0 -0.57 0.86 0 0.86 0 0.86 0 1.15 0 0.86 0 0.86 0 1.15 0 0.86 0 0.86 0 0.86 0 1.15 0 0.86 0 0.86 0 1.15 0 0.86 0 0.86 0 0.86 0 1.15 0 0.86 0 0.86 0 1.15 0 0.86 0 0.86 0 1.15 0 0.86 0 0.86 0 0.86 0 1.15 0 0.86 0 0.86 0 1.15 0 0.86 0 -0.29 0.28 0 0zm0.57 0l0 0.28 -0.28 0 0.28 -0.28zm-1.43 -5.73l0.57 0 0 0 0 0 0 0.28 0 0.29 0 0 0 0.29 0 0.28 0.29 0 0 0.29 0 0 0 0.29 0 0.28 0 0 0 0.29 0 0 0 0.29 0 0.28 0 0 0.29 0.29 0 0.29 0 0 0 0.28 0 0 0 0.29 0 0.29 0 0 0 0.29 0 0.28 0 0 0.28 0.29 0 0 0 0.29 0 0.28 -0.57 0 0 -0.28 0 0 0 -0.29 0 -0.29 0 0 0 -0.28 0 0 -0.29 -0.29 0 -0.29 0 0 0 -0.29 0 -0.28 0 0 0 -0.29 0 0 0 -0.29 0 -0.28 0 0 -0.29 -0.29 0 -0.29 0 0 0 -0.28 0 0 0 -0.29 0 -0.29 0 0 0 -0.28 0 0 0 -0.29 -0.28 -0.29 0 0 0 -0.28 0 0zm-4.01 -26.64l0.57 0 0 0 0 0.86 0 0.86 0.28 0.86 0 0.86 0.29 0.57 0 0.86 0.29 0.86 0 0.86 0.28 0.86 0 0.86 0 0.86 0.29 0.86 0 0.86 0.29 0.86 0 0.57 0.28 0.86 0 0.86 0.29 0.86 0 0.86 0.29 0.86 0 0.86 0 0.86 0.28 0.86 0 0.86 0.29 0.57 0 0.86 0.29 0.86 0 0.86 0.28 0.86 0 0.86 0 0.86 0.29 0.86 -0.57 0 0 -0.86 -0.28 -0.86 0 -0.86 -0.29 -0.86 0 -0.57 0 -0.86 -0.29 -0.86 0 -0.86 -0.28 -0.86 0 -0.86 -0.29 -0.86 0 -0.86 -0.29 -0.86 0 -0.86 0 -0.57 -0.28 -0.86 0 -0.86 -0.29 -0.86 0 -0.86 -0.29 -0.86 0 -0.86 -0.28 -0.86 0 -0.86 0 -0.86 -0.29 -0.86 0 -0.57 -0.29 -0.86 0 -0.86 -0.28 -0.86 0 -0.86 -0.29 -0.86 0 -0.86 0 0zm-3.44 -21.77l0.57 0 0 0 0 0.57 0.28 0.86 0 0.57 0 0.86 0.29 0.57 0 0.57 0.29 0.86 0 0.57 0 0.57 0.28 0.86 0 0.57 0 0.86 0.29 0.57 0 0.57 0 0.86 0.29 0.57 0 0.57 0.28 0.86 0 0.57 0 0.57 0.29 0.86 0 0.57 0 0.86 0.29 0.57 0 0.57 0 0.86 0.28 0.57 0 0.57 0.29 0.86 0 0.57 0 0.86 0.29 0.57 -0.57 0 0 -0.57 -0.29 -0.86 0 -0.57 0 -0.57 -0.28 -0.86 0 -0.57 -0.29 -0.57 0 -0.86 0 -0.57 -0.29 -0.86 0 -0.57 0 -0.57 -0.28 -0.86 0 -0.57 0 -0.57 -0.29 -0.86 0 -0.57 -0.29 -0.57 0 -0.86 0 -0.57 -0.28 -0.86 0 -0.57 0 -0.57 -0.29 -0.86 0 -0.57 0 -0.57 -0.29 -0.86 0 -0.57 0 -0.86 -0.28 -0.57 0 -0.57 -0.29 -0.86 0 0zm-1.43 -1.43l0 -0.57 0 0 0 0 0 0 0.29 0 0 0 0 0 0.29 0 0 0 0 0 0.28 0.28 0 0 0 0 0.29 0 0 0 0 0 0 0.29 0.29 0 0 0 0 0 0 0.29 0.28 0 0 0 0 0 0 0.28 0 0 0 0 0 0.29 0.29 0 0 0 0 0.29 0 0 0 0.28 0 0 -0.57 0 0 0 0 0 0 -0.28 0 0 0 0 0 -0.29 0 0 0 0 0 -0.29 -0.28 0 0 0 0 0 0 0 0 -0.28 0 0 0 0 -0.29 0 0 0 0 0 0 -0.29 0 0 -0.29 0 0 0 0 0 0 0 -0.28 0 0 0 0 0 0 0 -0.29 0 0 0 0 0 0 0 0 0zm-19.76 0l0 -0.57 0 0 0.57 0 0.57 0 0.57 0 0.57 0 0.57 0 0.86 0 0.57 0 0.57 0 0.57 0 0.57 0 0.57 0 0.86 0 0.57 0 0.57 0 0.57 0 0.57 0 0.57 0 0.57 0 0.86 0 0.57 0 0.57 0 0.57 0 0.57 0 0.57 0 0.86 0 0.57 0 0.57 0 0.57 0 0.57 0 0.57 0 0.57 0 0.86 0 0 0.57 -0.86 0 -0.57 0 -0.57 0 -0.57 0 -0.57 0 -0.57 0 -0.57 0 -0.86 0 -0.57 0 -0.57 0 -0.57 0 -0.57 0 -0.57 0 -0.86 0 -0.57 0 -0.57 0 -0.57 0 -0.57 0 -0.57 0 -0.57 0 -0.86 0 -0.57 0 -0.57 0 -0.57 0 -0.57 0 -0.57 0 -0.86 0 -0.57 0 -0.57 0 -0.57 0 -0.57 0 -0.57 0 0 0zm-0.29 -0.28l-0.28 0 0 -0.29 0.28 0 0 0 0 0 0 0 0 0 0 0 0 0 0 0 0 0 0 0 0 0 0 0 0 0 0 0 0 0 0 0 0 0 0 0 0 0 0 0 0 0 0 0 0 0 0 0 0 0 0 0 0 0 0.29 0 0 0 0 0 0 0 0 0 0 0.57 0 0 0 0 0 0 0 0 0 0 0 0 0 0 0 0 0 0 0 0 0 0 0 0 0 0 0 0 -0.29 0 0 0 0 0 0 0 0 0 0 0 0 0 0 0 0 0 0 0 0 0 0 0 0 0 0 0 0 0 0 0 0 0 0 0 0 -0.29 0 0zm-0.28 0l0 -0.29 0 0 0 0.29zm0.28 3.15l0 0.29 -0.28 0 0 -0.29 0 0 0 -0.29 0 0 0 0 0 -0.28 0 0 0 0 0 -0.29 0 0 0 0 0 -0.29 0 0 0 -0.28 0 0 0 0 0 -0.29 0 0 0 0 0 -0.29 0 0 0 0 0 -0.29 0 0 0 0 0 -0.28 0 0 0 0 0 -0.29 0 0 0 -0.29 0 0 0.28 0 0 0 0 0.29 0 0 0 0.29 0 0 0 0 0 0.28 0 0 0 0 0 0.29 0 0 0 0 0 0.29 0 0 0 0 0 0.29 0 0 0 0 0 0.28 0 0 0 0.29 0 0 0 0 0 0.29 0 0 0 0 0 0.28 0 0 0 0 0 0.29 0 0 0 0.29 0 -0.29zm0 0.29l-0.28 0 0 0 0.28 0zm4.3 -0.29l0 0.29 0 0 -0.29 0 0 0 -0.29 0 0 0 -0.28 0 0 0 -0.29 0 0 0 0 0 -0.29 0 0 0 -0.28 0 0 0 -0.29 0 0 0 -0.29 0 0 0 -0.29 0 0 0 -0.28 0 0 0 -0.29 0 0 0 -0.29 0 0 0 -0.28 0 0 0 0 0 -0.29 0 0 0 -0.29 0 0 0 0 -0.29 0 0 0.29 0 0 0 0.29 0 0 0 0 0 0.28 0 0 0 0.29 0 0 0 0.29 0 0 0 0.28 0 0 0 0.29 0 0 0 0.29 0 0 0 0.29 0 0 0 0.28 0 0 0 0.29 0 0 0 0 0 0.29 0 0 0 0.28 0 0 0 0.29 0 0 0 0.29 0 0 0zm4.58 4.01l-0.29 0 0 0 0 -0.29 0 0 -0.29 -0.29 0 -0.28 0 0 0 -0.29 -0.28 0 0 -0.29 0 -0.29 -0.29 0 0 -0.28 0 0 -0.29 -0.29 0 0 -0.28 -0.29 0 0 -0.29 0 0 -0.28 -0.29 0 0 0 -0.28 -0.29 0 0 -0.29 0 -0.29 -0.29 0 0 -0.29 0 -0.28 0 0 0 -0.29 0 -0.29 0 0 0 -0.28 -0.28 0 -0.29 0.28 0 0 0 0.29 0 0.29 0 0.28 0 0 0 0.29 0.29 0.29 0 0.29 0 0 0 0.28 0.28 0.29 0 0 0 0.29 0.29 0 0 0.28 0.29 0 0 0.29 0.28 0 0 0.29 0.29 0 0 0.28 0.29 0 0.28 0 0 0.29 0.29 0 0 0 0.29 0.29 0.29 0 0.28 0 0 0 0.29 0 0.29 0 0zm-3.72 5.44l0 -0.57 0 0 0.29 0 0.28 0 0 -0.28 0.29 0 0.29 0 0 0 0.28 -0.29 0 0 0.29 -0.29 0 0 0.29 0 0 -0.28 0.28 0 0 -0.29 0.29 0 0 -0.29 0.29 -0.28 0 0 0 -0.29 0.28 0 0 -0.29 0 -0.29 0 0 0.29 -0.28 0 -0.29 0 -0.29 0 0 0 -0.28 0 -0.29 0 0 0 -0.29 0 -0.28 0.29 0 0.28 0.28 0 0.29 0 0 0 0.29 0 0.28 -0.28 0.29 0 0 0 0.29 0 0.28 0 0.29 -0.29 0.29 0 0 0 0.29 -0.29 0.28 0 0 0 0.29 -0.28 0.29 0 0 -0.29 0.28 0 0 -0.29 0.29 -0.28 0 0 0.29 -0.29 0 0 0.28 -0.29 0 -0.28 0 -0.29 0.29 0 0 -0.29 0 -0.28 0 -0.29 0.29 0 0 0 0zm-0.57 0l0 -0.57 0 0 0 0 0 0 0 0 0 0 0 0 0 0 0 0 0 0 0 0 0 0 0 0 0.29 0 0 0 0 0 0 0 0 0 0 0 0 0 0 0 0 0 0 0 0 0 0 0 0.29 0 0 0 0 0 0 0 0 0 0 0 0 0 0 0 0 0 0 0.57 0 0 0 0 0 0 0 0 0 0 0 0 0 0 0 0 0 0 0 0 -0.29 0 0 0 0 0 0 0 0 0 0 0 0 0 0 0 0 0 0 0 0 0 -0.29 0 0 0 0 0 0 0 0 0 0 0 0 0 0 0 0 0 0 0 0 0 0 0zm-18.04 0l0 -0.57 0 0 0.57 0 0.57 0 0.57 0 0.57 0 0.57 0 0.57 0 0.57 0 0.57 0 0.57 0 0.57 0 0.29 0 0.57 0 0.57 0 0.57 0 0.57 0 0.57 0 0.57 0 0.57 0 0.57 0 0.57 0 0.57 0 0.57 0 0.57 0 0.57 0 0.57 0 0.57 0 0.57 0 0.57 0 0.57 0 0.57 0 0.57 0 0.57 0 0 0.57 -0.57 0 -0.57 0 -0.57 0 -0.57 0 -0.57 0 -0.57 0 -0.57 0 -0.57 0 -0.57 0 -0.57 0 -0.57 0 -0.57 0 -0.57 0 -0.57 0 -0.57 0 -0.57 0 -0.57 0 -0.57 0 -0.57 0 -0.57 0 -0.57 0 -0.29 0 -0.57 0 -0.57 0 -0.57 0 -0.57 0 -0.57 0 -0.57 0 -0.57 0 -0.57 0 -0.57 0 -0.57 0 0 0zm-4.58 -6.02l0.57 0.29 0 0 0 0.28 0 0.29 -0.29 0 0 0.29 0 0.28 0.29 0.29 0 0.29 0 0.28 0 0 0 0.29 0 0.29 0.28 0.28 0 0 0.29 0.29 0 0.29 0 0 0.29 0.28 0 0.29 0.28 0 0.29 0.29 0 0 0.29 0.28 0.28 0 0 0.29 0.29 0 0.29 0 0.28 0 0 0.29 0.29 0 0.29 0 0.28 0 0.29 0 0 0.57 -0.29 0 -0.28 0 -0.29 0 -0.29 -0.28 -0.28 0 -0.29 0 -0.29 -0.29 0 0 -0.28 0 -0.29 -0.29 -0.29 0 0 -0.28 -0.28 0 -0.29 -0.29 0 -0.29 -0.29 0 0 -0.28 -0.28 -0.29 0 -0.29 -0.29 -0.28 0 0 0 -0.29 -0.29 -0.29 0 -0.28 0 -0.29 0 -0.29 0 -0.28 0 -0.29 0 -0.29 0 -0.28 0 -0.29 0 -0.29 0 0 0 0zm4.87 -3.44l0 0.29 0 0 -0.29 0.28 -0.29 0 -0.28 0 0 0 -0.29 0 0 0 -0.29 0 -0.28 0 0 0.29 -0.29 0 0 0 -0.29 0 -0.29 0.29 0 0 -0.28 0 0 0.28 0 0 -0.29 0 0 0.29 -0.29 0 0 0.29 -0.28 0 0 0.28 0 0 -0.29 0.29 0 0 0 0.29 0 0 -0.29 0.28 0 0.29 0 0 0 0.29 -0.57 -0.29 0 0 0.28 -0.29 0 -0.28 0 0 0 -0.29 0.29 -0.29 0 0 0 -0.28 0.29 0 0 -0.29 0.28 0 0 -0.29 0.29 0 0 -0.28 0.29 0 0 -0.29 0.29 0 0 0 0.28 -0.29 0 0 0.29 0 0.29 -0.28 0 0 0.28 0 0 0 0.29 -0.29 0.29 0 0.28 0 0 0 0.29 0 0.29 0 0.28 0 0 0 0 0zm4.01 0.29l0.57 0 -0.29 0 -0.28 0 0 0 -0.29 0 0 0 -0.29 0 0 0 -0.29 0 0 0 -0.28 0 0 0 0 0 -0.29 0 0 0 -0.29 0 0 0 -0.28 0 0 0 -0.29 0 0 0 -0.29 0 0 0 -0.28 0 0 0 -0.29 0 0 0 -0.29 0 0 0 -0.28 0 0 0 0 0 -0.29 0 0 0 0 -0.29 0 0 0 0 0.29 0 0 0 0.28 0 0 0 0.29 0 0 0 0.29 0 0 0 0.28 0 0 0 0.29 0 0 0 0.29 0 0 0 0.28 0 0 0 0.29 0 0 0 0.29 0 0 0 0 0 0.28 0 0 0 0.29 0 0 0 0.29 0 0 0 0.29 0 0 0 0.28 0 -0.28 0.29 -0 0zm0.57 0l0 0 -0.29 0 0.29 0zm-0.29 -3.15l0 -0.57 0.29 0.28 0 0 0 0.29 0 0 0 0 0 0.29 0 0 0 0.28 0 0 0 0 0 0.29 0 0 0 0 0 0.29 0 0 0 0 0 0.28 0 0 0 0.29 0 0 0 0 0 0.29 0 0 0 0 0 0.28 0 0 0 0 0 0.29 0 0 0 0.29 0 0 0 0 0 0.28 -0.57 0 0 -0.28 0 0 0 0 0 -0.29 0 0 0 -0.29 0 0 0 0 0 -0.28 0 0 0 0 0 -0.29 0 0 0 0 0 -0.29 0 0 0 -0.28 0 0 0 0 0 -0.29 0 0 0 0 0 -0.29 0 0 0 0 0 -0.28 0 0 0 -0.29 0 0 0 0 0 -0.29 0 0 0.29 0.29 0 0zm0 -0.57l0.29 0 0 0.29 -0.29 -0.29zm-0.86 0.57l0 -0.57 0 0 0 0 0 0 0 0 0 0 0 0 0 0 0 0 0 0 0 0 0.28 0 0 0 0 0 0 0 0 0 0 0 0 0 0 0 0 0 0.29 0 0 0 0 0 0 0 0 0 0 0 0 0 0 0 0 0 0 0 0.29 0 0 0 0 0 0 0 0 0.57 0 0 0 0 0 0 -0.29 0 0 0 0 0 0 0 0 0 0 0 0 0 0 0 0 0 0 0 -0.29 0 0 0 0 0 0 0 0 0 0 0 0 0 0 0 0 0 -0.28 0 0 0 0 0 0 0 0 0 0 0 0 0 0 0 0 0 0 0 0 0zm-18.62 0l0 -0.57 0 0 0.57 0 0.57 0 0.57 0 0.57 0 0.57 0 0.57 0 0.57 0 0.57 0 0.57 0 0.57 0 0.57 0 0.57 0 0.57 0 0.57 0 0.57 0 0.57 0 0.57 0 0.57 0 0.57 0 0.57 0 0.57 0 0.57 0 0.57 0 0.57 0 0.57 0 0.57 0 0.57 0 0.57 0 0.57 0 0.86 0 0.57 0 0.57 0 0 0.57 -0.57 0 -0.57 0 -0.86 0 -0.57 0 -0.57 0 -0.57 0 -0.57 0 -0.57 0 -0.57 0 -0.57 0 -0.57 0 -0.57 0 -0.57 0 -0.57 0 -0.57 0 -0.57 0 -0.57 0 -0.57 0 -0.57 0 -0.57 0 -0.57 0 -0.57 0 -0.57 0 -0.57 0 -0.57 0 -0.57 0 -0.57 0 -0.57 0 -0.57 0 -0.57 0 -0.57 0 -0.57 0 0 0zm-2.29 2.01l-0.57 0 0 0 0 -0.29 0 -0.29 0 0 0.29 -0.28 0 0 0 -0.29 0 0 0 -0.29 0 0 0 0 0.28 -0.28 0 0 0 0 0 -0.29 0.29 0 0 0 0 -0.29 0 0 0.29 0 0 0 0 0 0.28 0 0 -0.29 0.29 0 0 0 0.29 0 0 0 0.28 0 0 0 0.29 0 0 0 0.29 0 0 0.57 -0.29 0 0 0 -0.29 0 0 0 -0.28 0 0 0 -0.29 0 0 0 0 0 -0.29 0 0 0 0 0 0 0 -0.28 0.29 0 0 0 0 0 0 0 0 -0.29 0.28 0 0 0 0 0 0 0 0.29 0 0 -0.29 0 0 0.29 0 0 0 0.29 0 0 0 0.28 0 0 0 0.29 0 0 0 0zm-4.3 27.78l-0.57 -0.29 0 0 0.28 -0.86 0 -0.86 0.29 -0.86 0 -0.86 0.29 -0.86 0 -0.86 0.28 -0.86 0 -0.86 0.29 -0.86 0 -0.86 0 -0.86 0.29 -0.86 0 -0.86 0.28 -0.86 0 -0.86 0.29 -0.86 0 -0.86 0.29 -0.86 0 -0.86 0.28 -0.86 0 -0.86 0.29 -0.86 0 -0.86 0 -0.86 0.29 -0.86 0 -0.86 0.28 -0.86 0 -0.86 0.29 -0.86 0 -0.86 0.29 -0.86 0 -0.86 0.57 0 -0.28 0.86 0 0.86 -0.29 0.86 0 0.86 -0.29 0.86 0 0.86 0 0.86 -0.28 0.86 0 0.86 -0.29 0.86 0 0.86 -0.29 0.86 0 0.86 -0.28 0.86 0 0.86 -0.29 0.86 0 0.86 -0.29 0.86 0 0.86 0 0.86 -0.28 0.86 0 0.86 -0.29 0.86 0 0.86 -0.29 0.86 0 0.86 -0.28 0.86 0 0.86 -0.29 0.86 0 1.15 -0.29 0.86 0 0.86 0 0zm-4.01 25.2l-0.29 -0.28 0 0 0 -0.57 0.29 -0.86 0 -0.86 0.28 -0.86 0 -0.57 0 -0.86 0.29 -0.86 0 -0.86 0.29 -0.57 0 -0.86 0.28 -0.86 0 -0.86 0 -0.57 0.29 -0.86 0 -0.86 0.29 -0.86 0 -0.57 0 -0.86 0.28 -0.86 0 -0.86 0.29 -0.57 0 -0.86 0.29 -0.86 0 -0.86 0 -0.57 0.28 -0.86 0 -0.86 0.29 -0.86 0 -0.57 0.29 -0.86 0 -0.86 0 -0.86 0.57 0.28 0 0.57 -0.28 0.86 0 0.86 -0.29 0.86 0 0.57 -0.29 0.86 0 0.86 0 0.86 -0.28 0.57 0 0.86 -0.29 0.86 0 0.86 -0.29 0.57 0 0.86 0 0.86 -0.28 0.86 0 0.57 -0.29 0.86 0 0.86 0 0.86 -0.29 0.57 0 0.86 -0.28 0.86 0 0.86 -0.29 0.57 0 0.86 0 0.86 -0.29 0.86 0 0.57 -0.28 0.86 0 0.86 -0.29 0.86 0 0 0 0zm0 0.29l0 0.57 -0.29 -0.29 0 0 0 0 0 0 0 0 0 0 0 -0.29 0 0 0 0 0 0 0 0 0 0 0 0 0 0 0 0 0 0 0 0 0 0 0 -0.28 0 0 0 0 0 0 0 0 0 0 0 0 0 0 0 0 0 0 0 0 0 0 0 -0.29 0 0 0 0 0.29 0.29 0 0 0 0 0 0 0 0 0 0 0 0 0 0 0 0 0 0 0 0 0 0 0 0 0 0 0 0.28 0 0 0 0 0 0 0 0 0 0 0 0 0 0 0 0 0 0 0 0 0 0 0 0.29 0 0 0 0 0 0 0 0 0 0 0 0 0 -0.29 0 0zm0 0.57l-0.29 0 0 -0.29 0.29 0.29zm4.01 -0.57l0 0.57 0 0 0 0 -0.28 0 0 0 -0.29 0 0 0 -0.29 0 0 0 -0.29 0 0 0 -0.28 0 0 0 0 0 -0.29 0 0 0 -0.29 0 0 0 -0.28 0 0 0 -0.29 0 0 0 0 0 -0.29 0 0 0 -0.28 0 0 0 -0.29 0 0 0 -0.29 0 0 0 -0.28 0 0 0 0 0 0 -0.57 0 0 0 0 0.28 0 0 0 0.29 0 0 0 0.29 0 0 0 0.28 0 0 0 0.29 0 0 0 0 0 0.29 0 0 0 0.28 0 0 0 0.29 0 0 0 0.29 0 0 0 0 0 0.28 0 0 0 0.29 0 0 0 0.29 0 0 0 0.29 0 0 0 0.28 0 0 0 0 0zm1.43 0l0 0.57 0 0 0 0 0 0 0 0 -0.29 0 0 0 0 0 0 0 0 0 0 0 -0.28 0 0 0 0 0 0 0 0 0 0 0 0 0 -0.29 0 0 0 0 0 0 0 0 0 0 0 -0.29 0 0 0 0 0 0 0 0 0 0 0 -0.28 0 0 0 0 0 0 0 0 -0.57 0 0 0 0 0 0 0.28 0 0 0 0 0 0 0 0 0 0 0 0.29 0 0 0 0 0 0 0 0 0 0 0 0.29 0 0 0 0 0 0 0 0 0 0 0 0 0 0.28 0 0 0 0 0 0 0 0 0 0 0 0.29 0 0 0 0 0 0 0 0 0zm2 1.15l-0.57 0.29 0 0 0 0 0 -0.29 0 0 0 0 0 0 0 0 0 -0.29 0 0 -0.29 0 0 0 0 0 0 0 0 0 0 0 0 -0.28 -0.29 0 0 0 0 0 0 0 0 0 0 0 -0.28 0 0 0 0 0 0 0 -0.29 0 0 0 0 0 0 0 0 0 -0.29 0 0 0 0 -0.57 0 0 0.29 0 0 0 0 0 0 0 0.29 0 0 0 0 0 0 0 0.28 0 0 0 0 0.29 0 0 0.29 0 0 0 0 0 0 0 0.29 0 0 0 0 0 0 0.28 0 0 0.28 0 0 0 0 0 0 0.29 0 0 0 0 0.29 0 0 0.29 0 0 0 0 0 0 0 0zm-1.15 2.29l0 -0.57 0 0 0 0 0 0 0 0 0.29 0 0 0 0 -0.28 0 0 0 0 0 0 0.29 0 0 0 0 -0.29 0 0 0 0 0 0 0 0 0 0 0 -0.29 0.28 0 0 0 0 0 0 0 0 0 0 -0.28 0 0 0 0 0 0 0 0 0 -0.29 0 0 0 0 -0.28 0 0.57 -0.29 0 0 0 0.29 0 0 0 0 0 0.29 0 0 0 0 0 0.28 0 0 0 0 0 0 0 0.29 0 0 0 0 0 0 0 0.29 0 0 -0.28 0 0 0 0 0.28 0 0 0 0 0 0 -0.29 0 0 0 0 0.29 0 0 0 0 -0.29 0 0 0 0 0 0 0.29 -0.28 0 -0 0zm0.29 0l0 0 -0.29 0 0.29 0zm-13.46 0l0.28 -0.57 -0.28 0 0.57 0 0.29 0 0.57 0 0.29 0 0.29 0 0.57 0 0.28 0 0.57 0 0.29 0 0.57 0 0.29 0 0.29 0 0.57 0 0.29 0 0.57 0 0.29 0 0.57 0 0.28 0 0.57 0 0.29 0 0.28 0 0.57 0 0.29 0 0.57 0 0.29 0 0.57 0 0.28 0 0.57 0 0.29 0 0.28 0 0.57 0 0.29 0 0 0.57 -0.29 0 -0.57 0 -0.28 0 -0.29 0 -0.57 0 -0.28 0 -0.57 0 -0.29 0 -0.57 0 -0.29 0 -0.57 0 -0.28 0 -0.29 0 -0.57 0 -0.28 0 -0.57 0 -0.29 0 -0.57 0 -0.29 0 -0.57 0 -0.29 0 -0.29 0 -0.57 0 -0.29 0 -0.57 0 -0.28 0 -0.57 0 -0.29 0 -0.29 0 -0.57 0 -0.29 0 -0.57 0 0 0zm0 0l0 0 0 0 0 0zm-2.01 -4.87l0.29 0 0 0 0 0.29 0 0.29 0 0.28 0 0 0 0.29 0 0.29 0 0 0 0.28 0 0 0 0.29 0 0 0 0.29 0 0 0 0.28 0 0 0.29 0 0 0.29 0 0 0 0 0 0.29 0.28 0 0 0.28 0 0 0.29 0 0 0.29 0 0 0.29 0 0 0.29 0.28 0 0 0 0.29 0.29 0.29 0 -0.29 0.57 -0.29 -0.29 0 0 -0.28 -0.28 -0.29 0 0 0 -0.29 -0.29 0 0 -0.28 -0.29 0 0 0 0 -0.29 -0.28 0 0 0 -0.29 -0.29 0 0 0 0 -0.29 0 0 0 -0.28 0 0 -0.28 -0.29 0 0 0 -0.29 0 -0.28 0 0 0 -0.29 0 0 0 -0.29 0 -0.28 0.28 0 0 -0.29 0 -0.29 0 -0.28 0 0 0 -0zm5.16 -33.51l0.29 0 0 0 0 1.15 -0.29 0.86 0 1.15 -0.29 1.15 0 0.86 -0.28 1.15 0 1.15 -0.29 0.86 -0.29 1.15 0 1.15 -0.29 0.86 0 1.15 -0.28 1.15 0 0.86 -0.29 1.15 -0.29 1.15 0 0.86 -0.28 1.15 0 1.15 -0.29 0.86 0 1.15 -0.29 1.15 0 0.86 -0.28 1.15 -0.29 1.15 0 0.86 -0.29 1.15 0 1.15 -0.28 0.86 0 1.15 -0.29 1.15 -0.29 0.86 -0.28 0 0 -0.86 0.28 -1.15 0.29 -1.15 0 -0.86 0.29 -1.15 0 -1.15 0.28 -1.15 0 -0.86 0.29 -1.15 0.29 -1.15 0 -0.86 0.28 -1.15 0 -1.15 0.29 -0.86 0 -1.15 0.29 -1.15 0 -0.86 0.28 -1.15 0.29 -1.15 0 -0.86 0.29 -1.15 0 -1.15 0.28 -0.86 0 -1.15 0.29 -1.15 0 -0.86 0.29 -1.15 0.29 -1.15 0 -0.86 0.28 -1.15 0 -1.15 0.29 -0.86 0 0zm0.86 -6.87l0.57 0 0 0 0 0.29 0 0.28 0 0.29 0 0 0 0.29 -0.29 0.28 0 0.29 0 0 0 0.29 0 0.28 0 0 0 0.29 0 0.29 -0.29 0.28 0 0 0 0.29 0 0.29 0 0.28 0 0 0 0.29 0 0.29 0 0.28 -0.28 0 0 0.29 0 0.29 0 0 0 0.29 0 0.28 0 0.29 0 0 0 0.29 -0.29 0.28 -0.29 0 0 -0.28 0 -0.29 0 -0.29 0 0 0 -0.28 0.29 -0.29 0 -0.29 0 0 0 -0.29 0 -0.28 0 0 0 -0.29 0 -0.29 0 -0.28 0.29 0 0 -0.29 0 -0.29 0 -0.28 0 0 0 -0.29 0 -0.29 0 -0.28 0 0 0.28 -0.29 0 -0.29 0 0 0 -0.28 0 -0.29 0 -0.29 0 0 0 -0.28 0 -0.29 0 0 0 0zm2.01 -1.43l0 0.29 0 0 0 0 -0.29 0 0 0 0 0 0 0 -0.29 0 0 0 0 0 0 0 0 0 0 0 -0.29 0 0 0.28 0 0 0 0 0 0 0 0 -0.28 0 0 0 0 0 0 0.29 0 0 0 0 0 0 0 0 0 0.29 -0.29 0 0 0 0 0.28 0 0 0 0 0 0 -0.57 0 0.29 0 0 -0.28 0 0 0 0 0 -0.29 0 0 0 0 0 0 0 -0.29 0.29 0 0 0 0 -0.28 0 0 0 0 0.29 0 0 0 0 -0.29 0 0 0 0 0.28 0 0 0 0 0 0 0 0.29 0 0 -0.29 0 0 0.29 0 0 0 0 0 0.28 0 0 0 0 0.29 0 0 0 0zm1.15 2l-0.29 0 0 0 0 -0.28 0 0 0 0 0 0 0 -0.29 0 0 0 0 0 0 0 -0.29 0 0 0 0 0 0 0 -0.28 0 0 -0.29 0 0 0 0 0 0 0 0 -0.29 0 0 0 0 0 0 -0.29 0 0 0 0 0 0 0 0 -0.29 0 0 -0.28 0 0 0 0 0 0 0 0 -0.28 0 0 0.28 0 0 0 0 0 0.29 0 0 0 0 0 0 0 0 0.28 0.29 0 0 0 0 0 0 0 0 0.29 0.29 0 0 0 0 0 0 0.29 0 0 0 0 0 0 0 0.28 0 0 0 0 0.28 0.29 0 0 0 0 0 0.29 0 0 0 0 -0.28 0.28 0 0 0 0zm-6.02 40.68l-0.57 -0.29 0 0 0.29 -1.15 0 -1.15 0.28 -1.43 0.29 -1.15 0 -1.43 0.29 -1.15 0.28 -1.43 0.29 -1.15 0 -1.15 0.29 -1.43 0.28 -1.15 0 -1.43 0.29 -1.15 0.29 -1.43 0 -1.15 0.28 -1.15 0.29 -1.43 0 -1.15 0.29 -1.43 0.28 -1.15 0 -1.43 0.29 -1.15 0.29 -1.15 0 -1.43 0.28 -1.15 0.29 -1.43 0 -1.15 0.29 -1.43 0.28 -1.15 0 -1.15 0.29 -1.43 0.29 -1.15 0.29 0 0 1.15 -0.29 1.43 -0.29 1.15 0 1.43 -0.29 1.15 -0.28 1.43 0 1.15 -0.29 1.15 -0.29 1.43 0 1.15 -0.28 1.43 -0.29 1.15 0 1.43 -0.29 1.15 -0.28 1.15 0 1.43 -0.29 1.15 -0.29 1.43 0 1.15 -0.28 1.43 -0.29 1.15 -0.29 1.15 0 1.43 -0.28 1.15 -0.29 1.43 0 1.15 -0.29 1.43 -0.28 1.15 0 1.15 -0.29 1.43 -0.29 1.15 0 1.43 0 0 0 0zm0 0l0 0 0 0 0 0zm-0.29 0.57l0 0.57 -0.29 -0.29 0 0 0 0 0 0 0 -0.29 0 0 0 0 0 0 0 0 0 0 0 0 0 0 0 0 0 -0.28 0 0 0 0 0 0 0 0 0 0 0 0 0 0 0 0 0 -0.29 0 0 0 0 0 0 0 0 0 0 0 0 0 0 0 0 0 -0.29 0 0 0.57 0.29 0 0 0 0 0 0 0 0 0 0 0 0 0 0 0 0 0 0.29 0 0 0 0 0 0 0 0 0 0 0 0 -0.29 0 0 0 0 0 0 0.28 0 0 0 0 0 0 0 0 0 0 0 0 0 0 0 0 0 0.29 0 0 0 0 0 0 0 0 0 -0.29 0 0zm0 0.57l-0.29 0 0 -0.29 0.29 0.29zm2.86 -0.29l0.29 0 0 0.28 -0.29 0 0 0 0 0 -0.28 0 0 0 0 0 -0.29 0 0 0 -0.29 0 0 0 0 0 -0.28 0 0 0 0 0 -0.29 0 0 0 0 0 -0.29 0 0 0 0 0 -0.29 0 0 0 0 0 -0.28 0 0 0 0 0 -0.29 0 0 0 0 0 -0.29 0 0 0 0 0 0 -0.57 0 0 0 0 0.29 0 0 0 0 0 0.29 0 0 0 0 0 0.28 0 0 0 0 0 0.29 0 0 0 0 0 0.29 0 0 0 0 0 0.29 0 0 0 0 0 0.28 0 0 0 0 0 0.29 0 0 0 0.29 0 0 0 0 0 0.28 0 0 0 0 0 0.29 0 -0.29 0.28 0 0zm0.29 0l0 0.28 0 0 0 -0.28zm0.57 -5.44l0.28 0.29 0 0 0 0 0 0.29 0 0 0 0.28 0 0 0 0.29 0 0.29 0 0 0 0.28 -0.28 0 0 0.29 0 0.29 0 0 0 0.28 0 0 0 0.29 0 0 0 0.29 0 0.28 0 0 -0.29 0.29 0 0 0 0.29 0 0 0 0.29 0 0.28 0 0 0 0.29 0 0 0 0.29 0 0.28 -0.29 0 -0.28 0 0 -0.28 0 0 0 -0.29 0 0 0 -0.29 0 -0.28 0.28 0 0 -0.29 0 0 0 -0.29 0 -0.29 0 0 0 -0.28 0 0 0 -0.29 0 0 0 -0.29 0.29 -0.28 0 0 0 -0.29 0 0 0 -0.29 0 0 0 -0.28 0 -0.29 0 0 0 -0.29 0 0 0.29 -0.28 0 -0.29 0 0 0 -0.29 0 0zm4.3 -29.22l0.57 0.29 0 0 -0.29 0.86 0 0.86 0 0.86 -0.29 0.86 0 1.15 -0.29 0.86 0 0.86 -0.28 0.86 0 0.86 -0.29 1.15 0 0.86 -0.29 0.86 0 0.86 -0.28 0.86 0 0.86 -0.29 1.15 0 0.86 -0.29 0.86 0 0.86 -0.28 0.86 0 1.15 -0.29 0.86 0 0.86 -0.29 0.86 0 0.86 -0.28 0.86 0 1.15 -0.29 0.86 0 0.86 -0.29 0.86 0 0.86 -0.28 1.15 -0.29 -0.28 0 -0.86 0.29 -0.86 0 -0.86 0.28 -0.86 0 -1.15 0.29 -0.86 0 -0.86 0.29 -0.86 0 -0.86 0.28 -0.86 0 -1.15 0.29 -0.86 0 -0.86 0.29 -0.86 0 -0.86 0.28 -1.15 0 -0.86 0.29 -0.86 0 -0.86 0.29 -0.86 0 -1.15 0.28 -0.86 0 -0.86 0 -0.86 0.29 -0.86 0 -0.86 0.29 -1.15 0 -0.86 0.28 -0.86 0 -0.86 0.29 -0.86 0 -1.15 0 0 0 0zm3.15 -20.05l0.57 0 0 0 -0.29 0.57 0 0.57 0 0.86 -0.28 0.57 0 0.57 0 0.57 -0.29 0.86 0 0.57 0 0.57 -0.29 0.57 0 0.57 0 0.86 -0.29 0.57 0 0.57 0 0.57 -0.28 0.57 0 0.86 0 0.57 -0.29 0.57 0 0.57 0 0.57 -0.29 0.86 0 0.57 0 0.57 -0.28 0.57 0 0.57 0 0.86 -0.29 0.57 0 0.57 0 0.57 -0.29 0.86 0 0.57 -0.57 -0.29 0.28 -0.57 0 -0.57 0 -0.57 0.29 -0.57 0 -0.86 0 -0.57 0.29 -0.57 0 -0.57 0 -0.57 0.28 -0.86 0 -0.57 0 -0.57 0.29 -0.57 0 -0.57 0 -0.86 0.29 -0.57 0 -0.57 0 -0.57 0.29 -0.57 0 -0.86 0 -0.57 0.28 -0.57 0 -0.57 0 -0.86 0.29 -0.57 0 -0.57 0.29 -0.57 0 -0.57 0 -0.86 0.28 -0.57 0 -0.57 0 -0.57 0 0zm4.87 -4.3l0 0.57 0 0 0 0 -0.28 0 -0.29 0 -0.29 0 -0.29 0 0 0 -0.28 0.29 -0.29 0 0 0 -0.29 0 0 0.28 -0.28 0 -0.29 0 0 0.29 -0.29 0 0 0 -0.28 0.29 0 0 -0.29 0.28 0 0 0 0.29 -0.29 0 0 0.29 0 0 -0.28 0.28 0 0.29 0 0 0 0.29 -0.29 0.28 0 0 0 0.29 0 0.29 -0.57 0 0 -0.29 0.29 -0.29 0 -0.28 0 0 0 -0.29 0.29 -0.29 0 -0.28 0 0 0.28 -0.29 0 -0.29 0 0 0.29 -0.28 0 0 0.29 -0.29 0 -0.29 0.28 0 0 0 0.29 -0.28 0.29 0 0 -0.29 0.28 0 0.29 0 0 -0.29 0.29 0 0.29 0 0 0 0.28 0 0.29 -0.28 0.29 0 0.28 0 0 0 0.29 0 0 0 0 -0zm18.91 0l0 0.57 0 0 -0.57 0 -0.57 0 -0.57 0 -0.57 0 -0.57 0 -0.57 0 -0.57 0 -0.57 0 -0.57 0 -0.57 0 -0.86 0 -0.57 0 -0.57 0 -0.57 0 -0.57 0 -0.57 0 -0.57 0 -0.57 0 -0.57 0 -0.57 0 -0.57 0 -0.57 0 -0.57 0 -0.57 0 -0.57 0 -0.57 0 -0.57 0 -0.57 0 -0.57 0 -0.86 0 -0.57 0 -0.57 0 0 -0.57 0.57 0 0.57 0 0.86 0 0.57 0 0.57 0 0.57 0 0.57 0 0.57 0 0.57 0 0.57 0 0.57 0 0.57 0 0.57 0 0.57 0 0.57 0 0.57 0 0.57 0 0.57 0 0.57 0 0.57 0 0.57 0 0.86 0 0.57 0 0.57 0 0.57 0 0.57 0 0.57 0 0.57 0 0.57 0 0.57 0 0.57 0 0.57 0 0 0zm0.86 0.29l0.57 0 -0.29 0.29 0 0 0 0 -0.28 0 0 0 0 0 0 0 0 0 0 0 0 0 0 0 -0.29 0 0 0 0 0 0 0 0 0 0 0 0 0 0 0 0 0 -0.29 0 0 0 0 0 0 0 0 0 0 0 0 0 0 0 -0.29 0 0 0 0 0 0 0 0 0 0 -0.57 0 0 0 0 0 0 0 0 0.29 0 0 0 0 0 0 0 0 0 0 0 0 0 0 0 0.29 0 0 0 0 0 0 0 0 0 0 0 0 0 0 0 0 0 0.29 0 0 0 0 0 0 0 0 0 0 0 0 0 0 0 0.28 0 0 0 0 0 -0.28 0.29 -0 0zm0.57 0l0 0.29 -0.29 0 0.29 -0.29zm-0.29 -3.15l0 -0.57 0.29 0.29 0 0.28 0 0 0 0 0 0.29 0 0 0 0.29 0 0 0 0 0 0.28 0 0 0 0 0 0.29 0 0 0 0 0 0.29 0 0 0 0.28 0 0 0 0 0 0.29 0 0 0 0 0 0.29 0 0 0 0 0 0.28 0 0 0 0.29 0 0 0 0 0 0.29 0 0 -0.57 0 0 0 0 -0.29 0 0 0 0 0 -0.29 0 0 0 -0.28 0 0 0 0 0 -0.29 0 0 0 0 0 -0.29 0 0 0 0 0 -0.28 0 0 0 -0.29 0 0 0 0 0 -0.29 0 0 0 0 0 -0.28 0 0 0 0 0 -0.29 0 0 0 -0.29 0 0 0 0 0 -0.28 0.29 0.28 0 0zm0 -0.57l0.29 0 0 0.29 -0.29 -0.29zm-0.86 0.57l0 -0.57 0 0 0 0 0 0 0 0 0 0 0 0 0 0 0 0 0 0 0 0 0.28 0 0 0 0 0 0 0 0 0 0 0 0 0 0 0 0 0 0.29 0 0 0 0 0 0 0 0 0 0 0 0 0 0 0 0 0 0 0 0.29 0 0 0 0 0 0 0 0 0.57 0 0 0 0 0 0 -0.29 0 0 0 0 0 0 0 0 0 0 0 0 0 0 0 0 0 0 0 -0.29 0 0 0 0 0 0 0 0 0 0 0 0 0 0 0 0 0 -0.28 0 0 0 0 0 0 0 0 0 0 0 0 0 0 0 0 0 0 0 0 0zm-21.48 0l0 -0.57 0 0 0.86 0 0.57 0 0.57 0 0.86 0 0.57 0 0.57 0 0.86 0 0.57 0 0.57 0 0.86 0 0.57 0 0.57 0 0.57 0 0.86 0 0.57 0 0.57 0 0.86 0 0.57 0 0.57 0 0.86 0 0.57 0 0.57 0 0.86 0 0.57 0 0.57 0 0.86 0 0.57 0 0.57 0 0.86 0 0.57 0 0.57 0 0.86 0 0 0.57 -0.86 0 -0.57 0 -0.57 0 -0.86 0 -0.57 0 -0.57 0 -0.86 0 -0.57 0 -0.57 0 -0.86 0 -0.57 0 -0.57 0 -0.86 0 -0.57 0 -0.57 0 -0.86 0 -0.57 0 -0.57 0 -0.86 0 -0.57 0 -0.57 0 -0.57 0 -0.86 0 -0.57 0 -0.57 0 -0.86 0 -0.57 0 -0.57 0 -0.86 0 -0.57 0 -0.57 0 -0.86 0 0 0zm-4.87 4.58l-0.57 0 0 0 0 -0.29 0.28 -0.28 0 -0.29 0 -0.29 0 -0.29 0.29 -0.28 0 -0.29 0 -0.29 0.29 -0.28 0 0 0.28 -0.29 0 -0.29 0.29 0 0 -0.28 0.29 -0.29 0 0 0.28 -0.29 0 0 0.29 -0.28 0.29 0 0.28 -0.29 0 0 0.29 0 0.29 0 0.28 -0.29 0.29 0 0 0 0.29 0 0.28 0 0.29 0 0.29 -0.28 0.28 0 0 0.57 -0.28 0 -0.29 0 -0.29 0 0 0 -0.28 0 -0.29 0.29 -0.29 0 -0.28 0 0 0 -0.29 0.29 -0.29 0 0 0 -0.28 0.28 -0.29 0 0 0.29 -0.29 0 0 0.29 -0.28 0 0 0.28 -0.29 0 0 0.29 -0.29 0 0 0.29 0 0.28 -0.28 0.29 0 0 0 0.29 0 0.28 -0.29 0.29 0 0.29 0 0.28 0 0.29 0 0 0 0zm-1.43 9.74l-0.57 -0.29 0 0 0 -0.29 0 -0.28 0.29 -0.29 0 -0.29 0 -0.29 0 -0.28 0 -0.29 0 -0.29 0.28 -0.28 0 -0.29 0 -0.29 0 -0.28 0 -0.29 0 -0.29 0.29 -0.28 0 -0.57 0 -0.29 0 -0.28 0 -0.29 0 -0.29 0.29 -0.28 0 -0.29 0 -0.29 0 -0.28 0 -0.29 0 -0.29 0 -0.28 0.28 -0.29 0 -0.29 0 -0.28 0 -0.29 0 -0.29 0.57 0 0 0.29 0 0.29 -0.29 0.28 0 0.29 0 0.29 0 0.28 0 0.29 0 0.29 -0.28 0.28 0 0.29 0 0.29 0 0.57 0 0.29 0 0.29 -0.29 0.28 0 0.29 0 0.29 0 0.28 0 0.29 0 0.29 -0.29 0.28 0 0.29 0 0.29 0 0.28 0 0.29 0 0.29 0 0.28 -0.28 0.29 0 0.29 0 0.57 0 0.29 0 0.29 0 0 0 0zm-1.72 1.43l0 -0.28 0 0 0 0 0 0 0 0 0 0 0.29 0 0 -0.29 0 0 0 0 0 0 0.28 0 0 0 0 0 0 0 0 0 0 0 0.29 0 0 -0.29 0 0 0 0 0 0 0 0 0 0 0 -0.28 0.29 0 0 0 0 0 0 0 0 -0.29 0 0 0 0 0 0 0 -0.29 0.57 0.29 0 0 0 0 -0.28 0.29 0 0 0 0 0 0 0 0.28 0 0 0 0 0 0.29 0 0 -0.29 0 0 0 0 0 0 0.29 0 0 -0.29 0 0 0 0 0 0 0.28 -0.28 0 0 0 0 0 0 0 -0.29 0 0 0 0 0 0 0 -0.29 0 0 0 0 0 0 0 0 0 0 0zm-1.43 -2l0.29 0 0 0 0 0.29 0 0 0 0 0 0 0 0.28 0 0 0 0 0 0 0 0.29 0 0 0.29 0 0 0 0 0 0 0.29 0 0 0 0 0 0 0 0 0 0 0 0.28 0.28 0 0 0 0 0 0 0 0 0 0 0 0.29 0 0 0 0 0 0 0 0 0.29 0.29 0 0 0.29 -0.29 0 0 0 0 0 -0.29 0 0 0 0 0 0 0 -0.28 -0.29 0 0 0 0 0 0 -0.29 0 0 0 0 -0.29 0 0 0 0 -0.29 0 0 -0.28 0 0 0 0 0 0 0 -0.29 0 0 0 0 0 -0.29 0 0 0 0 0 -0.28 0 0 0 0 0 -0.29 0 0 0 0zm1.72 -10.89l0.28 0 0 0 0 0.29 0 0.57 0 0.28 -0.28 0.29 0 0.29 0 0.28 0 0.29 0 0.57 -0.29 0.28 0 0.29 0 0.29 0 0.28 0 0.57 -0.29 0.29 0 0.28 0 0.29 0 0.29 0 0.57 0 0.29 -0.28 0.29 0 0.28 0 0.29 0 0.57 0 0.28 0 0.29 -0.29 0.29 0 0.28 0 0.57 0 0.29 0 0.28 0 0.29 -0.29 0.29 -0.29 0 0 -0.29 0 -0.29 0 -0.57 0 -0.29 0.29 -0.29 0 -0.28 0 -0.29 0 -0.57 0 -0.28 0 -0.29 0.29 -0.29 0 -0.28 0 -0.29 0 -0.57 0 -0.28 0.29 -0.29 0 -0.29 0 -0.28 0 -0.57 0 -0.29 0 -0.28 0.28 -0.29 0 -0.29 0 -0.57 0 -0.29 0 -0.29 0.29 -0.28 0 -0.29 0 -0.57 0 -0.28 0 -0.29 0.29 -0.29 0 0zm7.44 -6.01l0 0.28 0 0 -0.28 0 -0.29 0 -0.29 0.29 -0.57 0 -0.29 0 -0.29 0 -0.28 0 -0.29 0.29 -0.29 0 -0.29 0.28 -0.28 0 -0.29 0.29 -0.29 0 0 0.29 -0.28 0 -0.29 0.28 -0.29 0 -0.28 0.29 0 0.29 -0.29 0.28 -0.29 0 0 0.29 -0.28 0.29 -0.29 0.28 0 0.29 -0.29 0.29 0 0.28 -0.28 0.29 0 0.29 0 0.28 0 0.29 -0.29 0.29 -0.29 0 0 -0.29 0 -0.57 0.29 -0.28 0 -0.29 0 -0.29 0.29 -0.28 0 -0.29 0.28 -0.29 0.29 -0.28 0 -0.29 0.29 -0.29 0.28 0 0 -0.28 0.29 -0.29 0.29 -0.29 0.28 -0.28 0.29 0 0.29 -0.29 0.28 0 0.29 -0.29 0.29 0 0.28 -0.28 0.29 0 0.29 -0.29 0.29 0 0.28 0 0.29 -0.29 0.29 0 0.28 0 0.57 0 0.29 0 0.28 0 0 0 0 0zm21.48 0l0 0.28 0 0 -0.86 0 -0.57 0 -0.57 0 -0.86 0 -0.57 0 -0.57 0 -0.86 0 -0.57 0 -0.57 0 -0.86 0 -0.57 0 -0.57 0 -0.86 0 -0.57 0 -0.57 0 -0.86 0 -0.57 0 -0.57 0 -0.86 0 -0.57 0 -0.57 0 -0.86 0 -0.57 0 -0.57 0 -0.86 0 -0.57 0 -0.57 0 -0.86 0 -0.57 0 -0.57 0 -0.86 0 -0.57 0 0 -0.28 0.57 0 0.86 0 0.57 0 0.57 0 0.86 0 0.57 0 0.57 0 0.86 0 0.57 0 0.57 0 0.86 0 0.57 0 0.57 0 0.86 0 0.57 0 0.57 0 0.86 0 0.57 0 0.57 0 0.86 0 0.57 0 0.57 0 0.86 0 0.57 0 0.57 0 0.86 0 0.57 0 0.57 0 0.86 0 0.57 0 0.57 0 0.86 0 0 0zm0.86 0l0.57 0 -0.29 0.28 0 0 0 0 0 0 -0.28 0 0 0 0 0 0 0 0 0 0 0 0 0 -0.29 0 0 0 0 0 0 0 0 0 0 0 0 0 0 0 -0.29 0 0 0 0 0 0 0 0 0 0 0 0 0 0 0 -0.29 0 0 0 0 0 0 0 0 0 0 0 0 -0.28 0 0 0 0 0 0 0 0 0 0 0.29 0 0 0 0 0 0 0 0 0 0 0 0 0 0 0 0.29 0 0 0 0 0 0 0 0 0 0 0 0 0 0 0 0.29 0 0 0 0 0 0 0 0 0 0 0 0 0 0.28 0 0 0 0 0 0 0 -0.28 0 -0 0zm0.57 0l0 0.28 -0.29 0 0.29 -0.28zm-0.57 -0.86l0.57 0 0 0 0 0 0 0 0 0 0 0 0 0 0 0 0 0 0 0 0 0.29 0 0 0 0 0 0 0 0 0 0 0 0 0 0 0 0.29 0 0 0 0 0 0 0 0 0 0 0 0 0 0 0 0.28 0 0 0 0 0 0 0 0 0 0 0 0 0 0 -0.57 0 0 0 0 0 0 0 0 0 0 0 0 0 0 0 0 -0.28 0 0 0 0 0 0 0 0 0 0 0 0 0 0 0 -0.29 0 0 0 0 0 0 0 0 0 0 0 0 0 0 0 -0.29 0 0 0 0 0 0 0 0 0 0 0 0 0 0 0 0 0 0zm0 -23.49l0.57 0 0 0 0 0.86 0 0.86 0 0.57 0 0.86 0 0.57 0 0.86 0 0.57 0 0.86 0 0.57 0 0.86 0 0.57 0 0.86 0 0.57 0 0.86 0 0.57 0 0.86 0 0.86 0 0.57 0 0.86 0 0.57 0 0.86 0 0.57 0 0.86 0 0.57 0 0.86 0 0.57 0 0.86 0 0.57 0 0.86 0 0.57 0 0.86 0 0.86 -0.57 0 0 -0.86 0 -0.86 0 -0.57 0 -0.86 0 -0.57 0 -0.86 0 -0.57 0 -0.86 0 -0.57 0 -0.86 0 -0.57 0 -0.86 0 -0.57 0 -0.86 0 -0.57 0 -0.86 0 -0.86 0 -0.57 0 -0.86 0 -0.57 0 -0.86 0 -0.57 0 -0.86 0 -0.57 0 -0.86 0 -0.57 0 -0.86 0 -0.57 0 -0.86 0 -0.57 0 -0.86 0 -0.86 0 0zm4.58 -3.15l-0.28 0.29 0 0 0 0 -0.29 0 -0.29 0 -0.28 0 0 -0.29 -0.29 0 -0.29 0 0 0 -0.28 0.29 0 0 -0.29 0 -0.29 0 0 0 -0.29 0 0 0.28 0 0 -0.28 0 0 0.29 -0.29 0 0 0.29 0 0 -0.29 0.28 0 0 0 0.29 0 0 -0.28 0.29 0 0.28 0 0 0 0.29 0 0.29 0 0.28 0 0 -0.57 0 0 0 0 -0.28 0 -0.29 0.29 -0.29 0 -0.28 0 -0.29 0 0 0 -0.29 0.28 -0.28 0 0 0 -0.29 0.29 0 0 -0.29 0.29 0 0 -0.28 0.28 0 0 -0.29 0.29 0 0 0 0.29 -0.29 0.29 0 0 0 0.28 0 0.29 0 0 0 0.29 0 0.28 0 0.29 0 0 0 0.29 0 0.28 0 0.29 0.29 0 0 0 0zm20.05 6.87l-0.29 0.29 0 0 -0.57 -0.29 -0.57 0 -0.57 -0.29 -0.86 -0.28 -0.57 -0.29 -0.57 0 -0.57 -0.29 -0.57 -0.28 -0.86 -0.29 -0.57 0 -0.57 -0.29 -0.57 -0.28 -0.57 -0.29 -0.57 0 -0.86 -0.29 -0.57 -0.28 -0.57 -0.29 -0.57 0 -0.57 -0.29 -0.86 -0.28 -0.57 -0.29 -0.57 0 -0.57 -0.29 -0.57 -0.28 -0.57 -0.29 -0.86 0 -0.57 -0.29 -0.57 -0.28 -0.57 0 -0.57 -0.29 -0.57 -0.29 -0.86 -0.28 0.28 -0.29 0.57 0 0.57 0.29 0.57 0.28 0.86 0.29 0.57 0 0.57 0.29 0.57 0.28 0.57 0.29 0.57 0 0.86 0.29 0.57 0.28 0.57 0.29 0.57 0 0.57 0.29 0.86 0.28 0.57 0.29 0.57 0 0.57 0.29 0.57 0.28 0.57 0.29 0.86 0 0.57 0.29 0.57 0.28 0.57 0.29 0.57 0 0.57 0.29 0.86 0.28 0.57 0.29 0.57 0 0.57 0.29 0.57 0.28 0.86 0.29 0 0zm2.29 2.87l-0.57 0 0 0 0 0 0 0 0 -0.29 0 0 0 -0.29 0 0 0 0 0 -0.28 0 0 0 0 0 -0.29 -0.29 0 0 0 0 -0.29 0 0 0 0 -0.29 0 0 -0.29 0 0 0 0 -0.28 -0.28 0 0 0 0 -0.29 0 0 0 0 -0.29 -0.29 0 0 0 -0.28 0 0 0 0 -0.29 -0.29 0 0.29 -0.28 0 0 0.28 0 0 0 0 0 0.29 0.28 0 0 0.29 0 0 0 0.28 0.29 0 0 0 0 0.29 0 0 0.29 0 0 0.29 0 0 0.28 0 0 0 0 0.28 0.29 0 0 0 0.29 0 0 0 0 0.29 0.29 0 0 0 0.28 0 0 0 0.29 0 0 0 0 0 0.29 0 0 0 0 0 0zm-2.29 3.44l-0.29 -0.57 0 0 0.29 0 0 0 0 -0.29 0.29 0 0 0 0.28 0 0 0 0 -0.28 0.29 0 0 0 0 0 0.29 -0.29 0 0 0 0 0.28 0 0 -0.29 0 0 0 0 0 -0.28 0.29 0 0 0 0 -0.29 0 0 0 0 0 -0.29 0 0 0 -0.29 0 0 0 0 0 -0.28 0 0 0 -0.29 0.57 0 0 0.29 0 0 0 0.28 0 0 0 0.29 0 0 0 0.29 0 0 -0.29 0.29 0 0 0 0 0 0.28 0 0 0 0.29 -0.29 0 0 0 0 0.29 -0.28 0 0 0 0 0.28 -0.29 0 0 0 0 0.29 -0.29 0 0 0 -0.28 0 0 0.29 0 0 -0.29 0 0 0 -0.29 0 0 0.28 0 0 0 0zm-14.32 4.87l-0.28 -0.57 0 0 0.57 0 0.29 -0.29 0.57 0 0.28 -0.28 0.57 -0.29 0.57 0 0.28 -0.29 0.57 0 0.29 -0.29 0.57 0 0.29 -0.28 0.57 0 0.28 -0.29 0.57 0 0.57 -0.29 0.29 0 0.57 -0.28 0.28 0 0.57 -0.29 0.29 -0.29 0.57 0 0.29 -0.28 0.57 0 0.57 -0.29 0.29 0 0.57 -0.29 0.28 0 0.57 -0.28 0.29 0 0.57 -0.29 0.57 0 0.29 -0.29 0.28 0.57 -0.57 0 -0.57 0.29 -0.29 0 -0.57 0.28 -0.29 0 -0.57 0.29 -0.28 0 -0.57 0.29 -0.29 0 -0.57 0.28 -0.57 0 -0.29 0.29 -0.57 0.29 -0.29 0 -0.57 0.28 -0.29 0 -0.57 0.29 -0.28 0 -0.57 0.29 -0.57 0 -0.28 0.28 -0.57 0 -0.29 0.29 -0.57 0 -0.29 0.29 -0.57 0.29 -0.57 0 -0.29 0.28 -0.57 0 -0.28 0.29 -0.57 0 -0.29 0.29 0 0zm-1.15 0l-0.28 0 0 0 0 0 0 -0.29 0.28 0 0 0 0 0 0 0 0 0 0 0 0 0 0 0 0.29 0 0 0 0 0 0 0 0 0 0 0 0 0 0 0 0.29 0 0 0 0 0 0 0 0 0 0 0 0 -0.29 0 0 0.28 0 0 0 0 0 0 0 0 0 0 0 0.29 0.57 0 0 -0.29 0 0 0 0 0 0 0 0 0 0 0 0 0 0 0 -0.28 0 0 0 0 0 0 0 0 0 0 0 0 0 0 0 -0.29 0.29 0 0 0 0 0 0 0 0 0 0 0 0 0 0 0 0 -0.29 0 0 0 0 0 0 0 0 0 0 0 0 -0.29 0 0zm-0.28 0l0 0 0 0 0 0zm0 9.45l0 0.28 0 -0.28 0 -0.29 0 -0.29 0 -0.28 0 -0.29 0 -0.29 0 -0.29 0 -0.28 0 -0.29 0 -0.29 0 -0.28 0 -0.29 0 -0.29 0 -0.28 0 -0.29 0 -0.29 0 -0.28 0 -0.29 0 -0.29 0 -0.28 0 -0.29 0 -0.29 0 -0.28 0 -0.29 0 -0.29 0 -0.28 0 -0.29 0 -0.57 0 -0.28 0 -0.29 0 -0.29 0 -0.28 0 -0.29 0.28 0 0 0.29 0 0.28 0 0.29 0 0.29 0 0.28 0 0.57 0 0.29 0 0.28 0 0.29 0 0.29 0 0.28 0 0.29 0 0.29 0 0.28 0 0.29 0 0.29 0 0.28 0 0.29 0 0.29 0 0.28 0 0.29 0 0.29 0 0.28 0 0.29 0 0.29 0 0.28 0 0.29 0 0.29 0 0.29 0 0.28 0 0.29 0 0.29 -0.28 0zm0 0.28l0 0 0 -0.28 0 0.28zm1.15 -0.28l0 0.28 0 0 0 0 0 0 0 0 0 0 0 0 -0.29 0 0 0 0 0 0 0 0 0 0 0 0 0 0 0 0 0 -0.29 0 0 0 0 0 0 0 0 0 0 0 0 0 0 0 0 0 -0.28 0 0 0 0 0 0 0 0 0 0 0 0 0 0 0 -0.29 0 0 -0.28 0.29 0 0 0 0 0 0 0 0 0 0 0 0 0 0 0 0.28 0 0 0 0 0 0 0 0 0 0 0 0 0 0 0 0 0 0.29 0 0 0 0 0 0 0 0 0 0 0 0 0 0 0 0 0 0.29 0 0 0 0 0 0 0 0 0 0 0 0 0zm21.2 0l0 0.28 0 0 -0.86 0 -0.57 0 -0.57 0 -0.57 0 -0.86 0 -0.57 0 -0.57 0 -0.86 0 -0.57 0 -0.57 0 -0.86 0 -0.57 0 -0.57 0 -0.57 0 -0.86 0 -0.57 0 -0.57 0 -0.86 0 -0.57 0 -0.57 0 -0.86 0 -0.57 0 -0.57 0 -0.57 0 -0.86 0 -0.57 0 -0.57 0 -0.86 0 -0.57 0 -0.57 0 -0.86 0 -0.57 0 0 -0.28 0.57 0 0.86 0 0.57 0 0.57 0 0.86 0 0.57 0 0.57 0 0.86 0 0.57 0 0.57 0 0.57 0 0.86 0 0.57 0 0.57 0 0.86 0 0.57 0 0.57 0 0.86 0 0.57 0 0.57 0 0.57 0 0.86 0 0.57 0 0.57 0 0.86 0 0.57 0 0.57 0 0.86 0 0.57 0 0.57 0 0.57 0 0.86 0 0 0zm8.3 7.44l-0.57 0 0 0 0 -0.57 0 -0.28 -0.29 -0.57 0 -0.29 -0.29 -0.28 0 -0.29 -0.28 -0.57 0 -0.28 -0.29 -0.29 0 -0.29 -0.29 -0.28 -0.28 -0.29 0 -0.29 -0.29 -0.28 -0.29 -0.29 -0.28 0 -0.29 -0.29 0 -0.29 -0.29 0 -0.28 -0.28 -0.29 -0.29 -0.29 0 -0.57 -0.29 -0.29 0 -0.29 0 -0.29 -0.28 -0.28 0 -0.57 0 -0.29 0 -0.28 -0.29 -0.57 0 -0.29 0 0 -0.29 0.29 0 0.57 0 0.28 0 0.57 0 0.29 0 0.28 0.29 0.57 0 0.29 0 0.28 0.29 0.29 0 0.29 0.28 0.29 0 0.28 0.29 0.29 0.29 0.29 0.28 0.28 0 0.29 0.29 0.29 0.29 0.28 0.29 0.29 0.28 0 0.29 0.29 0.29 0.28 0.28 0 0.29 0.29 0.57 0 0.28 0.29 0.29 0 0.57 0.28 0.28 0 0.57 0 0.29 0.29 0.57 0 0 0 0zm4.3 28.93l-0.29 0.29 0 0 -0.29 -1.15 0 -0.86 -0.28 -0.86 0 -0.86 -0.29 -0.86 0 -0.86 -0.29 -1.15 0 -0.86 -0.28 -0.86 0 -0.86 -0.29 -0.86 0 -1.15 -0.29 -0.86 0 -0.86 -0.28 -0.86 0 -0.86 -0.29 -0.86 0 -1.15 -0.29 -0.86 0 -0.86 -0.28 -0.86 0 -0.86 -0.29 -1.15 0 -0.86 -0.29 -0.86 0 -0.86 -0.29 -0.86 0 -0.86 -0.28 -1.15 0 -0.86 0 -0.86 -0.29 -0.86 0.57 0 0 0.86 0.28 0.86 0 0.86 0.29 0.86 0 0.86 0.29 1.15 0 0.86 0 0.86 0.28 0.86 0 0.86 0.29 1.15 0 0.86 0.29 0.86 0 0.86 0.29 0.86 0 0.86 0.28 1.15 0 0.86 0.29 0.86 0 0.86 0.29 0.86 0 1.15 0.28 0.86 0 0.86 0.29 0.86 0 0.86 0.29 0.86 0 1.15 0.28 0.86 0 0.86 0.29 0.86 0 0.86 0 0 0 0zm4.3 27.5l-0.57 0 0 0 0 -0.86 -0.28 -0.86 0 -0.86 -0.29 -0.86 0 -0.86 0 -0.86 -0.29 -0.86 0 -0.86 -0.28 -0.86 0 -0.86 -0.29 -0.86 0 -0.86 -0.29 -0.86 0 -0.86 -0.28 -0.86 0 -0.57 -0.29 -0.86 0 -0.86 0 -0.86 -0.29 -0.86 0 -0.86 -0.28 -0.86 0 -0.86 -0.29 -0.86 0 -0.86 -0.29 -0.86 0 -0.86 -0.28 -0.86 0 -0.86 0 -0.86 -0.29 -0.86 0 -0.86 0.29 -0.29 0.28 0.86 0 0.86 0.29 0.86 0 0.86 0.29 0.86 0 0.86 0 0.86 0.28 0.86 0 0.86 0.29 0.86 0 0.86 0.29 0.86 0 0.86 0.28 0.86 0 0.86 0.29 0.86 0 0.86 0 0.86 0.29 0.86 0 0.86 0.28 0.86 0 0.86 0.29 0.86 0 0.86 0.29 0.86 0 0.86 0.28 0.86 0 0.86 0.29 0.86 0 0.86 0 0.86 0.29 0.86 0 0 0 0zm-2.29 4.3l0 -0.57 0 0 0 0 0.29 0 0 -0.28 0.28 0 0 0 0.29 0 0 -0.29 0 0 0.29 0 0 -0.29 0 0 0 0 0.28 -0.28 0 0 0 -0.29 0 0 0.29 0 0 -0.29 0 0 0 -0.28 0 0 0 0 0 -0.29 0 0 0.29 -0.29 0 0 0 -0.28 0 0 0 -0.29 -0.29 0 0 -0.29 0 -0.28 0.57 0 0 0.28 0 0 0 0.29 0 0.29 0 0 0 0.28 0 0 0 0.29 0 0 0 0.29 0 0 0 0.28 -0.29 0 0 0.29 0 0 0 0.29 0 0 -0.29 0.28 0 0 0 0.29 -0.28 0 0 0 0 0.29 -0.29 0 0 0 0 0.28 -0.29 0 0 0 -0.28 0.29 0 0 -0.29 0 0 0.29 -0.29 0 0 0zm0.29 0l-0.29 0 0 0 0.29 0zm-65.02 0l0.29 -0.57 -0.29 0 2.01 0 2 0 2 0 2.01 0 2 0 2 0 2.29 0 2.01 0 2 0 2 0 2.01 0 2 0 2 0 2.01 0 2 0 2 0 2.01 0 2 0 2 0 2.01 0 2 0 2.29 0 2 0 2 0 2.01 0 2 0 2 0 2.01 0 2 0 2 0 2.01 0 2 0 0 0.57 -2 0 -2.01 0 -2 0 -2 0 -2.01 0 -2 0 -2 0 -2.01 0 -2 0 -2 0 -2.29 0 -2 0 -2.01 0 -2 0 -2 0 -2.01 0 -2 0 -2 0 -2.01 0 -2 0 -2 0 -2.01 0 -2 0 -2 0 -2.01 0 -2.29 0 -2 0 -2 0 -2.01 0 -2 0 -2 0 -2.01 0 0 0zm0 0l0 0 0 0 0 0zm28.07 -61.87l0 0 0 0 0 0 0 -0.29 0 0.29zm0 0.29l-0.28 0 0 -0.29 0.28 0.29zm1.15 -0.57l0 0.57 0 0 -0.28 0 0 0 0 0 0 0 0 0 0 0 0 0 0 0 -0.29 0 0 0 0 0 0 0 0 0 0 0 0 0 0 0 0 0 -0.29 0 0 0 0 0 0 0 0 0 0 0 0 0 -0.28 0 0 0 0 0 0 0 0 0 0 0 0 0 0 0 0 -0.57 0 0 0 0 0 0 0 0 0 0 0 0 0 0 0.28 0 0 0 0 0 0 0 0 0 0 0 0 0 0.29 0 0 0 0 0 0 0 0 0 0 0 0 0 0 0 0 0 0.29 0 0 0 0 0 0 0 0 0 0 0 0 0 0 0 0.28 0 0 0zm18.62 0l0 0.57 0 0 -0.57 0 -0.57 0 -0.57 0 -0.57 0 -0.57 0 -0.57 0 -0.57 0 -0.57 0 -0.57 0 -0.57 0 -0.57 0 -0.57 0 -0.57 0 -0.86 0 -0.57 0 -0.57 0 -0.57 0 -0.57 0 -0.57 0 -0.57 0 -0.57 0 -0.57 0 -0.57 0 -0.57 0 -0.57 0 -0.57 0 -0.57 0 -0.57 0 -0.57 0 -0.57 0 -0.57 0 -0.57 0 0 -0.57 0.57 0 0.57 0 0.57 0 0.57 0 0.57 0 0.57 0 0.57 0 0.57 0 0.57 0 0.57 0 0.57 0 0.57 0 0.57 0 0.57 0 0.57 0 0.57 0 0.57 0 0.57 0 0.86 0 0.57 0 0.57 0 0.57 0 0.57 0 0.57 0 0.57 0 0.57 0 0.57 0 0.57 0 0.57 0 0.57 0 0.57 0 0.57 0 0 0zm4.87 4.3l-0.28 0 0 0 -0.29 -0.29 0 0 0 -0.29 0 -0.28 0 -0.29 -0.29 0 0 -0.29 0 -0.28 -0.28 0 0 -0.29 0 0 -0.29 -0.29 0 0 0 -0.29 -0.29 0 0 -0.28 -0.28 0 0 0 -0.29 -0.29 -0.29 0 0 0 -0.28 -0.29 0 0 -0.29 0 -0.29 0 0 -0.28 -0.29 0 -0.28 0 0 0 -0.29 0 -0.29 0 -0.28 0 0 -0.57 0.28 0 0.29 0 0.29 0 0.28 0.29 0 0 0.29 0 0.29 0 0.29 0 0 0 0.28 0.28 0.29 0 0 0 0.29 0.29 0 0 0.28 0.29 0.29 0 0 0.28 0.29 0 0 0.29 0.28 0 0 0.29 0 0 0.29 0.29 0 0.28 0.29 0 0 0.29 0 0.29 0 0.28 0.28 0 0 0.29 0 0.29 0 0.28 0 0 0 0zm2.01 13.17l-0.29 0 0 0 0 -0.28 -0.29 -0.29 0 -0.57 0 -0.28 0 -0.57 -0.28 -0.29 0 -0.57 0 -0.29 0 -0.57 0 -0.28 -0.29 -0.29 0 -0.57 0 -0.28 0 -0.57 -0.29 -0.29 0 -0.57 0 -0.29 0 -0.57 0 -0.28 -0.28 -0.29 0 -0.57 0 -0.28 0 -0.57 -0.29 -0.29 0 -0.57 0 -0.29 0 -0.57 0 -0.28 -0.29 -0.29 0 -0.57 0 -0.28 0 -0.57 0.29 0 0 0.29 0.29 0.57 0 0.29 0 0.57 0 0.28 0.28 0.57 0 0.29 0 0.57 0 0.29 0 0.29 0.29 0.57 0 0.29 0 0.57 0 0.28 0.29 0.57 0 0.29 0 0.57 0 0.29 0 0.29 0.28 0.57 0 0.29 0 0.57 0 0.28 0.29 0.57 0 0.29 0 0.57 0 0.29 0 0.29 0.29 0.57 0 0.29 0 0.57 0 0.28 0 0zm4.3 26.64l-0.57 0 0 0 0 -0.86 -0.28 -0.86 0 -0.57 -0.29 -0.86 0 -0.86 -0.29 -0.86 0 -0.86 -0.28 -0.86 0 -0.86 0 -0.86 -0.29 -0.86 0 -0.86 -0.29 -0.57 0 -0.86 -0.28 -0.86 0 -0.86 -0.29 -0.86 0 -0.86 0 -0.86 -0.29 -0.86 0 -0.86 -0.28 -0.86 0 -0.57 -0.29 -0.86 0 -0.86 -0.29 -0.86 0 -0.86 0 -0.86 -0.29 -0.86 0 -0.86 -0.28 -0.86 0 -0.86 0.28 0 0.29 0.86 0 0.86 0.29 0.86 0 0.86 0.29 0.86 0 0.86 0 0.86 0.28 0.57 0 0.86 0.29 0.86 0 0.86 0.29 0.86 0 0.86 0.28 0.86 0 0.86 0 0.86 0.29 0.86 0 0.57 0.29 0.86 0 0.86 0.28 0.86 0 0.86 0.29 0.86 0 0.86 0 0.86 0.29 0.86 0 0.86 0.28 0.57 0 0.86 0.29 0.86 0 0.86 0.29 0.86 0 0 0 0zm2 14.32l-0.28 0 0 0 -0.29 -0.57 0 -0.29 0 -0.57 0 -0.28 -0.29 -0.57 0 -0.29 0 -0.57 0 -0.29 -0.28 -0.57 0 -0.28 0 -0.57 0 -0.57 -0.29 -0.28 0 -0.57 0 -0.29 0 -0.57 0 -0.29 -0.29 -0.57 0 -0.28 0 -0.57 0 -0.57 -0.28 -0.28 0 -0.57 0 -0.29 0 -0.57 -0.29 -0.29 0 -0.57 0 -0.28 0 -0.57 -0.29 -0.57 0 -0.29 0 -0.57 0.57 0 0 0.57 0 0.29 0 0.57 0.29 0.29 0 0.57 0 0.29 0 0.57 0 0.28 0.28 0.57 0 0.57 0 0.28 0 0.57 0.29 0.29 0 0.57 0 0.29 0 0.57 0.29 0.28 0 0.57 0 0.57 0 0.28 0.28 0.57 0 0.29 0 0.57 0 0.29 0.29 0.57 0 0.28 0 0.57 0 0.57 0 0.28 0.29 0.57 0 0.29 0 0.57 0 0 -0 0zm0 0l0 0 0 0 0 0zm0.29 0.29l0 0.57 0 0 0 0 0 0 0 0 -0.29 0 0 0 0 0 0 0 0 -0.29 0 0 0 0 0 0 0 0 0 0 0 0 -0.28 0 0 0 0 0 0 0 0 -0.29 0 0 0 0 0 0 0 0 0 0 0 0 0 0 0 0 0 0 0 -0.28 0 0 0 0 0 0 0.28 0 0 0 0 0 0 0 0 0 0 0 0 0 0 0 0 0 0 0 0 0 0 0 0.29 0 0 0.28 0 0 0 0 0 0 0 0 0 0 0 0 0 0 0 0 0 0 0 0 0 0 0 0 0 0 0 0 0 0 0 0 0 0 0 0 0 0 0 0 0 0zm0 0l0 0 0 0 0 0zm2.58 0.29l0.57 0 -0.28 0.28 0 0 -0.29 0 0 0 0 0 -0.29 0 0 0 0 0 -0.28 0 0 0 0 0 -0.29 0 0 0 0 0 0 0 -0.29 0 0 0 0 0 -0.28 0 0 0 0 0 -0.29 0 0 0 0 0 -0.29 0 0 0 0 0 0 0 -0.28 0 0 0 0 0 -0.29 0 0 0 0 -0.57 0 0 0.29 0 0 0 0 0 0.28 0 0 0 0 0 0 0 0.29 0 0 0 0 0 0.29 0 0 0 0 0 0.28 0 0 0 0 0 0.29 0 0 0 0 0 0 0 0.29 0 0 0 0 0 0.28 0 0 0 0 0 0.29 0 0 0 0 0 0.29 0 0 0 -0.29 0.28 0 0zm0.57 0l0 0.28 -0.28 0 0.28 -0.28zm-1.15 -4.3l0.57 0 0 0 0 0.29 0 0 0 0 0 0.29 0 0 0 0.28 0 0 0 0.29 0 0 0 0.29 0 0 0 0.28 0 0 0.29 0 0 0.29 0 0 0 0.29 0 0 0 0.28 0 0 0 0.29 0 0 0 0.29 0 0 0 0.28 0 0 0 0.29 0.28 0 0 0.29 0 0 0 0.29 0 0 -0.57 0 0 0 0 -0.29 0 0 0 -0.29 0 0 0 -0.29 0 0 0 -0.28 0 0 -0.29 -0.29 0 0 0 -0.29 0 0 0 0 0 -0.28 0 0 0 -0.29 0 0 0 -0.29 0 0 0 -0.28 0 0 0 -0.29 0 0 -0.29 -0.29 0 0 0 0 0 -0.28 0 0 0 -0.29 0 0 0 -0.29 0 0zm-4.01 -26.35l0.28 -0.29 0 0 0.29 0.86 0 0.86 0.29 0.86 0 0.86 0.28 0.86 0 0.86 0 0.86 0.29 0.57 0 0.86 0.29 0.86 0 0.86 0.28 0.86 0 0.86 0.29 0.86 0 0.86 0 0.86 0.29 0.86 0 0.57 0.28 0.86 0 0.86 0.29 0.86 0 0.86 0.29 0.86 0 0.86 0 0.86 0.28 0.86 0 0.86 0.29 0.57 0 0.86 0.29 0.86 0 0.86 0.29 0.86 -0.57 0 0 -0.86 -0.29 -0.57 0 -0.86 -0.28 -0.86 0 -0.86 -0.29 -0.86 0 -0.86 -0.29 -0.86 0 -0.86 0 -0.86 -0.29 -0.86 0 -0.57 -0.28 -0.86 0 -0.86 -0.29 -0.86 0 -0.86 -0.29 -0.86 0 -0.86 0 -0.86 -0.28 -0.86 0 -0.86 -0.29 -0.57 0 -0.86 -0.29 -0.86 0 -0.86 -0.28 -0.86 0 -0.86 0 -0.86 -0.29 -0.86 0 -0.86 -0.29 -0.86 0 -0.57 0 0 0 0zm-4.01 -26.64l0.29 0 0 0 0.28 0.86 0 0.86 0.29 0.57 0 0.86 0 0.86 0.29 0.86 0 0.86 0.28 0.86 0 0.86 0.29 0.86 0 0.86 0 0.57 0.29 0.86 0 0.86 0.28 0.86 0 0.86 0.29 0.86 0 0.86 0.29 0.86 0 0.86 0 0.57 0.28 0.86 0 0.86 0.29 0.86 0 0.86 0.29 0.86 0 0.86 0.29 0.86 0 0.86 0 0.57 0.28 0.86 0 0.86 -0.28 0.28 -0.29 -0.86 0 -0.86 -0.29 -0.86 0 -0.86 0 -0.86 -0.29 -0.86 0 -0.86 -0.28 -0.86 0 -0.57 -0.29 -0.86 0 -0.86 -0.29 -0.86 0 -0.86 0 -0.86 -0.28 -0.86 0 -0.86 -0.29 -0.86 0 -0.86 -0.29 -0.57 0 -0.86 -0.28 -0.86 0 -0.86 0 -0.86 -0.29 -0.86 0 -0.86 -0.29 -0.86 0 -0.86 -0.28 -0.57 0 -0.86 -0.29 -0.86 0 -0.86 0 -0.86 0 0zm-5.15 -4.58l0 -0.57 0 0 0.28 0 0.29 0.29 0.29 0 0.28 0 0.29 0 0.29 0 0.28 0 0 0.28 0.29 0 0.29 0 0.28 0 0.29 0.29 0 0 0.29 0.29 0.28 0 0 0.28 0.29 0 0 0.29 0.29 0.29 0 0 0.28 0.28 0 0.29 0.29 0 0 0.29 0 0.28 0.29 0.29 0 0.29 0 0.28 0.29 0.29 0 0.29 0 0.28 0 0.29 -0.29 0 -0.29 -0.29 0 -0.28 0 -0.29 0 -0.29 0 -0.28 -0.29 -0.29 0 0 0 -0.29 -0.28 -0.28 0 -0.29 0 0 -0.29 -0.29 0 0 -0.29 -0.28 0 0 -0.28 -0.29 0 0 -0.29 -0.29 -0.29 0 0 -0.28 -0.28 0 -0.29 0 0 -0.29 -0.29 0 -0.28 0 -0.29 0 0 -0.29 -0.29 0 -0.28 0 -0.29 0 -0.29 0 -0.28 0 0 0 0 0zm-21.2 0l0 -0.57 0 0 0.57 0 0.86 0 0.57 0 0.57 0 0.86 0 0.57 0 0.57 0 0.86 0 0.57 0 0.57 0 0.57 0 0.86 0 0.57 0 0.57 0 0.86 0 0.57 0 0.57 0 0.86 0 0.57 0 0.57 0 0.86 0 0.57 0 0.57 0 0.57 0 0.86 0 0.57 0 0.57 0 0.86 0 0.57 0 0.57 0 0.86 0 0.57 0 0 0.57 -0.57 0 -0.86 0 -0.57 0 -0.57 0 -0.86 0 -0.57 0 -0.57 0 -0.86 0 -0.57 0 -0.57 0 -0.57 0 -0.86 0 -0.57 0 -0.57 0 -0.86 0 -0.57 0 -0.57 0 -0.86 0 -0.57 0 -0.57 0 -0.86 0 -0.57 0 -0.57 0 -0.57 0 -0.86 0 -0.57 0 -0.57 0 -0.86 0 -0.57 0 -0.57 0 -0.86 0 -0.57 0 0 0zm-0.86 -0.29l-0.28 0 0.28 -0.29 0 0 0 0 0 0 0 0 0 0 0 0 0 0 0 0 0.29 0 0 0 0 0 0 0 0 0 0 0 0 0 0 0 0 0 0.29 0 0 0 0 0 0 0 0 0 0 0 0 0 0 0 0 0 0.28 0 0 0 0 0 0 0 0 0 0 0 0 0.57 0 0 0 0 0 0 0 0 0 0 -0.28 0 0 0 0 0 0 0 0 0 0 0 0 0 0 0 0 0 -0.29 0 0 0 0 0 0 0 0 0 0 0 0 0 0 0 0 0 -0.29 0 0 0 0 0 0 0 0 0 0 0 0 0 0 0 0 0 0 -0.29 0 0zm-0.28 0l0 -0.29 0.28 0 -0.28 0.29zm0.28 3.15l0 0.57 -0.28 -0.29 0 0 0 -0.28 0 0 0 0 0 -0.29 0 0 0 -0.29 0 0 0 0 0 -0.29 0 0 0 0 0 -0.28 0 0 0 -0.29 0 0 0 0 0 -0.29 0 0 0 0 0 -0.28 0 0 0 0 0 -0.29 0 0 0 -0.29 0 0 0 0 0 -0.28 0 0 0 0 0 -0.29 0.28 0 0 0.29 0 0 0 0 0 0.28 0 0 0 0 0 0.29 0 0 0 0.29 0 0 0 0 0 0.28 0 0 0 0 0 0.29 0 0 0 0 0 0.29 0 0 0 0.28 0 0 0 0 0 0.29 0 0 0 0 0 0.29 0 0 0 0.29 0 0 0 0 0 0.28 0 0 0 -0.28 0 -0zm0 0.57l-0.28 0 0 -0.29 0.28 0.29zm4.58 36.66l0 0 0 0 0 0 -0.28 0 0.28 0zm-9.17 -9.17l0 -0.57 0 0 0.57 0 0.29 0.28 0.57 0 0.57 0 0.29 0 0.57 0.29 0.29 0 0.57 0.29 0.28 0.28 0.57 0 0.29 0.29 0.28 0.29 0.57 0.28 0.29 0.29 0.28 0.29 0.29 0.28 0.29 0.29 0.28 0.57 0.29 0.28 0.29 0.29 0.28 0.57 0.29 0.28 0.29 0.29 0 0.57 0.28 0.28 0 0.57 0.29 0.57 0 0.28 0 0.57 0.29 0.57 0 0.28 0 0.57 -0.57 0 0 -0.57 0 -0.28 0 -0.57 0 -0.29 -0.29 -0.57 0 -0.57 -0.28 -0.29 0 -0.28 -0.29 -0.57 -0.29 -0.29 0 -0.57 -0.28 -0.29 -0.29 -0.29 -0.29 -0.28 -0.28 -0.29 -0.29 -0.57 -0.29 -0.28 -0.28 -0.29 -0.29 -0.29 -0.57 0 -0.28 -0.28 -0.29 -0.29 -0.29 -0.29 -0.57 0 -0.29 -0.28 -0.57 0 -0.28 -0.29 -0.57 0 -0.29 -0.29 -0.57 0 -0.29 0 -0.57 0 0 0zm-8.88 9.17l-0.29 0 0 0 0 -0.57 0 -0.29 0 -0.57 0 -0.57 0.29 -0.29 0 -0.57 0.29 -0.57 0 -0.29 0.28 -0.57 0.29 -0.28 0 -0.29 0.29 -0.57 0.28 -0.28 0.29 -0.29 0.29 -0.57 0.28 -0.28 0.29 -0.29 0.29 -0.29 0.57 -0.28 0.29 -0.29 0.29 -0.29 0.57 0 0.29 -0.28 0.29 -0.29 0.57 0 0.29 -0.29 0.57 0 0.57 -0.28 0.29 0 0.57 0 0.28 0 0.57 -0.29 0 0.57 -0.57 0 -0.28 0 -0.57 0.28 -0.29 0 -0.57 0 -0.29 0.29 -0.57 0 -0.28 0.29 -0.29 0 -0.57 0.28 -0.28 0.29 -0.29 0.29 -0.29 0 -0.57 0.28 -0.29 0.29 -0.29 0.29 -0.28 0.57 -0.29 0.29 -0.29 0.29 -0.28 0.28 0 0.29 -0.29 0.57 -0.29 0.28 0 0.57 -0.28 0.29 0 0.57 -0.29 0.29 0 0.57 0 0.28 -0.29 0.57 0 0.29 0 0.57 0 0 0 0zm8.88 9.17l0 0.57 0 0 -0.28 0 -0.57 0 -0.57 -0.28 -0.28 0 -0.57 0 -0.57 -0.29 -0.28 0 -0.57 -0.29 -0.29 -0.28 -0.28 0 -0.57 -0.29 -0.29 -0.29 -0.28 -0.28 -0.57 -0.29 -0.29 -0.29 -0.28 -0.29 -0.29 -0.28 -0.29 -0.57 -0.28 -0.29 -0.29 -0.28 -0.29 -0.57 -0.28 -0.29 0 -0.28 -0.29 -0.57 0 -0.29 -0.29 -0.57 0 -0.57 -0.28 -0.29 0 -0.57 0 -0.57 0 -0.28 0 -0.57 0.28 0 0 0.57 0 0.28 0.29 0.57 0 0.29 0 0.57 0.29 0.57 0 0.29 0.28 0.28 0 0.57 0.29 0.29 0.29 0.57 0 0.29 0.28 0.29 0.29 0.28 0.29 0.57 0.28 0.29 0.29 0.28 0.29 0.29 0.57 0.29 0.29 0.28 0.29 0 0.28 0.29 0.57 0.29 0.29 0.28 0.57 0 0.29 0.29 0.29 0 0.57 0.29 0.29 0 0.57 0 0.57 0 0.29 0 0 0 0 0zm8.88 -9.17l0.57 0 0 0 0 0.57 0 0.29 -0.28 0.57 0 0.57 0 0.29 -0.29 0.57 0 0.57 -0.29 0.29 0 0.57 -0.28 0.29 -0.29 0.57 -0.29 0.28 -0.28 0.29 -0.29 0.57 -0.29 0.28 -0.29 0.29 -0.28 0.29 -0.29 0.28 -0.29 0.29 -0.57 0.29 -0.29 0.28 -0.29 0.29 -0.57 0.29 -0.29 0 -0.57 0.28 -0.28 0 -0.57 0.29 -0.29 0 -0.57 0 -0.29 0.29 -0.57 0 -0.57 0 0 -0.57 0.57 0 0.29 0 0.57 0 0.28 0 0.57 -0.29 0.29 0 0.57 -0.28 0.29 0 0.57 -0.29 0.28 -0.29 0.29 0 0.57 -0.28 0.28 -0.29 0.29 -0.29 0.29 -0.28 0.28 -0.29 0.29 -0.29 0.29 -0.57 0.29 -0.29 0.28 -0.29 0.29 -0.28 0 -0.57 0.29 -0.29 0.28 -0.28 0 -0.57 0.29 -0.29 0 -0.57 0.29 -0.57 0 -0.29 0 -0.57 0 -0.29 0 -0.57 0 0zm10.6 -60.72l0 0 0 0 0 0 -0.29 0 0.29 0zm0 0l0 0.29 0 0 0 -0.29zm-0.29 0l0.29 -0.57 0 0.28 0 0 0 0 0 0 0 0 0 0 0 0 0 0 0 0 0 0 0 0 0 0.29 0 0 0 0 0 0 0 0 0 0 0 0 0 0 0 0 0 0 0 0 0 0 0 0 0 0 0 0 0 0 0 0 0 0 0 0 0 0 0 0 0 0 -0.29 0 0 0 0 0 0 0 0 0 0 0 0 0 0 0 0 0 0 0 0 0 0 0 0 0 0 0 0 0 0 0 0 0 0 0 0 -0.29 0 0 0 0 0 0 0 0 0 0 0 0 0 0 0 0 0 0 0 0 0 0 0 0 0 0 0 0 0 0.29 0 0zm0.29 -0.57l0.28 0.29 -0.28 0 0 -0.29zm-20.91 -6.87l-0.29 0 0.29 -0.29 0.57 0.29 0.57 0.29 0.86 0.28 0.57 0 0.57 0.29 0.86 0.29 0.57 0.28 0.57 0.29 0.57 0 0.86 0.29 0.57 0.28 0.57 0.29 0.86 0 0.57 0.29 0.57 0.28 0.57 0.29 0.86 0.29 0.57 0 0.57 0.28 0.86 0.29 0.57 0.29 0.57 0.28 0.57 0 0.86 0.29 0.57 0.29 0.57 0.28 0.86 0 0.57 0.29 0.57 0.29 0.57 0.28 0.86 0.29 0.57 0 -0.28 0.57 -0.57 -0.29 -0.57 -0.29 -0.57 0 -0.86 -0.28 -0.57 -0.29 -0.57 -0.29 -0.86 -0.28 -0.57 0 -0.57 -0.29 -0.57 -0.29 -0.86 -0.28 -0.57 0 -0.57 -0.29 -0.57 -0.29 -0.86 -0.28 -0.57 -0.29 -0.57 0 -0.86 -0.29 -0.57 -0.28 -0.57 -0.29 -0.57 -0.29 -0.86 0 -0.57 -0.28 -0.57 -0.29 -0.86 -0.29 -0.57 0 -0.57 -0.28 -0.57 -0.29 -0.86 -0.29 -0.57 -0.29 -0.57 0 -0.86 -0.28 0.29 -0.29 0 0zm-0.29 0l0 -0.29 0.28 0 -0.28 0.29zm0 14.32l0.28 0.57 -0.28 -0.28 0 -0.29 0 -0.57 0 -0.57 0 -0.29 0 -0.57 0 -0.28 0 -0.57 0 -0.57 0 -0.28 0 -0.57 0 -0.29 0 -0.57 0 -0.57 0 -0.29 0 -0.57 0 -0.29 0 -0.57 0 -0.57 0 -0.29 0 -0.57 0 -0.28 0 -0.57 0 -0.29 0 -0.57 0 -0.57 0 -0.29 0 -0.57 0 -0.57 0 -0.29 0 -0.57 0 -0.29 0 -0.57 0.28 0 0 0.57 0 0.29 0 0.57 0 0.29 0 0.57 0 0.57 0 0.29 0 0.57 0 0.57 0 0.29 0 0.57 0 0.28 0 0.57 0 0.29 0 0.57 0 0.57 0 0.29 0 0.57 0 0.29 0 0.57 0 0.57 0 0.29 0 0.57 0 0.28 0 0.57 0 0.57 0 0.28 0 0.57 0 0.29 0 0.57 0 0.57 0 0.29 -0.28 -0.29 0 0zm0.29 0.57l-0.29 0 0 -0.29 0.29 0.29zm20.62 -7.45l0.29 0 0 0.29 -0.57 0.29 -0.86 0 -0.57 0.28 -0.57 0.29 -0.86 0.29 -0.57 0.28 -0.57 0 -0.57 0.29 -0.86 0.29 -0.57 0.28 -0.57 0 -0.57 0.29 -0.86 0.29 -0.57 0.28 -0.57 0.29 -0.86 0 -0.57 0.29 -0.57 0.28 -0.57 0.29 -0.86 0 -0.57 0.29 -0.57 0.28 -0.86 0.29 -0.57 0.29 -0.57 0 -0.57 0.28 -0.86 0.29 -0.57 0.29 -0.57 0.29 -0.86 0 -0.57 0.28 -0.57 0.29 -0.29 -0.57 0.86 0 0.57 -0.28 0.57 -0.29 0.86 -0.29 0.57 -0.28 0.57 0 0.57 -0.29 0.86 -0.29 0.57 -0.29 0.57 -0.28 0.86 0 0.57 -0.29 0.57 -0.29 0.57 -0.28 0.86 0 0.57 -0.29 0.57 -0.29 0.57 -0.28 0.86 -0.29 0.57 0 0.57 -0.29 0.86 -0.28 0.57 -0.29 0.57 0 0.57 -0.29 0.86 -0.28 0.57 -0.29 0.57 -0.29 0.86 0 0.57 -0.28 0.57 -0.29 0.57 -0.29 0 0.29 0 0zm0.29 0l0 0.29 0 0 0 -0.29zm-12.03 73.04l0 0 0 0 0 0 0 0.29 0 -0.29zm0 -0.29l0.29 0 0 0.29 -0.29 -0.29zm-14.89 0.29l-0.29 0 0.29 -0.29 0.28 0 0.57 0 0.57 0 0.28 0 0.57 0 0.57 0 0.28 0 0.57 0 0.57 0 0.29 0 0.57 0 0.29 0 0.57 0 0.57 0 0.28 0 0.57 0 0.57 0 0.28 0 0.57 0 0.57 0 0.28 0 0.57 0 0.57 0 0.28 0 0.57 0 0.57 0 0.28 0 0.57 0 0.29 0 0.57 0 0.57 0 0.29 0 0 0.57 -0.29 0 -0.57 0 -0.57 0 -0.29 0 -0.57 0 -0.28 0 -0.57 0 -0.57 0 -0.28 0 -0.57 0 -0.57 0 -0.28 0 -0.57 0 -0.57 0 -0.28 0 -0.57 0 -0.57 0 -0.28 0 -0.57 0 -0.57 0 -0.29 0 -0.57 0 -0.29 0 -0.57 0 -0.57 0 -0.28 0 -0.57 0 -0.57 0 -0.28 0 -0.57 0 -0.57 0 -0.28 0 0 -0.29 0 0zm-0.29 0l0 -0.29 0.29 0 -0.29 0.29zm0.29 0.86l-0.29 0 0 0 0 0 0 0 0 0 0 0 0 0 0 0 0 0 0 0 0 0 0 -0.29 0 0 0 0 0 0 0 0 0 0 0 0 0 0 0 0 0 0 0 -0.28 0 0 0 0 0 0 0 0 0 0 0 0 0 0 0 0 0 -0.29 0 0 0 0 0 0 0.29 0 0 0 0 0 0 0 0 0.29 0 0 0 0 0 0 0 0 0 0 0 0 0 0 0 0 0 0.28 0 0 0 0 0 0 0 0 0 0 0 0 0 0 0 0 0 0 0 0.29 0 0 0 0 0 0 0 0 0 0 0 0 0 0 0 0 0 0 0 0zm0 0l0 0 0 0 0 0zm2.29 2.29l0 0.29 0 0 -0.29 0 -0.29 0 0 0 -0.28 0 0 0 -0.29 0 0 0 -0.29 0 0 0 0 0 -0.28 0 0 0 -0.29 -0.29 0 0 0 0 0 0 -0.29 -0.28 0 0 0 0 0 -0.29 0 0 -0.29 0 0 -0.29 0 0 0 -0.28 0 0 0 -0.29 0 0 0 -0.29 0 0 0 -0.28 0 -0.29 0.29 0 0 0.29 0 0.28 0 0 0 0.29 0.29 0 0 0.29 0 0 0 0 0 0.28 0 0 0 0 0 0.29 0 0 0 0 0.29 0 0 0 0 0.29 0 0 0 0 0.28 0 0 0 0 0 0 0 0.29 0 0 0.28 0.29 0 0 0 0 0 0.28 0 0 0 0.29 0 0.29 0 0 0zm10.02 0l0 0.57 0 0 -0.29 -0.29 -0.28 0 -0.29 0 -0.29 0 -0.57 0 -0.29 0 -0.29 0 -0.28 0 -0.29 0 -0.29 0 -0.28 0 -0.29 0 -0.29 0 -0.57 0 -0.29 0 -0.29 0 -0.29 0 -0.28 0 -0.29 0 -0.29 0 -0.28 0 -0.29 0 -0.29 0 -0.57 0 -0.29 0 -0.29 0 -0.28 0 -0.29 0 -0.29 0 -0.28 0 -0.29 0 -0.29 0 0 -0.28 0.29 0 0.29 0 0.28 0 0.29 0 0.29 0 0.28 0 0.29 0 0.29 0 0.57 0 0.29 0 0.29 0 0.28 0 0.29 0 0.29 0 0.28 0 0.29 0 0.29 0 0.29 0 0.57 0 0.29 0 0.29 0 0.28 0 0.29 0 0.29 0 0.28 0 0.29 0 0.29 0 0.57 0 0.29 0 0.29 0 0.28 0 0.29 0 0 0 0 -0zm2.58 -2.86l0.57 -0.29 0 0 0 0.29 0 0.28 0 0.29 0 0 0 0.29 0 0.28 0 0 0 0.29 0 0 0 0.29 -0.29 0 0 0.28 0 0 0 0.29 0 0 0 0.29 -0.29 0 0 0 0 0.28 -0.28 0 0 0 -0.29 0.29 0 0 -0.29 0 -0.29 0 0 0 -0.28 0 -0.29 0 0 0 -0.29 0.29 -0.28 0 -0.29 0 0 -0.57 0.29 0 0.28 0 0.29 0 0 0 0.29 0 0.28 0 0 0 0.29 -0.29 0 0 0.29 0 0 0 0 0 0.29 -0.28 0 0 0 0 0 0 0 -0.29 0.28 0 0 0 0 -0.29 0 0 0 0 0 -0.28 0 0 0 -0.29 0 0 0 -0.29 0 -0.28 0 0 0 -0.29 0 -0.29 0 0 0 0 0 0zm0 0l0 0 0 0 0 0zm0 0l0 -0.57 0.29 0.29 0 0 0 0 0 0 0 0 0 0 0 0 0 0 0 0 0 0 0 0 0 0 0 0 0 0 0 0 0 0 0 0 0 0 0 0 0 0 0 0 0 0 0 0 0 0 0 0 0 0 0 0 0 0 0 0 0 0 0 0 0.28 0.28 0 -0.28 -0.57 0.28 0 0 0 0 0 0 0 0 0 0 0 0 0 0 0 0 0 0 0 0 0 0 0 0 0 0 0 0 0 0 0 0 0 0 0 0 0 0 0 0 0 0 0 0 0 0 0 0 0 0 0 0 0 0 0 0 0 0 0 0 0 -0.28 0 0 0 0.28 0 0zm0 -0.57l0.29 0 0 0.29 -0.29 -0.29zm-8.88 -46.11l0 0 0 0 0 0 0.28 0 -0.28 0zm-0.29 0l0 -0.29 0.28 0 -0.28 0.29zm0.29 9.17l0 0.57 -0.29 -0.28 0 -0.29 0 -0.29 0 -0.28 0 -0.29 0 -0.29 0 -0.29 0 -0.28 0 -0.29 0 -0.29 0 -0.28 0 -0.29 0 -0.29 0 -0.28 0 -0.29 0 -0.29 0 -0.28 0 -0.29 0 -0.29 0 -0.57 0 -0.29 0 -0.29 0 -0.28 0 -0.29 0 -0.29 0 -0.28 0 -0.29 0 -0.29 0 -0.28 0 -0.29 0 -0.29 0 -0.28 0 -0.29 0.57 0 0 0.29 0 0.28 0 0.29 0 0.29 0 0.28 0 0.29 0 0.29 0 0.28 0 0.29 0 0.29 0 0.28 0 0.29 0 0.29 0 0.57 0 0.29 0 0.29 0 0.28 0 0.29 0 0.29 0 0.28 0 0.29 0 0.29 0 0.28 0 0.29 0 0.29 0 0.28 0 0.29 0 0.29 0 0.29 0 0.28 0 0.29 0 0.29 -0.29 -0.29 0 0zm0 0.57l-0.29 0 0 -0.28 0.29 0.28zm2.86 -0.28l0.29 0 0 0.28 -0.29 0 0 0 0 0 -0.29 0 0 0 0 0 -0.28 0 0 0 0 0 -0.29 0 0 0 0 0 -0.29 0 0 0 0 0 -0.28 0 0 0 0 0 -0.29 0 0 0 0 0 -0.29 0 0 0 0 0 -0.28 0 0 0 0 0 -0.29 0 0 0 -0.29 0 0 0 0 0 0 -0.57 0 0 0 0 0.29 0 0 0 0.29 0 0 0 0 0 0.28 0 0 0 0 0 0.29 0 0 0 0 0 0.29 0 0 0 0 0 0.28 0 0 0 0 0 0.29 0 0 0 0 0 0.29 0 0 0 0 0 0.28 0 0 0 0 0 0.29 0 0 0 0 0 0.29 0 -0.29 0.28 0 0zm0.29 0l0 0.28 0 0 0 -0.28zm0 -9.17l0 -0.57 0 0.28 0 0.29 0 0.29 0 0.28 0 0.29 0 0.29 0 0.28 0 0.29 0 0.29 0 0.28 0 0.29 0 0.29 0 0.28 0 0.29 0 0.29 0 0.28 0 0.29 0 0.29 0 0.29 0 0.57 0 0.29 0 0.29 0 0.28 0 0.29 0 0.29 0 0.28 0 0.29 0 0.29 0 0.28 0 0.29 0 0.29 0 0.28 0 0.29 -0.29 0 0 -0.29 0 -0.28 0 -0.29 0 -0.29 0 -0.28 0 -0.29 0 -0.29 0 -0.28 0 -0.29 0 -0.29 0 -0.28 0 -0.29 0 -0.29 0 -0.57 0 -0.29 0 -0.29 0 -0.29 0 -0.28 0 -0.29 0 -0.29 0 -0.28 0 -0.29 0 -0.29 0 -0.28 0 -0.29 0 -0.29 0 -0.28 0 -0.29 0 -0.29 0 -0.28 0 -0.29 0 -0.29 0.29 0.29 0 0zm0 -0.57l0 0 0 0.29 0 -0.29zm-2.87 0.29l-0.57 0 0.28 -0.29 0 0 0 0 0.29 0 0 0 0 0 0.29 0 0 0 0.28 0 0 0 0 0 0.29 0 0 0 0 0 0.29 0 0 0 0 0 0.28 0 0 0 0 0 0.29 0 0 0 0 0 0.29 0 0 0 0 0 0.28 0 0 0 0 0 0.29 0 0 0 0 0 0.29 0 0 0.57 -0.29 0 0 0 0 0 -0.29 0 0 0 0 0 -0.28 0 0 0 0 0 -0.29 0 0 0 0 0 -0.29 0 0 0 0 0 -0.28 0 0 0 0 0 -0.29 0 0 0 0 0 -0.29 0 0 0 0 0 -0.28 0 0 0 -0.29 0 0 0 0 0 -0.29 0 0 0 0 0 0.29 -0.29 0 0zm-0.57 0l0 -0.29 0.28 0 -0.28 0.29zm3.44 -2.87l0 0 0 0 0 0 -0.29 0 0.29 0zm0 0l0 0.29 0 0 0 -0.29zm0 -6.02l0 -0.57 0 0.28 0 0 0 0.29 0 0.29 0 0 0 0.28 0 0.29 0 0.29 0 0 0 0.28 0 0.29 0 0 0 0.29 0 0.28 0 0 0 0.29 0 0.29 0 0 0 0.28 0 0.29 0 0 0 0.29 0 0.28 0 0.29 0 0 0 0.29 0 0.28 0 0 0 0.29 0 0.29 0 0 0 0.29 0 0.28 -0.29 0 0 -0.28 0 -0.29 0 0 0 -0.29 0 -0.29 0 0 0 -0.28 0 -0.29 0 0 0 -0.29 0 -0.28 0 -0.29 0 0 0 -0.29 0 -0.28 0 0 0 -0.29 0 -0.29 0 0 0 -0.28 0 -0.29 0 0 0 -0.29 0 -0.28 0 0 0 -0.29 0 -0.29 0 -0.28 0 0 0 -0.29 0 -0.29 0 0 0.29 0.29 0 0zm0 -0.57l0 0 0 0.28 0 -0.28zm-3.15 0.29l-0.29 0 0.29 -0.29 0 0 0 0 0.28 0 0 0 0 0 0.29 0 0 0 0 0 0.29 0 0 0 0 0 0.28 0 0 0 0 0 0.29 0 0 0 0 0 0.29 0 0 0 0.28 0 0 0 0 0 0.29 0 0 0 0 0 0.29 0 0 0 0 0 0.28 0 0 0 0 0 0.29 0 0 0.57 -0.29 0 0 0 0 0 -0.28 0 0 0 0 0 -0.29 0 0 0 0 0 -0.29 0 0 0 0 0 -0.28 0 0 0 -0.29 0 0 0 0 0 -0.29 0 0 0 0 0 -0.28 0 0 0 0 0 -0.29 0 0 0 0 0 -0.29 0 0 0 0 0 -0.28 0 0 0 0 0 0 -0.29 0 0zm-0.29 0l0 -0.29 0.28 0 -0.28 0.29zm0.29 6.01l0 0.57 -0.29 -0.29 0 -0.28 0 0 0 -0.29 0 -0.29 0 -0.29 0 0 0 -0.28 0 -0.29 0 0 0 -0.29 0 -0.28 0 0 0 -0.29 0 -0.29 0 0 0 -0.28 0 -0.29 0 -0.29 0 0 0 -0.28 0 -0.29 0 0 0 -0.29 0 -0.28 0 0 0 -0.29 0 -0.29 0 0 0 -0.28 0 -0.29 0 -0.29 0 0 0.29 0 0 0 0 0.29 0 0.29 0 0.28 0 0 0 0.29 0 0.29 0 0 0 0.28 0 0.29 0 0 0 0.29 0 0.28 0 0 0 0.29 0 0.29 0 0.28 0 0 0 0.29 0 0.29 0 0 0 0.28 0 0.29 0 0 0 0.29 0 0.28 0 0 0 0.29 0 0.29 0 0.29 0 0 0 0.28 0 -0.28 0 -0zm0 0.57l-0.29 0 0 -0.29 0.29 0.29zm2.86 -0.29l0.29 0 0 0.29 -0.29 0 0 0 0 0 -0.29 0 0 0 0 0 -0.28 0 0 0 0 0 -0.29 0 0 0 0 0 -0.29 0 0 0 0 0 -0.28 0 0 0 0 0 -0.29 0 0 0 -0.29 0 0 0 0 0 -0.28 0 0 0 0 0 -0.29 0 0 0 0 0 -0.29 0 0 0 0 0 0 -0.57 0 0 0 0 0.29 0 0 0 0 0 0.29 0 0 0 0 0 0.28 0 0 0 0 0 0.29 0 0 0 0.29 0 0 0 0 0 0.28 0 0 0 0 0 0.29 0 0 0 0 0 0.29 0 0 0 0 0 0.28 0 0 0 0 0 0.29 0 0 0 0 0 0.29 0 -0.29 0.29 0 0zm0.29 0l0 0.29 0 0 0 -0.29zm-6.02 8.88l0 0 0 0 0 0 0 0.28 0 -0.28zm0 0l0.29 0 0 0 -0.29 0zm-1.43 0.28l0 -0.28 0 0 0 0 0.29 0 0 0 0 0 0 0 0 0 0 0 0 0 0 0 0.29 0 0 0 0 0 0 0 0 0 0 0 0 0 0.28 0 0 0 0 0 0 0 0 0 0 0 0 0 0.29 0 0 0 0 0 0 0 0 0 0 0 0.29 0 0 0 0 0 0 0.28 0 0 0 0 -0.29 0 0 0 0 0 0 0 0 0 0 0 -0.29 0 0 0 0 0 0 0 0 0 0 0 0 0 -0.28 0 0 0 0 0 0 0 0 0 0 0 0 0 -0.29 0 0 0 0 0 0 0 0 0 0 0 0 0 0 0 -0.29 0 0 0 0 0zm-3.15 0l0 -0.28 0 0 0 0 0 0 0.29 0 0 0 0 0 0.28 0 0 0 0 0 0.29 0 0 0 0.29 0 0 0 0 0 0.28 0 0 0 0 0 0.29 0 0 0 0.29 0 0 0 0 0 0.28 0 0 0 0 0 0.29 0 0 0 0 0 0.29 0 0 0 0.28 0 0 0 0 0 0 0.28 0 0 0 0 -0.28 0 0 0 -0.29 0 0 0 0 0 -0.29 0 0 0 0 0 -0.28 0 0 0 0 0 -0.29 0 0 0 -0.29 0 0 0 0 0 -0.28 0 0 0 0 0 -0.29 0 0 0 0 0 -0.29 0 0 0 -0.28 0 0 0 0 0 -0.29 0 0 0 0 0 0 0zm-1.43 1.43l-0.57 0 0 0 0 0 0 -0.29 0 0 0 0 0.28 0 0 -0.28 0 0 0 0 0 -0.29 0 0 0 0 0 0 0.29 -0.29 0 0 0 0 0 0 0 -0.28 0.29 0 0 0 0 0 0 0 0.28 0 0 -0.29 0 0 0 0 0.29 0 0 0 0 0 0.29 0 0 0 0 0 0.28 0 0 0.29 -0.28 0 0 0 0 0 0 0.28 -0.29 0 0 0 0 0 0 0 0 0 -0.29 0 0 0 0 0 0 0 0 0.29 -0.28 0 0 0 0 0 0 0 0 0 0 0.29 0 0 -0.29 0 0 0 0 0 0 0.28 0 0 0 0 0 0 0 0 0 0.29 0 0 0 0 0 0 0 0zm1.15 1.43l0 0.57 0 0 -0.28 0 0 0 0 0 0 0 -0.29 0 0 -0.28 0 0 -0.29 0 0 0 0 0 0 0 0 -0.29 -0.28 0 0 0 0 0 0 0 0 -0.29 -0.29 0 0 0 0 0 0 -0.28 0 0 0 0 0 0 0 -0.29 -0.29 0 0 0 0 -0.29 0 0 0 0 0 -0.29 0 0 0.57 0 0 0 0 0.29 0 0 0 0 0 0 0 0.29 0 0 0 0 0 0 0 0 0 0.29 0 0 0.28 0 0 0 0 0 0 0.28 0 0 0 0 0 0 0.29 0 0 0 0 0 0 0.29 0 0 0 0 0.29 0 0 0 0 0 0 0 0 0 0.29 0 0 0 0 0 -0 0zm4.58 0.29l0.57 0 -0.29 0.28 -0.28 0 0 0 -0.29 0 0 0 -0.29 0 0 0 -0.29 0 0 0 -0.28 0 -0.29 0 0 0 -0.29 0 0 0 -0.28 0 0 0 -0.29 0 0 0 -0.29 0 0 0 -0.28 0 0 0 -0.29 0 0 0 -0.29 0 0 0 -0.28 0 -0.29 0 0 0 -0.29 0 0 0 -0.28 0 0 0 0 -0.57 0 0 0.28 0 0 0 0.29 0 0 0 0.29 0 0.28 0 0 0 0.29 0 0 0 0.29 0 0 0 0.28 0 0 0 0.29 0 0 0 0.29 0 0 0 0.28 0 0 0 0.29 0 0 0 0.29 0 0.28 0 0 0 0.29 0 0 0 0.29 0 0 0 0.29 0 0 0 0.28 0 -0.28 0.28 -0 0zm0.57 0l0 0.28 -0.29 0 0.29 -0.28zm-0.29 -3.15l0 -0.28 0.29 0 0 0.28 0 0 0 0.29 0 0 0 0 0 0.29 0 0 0 0 0 0.28 0 0 0 0.29 0 0 0 0 0 0.29 0 0 0 0 0 0.28 0 0 0 0 0 0.29 0 0 0 0 0 0.29 0 0 0 0.28 0 0 0 0 0 0.29 0 0 0 0 0 0.29 0 0 -0.57 0 0 0 0 -0.29 0 0 0 0 0 -0.29 0 0 0 0 0 -0.28 0 0 0 -0.29 0 0 0 0 0 -0.29 0 0 0 0 0 -0.28 0 0 0 0 0 -0.29 0 0 0 0 0 -0.29 0 0 0 -0.28 0 0 0 0 0 -0.29 0 0 0 0 0 -0.29 0 0 0 -0.28 0.29 0.28 0 0zm0 -0.28l0.29 0 0 0 -0.29 0zm8.88 3.44l0 0 0 0 0 0 0 -0.29 0 0.29zm0 0.28l-0.28 0 0 -0.28 0.28 0.28zm4.58 -0.57l0 0.57 0 0 -0.28 0 0 0 -0.29 0 0 0 -0.29 0 0 0 -0.28 0 0 0 -0.29 0 0 0 -0.29 0 0 0 -0.28 0 0 0 -0.29 0 0 0 -0.29 0 0 0 -0.29 0 0 0 -0.28 0 0 0 -0.29 0 0 0 -0.29 0 0 0 -0.28 0 0 0 -0.29 0 0 0 -0.29 0 0 0 0 -0.57 0 0 0.29 0 0 0 0.29 0 0 0 0.28 0 0 0 0.29 0 0 0 0.29 0 0 0 0.28 0 0 0 0.29 0 0 0 0.29 0 0 0 0.29 0 0 0 0.28 0 0 0 0.29 0 0 0 0.29 0 0 0 0.28 0 0 0 0.29 0 0 0 0.29 0 0 0 0.28 0 0 0zm1.43 -1.15l0.29 0 0 0 0 0 0 0 0 0.28 0 0 0 0 0 0 0 0.29 0 0 -0.29 0 0 0.29 0 0 0 0 0 0 0 0.28 -0.28 0 0 0 0 0 0 0 0 0.29 -0.29 0 0 0 0 0 0 0 -0.29 0 0 0.29 0 0 -0.28 0 0 0 0 0 -0.29 0 0 0 0 0 0 -0.57 0 0 0 0 0.29 0 0 0 0 0 0 0 0 0 0.28 0 0 0 0 0 0 0 0 -0.29 0.29 0 0 0 0 0 0 0 0 0 0 0 0.29 -0.28 0 0 0 0 0 0 0 0 0 -0.29 0 0 0 0 0 0 0 0 0 -0.29 0 0 0.28 0 0 0 0 0 0 0zm0.29 0l0 0 0 0 0 0zm-1.72 -1.72l0 -0.28 0 0 0.29 0 0 0 0 0 0.29 0 0 0 0 0 0 0 0.28 0 0 0.28 0 0 0.29 0 0 0 0 0 0 0.29 0 0 0.29 0 0 0 0 0.29 0 0 0 0 0 0 0.28 0.28 0 0 0 0 0 0 0 0.29 0 0 0 0 0 0.29 0 0 0 0 0 0.28 -0.28 0 0 -0.28 0 0 0 0 -0.29 0 0 -0.29 0 0 0 0 0 0 0 -0.29 0 0 0 0 0 0 0 0 0 -0.28 0 0 -0.29 0 0 0 0 0 0 0 0 -0.29 0 0 -0.28 0 0 0 0 0 0 0 0 0 -0.29 0 0 0 0 0 0 -0.29 -0.29 0 0 0 0 0zm-4.58 0l-0.28 0 0.28 -0.28 0 0 0.29 0 0 0 0.29 0 0 0 0.28 0 0 0 0.29 0 0 0 0.29 0 0 0 0.28 0 0 0 0.29 0 0 0 0.29 0 0 0 0.28 0 0.29 0 0 0 0.29 0 0 0 0.28 0 0 0 0.29 0 0 0 0.29 0 0 0 0.28 0 0 0 0.29 0 0 0 0 0.28 0 0 -0.29 0 0 0 -0.28 0 0 0 -0.29 0 0 0 -0.29 0 0 0 -0.28 0 0 0 -0.29 0 0 0 -0.29 0 -0.28 0 0 0 -0.29 0 0 0 -0.29 0 0 0 -0.28 0 0 0 -0.29 0 0 0 -0.29 0 0 0 -0.28 0 0 0 -0.29 0 0 0 -0.29 0 0 0 0 0zm-0.28 0l0 -0.28 0.28 0 -0.28 0.28zm0.28 2.87l0 0.57 -0.28 -0.28 0 0 0 -0.29 0 0 0 0 0 -0.29 0 0 0 0 0 -0.28 0 0 0 -0.29 0 0 0 0 0 -0.29 0 0 0 0 0 -0.29 0 0 0 0 0 -0.28 0 0 0 0 0 -0.29 0 0 0 -0.29 0 0 0 0 0 -0.28 0 0 0 0 0 -0.29 0 0 0 0 0.28 0 0 0 0 0 0 0.29 0 0 0 0 0 0.28 0 0 0 0 0 0.29 0 0 0 0.29 0 0 0 0 0 0.28 0 0 0 0 0 0.29 0 0 0 0 0 0.29 0 0 0 0 0 0.29 0 0 0 0.28 0 0 0 0 0 0.29 0 0 0 0 0 0.29 0 0 0 -0.29 0 0zm0 0.57l-0.28 0 0 -0.28 0.28 0.28zm-6.01 -21.77l0 0 0 0 0 0 0 -0.29 0 0.29zm0 0l-0.29 0 0 0 0.29 0zm2.86 0l0.57 0 -0.29 0 -0.29 0 0 0 0 0 -0.28 0 0 0 0 0 -0.29 0 0 0 0 0 -0.29 0 0 0 0 0 -0.28 0 0 0 0 0 -0.29 0 0 0 0 0 -0.29 0 0 0 0 0 -0.29 0 0 0 -0.28 0 0 0 0 0 -0.29 0 0 0 0 0 -0.29 0 0 0 0 0 0 -0.29 0 0 0 0 0.29 0 0 0 0 0 0.29 0 0 0 0 0 0.28 0 0 0 0.29 0 0 0 0 0 0.29 0 0 0 0 0 0.29 0 0 0 0 0 0.28 0 0 0 0 0 0.29 0 0 0 0 0 0.29 0 0 0 0 0 0.28 0 0 0 0 0 0.29 0 -0.29 0.29 0 0zm0.57 0l0 0 -0.29 0 0.29 0zm-0.29 -5.44l0 -0.29 0.29 0.29 0 0 0 0.28 0 0 0 0.29 0 0.29 0 0 0 0.28 0 0 0 0.29 0 0.29 0 0 0 0.28 0 0 0 0.29 0 0.29 0 0 0 0.28 0 0 0 0.29 0 0 0 0.29 0 0.28 0 0 0 0.29 0 0 0 0.29 0 0.28 0 0 0 0.29 0 0 0 0.29 0 0.28 -0.57 0 0 -0.28 0 -0.29 0 0 0 -0.29 0 0 0 -0.28 0 -0.29 0 0 0 -0.29 0 0 0 -0.28 0 -0.29 0 0 0 -0.29 0 0 0 -0.28 0 0 0 -0.29 0 -0.29 0 0 0 -0.28 0 0 0 -0.29 0 -0.29 0 0 0 -0.28 0 0 0 -0.29 0 -0.29 0 0 0 -0.28 0 0 0.29 0 0 0zm0 -0.29l0.29 0 0 0.29 -0.29 -0.29zm-3.15 1.15l-0.29 0 0 0 0.29 0 0 -0.29 0 0 0.28 0 0 0 0 0 0.29 0 0 0 0 0 0.29 0 0 -0.28 0 0 0.28 0 0 0 0.29 0 0 0 0 0 0.29 0 0 -0.29 0 0 0.28 0 0 0 0 0 0.29 0 0 0 0 0 0.29 -0.29 0 0 0 0 0.28 0 0 0 0.29 0 0 0.29 0 0.29 -0.29 0 0 0 0 0 -0.28 0 0 0 0 0 -0.29 0 0 0.28 -0.29 0 0 0 0 0 -0.28 0 0 0 0 0 -0.29 0 0 0.29 0 0 -0.29 0 0 0 0 0 -0.28 0 0 0 0 0 -0.29 0 0 0.29 0 0 -0.29 0 0 0 0 0 -0.28 0 0 0 0 -0.29zm-0.29 0l0 0 0 0 0 0zm0.29 4.3l0 0.29 -0.29 0 0 -0.29 0 0 0 -0.28 0 0 0 -0.29 0 0 0 -0.29 0 0 0 -0.29 0 0 0 -0.28 0 0 0 -0.29 0 0 0 -0.29 0 0 0 -0.28 0 0 0 0 0 -0.29 0 0 0 -0.29 0 0 0 -0.28 0 0 0 -0.29 0 0 0 -0.29 0 0 0 -0.28 0 0 0 -0.29 0.29 0 0 0.29 0 0 0 0.28 0 0 0 0.29 0 0 0 0.29 0 0 0 0.28 0 0 0 0.29 0 0 0 0.29 0 0 0 0 0 0.28 0 0 0 0.29 0 0 0 0.29 0 0 0 0.28 0 0 0 0.29 0 0 0 0.29 0 0 0 0.29 0 0 0 0.28 0 0 0 0.29 0 -0.29zm0 0.29l-0.29 0 0 0 0.29 0zm0 64.74l0 0 0 0 0 0 0.28 0 -0.28 0zm-0.29 0l0 -0.29 0.28 0 -0.28 0.29zm0.29 2.86l0 0.57 -0.29 -0.29 0 0 0 -0.29 0 0 0 0 0 -0.28 0 0 0 -0.29 0 0 0 0 0 -0.29 0 0 0 0 0 -0.28 0 0 0 0 0 -0.29 0 0 0 0 0 -0.29 0 0 0 0 0 -0.28 0 0 0 -0.29 0 0 0 0 0 -0.29 0 0 0 0 0 -0.29 0 0 0 0 0.57 0 0 0 0 0 0 0.29 0 0 0 0 0 0.29 0 0 0 0 0 0.29 0 0 0 0.28 0 0 0 0 0 0.29 0 0 0 0 0 0.29 0 0 0 0 0 0.28 0 0 0 0 0 0.29 0 0 0 0 0 0.29 0 0 0 0.28 0 0 0 0 0 0.29 0 0 -0.29 -0.29 0 0zm0 0.57l-0.29 0 0 -0.29 0.29 0.29zm2.86 -0.29l0.57 0 -0.29 0.28 -0.29 0 0 0 0 0 -0.28 0 0 0 0 0 -0.29 0 0 0 0 0 -0.29 0 0 0 0 0 -0.28 0 0 0 0 0 -0.29 0 0 0 0 0 -0.29 0 0 0 0 0 -0.29 0 0 0 0 0 -0.28 0 0 0 0 0 -0.29 0 0 0 -0.29 0 0 0 0 0 0 -0.57 0 0 0 0 0.29 0 0 0 0.29 0 0 0 0 0 0.28 0 0 0 0 0 0.29 0 0 0 0 0 0.29 0 0 0 0 0 0.29 0 0 0 0 0 0.28 0 0 0 0 0 0.29 0 0 0 0 0 0.29 0 0 0 0 0 0.28 0 0 0 0 0 0.29 0 -0.29 0.28 0 0zm0.57 0l0 0.28 -0.29 0 0.29 -0.28zm-0.29 -3.15l0 -0.29 0.29 0.29 0 0 0 0 0 0.28 0 0 0 0 0 0.29 0 0 0 0 0 0.29 0 0 0 0 0 0.28 0 0 0 0 0 0.29 0 0 0 0.29 0 0 0 0 0 0.28 0 0 0 0 0 0.29 0 0 0 0 0 0.29 0 0 0 0 0 0.28 0 0 0 0.29 0 0 -0.57 0 0 0 0 -0.29 0 0 0 -0.28 0 0 0 0 0 -0.29 0 0 0 0 0 -0.29 0 0 0 0 0 -0.28 0 0 0 0 0 -0.29 0 0 0 -0.29 0 0 0 0 0 -0.28 0 0 0 0 0 -0.29 0 0 0 0 0 -0.29 0 0 0 0 0 -0.28 0 0 0 0 0.29 0 0 0zm0 -0.29l0.29 0 0 0.28 -0.29 -0.28zm-2.87 0.29l-0.57 0 0.28 -0.29 0 0 0 0 0.29 0 0 0 0 0 0.29 0 0 0 0.28 0 0 0 0 0 0.29 0 0 0 0 0 0.29 0 0 0 0 0 0.28 0 0 0 0 0 0.29 0 0 0 0 0 0.29 0 0 0 0 0 0.28 0 0 0 0 0 0.29 0 0 0 0 0 0.29 0 0 0.29 -0.29 0 0 0 0 0 -0.29 0 0 0 0 0 -0.28 0 0 0 0 0 -0.29 0 0 0 0 0 -0.29 0 0 0 0 0 -0.28 0 0 0 0 0 -0.29 0 0 0 0 0 -0.29 0 0 0 0 0 -0.28 0 0 0 -0.29 0 0 0 0 0 -0.29 0 0 0 0 0 0.29 0 0 0zm-0.57 0l0 -0.29 0.28 0 -0.28 0.29z"/>
    </g>
    <g>
     <path class="fil1" d="M69.93 96.28c1.15,0 1.72,0.57 1.72,1.43 0,0.86 -0.57,1.43 -1.72,1.43 -1.15,0 -1.72,-0.57 -1.72,-1.43 0,-0.86 0.57,-1.43 1.72,-1.43z"/>
     <path id="_1_78" class="fil1" d="M71.94 97.72l-0.57 0 0 0 0 0 0 0 0 0 0 -0.29 0 0 0 0 0 0 0 0 0 -0.29 0 0 0 0 0 0 0 0 -0.29 0 0 0 0 -0.28 0 0 0 0 0 0 -0.28 0 0 0 0 0 0 0 0 0 -0.29 0 0 -0.29 0 0 -0.29 0 0 0 0 0 -0.28 0 0 0 0 -0.29 0.28 0 0 0 0 0 0.29 0 0 0 0 0 0.29 0 0 0 0 0 0.28 0 0 0 0 0 0 0.29 0.29 0 0 0 0 0 0 0 0.29 0 0 0.29 0 0 0 0 0 0 0 0.28 0.28 0 0 0 0 0.29 0 0 0 0 0 0 0 0.29 0 0 0 0 0 0 0 0zm-2.01 1.72l0 -0.57 0 0 0.29 0 0 0 0 0 0 0 0.29 0 0 0 0 0 0.28 0 0 0 0 0 0 0 0 0 0.29 0 0 0 0 -0.28 0 0 0 0 0 0 0.29 0 0 0 0 0 0 -0.29 0 0 0 0 0 0 0 0 0 -0.29 0 0 0 0 0 0 0 0 0 -0.28 0.57 0 0 0.28 0 0 0 0 0 0.29 0 0 0 0 0 0 -0.28 0.29 0 0 0 0 0 0.28 0 0 0 0 0 0 -0.29 0 0 0.29 0 0 0 0 -0.29 0 0 0 0 0 0 0 -0.28 0.29 0 0 0 0 -0.29 0 0 0 0 0 -0.29 0 0 0 0 0 -0.28 0 0 0 -0 0zm-2 -1.72l0.57 0 0 0 0 0 0 0.28 0 0 0 0 0 0 0 0.29 0 0 0 0 0 0 0.28 0 0 0 0 0.29 0 0 0 0 0 0 0 0 0 0 0.29 0 0 0.28 0 0 0 0 0 0 0.29 0 0 0 0 0 0 0 0.28 0 0 0 0 0 0.29 0 0 0 0 0 0 0.57 0 0 0 0 -0.29 0 0 0 -0.28 0 0 0 0 0 -0.29 0 0 0 0 -0.29 0 0 -0.29 0 0 0 0 0 0 0 -0.28 0 0 -0.28 0 0 0 0 -0.29 0 0 -0.29 0 0 0 0 0 0 0 -0.29 0 0 0 0 0 -0.28 -0.29 0 0 0 0 0 0 -0.29 0 0 0 0zm2 -1.43l0 0.28 0 0 0 0 0 0 -0.28 0 0 0 0 0 -0.29 0 0 0.29 0 0 0 0 -0.29 0 0 0 0 0 0 0 0 0 -0.28 0 0 0 0 0 0 0.29 0 0 0 0 0 0 0 0 -0.29 0 0 0.28 0 0 0 0 0 0 0 0 0 0.29 0 0 0 0 0 0 -0.57 0 0 0 0 0 0 -0.29 0.29 0 0 0 0 -0.28 0 0 0 0 0 0 0 -0.29 0 0 0 0 0.29 0 0 -0.29 0 0 0 0 0.28 0 0 0 0 0 0 -0.28 0.29 0 0 0 0 0 0 0 0.29 0 0 0 0 0 0.28 0 0 0 0 0 0.29 0 0 0 0 0 0 0z"/>
    </g>
    <g>
     <path class="fil1" d="M75.94 90.27c1.15,0 1.72,0.57 1.72,1.43 0,0.86 -0.57,1.43 -1.72,1.43 -1.15,0 -1.72,-0.57 -1.72,-1.43 0,-1.15 0.57,-1.43 1.72,-1.43z"/>
     <path id="_1_79" class="fil1" d="M77.95 91.7l-0.57 0 0 0 0 0 0 -0.29 0 0 0 0 0 0 0 -0.29 0 0 0 0 0 0 0 0 0 0 0 -0.28 0 0 -0.29 0 0 0 0 0 0 0 0 0 0 -0.29 -0.29 0 0 0 0 0 0 0 -0.28 0 0 0 0 0 0 0 -0.29 0 0 0 0 0 -0.29 0 0 0 0 -0.57 0.29 0 0 0 0 0 0.29 0 0 0 0 0 0.28 0 0 0 0 0 0.29 0.29 0 0 0 0 0 0 0.29 0 0 0 0 0.29 0 0 0.28 0 0 0 0 0 0 0.28 0 0 0 0 0.29 0 0 0.29 0 0 0 0 0 0.29 0 0 0 0 0 0.28 0 0 0 0 0 0zm-2 1.43l0 -0.28 0 0 0 0 0.29 0 0 0 0 0 0.29 0 0 0 0 0 0 -0.29 0.28 0 0 0 0 0 0 0 0 0 0.29 0 0 0 0 0 0 0 0 -0.29 0 0 0.29 0 0 0 0 0 0 0 0 -0.28 0 0 0 0 0 0 0 0 0 -0.29 0 0 0 0 0 0 0.57 0 0 0 0 0.29 0 0 0 0 0 0 0 0.28 0 0 -0.28 0 0 0 0 0.29 0 0 0 0 0 0 -0.29 0.29 0 0 0 0 0 0 0 0 -0.29 0 0 0.28 0 0 -0.28 0 0 0 0 0 0 0 -0.29 0 0 0 0 0 -0.29 0 0 0 0 0 -0.28 0 0 0 -0 0zm0 -0.28l0 0 0 0 0 0zm-2 -1.15l0.57 0 0 0 0 0 0 0 0 0 0 0.28 0 0 0 0 0 0 0 0 0 0.29 0 0 0.28 0 0 0 0 0 0 0 0 0 0 0.29 0 0 0.29 0 0 0 0 0 0 0 0 0 0.29 0 0 0 0 0.28 0 0 0.28 0 0 0 0 0 0 0 0.29 0 0 0 0 0.29 0 0 -0.29 0 0 0 0 0 -0.28 0 0 0 0 0 -0.29 0 0 0 0 0 -0.29 0 0 0 0 -0.29 0 0 -0.28 0 0 0 0 0 0 0 0 -0.28 -0.29 0 0 0 0 0 0 -0.29 0 0 0 0 0 -0.29 0 0 -0.29 0 0 0 0 -0.28 0 0 0 0 0 0 0 0zm2 -1.72l0 0.57 0 0 0 0 -0.28 0 0 0 0 0 0 0 -0.29 0 0 0 0 0 0 0 -0.29 0 0 0 0 0 0 0 0 0 -0.28 0.28 0 0 0 0 0 0 0 0 0 0 0 0 0 0.29 -0.29 0 0 0 0 0 0 0 0 0 0 0.29 0 0 0 0 0 0 0 0.28 -0.57 0 0 -0.28 0 0 0 0 0.29 -0.29 0 0 0 0 0 -0.29 0 0 0 0 0 0 0 -0.28 0 0 0.29 0 0 0 0 0 0 -0.29 0.28 0 0 0 0 0 0 0 0.29 0 0 0 0 -0.29 0 0 0.29 0 0 0 0 0 0.28 0 0 0 0 0 0.29 0 0 0 0 0 0 0zm0 0l0 0 0 0 0 0z"/>
    </g>
    <g>
     <path class="fil1" d="M69.93 93.13c-1.15,0 -1.72,-0.57 -1.72,-1.43 0,-0.86 0.57,-1.43 1.72,-1.43 1.15,0 1.72,0.57 1.72,1.43 0,0.86 -0.57,1.43 -1.72,1.43z"/>
     <path id="_1_80" class="fil1" d="M67.93 91.7l0.57 0 0 0 0 0 0 0 0 0 0 0.28 0 0 0 0 0 0 0 0 0 0.29 0 0 0.28 0 0 0 0 0 0 0 0 0 0 0.29 0 0 0.29 0 0 0 0 0 0 0 0 0 0.29 0 0 0 0 0 0 0.28 0.28 0 0 0 0 0 0.29 0 0 0 0 0 0 0.29 0 0 -0.29 0 0 0 0 0 -0.28 0 0 0 0 0 -0.29 0 0 0 0 0 0 0 -0.29 0 0 -0.29 0 0 -0.28 0 0 0 0 0 0 -0.28 0 0 -0.29 0 0 0 0 0 0 -0.29 0 0 0 0 0 -0.29 0 0 -0.29 0 0 0 0 -0.28 0 0 0 0 0 0 0 0zm0 0l0 0 0 0 0 0zm2 -1.72l0 0.57 0 0 0 0 0 0 -0.28 0 0 0 0 0 -0.29 0 0 0 0 0 0 0 -0.29 0 0 0 0 0 0 0 0 0 -0.28 0.28 0 0 0 0 0 0 0 0 0 0 0 0 0 0.29 -0.29 0 0 0 0 0 0 0 0 0 0 0.29 0 0 0 0 0 0 0 0.28 -0.57 0 0 -0.28 0 0 0 0 0.29 -0.29 0 0 0 0 0 -0.29 0 0 0 0 0 0 0 -0.28 0.29 0 0 0 0 0 0 0 0 -0.29 0.28 0 0 0 0 0 0 0 0.29 0 0 0 0 -0.29 0 0 0.29 0 0 0 0 0 0.28 0 0 0 0 0 0.29 0 0 0 0 0 0 0zm0 0l0 0 0 0 0 0zm2.01 1.72l-0.57 0 0 0 0 0 0 -0.29 0 0 0 0 0 0 0 -0.29 0 0 0 0 0 0 0 0 0 0 0 -0.28 0 0 -0.29 0 0 0 0 0 0 0 0 0 0 -0.29 -0.28 0 0 0 0 0 0 0 0 0 -0.29 0 0 0 0 0 -0.29 0 0 0 0 0 0 0 -0.28 0 0 -0.57 0.28 0 0 0 0 0 0.29 0 0 0 0 0 0.29 0 0 0 0 0 0.28 0.29 0 0 0 0 0 0 0.29 0 0 0 0 0 0 0.29 0.29 0 0 0 0 0 0 0.28 0 0 0 0 0.28 0 0 0.29 0 0 0 0 0 0.29 0 0 0 0 0 0.28 0 0 0 0 0 0zm0 0l0 0 0 0 0 0zm-2.01 1.43l0 -0.28 0 0 0.29 0 0 0 0 0 0 0 0.29 0 0 0 0 0 0.28 -0.29 0 0 0 0 0 0 0 0 0.29 0 0 0 0 0 0 0 0 0 0 -0.29 0.29 0 0 0 0 0 0 0 0 0 0 -0.28 0 0 0 0 0 0 0 0 0 0 0 -0.29 0 0 0 0 0.57 0 0 0 0 0 0 0.29 0 0 0 0 0 0.28 0 0 -0.28 0 0 0 0 0.29 0 0 0 0 0 0 0 0.29 -0.29 0 0 0 0 0 0 0 -0.29 0 0 0.28 0 0 0 0 -0.28 0 0 0 0 0 -0.29 0 0 0 0 0 -0.29 0 0 0 0 0 -0.28 0 0 0 -0 0z"/>
    </g>
   </g>
  </g>
  <rect class="fil0" width="140" height="140"/>
 </g>
</svg>
