<?xml version="1.0" encoding="UTF-8"?>
<!DOCTYPE svg PUBLIC "-//W3C//DTD SVG 1.1//EN" "http://www.w3.org/Graphics/SVG/1.1/DTD/svg11.dtd">
<!-- Creator: CorelDRAW -->
<svg xmlns="http://www.w3.org/2000/svg" xml:space="preserve" width="0.14in" height="0.14in" version="1.1" style="shape-rendering:geometricPrecision; text-rendering:geometricPrecision; image-rendering:optimizeQuality; fill-rule:evenodd; clip-rule:evenodd"
viewBox="0 0 140 140"
 xmlns:xlink="http://www.w3.org/1999/xlink"
 xmlns:xodm="http://www.corel.com/coreldraw/odm/2003">
 <defs>
  <style type="text/css">
   <![CDATA[
    .str0 {stroke:#1C2335;stroke-width:3.33;stroke-miterlimit:2.61313}
    .fil0 {fill:none}
    .fil1 {fill:#1C2335;fill-rule:nonzero}
   ]]>
  </style>
 </defs>
 <g id="Layer_x0020_1">
  <metadata id="CorelCorpID_0Corel-Layer"/>
  <g id="_1782461210768">
   <g>
    <path class="fil0 str0" d="M133.55 88.85c10.41,-35.1 -9.6,-71.99 -44.7,-82.4 -35.1,-10.41 -71.99,9.6 -82.4,44.7 -10.41,35.1 9.6,71.99 44.7,82.4 35.1,10.41 71.99,-9.6 82.4,-44.7z"/>
   </g>
   <g id="_2134955332080">
    <g>
     <path class="fil1" d="M98.8 86.68c-1.44,0 -2.6,0 -4.04,0 0,2.02 0,4.04 0,6.06 0,1.15 0,2.6 0,3.75 0,0.87 -0.58,1.44 -1.44,1.44 -1.44,0 -3.17,0 -4.62,0 -0.87,0 -1.44,-0.58 -1.44,-1.73 0,-3.18 0,-6.07 0,-9.53 -1.73,0 -3.17,0 -4.91,0 0,1.16 0,2.31 -0.29,3.46 -0.58,6.35 -6.07,11.55 -11.84,11.26 -0.58,0 -1.44,-0.29 -2.31,-0.29 -0.87,-0.29 -1.44,0 -2.02,0.58 -0.58,1.15 -1.44,2.02 -2.02,3.18 -0.87,1.44 -2.02,2.02 -3.46,1.73 -1.44,-0.29 -2.31,-1.44 -2.6,-2.89 -0.58,-1.73 0,-3.17 1.16,-4.33 0.87,-0.87 1.73,-1.44 2.59,-2.31 0.87,-0.58 1.16,-1.44 0.87,-2.6 -0.29,-1.16 -0.29,-2.6 -0.29,-3.76 0,-1.44 0.29,-2.59 0.58,-4.04 -3.18,0 -6.64,0 -9.81,0 0,2.6 0,5.2 0,7.8 0,3.46 0,3.46 -2.89,3.46 -1.15,0 -2.02,0 -3.18,0 -1.15,0 -1.44,-0.58 -1.44,-1.73 0,-2.89 0,-5.78 0,-8.67 0,-0.29 0,-0.57 0,-0.87 -1.44,0 -2.6,0 -4.04,0 0,0.58 0,1.16 0,1.44 0,9.24 0,18.48 0,27.72 0,2.02 -0.29,2.31 -2.02,2.31 -1.16,0 -2.31,0 -3.47,0 -1.73,0 -2.02,-0.29 -2.02,-2.02 0,-8.09 0,-15.88 0,-23.68 0,-2.02 0,-3.75 0,-5.78 -1.44,0 -2.89,0 -4.33,0 -0.58,0 -1.15,0 -2.02,0 -1.16,0 -1.44,-0.87 -0.87,-2.02 1.44,-2.31 2.6,-4.62 4.04,-6.64 1.16,-1.73 2.02,-3.46 3.18,-5.49 -1.15,0 -2.02,0 -3.18,0 -1.15,0 -1.44,-0.29 -1.44,-1.73 0,-2.89 0,-5.77 0,-8.66 0,-1.44 0.29,-1.73 1.44,-1.73 3.18,0 6.35,0 9.82,0 0.58,0 0.87,-0.29 1.44,-0.87 1.16,-2.02 2.31,-4.04 3.46,-6.06 0.58,-0.87 1.16,-1.16 1.74,-1.16 15.3,0 30.61,0 45.91,0 0.58,0 1.16,0.29 1.74,1.16 1.15,2.02 2.31,3.75 3.46,5.77 0.29,0.87 0.87,1.16 1.73,1.16 3.18,0 6.35,0 9.53,0 1.15,0 1.44,0.29 1.44,2.02 0,2.02 0,4.04 0,6.06 0,4.33 0.29,4.04 -3.46,4.04 -0.29,0 -0.58,0 -1.16,0 0.87,1.73 1.73,3.18 2.6,4.62 1.44,2.31 2.89,4.62 4.33,6.93 0.29,0.57 0.58,1.44 0.29,1.73 -0.29,0.58 -0.87,0.87 -1.44,0.87 -2.02,0 -3.75,0 -5.78,0 0,0.58 0,1.15 0,1.44 0,9.24 0,18.48 0,27.72 0,2.02 -0.29,2.31 -2.02,2.31 -1.15,0 -2.6,0 -3.75,0 -1.44,0 -1.74,-0.29 -1.74,-2.02 0,-9.24 0,-18.48 0,-27.72 0,-0.58 0,-1.16 0,-1.73l0 0zm11.84 -2.31l0 0c-0.29,-0.58 -0.29,-0.87 -0.58,-1.15 -2.02,-3.18 -4.04,-6.64 -6.06,-9.82 -0.29,-0.58 -0.58,-0.87 -1.44,-0.87 -21.65,0 -43.31,0 -64.96,0 -0.87,0 -1.15,0.29 -1.73,0.87 -1.73,3.18 -3.75,6.64 -5.78,9.82 0,0.29 -0.29,0.57 -0.58,0.87 0.29,0 0.58,0.29 0.58,0.29 11.26,0 22.23,0 33.2,-0.29 0.29,0 0.87,-0.29 1.15,-0.58 1.44,-2.02 3.18,-3.75 5.49,-4.62 4.62,-1.74 9.24,0 11.26,4.33 0.29,0.87 0.87,1.15 1.44,1.15 8.95,-0.29 17.9,0 26.85,0 0.29,0 0.58,0 1.16,0l0 0zm-1.73 -21.37l0 0c-25.99,0 -51.69,0 -77.67,0 0,2.31 0,4.62 0,6.93 25.98,0 51.68,0 77.67,0 0,-2.31 0,-4.62 0,-6.93zm-64.96 -2.89l0 0c17.61,0 34.65,0 52.26,0 -1.15,-1.44 -2.02,-2.89 -2.89,-4.62 -0.29,-0.58 -0.57,-0.58 -1.44,-0.58 -3.18,0 -6.35,0 -9.53,0 -11.26,0 -22.81,0 -34.07,0 -0.58,0 -1.16,0 -1.16,0.58 -1.15,1.44 -2.02,2.89 -3.17,4.62zm29.45 20.5l0 0c-3.46,0 -7.22,2.89 -8.37,6.64 -0.29,0.87 -0.29,1.16 0.29,1.44 2.6,3.18 5.2,6.06 7.8,8.95 0.29,0.57 0.87,0.87 1.44,0.29 2.89,-1.44 4.62,-4.04 5.49,-7.51 1.15,-5.48 -2.02,-9.82 -6.64,-9.82l0 0zm-34.36 34.94l0 0c0,-9.53 0,-19.06 0,-28.87 -0.87,0 -2.02,0 -2.89,0 0,9.81 0,19.35 0,28.87 0.87,0 2.02,0 2.89,0zm64.96 0l0 0c0,-9.53 0,-19.06 0,-28.87 -1.15,0 -2.02,0 -2.89,0 0,9.81 0,19.35 0,28.87 0.87,0 1.73,0 2.89,0zm-39.85 -24.26l0 0c0,0.87 0,1.73 0.29,2.6 0.58,2.02 0,3.76 -1.44,4.91 -0.87,0.87 -1.73,1.73 -2.6,2.6 -0.87,0.58 -0.87,1.73 -0.29,2.31 0.58,0.58 1.44,0.58 2.02,-0.29 0.58,-0.87 1.44,-2.02 2.02,-3.18 1.15,-1.44 2.6,-2.02 4.62,-1.44 0.58,0 1.44,0.29 2.02,0.29 -2.31,-2.6 -4.33,-5.2 -6.64,-7.8l-0 0zm-16.46 4.04l0 0c0.87,0 2.02,0 2.89,0 0,-2.89 0,-5.78 0,-8.66 -0.87,0 -2.02,0 -2.89,0 0,2.89 0,5.77 0,8.66zm44.76 0l0 0c0,-2.89 0,-5.78 0,-8.66 -0.87,0 -2.02,0 -2.89,0 0,2.89 0,5.77 0,8.66 0.87,0 2.02,0 2.89,0z"/>
     <path id="_1" class="fil1" d="M95.05 86.68l-0.58 0 0.29 -0.29 0 0 0.29 0 0 0 0.29 0 0 0 0.29 0 0 0 0 0 0.29 0 0 0 0.29 0 0 0 0.29 0 0 0 0 0 0.29 0 0 0 0.29 0 0 0 0.29 0 0 0 0.29 0 0 0 0 0 0.29 0 0 0 0.29 0 0 0 0.29 0 0 0 0.29 0 0 0 0 0.58 0 0 -0.29 0 0 0 -0.29 0 0 0 -0.29 0 0 0 -0.29 0 0 0 0 0 -0.29 0 0 0 -0.29 0 0 0 -0.29 0 0 0 -0.29 0 0 0 0 0 -0.29 0 0 0 -0.29 0 0 0 -0.29 0 0 0 0 0 -0.29 0 0 0 -0.29 0 0 0 -0.29 0 0 0 0.29 -0.29 0 0zm-0.58 0l0 -0.29 0.29 0 -0.29 0.29zm0.58 6.06l-0.58 0 0 0 0 -0.29 0 0 0 -0.29 0 -0.29 0 0 0 -0.29 0 0 0 -0.29 0 -0.29 0 0 0 -0.29 0 -0.29 0 0 0 -0.29 0 -0.29 0 0 0 -0.29 0 -0.29 0 0 0 -0.29 0 -0.29 0 0 0 -0.29 0 0 0 -0.29 0 -0.29 0 0 0 -0.29 0 -0.29 0 0 0 -0.29 0 -0.29 0.58 0 0 0.29 0 0.29 0 0 0 0.29 0 0.29 0 0 0 0.29 0 0.29 0 0 0 0.29 0 0 0 0.29 0 0.29 0 0 0 0.29 0 0.29 0 0 0 0.29 0 0.29 0 0 0 0.29 0 0.29 0 0 0 0.29 0 0.29 0 0 0 0.29 0 0 0 0.29 0 0.29 0 0 0 0.29 0 0zm0 3.75l-0.58 0 0 0 0 -0.29 0 0 0 0 0 -0.29 0 0 0 -0.29 0 0 0 0 0 -0.29 0 0 0 -0.29 0 0 0 0 0 -0.29 0 0 0 -0.29 0 0 0 0 0 -0.29 0 0 0 -0.29 0 0 0 0 0 -0.29 0 0 0 -0.29 0 0 0 0 0 -0.29 0 0 0 -0.29 0 0 0.58 0 0 0 0 0.29 0 0 0 0.29 0 0 0 0 0 0.29 0 0 0 0.29 0 0 0 0 0 0.29 0 0 0 0.29 0 0 0 0 0 0.29 0 0 0 0.29 0 0 0 0 0 0.29 0 0 0 0.29 0 0 0 0 0 0.29 0 0 0 0.29 0 0 0 0 0 0.29 0 0zm-1.74 1.73l0 -0.57 0 0 0.29 0 0 0 0 0 0 0 0.29 0 0 0 0 0 0 0 0 0 0 -0.29 0.29 0 0 0 0 0 0 0 0 0 0 0 0 0 0 0 0.29 -0.29 0 0 0 0 0 0 0 0 0 0 0 -0.29 0 0 0 0 0 0 0 0 0 -0.29 0 0 0 0 0.58 0 0 0 0 0 0 0.29 -0.29 0 0 0 0 0.29 0 0 0 0 0 0 0 0.29 0 0 0 0 0 0 0 0.29 -0.29 0 0 0 0 0 0 0 0 0.29 0 0 -0.29 0 0 0 0 0 0 0 -0.29 0 0 0 0 0 0 0 -0.29 0 0 0.29 0 0 -0.29 0 0 0 -0 0zm-4.62 0l0 -0.57 0 0 0 0 0.29 0 0 0 0.29 0 0 0 0.29 0 0 0 0.29 0 0.29 0 0 0 0.29 0 0 0 0.29 0 0 0 0.29 0 0 0 0.29 0 0 0 0.29 0 0 0 0.29 0 0 0 0.29 0 0 0 0.29 0 0 0 0.29 0 0 0 0.29 0 0 0 0.29 0 0 0 0 0.57 0 0 -0.29 0 0 0 -0.29 0 0 0 -0.29 0 0 0 -0.29 0 0 0 -0.29 0 0 0 -0.29 0 0 0 -0.29 0 0 0 -0.29 0 0 -0.29 -0.29 0.29 0 0 -0.29 0 0 0 -0.29 0 0 0 -0.29 0 -0.29 0 0 0 -0.29 0 0 0 -0.29 0 0 0 -0.29 0 0 0 0 0zm-1.73 -2.02l0.58 0 0 0 0 0.29 0 0 0 0 0 0 0 0.29 0 0 0 0 0 0 0 0.29 0 0 0 0 0 0 0.29 0 0 0.29 0 0 0 0 0 0 0 0 0 0 0 0 0 0 0.29 0 0 0.29 0 0 0 0 0 0 0.29 0 0 0 0 0 0 0 0.29 0 0 0 0 0.58 0 0 -0.29 0 0 -0.29 0 0 -0.29 0 0 0 0 0 0 0 -0.29 0 0 0 0 0 0 0 -0.29 -0.29 0 0 0 0 0 0 0 0 -0.29 -0.29 0 0 0 0 0 0 0 -0.29 0 0 0 0 0 0 0 -0.29 0 0 0 0 0 -0.29 0 0 0 0 -0.29 -0.29 0 0 -0 0zm0.29 -9.24l0 -0.58 0.29 0.29 0 0.29 0 0.29 0 0.29 0 0.58 0 0.29 0 0.29 0 0.29 0 0.29 0 0.29 0 0.29 0 0.29 0 0.29 0 0.29 0 0.29 0 0.29 0 0.29 0 0.29 0 0.29 0 0.29 0 0.29 0 0.29 0 0.29 0 0.29 0 0.29 0 0.29 0 0.29 0 0.29 0 0.29 0 0.29 0 0.29 0 0.29 0 0.29 -0.58 0 0.29 -0.29 0 -0.29 0 -0.29 0 -0.29 0 -0.29 0 -0.29 0 -0.29 0 -0.29 0 -0.29 0 -0.29 0 -0.29 0 -0.29 0 -0.29 0 -0.29 0 -0.29 0 -0.29 0 -0.29 0 -0.29 0 -0.29 0 -0.29 0 -0.29 0 -0.29 0 -0.29 0 -0.29 0 -0.29 0 -0.29 0 -0.29 0 -0.29 0 -0.58 0 -0.29 0 -0.29 0 -0.29 0 0.29 0 0zm0 -0.58l0.29 0 0 0.29 -0.29 -0.29zm-4.91 0.29l-0.29 0 0.29 -0.29 0 0 0.29 0 0 0 0.29 0 0 0 0.29 0 0 0 0.29 0 0.29 0 0 0 0.29 0 0 0 0.29 0 0 0 0.29 0 0 0 0.29 0 0.29 0 0 0 0.29 0 0 0 0.29 0 0 0 0.29 0 0 0 0.29 0 0 0 0.29 0 0.29 0 0 0 0.29 0 0 0 0 0.58 0 0 -0.29 0 0 0 -0.29 0 -0.29 0 0 0 -0.29 0 0 0 -0.29 0 0 0 -0.29 0 0 0 -0.29 0 0 0 -0.29 0 -0.29 0 0 0 -0.29 0 0 0 -0.29 0 0 0 -0.29 0 0 0 -0.29 0 -0.29 0 0 0 -0.29 0 0 0 -0.29 0 0 0 -0.29 0 0 0 0 -0.29 0 0zm-0.29 0l0 -0.29 0.29 0 -0.29 0.29zm0.29 3.46l-0.29 0 0 0 0 -0.29 0 0 0 0 0 -0.29 0 0 0 0 0 -0.29 0 0 0 0 0 -0.29 0 0 0 0 0 -0.29 0 0 0 0 0 -0.29 0 0 0 -0.29 0 0 0 0 0 -0.29 0 0 0 0 0 -0.29 0 0 0 0 0 -0.29 0 0 0 -0.29 0 0 0 0 0 -0.29 0.29 0 0 0.29 0 0 0 0 0 0.29 0 0 0 0.29 0 0 0 0 0 0.29 0 0 0 0 0 0.29 0 0 0 0 0 0.29 0 0 0 0.29 0 0 0 0 0 0.29 0 0 0 0 0 0.29 0 0 0 0 0 0.29 0 0 0 0 0 0.29 0 0 0 0.29 0 0 0 0zm-12.13 11.55l0 -0.57 0 0 0.58 0 0.58 0 0.58 0 0.29 0 0.58 0 0.58 -0.29 0.58 0 0.29 -0.29 0.58 -0.29 0.57 -0.29 0.29 -0.29 0.57 -0.29 0.29 -0.29 0.58 -0.29 0.29 -0.29 0.58 -0.29 0.29 -0.58 0.58 -0.29 0.29 -0.58 0.29 -0.29 0.29 -0.58 0.29 -0.29 0.29 -0.58 0.29 -0.58 0.29 -0.58 0.29 -0.29 0 -0.58 0.29 -0.58 0.29 -0.57 0 -0.58 0 -0.58 0.29 -0.58 0.29 0 0 0.58 0 0.58 -0.29 0.58 -0.29 0.57 0 0.58 -0.29 0.58 -0.29 0.58 -0.29 0.58 -0.29 0.57 -0.29 0.58 -0.29 0.29 -0.29 0.58 -0.29 0.58 -0.29 0.29 -0.58 0.58 -0.29 0.29 -0.58 0.29 -0.29 0.58 -0.58 0.29 -0.29 0.29 -0.58 0.29 -0.58 0.29 -0.29 0.29 -0.58 0.29 -0.58 0 -0.58 0.29 -0.57 0 -0.29 0.29 -0.57 0 -0.58 0 -0.58 0 -0.58 0 0 0 0 -0zm-2.31 -0.57l0 -0.29 0 0 0.29 0 0 0 0 0 0 0 0.29 0 0 0 0 0 0 0 0.29 0 0 0 0 0.29 0 0 0.29 0 0 0 0 0 0 0 0.29 0 0 0 0 0 0 0 0.29 0 0 0 0 0 0 0 0.29 0 0 0 0 0 0 0 0.29 0 0 0 0 0 0 0 0 0.57 0 0 0 0 -0.29 0 0 0 0 0 0 0 -0.29 0 0 0 0 0 0 0 -0.29 0 0 0 0 0 0 0 -0.29 0 0 -0.29 0 0 0 0 -0.29 0 0 0 0 0 0 0 -0.29 0 0 0 0 0 0 0 -0.29 0 0 0 0 0 0 0 -0.29 -0.29 0 0 0 0 0 0zm0 -0.29l0 0 0 0 0 0zm-1.73 1.16l-0.29 -0.29 0 0 0 -0.29 0 0 0 0 0.29 0 0 -0.29 0 0 0 0 0 0 0.29 0 0 0 0 -0.29 0 0 0.29 0 0 0 0 0 0 0 0 0 0.29 0 0 0 0 -0.29 0 0 0.29 0 0 0 0 0 0.29 0 0 0 0 0 0 0.29 0.29 0 0 0 0 0 0 0 0 0.29 0 0 0 0 -0.29 0 0 0 0 0 0 0 -0.29 0 0 0 0 0 0 0 0 0 -0.29 0 0 0 0 0 0 0 0 0 -0.29 0 0 0.29 0 0 0 0 0 0 0 0 -0.29 0 0 0 0 0 0 0 0 0.29 0 0 -0.29 0 0 0 0 0 0 0.29 0 0zm-2.31 3.17l-0.29 -0.29 0 0 0.29 -0.29 0 0 0 0 0 -0.29 0 0 0.29 0 0 -0.29 0 0 0 -0.29 0.29 0 0 0 0 -0.29 0 0 0.29 0 0 -0.29 0 0 0 0 0.29 -0.29 0 0 0 0 0 -0.29 0 0 0.29 0 0 -0.29 0 0 0 0 0.29 -0.29 0 0 0 0 0 -0.29 0.29 0 0 0 0.29 0.29 0 0 0 0 -0.29 0.29 0 0 0 0 0 0.29 -0.29 0 0 0 0 0.29 0 0 -0.29 0 0 0.29 0 0 0 0 -0.29 0.29 0 0 0 0 0 0.29 0 0 -0.29 0 0 0.29 0 0 0 0.29 -0.29 0 0 0 0 0.29 0 0 -0.29 0 0 0.29 0 0 0 0 -0.29 0.29 0 0zm-3.75 1.74l0.29 -0.58 0 0 0 0 0.29 0 0 0 0.29 0 0 0 0 0 0.29 0 0 0 0.29 0 0 0 0 0 0.29 0 0 0 0 0 0.29 0 0 -0.29 0.29 0 0 0 0 0 0.29 0 0 -0.29 0 0 0.29 0 0 -0.29 0 0 0.29 0 0 -0.29 0 0 0 0 0.29 -0.29 0 0 0 0 0.29 0.29 0 0 0 0 -0.29 0.29 0 0 0 0.29 0 0 -0.29 0 0 0.29 -0.29 0 0 0 0 0.29 -0.29 0 0 0 0 0 -0.29 0.29 0 0 -0.29 0 0 0 0 0 -0.29 0.29 0 0 -0.29 0 0 0 -0.29 0 0 0 -0.29 0 0 0 -0.29 0 0 0 -0.29 0 0 0 -0.29 0 0 0 0 0zm-2.6 -3.18l0.29 0 0 0 0 0 0 0.29 0.29 0 0 0 0 0.29 0 0 0 0.29 0 0 0.29 0 0 0.29 0 0 0 0.29 0 0 0.29 0 0 0.29 0 0 0 0 0.29 0 0 0.29 0 0 0.29 0 0 0 0 0.29 0.29 0 0 0 0 0 0.29 0 0 0 0.29 0.29 0 0 0 0 0.29 0 -0.29 0.58 0 -0.29 0 0 -0.29 0 0 0 -0.29 0 0 0 -0.29 -0.29 0 0 0 0 -0.29 0 0 0 0 -0.29 -0.29 0 0 0 0 -0.29 -0.29 0 0 0 0 -0.29 -0.29 0 0 0 0 -0.29 0 0 -0.29 -0.29 0 0 0 -0.29 0 0 0 0 -0.29 -0.29 0 0 0 -0.29 0 0 0 -0.29 0 0 0 0zm1.44 -4.62l0.29 0.58 0 0 0 0 -0.29 0 0 0.29 -0.29 0 0 0 0 0.29 0 0 -0.29 0.29 0 0 0 0 0 0.29 -0.29 0 0 0.29 0 0 0 0 0 0.29 -0.29 0 0 0.29 0 0 0 0.29 0 0 0 0.29 0 0 0 0 0 0.29 0 0 0 0.29 0 0.29 0 0 0 0.29 0 0 0 0.29 -0.29 0 0 -0.29 0 0 0 -0.29 -0.29 0 0 -0.29 0 0 0 -0.29 0 -0.29 0.29 0 0 -0.29 0 0 0 -0.29 0 0 0 -0.29 0 0 0 -0.29 0 0 0.29 -0.29 0 0 0 -0.29 0 0 0.29 -0.29 0 0 0 -0.29 0 0 0.29 0 0 -0.29 0 0 0.29 -0.29 0 0 0.29 0 0 -0.29 0 0 0 -0zm2.6 -2.31l0.29 0.58 0 0 -0.29 0 0 0 0 0 0 0.29 -0.29 0 0 0 0 0 -0.29 0.29 0 0 0 0 0 0 -0.29 0.29 0 0 0 0 0 0 -0.29 0.29 0 0 0 0 -0.29 0 0 0.29 0 0 0 0 -0.29 0 0 0.29 0 0 0 0 -0.29 0 0 0.29 0 0 -0.29 0 0 0 0 0.29 -0.29 -0.58 0 0 0.29 0 0 0 0 -0.29 0 0 0.29 0 0 0 0 -0.29 0 0 0.29 0 0 0 0 -0.29 0.29 0 0 0 0 0 0 -0.29 0.29 0 0 0 0 0 0 -0.29 0.29 0 0 0 0 0 0.29 -0.29 0 0 0 0 0 0 0.29 -0.29 0 0 0 0 0 0 0.29 -0.29 0 0zm0.58 -2.31l0.58 0 0 0 0 0 0 0 0 0.29 0 0 0 0.29 0 0 0 0 0 0.29 0 0 0 0 0 0.29 0 0 0 0 0 0.29 0 0 0 0 0 0.29 -0.29 0 0 0 0 0.29 0 0 0 0 0 0 -0.29 0.29 0 0 0 0 0 0.29 0 0 -0.29 0 0 0 0 0.29 0 0 -0.29 -0.57 0 0 0 0 0 0 0.29 0 0 -0.29 0 0 0 0 0 0 0 -0.29 0.29 0 0 0 0 0 0 0 0 -0.29 0 0 0 0 0 0 0 -0.29 0 0 0 0 0.29 0 0 -0.29 0 0 0 0 0 -0.29 0 0 0 0 -0.29 -0.29 0 0 0 0 0 -0.29 0 0 0 0 0 0zm-0.29 -3.76l0.29 0 0 0 0 0 0 0 0 0.29 0 0 0 0.29 0 0 0 0 0 0.29 0 0 0 0.29 0.29 0 0 0.29 0 0 0 0 0 0.29 0 0 0 0.29 0 0 0 0 0 0.29 0 0 0 0.29 0 0 0 0 0 0.29 0 0 0 0.29 0 0 0 0 0.29 0.29 0 0 0 0.29 -0.58 0 0 0 0 -0.29 0 0 0 -0.29 0 0 0 0 0 -0.29 0 0 0 -0.29 0 0 -0.29 -0.29 0 0 0 0 0 -0.29 0 0 0 -0.29 0 0 0 0 0 -0.29 0 0 0 -0.29 0 0 0 -0.29 0 0 0 0 0 -0.29 0 0 0 -0.29 0 0 0 -0.29 0 0 0 0 0 0 0 0zm0.87 -3.75l0 -0.58 0.29 0.29 0 0.29 -0.29 0 0 0.29 0 0 0 0.29 0 0 0 0 0 0.29 0 0 0 0.29 0 0 0 0 0 0.29 -0.29 0 0 0.29 0 0 0 0.29 0 0 0 0 0 0.29 0 0 0 0.29 0 0 0 0 0 0.29 0 0 0 0.29 0 0 0 0 -0.29 0.29 0 0 0 0.29 -0.29 0 0 -0.29 0 0 0 -0.29 0 0 0 -0.29 0 0 0 0 0 -0.29 0 0 0 -0.29 0 0 0.29 -0.29 0 0 0 0 0 -0.29 0 0 0 -0.29 0 0 0 0 0 -0.29 0 0 0 -0.29 0 0 0.29 -0.29 0 0 0 0 0 -0.29 0 0 0 -0.29 0 0 0 -0.29 0 0 0.29 0.29 0 0zm0 -0.58l0.29 0 0 0.29 -0.29 -0.29zm-9.82 0.29l-0.29 0 0.29 -0.29 0.29 0 0.29 0 0.29 0 0.29 0 0.29 0 0.29 0 0.29 0 0.29 0 0.29 0 0.58 0 0.29 0 0.29 0 0.29 0 0.29 0 0.29 0 0.29 0 0.29 0 0.29 0 0.29 0 0.29 0 0.29 0 0.29 0 0.29 0 0.29 0 0.29 0 0.58 0 0.29 0 0.29 0 0.29 0 0.29 0 0.29 0 0.29 0 0 0.58 -0.29 0 -0.29 0 -0.29 0 -0.29 0 -0.29 0 -0.29 0 -0.58 0 -0.29 0 -0.29 0 -0.29 0 -0.29 0 -0.29 0 -0.29 0 -0.29 0 -0.29 0 -0.29 0 -0.29 0 -0.29 0 -0.29 0 -0.29 0 -0.29 0 -0.29 0 -0.58 0 -0.29 0 -0.29 0 -0.29 0 -0.29 0 -0.29 0 -0.29 0 -0.29 0 -0.29 0 -0.29 0 0 -0.29 0 0zm-0.29 0l0 -0.29 0.29 0 -0.29 0.29zm0.29 7.8l-0.29 0 0 0 0 0 0 -0.29 0 -0.29 0 -0.29 0 -0.29 0 -0.29 0 -0.29 0 0 0 -0.29 0 -0.29 0 -0.29 0 -0.29 0 -0.29 0 0 0 -0.29 0 -0.29 0 -0.29 0 -0.29 0 -0.29 0 -0.29 0 0 0 -0.29 0 -0.29 0 -0.29 0 -0.29 0 -0.29 0 0 0 -0.29 0 -0.29 0 -0.29 0 -0.29 0 -0.29 0.29 0 0 0.29 0 0.29 0 0.29 0 0.29 0 0.29 0 0 0 0.29 0 0.29 0 0.29 0 0.29 0 0.29 0 0 0 0.29 0 0.29 0 0.29 0 0.29 0 0.29 0 0.29 0 0 0 0.29 0 0.29 0 0.29 0 0.29 0 0.29 0 0 0 0.29 0 0.29 0 0.29 0 0.29 0 0.29 0 0.29 0 0 0 0zm-2.89 3.75l0 -0.57 0 0 0.29 0 0.29 0 0 0 0.29 0 0.29 0 0.29 0 0 0 0.29 0 0 0 0.29 0 0 0 0 -0.29 0.29 0 0 0 0 0 0 0 0 0 0 -0.29 0.29 0 0 0 0 -0.29 0 0 0 -0.29 0 0 0 -0.29 0 0 0 -0.29 0 -0.29 0 -0.29 0 -0.29 0 -0.29 0 -0.29 0.29 0 0 0.29 0 0.29 0 0.29 0 0.29 0 0.29 0 0.29 0 0 0 0.29 0 0.29 0 0 0 0.29 0 0 0 0.29 0 0 -0.29 0.29 0 0 0 0 0 0.29 -0.29 0 0 0 -0.29 0 0 0 -0.29 0 0 0 -0.29 0 0 0.29 -0.29 0 -0.29 0 -0.29 0 0 0 -0.29 0 -0.29 0 0 0 0 0zm-3.18 0l0 -0.57 0 0 0 0 0.29 0 0 0 0 0 0.29 0 0 0 0 0 0.29 0 0 0 0 0 0.29 0 0 0 0 0 0.29 0 0 0 0 0 0.29 0 0 0 0 0 0.29 0 0 0 0 0 0.29 0 0 0 0 0 0.29 0 0 0 0 0 0.29 0 0 0 0.29 0 0 0 0 0.57 -0.29 0 0 0 0 0 -0.29 0 0 0 0 0 -0.29 0 0 0 0 0 -0.29 0 0 0 0 0 -0.29 0 0 0 0 0 -0.29 0 0 0 0 0 -0.29 0 0 0 0 0 -0.29 0 0 0 0 0 -0.29 0 0 0 0 0 -0.29 0 0 0 0 0 -0.29 0 0 0 0 0zm-1.73 -2.02l0.58 0 0 0 0 0 0 0.29 0 0 0 0 0 0.29 0 0 0 0 0 0 0 0.29 0 0 0 0 0 0 0 0 0 0.29 0.29 0 0 0 0 0 0 0 0 0 0 0 0 0 0 0 0.29 0.29 0 0 0 0 0 0 0.29 0 0 0 0 0 0 0 0.29 0 0 0 0 0.58 0 0 -0.29 -0.29 0 0 0 0 -0.29 0 0 0 0 0 0 0 -0.29 0 0 0 0 0 -0.29 0 0 0 0 -0.29 0 0 0 0 -0.29 0 0 0 0 -0.29 0 0 0 0 0 -0.29 0 0 0 0 0 0 -0.29 -0.29 0 0 0 -0.29 0 0 0 0 0 -0.29 0 0 0 0 0 0zm0 -8.66l0.58 0 0 0 0 0.29 0 0.29 0 0.29 0 0.29 0 0 0 0.29 0 0.29 0 0.29 0 0.29 0 0.29 0 0.29 0 0.29 0 0.29 0 0.29 0 0.29 0 0.29 0 0.29 0 0.29 0 0.29 0 0.29 0 0.29 0 0 0 0.29 0 0.29 0 0.29 0 0.29 0 0.29 0 0.29 0 0.29 0 0.29 0 0.29 0 0.29 -0.58 0 0 -0.29 0 -0.29 0 -0.29 0 -0.29 0 -0.29 0 -0.29 0 -0.29 0 -0.29 0 -0.29 0 -0.29 0 0 0 -0.29 0 -0.29 0 -0.29 0 -0.29 0 -0.29 0 -0.29 0 -0.29 0 -0.29 0 -0.29 0 -0.29 0 -0.29 0 -0.29 0 -0.29 0 -0.29 0 -0.29 0 -0.29 0 0 0 -0.29 0 -0.29 0 -0.29 0 -0.29 0 0zm0 0l0 0 0 0 0 0zm0.29 -0.58l0 -0.29 0.29 0 0 0 0 0 0 0.29 0 0 0 0 0 0 0 0 0 0 0 0 0 0 0 0 0 0 0 0 0 0 0 0.29 0 0 0 0 0 0 0 0 0 0 0 0 0 0 0 0 0 0 0 0 0 0 0 0 0 0.29 0 0 0 0 0 0 0 0 -0.58 0 0 0 0 0 0 0 0 0 0 0 0 -0.29 0 0 0 0 0 0 0 0 0 0 0 0 0 0 0 0 0 0 0 0 0 0 0 0 0 0 0 0 0 -0.29 0 0 0 0 0 0 0 0 0 0 0 0 0 0 0 0 0 0 0 0 0 -0.29 0.29 0.29 0 0zm0 -0.29l0 0 0.29 0 -0.29 0zm-3.75 0l-0.58 0 0.29 0 0 0 0.29 0 0 0 0.29 0 0 0 0.29 0 0 0 0.29 0 0 0 0 0 0.29 0 0 0 0.29 0 0 0 0.29 0 0 0 0 0 0.29 0 0 0 0.29 0 0 0 0.29 0 0 0 0 0 0.29 0 0 0 0.29 0 0 0 0.29 0 0 0 0 0 0.29 0 0 0.29 -0.29 0 0 0 0 0 -0.29 0 0 0 -0.29 0 0 0 -0.29 0 0 0 0 0 -0.29 0 0 0 -0.29 0 0 0 -0.29 0 0 0 0 0 -0.29 0 0 0 -0.29 0 0 0 -0.29 0 0 0 0 0 -0.29 0 0 0 -0.29 0 0 0 -0.29 0 0 0 -0.29 0 0 0 0.29 -0.29 0 0zm-0.58 0l0 0 0.29 0 -0.29 0zm0.58 1.44l-0.58 0 0 0 0 0 0 0 0 0 0 0 0 0 0 -0.29 0 0 0 0 0 0 0 0 0 0 0 0 0 -0.29 0 0 0 0 0 0 0 0 0 0 0 -0.29 0 0 0 0 0 0 0 0 0 0 0 -0.29 0 0 0 0 0 0 0 0 0 0 0 0 0 -0.29 0.58 0 0 0.29 0 0 0 0 0 0 0 0 0 0 0 0 0 0.29 0 0 0 0 0 0 0 0 0 0 0 0.29 0 0 0 0 0 0 0 0 0 0 0 0.29 0 0 0 0 0 0 0 0 0 0 0 0 0 0.29 0 0 0 0 0 0 0 0 0 0 0 0zm0 27.72l-0.58 0 0 0 0 -0.87 0 -0.87 0 -0.87 0 -0.87 0 -0.87 0 -0.87 0 -0.87 0 -0.87 0 -0.87 0 -0.87 0 -0.87 0 -0.87 0 -0.87 0 -0.87 0 -0.87 0 -0.87 0 -0.87 0 -0.87 0 -0.87 0 -0.87 0 -0.87 0 -0.87 0 -0.87 0 -0.87 0 -0.87 0 -0.87 0 -0.87 0 -0.87 0 -0.87 0 -0.87 0 -0.87 0 -0.87 0.58 0 0 0.87 0 0.87 0 0.87 0 0.87 0 0.87 0 0.87 0 0.87 0 0.87 0 0.87 0 0.87 0 0.87 0 0.87 0 0.87 0 0.87 0 0.87 0 0.87 0 0.87 0 0.87 0 0.87 0 0.87 0 0.87 0 0.87 0 0.87 0 0.87 0 0.87 0 0.87 0 0.87 0 0.87 0 0.87 0 0.87 0 0.87 0 0.87 0 0zm-2.31 2.6l0 -0.58 0 0 0.29 0 0 0 0.29 0 0 0 0.29 0 0 0 0 0 0.29 0 0 0 0 0 0.29 0 0 0 0 -0.29 0 0 0 0 0 0 0 0 0.29 0 0 0 0 -0.29 0 0 0 0 0 0 0 -0.29 0 0 0 0 0 -0.29 0 0 0 -0.29 0 0 0 -0.29 0 -0.29 0.58 0 0 0.29 0 0.29 0 0 0 0.29 0 0 0 0.29 -0.29 0 0 0.29 0 0 0 0 0 0.29 0 0 0 0 0 0.29 0 0 -0.29 0 0 0.29 0 0 0 0 -0.29 0 0 0 0 0 -0.29 0 0 0 0 0.29 -0.29 0 0 0 -0.29 0 0 0 -0.29 0 0 0 -0.29 0 0 0 -0 0zm-3.46 0l0 -0.58 0 0 0 0 0.29 0 0 0 0 0 0.29 0 0 0 0.29 0 0 0 0 0 0.29 0 0 0 0 0 0.29 0 0 0 0.29 0 0 0 0 0 0.29 0 0 0 0.29 0 0 0 0 0 0.29 0 0 0 0.29 0 0 0 0 0 0.29 0 0 0 0.29 0 0 0 0 0 0 0.58 0 0 0 0 -0.29 0 0 0 -0.29 0 0 0 0 0 -0.29 0 0 0 -0.29 0 0 0 0 0 -0.29 0 0 0 -0.29 0 0 0 0 0 -0.29 0 0 0 -0.29 0 0 0 0 0 -0.29 0 0 0 0 0 -0.29 0 0 0 -0.29 0 0 0 0 0 -0.29 0 0 0 0 0zm-2.02 -2.31l0.29 0 0 0 0 0 0 0.29 0 0 0 0.29 0 0 0 0.29 0 0 0 0 0 0.29 0 0 0 0 0.29 0 0 0.29 0 0 0 0 0 0 0 0 0 0 0 0 0 0.29 0.29 0 0 0 0 0 0 0 0.29 0 0 0 0 0 0.29 0 0 0 0.29 0 0 0 0.29 0 0 0.58 -0.29 0 0 0 -0.29 0 0 0 -0.29 0 0 0 0 0 -0.29 -0.29 0 0 0 0 -0.29 0 0 0 0 0 -0.29 0 0 0 0 -0.29 0 0 -0.29 0 0 -0.29 0 0 0 0 0 -0.29 0 0 0 0 0 -0.29 0 0 0 -0.29 0 0 0 -0.29 0 0 0 -0.29 0 0 0 0 0 -0zm0 -23.67l0.29 0 0 0 0 0.57 0 0.87 0 0.57 0 0.87 0 0.58 0 0.87 0 0.87 0 0.58 0 0.87 0 0.58 0 0.87 0 0.58 0 0.87 0 0.87 0 0.58 0 0.87 0 0.58 0 0.87 0 0.58 0 0.87 0 0.58 0 0.87 0 0.87 0 0.58 0 0.87 0 0.57 0 0.87 0 0.57 0 0.87 0 0.87 0 0.57 0 0.87 -0.29 0 0 -0.87 0 -0.57 0 -0.87 0 -0.87 0 -0.57 0 -0.87 0 -0.57 0 -0.87 0 -0.58 0 -0.87 0 -0.87 0 -0.58 0 -0.87 0 -0.58 0 -0.87 0 -0.58 0 -0.87 0 -0.58 0 -0.87 0 -0.87 0 -0.58 0 -0.87 0 -0.58 0 -0.87 0 -0.58 0 -0.87 0 -0.87 0 -0.58 0 -0.87 0 -0.57 0 -0.87 0 -0.57 0 0zm0 -5.49l0 -0.58 0.29 0.29 0 0.29 0 0 0 0.29 0 0.29 0 0 0 0.29 0 0 0 0.29 0 0.29 0 0 0 0.29 0 0.29 0 0 0 0.29 0 0 0 0.29 0 0.29 0 0 0 0.29 0 0 0 0.29 0 0.29 0 0 0 0.29 0 0 0 0.29 0 0.29 0 0 0 0.29 0 0 0 0.29 0 0.29 -0.29 0 0 -0.29 0 -0.29 0 0 0 -0.29 0 0 0 -0.29 0 -0.29 0 0 0 -0.29 0 0 0 -0.29 0 -0.29 0 0 0 -0.29 0 0 0 -0.29 0 -0.29 0 0 0 -0.29 0 0 0 -0.29 0 -0.29 0 0 0 -0.29 0 -0.29 0 0 0 -0.29 0 0 0 -0.29 0 -0.29 0 0 0 -0.29 0 0.29 0 0zm0 -0.58l0.29 0 0 0.29 -0.29 -0.29zm-4.33 0.58l0 -0.58 0 0 0.29 0 0 0 0.29 0 0 0 0.29 0 0 0 0.29 0 0 0 0.29 0 0 0 0 0 0.29 0 0 0 0.29 0 0 0 0.29 0 0 0 0.29 0 0 0 0.29 0 0 0 0.29 0 0 0 0.29 0 0 0 0 0 0.29 0 0 0 0.29 0 0 0 0.29 0 0 0 0 0.58 0 0 -0.29 0 0 0 -0.29 0 0 0 -0.29 0 0 0 0 0 -0.29 0 0 0 -0.29 0 0 0 -0.29 0 0 0 -0.29 0 0 0 -0.29 0 0 0 -0.29 0 0 0 -0.29 0 0 0 0 0 -0.29 0 0 0 -0.29 0 0 0 -0.29 0 0 0 -0.29 0 0 0 -0.29 0 0 0zm0 0l0 0 0 0 0 0zm-2.02 0l0 -0.58 0 0 0.29 0 0 0 0 0 0 0 0.29 0 0 0 0 0 0 0 0 0 0.29 0 0 0 0 0 0 0 0 0 0.29 0 0 0 0 0 0 0 0.29 0 0 0 0 0 0 0 0 0 0.29 0 0 0 0 0 0 0 0.29 0 0 0 0 0 0 0 0 0 0 0.58 0 0 0 0 0 0 0 0 -0.29 0 0 0 0 0 0 0 -0.29 0 0 0 0 0 0 0 0 0 -0.29 0 0 0 0 0 0 0 -0.29 0 0 0 0 0 0 0 0 0 -0.29 0 0 0 0 0 0 0 -0.29 0 0 0 0 0 0 0 0 0 -0.29 0 0 0zm0 0l0 0 0 0 0 0zm-0.87 -2.6l0.29 0.29 0 0 0 0.29 -0.29 0 0 0 0 0.29 0 0 0 0 0 0 0 0.29 0 0 0 0 0 0 0 0.29 0 0 0 0 0 0 0 0 0 0.29 0 0 0 0 0.29 0 0 0 0 0 0 0 0 0.29 0 0 0.29 0 0 0 0 0 0 0 0.29 0 0 0 0 0 0 0.58 0 0 0 0 -0.29 0 0 0 0 -0.29 -0.29 0 0 0 0 0 -0.29 0 0 0 0 -0.29 0 0 -0.29 0 0 0 0 -0.29 0 0 0 0 0 -0.29 -0.29 0 0 0 0 -0.29 0 0 0 0 0 -0.29 0.29 0 0 0 0 -0.29 0 0 0 -0.29 0 0 0 0 0.29 -0.29 0 0 0 0zm3.76 -6.64l0.58 0.29 0 0 -0.29 0.29 0 0.29 -0.29 0 0 0.29 -0.29 0.29 0 0.29 0 0 -0.29 0.29 0 0.29 -0.29 0 0 0.29 -0.29 0.29 0 0.29 0 0 -0.29 0.29 0 0.29 -0.29 0 0 0.29 -0.29 0.29 0 0.29 0 0 -0.29 0.29 0 0.29 -0.29 0 0 0.29 -0.29 0.29 0 0.29 -0.29 0 0 0.29 0 0.29 -0.29 0.29 0 0 -0.29 -0.29 0 0 0 -0.29 0.29 -0.29 0 -0.29 0.29 0 0 -0.29 0.29 -0.29 0 0 0 -0.29 0.29 -0.29 0 -0.29 0.29 0 0 -0.29 0.29 -0.29 0 0 0 -0.29 0.29 -0.29 0 -0.29 0.29 0 0 -0.29 0.29 -0.29 0 -0.29 0.29 0 0 -0.29 0 -0.29 0.29 0 0 -0.29 0.29 -0.29 0 -0.29 0.29 0 0 -0.29 0 -0.29 0 0 0 0zm3.46 -4.91l0 -0.58 0.29 0.58 0 0 -0.29 0.29 0 0 -0.29 0.29 0 0.29 0 0 -0.29 0.29 0 0 0 0.29 -0.29 0.29 0 0 0 0.29 -0.29 0 0 0.29 -0.29 0.29 0 0 0 0.29 -0.29 0 0 0.29 0 0.29 -0.29 0 0 0.29 0 0 -0.29 0.29 0 0 0 0.29 -0.29 0 0 0.29 0 0.29 -0.29 0 0 0.29 0 0 -0.58 -0.29 0.29 0 0 -0.29 0 0 0.29 -0.29 0 0 0 -0.29 0.29 -0.29 0 0 0 -0.29 0.29 0 0 -0.29 0.29 0 0 -0.29 0 -0.29 0.29 0 0 -0.29 0 0 0.29 -0.29 0 0 0 -0.29 0.29 -0.29 0 0 0 -0.29 0.29 0 0 -0.29 0.29 -0.29 0 0 0 -0.29 0.29 -0.29 0 0 0 -0.29 0.29 0 0 0.29 0 0zm0 -0.58l0.58 0 -0.29 0.58 -0.29 -0.58 0 0zm-3.18 0.58l0 -0.58 0 0 0.29 0 0 0 0 0 0.29 0 0 0 0 0 0.29 0 0 0 0 0 0.29 0 0 0 0 0 0.29 0 0 0 0 0 0.29 0 0 0 0 0 0.29 0 0 0 0 0 0.29 0 0 0 0 0 0.29 0 0 0 0 0 0.29 0 0 0 0.29 0 0 0 0 0 0 0.58 0 0 0 0 -0.29 0 0 0 -0.29 0 0 0 0 0 -0.29 0 0 0 0 0 -0.29 0 0 0 0 0 -0.29 0 0 0 0 0 -0.29 0 0 0 0 0 -0.29 0 0 0 0 0 -0.29 0 0 0 0 0 -0.29 0 0 0 0 0 -0.29 0 0 0 0 0 -0.29 0 0 0zm-1.73 -2.02l0.29 0 0 0 0 0 0 0.29 0 0 0 0 0 0.29 0 0 0.29 0 0 0.29 0 0 0 0 0 0 0 0.29 0 0 0 0 0 0 0 0 0 0 0 0 0.29 0.29 0 0 0 0 0 0 0 0 0.29 0 0 0 0 0 0 0 0.29 0 0 0 0.29 0 0 0 0 0 0 0.57 0 0 -0.29 0 0 0 0 0 -0.29 0 0 0 0 0 -0.29 0 0 0 0 -0.29 -0.29 0 0 0 0 0 0 0 -0.29 0 0 -0.29 0 0 0 0 0 0 0 -0.29 -0.29 0 0 0 0 -0.29 0 0 0 0 0 -0.29 0 0 0 0 0 -0.29 0 0 0 -0.29 0 0 0 0 0 0zm0 -8.66l0.29 0 0 0 0 0.29 0 0.29 0 0.29 0 0.29 0 0.29 0 0.29 0 0.29 0 0 0 0.29 0 0.29 0 0.29 0 0.29 0 0.29 0 0.29 0 0.29 0 0.29 0 0.29 0 0.29 0 0.29 0 0.29 0 0 0 0.29 0 0.29 0 0.29 0 0.29 0 0.29 0 0.29 0 0.29 0 0.29 0 0.29 0 0.29 0 0.29 -0.29 0 0 -0.29 0 -0.29 0 -0.29 0 -0.29 0 -0.29 0 -0.29 0 -0.29 0 -0.29 0 -0.29 0 -0.29 0 -0.29 0 0 0 -0.29 0 -0.29 0 -0.29 0 -0.29 0 -0.29 0 -0.29 0 -0.29 0 -0.29 0 -0.29 0 -0.29 0 -0.29 0 -0.29 0 0 0 -0.29 0 -0.29 0 -0.29 0 -0.29 0 -0.29 0 -0.29 0 -0.29 0 0zm1.73 -2.02l0 0.57 0 0 0 0 -0.29 0 0 0 0 0 -0.29 0 0 0 0 0 0 0 -0.29 0 0 0 0 0 0 0 0 0 -0.29 0 0 0 0 0.29 0 0 0 0 0 0 0 0 0 0 0 0.29 0 0 0 0 0 0 -0.29 0.29 0 0 0 0 0 0.29 0 0 0 0.29 0 0 -0.29 0 0 0 0 -0.29 0 0 0 -0.29 0 0 0 -0.29 0 0 0 0 0 -0.29 0 0 0 0 0.29 -0.29 0 0 0 0 0 0 0 -0.29 0 0 0.29 0 0 0 0 0 0 0 0.29 -0.29 0 0 0 0 0 0 0.29 0 0 0 0 0 0.29 0 0 0 0.29 0 0 0 0 0 0 0zm9.82 0l0 0.57 0 0 -0.29 0 -0.29 0 -0.29 0 -0.58 0 -0.29 0 -0.29 0 -0.29 0 -0.29 0 -0.29 0 -0.29 0 -0.29 0 -0.29 0 -0.29 0 -0.29 0 -0.29 0 -0.29 0 -0.29 0 -0.29 0 -0.29 0 -0.29 0 -0.29 0 -0.29 0 -0.29 0 -0.58 0 -0.29 0 -0.29 0 -0.29 0 -0.29 0 -0.29 0 -0.29 0 -0.29 0 -0.29 0 0 -0.57 0.29 0 0.29 0 0.29 0 0.29 0 0.29 0 0.29 0 0.29 0 0.29 0 0.58 0 0.29 0 0.29 0 0.29 0 0.29 0 0.29 0 0.29 0 0.29 0 0.29 0 0.29 0 0.29 0 0.29 0 0.29 0 0.29 0 0.29 0 0.29 0 0.29 0 0.29 0 0.29 0 0.29 0 0.58 0 0.29 0 0.29 0 0.29 0 0 0zm1.15 -0.87l0.29 0.29 0 0 0 0 0 0.29 0 0 0 0 0 0 0 0.29 -0.29 0 0 0 0 0 0 0 0 0 0 0 -0.29 0.29 0 0 0 0 0 0 0 0 0 0 -0.29 0 0 0 0 0 0 0 0 0 -0.29 0 0 0.29 0 0 0 0 0 0 -0.29 0 0 0 0 0 0 0 0 -0.58 0 0 0 0 0 0 0 0 0.29 0 0 0 0 0 0 0 0 0 0 0 0.29 0 0 0 0 0 0 0 0 0 0 -0.29 0 0 0.29 0 0 0 0 0 0 0 0 0 0 0 0 0 0 0 0.29 -0.29 0 0 0 0 0 0 0 0 0 0 0 -0.29 0 0 0 0zm3.75 -6.06l0.29 0.29 0 0 0 0.29 -0.29 0.29 0 0 -0.29 0.29 0 0.29 0 0 -0.29 0.29 0 0.29 -0.29 0 0 0.29 0 0.29 -0.29 0 0 0.29 -0.29 0.29 0 0 0 0.29 -0.29 0 0 0.29 -0.29 0.29 0 0 0 0.29 -0.29 0.29 0 0 0 0.29 -0.29 0.29 0 0 -0.29 0.29 0 0.29 0 0 -0.29 0.29 0 0.29 -0.29 0 -0.29 -0.29 0.29 0 0 -0.29 0 -0.29 0.29 0 0 -0.29 0.29 -0.29 0 0 0 -0.29 0.29 -0.29 0 0 0 -0.29 0.29 -0.29 0 0 0.29 -0.29 0 0 0 -0.29 0.29 -0.29 0 0 0.29 -0.29 0 -0.29 0 0 0.29 -0.29 0 -0.29 0.29 0 0 -0.29 0 -0.29 0.29 0 0 -0.29 0.29 -0.29 0 0 0 -0.29 0.29 -0.29 0 0zm1.73 -1.16l0 0.58 0 0 0 0 0 0 0 0 -0.29 0 0 0 0 0 0 0 0 0 -0.29 0 0 0 0 0 0 0 0 0 0 0.29 -0.29 0 0 0 0 0 0 0 0 0 0 0 -0.29 0 0 0 0 0.29 0 0 0 0 0 0 0 0 -0.29 0 0 0.29 0 0 0 0 0 0 -0.29 -0.29 0 0 0 0 0 0 0 -0.29 0.29 0 0 0 0 0 0 0 0 -0.29 0 0 0.29 0 0 0 0 0 0 0 0 -0.29 0.29 0 0 0 0 0 0 0 0 0 0.29 0 0 0 0 0 0 0 0.29 -0.29 0 0 0 0 0 0 0.29 0 0 0 0 0 0 0 0 0 0 -0zm0 0.58l0 0 0 0 0 0zm45.91 -0.58l0 0.58 0 0 -1.44 0 -1.44 0 -1.44 0 -1.44 0 -1.44 0 -1.44 0 -1.44 0 -1.44 0 -1.44 0 -1.44 0 -1.44 0 -1.44 0 -1.44 0 -1.44 0 -1.44 0 -1.44 0 -1.16 0 -1.44 0 -1.44 0 -1.44 0 -1.44 0 -1.44 0 -1.44 0 -1.44 0 -1.44 0 -1.44 0 -1.44 0 -1.44 0 -1.44 0 -1.44 0 -1.44 0 -1.44 0 0 -0.58 1.44 0 1.44 0 1.44 0 1.44 0 1.44 0 1.44 0 1.44 0 1.44 0 1.44 0 1.44 0 1.44 0 1.44 0 1.44 0 1.44 0 1.44 0 1.16 0 1.44 0 1.44 0 1.44 0 1.44 0 1.44 0 1.44 0 1.44 0 1.44 0 1.44 0 1.44 0 1.44 0 1.44 0 1.44 0 1.44 0 1.44 0 1.44 0 0 0zm0 0.58l0 0 0 0 0 0zm1.73 0.58l-0.29 0.29 0 0 0 0 0 0 0 0 -0.29 -0.29 0 0 0 0 0 0 0 0 0 0 0 -0.29 -0.29 0 0 0 0 0 0 0 0 0 0 0 0 0 -0.29 0 0 0 0 -0.29 0 0 0 0 -0.29 0 0 0 0 0 0 0 0 0 -0.29 0 0 0 0 0 0 0 0 0 0 -0.58 0 0 0 0 0 0 0.29 0 0 0 0 0 0 0 0.29 0.29 0 0 0 0 0 0 0.29 0 0 0 0 0 0 0 0 0 0.29 0 0 0.29 0 0 0 0 0 0 0.29 0 0 0 0 0.29 0 0 0 0 0 0 0.29 0 0 0.29 0 0 0 0 0 0 0 0 0 0zm3.46 6.06l-0.29 0.29 0 0 0 -0.29 0 0 -0.29 -0.29 0 -0.29 -0.29 0 0 -0.29 0 -0.29 -0.29 0 0 -0.29 -0.29 -0.29 0 0 0 -0.29 -0.29 0 0 -0.29 0 -0.29 -0.29 0 0 -0.29 -0.29 -0.29 0 0 0 -0.29 -0.29 -0.29 0 0 -0.29 -0.29 0 0 0 -0.29 -0.29 -0.29 0 0 -0.29 -0.29 0 -0.29 0 0 -0.29 -0.29 0 -0.29 0.29 -0.29 0.29 0.29 0 0.29 0 0 0.29 0.29 0 0.29 0 0 0.29 0.29 0 0.29 0.29 0 0 0.29 0 0 0.29 0.29 0 0.29 0.29 0 0 0.29 0 0.29 0.29 0 0 0.29 0.29 0.29 0 0 0 0.29 0.29 0.29 0 0 0 0.29 0.29 0 0 0.29 0.29 0.29 0 0 0 0.29 0.29 0.29 0 0 0 0.29 0 0zm1.73 0.87l0 0.57 0 0 -0.29 0 0 0 0 0 0 0 -0.29 0 0 0 0 0 0 -0.29 -0.29 0 0 0 0 0 0 0 0 0 -0.29 0 0 0 0 0 0 0 0 0 -0.29 -0.29 0 0 0 0 0 0 0 0 0 0 -0.29 -0.29 0 0 0 0 0 0 0 0 0 -0.29 -0.29 0 0 0 0.29 -0.29 0.29 0 0 0 0 0.29 0 0 0 0 0 0 0 0 0.29 0 0 0.29 0 0 0 0 0 0 0 0 0 0 0.29 0 0 0 0 0 0 0.29 0 0 0 0 0 0 0.29 0 0 0 0 0 0 0 0 0 0.29 0 0 0 0 0 0 0 0 0 0.29 0 0 0 0 0zm9.53 0l-0.29 0.57 0.29 0 -0.57 0 -0.29 0 -0.29 0 -0.29 0 -0.29 0 -0.29 0 -0.29 0 -0.29 0 -0.29 0 -0.29 0 -0.29 0 -0.29 0 -0.29 0 -0.29 0 -0.29 0 -0.29 0 -0.29 0 -0.29 0 -0.29 0 -0.29 0 -0.29 0 -0.29 0 -0.29 0 -0.29 0 -0.29 0 -0.29 0 -0.29 0 -0.29 0 -0.29 0 -0.29 0 -0.29 0 -0.29 0 0 -0.57 0.29 0 0.29 0 0.29 0 0.29 0 0.29 0 0.29 0 0.29 0 0.29 0 0.29 0 0.29 0 0.29 0 0.29 0 0.29 0 0.29 0 0.29 0 0.29 0 0.29 0 0.29 0 0.29 0 0.29 0 0.29 0 0.29 0 0.29 0 0.29 0 0.29 0 0.29 0 0.29 0 0.29 0 0.29 0 0.29 0 0.29 0 0.57 0 0 0zm1.74 2.31l-0.29 0 0 0 0 -0.29 0 0 0 -0.29 0 0 -0.29 -0.29 0 0 0 0 0 -0.29 0 0 0 0 0 -0.29 0 0 0 0 0 0 0 0 0 0 0 -0.29 -0.29 0 0 0 0 0 0 0 0 0 0 0 -0.29 0 0 0 0 0 -0.29 0 0 0 0 0 -0.29 0 0 0 -0.29 0 0.29 -0.58 0 0 0 0 0.29 0 0 0 0.29 0 0 0 0 0 0.29 0 0 0 0 0 0.29 0.29 0 0 0 0 0 0 0.29 0 0 0 0 0.29 0 0 0 0 0 0.29 0.29 0 0 0 0 0.29 0 0 0 0 0 0.29 0 0 0 0.29 0 0 0 0 0 0.29 0 0.29 0 0 0 0zm0 6.07l-0.29 0 0 0 0 -0.29 0 0 0 -0.29 0 -0.29 0 0 0 -0.29 0 -0.29 0 0 0 -0.29 0 -0.29 0 0 0 -0.29 0 -0.29 0 0 0 -0.29 0 -0.29 0 0 0 -0.29 0 -0.29 0 0 0 -0.29 0 -0.29 0 0 0 -0.29 0 -0.29 0 0 0 -0.29 0 -0.29 0 0 0 -0.29 0 -0.29 0 0 0.29 0 0 0 0 0.29 0 0.29 0 0 0 0.29 0 0.29 0 0 0 0.29 0 0.29 0 0 0 0.29 0 0.29 0 0 0 0.29 0 0.29 0 0 0 0.29 0 0.29 0 0 0 0.29 0 0.29 0 0 0 0.29 0 0.29 0 0 0 0.29 0 0.29 0 0 0 0.29 0 0.29 0 0 0 0.29 0 0zm-3.76 4.33l0 -0.58 0 0 0.29 0 0.58 0 0.29 0 0.29 0 0 0 0.29 0 0.29 0 0.29 0 0 0 0.29 0 0 0 0.29 0 0 0 0 0 0.29 -0.29 0 0 0 0 0 0 0 -0.29 0 0 0 0 0 -0.29 0.29 -0.29 0 0 0 -0.29 0 -0.29 0 -0.29 0 -0.29 0 -0.29 0 -0.29 0 -0.58 0 -0.29 0.29 0 0 0.29 0 0.58 0 0.29 0 0.29 0 0.29 0 0.29 0 0.29 0 0.29 0 0 0 0.29 0 0.29 0 0 0 0.29 -0.29 0 0 0.29 0 0 -0.29 0.29 0 0 0 0 -0.29 0 0 0.29 -0.29 0 -0.29 0 0 0 -0.29 0 -0.29 0 -0.29 0 0 0 -0.29 0 -0.29 0 -0.58 0 -0.29 0 0 0 0 0zm-1.15 -0.29l-0.29 0.29 0.29 -0.57 0 0 0 0 0 0 0 0 0.29 0 0 0 0 0 0 0 0 0 0 0 0 0 0.29 0 0 0 0 0 0 0 0 0 0 0 0 0 0.29 0 0 0 0 0 0 0 0 0 0 0 0 0 0.29 0 0 0 0 0 0 0 0 0 0 0 0 0 0 0.57 0 0 0 0 0 0 0 0 0 0 0 0 -0.29 0 0 0 0 0 0 0 0 0 0 0 0 0 -0.29 0 0 0 0 0 0 0 0 0 0 0 0 0 -0.29 0 0 0 0 0 0 0 0 0 0 0 0 0 -0.29 0 0 0 0 0 0 0 0 0 0 -0.29zm-0.29 0.29l-0.29 -0.58 0.58 0 -0.29 0.58 -0 0zm3.18 4.33l-0.29 0.29 0 0 0 -0.29 -0.29 0 0 -0.29 0 0 -0.29 -0.29 0 0 0 -0.29 0 0 -0.29 0 0 -0.29 0 0 -0.29 -0.29 0 0 0 -0.29 -0.29 0 0 -0.29 0 0 0 -0.29 -0.29 0 0 -0.29 0 -0.29 -0.29 0 0 -0.29 0 0 -0.29 -0.29 0 0 0 -0.29 -0.29 0 0 -0.29 0 0 -0.29 -0.29 0 0 0.29 -0.29 0.29 0 0 0.29 0 0 0.29 0.29 0 0 0 0.29 0.29 0 0 0.29 0 0 0 0.29 0.29 0.29 0 0 0 0.29 0.29 0 0 0.29 0 0 0.29 0.29 0 0 0 0.29 0.29 0 0 0.29 0 0 0 0.29 0.29 0 0 0.29 0 0 0.29 0.29 0 0 0 0.29 0 0 0.29 0 0 0.29 0 0zm4.04 6.93l-0.29 0.29 0 0 0 -0.29 -0.29 -0.29 0 0 0 -0.29 -0.29 -0.29 0 -0.29 -0.29 0 0 -0.29 -0.29 -0.29 0 -0.29 -0.29 0 0 -0.29 0 -0.29 -0.29 -0.29 0 0 -0.29 -0.29 0 -0.29 -0.29 -0.29 0 0 -0.29 -0.29 0 -0.29 -0.29 -0.29 0 0 0 -0.29 -0.29 -0.29 0 -0.29 -0.29 0 0 -0.29 -0.29 -0.29 0 -0.29 -0.29 0 0 -0.29 0.29 -0.29 0.29 0.29 0 0 0 0.29 0.29 0.29 0 0.29 0.29 0 0 0.29 0.29 0.29 0 0.29 0.29 0 0 0.29 0.29 0.29 0 0.29 0 0 0.29 0.29 0 0.29 0.29 0.29 0 0 0.29 0.29 0 0.29 0.29 0.29 0 0 0.29 0.29 0 0.29 0 0.29 0.29 0 0 0.29 0.29 0.29 0 0.29 0.29 0.29 0 0 0 0.29 0 0zm-0.29 0.29l0 0 0.29 0.29 -0.29 -0.29zm0.87 1.73l-0.29 -0.29 0 0 0 0 0 0 0 0 0 0 0 0 0 -0.29 0 0 0 0 0 0 0 0 0 0 0 0 0 -0.29 0 0 -0.29 0 0 0 0 0 0 -0.29 0 0 0 0 0 0 0 0 0 -0.29 0 0 0 0 0 0 0 0 0 0 0 -0.29 -0.29 0 0 0 0 0 0.29 -0.29 0.29 0 0 0 0 0.29 0 0 0 0 0 0 0 0 0 0.29 0 0 0 0 0 0 0.29 0 0 0.29 0 0 0 0 0 0 0 0.29 0 0 0 0 0 0 0 0.29 0 0 0 0 0 0 0 0 0 0.29 0 0 0 0 0 0 0 0 0 0.29 0 0 0 0zm0 0l0 0 -0.29 0.58 0.29 -0.58zm-1.73 0.87l0 -0.58 0 0 0 0 0 0 0 0 0.29 0 0 0 0 0 0 0 0 0 0 0 0.29 0 0 0 0 0 0 0 0 0 0 -0.29 0.29 0 0 0 0 0 0 0 0 0 0 0 0.29 0 0 0 0 0 0 0 0 0 0 -0.29 0 0 0 0 0 0 0 0 0.29 0 0.29 0.29 0 0 0 0 -0.29 0 0 0.29 0 0 0 0 0 0 0 0 -0.29 0 0 0 0 0 0 0.29 0 0 0 0 -0.29 0 0 0 0 0 0 0 0 0 -0.29 0 0 0 0 0 0 0 0 0 -0.29 0.29 0 0 0 0 0 0 0 0 -0.29 0 0 0 0 0 0 0 0 0zm-5.78 -0.29l-0.29 0 0.29 -0.29 0 0 0.29 0 0.29 0 0 0 0.29 0 0.29 0 0 0 0.29 0 0 0 0.29 0 0.29 0 0 0 0.29 0 0.29 0 0 0 0.29 0 0.29 0 0 0 0.29 0 0 0 0.29 0 0.29 0 0 0 0.29 0 0.29 0 0 0 0.29 0 0 0 0.29 0 0.29 0 0 0 0.29 0 0 0.58 -0.29 0 0 0 -0.29 0 -0.29 0 0 0 -0.29 0 0 0 -0.29 0 -0.29 0 0 0 -0.29 0 -0.29 0 0 0 -0.29 0 0 0 -0.29 0 -0.29 0 0 0 -0.29 0 -0.29 0 0 0 -0.29 0 -0.29 0 0 0 -0.29 0 0 0 -0.29 0 -0.29 0 0 0 -0.29 0 -0.29 0 0 0 0 -0.29 0 0zm-0.29 0l0 -0.29 0.29 0 -0.29 0.29zm0.29 1.44l-0.29 0 0 0 0 0 0 0 0 0 0 0 0 0 0 -0.29 0 0 0 0 0 0 0 0 0 0 0 -0.29 0 0 0 0 0 0 0 0 0 0 0 0 0 -0.29 0 0 0 0 0 0 0 0 0 -0.29 0 0 0 0 0 0 0 0 0 0 0 -0.29 0 0 0 0 0.29 0 0 0 0 0 0 0.29 0 0 0 0 0 0 0 0 0 0 0 0.29 0 0 0 0 0 0 0 0 0 0.29 0 0 0 0 0 0 0 0 0 0 0 0 0 0.29 0 0 0 0 0 0 0 0 0 0 0 0.29 0 0 0 0 0 0 0 0 0 0 0 0zm0 27.72l-0.29 0 0 0 0 -0.87 0 -0.87 0 -0.87 0 -0.87 0 -0.87 0 -0.87 0 -0.87 0 -0.87 0 -0.87 0 -0.87 0 -0.87 0 -0.87 0 -0.87 0 -0.87 0 -0.87 0 -0.87 0 -0.87 0 -0.87 0 -0.87 0 -0.87 0 -0.87 0 -0.87 0 -0.87 0 -0.87 0 -0.87 0 -0.87 0 -0.87 0 -0.87 0 -0.87 0 -0.87 0 -0.87 0 -0.87 0.29 0 0 0.87 0 0.87 0 0.87 0 0.87 0 0.87 0 0.87 0 0.87 0 0.87 0 0.87 0 0.87 0 0.87 0 0.87 0 0.87 0 0.87 0 0.87 0 0.87 0 0.87 0 0.87 0 0.87 0 0.87 0 0.87 0 0.87 0 0.87 0 0.87 0 0.87 0 0.87 0 0.87 0 0.87 0 0.87 0 0.87 0 0.87 0 0.87 0 0zm-2.02 2.6l0 -0.58 0 0 0.29 0 0 0 0.29 0 0 0 0 0 0.29 0 0 0 0 0 0.29 0 0 0 0 0 0 0 0.29 -0.29 0 0 0 0 0 0 0 0 0 0 0 0 0 -0.29 0 0 0.29 0 0 0 0 -0.29 0 0 0 0 0 -0.29 0 0 0 -0.29 0 0 0 -0.29 0 -0.29 0.29 0 0 0.29 0 0.29 0 0 0 0.29 0 0 0 0.29 0 0 0 0.29 0 0 0 0 0 0.29 0 0 0 0 -0.29 0.29 0 0 0 0 0 0.29 0 0 -0.29 0 0 0 0 0 -0.29 0 0 0 0 0.29 -0.29 0 0 0 0 0 -0.29 0 0 0 -0.29 0 0 0 -0.29 0 0 0 0 0zm-3.75 0l0 -0.58 0 0 0.29 0 0 0 0 0 0.29 0 0 0 0.29 0 0 0 0 0 0.29 0 0 0 0.29 0 0 0 0 0 0.29 0 0 0 0.29 0 0 0 0 0 0.29 0 0 0 0.29 0 0 0 0 0 0.29 0 0 0 0.29 0 0 0 0 0 0.29 0 0 0 0.29 0 0 0 0 0.58 0 0 -0.29 0 0 0 -0.29 0 0 0 0 0 -0.29 0 0 0 -0.29 0 0 0 0 0 -0.29 0 0 0 -0.29 0 0 0 0 0 -0.29 0 0 0 -0.29 0 0 0 0 0 -0.29 0 0 0 -0.29 0 0 0 0 0 -0.29 0 0 0 -0.29 0 0 0 0 0 -0.29 0 0 0zm-2.02 -2.31l0.57 0 0 0 0 0 0 0.29 0 0 0 0.29 0 0 0 0.29 0 0 0 0 0 0.29 0 0 0 0 0 0 0 0.29 0 0 0 0 0.29 0 0 0 0 0 0 0 0 0.29 0 0 0.29 0 0 0 0 0 0 0 0.29 0 0 0 0 0 0.29 0 0 0 0.29 0 0 0 0 0.58 0 0 -0.29 0 0 0 -0.29 0 0 0 -0.29 0 0 0 0 -0.29 -0.29 0 0 0 0 0 0 0 -0.29 0 0 0 0 0 0 -0.29 -0.29 0 0 0 0 -0.29 0 0 0 0 0 -0.29 0 0 -0.29 0 0 -0.29 0 0 0 -0.29 0 0 0 -0.29 0 0 0 -0.29 0 0 0 0 0 -0zm0 -27.72l0.57 0 0 0 0 0.87 0 0.87 0 0.87 0 0.87 0 0.87 0 0.87 0 0.87 0 0.87 0 0.87 0 0.87 0 0.87 0 0.87 0 0.87 0 0.87 0 0.87 0 0.87 0 0.87 0 0.87 0 0.87 0 0.87 0 0.87 0 0.87 0 0.87 0 0.87 0 0.87 0 0.87 0 0.87 0 0.87 0 0.87 0 0.87 0 0.87 0 0.87 -0.57 0 0 -0.87 0 -0.87 0 -0.87 0 -0.87 0 -0.87 0 -0.87 0 -0.87 0 -0.87 0 -0.87 0 -0.87 0 -0.87 0 -0.87 0 -0.87 0 -0.87 0 -0.87 0 -0.87 0 -0.87 0 -0.87 0 -0.87 0 -0.87 0 -0.87 0 -0.87 0 -0.87 0 -0.87 0 -0.87 0 -0.87 0 -0.87 0 -0.87 0 -0.87 0 -0.87 0 -0.87 0 -0.87 0 0zm0.29 -1.44l0 -0.58 0.29 0.29 0 0 0 0.29 0 0 0 0 0 0 0 0 0 0.29 0 0 0 0 0 0 0 0 0 0 0 0.29 0 0 0 0 0 0 0 0 0 0.29 0 0 0 0 0 0 0 0 0 0 0 0 0 0.29 0 0 0 0 0 0 0 0 0 0 0 0.29 0 0 -0.58 0 0 0 0 -0.29 0 0 0 0 0 0 0 0 0 0 0 -0.29 0 0 0 0 0 0 0 0 0 0 0 0 0 -0.29 0 0 0 0 0 0 0 0 0 -0.29 0 0 0 0 0 0 0 0 0 0 0 -0.29 0 0 0 0 0 0 0 0 0 -0.29 0 0 0.29 0.29 0 0zm0 -0.58l0.29 0 0 0.29 -0.29 -0.29zm11.84 -2.02l0 0 0 0 0 0 -0.29 0 0.29 0zm0 -0.29l0.29 0.29 -0.29 0 0 -0.29zm-0.87 -0.58l0.58 -0.29 0 0 0 0 0 0 0 0 0 0 0 0 0 0 0 0 0 0 0 0 0 0.29 0 0 0 0 0 0 0 0 0 0 0 0 0 0 0.29 0 0 0 0 0.29 0 0 0 0 0 0 0 0 0 0 0 0 0 0 0 0.29 0 0 0 0 0 0 0 0 -0.29 0.29 0 0 0 0 0 0 0 -0.29 0 0 0 0 0 0 0 0 0 0 -0.29 0 0 0 0 -0.29 0 0 0 0 0 0 0 0 0 0 0 0 0 0 0 0 0 0 0 -0.29 0 0 0 0 0 0 0 0 0 0 0 0 0 0 -0.29 0 0 0 0 0 0 0 0 0zm0.58 -0.29l0 0 0 0.29 0 -0.29zm-6.35 -9.53l0.29 -0.29 0 0 0.29 0.29 0 0.29 0.29 0.29 0.29 0.29 0 0.29 0.29 0.29 0.29 0.29 0 0.29 0.29 0.29 0 0.29 0.29 0.29 0.29 0.29 0 0.29 0.29 0.57 0.29 0.29 0 0.29 0.29 0.29 0.29 0.29 0 0.29 0.29 0.29 0.29 0.29 0 0.29 0.29 0.29 0 0.29 0.29 0.29 0.29 0.29 0 0.29 0.29 0.29 0.29 0.29 0 0.58 0.29 0.29 0.29 0.29 -0.58 0.29 0 -0.29 -0.29 -0.58 -0.29 -0.29 0 -0.29 -0.29 -0.29 0 -0.29 -0.29 -0.29 -0.29 -0.29 0 -0.29 -0.29 -0.29 -0.29 -0.29 0 -0.29 -0.29 -0.29 -0.29 -0.29 0 -0.29 -0.29 -0.29 -0.29 -0.29 0 -0.58 -0.29 -0.29 0 -0.29 -0.29 -0.29 -0.29 -0.29 0 -0.29 -0.29 -0.29 -0.29 -0.29 0 -0.29 -0.29 -0.29 -0.29 -0.29 0 -0.29 -0.29 -0.29 0 -0.29 -0.29 -0.29 0 0 0 0zm-1.44 -0.86l0 -0.58 0 0 0.29 0 0 0 0 0 0 0 0 0 0.29 0 0 0 0 0 0 0 0 0 0.29 0.29 0 0 0 0 0 0 0 0 0.29 0 0 0 0 0 0 0 0 0 0 0.29 0.29 0 0 0 0 0 0 0 0 0 0 0.29 0.29 0 0 0 0 0 0 0 0 0.29 -0.29 0.29 0 -0.29 0 0 0 0 -0.29 0 0 0 0 -0.29 0 0 0 0 0 0 0 0 0 0 -0.29 0 0 0 0 0 0 -0.29 0 0 0 0 0 0 0 0 -0.29 0 0 0 0 0 0 0 0 0 0 0 -0.29 0 0 0 0 0 0 0 0 0 0 0 -0.29 0 0 0 0 0zm-64.96 0l0 -0.58 0 0 2.02 0 2.02 0 2.02 0 2.02 0 2.02 0 2.02 0 2.02 0 2.02 0 2.02 0 2.02 0 2.02 0 2.02 0 2.02 0 2.02 0 2.02 0 2.02 0 2.31 0 2.02 0 2.02 0 2.02 0 2.02 0 2.02 0 2.02 0 2.02 0 2.02 0 2.02 0 2.02 0 2.02 0 2.02 0 2.02 0 2.02 0 2.02 0 0 0.58 -2.02 0 -2.02 0 -2.02 0 -2.02 0 -2.02 0 -2.02 0 -2.02 0 -2.02 0 -2.02 0 -2.02 0 -2.02 0 -2.02 0 -2.02 0 -2.02 0 -2.02 0 -2.31 0 -2.02 0 -2.02 0 -2.02 0 -2.02 0 -2.02 0 -2.02 0 -2.02 0 -2.02 0 -2.02 0 -2.02 0 -2.02 0 -2.02 0 -2.02 0 -2.02 0 -2.02 0 -2.02 0 0 0zm-1.44 0.86l-0.29 -0.29 0 0 0 -0.29 0 0 0 0 0 0 0.29 0 0 -0.29 0 0 0 0 0 0 0 0 0 0 0.29 -0.29 0 0 0 0 0 0 0 0 0 0 0.29 0 0 0 0 0 0 0 0 -0.29 0.29 0 0 0 0 0 0 0 0 0 0.29 0 0 0 0 0 0 0 0.29 0 0 0.58 -0.29 0 0 0 0 0 0 0 0 0 -0.29 0 0 0 0 0 0 0 0 0 0 0 0 0 -0.29 0 0 0 0 0 0 0 0 0.29 0 0 0 0 -0.29 0 0 0 0 0 0 0 0 0 0 0 0 0.29 0 0 0 0 -0.29 0 0 0 0 0 0 0.29 0 0 0 -0zm-0.29 -0.29l0 0 0 0 0 0zm-5.48 9.82l-0.29 -0.29 0 0 0 -0.29 0.29 -0.29 0 -0.29 0.29 -0.29 0.29 -0.29 0 -0.29 0.29 -0.29 0.29 -0.29 0 -0.29 0.29 -0.29 0.29 -0.29 0 -0.29 0.29 -0.29 0 -0.29 0.29 -0.29 0.29 -0.57 0 -0.29 0.29 -0.29 0.29 -0.29 0 -0.29 0.29 -0.29 0.29 -0.29 0 -0.29 0.29 -0.29 0 -0.29 0.29 -0.29 0.29 -0.29 0 -0.29 0.29 -0.29 0.29 -0.29 0 -0.29 0.29 -0.29 0.29 0.29 -0.29 0.29 0 0.29 -0.29 0.29 0 0.29 -0.29 0.29 -0.29 0.29 0 0.29 -0.29 0.29 -0.29 0.29 0 0.29 -0.29 0.29 -0.29 0.29 0 0.29 -0.29 0.29 0 0.29 -0.29 0.29 -0.29 0.29 0 0.58 -0.29 0.29 -0.29 0.29 0 0.29 -0.29 0.29 -0.29 0.29 0 0.29 -0.29 0.29 0 0.29 -0.29 0.29 -0.29 0.29 0 0.29 -0.29 0.29 -0.29 0.29 0 0.29 0 0zm-0.87 0.57l0 0.58 0 -0.29 0 0 0 0 0 -0.29 0 0 0 0 0 0 0 0 0 0 0 0 0 0 0 0 0 -0.29 0 0 0.29 0 0 0 0 0 0 0 0 0 0 0 0 0 0 -0.29 0 0 0 0 0 0 0 0 0 0 0 0 0 0 0 0 0 0 0 -0.29 0.29 0 0.29 0.29 0 0 0 0 0 0.29 0 0 -0.29 0 0 0 0 0 0 0 0 0 0 0 0 0 0 0 0 0.29 0 0 0 0 0 0 0 0 0 0 0 0 0 0 0 0 0 0 0 0.29 -0.29 0 0 0 0 0 0 0 0 0 0 0 0 0 0 0.29 0 0 -0.29 -0.58zm0 0.58l-0.29 0 0.29 -0.29 0 0.29zm0.58 -0.29l0 0.29 0 0 0 0 0 0 0 0 0 0 0 0 0 0 0 0 0 0 0 0 0 0 0 0 0 0 0 0 0 0 0 0 -0.29 0 0 0 0 0 0 0 0 0 0 0 0 0 0 0 0 0 0 0 0 0 0 0 0 0 0 0 -0.29 0 0 0 0 0 0 -0.58 0.29 0 0 0 0 0 0 0 0 0 0 0 0 0 0 0.29 0 0 0 0 0 0 0 0 0 0 0.29 0 0 0 0 0 0 0 0 0 0 0 0 0 0 0 0 0 0 0 0 0 0 0 0 0 0 0 0 0 0 0 0 0 0 0 0 0 0 0 0 0zm0 0.29l0 0 0 0 0 0zm33.2 -0.29l0 0.29 0 0 -1.15 0 -0.87 0 -1.15 0 -0.87 0 -1.16 0 -0.87 0 -1.15 0 -1.16 0 -0.87 0 -1.15 0 -0.87 0 -1.15 0 -1.16 0 -0.87 0 -1.15 0 -0.87 0 -1.16 0 -0.87 0 -1.15 0 -1.15 0 -0.87 0 -1.16 0 -0.87 0 -1.15 0 -0.87 0 -1.16 0 -1.15 0 -0.87 0 -1.15 0 -0.87 0 -1.16 0 -1.15 0 0 -0.29 1.15 0 1.16 0 0.87 0 1.15 0 0.87 0 1.15 0 1.16 0 0.87 0 1.15 0 0.87 0 1.16 0 0.87 0 1.15 0 1.15 0 0.87 0 1.16 0 0.87 0 1.15 0 0.87 0 1.16 0 1.15 0 0.87 0 1.15 0 0.87 0 1.16 0 1.15 0 0.87 0 1.16 0 0.87 0 1.15 0 0.87 0 1.15 0 0 0zm0 0.29l0 0 0 0 0 0zm1.16 -1.15l0.29 0.29 0 0 0 0.29 -0.29 0 0 0 0 0 0 0 0 0 0 0 0 0 0 0.29 -0.29 0 0 0 0 0 0 0 0 0 0 0 0 0 -0.29 0 0 0.29 0 0 0 0 0 0 0 0 -0.29 0 0 0 0 0 0 0 0 0 0 0 0 0 -0.29 0 0 0 0 0 0 -0.29 0 0 0 0 0 0 0 0 0.29 0 0 -0.29 0 0 0 0 0 0 0 0 0 0 0 0 0.29 0 0 0 0 0 0 0 0 0 0 0 0 0 0 0 0.29 -0.29 0 0 0 0 0 0 0 0 0 0 0 0 0 0 0 0 0 0 0 -0.29 0.29 0 0 0zm0.29 0.29l0 0 0 0 0 0zm5.2 -4.91l0 0.58 0 0 0 0 -0.29 0.29 -0.29 0 0 0 -0.29 0.29 -0.29 0 0 0 -0.29 0.29 -0.29 0 0 0 -0.29 0.29 -0.29 0 0 0.29 -0.29 0 0 0.29 -0.29 0 -0.29 0.29 0 0 -0.29 0.29 0 0 -0.29 0.29 0 0 -0.29 0.29 0 0 -0.29 0.29 0 0.29 -0.29 0 0 0.29 -0.29 0 0 0.29 -0.29 0.29 0 0 -0.29 -0.29 0 0 0.29 -0.29 0 -0.29 0.29 0 0 -0.29 0.29 -0.29 0 0 0.29 -0.29 0 0 0.29 -0.29 0 -0.29 0.29 0 0 -0.29 0.29 0 0.29 -0.29 0 0 0.29 -0.29 0 0 0.29 -0.29 0.29 0 0 -0.29 0.29 0 0.29 0 0 -0.29 0.29 0 0.29 -0.29 0 0 0.29 0 0.29 -0.29 0 0 0.29 0 0.29 -0.29 0 0 0 -0zm11.55 4.62l-0.58 0 0 0 0 -0.29 -0.29 -0.29 -0.29 -0.58 -0.29 -0.29 -0.29 -0.29 -0.29 -0.29 -0.29 -0.29 -0.29 -0.29 -0.29 -0.29 -0.29 -0.29 -0.29 -0.29 -0.29 0 -0.29 -0.29 -0.29 -0.29 -0.29 0 -0.58 -0.29 -0.29 0 -0.29 -0.29 -0.58 0 -0.29 0 -0.29 0 -0.58 0 -0.29 0 -0.29 0 -0.58 0 -0.29 0 -0.58 0 -0.29 0 -0.29 0.29 -0.58 0 -0.29 0 -0.58 0.29 0 -0.58 0.29 0 0.58 -0.29 0.29 0 0.58 0 0.29 -0.29 0.58 0 0.29 0 0.58 0 0.29 0 0.57 0 0.29 0 0.29 0 0.58 0.29 0.29 0 0.29 0 0.58 0.29 0.29 0 0.29 0.29 0.57 0.29 0.29 0 0.29 0.29 0.29 0.29 0.29 0.29 0.29 0.29 0.29 0.29 0.29 0.29 0.29 0.29 0.29 0.29 0.29 0.29 0.29 0.58 0.29 0.29 0.29 0.58 0 0zm0 0l0 0 0 0 0 0zm1.15 0.87l0 0.29 0 0 0 0 0 0 0 0 -0.29 0 0 0 0 0 0 0 -0.29 0 0 0 0 0 0 0 -0.29 0 0 0 0 0 0 0 0 0 0 -0.29 -0.29 0 0 0 0 0 0 0 0 0 0 -0.29 -0.29 0 0 0 0 0 0 0 0 -0.29 0 0 0 0 -0.29 0 0 -0.29 0.57 0 0 0 0 0 0 0 0 0 0 0.29 0 0 0 0 0 0 0.29 0 0 0 0 0.29 0 0 0 0 0 0 0 0 0 0 0.29 0 0 0 0 0 0 0 0 0 0 0.29 0 0 0.29 0 0 0 0 0 0 0 0 0 0.29 0 0 0 0 0 0 0 0 0 0 0zm26.85 0l0 0.29 0 0 -0.87 0 -0.87 0 -0.87 0 -0.87 0 -0.87 0 -0.87 0 -0.87 0 -0.58 0 -0.87 0 -0.87 0 -0.87 0 -0.87 0 -0.87 0 -0.87 0 -0.87 0 -0.87 0 -0.58 0 -0.87 0 -0.87 0 -0.87 0 -0.87 0 -0.87 0 -0.87 0 -0.87 0 -0.87 0 -0.58 0 -0.87 0 -0.87 0 -0.87 0 -0.87 0 -0.87 0 -0.87 0 0 -0.29 0.87 0 0.87 0 0.87 0 0.87 0 0.87 0 0.87 0 0.58 0 0.87 0 0.87 0 0.87 0 0.87 0 0.87 0 0.87 0 0.87 0 0.87 0 0.58 0 0.87 0 0.87 0 0.87 0 0.87 0 0.87 0 0.87 0 0.87 0 0.87 0 0.58 0 0.87 0 0.87 0 0.87 0 0.87 0 0.87 0 0.87 0 0.87 0 0 0zm0.87 0.29l0.29 -0.29 0 0.29 0 0 -0.29 0 0 0 0 0 0 0 0 0 0 0 0 0 -0.29 0 0 0 0 0 0 0 0 0 0 0 0 0 -0.29 0 0 0 0 0 0 0 0 0 0 0 0 0 0 0 0 0 -0.29 0 0 0 0 0 0 0 0 0 0 0 0 0 0 0 0 -0.29 0 0 0 0 0 0 0 0 0 0 0 0 0 0 0.29 0 0 0 0 0 0 0 0 0 0 0 0 0 0 0 0 0 0.29 0 0 0 0 0 0 0 0 0 0 0 0 0 0.29 0 0 0 0 0 0 0 0 0 0 0 0 0 0.29 0 0 0 -0.29 0.29zm0.29 -0.29l0.29 0.29 -0.29 0 0 -0.29zm-1.73 -21.08l0 0 0 0 0 0 0 0 0 0zm0 -0.29l0 0 0 0.29 0 -0.29zm-77.38 0.29l-0.29 0 0 -0.29 2.6 0 2.31 0 2.31 0 2.6 0 2.31 0 2.6 0 2.31 0 2.31 0 2.6 0 2.31 0 2.31 0 2.6 0 2.31 0 2.6 0 2.31 0 2.31 0 2.6 0 2.31 0 2.6 0 2.31 0 2.31 0 2.6 0 2.31 0 2.6 0 2.31 0 2.31 0 2.6 0 2.31 0 2.6 0 2.31 0 2.31 0 2.6 0 0 0.29 -2.6 0 -2.31 0 -2.31 0 -2.6 0 -2.31 0 -2.6 0 -2.31 0 -2.31 0 -2.6 0 -2.31 0 -2.6 0 -2.31 0 -2.31 0 -2.6 0 -2.31 0 -2.6 0 -2.31 0 -2.31 0 -2.6 0 -2.31 0 -2.6 0 -2.31 0 -2.31 0 -2.6 0 -2.31 0 -2.31 0 -2.6 0 -2.31 0 -2.6 0 -2.31 0 -2.31 0 -2.6 0 0.29 0zm-0.29 0l0 -0.29 0 0 0 0.29zm0 6.64l0 0.58 0 -0.29 0 0 0 -0.29 0 -0.29 0 -0.29 0 -0.29 0 0 0 -0.29 0 -0.29 0 -0.29 0 0 0 -0.29 0 -0.29 0 -0.29 0 0 0 -0.29 0 -0.29 0 -0.29 0 0 0 -0.29 0 -0.29 0 -0.29 0 -0.29 0 0 0 -0.29 0 -0.29 0 -0.29 0 0 0 -0.29 0 -0.29 0 -0.29 0 -0.29 0 0 0.29 0 0 0 0 0.29 0 0.29 0 0.29 0 0.29 0 0 0 0.29 0 0.29 0 0.29 0 0 0 0.29 0 0.29 0 0.29 0 0.29 0 0 0 0.29 0 0.29 0 0.29 0 0 0 0.29 0 0.29 0 0.29 0 0 0 0.29 0 0.29 0 0.29 0 0 0 0.29 0 0.29 0 0.29 0 0.29 0 0 -0.29 -0.29 0 0zm0 0.57l0 0 0 -0.29 0 0.29zm77.38 -0.29l0.29 0 0 0.29 -2.6 0 -2.31 0 -2.31 0 -2.6 0 -2.31 0 -2.6 0 -2.31 0 -2.31 0 -2.59 0 -2.31 0 -2.6 0 -2.31 0 -2.31 0 -2.6 0 -2.31 0 -2.31 0 -2.6 0 -2.31 0 -2.6 0 -2.31 0 -2.31 0 -2.6 0 -2.31 0 -2.6 0 -2.31 0 -2.31 0 -2.6 0 -2.31 0 -2.6 0 -2.31 0 -2.31 0 -2.6 0 0 -0.57 2.6 0 2.31 0 2.31 0 2.6 0 2.31 0 2.6 0 2.31 0 2.31 0 2.6 0 2.31 0 2.6 0 2.31 0 2.31 0 2.6 0 2.31 0 2.6 0 2.31 0 2.31 0 2.6 0 2.31 0 2.31 0 2.6 0 2.31 0 2.59 0 2.31 0 2.31 0 2.6 0 2.31 0 2.6 0 2.31 0 2.31 0 2.6 0 -0.29 0.29 0 0zm0.29 0l0 0.29 0 0 0 -0.29zm0 -6.93l0 -0.29 0 0.29 0 0 0 0.29 0 0.29 0 0.29 0 0 0 0.29 0 0.29 0 0.29 0 0.29 0 0 0 0.29 0 0.29 0 0.29 0 0 0 0.29 0 0.29 0 0.29 0 0 0 0.29 0 0.29 0 0.29 0 0.29 0 0 0 0.29 0 0.29 0 0.29 0 0 0 0.29 0 0.29 0 0.29 0 0 0 0.29 -0.29 0 0 -0.29 0 0 0 -0.29 0 -0.29 0 -0.29 0 0 0 -0.29 0 -0.29 0 -0.29 0 0 0 -0.29 0 -0.29 0 -0.29 0 -0.29 0 0 0 -0.29 0 -0.29 0 -0.29 0 0 0 -0.29 0 -0.29 0 -0.29 0 0 0 -0.29 0 -0.29 0 -0.29 0 -0.29 0 0 0 -0.29 0 -0.29 0 -0.29 0 0 0.29 0zm0 -0.29l0 0 0 0.29 0 -0.29zm-64.96 -2.6l0 0 0 0 0 0 0 -0.29 0 0.29zm0 0.29l-0.29 0 0.29 -0.29 0 0.29zm51.97 0l0.29 -0.29 0 0.29 -1.73 0 -1.73 0 -1.44 0 -1.73 0 -1.73 0 -1.44 0 -1.73 0 -1.44 0 -1.73 0 -1.73 0 -1.44 0 -1.73 0 -1.73 0 -1.44 0 -1.74 0 -1.44 0 -1.73 0 -1.74 0 -1.44 0 -1.73 0 -1.73 0 -1.44 0 -1.73 0 -1.73 0 -1.44 0 -1.73 0 -1.73 0 -1.44 0 -1.73 0 -1.44 0 -1.73 0 -1.73 0 0 -0.58 1.73 0 1.73 0 1.44 0 1.73 0 1.44 0 1.73 0 1.73 0 1.44 0 1.73 0 1.73 0 1.44 0 1.73 0 1.73 0 1.44 0 1.74 0 1.73 0 1.44 0 1.74 0 1.44 0 1.73 0 1.73 0 1.44 0 1.73 0 1.73 0 1.44 0 1.73 0 1.44 0 1.73 0 1.73 0 1.44 0 1.73 0 1.73 0 -0.29 0.58zm0.29 -0.29l0.29 0.29 -0.29 0 0 -0.29zm-2.89 -4.33l0.29 -0.29 0 0 0 0.29 0 0 0.29 0 0 0.29 0 0 0 0.29 0.29 0 0 0.29 0 0 0.29 0.29 0 0 0 0.29 0 0 0.29 0.29 0 0 0 0.29 0.29 0 0 0.29 0 0 0.29 0.29 0 0 0 0.29 0 0 0.29 0.29 0 0 0 0.29 0.29 0 0 0.29 0 0 0.29 0.29 0 0 0 0.29 -0.29 0.29 0 -0.29 -0.29 0 0 -0.29 0 0 0 -0.29 -0.29 0 0 -0.29 0 0 -0.29 -0.29 0 0 0 -0.29 -0.29 0 0 -0.29 0 0 -0.29 -0.29 0 0 0 -0.29 0 0 -0.29 -0.29 0 0 0 -0.29 -0.29 0 0 -0.29 0 0 0 -0.29 -0.29 0 0 -0.29 0 0 -0.29 -0.29 0 0 0 -0.29 0 0 0 0zm-1.44 -0.87l0 -0.29 0 0 0.29 0 0 0 0 0 0 0 0 0 0.29 0 0 0 0 0 0 0 0 0 0.29 0 0 0 0 0 0 0 0 0 0 0 0.29 0.29 0 0 0 0 0 0 0 0 0 0 0.29 0 0 0.29 0 0 0 0 0 0 0 0 0 0 0.29 0.29 0 0 0 0 -0.29 0.29 -0.29 0 0 0 0 -0.29 0 0 0 0 0 0 0 0 0 0 0 0 0 -0.29 -0.29 0 0 0 0 0 0 0 0 0 0 0 0 0 0 0 -0.29 0 0 0 0 0 0 0 0 0 0 0 0 0 -0.29 0 0 -0.29 0 0 0 0 0 0 0 0 -0.29 0 0 0zm-9.53 0.29l0 -0.58 0 0 0.29 0 0.29 0 0.29 0 0.29 0 0.29 0 0.29 0 0.29 0 0.29 0 0.29 0 0.58 0 0.29 0 0.29 0 0.29 0 0.29 0 0.29 0 0.29 0 0.29 0 0.29 0 0.29 0 0.29 0 0.29 0 0.29 0 0.29 0 0.29 0 0.29 0 0.29 0 0.29 0 0.29 0 0.29 0 0.29 0 0.29 0 0.29 0 0 0.29 -0.29 0 -0.29 0 -0.29 0 -0.29 0 -0.29 0 -0.29 0 -0.29 0.29 -0.29 0 -0.29 0 -0.29 0 -0.29 0 -0.29 0 -0.29 0 -0.29 0 -0.29 0 -0.29 0 -0.29 0 -0.29 0 -0.29 0 -0.29 0 -0.29 0 -0.29 0 -0.58 0 -0.29 0 -0.29 0 -0.29 0 -0.29 0 -0.29 0 -0.29 0 -0.29 0 -0.29 0 -0.29 0 0 0 0 0zm-34.07 0l0 -0.58 0 0 1.15 0 0.87 0 1.15 0 1.16 0 0.87 0 1.15 0 1.16 0 0.87 0 1.15 0 1.15 0 1.16 0 0.87 0 1.15 0 1.15 0 0.87 0 1.16 0 1.15 0 0.87 0 1.16 0 1.15 0 0.87 0 1.15 0 1.16 0 1.15 0 0.87 0 1.15 0 1.16 0 0.87 0 1.15 0 1.15 0 0.87 0 1.15 0 0 0.58 -1.15 0 -0.87 0 -1.15 0 -1.15 0 -0.87 0 -1.16 0 -1.15 0 -0.87 0 -1.15 0 -1.16 0 -1.15 0 -0.87 0 -1.15 0 -1.16 0 -0.87 0 -1.15 0 -1.16 0 -0.87 0 -1.15 0 -1.15 0 -0.87 0 -1.16 0 -1.15 0 -1.15 0 -0.87 0 -1.16 0 -1.15 0 -0.87 0 -1.16 0 -1.15 0 -0.87 0 -1.15 0 0 0zm-1.16 0.29l-0.29 -0.29 0 0 0 0 0 0 0 0 0 -0.29 0.29 0 0 0 0 0 0 0 0 0 0 0 0 0 0.29 0 0 0 0 0 0 -0.29 0 0 0 0 0.29 0 0 0 0 0 0 0 0 0 0 0 0.29 0 0 0 0 0 0 0 0 0 0 0 0.29 0 0 0 0 0 0 0.58 0 0 0 0 0 0 -0.29 0 0 0 0 0 0 0 0 0 0 0 0 0 -0.29 0 0 0 0 0 0 0 0 0 0 0 0 0 -0.29 0 0 0 0 0 0 0 0 0 0 0 0 0 0 0.29 0 0 -0.29 0 0 0 0 0 0 0 0 0 0 0 0 0 0 -0zm-0.29 -0.29l0 0 0.29 -0.58 -0.29 0.58zm-2.89 4.62l0 0.58 0 -0.29 0 -0.29 0 0 0.29 -0.29 0 0 0 -0.29 0.29 0 0 -0.29 0 -0.29 0.29 0 0 -0.29 0 0 0.29 -0.29 0 0 0 -0.29 0 0 0.29 -0.29 0 0 0 -0.29 0.29 0 0 -0.29 0 0 0.29 -0.29 0 0 0 -0.29 0.29 0 0 -0.29 0 0 0.29 -0.29 0 0 0 -0.29 0.29 0 0 -0.29 0.29 0.29 0 0.29 -0.29 0 0 0.29 0 0 -0.29 0.29 0 0 0 0.29 0 0 -0.29 0.29 0 0 0 0.29 -0.29 0 0 0.29 0 0 -0.29 0.29 0 0 0 0.29 -0.29 0 0 0.29 0 0 -0.29 0.29 0 0 0 0.29 -0.29 0 0 0.29 0 0 -0.29 0.29 0 0.29 0 0 -0.29 0.29 0 0 0 0.29 -0.29 -0.58zm0 0.58l-0.29 0 0.29 -0.29 0 0.29zm29.45 20.21l0 0 0 0 0 0 0 0.29 0 -0.29zm-8.37 6.93l-0.29 -0.29 0 0 0 -0.29 0.29 -0.29 0.29 -0.58 0 -0.29 0.29 -0.29 0 -0.29 0.29 -0.29 0.29 -0.29 0.29 -0.29 0.29 -0.29 0 -0.29 0.29 -0.29 0.29 -0.29 0.29 -0.29 0.29 -0.29 0.29 -0.29 0.29 0 0.29 -0.29 0.29 -0.29 0.29 -0.29 0.29 0 0.29 -0.29 0.29 0 0.58 -0.29 0.29 0 0.29 0 0.29 -0.29 0.29 0 0.29 0 0.58 0 0.29 -0.29 0.29 0 0 0.58 -0.29 0 -0.29 0 -0.29 0 -0.58 0.29 -0.29 0 -0.29 0 -0.29 0 -0.29 0.29 -0.29 0 -0.29 0.29 -0.29 0 -0.29 0.29 -0.29 0.29 -0.29 0 -0.29 0.29 -0.29 0.29 -0.29 0 -0.29 0.29 -0.29 0.29 -0.29 0.29 -0.29 0.29 0 0.29 -0.29 0.29 -0.29 0.29 -0.29 0.29 0 0.29 -0.29 0.29 -0.29 0.29 0 0.29 -0.29 0.29 0 0.58 -0.29 0.29 0 0 0 0zm0.29 1.15l-0.29 0.29 0 0 0 0 0 0 0 0 0 -0.29 0 0 -0.29 0 0 0 0 0 0 0 0 -0.29 0 0 0 0 0 0 0 0 0 0 0 -0.29 0 0 0 0 0 0 0 0 -0.29 -0.29 0 0 0 0 0.29 0 0 0 0 -0.29 0 0 0 0 0 0 0 0 0 -0.29 0 0 0.29 0.29 0 0 0 0 0 0 0 0 0 0.29 0 0 0 0 0 0 0 0 0 0 0 0 0 0.29 0 0 0 0 0 0 0 0 0 0 0 0 0 0 0 0 0 0 0 0.29 0 0 0 0 0.29 0 0 0 0 0 0 0 0 0 0 0.29 0 0 0 0 0 0zm7.8 8.95l-0.29 0.29 0 0 -0.29 -0.29 0 -0.29 -0.29 -0.29 -0.29 -0.29 -0.29 -0.29 -0.29 -0.29 -0.29 -0.29 0 -0.29 -0.29 -0.29 -0.29 -0.29 -0.29 -0.29 -0.29 -0.29 -0.29 -0.29 -0.29 -0.29 0 -0.29 -0.29 -0.29 -0.29 0 -0.29 -0.29 -0.29 -0.29 -0.29 -0.29 0 -0.29 -0.29 -0.29 -0.29 -0.29 -0.29 -0.29 -0.29 -0.29 -0.29 -0.29 -0.29 -0.29 0 -0.29 -0.29 -0.29 -0.29 -0.29 -0.29 -0.29 -0.29 -0.29 0.29 -0.29 0.29 0.29 0.29 0.29 0.29 0.29 0.29 0.29 0 0.29 0.29 0.29 0.29 0.29 0.29 0.29 0.29 0.29 0.29 0.29 0.29 0 0 0.29 0.29 0.29 0.29 0.29 0.29 0.29 0.29 0.29 0.29 0.29 0.29 0.29 0 0.29 0.29 0.29 0.29 0.29 0.29 0.29 0.29 0.29 0.29 0.29 0 0.29 0.29 0.29 0.29 0.29 0.29 0.29 0.29 0.29 0.29 0.29 0 0.29 0.29 0.29 0 0zm0 0l0 0 0 0 0 0zm1.44 0.29l0 0.29 0 0 0 0 0 0 0 0.29 -0.29 0 0 0 0 0 0 0 0 0 -0.29 0 0 0 0 0 0 0 0 0 0 0 -0.29 0 0 0 0 0 0 0 0 0 -0.29 0 0 0 0 0 0 -0.29 0 0 -0.29 0 0 0 0 0 0 0 0 0 0 -0.29 -0.29 0 0 0 0.29 -0.29 0 0 0.29 0 0 0 0 0.29 0 0 0 0 0 0 0 0 0.29 0 0 0 0 0 0 0 0 0 0 0 0 0 0 0 0 0 0.29 0 0 0 0 0 0 0 0 0 0 0 0 0 0 0 0.29 0 0 0 0 0 0 0 0 0 0 0 0.29 0 0 0zm5.2 -7.8l0.57 0.29 0 0 -0.29 0.29 0 0.29 0 0.29 -0.29 0.29 0 0.29 0 0.29 -0.29 0.29 0 0.58 0 0.29 -0.29 0.29 0 0 -0.29 0.29 0 0.29 -0.29 0.29 -0.29 0.29 0 0.29 -0.29 0.29 0 0.29 -0.29 0.29 -0.29 0 -0.29 0.29 0 0.29 -0.29 0.29 -0.29 0 -0.29 0.29 0 0.29 -0.29 0 -0.29 0.29 -0.29 0 -0.29 0.29 -0.29 0.29 -0.29 0 0 -0.29 0.29 -0.29 0 0 0.29 -0.29 0.29 -0.29 0.29 0 0.29 -0.29 0.29 0 0 -0.29 0.29 -0.29 0.29 0 0 -0.29 0.29 -0.29 0.29 -0.29 0 0 0.29 -0.29 0.29 -0.29 0 -0.29 0.29 -0.29 0 -0.29 0.29 0 0 -0.29 0.29 -0.29 0 -0.29 0.29 -0.29 0 -0.29 0 -0.29 0.29 -0.29 0 -0.29 0 -0.29 0.29 -0.29 0 -0.58 0 -0.29 0 0 0 0zm-6.35 -9.24l0 -0.58 0 0 0.29 0 0.58 0.29 0.29 0 0.58 0 0.29 0 0.57 0.29 0.29 0 0.29 0.29 0.29 0.29 0.29 0 0.58 0.29 0.29 0.29 0.29 0.29 0.29 0.29 0 0.29 0.29 0.29 0.29 0.58 0.29 0.29 0 0.29 0.29 0.58 0.29 0.29 0 0.29 0 0.58 0.29 0.29 0 0.57 0 0.58 0 0.29 0 0.58 0 0.58 0 0.29 0 0.58 0 0.58 -0.58 -0.29 0.29 -0.29 0 -0.57 0 -0.58 0 -0.29 0 -0.58 0 -0.29 0 -0.57 -0.29 -0.29 0 -0.57 0 -0.29 -0.29 -0.29 0 -0.58 -0.29 -0.29 0 -0.29 -0.29 -0.29 -0.29 -0.57 -0.29 -0.29 0 -0.29 -0.29 -0.29 -0.29 -0.29 -0.29 0 -0.29 -0.29 -0.29 -0.29 -0.58 -0.29 -0.29 0 -0.29 -0.29 -0.29 0 -0.29 0 -0.58 -0.29 -0.29 0 -0.58 0 -0.29 0 0 0 0 0zm-34.36 34.65l0 0 0 0 0 0 0 0 0 0zm0.29 0l0 0.29 -0.29 0 0.29 -0.29zm-0.29 -28.59l0 -0.58 0.29 0.29 0 0.87 0 0.87 0 1.15 0 0.87 0 0.87 0 0.87 0 0.87 0 0.87 0 0.87 0 0.87 0 1.15 0 0.87 0 0.87 0 0.87 0 0.87 0 0.87 0 0.87 0 0.87 0 1.15 0 0.87 0 0.87 0 0.87 0 0.87 0 0.87 0 0.87 0 0.87 0 1.16 0 0.87 0 0.87 0 0.87 0 0.87 0 0.87 -0.29 0 0 -0.87 0 -0.87 0 -0.87 0 -0.87 0 -0.87 0 -1.16 0 -0.87 0 -0.87 0 -0.87 0 -0.87 0 -0.87 0 -0.87 0 -0.87 0 -1.15 0 -0.87 0 -0.87 0 -0.87 0 -0.87 0 -0.87 0 -0.87 0 -0.87 0 -1.15 0 -0.87 0 -0.87 0 -0.87 0 -0.87 0 -0.87 0 -0.87 0 -0.87 0 -1.15 0 -0.87 0 -0.87 0 0.29 0 0zm0 -0.58l0.29 0 0 0.29 -0.29 -0.29zm-2.6 0.29l-0.58 0 0.29 -0.29 0 0 0.29 0 0 0 0 0 0.29 0 0 0 0 0 0.29 0 0 0 0 0 0 0 0.29 0 0 0 0 0 0.29 0 0 0 0 0 0.29 0 0 0 0 0 0.29 0 0 0 0 0 0.29 0 0 0 0 0 0.29 0 0 0 0 0 0.29 0 0 0 0 0 0 0.58 0 0 0 0 -0.29 0 0 0 0 0 -0.29 0 0 0 0 0 -0.29 0 0 0 0 0 -0.29 0 0 0 0 0 -0.29 0 0 0 0 0 -0.29 0 0 0 0 0 -0.29 0 0 0 0 0 0 0 -0.29 0 0 0 0 0 -0.29 0 0 0 0 0 -0.29 0 0 0 0.29 -0.29 0 0zm-0.58 0l0 -0.29 0.29 0 -0.29 0.29zm0.29 28.58l0 0.58 -0.29 -0.29 0 -0.87 0 -0.87 0 -0.87 0 -0.87 0 -0.87 0 -1.15 0 -0.87 0 -0.87 0 -0.87 0 -0.87 0 -0.87 0 -0.87 0 -0.87 0 -1.15 0 -0.87 0 -0.87 0 -0.87 0 -0.87 0 -0.87 0 -0.87 0 -0.87 0 -0.87 0 -1.16 0 -0.87 0 -0.87 0 -0.87 0 -0.87 0 -0.87 0 -0.87 0 -1.16 0 -0.87 0 -0.87 0.58 0 0 0.87 0 0.87 0 1.16 0 0.87 0 0.87 0 0.87 0 0.87 0 0.87 0 0.87 0 1.16 0 0.87 0 0.87 0 0.87 0 0.87 0 0.87 0 0.87 0 0.87 0 0.87 0 1.15 0 0.87 0 0.87 0 0.87 0 0.87 0 0.87 0 0.87 0 0.87 0 1.15 0 0.87 0 0.87 0 0.87 0 0.87 0 0.87 -0.29 -0.29 -0 0zm0 0.58l-0.29 0 0 -0.29 0.29 0.29zm2.89 -0.29l0.29 0 -0.29 0.29 0 0 0 0 -0.29 0 0 0 0 0 -0.29 0 0 0 0 0 -0.29 0 0 0 0 0 -0.29 0 0 0 0 0 -0.29 0 0 0 0 0 -0.29 0 0 0 0 0 -0.29 0 0 0 0 0 0 0 -0.29 0 0 0 0 0 -0.29 0 0 0 0 0 -0.29 0 0 0 0 -0.58 0 0 0.29 0 0 0 0 0 0.29 0 0 0 0 0 0.29 0 0 0 0 0 0 0 0.29 0 0 0 0 0 0.29 0 0 0 0 0 0.29 0 0 0 0 0 0.29 0 0 0 0 0 0.29 0 0 0 0 0 0.29 0 0 0 0 0 0.29 0 0 0 0 0 0 0.29 0 0zm0.29 0l0 0.29 -0.29 0 0.29 -0.29zm64.68 0l0 0 0 0 0 0 -0.29 0 0.29 0zm0.29 0l0 0.29 -0.29 0 0.29 -0.29zm-0.29 -28.59l0 -0.58 0.29 0.29 0 0.87 0 0.87 0 1.15 0 0.87 0 0.87 0 0.87 0 0.87 0 0.87 0 0.87 0 0.87 0 1.15 0 0.87 0 0.87 0 0.87 0 0.87 0 0.87 0 0.87 0 0.87 0 1.15 0 0.87 0 0.87 0 0.87 0 0.87 0 0.87 0 0.87 0 0.87 0 1.16 0 0.87 0 0.87 0 0.87 0 0.87 0 0.87 -0.58 0 0 -0.87 0 -0.87 0 -0.87 0 -0.87 0 -0.87 0 -1.16 0 -0.87 0 -0.87 0 -0.87 0 -0.87 0 -0.87 0 -0.87 0 -0.87 0 -1.15 0 -0.87 0 -0.87 0 -0.87 0 -0.87 0 -0.87 0 -0.87 0 -0.87 0 -1.15 0 -0.87 0 -0.87 0 -0.87 0 -0.87 0 -0.87 0 -0.87 0 -0.87 0 -1.15 0 -0.87 0 -0.87 0.29 0.29 0 0zm0 -0.58l0.29 0 0 0.29 -0.29 -0.29zm-2.89 0.29l-0.29 0 0.29 -0.29 0 0 0 0 0.29 0 0 0 0 0 0.29 0 0 0 0 0 0.29 0 0 0 0 0 0 0 0.29 0 0 0 0 0 0.29 0 0 0 0 0 0.29 0 0 0 0 0 0.29 0 0 0 0 0 0.29 0 0 0 0 0 0.29 0 0 0 0 0 0.29 0 0 0 0 0.58 0 0 -0.29 0 0 0 0 0 -0.29 0 0 0 0 0 -0.29 0 0 0 0 0 -0.29 0 0 0 0 0 -0.29 0 0 0 0 0 -0.29 0 0 0 0 0 -0.29 0 0 0 0 0 0 0 -0.29 0 0 0 0 0 -0.29 0 0 0 0 0 -0.29 0 0 0 0 0 0 -0.29 0 0zm-0.29 0l0 -0.29 0.29 0 -0.29 0.29zm0.29 28.58l0 0.58 -0.29 -0.29 0 -0.87 0 -0.87 0 -0.87 0 -0.87 0 -0.87 0 -1.15 0 -0.87 0 -0.87 0 -0.87 0 -0.87 0 -0.87 0 -0.87 0 -0.87 0 -1.15 0 -0.87 0 -0.87 0 -0.87 0 -0.87 0 -0.87 0 -0.87 0 -0.87 0 -1.16 0 -0.87 0 -0.87 0 -0.87 0 -0.87 0 -0.87 0 -0.87 0 -0.87 0 -1.16 0 -0.87 0 -0.87 0.29 0 0 0.87 0 0.87 0 1.16 0 0.87 0 0.87 0 0.87 0 0.87 0 0.87 0 0.87 0 0.87 0 1.16 0 0.87 0 0.87 0 0.87 0 0.87 0 0.87 0 0.87 0 0.87 0 1.15 0 0.87 0 0.87 0 0.87 0 0.87 0 0.87 0 0.87 0 0.87 0 1.15 0 0.87 0 0.87 0 0.87 0 0.87 0 0.87 0 -0.29 0 0zm0 0.58l-0.29 0 0 -0.29 0.29 0.29zm2.6 -0.29l0.58 0 -0.29 0.29 0 0 -0.29 0 0 0 0 0 -0.29 0 0 0 0 0 -0.29 0 0 0 0 0 -0.29 0 0 0 0 0 -0.29 0 0 0 0 0 -0.29 0 0 0 0 0 -0.29 0 0 0 0 0 -0.29 0 0 0 0 0 0 0 -0.29 0 0 0 0 0 -0.29 0 0 0 0 0 0 -0.58 0 0 0 0 0.29 0 0 0 0 0 0.29 0 0 0 0 0 0 0 0.29 0 0 0 0 0 0.29 0 0 0 0 0 0.29 0 0 0 0 0 0.29 0 0 0 0 0 0.29 0 0 0 0 0 0.29 0 0 0 0 0 0.29 0 0 0 0 0 0.29 0 0 0 -0.29 0.29 0 0zm0.57 0l0 0.29 -0.29 0 0.29 -0.29zm-40.13 -24.26l0 0 0 0 0 0 0 0 0 0zm-0.29 0l-0.29 -0.87 0.57 0.58 -0.29 0.29 0 0zm0.87 2.6l-0.58 0 0 0 0 0 0 0 0 -0.29 0 0 0 0 0 0 0 -0.29 0 0 0 0 0 0 0 -0.29 0 0 0 0 0 -0.29 0 0 0 0 0 0 0 -0.29 -0.29 0 0 0 0 -0.29 0 0 0 0 0 -0.29 0 0 0 0 0 0 0 -0.29 0 0 0 0 0 -0.29 0 0 0.29 0 0 0 0 0 0 0.29 0.29 0 0 0 0 0.29 0 0 0 0 0 0.29 0 0 0 0 0 0 0 0.29 0 0 0 0 0 0.29 0 0 0 0 0 0 0 0.29 0 0 0 0 0 0 0 0.29 0 0 0.29 0 0 0.29 0 0 0 0 0 0 0 0.29 0 0 0 0 0 0zm-1.44 5.2l-0.29 -0.29 0 0 0 -0.29 0.29 0 0 -0.29 0 0 0.29 0 0 -0.29 0 0 0.29 -0.29 0 0 0 -0.29 0 0 0.29 -0.29 0 0 0 -0.29 0 0 0 -0.29 0.29 0 0 -0.29 0 0 0 -0.29 0 0 0 -0.29 0 0 0 -0.29 0 0 0 -0.29 0 -0.29 0 0 0 -0.29 0 0 0 -0.29 -0.29 -0.29 0.58 0 0 0.29 0 0 0 0.29 0 0.29 0 0 0 0.29 0 0 0 0.29 0 0.29 0 0 0 0.29 0 0.29 0 0 0 0.29 0 0 0 0.29 0 0 -0.29 0.29 0 0.29 0 0 0 0.29 -0.29 0 0 0.29 0 0 -0.29 0.29 0 0 0 0.29 -0.29 0 0 0.29 0 0 -0.29 0.29 0 0 0 0 -0 0zm-2.89 2.6l-0.29 -0.57 0 0 0 0 0.29 0 0 0 0 -0.29 0.29 0 0 0 0 -0.29 0.29 0 0 0 0 0 0 -0.29 0.29 0 0 0 0 -0.29 0.29 0 0 0 0 0 0.29 -0.29 0 0 0 0 0 0 0.29 -0.29 0 0 0 0 0.29 0 0 -0.29 0 0 0 0 0.29 -0.29 0 0 0 0 0.29 0 0.29 0.29 -0.29 0 0 0 0 0.29 -0.29 0 0 0 0 0.29 0 0 -0.29 0 0 0 0 0.29 -0.29 0 0 0 0 0 -0.29 0.29 0 0 0 0 0 0.29 -0.29 0 0 0 0 0 -0.29 0.29 0 0 0 0 -0.29 0 0 0.29 0 0 0 0 -0.29 0.29 0 0 0 0 -0.29 0 0 0.29 0 0 0 0zm-0.29 1.74l-0.29 0.57 0 0 0 -0.29 0 0 0 0 0 0 -0.29 -0.29 0 0 0 0 0 0 0 -0.29 0 0 0 0 0 -0.29 0 0 0 0 0 -0.29 0 0 0 0 0 -0.29 0 0 0 0 0 -0.29 0 0 0 0 0 0 0.29 -0.29 0 0 0 0 0 -0.29 0 0 0.29 0 0 0 0 -0.29 0.29 0.58 0 0 0 0 -0.29 0 0 0.29 0 0 0 0 0 0 0 0 0 0.29 0 0 -0.29 0 0 0 0 0.29 0 0 0 0 0 0 0 0 0 0.29 0 0 0 0 0 0 0 0.29 0 0 0 0 0.29 0 0 0 0 0.29 0 0 0 0 0 0 0 0 0 0 0 0 0 0zm1.73 0l0.29 0.29 0 0 0 0 0 0 0 0 -0.29 0.29 0 0 0 0 0 0 0 0.29 -0.29 0 0 0 0 0 -0.29 0 0 0 0 0 0 0 -0.29 0 0 0 0 0 0 0 -0.29 0 0 0 0 0 0 0 -0.29 0 0 0 0 0 0 0 -0.29 0 0 -0.29 0 0 0 0 -0.29 0 0.29 -0.58 0.29 0.29 0 0 0 0 0 0 0 0 0 0 0.29 0 0 0.29 0 0 0 0 0 0 0 0 0.29 0 0 0 0 0 0 0 0 0 0.29 0 0 0 0 0 0 -0.29 0 0 0.29 0 0 0 0 0 0 0 0 0 0.29 -0.29 0 0 0 0 0 0 0 -0.29 0 0.29 0 0zm0.29 0.29l0 0 -0.29 0.29 0.29 -0.29zm2.02 -3.46l0.29 0.29 0 0 0 0 -0.29 0.29 0 0 0 0 0 0.29 -0.29 0 0 0 0 0.29 0 0 0 0 -0.29 0.29 0 0 0 0 0 0.29 -0.29 0 0 0 0 0.29 0 0 -0.29 0 0 0.29 0 0 0 0 0 0.29 -0.29 0 0 0 0 0.29 0 0 -0.29 0 0 0.29 0 0 0 0 -0.29 0.29 -0.29 -0.29 0.29 -0.29 0 0 0 0 0 -0.29 0 0 0.29 0 0 -0.29 0 0 0 0 0.29 -0.29 0 0 0 0 0 -0.29 0.29 0 0 0 0 -0.29 0 0 0 0 0.29 -0.29 0 0 0 0 0 -0.29 0.29 0 0 0 0 -0.29 0 0 0.29 0 0 -0.29 0 0 0 0 0 -0.29 0.29 0 0 0zm4.62 -1.73l-0.29 0.29 0 0 0 0 -0.29 0 0 0 -0.29 0 0 0 -0.29 0 0 0 -0.29 0 0 0 -0.29 0 0 0 -0.29 0 0 0 -0.29 0 0 0 -0.29 0 0 0.29 -0.29 0 0 0 0 0 -0.29 0 0 0.29 -0.29 0 0 0 -0.29 0.29 0 0 0 0.29 -0.29 0 0 0 0 0.29 -0.29 0 0 0.29 -0.29 -0.29 0 -0.29 0 0 0.29 -0.29 0 0 0.29 -0.29 0 0 0.29 0 0 -0.29 0 0 0.29 -0.29 0 0 0.29 0 0 -0.29 0.29 0 0 0 0.29 0 0 0 0.29 -0.29 0 0 0.29 0 0 0 0.29 0 0.29 0 0 0 0.29 0 0 0 0.29 0 0 0 0.29 0 0.29 0 0 0.29 0.29 0 0 0zm0 0l0 0 -0.87 -0.29 0.87 0.29zm2.02 0.87l0.29 -0.29 -0.29 0.29 0 0 0 0 0 0 -0.29 0 0 0 0 0 0 0 -0.29 0 0 0 0 -0.29 0 0 -0.29 0 0 0 0 0 0 0 -0.29 0 0 0 0 0 0 0 -0.29 0 0 0 0 0 0 0 -0.29 0 0 0 0 0 0 0 -0.29 0 0 0 0 -0.29 0 0 -0.29 0 0.29 -0.29 0 0 0 0 0 0 0.29 0 0 0 0 0 0 0 0.29 0 0 0 0 0 0 0 0.29 0 0 0 0 0 0 0.29 0.29 0 0 0 0 0 0 0 0 0 0.29 0 0 0 0 0 0 0 0.29 0 0 0 0 0 0 0 0.29 0 0 0 0 0 0.29 0 -0.29 0.58 0 0zm0.29 -0.29l0.58 0.29 -0.87 0 0.29 -0.29zm-6.93 -7.8l-0.29 0 0.29 -0.29 0.29 0.29 0.29 0.29 0 0.29 0.29 0.29 0.29 0.29 0.29 0 0 0.29 0.29 0.29 0.29 0.29 0.29 0.29 0 0.29 0.29 0.29 0.29 0 0.29 0.29 0 0.29 0.29 0.29 0.29 0.29 0.29 0.29 0 0 0.29 0.29 0.29 0.29 0.29 0.29 0 0.29 0.29 0.29 0.29 0.29 0 0 0.29 0.29 0.29 0.29 0.29 0.29 0 0.29 0.29 0.29 0.29 0.29 -0.29 0.29 -0.29 -0.29 -0.29 -0.29 0 -0.29 -0.29 -0.29 -0.29 -0.29 -0.29 0 0 -0.29 -0.29 -0.29 -0.29 -0.29 -0.29 -0.29 0 -0.29 -0.29 0 -0.29 -0.29 0 -0.29 -0.29 -0.29 -0.29 -0.29 -0.29 -0.29 0 -0.29 -0.29 0 -0.29 -0.29 -0.29 -0.29 0 -0.29 -0.29 -0.29 -0.29 -0.29 -0.29 -0.29 0 0 -0.29 -0.29 -0.29 -0.29 -0.29 -0.29 0 -0.29 -0.29 -0.29 -0.29 -0.29 0.29 0zm-0.29 0l-0.29 -0.87 0.57 0.58 -0.29 0.29 0 0zm-16.17 4.04l0 0 0 0 0 0 0 -0.29 0 0.29zm0 0.29l-0.29 0 0 -0.29 0.29 0.29zm2.6 -0.29l0.58 0 -0.29 0.29 0 0 -0.29 0 0 0 0 0 -0.29 0 0 0 0 0 -0.29 0 0 0 0 0 -0.29 0 0 0 0 0 0 0 -0.29 0 0 0 0 0 -0.29 0 0 0 0 0 -0.29 0 0 0 0 0 -0.29 0 0 0 0 0 -0.29 0 0 0 0 0 -0.29 0 0 0 0 0 0 -0.58 0 0 0 0 0.29 0 0 0 0 0 0.29 0 0 0 0 0 0.29 0 0 0 0 0 0.29 0 0 0 0 0 0.29 0 0 0 0 0 0.29 0 0 0 0 0 0 0 0.29 0 0 0 0 0 0.29 0 0 0 0 0 0.29 0 0 0 0 0 0.29 0 0 0 -0.29 0.29 0 0zm0.58 0l0 0.29 -0.29 0 0.29 -0.29zm-0.29 -8.37l0 -0.58 0.29 0.29 0 0.29 0 0.29 0 0.29 0 0.29 0 0.29 0 0.29 0 0.29 0 0.29 0 0.29 0 0.29 0 0 0 0.29 0 0.29 0 0.29 0 0.29 0 0.29 0 0.29 0 0.29 0 0.29 0 0.29 0 0.29 0 0.29 0 0.29 0 0.29 0 0 0 0.29 0 0.29 0 0.29 0 0.29 0 0.29 0 0.29 0 0.29 -0.58 0 0 -0.29 0 -0.29 0 -0.29 0 -0.29 0 -0.29 0 -0.29 0 -0.29 0 0 0 -0.29 0 -0.29 0 -0.29 0 -0.29 0 -0.29 0 -0.29 0 -0.29 0 -0.29 0 -0.29 0 -0.29 0 -0.29 0 -0.29 0 -0.29 0 0 0 -0.29 0 -0.29 0 -0.29 0 -0.29 0 -0.29 0 -0.29 0 -0.29 0 -0.29 0 -0.29 0 -0.29 0.29 0.29 0 0zm0 -0.58l0.29 0 0 0.29 -0.29 -0.29zm-2.89 0.29l-0.29 0 0.29 -0.29 0 0 0 0 0.29 0 0 0 0 0 0.29 0 0 0 0 0 0.29 0 0 0 0 0 0.29 0 0 0 0 0 0.29 0 0 0 0 0 0.29 0 0 0 0 0 0 0 0.29 0 0 0 0 0 0.29 0 0 0 0 0 0.29 0 0 0 0 0 0.29 0 0 0 0 0.58 0 0 -0.29 0 0 0 0 0 -0.29 0 0 0 0 0 -0.29 0 0 0 0 0 -0.29 0 0 0 0 0 0 0 -0.29 0 0 0 0 0 -0.29 0 0 0 0 0 -0.29 0 0 0 0 0 -0.29 0 0 0 0 0 -0.29 0 0 0 0 0 -0.29 0 0 0 0 0 0 -0.29 0 0zm-0.29 0l0 -0.29 0.29 0 -0.29 0.29zm0.29 8.37l0 0.57 -0.29 -0.29 0 -0.29 0 -0.29 0 -0.29 0 -0.29 0 -0.29 0 -0.29 0 0 0 -0.29 0 -0.29 0 -0.29 0 -0.29 0 -0.29 0 -0.29 0 -0.29 0 -0.29 0 -0.29 0 -0.29 0 -0.29 0 -0.29 0 -0.29 0 0 0 -0.29 0 -0.29 0 -0.29 0 -0.29 0 -0.29 0 -0.29 0 -0.29 0 -0.29 0 -0.29 0 -0.29 0 -0.29 0.29 0 0 0.29 0 0.29 0 0.29 0 0.29 0 0.29 0 0.29 0 0.29 0 0.29 0 0.29 0 0.29 0 0.29 0 0 0 0.29 0 0.29 0 0.29 0 0.29 0 0.29 0 0.29 0 0.29 0 0.29 0 0.29 0 0.29 0 0.29 0 0.29 0 0.29 0 0 0 0.29 0 0.29 0 0.29 0 0.29 0 0.29 0 0.29 0 -0.29 0 0zm0 0.57l-0.29 0 0 -0.29 0.29 0.29zm44.76 -0.29l0 0 0 0 0 0 -0.29 0 0.29 0zm0.29 0l0 0.29 -0.29 0 0.29 -0.29zm-0.29 -8.37l0 -0.58 0.29 0.29 0 0.29 0 0.29 0 0.29 0 0.29 0 0.29 0 0.29 0 0.29 0 0.29 0 0.29 0 0.29 0 0 0 0.29 0 0.29 0 0.29 0 0.29 0 0.29 0 0.29 0 0.29 0 0.29 0 0.29 0 0.29 0 0.29 0 0.29 0 0.29 0 0 0 0.29 0 0.29 0 0.29 0 0.29 0 0.29 0 0.29 0 0.29 -0.58 0 0 -0.29 0 -0.29 0 -0.29 0 -0.29 0 -0.29 0 -0.29 0 -0.29 0 0 0 -0.29 0 -0.29 0 -0.29 0 -0.29 0 -0.29 0 -0.29 0 -0.29 0 -0.29 0 -0.29 0 -0.29 0 -0.29 0 -0.29 0 -0.29 0 0 0 -0.29 0 -0.29 0 -0.29 0 -0.29 0 -0.29 0 -0.29 0 -0.29 0 -0.29 0 -0.29 0 -0.29 0.29 0.29 0 0zm0 -0.58l0.29 0 0 0.29 -0.29 -0.29zm-2.6 0.29l-0.57 0 0.29 -0.29 0 0 0.29 0 0 0 0 0 0 0 0.29 0 0 0 0 0 0.29 0 0 0 0 0 0.29 0 0 0 0 0 0.29 0 0 0 0 0 0.29 0 0 0 0 0 0.29 0 0 0 0 0 0.29 0 0 0 0 0 0.29 0 0 0 0 0 0.29 0 0 0 0 0 0 0.58 0 0 0 0 -0.29 0 0 0 0 0 -0.29 0 0 0 0 0 -0.29 0 0 0 0 0 -0.29 0 0 0 0 0 -0.29 0 0 0 0 0 -0.29 0 0 0 0 0 -0.29 0 0 0 0 0 -0.29 0 0 0 0 0 -0.29 0 0 0 0 0 0 0 -0.29 0 0 0 0.29 -0.29 0 0zm-0.57 0l0 -0.29 0.29 0 -0.29 0.29zm0.29 8.37l0 0.57 -0.29 -0.29 0 -0.29 0 -0.29 0 -0.29 0 -0.29 0 -0.29 0 -0.29 0 0 0 -0.29 0 -0.29 0 -0.29 0 -0.29 0 -0.29 0 -0.29 0 -0.29 0 -0.29 0 -0.29 0 -0.29 0 -0.29 0 -0.29 0 -0.29 0 0 0 -0.29 0 -0.29 0 -0.29 0 -0.29 0 -0.29 0 -0.29 0 -0.29 0 -0.29 0 -0.29 0 -0.29 0 -0.29 0.58 0 0 0.29 0 0.29 0 0.29 0 0.29 0 0.29 0 0.29 0 0.29 0 0.29 0 0.29 0 0.29 0 0.29 0 0 0 0.29 0 0.29 0 0.29 0 0.29 0 0.29 0 0.29 0 0.29 0 0.29 0 0.29 0 0.29 0 0.29 0 0.29 0 0.29 0 0 0 0.29 0 0.29 0 0.29 0 0.29 0 0.29 0 0.29 -0.29 -0.29 0 0zm0 0.57l-0.29 0 0 -0.29 0.29 0.29zm2.6 -0.29l0.58 0 -0.29 0.29 0 0 0 0 -0.29 0 0 0 0 0 -0.29 0 0 0 0 0 -0.29 0 0 0 0 0 -0.29 0 0 0 0 0 -0.29 0 0 0 0 0 -0.29 0 0 0 0 0 -0.29 0 0 0 0 0 0 0 -0.29 0 0 0 0 0 -0.29 0 0 0 0 0 -0.29 0 0 0 0 -0.58 0 0 0.29 0 0 0 0 0 0.29 0 0 0 0 0 0.29 0 0 0 0 0 0 0 0.29 0 0 0 0 0 0.29 0 0 0 0 0 0.29 0 0 0 0 0 0.29 0 0 0 0 0 0.29 0 0 0 0 0 0.29 0 0 0 0 0 0.29 0 0 0 0 0 -0.29 0.29 0 0zm0.58 0l0 0.29 -0.29 0 0.29 -0.29z"/>
    </g>
    <g>
     <path class="fil1" d="M66.46 22c7.22,0 12.99,8.08 10.97,16.17 -0.29,1.15 0,1.73 0.87,2.6 0.87,0.58 1.73,1.44 2.6,2.31 1.15,1.16 1.73,2.6 1.15,4.33 -0.29,1.44 -1.15,2.31 -2.31,2.6 -1.44,0.57 -2.89,0 -3.76,-1.44 -0.57,-1.15 -1.44,-2.02 -2.02,-3.18 -0.58,-0.58 -1.15,-0.87 -2.02,-0.58 -2.89,0.87 -5.2,0.29 -7.8,-0.87 -0.29,-0.29 -0.87,-0.29 -1.15,0 -2.02,1.16 -4.33,0.58 -5.78,-1.44 -1.44,-2.02 -1.15,-4.62 0.29,-6.64 0.29,-0.29 0.29,-1.15 0.29,-1.44 -1.15,-6.64 2.6,-12.41 8.66,-12.41zm-6.35 12.13l0 0c3.75,0 5.77,3.18 4.91,7.22 0.87,0.87 1.44,0.87 2.02,0 2.6,-3.18 4.91,-6.07 7.5,-8.95 0.58,-0.58 0.58,-0.87 0.29,-1.44 -1.44,-3.76 -4.04,-5.78 -7.51,-6.64 -4.91,-0.87 -8.95,4.33 -7.22,9.81l0 0zm8.95 8.66l0 0c0.87,-0.29 1.44,-0.29 2.31,-0.58 1.73,-0.57 3.17,0 4.04,1.74 0.87,0.87 1.44,2.02 2.31,2.89 0.58,1.15 1.44,1.15 2.02,0.58 0.57,-0.58 0.57,-1.73 -0.29,-2.6 -0.87,-0.58 -1.73,-1.44 -2.6,-2.02 -1.44,-1.44 -2.02,-3.18 -1.44,-5.49 0.29,-0.58 0.29,-1.44 0.29,-2.31 -2.31,2.6 -4.33,5.2 -6.64,7.8l0 -0zm-8.37 -6.06l0 0c-1.15,0 -2.31,1.16 -2.31,2.6 0,1.44 1.15,2.89 2.31,2.89 1.44,0 2.31,-1.44 2.31,-2.89 0.29,-1.44 -0.87,-2.6 -2.31,-2.6z"/>
     <path id="_1_81" class="fil1" d="M77.72 38.17l-0.58 0 0 0 0.29 -0.87 0 -0.58 0.29 -0.87 0 -0.58 0 -0.87 -0.29 -0.58 0 -0.87 0 -0.58 -0.29 -0.87 -0.29 -0.58 0 -0.57 -0.29 -0.87 -0.29 -0.58 -0.29 -0.58 -0.57 -0.58 -0.29 -0.58 -0.29 -0.58 -0.58 -0.57 -0.29 -0.58 -0.58 -0.29 -0.58 -0.58 -0.29 -0.29 -0.58 -0.58 -0.58 -0.29 -0.57 -0.29 -0.58 -0.29 -0.58 -0.29 -0.58 0 -0.87 -0.29 -0.58 0 -0.58 -0.29 -0.57 0 0 -0.29 0.57 0 0.58 0 0.87 0 0.58 0.29 0.58 0.29 0.58 0.29 0.58 0.29 0.57 0.29 0.58 0.29 0.58 0.29 0.58 0.58 0.58 0.29 0.57 0.58 0.29 0.57 0.58 0.58 0.29 0.58 0.58 0.58 0.29 0.58 0.29 0.57 0.29 0.87 0.29 0.57 0.29 0.58 0 0.87 0.29 0.58 0.29 0.87 0 0.58 0 0.87 0 0.87 0 0.58 0 0.87 -0.29 0.87 0 0.58 0 0zm0.58 2.31l-0.29 0.29 0 0 0 0 0 0 -0.29 0 0 -0.29 0 0 0 0 0 0 -0.29 -0.29 0 0 0 0 0 0 0 -0.29 0 0 0 0 -0.29 -0.29 0 0 0 0 0 0 0 -0.29 0 0 0 0 0 -0.29 0 0 0 0 0 -0.29 0 0 0 0 0 -0.29 0 0 0 0 0 -0.29 0 0 0.58 0 0 0.29 0 0 0 0 0 0.29 0 0 0 0 0 0 0 0.29 0 0 0 0 0 0 0 0.29 0 0 0 0 0 0 0 0.29 0 0 0 0 0 0 0 0.29 0 0 0 0 0 0 0.29 0 0 0.29 0 0 0 0 0 0 0 0 0.29 0.29 0 0 0 0 0 0 0 0zm-0.29 0.29l0 0 0 0 0 0zm2.89 2.02l-0.29 0.58 0 0 0 -0.29 0 0 -0.29 0 0 0 0 -0.29 0 0 -0.29 0 0 0 0 -0.29 -0.29 0 0 0 0 -0.29 0 0 -0.29 0 0 0 0 -0.29 -0.29 0 0 0 0 0 0 -0.29 -0.29 0 0 0 0 0 -0.29 -0.29 0 0 0 0 0 0 -0.29 -0.29 0 0 0 0 -0.29 0 0 -0.29 0.29 -0.29 0 0 0.29 0 0 0.29 0 0 0 0 0.29 0.29 0 0 0 0 0.29 0 0 0.29 0 0 0 0 0.29 0 0 0.29 0 0 0.29 0 0 0 0 0.29 0 0 0.29 0 0 0 0 0.29 0.29 0 0 0 0 0 0.29 0.29 0 0 0 0 0 0.29 0.29 0 0 0 0 0 0 0 0 -0zm1.44 4.62l-0.29 0 0 0 0 -0.29 0 0 0 -0.29 0 0 0 -0.29 0 0 0 -0.29 0 0 0 -0.29 0 0 0 -0.29 0 0 0 -0.29 0 0 0 -0.29 0 0 -0.29 0 0 -0.29 0 0 0 -0.29 0 0 -0.29 -0.29 0 0 0 0 0 -0.29 -0.29 0 0 -0.29 0 0 -0.29 0 0 -0.29 0 0 -0.29 0 0.29 -0.58 0.29 0.29 0 0 0 0 0.29 0.29 0 0 0 0.29 0.29 0 0 0.29 0 0 0.29 0.29 0 0 0 0 0 0.29 0.29 0 0 0.29 0 0 0 0.29 0 0 0 0.29 0 0 0 0.29 0.29 0.29 0 0 0 0.29 0 0 0 0.29 0 0 0 0.29 -0.29 0 0 0.29 0 0.29 0 0 0 0 0 0zm-2.6 2.89l0 -0.29 0 0 0 0 0.29 -0.29 0 0 0 0 0.29 0 0 0 0 0 0.29 0 0 -0.29 0 0 0.29 0 0 0 0 -0.29 0 0 0.29 0 0 0 0 -0.29 0 0 0.29 0 0 -0.29 0 0 0 0 0.29 -0.29 0 0 0 0 0 -0.29 0 0 0 0 0 -0.29 0.29 0 0 -0.29 0 0 0.29 0 0 0.29 0 0 0 0.29 0 0 0 0.29 -0.29 0 0 0 0 0.29 0 0 0 0.29 -0.29 0 0 0 0 0.29 0 0 -0.29 0.29 0 0 0 0 -0.29 0 0 0.29 0 0 -0.29 0 0 0.29 0 0 -0.29 0 0 0 0 0 -0.29 0.29 0 0 -0.29 0 0 0 0 0 -0.29 0 0 0zm-4.04 -1.73l0.58 -0.29 0 0 0 0.29 0 0 0.29 0.29 0 0 0 0 0 0.29 0.29 0 0 0 0 0.29 0.29 0 0 0 0.29 0 0 0.29 0 0 0.29 0 0 0 0 0 0.29 0.29 0 0 0.29 0 0 0 0 0 0.29 0 0 0 0.29 0 0 0 0.29 0 0 0 0 0 0.29 0 0 0 0.29 0 0 0.29 0 0 -0.29 0.29 0 0 -0.29 0 0 0 -0.29 0 0 0 -0.29 0 0 0 -0.29 0 0 0 -0.29 -0.29 0 0 -0.29 0 0 0 -0.29 0 0 0 0 -0.29 -0.29 0 0 0 -0.29 0 0 -0.29 0 0 -0.29 0 0 -0.29 -0.29 0 0 -0.29 0 0 -0.29 0 0 -0.29 0 0 -0.29 -0.29 0 0 0 0zm-2.02 -2.89l0.58 -0.29 0 0 0 0 0 0.29 0 0 0 0 0.29 0.29 0 0 0 0 0 0.29 0.29 0 0 0 0 0 0 0.29 0 0 0.29 0 0 0.29 0 0 0 0 0.29 0.29 0 0 0 0 0 0.29 0 0 0.29 0 0 0.29 0 0 0 0 0.29 0.29 0 0 0 0 0 0.29 0 0 0.29 0 -0.58 0.29 0 0 0 0 0 -0.29 0 0 -0.29 0 0 -0.29 0 0 0 0 -0.29 -0.29 0 0 0 0 0 -0.29 0 0 -0.29 0 0 -0.29 0 0 0 0 -0.29 -0.29 0 0 0 0 0 0 0 -0.29 -0.29 0 0 0 0 -0.29 0 0 -0.29 0 0 -0.29 0 0 0 0 0 -0.29 -0.29 0 0 0zm-1.73 -0.87l-0.29 -0.29 0 0 0.29 0 0 0 0 0 0.29 -0.29 0 0 0 0 0 0 0.29 0 0 0 0 0 0.29 0 0 0 0 0 0 0.29 0.29 0 0 0 0 0 0 0 0.29 0 0 0 0 0 0 0.29 0.29 0 0 0 0 0 0 0 0.29 0.29 0 0 0 0 0 0 0 0.29 0.29 0 -0.58 0.29 0 0 0 -0.29 0 0 0 0 0 0 -0.29 0 0 -0.29 0 0 0 0 0 0 -0.29 0 0 0 0 0 0 -0.29 0 0 -0.29 0 0 0 0 0 0 0 0 0 -0.29 0 0 0 0 0 0 0 0 0 -0.29 0 0 0 0 0 0 0 -0.29 0 0 0 0 0 0 0 0 0zm-7.8 -0.87l0.29 -0.29 0 0 0 0 0.29 0.29 0.29 0 0.29 0 0.29 0.29 0 0 0.29 0 0.29 0.29 0.29 0 0 0 0.29 0 0.29 0.29 0.29 0 0.29 0 0 0 0.29 0 0.29 0 0.29 0 0.29 0 0 0 0.29 0 0.29 0 0.29 0 0.29 0 0.29 0 0 0 0.29 0 0.29 0 0.29 -0.29 0.29 0 0 0 0.29 0 0.29 0.29 -0.29 0.29 -0.29 0 -0.29 0 -0.29 0 -0.29 0 0 0.29 -0.29 0 -0.29 0 -0.29 0 -0.29 0 -0.29 0 -0.29 0 0 0 -0.29 0 -0.29 0 -0.29 0 -0.29 0 -0.29 -0.29 0 0 -0.29 0 -0.29 0 -0.29 0 -0.29 -0.29 -0.29 0 0 0 -0.29 0 -0.29 -0.29 -0.29 0 -0.29 0 0 -0.29 -0.29 0 -0.29 -0.29 0 0zm-1.15 0l-0.29 -0.29 0 0 0 0 0.29 0 0 0 0 0 0 -0.29 0 0 0.29 0 0 0 0 0 0 0 0 0 0 0 0.29 0 0 0 0 0 0 0 0 0 0 0 0.29 0 0 0 0 0 0 0 0 0 0 0 0 0 0.29 0 0 0 0 0 0 0.29 0 0 0 0 0.29 0 -0.29 0.29 0 0 0 0 0 0 -0.29 0 0 0 0 0 0 0 0 0 0 0 0 0 0 0 -0.29 0 0 0 0 0 0 0 0 0 0 0 0 0 0 0 0 0 -0.29 0 0 0 0 0 0 0 0 0 0 0 0 0 0 0 -0.29 0 0 0 0 0 0 0 0 0zm0 0l0 0 -0.87 0.57 0.87 -0.57zm-5.78 -1.16l0.29 -0.29 0 0 0 0 0.29 0.29 0 0 0.29 0.29 0 0 0.29 0.29 0 0 0.29 0.29 0 0 0.29 0 0 0.29 0.29 0 0 0 0.29 0 0.29 0.29 0 0 0.29 0 0 0 0.29 0 0.29 0 0 0 0.29 0 0.29 0 0 0 0.29 0 0.29 0 0 -0.29 0.29 0 0 0 0.29 0 0.29 -0.29 0 0 0.29 0.29 -0.29 0.29 0 0 -0.29 0 -0.29 0.29 0 0 -0.29 0 -0.29 0 0 0.29 -0.29 0 -0.29 0 -0.29 0 0 0 -0.29 0 -0.29 0 0 0 -0.29 -0.29 -0.29 0 0 0 -0.29 0 -0.29 0 0 -0.29 -0.29 0 -0.29 0 0 -0.29 -0.29 0 0 -0.29 -0.29 0 0 -0.29 -0.29 0 0 -0.29 -0.29 -0.29 0 0 0 0zm0 -6.93l0.29 0.29 0 0 0 0 -0.29 0.29 0 0.29 0 0 -0.29 0.29 0 0.29 0 0 -0.29 0.29 0 0.29 0 0.29 0 0 0 0.29 0 0.29 0 0 -0.29 0.29 0 0.29 0 0.29 0 0 0.29 0.29 0 0.29 0 0 0 0.29 0 0.29 0 0 0 0.29 0.29 0.29 0 0.29 0 0 0.29 0.29 0 0 0 0.29 0.29 0.29 -0.29 0.29 -0.29 -0.29 0 -0.29 -0.29 0 0 -0.29 0 -0.29 -0.29 0 0 -0.29 0 -0.29 0 -0.29 -0.29 -0.29 0 0 0 -0.29 0 -0.29 0 -0.29 0 0 0 -0.29 0 -0.29 0 -0.29 0 -0.29 0 0 0 -0.29 0.29 -0.29 0 -0.29 0 0 0 -0.29 0.29 -0.29 0 -0.29 0 0 0.29 -0.29 0 -0.29 0.29 -0.29 0 0 0 0zm0 0l0 0 0 0 0 0zm0.29 -1.44l0.57 0 0 0 0 0 0 0 0 0 0 0 0 0.29 0 0 0 0 0 0 0 0 0 0.29 0 0 0 0 0 0 -0.29 0 0 0.29 0 0 0 0 0 0 0 0 0 0.29 0 0 0 0 0 0 0 0 0 0.29 0 0 0 0 0 0 -0.29 0 0 0 0 0.29 0 0 -0.29 -0.29 0 0 0 0 0 -0.29 0 0 0 0 0 0 0.29 0 0 0 0 0 0 -0.29 0 0 0 0 0 0 0 0 0 0 0 -0.29 0 0 0 0 0 0 0 0 0 0 0 -0.29 0 0 0 0 0 0 0 0 0 0 0 0 0 -0.29 0 0 0 0 0 0 0 0 0 0zm0.57 0l0 0 -0.29 -0.29 0.29 0.29zm8.37 -12.7l0 0.29 0 0 -0.58 0 -0.58 0.29 -0.57 0 -0.58 0 -0.29 0.29 -0.58 0 -0.29 0.29 -0.58 0.29 -0.29 0.29 -0.57 0.29 -0.29 0.29 -0.29 0.29 -0.58 0.29 -0.29 0.29 -0.29 0.58 -0.29 0.29 -0.29 0.29 -0.29 0.58 0 0.57 -0.29 0.29 -0.29 0.58 0 0.57 -0.29 0.58 0 0.29 -0.29 0.58 0 0.58 0 0.58 0 0.58 0 0.57 0 0.58 0 0.87 0.29 0.58 -0.58 0 0 -0.58 0 -0.57 -0.29 -0.87 0 -0.57 0 -0.58 0.29 -0.58 0 -0.58 0 -0.58 0.29 -0.57 0 -0.58 0.29 -0.58 0 -0.29 0.29 -0.58 0.29 -0.58 0.29 -0.29 0.29 -0.58 0.29 -0.58 0.29 -0.29 0.29 -0.29 0.58 -0.58 0.29 -0.29 0.58 -0.29 0.29 -0.29 0.58 -0.29 0.29 0 0.58 -0.29 0.29 -0.29 0.58 0 0.58 -0.29 0.57 0 0.58 0 0.58 0 0 0 0 0zm-6.35 12.41l0 0 0 0 0 0 0 -0.29 0 0.29zm0 0.29l-0.29 0 0 -0.29 0.29 0.29zm4.91 6.93l-0.29 0.29 0 -0.29 0.29 -0.29 0 -0.29 0 -0.58 0 -0.29 0 -0.29 0 -0.29 0 -0.29 0 -0.58 0 -0.29 0 -0.29 -0.29 -0.29 0 -0.29 0 -0.29 -0.29 -0.29 0 0 -0.29 -0.29 0 -0.29 -0.29 -0.29 -0.29 -0.29 0 0 -0.29 -0.29 -0.29 0 -0.29 -0.29 -0.29 0 -0.29 -0.29 -0.29 0 -0.29 0 -0.29 -0.29 -0.29 0 -0.29 0 -0.29 0 -0.29 0 0 -0.58 0.29 0 0.29 0 0.29 0 0.58 0.29 0.29 0 0.29 0 0.29 0.29 0.29 0 0.29 0.29 0.29 0 0.29 0.29 0 0.29 0.29 0 0.29 0.29 0.29 0.29 0 0.29 0.29 0.29 0 0.29 0.29 0.29 0 0.29 0.29 0.29 0 0.29 0 0.29 0 0.29 0 0.29 0.29 0.58 0 0.29 -0.29 0.29 0 0.58 0 0.29 0 0.29 0 0.58 -0.29 -0.29 0 0zm-0.29 0.29l0 0 0 -0.29 0 0.29zm2.02 -0.58l0.58 0.29 0 0 -0.29 0 0 0.29 0 0 0 0 -0.29 0 0 0.29 0 0 0 0 -0.29 0 0 0 0 0.29 0 0 -0.29 0 0 0 0 0 0 0 -0.29 0 0 0 0 0 0 0 -0.29 0 0 0 0 0 -0.29 0 0 -0.29 0 0 0 0 -0.29 0 0 0 0 -0.29 0 0 -0.29 0 0.29 -0.29 0.29 0 0 0 0 0 0 0.29 0 0 0.29 0 0 0 0 0 0 0 0 0 0.29 0 0 0 0 0 0 0 0 0 0 0 0.29 0 0 0 0 0 0 0 0 0 0 0 0.29 0 0 0 0 0 0 -0.29 0 0 0.29 0 0 0 0 0 0 -0.29 0 0 0 0 -0 0zm7.8 -8.66l0.29 0.29 0 0 -0.29 0.29 -0.29 0.29 -0.29 0.29 0 0.29 -0.29 0.29 -0.29 0.29 -0.29 0.29 -0.29 0 -0.29 0.29 0 0.29 -0.29 0.29 -0.29 0.29 -0.29 0.29 -0.29 0.29 -0.29 0.29 0 0.29 -0.29 0.29 -0.29 0.29 -0.29 0.29 -0.29 0.29 -0.29 0.29 0 0.29 -0.29 0.29 -0.29 0.29 -0.29 0.29 -0.29 0 0 0.29 -0.29 0.29 -0.29 0.29 -0.29 0.29 -0.29 0.29 0 0.29 -0.58 -0.29 0.29 -0.29 0.29 -0.29 0.29 -0.29 0.29 -0.29 0.29 -0.29 0 -0.29 0.29 -0.29 0.29 -0.29 0.29 -0.29 0.29 -0.29 0 0 0.29 -0.29 0.29 -0.29 0.29 -0.29 0.29 -0.29 0.29 -0.29 0 -0.29 0.29 -0.29 0.29 -0.29 0.29 -0.29 0.29 -0.29 0.29 -0.29 0 -0.29 0.29 -0.29 0.29 -0.29 0.29 -0.29 0.29 -0.29 0.29 0 0 -0.29 0.29 -0.29 0.29 -0.29 0.29 -0.29 0 0 0 0zm0.29 -1.44l0.29 -0.29 0 0 0 0 0 0.29 0 0 0 0 0 0 0 0.29 0 0 0 0 0 0 0.29 0 0 0.29 0 0 0 0 0 0 0 0.29 0 0 0 0 -0.29 0 0 0 0 0.29 0 0 0 0 0 0 0 0 0 0.29 0 0 0 0 0 0 -0.29 0 0 0.29 0 0 0 0 -0.29 -0.29 0 0 0 -0.29 0 0 0 0 0 0 0.29 0 0 0 0 0 0 -0.29 0 0 0 0 0 0 0 0 0 0 0 0 0 0 0 -0.29 0 0 0 0 0 0 0 0 0 0 0 0 0 -0.29 0 0 0 0 0 0 0 0 0 0 0 -0.29 0 0 0 0 0 0zm-7.51 -6.35l0.29 -0.29 0 0 0.29 0 0.29 0 0.29 0 0.29 0.29 0.29 0 0.29 0 0.29 0.29 0.29 0 0.29 0.29 0.29 0 0.29 0.29 0.29 0 0.29 0.29 0.29 0.29 0 0 0.29 0.29 0.29 0.29 0.29 0.29 0.29 0 0 0.29 0.29 0.29 0.29 0.29 0 0.29 0.29 0.29 0.29 0.29 0 0.29 0.29 0.29 0.29 0.29 0 0.29 0.29 0.29 0 0.29 0.29 0.29 -0.29 0.29 -0.29 -0.29 0 -0.29 -0.29 -0.29 -0.29 -0.29 0 -0.29 -0.29 -0.29 0 -0.29 -0.29 -0.29 -0.29 -0.29 0 -0.29 -0.29 -0.29 -0.29 -0.29 0 0 -0.29 -0.29 -0.29 -0.29 -0.29 -0.29 0 0 -0.29 -0.29 -0.29 -0.29 -0.29 0 -0.29 -0.29 -0.29 0 -0.29 -0.29 -0.29 0 0 -0.29 -0.29 0 -0.29 0 -0.29 -0.29 -0.29 0 -0.58 0 -0.29 -0.29 -0.29 0 0 0 0 0zm-7.22 9.24l0 0.58 -0.29 -0.29 -0.29 -0.29 0 -0.58 0 -0.58 0 -0.57 0 -0.58 0 -0.29 0 -0.58 0 -0.58 0.29 -0.29 0 -0.58 0.29 -0.58 0 -0.29 0.29 -0.29 0.29 -0.58 0.29 -0.29 0 -0.57 0.29 -0.29 0.29 -0.29 0.58 -0.29 0.29 -0.29 0.29 -0.29 0.29 -0.29 0.57 -0.29 0.29 0 0.29 -0.29 0.58 0 0.29 -0.29 0.58 0 0.58 0 0.29 0 0.58 0 0.57 0.29 -0.29 0.29 -0.29 0 -0.58 0 -0.29 0 -0.58 0 -0.29 0 -0.58 0 -0.29 0.29 -0.29 0 -0.57 0.29 -0.29 0.29 -0.29 0 -0.29 0.29 -0.29 0.29 -0.58 0.29 -0.29 0.29 0 0.57 -0.29 0.29 -0.29 0.29 -0.29 0.29 -0.29 0.58 0 0.29 -0.29 0.58 0 0.29 0 0.58 -0.29 0.29 0 0.58 0 0.29 0 0.57 0 0.58 0.29 0.29 0 0.58 0 0.58 0 -0.29 0 0zm0 0.58l-0.29 0 0 -0.29 0.29 0.29zm8.95 8.37l0 0 0 0 0 0 0 -0.29 0 0.29zm0 0.29l-0.87 0 0.58 -0.57 0.29 0.57zm2.31 -0.86l0 0.29 0 0 0 0 -0.29 0 0 0 0 0 0 0.29 -0.29 0 0 0 0 0 0 0 0 0 -0.29 0 0 0 0 0 0 0 -0.29 0 0 0 0 0 0 0 -0.29 0 0 0 0 0 -0.29 0 0 0 0 0 0 0 -0.29 0.29 0 0 0 0 0 0 -0.29 0 0 0 0 0 0 -0.57 0 0 0 0 0 0 0.29 0 0 0 0 0 0 0 0.29 0 0 0 0 0 0.29 0 0 0 0 0 0 0 0.29 -0.29 0 0 0 0 0 0 0.29 0 0 0 0 0 0 0 0 0 0.29 0 0 0 0 0 0 0 0.29 0 0 0 0 0 0 0 0.29 0 0 0 0 0zm4.33 1.44l-0.29 0.29 0 0 0 0 -0.29 -0.29 0 0 -0.29 0 0 -0.29 0 0 -0.29 -0.29 0 0 0 0 -0.29 -0.29 0 0 -0.29 0 0 0 0 0 -0.29 -0.29 0 0 -0.29 0 0 0 -0.29 0 0 0 -0.29 0 0 0 0 0 -0.29 0 0 0 -0.29 0 0 0 -0.29 0 0 0 -0.29 0 -0.29 0 0 0 0 -0.29 0 -0.29 0.29 0 0 0 0.29 0 0 0 0.29 0 0 0 0.29 0 0.29 0 0 0 0.29 0 0 0 0.29 0 0 0 0.29 0 0 0.29 0.29 0 0 0 0.29 0 0 0 0 0.29 0.29 0 0 0 0.29 0.29 0 0 0.29 0.29 0 0 0 0 0.29 0.29 0 0 0.29 0.29 0 0 0 0zm2.02 3.18l-0.29 0.29 0 0 0 0 0 -0.29 0 0 -0.29 0 0 -0.29 0 0 0 0 -0.29 -0.29 0 0 0 0 0 -0.29 -0.29 0 0 0 0 -0.29 0 0 0 0 -0.29 -0.29 0 0 0 0 0 -0.29 -0.29 0 0 0 0 -0.29 0 0 0 0 -0.29 -0.29 0 0 0 0 0 -0.29 -0.29 0 0 0 0 -0.29 0.29 -0.29 0 0.29 0.29 0 0 0 0 0.29 0 0 0 0 0.29 0.29 0 0 0 0 0 0.29 0.29 0 0 0 0 0.29 0 0 0 0 0.29 0.29 0 0 0 0 0 0.29 0.29 0 0 0 0 0.29 0 0 0.29 0 0 0.29 0 0 0 0 0 0.29 0.29 0 0 0 0 0.29 0 0 0 0zm2.02 0.29l0.29 0.29 0 0 0 0.29 -0.29 0 0 0 0 0 0 0.29 -0.29 0 0 0 0 0 0 0 -0.29 0 0 0 0 0 -0.29 0 0 0 0 0 0 0 -0.29 0 0 0 0 0 -0.29 0 0 0 0 -0.29 0 0 -0.29 0 0 0 0 0 -0.29 -0.29 0 0 0 0 0 0 -0.29 -0.29 0 0 0.29 -0.29 0.29 0 0 0 0 0.29 0 0 0 0 0.29 0 0 0.29 0 0 0 0 0.29 0 0 0 0 0 0 0 0 0 0.29 0 0 0.29 0 0 0 0 0 0 0.29 0 0 0 0 -0.29 0 0 0 0 0.29 0 0 0 0 0 0 0 0 0 0 0 0.29 0 0 -0.29 0 0zm-0.29 -2.02l0.29 -0.29 0 0 0 0 0 0 0 0.29 0.29 0 0 0 0 0.29 0 0 0 0 0 0 0.29 0.29 0 0 0 0 0 0.29 0 0 0 0 0 0.29 0 0 0 0 0 0.29 0 0 0 0 0 0.29 0 0 0 0 0 0.29 0 0 0 0 0 0 -0.29 0.29 0 0 0 0 0 0 -0.29 -0.29 0 0 0 0 0 0 0 0 0 -0.29 0.29 0 0 0 0 0 0 0 0 -0.29 0 0 0 0 0 0 0 -0.29 0 0 0 0 0 0 0 -0.29 0 0 0 0 -0.29 0 0 0 0 -0.29 0 0 0 0 0 0 0 -0.29 -0.29 0 0 0 0 0 0 -0.29 0 0 0 0zm-2.6 -2.31l0.29 -0.29 0 0 0 0 0 0 0.29 0.29 0 0 0 0 0 0 0.29 0.29 0 0 0 0 0.29 0 0 0.29 0 0 0 0 0.29 0 0 0.29 0 0 0 0 0.29 0 0 0.29 0 0 0.29 0 0 0 0 0.29 0 0 0.29 0 0 0 0 0.29 0 0 0.29 0 0 0 0 0.29 0.29 0 -0.29 0.29 -0.29 0 0 0 0 -0.29 0 0 -0.29 0 0 0 0 -0.29 -0.29 0 0 0 0 0 0 -0.29 -0.29 0 0 0 0 0 0 -0.29 -0.29 0 0 0 0 0 0 -0.29 -0.29 0 0 0 0 0 -0.29 -0.29 0 0 0 0 0 0 -0.29 0 0 -0.29 0 0 -0.29 0 0 0 0 -0.29 0 0zm-1.73 -5.48l0.58 0.29 0 0 0 0 -0.29 0.29 0 0.29 0 0 0 0.29 0 0.29 0 0 0 0.29 0 0 0 0.29 0 0.29 0 0 0 0.29 0 0 0.29 0.29 0 0 0 0.29 0 0 0 0.29 0 0 0.29 0.29 0 0 0 0.29 0.29 0 0 0.29 0 0 0.29 0.29 0 0 0 0.29 0.29 0 0 0.29 0.29 0 -0.29 0.29 -0.29 0 0 -0.29 -0.29 0 0 -0.29 0 0 -0.29 -0.29 0 0 -0.29 -0.29 0 0 0 -0.29 -0.29 0 0 -0.29 0 0 0 -0.29 0 -0.29 -0.29 0 0 -0.29 0 0 0 -0.29 0 -0.29 0 0 0 -0.29 0 -0.29 0 0 0 -0.29 0 -0.29 0 0 0 -0.29 0 -0.29 0 0 0 -0.29 0 -0.29 0 0 -0 0zm0.87 -2.02l-0.29 -0.57 0.29 0.29 0 0 0 0.29 0 0 0 0 0 0 0 0.29 0 0 0 0 0 0.29 0 0 0 0 0 0 0 0.29 0 0 0 0 -0.29 0 0 0.29 0 0 0 0 0 0 0 0.29 0 0 0 0 0 0.29 0 0 0 0 0 0 0 0.29 0 0 0 0 0 0 0 0.29 -0.58 -0.29 0 0 0 0 0.29 -0.29 0 0 0 0 0 0 0 -0.29 0 0 0 0 0 0 0 -0.29 0 0 0 0 0 0 0 -0.29 0 0 0 0 0 0 0 -0.29 0 0 0 0 0 0 0 -0.29 0 0 0 0 0 -0.29 0 0 0 0 0 0 0 -0.29 0.29 0 0 0 0.29 0.29 0 0zm-0.29 -0.57l0.29 -0.29 0 0.57 -0.29 -0.29 0 0zm-6.64 7.8l0 0.58 -0.29 -0.58 0.29 0 0.29 -0.29 0 -0.29 0.29 -0.29 0.29 -0.29 0.29 -0.29 0 -0.29 0.29 0 0.29 -0.29 0.29 -0.29 0 -0.29 0.29 -0.29 0.29 -0.29 0.29 -0.29 0 0 0.29 -0.29 0.29 -0.29 0 -0.29 0.29 -0.29 0.29 -0.29 0.29 0 0 -0.29 0.29 -0.29 0.29 -0.29 0.29 -0.29 0 -0.29 0.29 0 0.29 -0.29 0.29 -0.29 0 -0.29 0.29 -0.29 0.29 -0.29 0.29 0.58 -0.29 0 -0.29 0.29 0 0.29 -0.29 0.29 -0.29 0.29 -0.29 0.29 0 0 -0.29 0.29 -0.29 0.29 -0.29 0.29 0 0.29 -0.29 0.29 -0.29 0 -0.29 0.29 0 0.29 -0.29 0.29 -0.29 0.29 0 0.29 -0.29 0 -0.29 0.29 -0.29 0.29 0 0.29 -0.29 0.29 -0.29 0.29 -0.29 0.29 0 0 -0.29 0.29 -0.29 0.29 -0.29 0.29 0 0.29 -0.29 0.29 -0.29 0.29 0 -0.58zm0 0.57l-0.87 0 0.58 -0.57 0.29 0.57zm-8.37 -6.35l0 0 0 0 0 0 0 0.29 0 -0.29zm-2.02 2.6l-0.58 0 0 0 0 0 0 -0.29 0 0 0.29 -0.29 0 0 0 -0.29 0 0 0 -0.29 0 0 0 -0.29 0.29 0 0 -0.29 0 0 0 0 0.29 -0.29 0 0 0 0 0.29 -0.29 0 0 0 0 0.29 -0.29 0 0 0 0 0.29 0 0 0 0.29 -0.29 0 0 0.29 0 0 0 0 0 0.29 0 0 0 0 0.57 0 0 0 0 -0.29 0 0 0 -0.29 0 0 0 0 0 -0.29 0 0 0 0 0.29 -0.29 0 0 0 0 0 0 0.29 -0.29 0 0 0 0 0 0 0.29 -0.29 0 0 0 0 0.29 0 0 0 0 -0.29 0.29 0 0 0 0.29 0 0 0 0 0 0.29 0 0 0 0.29 0 0 0 0 0 -0zm2.02 2.6l0 0.29 0 0 0 0 -0.29 0 0 0 0 0 -0.29 0 0 0 -0.29 0 0 0 0 -0.29 -0.29 0 0 0 -0.29 0 0 -0.29 0 0 -0.29 0 0 -0.29 0 0 -0.29 0 0 -0.29 0 0 0 -0.29 -0.29 0 0 0 0 -0.29 0 0 0 -0.29 0 0 0 -0.29 -0.29 0 0 -0.29 0 0 0 -0.29 0.58 0 0 0.29 0 0 0 0 0 0.29 0 0 0 0.29 0 0 0 0 0.29 0.29 0 0 0 0.29 0 0 0 0 0.29 0.29 0 0 0 0 0 0 0.29 0.29 0 0 0 0 0.29 0 0 0.29 0 0 0.29 0 0 0 0 0 0.29 0 0 0.29 0 0 0.29 0 0 0 0 0 0 0 -0 0zm0 0.29l0 0 0 0 0 0zm2.31 -2.89l0.29 0 0 0 0 0.29 0 0 0 0.29 0 0 0 0.29 0 0 0 0.29 -0.29 0 0 0.29 0 0 0 0.29 0 0 -0.29 0 0 0.29 0 0 0 0 -0.29 0.29 0 0 0 0 -0.29 0.29 0 0 -0.29 0 0 0 0 0.29 -0.29 0 0 0 0 0 -0.29 0 0 0 -0.29 0 0 0 -0.29 0 0 -0.29 0.29 0 0 0 0 0 0.29 0 0 -0.29 0 0 0.29 0 0 0 0 0 0.29 0 0 -0.29 0 0 0.29 0 0 0 0 -0.29 0 0 0.29 0 0 0 0 -0.29 0 0 0.29 0 0 -0.29 0 0 0 0 0 -0.29 0 0 0 -0.29 0.29 0 0 0 0 -0.29 0 0 0 -0.29 0 0zm-2.31 -2.31l0 -0.58 0 0 0.29 0 0 0 0.29 0 0 0 0.29 0 0 0.29 0 0 0.29 0 0 0 0.29 0 0 0.29 0 0 0.29 0 0 0 0 0.29 0.29 0 0 0 0 0.29 0.29 0 0 0.29 0 0 0 0 0 0.29 0.29 0 0 0.29 0 0 0 0.29 0 0 0 0.29 0 0 0 0.29 0 0 -0.29 0 0 0 0 -0.29 0 0 0 0 0 -0.29 -0.29 0 0 -0.29 0 0 0 0 0 -0.29 0 0 0 0 -0.29 -0.29 0 0 0 0 0 -0.29 -0.29 0 0 0 0 -0.29 0 0 -0.29 0 0 0 0 0 -0.29 -0.29 0 0 0 0 -0.29 0 0 0 0 0 -0.29 0 0 0 -0.29 0 0 0 0 0z"/>
    </g>
   </g>
  </g>
  <rect class="fil0" width="140" height="140"/>
 </g>
</svg>
