<?xml version="1.0" encoding="UTF-8"?>
<!DOCTYPE svg PUBLIC "-//W3C//DTD SVG 1.1//EN" "http://www.w3.org/Graphics/SVG/1.1/DTD/svg11.dtd">
<!-- Creator: CorelDRAW -->
<svg xmlns="http://www.w3.org/2000/svg" xml:space="preserve" width="0.14in" height="0.14in" version="1.1" style="shape-rendering:geometricPrecision; text-rendering:geometricPrecision; image-rendering:optimizeQuality; fill-rule:evenodd; clip-rule:evenodd"
viewBox="0 0 140 140"
 xmlns:xlink="http://www.w3.org/1999/xlink"
 xmlns:xodm="http://www.corel.com/coreldraw/odm/2003">
 <defs>
  <style type="text/css">
   <![CDATA[
    .str0 {stroke:#1C2335;stroke-width:3.33;stroke-miterlimit:2.61313}
    .fil0 {fill:none}
    .fil1 {fill:#1C2335;fill-rule:nonzero}
   ]]>
  </style>
 </defs>
 <g id="Layer_x0020_1">
  <metadata id="CorelCorpID_0Corel-Layer"/>
  <g id="_1819269436912">
   <g>
    <path class="fil0 str0" d="M135.48 89.42c10.72,-36.16 -9.89,-74.17 -46.06,-84.9 -36.16,-10.72 -74.17,9.89 -84.9,46.06 -10.72,36.16 9.89,74.17 46.06,84.9 36.16,10.72 74.17,-9.89 84.9,-46.06z"/>
   </g>
   <g id="_2562532387744">
    <g>
     <path class="fil1" d="M113.66 101.46c-2.08,0.3 -3.87,-0.3 -5.35,-1.48 -0.89,-0.6 -1.78,-1.19 -2.68,-2.08 -2.97,-2.08 -6.25,-2.08 -9.22,0 -0.59,0.89 -1.49,1.48 -2.38,2.08 -3.57,2.08 -7.14,2.08 -10.71,0 -0.89,-0.6 -1.78,-1.19 -2.38,-1.79 -2.98,-2.38 -6.55,-2.38 -9.22,0 -0.89,0.59 -1.78,1.19 -2.68,1.79 -3.27,2.38 -8.03,2.08 -11,-0.3 0.3,-0.59 0.89,-1.49 1.48,-2.08 1.49,1.19 2.98,1.49 4.76,1.49 1.49,-0.3 2.98,-0.89 4.17,-1.79 0.89,-0.59 1.79,-1.48 2.98,-2.08 1.19,-0.59 2.68,-0.89 3.87,-1.19 0.59,-0.3 0.89,-0.3 0.89,-0.89 0,-6.25 0,-12.79 0,-19.04 0,-0.3 -0.3,-0.3 -0.3,-0.59 -8.93,0 -17.85,0 -26.77,0 0,-0.89 0,-1.79 0,-2.68 8.93,0 17.85,0 27.07,0 0,-0.3 0,-0.59 0,-0.89 0,-2.68 -0.3,-5.65 0,-8.63 0,-4.46 3.57,-7.74 8.03,-7.14 3.27,0.3 5.95,2.98 6.25,6.25 0,2.98 0,6.25 0,9.22 0,0.59 0,0.89 0,1.19 1.49,0 2.68,0 4.17,0 0,-0.3 0,-0.59 0,-0.89 0,-2.97 0,-5.65 0,-8.63 0.3,-3.57 2.38,-6.25 5.65,-7.14 4.17,-0.89 8.63,2.08 8.93,6.25 0,3.28 0,6.25 0,9.52 0,0.3 0,0.6 0,1.19 1.48,0 2.97,0 4.46,0 0,0.89 0,1.48 0,2.38 -0.3,0 -0.59,0 -0.59,0 -5.06,0 -10.11,0 -15.17,0 -0.3,0 -0.3,0 -0.59,0 0,7.14 0,13.98 0,20.82 0.3,0.3 0.3,0.3 0.3,0.3 0,-0.3 0.3,-0.3 0.3,-0.3 3.27,-0.89 6.54,-0.59 9.22,1.79 0.89,0.59 1.49,1.19 2.38,1.78 1.19,0.6 2.38,1.19 4.17,0.89 0,0.89 0,1.79 0,2.68l-0 0zm-25.88 -30.64l0 0c0,0 0.3,-0.3 0.3,-0.3 -0.3,-3.27 0,-6.55 -0.3,-9.82 0,-2.38 -2.08,-4.17 -4.46,-4.17 -2.38,0 -4.46,1.79 -4.76,3.87 0,3.57 0,6.84 0,10.41 0,0 0,0 0.3,0 2.98,0 5.95,0 8.93,0l0 0zm18.74 0l0 0c0,-3.57 0.3,-6.84 0,-10.41 0,-1.79 -1.19,-2.98 -2.98,-3.57 -2.98,-1.19 -6.25,0.89 -6.25,4.46 0,2.98 0,5.95 0,8.93 0,0.3 0,0.6 0,0.6 2.98,0 5.65,0 8.33,0 0.3,0 0.59,0 0.89,0l0 -0zm-27.96 18.74l0 0c0,1.48 0,2.97 0,4.17 0,0.3 0.3,0.59 0.3,0.59 2.08,0.3 3.57,1.78 5.06,2.98 2.98,2.38 6.54,2.38 9.52,0 0.89,-0.6 1.49,-1.49 1.19,-2.68 0,-0.89 0,-1.49 0,-2.38 0,-0.89 0,-1.78 0,-2.68 -5.35,0 -10.71,0 -16.06,0l0 0zm0 -8.33l0 0c0,2.08 0,3.87 0,5.95 0.3,0 0.59,0 0.89,0 2.38,0 4.76,0 7.14,0 2.38,0 4.76,0 7.44,0 0.3,0 0.6,-0.3 0.6,-0.59 0,-1.79 0,-3.57 0,-5.35 -5.36,0 -10.71,0 -16.07,0l0 0zm0 -2.68l0 0c5.35,0 10.71,0 16.06,0 0,-1.78 0,-3.27 0,-5.06 -5.35,0 -10.71,0 -16.06,0 0,1.78 0,3.27 0,5.06z"/>
     <path class="fil1" d="M26.49 105.93c1.79,-0.3 3.57,0.3 5.06,1.19 0.89,0.89 1.78,1.49 2.68,2.08 2.97,2.38 6.25,2.38 9.22,0 1.19,-0.59 2.08,-1.49 3.27,-2.08 3.27,-1.79 6.84,-1.79 9.82,0.3 0.89,0.6 1.78,1.19 2.68,1.79 2.68,2.38 6.25,2.38 8.93,0.3 0.89,-0.89 1.78,-1.48 2.68,-2.08 3.27,-2.08 7.73,-2.08 11.01,0 0.59,0.6 1.48,1.19 2.08,1.79 2.97,2.38 6.25,2.38 9.22,0 0.89,-0.3 1.49,-0.89 2.08,-1.49 3.57,-2.68 8.33,-2.68 11.6,0 0.89,0.6 1.78,1.19 2.38,1.79 1.49,0.89 2.68,1.48 4.46,1.19 0,0.89 0,1.78 0,2.68 -2.08,0.3 -3.87,-0.3 -5.35,-1.49 -0.89,-0.59 -1.79,-1.19 -2.68,-2.08 -2.98,-2.08 -6.25,-2.08 -9.22,0.3 -0.59,0.3 -1.19,0.89 -2.08,1.48 -3.27,2.38 -6.84,2.68 -10.71,0.6 -0.89,-0.6 -2.08,-1.49 -2.98,-2.38 -2.68,-2.08 -6.25,-2.08 -8.93,0 -0.59,0.6 -1.19,1.19 -1.78,1.49 -3.87,2.98 -8.63,2.98 -12.2,0 -0.59,-0.3 -1.19,-0.59 -1.49,-1.19 -3.27,-2.38 -6.54,-2.38 -9.52,0 -0.59,0.3 -1.19,0.89 -1.78,1.19 -3.57,2.98 -8.33,2.98 -12.2,0 -0.6,-0.59 -1.49,-1.19 -2.38,-1.79 -1.19,-0.89 -2.38,-1.19 -3.87,-1.19 0,-0.59 0,-1.48 0,-2.38l0 0z"/>
     <path class="fil1" d="M26.49 94.02c1.79,-0.3 3.57,0.3 5.06,1.49 1.19,0.59 1.78,1.19 2.68,1.78 2.97,2.38 6.25,2.38 9.22,0 0.89,-0.59 1.78,-1.19 2.68,-1.78 3.27,-2.38 8.63,-2.08 11.3,0.59 -0.59,0.59 -0.89,1.19 -1.48,1.79 -0.3,0 -0.3,0 -0.6,-0.3 -2.68,-1.78 -5.95,-1.49 -8.33,0.3 -0.89,0.59 -1.49,1.19 -2.38,1.78 -3.57,2.68 -8.33,2.38 -11.6,0 -0.89,-0.89 -1.78,-1.49 -2.68,-2.08 -1.19,-0.89 -2.38,-1.19 -3.87,-1.19 0,-0.59 0,-1.49 0,-2.38l0 0z"/>
     <path class="fil1" d="M26.49 70.82c0.3,0 0.59,0 0.89,0 4.46,0 8.63,0 12.79,0 0.3,0 0.59,0 1.19,0 0,0.89 0,1.79 0,2.68 -0.59,0 -0.89,0 -1.19,0 -4.17,0 -8.33,0 -12.79,0 -0.3,0 -0.59,0 -0.89,0 0,-0.89 0,-1.78 0,-2.68z"/>
     <path class="fil1" d="M50.89 26.49c0,1.79 0,3.27 0,5.06 -0.89,0 -1.78,0 -2.67,0 0,-1.79 0,-3.28 0,-5.06 0.89,0 1.78,0 2.67,0z"/>
     <path class="fil1" d="M32.44 63.98c0.59,-2.68 1.19,-4.76 1.78,-7.14 0,-0.3 -0.3,-0.59 -0.3,-0.89 -1.79,-0.89 -2.98,-2.08 -3.28,-4.17 -0.3,0 -0.3,-0.3 -0.3,-0.89 0.89,0 1.49,0 2.38,-0.3 0,0.3 0.3,0.59 0.3,0.89 0.59,1.78 2.38,2.97 4.46,2.97 2.08,0 3.87,-1.19 4.46,-3.27 0.3,-1.48 0.59,-2.97 1.19,-4.76 -2.98,-0.59 -5.95,-1.48 -8.93,-2.38 -0.59,1.49 -0.89,2.98 -1.19,4.46 -0.89,0 -1.79,-0.3 -2.68,-0.59 1.19,-4.46 2.38,-8.93 3.57,-13.39 4.76,1.19 9.52,2.38 13.98,3.57 -0.3,2.08 -0.89,3.87 -1.49,5.65 -0.59,2.68 -1.19,5.06 -2.08,7.74 -0.89,3.27 -3.27,5.35 -6.84,5.65 -0.59,0 -0.59,0 -0.89,0.6 -0.6,2.08 -1.19,4.46 -1.79,6.84 1.49,0.3 2.98,0.59 4.46,1.19 -0.3,0.89 -0.3,1.49 -0.6,2.38 -3.87,-0.89 -7.73,-2.08 -11.6,-2.97 0.3,-0.89 0.6,-1.79 0.6,-2.38 1.78,0.3 2.97,0.59 4.76,1.19zm2.38 -22.31l0 0c2.98,0.89 5.95,1.49 8.93,2.38 0.3,-1.49 0.89,-2.68 1.19,-4.17 -2.97,-0.89 -5.95,-1.49 -8.93,-2.38 -0.59,1.49 -0.89,2.68 -1.19,4.17z"/>
     <path class="fil1" d="M69.04 49.1c0,2.98 -0.89,5.35 -3.57,6.84 -0.59,0.3 -0.59,0.59 -0.3,1.19 0.59,2.08 1.19,4.46 1.78,6.84 1.49,-0.59 2.98,-0.89 4.46,-1.19 0.3,0.59 0.3,1.49 0.59,2.38 -3.87,0.89 -7.74,2.08 -11.6,2.97 0,-0.89 -0.3,-1.48 -0.59,-2.38 1.48,-0.3 2.97,-0.89 4.46,-1.19 -0.59,-2.38 -1.19,-4.76 -1.78,-7.14 0,-0.3 -0.3,-0.3 -0.6,-0.3 -3.87,-0.3 -6.25,-2.08 -7.14,-5.95 -1.19,-4.17 -2.38,-8.04 -3.27,-12.2 -0.3,-0.3 -0.3,-0.59 -0.3,-0.89 4.76,-1.19 9.22,-2.38 13.98,-3.57 0.89,3.87 2.08,7.74 3.27,11.9 -0.89,0 -1.79,0.3 -2.68,0.59 -0.3,-1.19 -0.3,-2.08 -0.59,-2.98 -3.28,0.89 -5.95,1.79 -9.22,2.38 0.59,1.78 0.89,3.57 1.49,5.06 0.89,2.08 2.98,3.27 5.35,2.98 2.08,-0.59 3.57,-2.38 3.57,-4.46 0,-0.3 0,-0.3 0,-0.59 0.89,-0.3 1.78,-0.3 2.68,-0.3l0 -0zm-5.65 -11.6l0 0c-2.98,0.89 -5.95,1.79 -9.22,2.38 0.59,1.48 0.89,2.68 1.19,4.17 2.98,-0.89 5.95,-1.49 8.93,-2.38 -0.3,-1.49 -0.59,-2.68 -0.89,-4.17z"/>
     <path class="fil1" d="M61.6 77.07c2.38,0 4.46,2.08 4.46,4.76 0,2.38 -2.08,4.46 -4.46,4.46 -2.68,0 -4.76,-2.08 -4.76,-4.46 0,-2.68 2.08,-4.76 4.76,-4.76zm0 6.84l0 0c1.19,0 2.08,-0.89 2.08,-2.08 0,-1.19 -0.89,-2.08 -2.38,-2.08 -0.89,0 -1.78,0.89 -1.78,2.08 0,1.19 0.89,2.08 2.08,2.08z"/>
     <path class="fil1" d="M39.29 83.31c2.68,0 4.76,2.08 4.76,4.76 0,2.38 -2.08,4.46 -4.76,4.46 -2.38,0 -4.46,-2.08 -4.46,-4.76 0,-2.68 2.08,-4.46 4.46,-4.46zm0 6.54l0 0c1.19,0 2.08,-0.89 2.08,-2.08 0,-1.19 -0.89,-2.08 -1.79,-2.08 -1.49,0 -2.38,0.89 -2.38,2.08 0,1.19 0.89,2.08 2.08,2.08z"/>
     <path class="fil1" d="M48.81 76.18c0,0.89 0,1.48 0,2.38 -2.98,0 -5.65,0 -8.63,0 0,-0.89 0,-1.49 0,-2.38 2.98,0 5.65,0 8.63,0z"/>
     <path class="fil1" d="M40.77 30.66c0.6,-0.3 1.19,-0.89 1.79,-1.49 1.19,1.19 2.38,2.38 3.57,3.57 -0.6,0.59 -1.19,1.19 -1.49,1.79 -1.49,-1.49 -2.68,-2.68 -3.87,-3.87l-0 0z"/>
     <path class="fil1" d="M58.33 30.66c-1.19,1.19 -2.38,2.68 -3.57,3.87 -0.59,-0.59 -1.19,-1.19 -1.79,-1.78 1.19,-1.19 2.68,-2.38 3.87,-3.57 0.3,0.59 0.89,0.89 1.48,1.49l0 0z"/>
     <path class="fil1" d="M74.69 29.76c0.89,0 1.78,0 2.38,0 0,0.6 0,1.49 0,2.38 -0.59,0 -1.49,0 -2.38,0 0,-0.89 0,-1.49 0,-2.38z"/>
     <path class="fil1" d="M70.52 36.31c0,-0.89 0,-1.49 0,-2.38 0.89,0 1.49,0 2.38,0 0,0.89 0,1.49 0,2.38 -0.89,0 -1.48,0 -2.38,0z"/>
     <path class="fil1" d="M78.85 36.31c0,-0.89 0,-1.49 0,-2.38 0.89,0 1.79,0 2.68,0 0,0.89 0,1.49 0,2.38 -0.89,0 -1.78,0 -2.68,0z"/>
     <path class="fil1" d="M77.07 38.09c0,0.89 0,1.79 0,2.38 -0.59,0 -1.49,0 -2.38,0 0,-0.59 0,-1.49 0,-2.38 0.89,0 1.48,0 2.38,0z"/>
     <path class="fil1" d="M52.08 87.18c0,0.89 0,1.49 0,2.38 -0.89,0 -1.79,0 -2.38,0 0,-0.89 0,-1.49 0,-2.38 0.6,0 1.49,0 2.38,0z"/>
     <path class="fil1" d="M37.8 76.18c0,0.89 0,1.48 0,2.38 -0.89,0 -1.79,0 -2.68,0 0,-0.89 0,-1.49 0,-2.38 0.89,0 1.78,0 2.68,0z"/>
     <path class="fil1" d="M65.76 93.13c-0.89,0 -1.79,0 -2.38,0 0,-0.89 0,-1.79 0,-2.68 0.59,0 1.49,0 2.38,0 0,0.89 0,1.78 0,2.68z"/>
     <path class="fil1" d="M46.43 71.12c0,0.59 0,1.49 0,2.38 -0.89,0 -1.78,0 -2.68,0 0,-0.89 0,-1.48 0,-2.38 0.89,0 1.79,0 2.68,0z"/>
     <path class="fil1" d="M32.44 76.18c0,0.89 0,1.48 0,2.38 -0.6,0 -1.49,0 -2.38,0 0,-0.89 0,-1.49 0,-2.38 0.89,0 1.49,0 2.38,0z"/>
     <path class="fil1" d="M105.93 91.65c-2.68,0 -4.76,-2.08 -4.76,-4.76 0,-2.68 2.08,-4.76 4.76,-4.76 2.68,0 4.76,2.08 4.46,4.76 0,2.68 -1.78,4.76 -4.46,4.76zm2.08 -4.76l0 0c0,-1.19 -0.89,-2.08 -2.08,-2.08 -1.19,0 -2.08,0.89 -2.08,2.08 0,1.19 0.89,2.08 2.08,2.08 1.19,0 2.08,-0.89 2.08,-2.08z"/>
    </g>
   </g>
  </g>
  <rect class="fil0" width="140" height="140"/>
 </g>
</svg>
