<?xml version="1.0" encoding="UTF-8"?>
<!DOCTYPE svg PUBLIC "-//W3C//DTD SVG 1.1//EN" "http://www.w3.org/Graphics/SVG/1.1/DTD/svg11.dtd">
<!-- Creator: CorelDRAW -->
<svg xmlns="http://www.w3.org/2000/svg" xml:space="preserve" width="0.14in" height="0.14in" version="1.1" style="shape-rendering:geometricPrecision; text-rendering:geometricPrecision; image-rendering:optimizeQuality; fill-rule:evenodd; clip-rule:evenodd"
viewBox="0 0 140 140"
 xmlns:xlink="http://www.w3.org/1999/xlink"
 xmlns:xodm="http://www.corel.com/coreldraw/odm/2003">
 <defs>
  <style type="text/css">
   <![CDATA[
    .str0 {stroke:#1C2335;stroke-width:3.33;stroke-miterlimit:2.61313}
    .fil0 {fill:none}
    .fil1 {fill:#1C2335}
   ]]>
  </style>
 </defs>
 <g id="Layer_x0020_1">
  <metadata id="CorelCorpID_0Corel-Layer"/>
  <g id="_1819280352480">
   <circle class="fil0 str0" transform="matrix(0.610103 0.180969 -0.180969 0.610103 70 70)" r="107.11"/>
   <g id="_2562532433280">
    <path class="fil1" d="M89.22 77.65c0,-0.89 7.72,-21.67 8.61,-23.75l4.75 -13.36c0.3,-1.19 0,-0.89 1.48,-0.89 2.67,0 4.75,1.78 4.75,4.45l0 64.72 -19.59 0 0 -31.17 0 0zm-31.47 -28.5c0,1.19 0.89,1.48 1.78,1.48 0.89,0 2.08,-4.16 2.38,-5.05l2.07 -5.94 35.63 0 -11.28 32.36c-0.3,0.59 -1.78,4.16 -1.78,4.75l0 32.07 -33.25 0 0 -40.08c0.89,0.3 1.78,1.19 3.86,1.19l8.91 0c2.37,0 3.86,-1.78 3.86,-4.46 0,-1.78 -1.78,-3.86 -3.86,-3.86l-7.13 0 0 -4.45c0,-4.75 -4.45,-9.2 -9.2,-9.2l-12.17 0c-4.45,0 -8.91,4.46 -8.91,9.2l0 20.19c0,1.78 1.78,3.56 3.56,3.56l1.78 0 0 27.91c0,1.48 0,2.67 1.48,2.67 0.89,0 1.48,-0.59 1.48,-1.48l0 -49.58c0,-0.89 -0.59,-1.48 -1.48,-1.48 -1.78,0 -1.48,2.37 -1.48,4.15l0 13.66c-0.3,2.08 -2.67,1.78 -2.67,0l0 -18.7c0,-4.45 2.97,-7.42 7.43,-7.42 3.26,0 10.98,-0.3 13.36,0.59 0.89,0.59 1.78,1.19 2.37,2.08 1.78,2.08 1.78,2.97 1.78,6.53 0,5.34 -1.48,4.75 8.02,4.75 0.59,0 2.97,-0.3 2.97,1.19 0,0.89 -0.89,1.48 -1.48,1.48l-7.72 0c-2.08,0 -3.86,-1.19 -4.46,-2.97 -0.59,-1.78 0.59,-5.35 -1.48,-5.35 -0.89,0 -1.48,0.59 -1.48,1.48l0 49.88c0,0.59 0.59,1.19 1.19,1.19l58.19 0c0.89,0 1.48,-0.59 1.48,-1.48l0 -66.8c0,-3.27 -3.27,-6.24 -6.53,-6.24l-41.86 0c-1.48,0 -1.48,1.19 -1.78,2.37 -0.59,1.19 -3.56,9.2 -3.56,9.8l0 0z"/>
    <path class="fil1" d="M61.61 57.46c0,1.78 2.37,2.08 2.97,0.3l4.46 -12.77 21.97 0 -1.48 3.56c-1.48,5.34 -4.16,11.88 -5.94,17.22 -0.59,1.19 -0.89,2.37 -1.19,3.26 -0.3,0.89 -0.59,1.19 -0.59,1.78 -0.3,0.89 -0.59,1.19 -0.89,2.08 -0.89,0 -23.75,-0.3 -24.35,0 -1.19,0.3 -0.89,2.67 0.3,2.67l25.24 0c0.89,0 1.19,-0.59 1.48,-1.19l10.69 -30.58c0,-0.89 -0.59,-1.48 -1.19,-1.48l-25.24 0c-0.89,0 -1.19,0.89 -1.19,1.48 -0.3,0.59 -0.59,1.19 -0.89,1.78l-4.16 11.88 0 -0z"/>
    <path class="fil1" d="M38.16 37.27c0,-1.19 0.59,-2.97 1.48,-4.15 2.37,-2.08 5.64,-2.38 7.72,-0.3 2.38,2.08 2.38,5.64 0.3,7.72 -1.48,1.48 -3.56,2.37 -5.94,1.48 -1.48,-0.59 -2.97,-2.08 -3.27,-3.56l-0.3 -1.19zm-2.67 -1.19c0,2.67 0.3,4.75 2.37,6.53 5.35,5.34 14.25,1.48 14.25,-5.35l0 -1.19c0,-3.56 -3.86,-7.43 -7.72,-7.43l-1.19 0c-3.86,0 -7.72,3.86 -7.72,7.43z"/>
    <path class="fil1" d="M42.31 82.1l0 28.2c0,1.48 2.67,1.48 2.67,0l0 -28.2c0,-1.48 -2.67,-1.48 -2.67,0z"/>
    <path class="fil1" d="M72.9 79.72c0,1.78 2.08,1.19 4.16,1.19 1.78,0 1.78,-2.67 0,-2.67 -2.08,0 -4.16,-0.3 -4.16,1.48z"/>
    <path class="fil1" d="M58.94 79.72c0,1.78 2.08,1.19 4.16,1.19 1.78,0 1.78,-2.67 0,-2.67 -2.08,0 -4.16,-0.3 -4.16,1.48z"/>
   </g>
  </g>
  <rect class="fil0" width="140" height="140"/>
 </g>
</svg>
