<?xml version="1.0" encoding="UTF-8"?>
<!DOCTYPE svg PUBLIC "-//W3C//DTD SVG 1.1//EN" "http://www.w3.org/Graphics/SVG/1.1/DTD/svg11.dtd">
<!-- Creator: CorelDRAW -->
<svg xmlns="http://www.w3.org/2000/svg" xml:space="preserve" width="0.14in" height="0.14in" version="1.1" style="shape-rendering:geometricPrecision; text-rendering:geometricPrecision; image-rendering:optimizeQuality; fill-rule:evenodd; clip-rule:evenodd"
viewBox="0 0 140 140"
 xmlns:xlink="http://www.w3.org/1999/xlink"
 xmlns:xodm="http://www.corel.com/coreldraw/odm/2003">
 <defs>
  <style type="text/css">
   <![CDATA[
    .str0 {stroke:#1C2335;stroke-width:3.33;stroke-miterlimit:2.61313}
    .fil0 {fill:none}
    .fil1 {fill:#1C2335;fill-rule:nonzero}
   ]]>
  </style>
 </defs>
 <g id="Layer_x0020_1">
  <metadata id="CorelCorpID_0Corel-Layer"/>
  <g id="_1819475055824">
   <g>
    <path class="fil0 str0" d="M135.24 89.35c10.69,-36.03 -9.86,-73.91 -45.89,-84.59 -36.03,-10.69 -73.91,9.86 -84.59,45.89 -10.69,36.03 9.86,73.91 45.89,84.59 36.03,10.69 73.91,-9.86 84.59,-45.89z"/>
   </g>
   <g>
    <path class="fil1" d="M46.22 46.51c-0.59,-1.78 -0.59,-3.26 0.3,-5.04 0.3,0 0,-0.59 0,-0.59 -1.48,-3.26 -0.59,-5.93 2.07,-7.7 0.3,-0.3 0.59,-0.59 0.59,-0.89 0.3,-2.67 1.48,-4.15 4.15,-4.74 0.3,-0.3 0.59,-0.59 0.89,-0.89 0.89,-3.26 3.85,-4.74 7.11,-4.15 0.3,0 0.59,0 0.89,-0.3 2.07,-2.07 5.34,-2.07 7.41,0 0.3,0.3 0.59,0.3 0.89,0.3 2.07,-0.3 2.67,-0.3 4.74,0.59 1.48,-1.19 2.96,-1.78 4.74,-1.48 1.48,0.3 2.67,0.89 3.26,2.37 0.3,0.3 0.89,0.3 1.19,0.59 1.48,0.3 2.96,0 4.44,-0.3 2.96,-1.19 6.23,1.48 6.23,4.74 0,0.59 0.3,1.19 0.59,1.48 1.19,1.78 1.48,3.85 0.3,5.93 -0.3,0.3 -0.3,0.59 -0.3,0.89 0,2.96 -0.89,4.15 -3.56,5.63 0.3,0.59 0.3,1.19 0.59,1.78 0.3,1.78 0,2.96 -1.19,4.15 -0.89,0.59 -0.89,1.48 -0.59,2.37 0.59,1.48 1.19,3.26 1.48,4.74 0.3,1.19 0.3,2.07 0,2.96 -0.3,1.48 -1.48,2.07 -2.96,2.37 0,1.78 -0.59,3.56 -1.19,5.04 -0.3,0.3 -0.3,0.89 -0.3,1.19 0.89,3.26 -0.3,4.74 -3.85,5.34 -0.3,0 -0.59,0 -1.19,0 0.59,1.78 2.37,2.67 4.44,2.96 2.37,0 4.74,0.3 6.82,0.59 2.67,0.3 4.15,1.78 3.85,4.45 0,5.93 -2.07,10.96 -5.93,15.41 -2.67,3.26 -6.22,5.63 -10.37,6.81 -0.59,0.3 -0.89,0.59 -0.89,1.19 0,1.48 0,2.67 0,4.44 0.3,0 0.89,0 1.19,0 2.07,0 4.45,-0.3 6.52,0 3.85,0.59 6.22,4.15 5.93,7.71 0,1.78 -1.19,2.96 -2.67,2.96 -0.3,0 -0.59,0 -0.89,0 -13.93,0 -27.86,0 -42.09,0 -2.96,0 -3.85,-1.78 -3.56,-4.15 0.59,-3.85 3.56,-6.52 7.41,-6.52 2.07,-0.3 4.15,0 6.52,0 0,-1.78 0,-3.56 -0.3,-5.04 0,-0.3 -0.3,-0.59 -0.89,-0.59 -3.85,-1.19 -7.41,-2.96 -10.67,-5.63 -1.78,-1.78 -3.56,-3.56 -5.04,-5.93 -1.19,-1.78 -0.59,-3.56 1.48,-4.44 2.96,-1.19 5.63,-2.67 8,-5.04 2.07,-2.07 3.26,-4.74 3.26,-8 0.3,-2.67 0.89,-5.04 2.67,-7.11 0.3,0 0.3,-0.59 0.3,-0.89 0,-0.3 0,-0.59 0,-0.89 0,-0.89 -0.3,-1.48 -1.19,-1.78 -0.89,-0.3 -1.48,-1.19 -2.37,-1.48 -0.89,-0.3 -2.07,0 -2.96,0 -2.37,-0.59 -3.85,-2.67 -3.85,-5.04 0,-0.89 0,-1.19 -0.59,-1.48 -2.96,-1.48 -3.85,-5.93 -0.89,-8.89l0 -0zm39.72 -6.22l0 0c-0.59,0.3 -1.19,0.59 -1.78,0.3 -1.48,-0.3 -2.67,0 -3.85,0.89 -0.59,0.3 -0.89,0.3 -1.19,0.89 -0.3,1.78 -1.78,2.96 -3.56,2.96 -1.48,0 -1.48,0.89 -1.78,1.48 -0.59,0.59 -1.78,0.89 -1.48,2.07 0,0 0,0.3 0,0.3 0,1.78 0,3.26 0,4.74 -0.3,2.07 -1.19,3.56 -2.96,4.44 -2.07,0.89 -3.85,0 -3.56,-2.37 0,-2.07 0,-3.85 -0.89,-5.93 -1.19,-2.37 -2.96,-3.26 -5.34,-2.67 -1.48,0.3 -2.37,1.19 -2.37,2.67 -0.59,3.56 1.78,6.82 5.33,7.71 0.89,0 1.48,0.59 1.19,1.48 0,0.59 -0.59,0.89 -1.78,0.89 -0.59,-0.3 -1.19,-0.59 -1.78,-0.59 -0.3,2.37 0,4.74 0.59,7.11 0,0.59 0,1.19 -0.3,1.48 -2.07,1.48 -2.67,3.85 -2.96,6.22 0,3.26 -1.19,6.22 -3.56,8.59 -2.37,2.96 -5.33,4.74 -8.6,6.23 -0.59,0.3 -0.89,0.3 -1.19,0.59 0.3,0.59 0.3,0.89 0.59,1.19 1.78,2.96 4.44,5.04 7.11,6.81 8.89,5.04 18.08,5.93 27.86,3.56 9.19,-2.37 15.41,-10.37 16.01,-19.86 0.3,-2.07 -0.3,-2.67 -2.37,-2.96 -2.07,0 -4.15,-0.3 -6.22,-0.3 -3.26,-0.3 -5.33,-2.07 -6.52,-4.74 -0.3,-0.3 -0.59,-0.59 -0.89,-0.59 -5.34,-0.89 -9.48,-3.56 -13.04,-7.11 -0.89,-0.89 -0.89,-1.48 -0.3,-2.07 0.59,-0.59 1.19,0 1.78,0.3 1.48,1.48 2.96,2.67 4.45,3.56 3.56,2.37 7.41,3.56 11.86,2.96 1.48,-0.3 1.78,-0.59 1.48,-2.07 -0.3,-1.19 -0.59,-2.37 0.3,-3.56 0.3,0 0.3,-0.3 0.3,-0.59 -0.89,-0.89 -0.3,-1.48 0.89,-2.37 -0.89,-0.3 -1.48,-0.89 -2.07,-1.19 -0.3,-0.3 -0.89,-0.59 -1.19,-0.89 -0.59,-0.59 -0.89,-1.48 -0.3,-2.07 0.3,-0.89 1.19,-1.19 1.78,-1.48 0.3,-0.3 0.89,0 0.89,0.3 0.3,0.3 0.3,0.89 0.3,1.19 0,0.3 -0.3,0.59 -0.59,0.89 0.89,0 1.48,0.3 2.37,0.3 1.48,0 2.07,-0.3 1.78,-1.78 -0.59,-2.07 -1.19,-3.85 -1.78,-5.33 -0.59,-1.78 -0.3,-3.26 0.89,-4.45 1.19,-0.89 1.19,-2.96 0.3,-4.15 0,0 -0.3,-0.3 -0.3,-0.3 -1.48,-0.3 -2.67,-1.19 -3.56,-2.67l0 0zm-17.78 16l0 0c1.19,-0.59 1.48,-1.19 1.48,-2.37 0.3,-2.07 0,-4.15 0.3,-6.22 0,-0.59 0.3,-1.19 0.59,-1.48 1.19,-0.3 1.78,-1.19 2.07,-2.37 0.3,-1.19 0.59,-1.48 1.78,-1.19 1.48,0.59 2.67,0 2.67,-1.78 0,-1.19 0.3,-1.48 1.48,-1.48 0.89,0 1.48,-0.59 1.78,-1.19 0.59,-1.19 1.19,-1.19 2.07,-0.59 1.48,0.89 2.07,0.89 3.26,0 1.19,-0.59 2.07,-0.3 2.07,0.59 0.59,2.07 1.78,2.96 3.56,2.37 1.48,-0.3 2.08,-1.48 1.78,-3.26 0,-0.59 0.3,-1.19 0.59,-1.48 1.19,-1.78 0.89,-3.26 -0.59,-4.44 -0.59,-0.3 -0.59,-0.89 -0.59,-1.48 0.3,-1.48 0,-2.67 -1.19,-3.26 -1.19,-0.59 -2.37,-0.59 -3.56,0.59 -0.59,0.59 -0.89,0.59 -1.78,0.3 -0.59,-0.59 -1.48,-0.59 -2.37,-0.59 -1.19,0 -1.48,0 -1.78,-1.19 -0.3,-0.89 -1.19,-1.78 -2.37,-1.78 -1.19,-0.3 -2.07,0.3 -2.67,1.48 -0.59,0.89 -1.48,1.19 -2.37,0 -1.19,-1.19 -2.37,-1.19 -3.85,-0.3 -0.89,0.59 -1.48,0.59 -2.07,-0.59 -0.59,-0.89 -1.19,-1.48 -2.37,-1.78 -1.19,0 -2.07,0.59 -2.67,1.78 -0.59,0.89 -0.89,0.89 -1.78,0.59 -2.96,-1.48 -5.34,0.3 -5.34,3.26 0,0.89 -0.3,1.48 -1.48,1.19 -2.37,0 -3.56,1.19 -3.26,3.56 0.3,0.89 0,1.48 -0.89,1.78 -2.67,0.89 -3.26,3.26 -1.48,5.33 0.59,0.59 0.59,1.19 -0.3,2.07 -0.89,1.19 -1.19,2.37 -0.3,3.56 0.89,1.19 0.59,1.48 -0.3,2.07 -1.19,0.89 -1.78,2.07 -1.48,3.26 0,1.48 0.89,2.07 2.37,2.67 1.19,0 1.48,0.59 1.19,1.78 -0.59,1.19 -0.3,2.37 0.59,3.26 0.89,0.89 1.78,0.89 3.26,0.3 0.89,-0.3 1.19,-0.3 1.78,0.59 0.59,0.59 0.89,1.19 1.48,1.48 0.3,-0.89 0.3,-1.78 0.3,-2.67 0,-0.3 0,-0.89 -0.3,-1.19 -2.37,-2.07 -2.96,-4.74 -2.67,-7.71 0,-2.07 1.48,-3.85 3.85,-4.44 3.85,-1.19 7.41,0.89 8.6,5.04 0.59,1.78 0.59,3.85 0.89,5.93l-0 0zm1.78 60.77l0 0c5.04,0 10.07,0 15.11,0 2.07,0 4.15,0 6.22,0 0.89,0 1.19,-0.3 0.89,-1.19 0,-1.19 -0.3,-2.37 -1.19,-3.26 -1.19,-1.19 -2.67,-1.48 -4.44,-1.48 -10.97,0 -21.94,0 -33.2,0 -0.3,0 -0.59,0 -1.19,0 -2.37,0.3 -4.15,2.37 -4.44,4.74 0,1.19 0,1.19 1.19,1.19 7.11,0 13.93,0 21.05,0zm8.59 -13.04l0 0c-5.63,1.19 -11.26,0.89 -16.89,0 0,1.78 0,3.26 0,4.74 5.63,0 11.26,0 16.89,0 0,-1.78 0,-2.96 0,-4.74z"/>
    <path id="_1" class="fil1" d="M46.22 41.47l0.59 0.3 0 0 0 0 -0.3 0.3 0 0 0 0.3 0 0 -0.3 0.3 0 0 0 0.3 0 0 0 0.3 0 0 0 0.3 0 0 -0.3 0.3 0 0 0 0.3 0 0 0 0.3 0 0 0 0.3 0 0 0.3 0.3 0 0 0 0.3 0 0 0 0.3 0 0 0 0.3 0 0 0.3 0.3 0 0 0 0.3 -0.59 0.3 0 -0.3 0 -0.3 0 0 0 -0.3 -0.3 0 0 -0.3 0 0 0 -0.3 0 -0.3 0 0 0 -0.3 0 0 0 -0.3 0 0 0 -0.3 0 0 0 -0.3 0 -0.3 0 0 0 -0.3 0 0 0 -0.3 0 0 0.3 -0.3 0 0 0 -0.3 0 0 0 -0.3 0.3 -0.3 0 0 0 -0.3 0 0 0 0zm0 -0.59l0.59 -0.3 0 0 0 0 0 0 0 0.3 0 0 0 0 0 0 0 0 0 0 0 0 0 0 0 0 0 0 0 0.3 0 0 0 0 0 0 0 0 0 0 0 0 0 0 0 0 0 0.3 0 0 0 0 0 0 0 0 0 0 0 0 0 0 0 0 0 0.3 0 0 -0.59 -0.3 0 0 0 0 0.3 0 0 0 0 0 0 0 0 0 0 0 0 0 0 0 0 -0.3 0 0 0 0 0 0 0 0 0 0 0 0 0 0 0 0 -0.3 0 0 0 0 0 0 0 0 0 0 -0.3 0 0 0 0 0 0 0 0 0 0 0 0 0 0 0 0zm0 0l0 0 0 -0.3 0 0.3zm2.37 -8l0.3 0.3 0 0 -0.3 0.3 -0.3 0.3 -0.3 0 -0.3 0.3 0 0.3 -0.3 0 0 0.3 -0.3 0.3 -0.3 0 0 0.3 0 0.3 -0.3 0 0 0.3 -0.3 0.3 0 0.3 0 0 0 0.3 0 0.3 -0.3 0.3 0 0.3 0 0.3 0 0 0 0.3 0.3 0.3 0 0.3 0 0.3 0 0.3 0 0.3 0.3 0 0 0.3 0 0.3 0.3 0.3 -0.59 0.3 0 -0.3 -0.3 -0.3 0 -0.3 0 -0.3 -0.3 -0.3 0 -0.3 0 -0.3 0 -0.3 0 -0.3 0 -0.3 0 -0.3 0 0 0 -0.3 0 -0.3 0 -0.3 0 -0.3 0.3 -0.3 0 -0.3 0 -0.3 0.3 0 0 -0.3 0.3 -0.3 0 -0.3 0.3 0 0 -0.3 0.3 -0.3 0.3 -0.3 0 0 0.3 -0.3 0.3 -0.3 0.3 0 0.3 -0.3 0 0 0 0zm0.3 0.3l0 0 -0.59 0.3 0.59 -0.3zm0 -0.89l0.59 0 0 0 0 0 0 0 0 0 0 0.3 0 0 0 0 -0.3 0 0 0 0 0 0 0 0 0 0 0.3 0 0 0 0 0 0 0 0 0 0 0 0 0 0 0 0 0 0.3 0 0 -0.3 0 0 0 0 0 0 0 0 0 0 0 0 0 0 0 0 0 0 0 -0.3 -0.3 0 0 0 0 0 0 0 0 0 0 0 0 0 0 0 0 0 0 0 0 0 0 0 -0.3 0 0 0 0 0.3 0 0 0 0 0 0 0 0 0 0 0 0 0 0 0 0 0 0 -0.3 0 0 0 0 0 0 0 0 0 0 0 0 0 0 0 0 0 0 0 0zm0 0l0 0 0 0 0 0zm4.44 -5.04l0 0.3 0 0 0 0.3 -0.3 0 -0.3 0 -0.3 0 0 0.3 -0.3 0 -0.3 0 0 0.3 -0.3 0 0 0 -0.3 0.3 0 0 -0.3 0 0 0.3 -0.3 0 0 0.3 -0.3 0 0 0.3 0 0 -0.3 0.3 0 0 0 0.3 -0.3 0.3 0 0 0 0.3 0 0.3 -0.3 0 0 0.3 0 0.3 0 0.3 0 0 0 0.3 -0.59 0 0 -0.3 0 -0.3 0 -0.3 0.3 0 0 -0.3 0 -0.3 0 -0.3 0 0 0.3 -0.3 0 -0.3 0 0 0.3 -0.3 0 -0.3 0.3 0 0 -0.3 0 0 0.3 -0.3 0 0 0.3 -0.3 0.3 0 0 -0.3 0.3 0 0 -0.3 0.3 0 0.3 0 0 -0.3 0.3 0 0.3 0 0.3 -0.3 0 0 0.3 0 0.3 0 0 0 0 0zm0 0l0 0 0 0 0 0zm0.59 -0.59l0.59 0 0 0 -0.3 0 0 0.3 0 0 0 0 0 0 0 0 0 0 0 0 0 0 0 0.3 0 0 0 0 0 0 0 0 -0.3 0 0 0 0 0 0 0 0 0 0 0.3 0 0 0 0 0 0 -0.3 0 0 0 0 0 0 0 0 0 0 0 0 0 0 0 -0.3 0 0 -0.3 0 0 0 0 0 0 0 0 0 0 0 0 0.3 0 0 -0.3 0 0 0 0 0 0 0 0 0 0 0 0 0 0 0 0 0 0 0 0 0 0 0 0 0.3 0 0 0 0 -0.3 0 0 0 0 0 0 0 0 0 0 0 0 0 0 0 0 0 0 0 0 0 0zm0 0l0 0 0 0 0 0zm7.41 -4.44l-0.3 0.59 0 0 -0.3 -0.3 -0.3 0 -0.3 0 -0.3 0 0 0 -0.3 0 -0.3 0 -0.3 0 -0.3 0.3 -0.3 0 -0.3 0 -0.3 0 -0.3 0.3 0 0 -0.3 0 -0.3 0.3 -0.3 0 0 0.3 -0.3 0 -0.3 0.3 0 0 -0.3 0.3 -0.3 0.3 0 0 -0.3 0.3 0 0.3 -0.3 0.3 0 0.3 0 0.3 -0.3 0 0 0.3 0 0.3 -0.59 0 0 -0.3 0.3 -0.3 0 -0.3 0 -0.3 0.3 -0.3 0 -0.3 0.3 -0.3 0.3 -0.3 0 0 0.3 -0.3 0.3 -0.3 0 0 0.3 -0.3 0.3 -0.3 0 0 0.3 -0.3 0.3 0 0.3 -0.3 0.3 0 0.3 0 0.3 -0.3 0.3 0 0.3 0 0.3 0 0 0 0.3 0 0.3 -0.3 0.59 0 0.3 0.3 0.3 0 0.3 0 0.3 0 0 0 0 0zm-0.3 0.59l0 0 0 0 0 0zm1.19 -0.89l0.3 0.3 0 0 0 0 0 0.3 -0.3 0 0 0 0 0 0 0 0 0 0 0 0 0 0 0 -0.3 0 0 0 0 0 0 0 0 0 0 0 0 0 -0.3 0.3 0 0 0 0 0 0 0 0 0 0 0 0 -0.3 0 0 0 0 0 0 0 0 0 0 0 0 0 -0.3 0 0.3 -0.59 0 0 0 0 0 0 0 0 0 0 0 0 0 0 0 0 0 0 0.3 0 0 0 0 0 0 0 0 0 0 0 0 0 0 0 0 0 0.3 0 0 0 0 0 0 0 0 0 0 0 0 -0.3 0 0 0 0 0 0 0 0 0 0 0.3 0 0 0 0 0 0 0zm7.71 0l-0.59 0.59 0 0 0 -0.3 -0.3 -0.3 -0.3 0 0 -0.3 -0.3 0 -0.3 -0.3 0 0 -0.3 0 -0.3 -0.3 -0.3 0 0 0 -0.3 0 -0.3 0 -0.3 0 -0.3 -0.3 0 0 -0.3 0 -0.3 0 -0.3 0.3 -0.3 0 0 0 -0.3 0 -0.3 0 -0.3 0.3 0 0 -0.3 0 -0.3 0.3 -0.3 0 0 0.3 -0.3 0 -0.3 0.3 0 0 -0.3 -0.3 0 -0.3 0.3 0 0.3 -0.3 0.3 0 0 -0.3 0.3 0 0.3 -0.3 0.3 0 0.3 0 0 -0.3 0.3 0 0.3 0 0.3 0 0.3 0 0.3 0 0.3 0 0 0 0.3 0 0.3 0 0.3 0 0.3 0 0.3 0.3 0.3 0 0 0 0.3 0.3 0.3 0 0.3 0 0.3 0.3 0 0 0.3 0.3 0.3 0.3 0.3 0 0 0 0 0zm-0.59 0.59l0 0 0 0 0 0zm1.19 -0.3l0 0.59 0 0 0 0 0 0 0 0 0 0 0 0 -0.3 0 0 0 0 0 0 0 0 0 0 0 0 0 0 0 -0.3 0 0 0 0 0 0 0 0 0 0 -0.3 0 0 0 0 -0.3 0 0 0 0 0 0 0 0 0 0 0 0 0 0 0 0 0 0 0 -0.3 0 0.59 -0.59 0 0 0 0 0 0 0 0.3 0 0 0 0 0 0 0 0 0 0 0 0 0 0 0 0 0.3 0 0 0 0 0 0 0 0 0 0 0 0 0 0 0 0 0 0 0 0 0 0 0 0.3 0 0 0 0 0 0 0 0 0 0 0 0 0 0 0 0 0 -0 0zm0 0.59l0 0 0 0 0 0zm4.74 0.3l0.3 0.3 -0.3 0 -0.3 0 0 -0.3 -0.3 0 0 0 -0.3 0 0 -0.3 -0.3 0 0 0 -0.3 0 0 0 -0.3 0 0 -0.3 -0.3 0 0 0 0 0 -0.3 0 0 0 -0.3 0 0 0 0 0 -0.3 0 0 0 -0.3 0 0 0 -0.3 0 0 0 -0.3 0 0 0 -0.3 0.3 0 0 -0.3 0 -0.3 0 0 -0.59 0.3 0 0 0 0.3 0 0 0 0.3 0 0.3 0 0 0 0.3 -0.3 0 0 0.3 0 0 0 0.3 0 0 0 0.3 0 0 0 0 0 0.3 0.3 0 0 0.3 0 0 0 0.3 0 0 0 0.3 0 0 0 0.3 0.3 0 0 0.3 0 0 0 0.3 0.3 0.3 0 0 0 0.3 0 -0.3 0.3 0 0zm0.3 0.3l0 0 -0.3 0 0.3 0zm4.44 -2.07l0 0.59 0 0 0 0 -0.3 0 -0.3 0 0 -0.3 -0.3 0 0 0 -0.3 0 0 0.3 -0.3 0 0 0 -0.3 0 0 0 -0.3 0 0 0 -0.3 0 0 0 -0.3 0.3 0 0 0 0 -0.3 0 0 0 -0.3 0.3 0 0 -0.3 0 0 0 -0.3 0.3 0 0 0 0 -0.3 0.3 0 0 -0.3 0 0 0.3 -0.3 -0.3 0 -0.3 0.3 0 0 -0.3 0.3 0 0 0 0 -0.3 0.3 0 0 0 0.3 -0.3 0 0 0.3 0 0 0 0.3 -0.3 0 0 0.3 0 0 0 0.3 0 0 -0.3 0.3 0 0 0 0.3 0 0.3 0 0 0 0.3 0 0 0 0.3 0 0 0 0.3 0 0.3 0 0 0 0.3 0 0 0 0 0 0 -0zm3.56 2.37l-0.3 0.3 0 0 -0.3 0 0 -0.3 0 0 0 0 -0.3 -0.3 0 0 0 0 0 -0.3 -0.3 0 0 0 0 -0.3 0 0 -0.3 0 0 0 0 -0.3 -0.3 0 0 0 0 0 -0.3 0 0 -0.3 0 0 -0.3 0 0 0 -0.3 0 0 0 0 -0.3 -0.3 0 0 0 -0.3 0 0 0 0 0 -0.3 0 0 -0.59 0.3 0 0 0 0.3 0 0 0.3 0.3 0 0 0 0.3 0 0 0 0 0 0.3 0.3 0 0 0.3 0 0 0 0 0 0.3 0.3 0 0 0.3 0 0 0 0 0.3 0.3 0 0 0 0 0.3 0.3 0 0 0 0 0 0 0.3 0.3 0 0 0.3 0 0 0.3 0 0 0.3 0 0 0 0 0 0zm0 0l0 0 0 0 0 0zm1.19 0.59l-0.3 0.59 0 0 0 0 0 0 0 0 0 -0.3 -0.3 0 0 0 0 0 0 0 0 0 0 0 -0.3 0 0 0 0 0 0 0 0 0 0 0 0 0 -0.3 0 0 0 0 0 0 -0.3 0 0 0 0 0 0 0 0 -0.3 0 0 0 0 0 0 -0.3 0 0 0 0 0 0 0.3 -0.3 0 0 0 0 0 0 0 0.3 0.3 0 0 0 0 0 0 0 0 0 0 0 0 0 0 0 0 0 0 0 0 0 0 0 0.3 0 0 0 0 0.3 0 0 0 0 0 0 0 0 0 0 0.3 0 0 0 0 0 0 0 0 0 0 0 0 0 0.3 0 0 0 0 0zm3.85 -0.3l0.3 0.3 0 0 -0.3 0.3 0 0 0 0 -0.3 0 0 0 -0.3 0 0 0 -0.3 0.3 0 0 -0.3 0 0 0 -0.3 0 0 0 0 0 -0.3 0 0 0 -0.3 0 0 0 -0.3 0 0 0 -0.3 0 0 0 -0.3 0 0 0 -0.3 0 0 0 0 0 -0.3 0 0 0 -0.3 0 0 0 -0.3 0 0.3 -0.59 0 0 0 0 0.3 0 0 0 0.3 0.3 0 0 0.3 0 0 0 0 0 0.3 0 0 0 0.3 0 0 0 0.3 0 0 0 0 0 0.3 -0.3 0 0 0.3 0 0 0 0.3 0 0 0 0 0 0.3 0 0 0 0.3 0 0 0 0.3 -0.3 0 0 0 0 0.3 0 0 0 0 0 0 0zm6.82 5.04l-0.59 0 0 0 0 -0.3 0 -0.3 0 -0.3 -0.3 -0.3 0 -0.3 0 -0.3 0 0 -0.3 -0.3 0 -0.3 -0.3 -0.3 0 -0.3 -0.3 0 0 -0.3 -0.3 -0.3 -0.3 0 0 -0.3 -0.3 0 -0.3 -0.3 -0.3 0 0 -0.3 -0.3 0 -0.3 -0.3 -0.3 0 -0.3 0 -0.3 0 -0.3 0 0 0 -0.3 0 -0.3 0 -0.3 0 -0.3 0 -0.3 0 -0.3 -0.3 0.3 0 0.3 -0.3 0.59 0 0.3 0 0.3 0 0.3 0 0.3 0 0.3 0 0.3 0.3 0 0 0.3 0 0.3 0.3 0.3 0 0.3 0.3 0.3 0 0.3 0.3 0 0 0.3 0.3 0.3 0.3 0 0.3 0.3 0 0.3 0.3 0 0.3 0.3 0.3 0 0.3 0 0.3 0.3 0.3 0 0.3 0 0.3 0 0.3 0.3 0.3 0 0.3 0 0zm0.3 1.19l-0.3 0.3 0 0 0 0 0 0 0 0 0 0 -0.3 0 0 0 0 -0.3 0 0 0 0 0 0 0 0 0 0 0 -0.3 0 0 0 0 0 0 -0.3 0 0 0 0 -0.3 0 0 0 0 0 0 0 0 0 0 0 -0.3 0 0 0 0 0 0 0 0 0 0 0 -0.3 0 0 0.59 0 0 0 0 0 0 0.3 0 0 0 0 0 0 0 0 0 0 0 0 0 0 0 0.3 0 0 0 0 0 0 0 0 0 0 0 0 0 0.3 0 0 0 0 0 0 0 0 0.3 0 0 0 0 0.3 0 0 0 0 0 0 0 0 0 0 0 0 0 0 0 0 0 0zm0.59 6.22l-0.59 -0.3 0 0 0.3 0 0 -0.3 0 0 0 -0.3 0.3 -0.3 0 0 0 -0.3 0 0 0 -0.3 0 -0.3 0.3 0 0 -0.3 0 -0.3 0 0 0 -0.3 0 0 0 -0.3 -0.3 -0.3 0 0 0 -0.3 0 0 0 -0.3 0 -0.3 -0.3 0 0 -0.3 0 0 0 -0.3 -0.3 0 0 -0.3 0 -0.3 -0.3 0 0 -0.3 0.3 -0.3 0.3 0.3 0 0 0 0.3 0.3 0.3 0 0 0 0.3 0.3 0.3 0 0 0 0.3 0 0 0.3 0.3 0 0.3 0 0 0 0.3 0 0.3 0 0.3 0 0 0 0.3 0 0.3 0 0 0 0.3 0 0.3 0 0 0 0.3 0 0.3 -0.3 0 0 0.3 0 0.3 0 0 -0.3 0.3 0 0.3 0 0 0 0 0 0zm0 0l0 0 -0.3 0.3 0.3 -0.3zm-0.3 0.89l-0.59 0 0 0 0 0 0 0 0 0 0 0 0 -0.3 0 0 0 0 0 0 0 0 0 0 0 0 0 0 0 -0.3 0 0 0 0 0 0 0.3 0 0 0 0 0 0 0 0 0 0 -0.3 0 0 0 0 0 0 0 0 0 0 0 0 0 0 0 0 0 -0.3 0 0 0.59 0.3 0 0 0 0 0 0.3 0 0 0 0 -0.3 0 0 0 0 0 0 0 0 0 0 0 0 0 0 0 0 0.3 0 0 0 0 0 0 0 0 0 0 0 0 0 0 0 0 0 0 0 0 0 0.3 0 0 0 0 0 0 0 0 0 0 0 0 0 0 0 0zm-0.59 0l0 0 0 0 0 0zm-2.96 5.63l-0.3 0 0 -0.3 0.3 0 0.3 -0.3 0 0 0.3 -0.3 0.3 0 0 -0.3 0.3 0 0 0 0.3 -0.3 0 0 0.3 -0.3 0 0 0.3 -0.3 0 0 0 -0.3 0.3 0 0 -0.3 0 0 0 -0.3 0.3 0 0 -0.3 0 0 0 -0.3 0 -0.3 0 0 0.3 -0.3 0 -0.3 0 0 0 -0.3 0 -0.3 0 -0.3 0 -0.3 0.59 0 0 0.3 0 0.3 0 0.3 -0.3 0.3 0 0.3 0 0 0 0.3 0 0.3 0 0 0 0.3 -0.3 0.3 0 0 0 0.3 0 0.3 -0.3 0 0 0.3 0 0 -0.3 0.3 0 0 0 0.3 -0.3 0 0 0.3 -0.3 0 0 0.3 -0.3 0 -0.3 0.3 0 0 -0.3 0.3 -0.3 0 0 0.3 -0.3 0 -0.3 0.3 0 -0.3 0 0zm-0.3 0l0 -0.3 0 0 0 0.3zm0.89 1.78l-0.59 0 0 0 0 0 0 0 0 0 0 0 0 -0.3 0 0 0 0 0 0 0 0 0 -0.3 0 0 0 0 0 0 -0.3 0 0 -0.3 0 0 0 0 0 0 0 0 0 -0.3 0 0 0 0 0 0 0 0 0 -0.3 0 0 0 0 0 0 0 0 0 -0.3 0 0 0 0 0.3 0 0 0 0 0 0 0 0 0 0.3 0.3 0 0 0 0 0 0 0 0 0 0.3 0 0 0 0 0 0 0 0 0 0.3 0 0 0 0 0 0 0 0 0 0.3 0 0 0 0 0 0 0 0 0 0.3 0 0 0.3 0 0 0 0 0 0 0.3 0 0 0 0 0 0 0 0zm-1.48 4.45l-0.3 -0.59 0 0 0 0 0.3 0 0 -0.3 0 0 0.3 0 0 -0.3 0 0 0 0 0.3 -0.3 0 0 0 0 0 -0.3 0.3 0 0 -0.3 0 0 0 0 0 -0.3 0 0 0 -0.3 0 0 0 0 0.3 -0.3 0 0 0 -0.3 0 0 0 -0.3 0 0 -0.3 -0.3 0 0 0 -0.3 0 0 0 -0.3 0.59 0 0 0.3 0 0 0 0.3 0 0 0 0.3 0 0 0 0.3 0 0 0 0.3 0 0 0 0.3 0 0 0 0.3 0 0 0 0.3 0 0 -0.3 0.3 0 0 0 0 0 0.3 0 0 -0.3 0.3 0 0 0 0.3 0 0 -0.3 0 0 0.3 0 0 -0.3 0.3 0 0 -0.3 0 0 0.3 0 0 0 0zm-0.3 2.07l-0.59 0 0 0 0 0 0 0 0 -0.3 0 0 0 0 0 -0.3 -0.3 0 0 0 0 0 0 -0.3 0 0 0 0 0 -0.3 0 0 0 0 0 0 0 -0.3 0 0 0.3 0 0 -0.3 0 0 0 0 0 0 0 -0.3 0 0 0.3 0 0 0 0 -0.3 0 0 0 0 0.3 0 0 -0.3 0.3 0.59 0 0 0 0 -0.3 0 0 0 0 0.3 0 0 0 0 0 0 -0.3 0 0 0.3 0 0 0 0 0 0 0 0 0 0.3 0 0 0 0 0 0 0 0 0 0.3 0 0 0 0 0 0 0 0.3 0 0 0 0 0 0 0 0.3 0 0 0.3 0 0 0 0 0.3 0 0 0 -0zm1.48 4.74l-0.59 0.3 0 0 0 -0.3 0 0 0 -0.3 0 -0.3 0 0 0 -0.3 -0.3 0 0 -0.3 0 0 0 -0.3 0 0 0 -0.3 0 0 -0.3 -0.3 0 0 0 -0.3 0 0 0 -0.3 0 0 -0.3 -0.3 0 0 0 -0.3 0 0 0 -0.3 0 0 -0.3 -0.3 0 0 0 -0.3 0 0 0 -0.3 -0.3 0 0 -0.3 0.59 0 0 0 0 0.3 0 0 0 0.3 0.3 0 0 0.3 0 0 0 0.3 0 0 0.3 0.3 0 0 0 0.3 0 0 0 0.3 0.3 0 0 0.3 0 0 0 0.3 0 0 0 0.3 0 0 0.3 0.3 0 0 0 0.3 0 0 0 0.3 0 0.3 0.3 0 0 0.3 0 0 0 0.3 0 0 0 0zm0 3.26l-0.59 -0.3 0 0 0 0 0 0 0 -0.3 0 0 0.3 0 0 -0.3 0 0 0 0 0 -0.3 0 0 0 0 0 0 0 -0.3 0 0 0 0 0 -0.3 0 0 0 0 0 -0.3 0 0 0 0 0 -0.3 0 0 0 0 0 0 0 -0.3 0 0 0 0 0 -0.3 0 0 -0.3 0 0 0 0.59 -0.3 0 0 0 0.3 0 0 0 0 0 0.3 0 0 0 0 0 0.3 0 0 0 0 0 0.3 0.3 0 0 0 0 0.3 0 0 0 0 -0.3 0.3 0 0 0 0 0 0.3 0 0 0 0 0 0.3 0 0 0 0 0 0.3 0 0 0 0 0 0.3 0 0 0 0 0 0.3 0 0zm-2.96 2.07l-0.59 0 0.3 -0.3 0 0 0.3 0 0 0 0.3 0 0 0 0 0 0.3 -0.3 0 0 0.3 0 0 0 0 0 0.3 0 0 0 0 -0.3 0.3 0 0 0 0 0 0 0 0.3 -0.3 0 0 0 0 0.3 0 0 -0.3 0 0 0 0 0 -0.3 0.3 0 0 0 0 -0.3 0 0 0 0 0 -0.3 0.59 0.3 0 0 0 0 -0.3 0.3 0 0 0 0.3 0 0 0 0.3 -0.3 0 0 0 0 0.3 -0.3 0 0 0 0 0.3 0 0 -0.3 0 0 0 -0.3 0.3 0 0 0 0 -0.3 0 0 0 -0.3 0.3 0 0 0 0 -0.3 0 0 0 -0.3 0 0 0 -0.3 0 0 0 -0.3 0.3 0 0 0.3 -0.3zm-0.59 0l0 -0.3 0.3 0 -0.3 0.3zm-0.89 5.33l-0.3 -0.3 0 0 0 -0.3 0 0 0.3 -0.3 0 0 0 -0.3 0 0 0.3 -0.3 0 0 0 -0.3 0 0 0 -0.3 0 0 0.3 -0.3 0 0 0 -0.3 0 0 0 -0.3 0 0 0.3 -0.3 0 0 0 -0.3 0 -0.3 0 0 0 -0.3 0 0 0 -0.3 0 0 0 -0.3 0 0 0 -0.3 0 -0.3 0 0 0.59 0 0 0 0 0.3 0 0.3 0 0 0 0.3 0 0 0 0.3 0 0.3 0 0 0 0.3 -0.3 0 0 0.3 0 0 0 0.3 0 0.3 0 0 0 0.3 -0.3 0 0 0.3 0 0 0 0.3 0 0 -0.3 0.3 0 0 0 0.3 0 0.3 0 0 -0.3 0.3 0 0 0 0.3 0 0 -0.3 0.3 0 0 -0 0zm0 0.89l-0.3 0 0 0 0 0 0 0 0 0 0 0 0 0 -0.3 0 0 -0.3 0 0 0 0 0 0 0 0 0 0 0 0 0 -0.3 0 0 0 0 0 0 0 0 0.3 0 0 0 0 -0.3 0 0 0 0 0 0 0 0 0 0 0 0 0 0 0 -0.3 0 0 0 0 0 0 0.3 0.3 0 0 0 0 0 0 0 0 0 0 0 0 0 0 0 0 0 0.3 0 0 0 0 0 0 0 0 0 0 0 0 0 0 0 0 0 0 0 0.3 0 0 0 0 0 0 0 0 0 0 0 0 0 0 0 0 0 0.3 0 0 0 0 0 0 0 0 0 0zm-4.15 5.63l0 -0.59 0 0 0.3 0 0.3 0 0.3 -0.3 0.3 0 0.3 0 0.3 0 0 0 0.3 -0.3 0.3 0 0 0 0.3 -0.3 0.3 0 0 -0.3 0 0 0.3 0 0 -0.3 0.3 0 0 -0.3 0 0 0 -0.3 0.3 -0.3 0 0 0 -0.3 0 -0.3 0 0 0 -0.3 0 -0.3 0 -0.3 0 -0.3 0 -0.3 0 -0.3 0 -0.3 0.3 0 0 0.3 0.3 0.3 0 0.3 0 0.3 0 0.3 0 0.3 0 0.3 0 0.3 0 0 -0.3 0.3 0 0.3 0 0.3 0 0 -0.3 0.3 0 0.3 0 0 -0.3 0.3 0 0 -0.3 0.3 0 0 -0.3 0.3 -0.3 0 0 0 -0.3 0.3 -0.3 0 -0.3 0 -0.3 0.3 -0.3 0 0 0 -0.3 0 -0.3 0 -0.59 0.3 0 0 0 0zm-0.89 -0.3l-0.3 0 0 -0.3 0 0 0.3 0 0 0 0 0 0 0 0 0 0 0 0 0 0 0 0.3 0 0 0 0 0 0 0 0 0 0 0 0 0 0 0 0.3 0 0 0 0 0 0 0 0 0 0 0 0 0 0 0 0.3 0 0 0 0 0 0 0 0 0 0 0 0 0 0 0.59 0 0 0 0 0 0 0 0 0 0 0 0 0 0 -0.3 0 0 0 0 0 0 0 0 0 0 0 0 0 0 0 -0.3 0 0 0 0 0 0 0 0 0 0 0 0 0 0 0 -0.3 0 0 0 0 0 0 0 0 0 0 0 0 0 0 0 -0.3 0 0.3 -0.3 0 0zm-0.3 0l-0.3 -0.3 0.3 0 0 0.3zm4.45 2.67l0 0.59 0 0 0 0 -0.3 0 -0.3 -0.3 0 0 -0.3 0 -0.3 0 0 0 -0.3 0 -0.3 -0.3 0 0 -0.3 0 0 0 -0.3 -0.3 0 0 -0.3 0 -0.3 0 0 -0.3 -0.3 0 0 0 0 -0.3 -0.3 0 0 -0.3 -0.3 0 0 -0.3 0 0 -0.3 -0.3 0 0 0 0 -0.3 -0.3 0 -0.3 0 0 0 -0.3 0.3 0 0 0 0.3 0.3 0 0 0 0.3 0 0 0.3 0.3 0 0 0 0 0 0.3 0.3 0 0 0.3 0.3 0 0 0 0 0.3 0.3 0 0 0 0.3 0 0 0.3 0.3 0 0 0 0.3 0 0 0.3 0.3 0 0.3 0 0 0 0.3 0 0 0.3 0.3 0 0.3 0 0 0 0.3 0 0 0 0 0 0 0zm6.81 0.59l0 0.59 0 0 -0.3 0 0 -0.3 -0.3 0 -0.3 0 0 0 -0.3 0 -0.3 0 -0.3 0 0 0 -0.3 0 -0.3 0 0 0 -0.3 0 -0.3 0 -0.3 0 0 0 -0.3 -0.3 -0.3 0 0 0 -0.3 0 -0.3 0 -0.3 0 0 0 -0.3 0 -0.3 0 0 0 -0.3 0 -0.3 0 -0.3 0 0 0 -0.3 0 -0.3 0 0 -0.59 0.3 0 0.3 0 0.3 0 0 0 0.3 0 0.3 0 0 0 0.3 0 0.3 0 0.3 0.3 0 0 0.3 0 0.3 0 0 0 0.3 0 0.3 0 0.3 0 0 0 0.3 0 0.3 0 0 0 0.3 0 0.3 0 0.3 0 0 0 0.3 0.3 0.3 0 0 0 0.3 0 0.3 0 0.3 0 0 0 0 0zm4.15 4.74l-0.3 0 0 0 0 -0.3 0 0 -0.3 -0.3 0 -0.3 0 -0.3 0 0 0 -0.3 0 -0.3 0 0 -0.3 -0.3 0 0 0 -0.3 0 -0.3 -0.3 0 0 -0.3 0 0 -0.3 0 0 -0.3 -0.3 0 0 -0.3 -0.3 0 0 0 -0.3 -0.3 0 0 -0.3 0 -0.3 0 0 -0.3 -0.3 0 -0.3 0 0 0 -0.3 0 -0.3 0 0 -0.59 0.3 0 0.3 0 0.3 0 0.3 0.3 0 0 0.3 0 0.3 0 0 0.3 0.3 0 0.3 0 0 0.3 0.3 0 0 0 0.3 0.3 0 0 0.3 0.3 0 0 0.3 0.3 0 0.3 0 0 0.3 0.3 0 0 0 0.3 0 0.3 0.3 0.3 0 0 0 0.3 0 0.3 0 0.3 0 0 0 0.3 0 0.3 0 0 0 0zm-5.93 15.41l-0.3 -0.3 0 0 0.3 -0.3 0.3 -0.59 0.3 -0.3 0.3 -0.3 0.3 -0.59 0.3 -0.3 0.3 -0.59 0.3 -0.3 0.3 -0.59 0.3 -0.3 0 -0.59 0.3 -0.3 0.3 -0.59 0.3 -0.3 0 -0.59 0.3 -0.59 0.3 -0.3 0 -0.59 0.3 -0.3 0 -0.59 0.3 -0.59 0 -0.3 0.3 -0.59 0 -0.59 0 -0.59 0.3 -0.3 0 -0.59 0 -0.59 0 -0.3 0 -0.59 0 -0.59 0.3 -0.59 0.3 0 0 0.59 0 0.59 0 0.59 0 0.3 -0.3 0.59 0 0.59 0 0.59 0 0.59 -0.3 0.3 0 0.59 -0.3 0.59 0 0.3 -0.3 0.59 0 0.59 -0.3 0.3 0 0.59 -0.3 0.59 -0.3 0.3 -0.3 0.59 0 0.3 -0.3 0.59 -0.3 0.59 -0.3 0.3 -0.3 0.59 -0.3 0.3 -0.3 0.59 -0.3 0.3 -0.3 0.59 -0.3 0.3 -0.3 0.3 -0.3 0.59 -0.3 0.3 0 0 0 -0zm-10.67 7.11l-0.3 -0.59 0 0 0.59 0 0.3 0 0.3 -0.3 0.3 0 0.59 -0.3 0.3 0 0.3 -0.3 0.3 -0.3 0.59 0 0.3 -0.3 0.3 0 0.3 -0.3 0.3 -0.3 0.3 0 0.59 -0.3 0.3 -0.3 0.3 0 0.3 -0.3 0.3 -0.3 0.3 -0.3 0.3 -0.3 0.3 0 0.3 -0.3 0.3 -0.3 0.3 -0.3 0.3 -0.3 0.3 -0.3 0.3 -0.3 0.3 -0.3 0.3 -0.3 0.3 -0.3 0.3 -0.3 0.3 0.3 -0.3 0.3 -0.3 0.3 -0.3 0.3 -0.3 0.3 -0.3 0.3 -0.3 0.3 -0.3 0.3 -0.3 0.3 -0.3 0.3 -0.3 0.3 -0.3 0.3 -0.3 0.3 -0.3 0 -0.3 0.3 -0.3 0.3 -0.3 0.3 -0.59 0 -0.3 0.3 -0.3 0.3 -0.3 0 -0.3 0.3 -0.3 0.3 -0.59 0 -0.3 0.3 -0.3 0.3 -0.3 0 -0.59 0.3 -0.3 0 -0.3 0.3 -0.3 0 -0.59 0.3 -0.3 0 0 0 0 0zm-0.59 0.89l-0.59 0 0 0 0 0 0 0 0 -0.3 0 0 0 0 0 0 0 0 0 -0.3 0 0 0 0 0 0 0 0 0 0 0.3 -0.3 0 0 0 0 0 0 0 0 0 0 0 0 0 -0.3 0.3 0 0 0 0 0 0 0 0 0 0 0 0.3 0 0 0 0 0 0 0 0 -0.3 0.3 0.59 0 0 0 0 -0.3 0 0 0 0 0 0 0 0 0.3 0 0 0 0 0 0 -0.3 0 0 0 0 0 0 0 0 0 0 0 0 0 0 0 0 0 0 0 0 0.3 0 0 0 0 0 0 0 0 0 0 0 0 0 0 0 0.3 0 0 0 0 0 0 0 0 0 -0zm-0.3 4.15l0 0.59 -0.3 -0.3 0 -0.3 0 0 0 -0.3 0 0 0 -0.3 0 0 0 -0.3 0 0 0 -0.3 0 0 0 -0.3 0 0 0 0 0 -0.3 0 0 0 -0.3 0 0 0 -0.3 0 0 0 -0.3 0 0 0 -0.3 0 0 0 0 0 -0.3 0 0 0 -0.3 0 0 0 -0.3 0 0 0 0 0 -0.3 0.59 0 0 0 0 0.3 0 0 0 0.3 0 0 0 0.3 0 0 0 0.3 0 0 0 0 0 0.3 0 0 0 0.3 0 0 0 0.3 0 0 0 0.3 0 0 0 0.3 0 0 0 0 0 0.3 0 0 0 0.3 0 0 0 0.3 0 0 0 0.3 0 0 0 0.3 0 0 0 0.3 -0.3 -0.3 -0 0zm0 0.59l-0.3 0 0 -0.3 0.3 0.3zm1.19 -0.59l0 0.59 0 0 0 0 0 0 0 0 0 0 -0.3 0 0 0 0 0 0 0 0 0 0 0 0 0 0 0 -0.3 0 0 0 0 0 0 0 0 0 0 0 0 0 0 0 -0.3 0 0 0 0 0 0 0 0 0 0 0 0 0 -0.3 0 0 0 0 0 0 0 0 0 0 -0.59 0 0 0 0 0 0 0 0 0.3 0 0 0 0 0 0 0 0 0 0 0 0 0 0.3 0 0 0 0 0 0 0 0 0 0 0 0 0 0 0 0.3 0 0 0 0 0 0 0 0 0 0 0 0 0 0 0 0.3 0 0 0 0 0 0 0 0 0 0 0zm0 0l0 0 0 0 0 0zm6.52 0.3l0 0.3 0 0 -0.3 0 0 0 -0.3 0 -0.3 0 0 0 -0.3 0 -0.3 0 0 0 -0.3 0 -0.3 0 0 0 -0.3 0 -0.3 0 0 0 -0.3 0 -0.3 0 -0.3 0 0 0 -0.3 0 -0.3 0 0 0 -0.3 0 -0.3 0 0 0 -0.3 0 -0.3 0 0 0 -0.3 0 -0.3 0 -0.3 0 0 0 -0.3 0 0 -0.59 0.3 0 0 0 0.3 0 0.3 0 0.3 0 0 0 0.3 0 0.3 0 0 0 0.3 0 0.3 0 0 0 0.3 0 0.3 0 0 0 0.3 0 0.3 0 0.3 0 0 0 0.3 0 0.3 0 0 0 0.3 0 0.3 0 0.3 0 0 0 0.3 0 0.3 0 0 0 0.3 0 0.3 0.3 0 0 0 0 0 0zm6.22 7.7l-0.59 0 0 0 0.3 -0.3 -0.3 -0.3 0 -0.3 0 -0.3 0 -0.3 0 -0.3 0 -0.3 -0.3 -0.3 0 -0.3 0 -0.3 -0.3 -0.3 0 -0.3 -0.3 -0.3 0 -0.3 -0.3 -0.3 0 -0.3 -0.3 -0.3 -0.3 -0.3 -0.3 0 0 -0.3 -0.3 -0.3 -0.3 -0.3 -0.3 0 -0.3 -0.3 -0.3 0 -0.3 -0.3 -0.3 0 -0.3 -0.3 -0.3 0 -0.3 0 -0.3 -0.3 -0.3 0 0 -0.3 0.59 0 0.3 0 0.3 0 0.3 0.3 0.3 0 0.3 0.3 0.3 0 0.3 0.3 0.3 0 0.3 0.3 0.3 0.3 0.3 0.3 0.3 0 0 0.3 0.3 0.3 0.3 0.3 0.3 0.3 0 0.3 0.3 0.3 0 0.3 0.3 0.3 0 0.3 0.3 0.3 0 0.3 0 0.3 0.3 0.3 0 0.3 0 0.59 0 0.3 0 0.3 0 0.3 0 0.3 0 0 0 0zm-2.96 3.26l0 -0.59 0 0 0 0 0.3 0 0 0 0.3 0 0 0 0.3 -0.3 0 0 0 0 0.3 0 0 0 0 0 0.3 -0.3 0 0 0 0 0.3 0 0 -0.3 0 0 0 0 0.3 0 0 -0.3 0 0 0 0 0.3 -0.3 0 0 0 -0.3 0 0 0 0 0 -0.3 0 0 0 -0.3 0 0 0 -0.3 0.59 0 0 0.3 0 0.3 0 0 0 0.3 0 0 0 0.3 -0.3 0 0 0.3 0 0 0 0 0 0.3 -0.3 0 0 0.3 0 0 -0.3 0 0 0.3 0 0 -0.3 0 0 0.3 0 0 -0.3 0 0 0 -0.3 0.3 0 0 -0.3 0 0 0 0 0 -0.3 0 -0.3 0 0 0.3 -0.3 0 0 0 0 0 0 0zm0 -0.59l0 0 0 0 0 0zm-0.89 0.59l0 -0.59 0 0 0 0 0 0 0 0 0 0 0.3 0 0 0 0 0 0 0 0 0 0 0 0 0 0 0 0 0 0 0 0 0 0 0 0.3 0 0 0 0 0 0 0 0 0 0 0 0 0 0 0 0 0 0 0 0 0 0 0 0.3 0 0 0 0 0 0 0 0 0.59 0 0 0 0 0 0 0 0 -0.3 0 0 0 0 0 0 0 0 0 0 0 0 0 0 0 0 0 0 0 0 0 -0.3 0 0 0 0 0 0 0 0 0 0 0 0 0 0 0 0 0 0 0 0 0 0 0 -0.3 0 0 0 0 0 0 0 0 0 0 0zm-42.09 0l0 -0.59 0 0 1.48 0 1.19 0 1.48 0 1.19 0 1.48 0 1.19 0 1.19 0 1.48 0 1.19 0 1.48 0 1.19 0 1.48 0 1.19 0 1.19 0 1.48 0 1.19 0 1.48 0 1.19 0 1.48 0 1.19 0 1.19 0 1.48 0 1.19 0 1.48 0 1.19 0 1.48 0 1.19 0 1.19 0 1.48 0 1.19 0 1.48 0 1.19 0 0 0.59 -1.19 0 -1.48 0 -1.19 0 -1.48 0 -1.19 0 -1.19 0 -1.48 0 -1.19 0 -1.48 0 -1.19 0 -1.48 0 -1.19 0 -1.19 0 -1.48 0 -1.19 0 -1.48 0 -1.19 0 -1.48 0 -1.19 0 -1.19 0 -1.48 0 -1.19 0 -1.48 0 -1.19 0 -1.48 0 -1.19 0 -1.19 0 -1.48 0 -1.19 0 -1.48 0 -1.19 0 -1.48 0 0 0zm-3.85 -4.44l0.59 0 0 0 0 0.3 0 0.3 0 0 0 0.3 0 0.3 0 0 0 0.3 0 0 0 0.3 0 0.3 0.3 0 0 0.3 0 0 0 0.3 0.3 0 0 0.3 0 0 0.3 0 0 0.3 0 0 0.3 0 0 0.3 0.3 0 0 0 0.3 0 0.3 0.3 0 0 0.3 0 0.3 0 0.3 0 0.3 0 0 0 0 0.59 -0.3 0 0 0 -0.3 0 -0.3 -0.3 -0.3 0 -0.3 0 -0.3 0 0 0 -0.3 -0.3 0 0 -0.3 0 -0.3 -0.3 0 0 -0.3 -0.3 0 0 0 0 -0.3 -0.3 0 -0.3 0 0 -0.3 -0.3 0 0 0 -0.3 0 -0.3 0 0 -0.3 -0.3 0 -0.3 0 0 0 -0.3 0 -0.3 0 -0.3 0 0 0 -0.3 0 0 -0 0zm7.71 -6.82l0 0.59 0 0 -0.3 0 -0.3 0 -0.59 0 -0.3 0 -0.3 0 -0.3 0.3 -0.3 0 -0.3 0 -0.3 0.3 -0.3 0 -0.3 0.3 -0.3 0 -0.3 0.3 0 0 -0.3 0.3 -0.3 0.3 -0.3 0 -0.3 0.3 0 0.3 -0.3 0.3 -0.3 0.3 0 0.3 -0.3 0 0 0.3 -0.3 0.3 0 0.3 -0.3 0.59 0 0.3 0 0.3 0 0.3 -0.3 0.3 0 0.3 -0.59 0 0.3 -0.3 0 -0.59 0 -0.3 0.3 -0.3 0 -0.3 0 -0.3 0.3 -0.3 0 -0.3 0.3 -0.3 0 -0.3 0.3 -0.3 0.3 -0.3 0 -0.3 0.3 -0.3 0.3 -0.3 0.3 -0.3 0.3 0 0.3 -0.3 0 -0.3 0.3 0 0.3 -0.3 0.3 0 0.3 -0.3 0.3 0 0.59 -0.3 0.3 0 0.3 0 0.3 -0.3 0.3 0 0.3 0 0.59 0 0.3 0 0 0 0 0zm6.22 0.3l0.3 0 0 0 -0.3 0 -0.3 0 -0.3 0 0 0 -0.3 0 -0.3 0 0 0 -0.3 0 -0.3 0 0 0 -0.3 0 -0.3 0 0 0 -0.3 0 -0.3 0 0 0 -0.3 0 -0.3 0 0 0 -0.3 0 -0.3 0 0 0 -0.3 0 -0.3 0 0 0 -0.3 0 -0.3 0 0 0 -0.3 0 -0.3 0 0 0 -0.3 0.3 0 -0.59 0.3 0 0 0 0.3 0 0.3 0 0 0 0.3 0 0.3 0 0 0 0.3 0 0.3 0 0 0 0.3 0 0.3 0 0 0 0.3 0 0.3 0 0 0 0.3 0 0.3 0 0 0 0.3 0 0.3 0 0 0 0.3 0 0.3 0 0 0 0.3 0 0.3 0 0 0 0.3 0 0.3 0 0.3 0 -0.3 0.3 0 0zm0.3 0l0 0 0 0 0 0zm-0.3 -5.04l0.3 0 0 0 0 0.3 0 0 0 0.3 0 0 0 0.3 0 0 0 0.3 0 0 0 0.3 0 0 0 0.3 0 0 0 0.3 0 0 0 0.3 0 0 0 0.3 0 0 0 0.3 0 0 0 0.3 0 0 0 0.3 0 0 0 0.3 0 0 0 0.3 0 0 0 0.3 0 0.3 0 0 0 0.3 -0.3 0 0 -0.3 0 0 0 -0.3 0 -0.3 0 0 0 -0.3 0 0 0 -0.3 0 0 0 -0.3 0 0 0 -0.3 0 0 0 -0.3 0 0 0 -0.3 0 0 0 -0.3 0 0 0 -0.3 0 0 0 -0.3 0 0 0 -0.3 0 0 0 -0.3 0 0 0 -0.3 0 0 0 -0.3 0 0 0 -0.3 0 0zm0 0l0 0 0 0 0 0zm-0.89 -0.3l0.3 -0.59 0 0 0 0 0 0 0 0 0 0 0 0 0 0 0.3 0 0 0.3 0 0 0 0 0 0 0 0 0 0 0.3 0 0 0 0 0 0 0 0 0 0 0 0 0.3 0 0 0.3 0 0 0 0 0 0 0 0 0 0 0 0 0 0 0.3 0 0 0 0 0 0 -0.3 0 0 0 0 0 0 0 0 0 0 0 0 0 0 0 -0.3 0 0 0 0 0 0 0 0 0 0 0 0 0 0 0 0 0 0 -0.3 0 0 0 0 -0.3 0 0 0 0 0 0 0 0 0 0 0 0 0 0 0 0 0 -0.3 0 0 0 0 0 0 0 0 0 0 0zm0.3 -0.59l0 0 0 0 0 0zm-10.96 -5.33l0.3 -0.3 0 0 0.3 0.3 0.3 0.3 0.3 0.3 0.3 0 0.3 0.3 0.3 0.3 0.3 0.3 0.3 0 0.3 0.3 0.3 0.3 0.3 0 0.3 0.3 0.59 0.3 0.3 0 0.3 0.3 0.3 0 0.3 0.3 0.3 0.3 0.3 0 0.3 0.3 0.59 0 0.3 0.3 0.3 0 0.3 0.3 0.3 0 0.3 0.3 0.59 0 0.3 0 0.3 0.3 0.3 0 0.3 0.3 0.59 0 -0.3 0.59 -0.3 -0.3 -0.3 0 -0.59 -0.3 -0.3 0 -0.3 0 -0.3 -0.3 -0.3 0 -0.59 -0.3 -0.3 0 -0.3 -0.3 -0.3 0 -0.3 -0.3 -0.3 0 -0.59 -0.3 -0.3 -0.3 -0.3 0 -0.3 -0.3 -0.3 0 -0.3 -0.3 -0.3 -0.3 -0.3 0 -0.59 -0.3 -0.3 -0.3 -0.3 0 -0.3 -0.3 -0.3 -0.3 -0.3 -0.3 -0.3 0 -0.3 -0.3 -0.3 -0.3 -0.3 -0.3 -0.3 -0.3 0 0 0 0zm-5.34 -5.63l0.59 -0.3 0 0 0 0 0.3 0.3 0 0.3 0.3 0 0 0.3 0.3 0.3 0 0 0.3 0.3 0 0.3 0.3 0 0 0.3 0.3 0.3 0 0 0.3 0.3 0 0.3 0.3 0 0 0.3 0.3 0 0 0.3 0.3 0.3 0 0 0.3 0.3 0.3 0 0 0.3 0.3 0 0 0.3 0.3 0.3 0.3 0 0 0.3 0.3 0 0 0.3 0.3 0 -0.3 0.3 -0.3 0 0 -0.3 -0.3 0 -0.3 -0.3 0 0 -0.3 -0.3 0 0 -0.3 -0.3 -0.3 -0.3 0 0 -0.3 -0.3 0 0 -0.3 -0.3 0 -0.3 -0.3 0 -0.3 -0.3 0 0 -0.3 -0.3 0 -0.3 -0.3 0 0 -0.3 -0.3 -0.3 0 0 -0.3 -0.3 0 -0.3 -0.3 0 0 -0.3 -0.3 -0.3 0 0 -0.3 -0.3 0 -0.3 -0.3 0 0 0 -0 0zm1.78 -4.74l0 0.3 0 0 0 0 -0.3 0.3 0 0 -0.3 0 0 0.3 -0.3 0 0 0 -0.3 0.3 0 0 0 0 -0.3 0.3 0 0 0 0 0 0.3 -0.3 0 0 0.3 0 0 0 0.3 0 0 0 0 0 0.3 0 0 0 0.3 0 0 0 0.3 0 0 0.3 0.3 0 0 0 0.3 0 0.3 0.3 0 0 0.3 -0.59 0.3 0 -0.3 0 -0.3 -0.3 0 0 -0.3 0 -0.3 0 0 0 -0.3 -0.3 0 0 -0.3 0 0 0 -0.3 0 -0.3 0 0 0 -0.3 0.3 0 0 -0.3 0 0 0 -0.3 0 0 0.3 -0.3 0 0 0 -0.3 0.3 0 0 -0.3 0.3 0 0 0 0.3 -0.3 0 0 0.3 0 0 -0.3 0.3 0 0.3 0 0 0 0 0zm7.71 -5.04l0.3 0.3 0 0 0 0 -0.3 0.3 -0.3 0.3 -0.3 0.3 0 0 -0.3 0.3 -0.3 0.3 -0.3 0 0 0.3 -0.3 0.3 -0.3 0 -0.3 0.3 -0.3 0 -0.3 0.3 0 0 -0.3 0.3 -0.3 0 -0.3 0.3 -0.3 0.3 -0.3 0 -0.3 0 -0.3 0.3 0 0 -0.3 0.3 -0.3 0 -0.3 0.3 -0.3 0 -0.3 0.3 -0.3 0 -0.3 0 -0.3 0.3 -0.3 0 0 -0.3 0.3 -0.3 0 0 0.3 -0.3 0.3 0 0.3 0 0.3 -0.3 0.3 0 0.3 -0.3 0.3 0 0.3 -0.3 0.3 0 0 0 0.3 -0.3 0.3 0 0.3 -0.3 0.3 0 0.3 -0.3 0 -0.3 0.3 0 0.3 -0.3 0.3 0 0.3 -0.3 0 0 0.3 -0.3 0.3 -0.3 0.3 0 0.3 -0.3 0 -0.3 0.3 0 0.3 -0.3 0 -0.3 0.3 0 0 0zm3.26 -8l0.59 0 0 0 0 0.3 0 0.3 0 0.3 0 0.3 0 0.3 0 0.3 -0.3 0.3 0 0.3 0 0.3 0 0.3 -0.3 0.3 0 0.3 0 0.3 0 0 -0.3 0.3 0 0.3 -0.3 0.3 0 0.3 0 0.3 -0.3 0 0 0.3 -0.3 0.3 0 0.3 -0.3 0.3 0 0 -0.3 0.3 -0.3 0.3 0 0.3 -0.3 0.3 0 0 -0.3 0.3 -0.3 0.3 -0.3 -0.3 0.3 -0.3 0 -0.3 0.3 -0.3 0.3 0 0 -0.3 0.3 -0.3 0 0 0.3 -0.3 0 -0.3 0.3 -0.3 0 -0.3 0.3 0 0 -0.3 0.3 -0.3 0 -0.3 0 -0.3 0.3 0 0 -0.3 0 -0.3 0.3 -0.3 0 -0.3 0 -0.3 0 0 0.3 -0.3 0 -0.3 0 -0.3 0 -0.3 0 -0.3 0 -0.3 0 -0.3 0 -0.3 0 -0.3 0 0 0 0zm2.96 -7.11l0.3 0.3 0 0 -0.3 0.3 0 0 -0.3 0.3 0 0 -0.3 0.3 0 0.3 -0.3 0 0 0.3 0 0.3 -0.3 0 0 0.3 0 0.3 -0.3 0.3 0 0 0 0.3 -0.3 0.3 0 0 0 0.3 0 0.3 -0.3 0.3 0 0 0 0.3 0 0.3 0 0.3 0 0.3 0 0 -0.3 0.3 0 0.3 0 0.3 0 0.3 0 0 0 0.3 -0.59 0 0 -0.3 0.3 -0.3 0 0 0 -0.3 0 -0.3 0 -0.3 0 -0.3 0 0 0 -0.3 0 -0.3 0.3 -0.3 0 -0.3 0 0 0 -0.3 0.3 -0.3 0 -0.3 0 -0.3 0 0 0.3 -0.3 0 -0.3 0 -0.3 0.3 0 0 -0.3 0.3 -0.3 0 0 0 -0.3 0.3 -0.3 0 -0.3 0.3 0 0.3 -0.3 0 -0.3 0.3 0 0 0 0 0zm0 -0.89l0.59 0 0 0 0 0.3 0 0 0 0 0 0 0 0 0 0 0 0 0 0 0 0 0 0.3 0 0 0 0 0 0 0 0 0 0 0 0 0 0 0 0 0 0.3 0 0 0 0 0 0 0 0 -0.3 0 0 0 0 0 0 0 0 0.3 0 0 0 0 0 0 0 0 -0.3 -0.3 0 0 0 0 0 0 0 0 0 0 0 0 0 -0.3 0 0 0 0 0 0 0 0 0 0 0 0 0 0 0 0 0 0 0 0 0 0 0 0 0 -0.3 0 0 0 0 0 0 0 0 0 0 0 0 0 0 0 0 0 0 0 0 0 -0.3 0 0 0 0 0 0zm0.59 0l0 0 0 0 0 0zm-0.59 -0.89l0.3 0 0 0 0 0 0.3 0 0 0 0 0 0 0 0 0 0 0 0 0 0 0.3 0 0 0 0 0 0 0 0 0 0 0 0 0 0 0 0 0 0.3 0 0 0 0 0 0 0 0 0 0 0 0 0 0 0 0.3 0 0 0 0 0 0 0 0 0 0 0 0 -0.59 0 0 0 0 0 0 0 0 0 0 0 0 0 0 0 0 0 0 -0.3 0 0 0 0 0 0 0 0 0 0 0 0 0 0 0 0 0 0 0 -0.3 0 0 0 0 0 0 0 0 0 0 0 0 0 0 0 -0.3 0 0 0 0 0 0 0 0 0 0 0 0 0 0zm0 0l0 0 0 0 0 0zm-1.19 -1.48l0.3 -0.59 0 0 0 0 0.3 0.3 0 0 0 0 0 0 0.3 0 0 0 0 0 0 0.3 0 0 0.3 0 0 0 0 0 0 0 0 0.3 0.3 0 0 0 0 0 0 0 0 0.3 0 0 0 0 0 0 0 0.3 0 0 0 0 0 0 0 0.3 0 0 0 0 0 0 0 0.3 -0.3 0 0 0 0 -0.3 0 0 0 0 0 0 0 -0.3 0 0 0 0 0 0 0 0 -0.3 -0.3 0 0 0 0 0 0 0 0 0 0 0 0 0 -0.3 0 0 0 0 0 0 -0.3 0 0 0 0 0 0 0 0 0 0 -0.3 -0.3 0 0 0 0 0 0 0 -0.3 0 0 0 0 0zm-2.37 -1.48l0.3 -0.59 0 0 0 0 0.3 0 0 0 0 0.3 0 0 0.3 0 0 0 0 0 0 0 0.3 0.3 0 0 0 0 0 0 0.3 0 0 0.3 0 0 0 0 0.3 0 0 0 0 0.3 0 0 0.3 0 0 0 0 0 0 0 0.3 0.3 0 0 0 0 0 0 0 0 0.3 0 0 0 -0.3 0.59 0 0 0 0 -0.3 0 0 -0.3 0 0 0 0 -0.3 0 0 0 0 -0.3 0 0 -0.3 0 0 0 0 0 0 -0.3 -0.3 0 0 0 0 0 0 0 -0.3 -0.3 0 0 0 0 0 0 0 0 -0.3 0 0 -0.3 0 0 0 0 -0.3 0 0 0 0 0 0 0 -0.3 0 0 0zm-2.67 0l0.3 -0.59 0 0 0 0 0 0 0 0 0.3 0 0 0 0 0 0 0 0.3 0 0 0 0 0 0.3 0 0 0 0 0 0 0 0.3 0 0 0 0 0 0.3 0 0 0 0 0 0.3 0 0 0 0 0 0 0 0.3 0 0 0 0 0 0.3 0 0 0 0 0 0.3 0 0 0 -0.3 0.59 0 0 0 -0.3 0 0 -0.3 0 0 0 0 0 0 0 -0.3 0 0 0 0 0 0 0 -0.3 0 0 0 0 0 0 0 -0.3 0.3 0 0 0 0 -0.3 0 0 0 0 0 -0.3 0 0 0 0 0 -0.3 0 0 0 0 0 0 0 -0.3 0 0 0 0 0 -0.3 0 0 0zm-4.15 -5.33l0.59 0 0 0 0 0 0 0.3 0 0.3 0 0.3 0 0 0 0.3 0.3 0.3 0 0 0 0.3 0 0.3 0 0 0.3 0.3 0 0.3 0 0 0.3 0.3 0 0 0.3 0.3 0 0 0.3 0.3 0 0 0.3 0.3 0 0 0.3 0.3 0 0 0.3 0 0.3 0.3 0 0 0.3 0 0 0 0.3 0.3 0.3 0 0.3 0 -0.3 0.59 -0.3 -0.3 0 0 -0.3 0 -0.3 0 0 -0.3 -0.3 0 -0.3 0 -0.3 -0.3 0 0 -0.3 0 0 -0.3 -0.3 0 -0.3 -0.3 0 0 -0.3 -0.3 0 -0.3 0 0 -0.3 -0.3 0 -0.3 -0.3 0 0 -0.3 0 -0.3 -0.3 0 0 -0.3 0 -0.3 0 -0.3 0 0 -0.3 -0.3 0 -0.3 0 -0.3 0 -0.3 0 0 0 0 0 0zm-0.59 -1.19l0.3 -0.59 0 0 0 0 0 0.3 0 0 0.3 0 0 0 0 0 0 0 0 0 0 0 0.3 0.3 0 0 0 0 0 0 0 0 0 0 0 0.3 0 0 0.3 0 0 0 0 0 0 0 0 0.3 0 0 0 0 0 0 0 0 0 0.3 0 0 0 0 0 0 0 0 0 0.3 -0.59 0 0 -0.3 0 0 0 0 0 0 0 0 0 0 0 -0.3 0 0 0 0 0 0 0 0 0 0 0 0 0 0 0 -0.3 0 0 0 0 0 0 0 0 0 0 0 0 -0.3 0 0 0 0 0 0 -0.3 0 0 0 0 0 0 0 0 -0.3 0 0 0 0 0 0 0 0 0zm-0.89 -8.89l0.59 -0.3 0 0.3 -0.3 0.3 -0.3 0.3 -0.3 0.3 0 0.3 -0.3 0.3 -0.3 0.3 0 0.3 -0.3 0.3 0 0.3 0 0.3 0 0.3 -0.3 0.3 0 0.3 0 0.3 0 0.3 0 0.3 0.3 0.3 0 0.3 0 0.3 0 0 0.3 0.3 0 0.3 0.3 0.3 0 0.3 0.3 0.3 0 0.3 0.3 0 0.3 0.3 0 0.3 0.3 0 0.3 0.3 0.3 0 -0.3 0.59 -0.3 -0.3 -0.3 0 -0.3 -0.3 0 -0.3 -0.3 -0.3 -0.3 0 -0.3 -0.3 0 -0.3 -0.3 -0.3 0 -0.3 -0.3 -0.3 0 -0.3 -0.3 -0.3 0 -0.3 0 -0.3 0 -0.3 0 -0.3 0 -0.3 0 -0.3 0 -0.59 0 -0.3 0 -0.3 0.3 -0.3 0 -0.3 0 -0.3 0.3 -0.3 0 -0.3 0.3 -0.3 0.3 -0.3 0.3 -0.3 0.3 -0.3 0.3 -0.3 -0.3 0.3 -0 0zm0.59 -0.3l0 0 0 0.3 0 -0.3zm39.42 -6.22l0 0 0 0 0 0 0.3 0.3 -0.3 -0.3zm0 -0.3l0.3 0 0 0.3 -0.3 -0.3zm-1.78 0.89l0 -0.59 0 0 0 0 0.3 0 0 0 0 0 0 0 0 0 0 0 0 0 0.3 0 0 0 0 0 0 0 0 0 0 0 0.3 0 0 0 0 0 0 0 0 0 0.3 0 0 0 0 0 0 0 0.3 0 0 0 0 0 0 0 0 0 0.3 0 0 -0.3 0 0 0 0 0.3 0.59 -0.3 0 0 0 0 0 0 0 0 0 -0.3 0 0 0 0 0 0 0 -0.3 0 0 0.3 0 0 0 0 0 0 -0.3 0 0 0 0 0 0 0 0 0 -0.3 0 0 0 0 0 0 0 0 0 -0.3 0 0 0 0 0 0 0 0 0 -0.3 0 0 0 0 0 0 0zm-3.85 0.59l-0.3 -0.3 0 0 0 0 0.3 -0.3 0 0 0.3 0 0 0 0.3 -0.3 0 0 0 0 0.3 0 0 0 0.3 0 0 -0.3 0.3 0 0 0 0 0 0.3 0 0 0 0.3 0 0 0 0.3 0 0 0 0.3 0 0 0 0 0 0.3 0 0 0 0.3 0 0 0 0.3 0 0 0 0.3 0 0 0 0 0.59 -0.3 0 0 0 0 0 -0.3 -0.3 0 0 -0.3 0 0 0 -0.3 0 0 0 0 0 -0.3 0 0 0 -0.3 0 0 0 0 0 -0.3 0.3 0 0 -0.3 0 0 0 0 0 -0.3 0 0 0 -0.3 0 0 0.3 0 0 -0.3 0 0 0 0 0 -0.3 0.3 0 0 -0.3 0 0 0 0 0 0 0zm0 0l0 0 -0.59 0.3 0.59 -0.3zm-0.89 0.89l-0.3 0 0 0 0 0 0 -0.3 0 0 0 0 0 0 0 0 0 0 0 -0.3 0 0 0 0 0.3 0 0 0 0 0 0 0 0 0 0 -0.3 0 0 0 0 0 0 0.3 0 0 0 0 0 0 0 0 0 0 0 0 -0.3 0 0 0.3 0 0 0 0 0 0 0 0 0 0.3 0.3 0 0 0 0 0 0.3 -0.3 0 0 0 0 0 0 0 0 0 0 0 0 0 0 0 0 0 -0.3 0 0 0 0 0.3 0 0 0 0 0 0 0 0 0 0 0 0 0 0 0 0 0 0 0 0 0 0.3 -0.3 0 0 0 0 0 0 0 0 0 0 0 0 0zm-3.85 3.26l0 -0.59 0 0 0 0 0.3 0 0 0 0.3 0 0 0 0.3 0 0 0 0.3 -0.3 0 0 0.3 0 0 0 0 0 0.3 -0.3 0 0 0.3 0 0 0 0 -0.3 0.3 0 0 0 0.3 -0.3 0 0 0 -0.3 0.3 0 0 0 0 -0.3 0 0 0.3 -0.3 0 0 0 -0.3 0 0 0 -0.3 0.3 0 0.3 0 0 0.3 0 0 0 0.3 -0.3 0 0 0.3 0 0 0 0.3 -0.3 0 0 0.3 0 0 -0.3 0.3 0 0 -0.3 0.3 0 0 0 0 -0.3 0.3 0 0 -0.3 0 0 0.3 -0.3 0 0 0 -0.3 0.3 0 0 -0.3 0 0 0 -0.3 0 0 0 -0.3 0 -0.3 0.3 0 0 -0.3 0 0 0 0 0 0 0zm-1.78 1.48l-0.3 -0.3 0 0 0 -0.3 0 0 0 0 0.3 0 0 0 0 0 0 -0.3 0 0 0 0 0 0 0 -0.3 0 0 0.3 0 0 0 0 -0.3 0 0 0 0 0 0 0.3 -0.3 0 0 0 0 0 0 0.3 0 0 0 0 -0.3 0 0 0.3 0 0 0 0.3 0 0 0 0 0 0.3 0 0 0.59 -0.3 0 0 0 0 0 -0.3 0 0 0 0 0 0 0 0 0 -0.3 0 0 0 0 0 0 0 0 0.3 0 0 0 0 -0.3 0 0 0 0 0 0 0.3 0 0 0 0 0 0 0 0.3 0 0 -0.3 0 0 0 0 0 0 0.3 0 0 0 0 0 0 -0.3 0.3 0 0 0 -0zm-0.3 -0.3l0 0 0 0 0 0zm-1.19 2.07l-0.3 0 0 0 0 -0.3 0 0 0 0 0 -0.3 0 0 0 0 0 -0.3 0 0 0.3 0 0 -0.3 0 0 0 0 0 0 0.3 0 0 -0.3 0 0 0 0 0 0 0.3 0 0 0 0 -0.3 0 0 0.3 0 0 0 0 0 0 0 0 -0.3 0.3 0 0 0 0 0 0 0 0 0 0.3 0.3 0 0 0 0 0 0 0 0.3 -0.3 0 0 0 0 0 0 0 0 0 -0.3 0.3 0 0 0 0 0 0 -0.3 0 0 0 0 0.3 0 0 0 0 -0.3 0 0 0 0 0 0 0 0 0.3 0 0 0 0 0 0 0 0 -0.3 0.3 0 0 0 0 0 0 0 0.3 0 0zm0 0l0 0 0 0 0 0zm0 0.3l-0.3 0 0 0 0 0 0 0 0 0 0 0 0 0 0 0 0 0 0 0 0 0 0 0 0 0 0 0 0 0 0 0 0 0 0 -0.3 0 0 0 0 0 0 0 0 0 0 0 0 0 0 0 0 0 0 0 0 0 0 0 0 0 0 0 0 0 0 0 0 0.3 0 0 0 0 0 0 0 0 0 0 0 0 0 0 0 0 0 0 0 0 0 0 0 0 0 0 0 0 0 0 0 0 0 0 0.3 0 0 0 0 0 0 0 0 0 0 0 0 0 0 0 0 0 0 0 0 0 0 0 0 0 0 0 0 0 0 0 0zm0 4.74l-0.3 0 0 0 0 0 0 -0.3 0 0 0 -0.3 0 0 0 -0.3 0 0 0 -0.3 0 0 0 -0.3 0 0 0 -0.3 0 0 0 -0.3 0 0 0 -0.3 0 0 0 -0.3 0 0 0 -0.3 0 0 0 -0.3 0 0 0 -0.3 0 0 0 -0.3 0 0 0 -0.3 0 0 0 -0.3 0 0 0 -0.3 0.3 0 0 0.3 0 0 0 0.3 0 0 0 0.3 0 0 0 0.3 0 0 0 0.3 0 0 0 0.3 0 0 0 0.3 0 0 0 0.3 0 0 0 0.3 0 0 0 0.3 0 0 0 0.3 0 0 0 0.3 0 0 0 0.3 0 0 0 0.3 0 0 0 0.3 0 0 0 0.3 0 0 0 0zm-2.96 4.74l0 -0.59 0 0 0 0 0.3 0 0 0 0.3 -0.3 0 0 0.3 0 0 -0.3 0.3 0 0 0 0 -0.3 0.3 0 0 -0.3 0 0 0.3 0 0 -0.3 0 0 0.3 -0.3 0 0 0 -0.3 0 0 0.3 -0.3 0 0 0 -0.3 0 0 0 -0.3 0 0 0 -0.3 0 0 0.3 -0.3 0 -0.3 0 0 0 -0.3 0.3 0 0 0.3 0 0.3 0 0 0 0.3 0 0 0 0.3 0 0.3 0 0 -0.3 0.3 0 0 0 0.3 0 0.3 0 0 -0.3 0.3 0 0 0 0.3 -0.3 0 0 0.3 0 0 -0.3 0.3 0 0 0 0 -0.3 0.3 0 0 -0.3 0.3 0 0 -0.3 0 0 0.3 -0.3 0 -0.3 0 0 0.3 -0.3 0 0 0 0 0zm-3.85 -2.67l0.59 0 0 0 0 0.3 0 0 0 0.3 0 0.3 0 0 0 0.3 0 0 0 0.3 0 0 0.3 0 0 0.3 0 0 0 0.3 0.3 0 0 0 0 0 0.3 0.3 0 0 0.3 0 0 0 0 0 0.3 0 0 0 0.3 0 0 0 0.3 0 0.3 0 0 0 0.3 0 0 0 0.3 0 0.3 -0.3 0 0.59 -0.3 0 0 0 -0.3 0.3 -0.3 0 0 0 -0.3 0 0 0 -0.3 0 -0.3 0 0 0 -0.3 0 0 0 -0.3 0 0 -0.3 -0.3 0 0 0 -0.3 -0.3 0 0 -0.3 0 0 -0.3 0 0 -0.3 -0.3 0 0 0 -0.3 -0.3 0 0 -0.3 0 -0.3 0 0 0 -0.3 0 -0.3 0 0 0 -0.3 0 0 -0 0zm-0.89 -5.63l0.59 -0.3 0 0 0 0.3 0 0 0 0.3 0.3 0 0 0.3 0 0.3 0 0 0 0.3 0.3 0 0 0.3 0 0.3 0 0 0 0.3 0 0.3 0 0 0 0.3 0.3 0.3 0 0 0 0.3 0 0 0 0.3 0 0.3 0 0 0 0.3 0 0.3 0 0 0 0.3 0 0.3 0 0 0 0.3 0 0.3 0 0 -0.59 0 0 -0.3 0 0 0 -0.3 0 0 0 -0.3 0 -0.3 0 0 0 -0.3 0 -0.3 0 0 0 -0.3 0 0 0 -0.3 0 -0.3 0 0 0 -0.3 0 0 0 -0.3 -0.3 -0.3 0 0 0 -0.3 0 -0.3 0 0 0 -0.3 0 0 -0.3 -0.3 0 0 0 -0.3 0 -0.3 0 0 -0.3 -0.3 0 0 0 0zm-5.04 -2.67l0 -0.59 0 0 0.3 0 0 0 0.3 0 0.3 0 0.3 0 0 0 0.3 0 0.3 0 0.3 0 0 0 0.3 0 0.3 0 0 0.3 0.3 0 0.3 0 0 0 0.3 0.3 0 0 0.3 0 0 0.3 0.3 0 0 0.3 0.3 0 0 0.3 0.3 0 0 0.3 0.3 0 0 0.3 0.3 0.3 0 0 0 0.3 0.3 0.3 -0.59 0.3 0 -0.3 -0.3 -0.3 0 0 0 -0.3 -0.3 -0.3 0 0 0 -0.3 -0.3 0 0 -0.3 -0.3 0 0 0 -0.3 -0.3 0 0 -0.3 -0.3 0 0 -0.3 0 0 0 -0.3 -0.3 0 0 -0.3 0 0 0 -0.3 0 -0.3 0 0 0 -0.3 0 -0.3 0 0 0 -0.3 0 -0.3 0 0 0 -0.3 0 -0.3 0 0 0 0 0zm-2.07 2.37l-0.59 0 0 0 0 -0.3 0 0 0 0 0 -0.3 0 0 0.3 -0.3 0 0 0 -0.3 0 0 0 0 0 -0.3 0.3 0 0 0 0 -0.3 0 0 0.3 0 0 -0.3 0 0 0.3 0 0 0 0 -0.3 0.3 0 0 0 0 0 0.3 -0.3 0 0 0.3 0 0 0 0 0 0.3 0 0 0 0.3 -0.3 0 0.59 0 0 -0.3 0 0 0 -0.3 0.3 0 0 0 0 -0.3 0 0 0 0 0 -0.3 0 0 0.3 0 0 0 0 -0.3 0 0 0 0 0.3 0 0 -0.3 0 0 0 0 0.3 0 0 0 0 0 0.3 -0.3 0 0 0 0 0.3 0 0 0 0.3 0 0 0 0 0 0.3 0 0 0 0 0 0zm5.04 7.41l0 0.59 0 0 -0.3 -0.3 -0.3 0 -0.59 0 -0.3 -0.3 -0.3 0 -0.3 -0.3 -0.3 0 -0.3 -0.3 -0.3 -0.3 -0.3 0 0 -0.3 -0.3 -0.3 -0.3 -0.3 -0.3 0 0 -0.3 -0.3 -0.3 -0.3 -0.3 0 -0.3 -0.3 -0.3 0 -0.3 -0.3 -0.3 0 -0.3 0 -0.3 -0.3 -0.3 0 -0.3 0 -0.3 0 -0.3 0 -0.3 0 -0.59 0 -0.3 0 -0.3 0 -0.3 0.59 0 -0.3 0.3 0 0.3 0 0.3 0 0.3 0 0.59 0.3 0.3 0 0.3 0 0.3 0 0.3 0 0 0.3 0.3 0 0.3 0.3 0.3 0 0.3 0.3 0.3 0 0.3 0.3 0.3 0.3 0 0 0.3 0.3 0.3 0.3 0.3 0.3 0 0 0.3 0.3 0.3 0.3 0 0.3 0.3 0.3 0 0.3 0.3 0.3 0 0.3 0 0.3 0.3 0.3 0 0 0 0 0zm1.48 1.78l-0.59 -0.3 0 0 0 0 0 0 0 0 0 0 0 -0.3 0 0 0 0 0 0 0 0 0 0 0 -0.3 0 0 0 0 0 0 0 0 0 0 0 0 -0.3 0 0 0 0 0 0 -0.3 0 0 0 0 0 0 -0.3 0 0 0 0 0 0 0 0 0 -0.3 0 0 0 0 0 0 -0.59 0.3 0 0 0 0 0 0 0 0.3 0 0 0 0 0.3 0 0 0.3 0 0 0 0 0 0 0 0 0 0.3 0 0 0.3 0 0 0 0 0 0 0 0 0 0.3 0.3 0 0 0 0 0 0 0 0 0.3 0 0 0 0 0 0.3 0 0 0 0 0 0 0 0.3 0 0 0 0zm-2.07 0.89l0.3 -0.3 0 0 0 0 0 0 0 0 0.3 0 0 0 0 0 0 0 0.3 0 0 0 0 0 0 0 0 0 0.3 0 0 0 0 0 0 -0.3 0 0 0 0 0 0 0.3 0 0 0 0 0 0 0 0 0 0 0 0 -0.3 0 0 0 0 0 0 0 0 0 0 0 -0.3 0.59 0.3 0 0 0 0 0 0 0 0.3 0 0 0 0 -0.3 0 0 0.3 0 0 0 0 0 0 0 0 -0.3 0.3 0 0 0 0 0 0 0 0 -0.3 0 0 0 0 0 0 0 -0.3 0 0 0.3 0 0 -0.3 0 0 0 0 0 -0.3 0 0 -0.3 0 0 0 0 -0.3 0 0 0 0 0zm0 0l0 0 0 0 0 0zm-1.48 -0.59l-0.59 0 0.3 -0.3 0.3 0 0 0 0 0 0 0 0 0 0.3 0 0 0 0 0 0 0.3 0 0 0.3 0 0 0 0 0 0 0 0 0 0.3 0 0 0 0 0 0 0 0 0 0.3 0 0 0 0 0 0 0 0 0 0 0 0.3 0 0 0.3 0 0 0 0 0 0 0.3 0 -0.3 0.3 0 0 0 0 0 0 -0.3 0 0 0 0 0 0 0 0 0 -0.3 0 0 0 0 0 0 0 0 0 -0.3 0 0 0 0 0 0 -0.3 0 0 0 0 -0.3 0 0 0 0 0 0 0 0 0 -0.3 0 0 0 0 0 0 0 0 0 -0.3 0 0 0 0 0 0.3 -0.3 0 0zm-0.59 0l0 -0.3 0.3 0 -0.3 0.3zm0.89 7.11l-0.3 0 0 0 0 0 -0.3 -0.3 0 -0.3 0 -0.3 0 0 0 -0.3 0 -0.3 0 -0.3 0 0 0 -0.3 -0.3 -0.3 0 -0.3 0 0 0 -0.3 0 -0.3 0 -0.3 0 -0.3 0 0 0 -0.3 0 -0.3 0 -0.3 0 0 0 -0.3 0 -0.3 0 -0.3 0 -0.3 0 0 0 -0.3 0 -0.3 0 -0.3 0 0 0 -0.3 0.59 0 0 0.3 0 0 0 0.3 0 0.3 0 0.3 0 0.3 0 0 0 0.3 0 0.3 0 0.3 0 0 0 0.3 0 0.3 0 0.3 0 0 0 0.3 0 0.3 0 0.3 0 0 0 0.3 0 0.3 0 0.3 0 0 0 0.3 0 0.3 0.3 0.3 0 0 0 0.3 0 0.3 0 0.3 0 0 0 0.3 0 0 0 0zm-0.3 0l0 0 0 0 0 0zm0 1.48l-0.3 -0.3 0 0 0 0 0 0 0 0 0 0 0 0 0 0 0 0 0 0 0 -0.3 0.3 0 0 0 0 0 0 0 0 0 0 0 0 0 0 -0.3 0 0 0 0 0 0 0 0 0 0 0 0 0 -0.3 0 0 0 0 0 0 0 0 0 0 0 0 0 -0.3 0 0 0.3 0 0 0 0 0 0 0.3 0.3 0 0 0 0 0 0 0 0 0 0 0.3 0 0 0 0 0 0 -0.3 0 0 0.3 0 0 0 0 0 0 0 0 0 0 0 0.3 0 0 0 0 0 0 0 0 0 0 0 0.3 0 0 0 0 -0.3 0 0 0 0 0 0 0 0 0zm-2.67 6.22l-0.59 0 0 0 0 -0.3 0 -0.3 0.3 0 0 -0.3 0 -0.3 0 -0.3 0 -0.3 0 0 0 -0.3 0 -0.3 0 -0.3 0.3 0 0 -0.3 0 -0.3 0 0 0.3 -0.3 0 -0.3 0 0 0.3 -0.3 0 -0.3 0 0 0.3 -0.3 0 -0.3 0.3 0 0 -0.3 0.3 -0.3 0 0 0.3 -0.3 0 0 0.3 -0.3 0 0 0.3 -0.3 0.3 0.3 -0.3 0.3 0 0 -0.3 0.3 0 0 -0.3 0.3 0 0.3 -0.3 0 0 0.3 -0.3 0 0 0.3 0 0 -0.3 0.3 0 0.3 0 0 -0.3 0.3 0 0.3 0 0 0 0.3 -0.3 0.3 0 0 0 0.3 0 0.3 0 0 0 0.3 0 0.3 -0.3 0 0 0.3 0 0.3 0 0.3 0 0 0 0.3 0 0.3 0 0 0 0zm-3.56 8.89l-0.3 -0.3 0 0 0 -0.3 0.3 -0.3 0.3 -0.3 0 0 0.3 -0.3 0 -0.3 0.3 -0.3 0.3 -0.3 0 0 0.3 -0.3 0 -0.3 0 -0.3 0.3 -0.3 0 -0.3 0.3 -0.3 0 -0.3 0 -0.3 0.3 0 0 -0.3 0 -0.3 0.3 -0.3 0 -0.3 0 -0.3 0 -0.3 0.3 -0.3 0 -0.3 0 -0.3 0 -0.3 0 -0.3 0 -0.3 0 -0.3 0 -0.3 0.59 0 0 0.3 0 0.3 0 0.3 0 0.3 0 0.3 -0.3 0.3 0 0.3 0 0.3 0 0.3 0 0.3 -0.3 0.3 0 0.3 0 0.3 -0.3 0.3 0 0.3 0 0.3 -0.3 0.3 0 0.3 -0.3 0.3 0 0.3 0 0.3 -0.3 0 0 0.3 -0.3 0.3 -0.3 0.3 0 0.3 -0.3 0.3 0 0.3 -0.3 0 -0.3 0.3 0 0.3 -0.3 0.3 0 0 -0 0zm-8.89 6.22l-0.3 -0.59 0 0 0.59 0 0.3 -0.3 0.3 0 0.3 -0.3 0.3 0 0.3 -0.3 0.3 0 0.3 -0.3 0.3 0 0.3 -0.3 0.3 0 0.3 -0.3 0.3 0 0 -0.3 0.3 -0.3 0.3 0 0.3 -0.3 0.3 0 0.3 -0.3 0.3 -0.3 0.3 0 0.3 -0.3 0.3 -0.3 0 -0.3 0.3 0 0.3 -0.3 0.3 -0.3 0.3 -0.3 0.3 -0.3 0 0 0.3 -0.3 0.3 -0.3 0.3 0.3 -0.3 0.3 0 0.3 -0.3 0.3 -0.3 0 -0.3 0.3 -0.3 0.3 -0.3 0.3 0 0.3 -0.3 0 -0.3 0.3 -0.3 0.3 -0.3 0.3 -0.3 0 -0.3 0.3 -0.3 0.3 -0.3 0 -0.3 0.3 -0.3 0 -0.3 0.3 -0.3 0.3 -0.3 0 -0.3 0.3 -0.3 0 -0.3 0.3 -0.3 0 -0.3 0.3 -0.3 0 -0.3 0.3 -0.3 0 -0.3 0.3 -0.3 0 -0.3 0.3 0 0 0 0zm0 0l0 0 0 0 0 0zm-1.19 0.3l-0.3 0 0 -0.3 0 0 0.3 0 0 0 0 0 0 0 0 0 0 0 0 0 0.3 0 0 0 0 0 0 0 0 -0.3 0 0 0 0 0 0 0.3 0 0 0 0 0 0 0 0 0 0 0 0 0 0 0 0.3 0 0 0 0 0 0 0 0 0 0 -0.3 0 0 0 0 0.3 0.59 0 0 0 0 0 0 0 0 0 0 -0.3 0 0 0 0 0 0 0 0 0 0 0 0 0.3 0 0 -0.3 0 0 0 0 0 0 0 0 0 0 0 0 0 0 0 -0.3 0 0 0 0 0 0 0 0 0 0 0 0 0.3 -0.3 0 0 0 0 0 0 0 0 -0.3 0 0zm-0.3 0l-0.3 0 0.3 -0.3 0 0.3zm1.19 1.19l-0.59 0.3 0 0 0 -0.3 0 0 0 0 0 0 0 0 0 0 0 0 0 0 0 0 0 -0.3 0 0 -0.3 0 0 0 0 0 0 0 0 0 0 0 0 -0.3 0 0 0 0 0 0 0 0 0 0 0 0 0 -0.3 -0.3 0 0 0 0 0 0 0 0 0 0 0 0 -0.3 0.3 0 0 0 0.3 0 0 0 0 0 0 0 0 0 0 0.3 0 0 0 0 0 0 0 0 0 0 0 0 0 0.3 0.3 0 0 0 0 0 0 0 0 0 0 0 0 0 0 0.3 0 0 0 0 0 0 0 0 0 0 0 0 0.3 0 0 0 0 0.3 0 0 0 0 0 0zm0 0l0 0 0.3 0.59 -0.3 -0.59zm7.11 6.52l-0.3 0.59 0 0 -0.3 -0.3 -0.3 0 -0.3 -0.3 -0.3 0 0 -0.3 -0.3 -0.3 -0.3 0 -0.3 -0.3 -0.3 -0.3 -0.3 0 -0.3 -0.3 0 -0.3 -0.3 0 -0.3 -0.3 -0.3 -0.3 -0.3 0 0 -0.3 -0.3 -0.3 -0.3 -0.3 -0.3 0 0 -0.3 -0.3 -0.3 -0.3 -0.3 0 -0.3 -0.3 0 -0.3 -0.3 0 -0.3 -0.3 -0.3 -0.3 -0.3 0 -0.3 -0.3 -0.3 -0.3 0 0.59 -0.3 0 0 0.3 0.3 0.3 0.3 0 0.3 0.3 0.3 0.3 0.3 0 0.3 0.3 0 0.3 0.3 0 0.3 0.3 0.3 0.3 0 0 0.3 0.3 0.3 0.3 0.3 0.3 0 0 0.3 0.3 0.3 0.3 0.3 0.3 0 0 0.3 0.3 0.3 0.3 0 0.3 0.3 0.3 0 0.3 0.3 0 0.3 0.3 0 0.3 0.3 0.3 0 0.3 0.3 0.3 0 0 0 -0 0zm27.57 3.56l0 0.59 0 0 -0.89 0 -0.89 0.3 -0.89 0.3 -0.89 0 -0.89 0.3 -0.89 0 -0.89 0 -0.89 0.3 -0.89 0 -0.89 0 -0.89 0 -0.89 0 -0.89 0 -0.89 0 -0.89 0 -0.89 -0.3 -0.89 0 -0.89 -0.3 -0.89 0 -0.89 -0.3 -0.89 0 -0.89 -0.3 -0.59 -0.3 -0.89 -0.3 -0.89 -0.3 -0.89 -0.3 -0.89 -0.3 -0.89 -0.3 -0.89 -0.59 -0.59 -0.3 -0.89 -0.59 -0.89 -0.3 0.3 -0.59 0.89 0.59 0.59 0.3 0.89 0.59 0.89 0.3 0.89 0.3 0.89 0.3 0.59 0.3 0.89 0.3 0.89 0.3 0.89 0.3 0.89 0.3 0.89 0.3 0.59 0 0.89 0.3 0.89 0 0.89 0.3 0.89 0 0.89 0 0.89 0 0.89 0 0.89 0 0.89 0 0.89 0 0.89 0 0.89 0 0.89 -0.3 0.89 0 0.89 0 0.89 -0.3 0.89 -0.3 0.89 0 0.89 -0.3 0 0zm15.71 -19.56l0.59 0 0 0 0 0.89 -0.3 0.89 0 0.89 -0.3 0.89 0 0.89 -0.3 0.89 -0.3 0.59 -0.3 0.89 -0.3 0.89 -0.3 0.89 -0.59 0.59 -0.3 0.89 -0.3 0.59 -0.59 0.59 -0.59 0.89 -0.3 0.59 -0.59 0.59 -0.59 0.59 -0.59 0.59 -0.59 0.59 -0.59 0.59 -0.59 0.59 -0.89 0.59 -0.59 0.3 -0.89 0.59 -0.59 0.3 -0.89 0.3 -0.59 0.59 -0.89 0.3 -0.89 0.3 -0.89 0.3 -0.89 0.3 0 -0.59 0.89 -0.3 0.59 -0.3 0.89 -0.3 0.89 -0.3 0.59 -0.3 0.89 -0.3 0.89 -0.59 0.59 -0.3 0.59 -0.59 0.89 -0.3 0.59 -0.59 0.59 -0.59 0.59 -0.59 0.59 -0.59 0.59 -0.59 0.3 -0.59 0.59 -0.59 0.59 -0.89 0.3 -0.59 0.59 -0.59 0.3 -0.89 0.3 -0.59 0.3 -0.89 0.3 -0.59 0.3 -0.89 0.3 -0.89 0.3 -0.89 0.3 -0.59 0 -0.89 0.3 -0.89 0 -0.89 0 -0.89 0 0zm-2.07 -2.67l0 -0.59 0 0 0.3 0.3 0.3 0 0 0 0.3 0 0 0 0.3 0 0 0 0.3 0 0 0 0.3 0.3 0 0 0 0 0.3 0 0 0.3 0 0 0.3 0 0 0 0 0.3 0 0 0.3 0.3 0 0 0 0 0 0.3 0 0 0 0.3 0 0 0 0.3 0 0 0 0.3 0 0.3 0 0 0 0.3 -0.59 0 0 -0.3 0 0 0 -0.3 0 -0.3 0 0 0 0 0 -0.3 0 0 0 -0.3 0 0 0 0 0 -0.3 0 0 0 0 0 -0.3 -0.3 0 0 0 0 0 0 0 0 -0.3 -0.3 0 0 0 0 0 -0.3 0 0 0 -0.3 0 0 -0.3 -0.3 0 0 0 -0.3 0 0 0 -0.3 0 0 0 0 0zm-6.23 -0.59l0 -0.3 0 0 0 0 0.3 0 0.3 0 0 0 0.3 0 0.3 0 0.3 0 0 0 0.3 0 0.3 0 0 0 0.3 0 0.3 0 0 0 0.3 0 0.3 0.3 0 0 0.3 0 0.3 0 0 0 0.3 0 0.3 0 0 0 0.3 0 0.3 0 0 0 0.3 0 0.3 0 0 0 0.3 0 0.3 0 0 0 0 0.59 0 0 -0.3 0 -0.3 0 0 0 -0.3 0 -0.3 0 -0.3 0 0 0 -0.3 0 -0.3 0 0 -0.3 -0.3 0 -0.3 0 0 0 -0.3 0 -0.3 0 0 0 -0.3 0 -0.3 0 0 0 -0.3 0 -0.3 0 0 0 -0.3 0 -0.3 0 0 0 -0.3 0 -0.3 0 0 0 -0.3 -0.3 -0.3 0 0 0 0 0 0 0zm-6.81 -4.74l0.3 0 0 0 0.3 0 0 0.3 0.3 0.3 0 0.3 0.3 0.3 0 0 0.3 0.3 0 0.3 0.3 0 0 0.3 0.3 0.3 0 0 0.3 0.3 0.3 0 0 0.3 0.3 0 0.3 0.3 0 0 0.3 0.3 0.3 0 0 0 0.3 0.3 0.3 0 0.3 0 0.3 0.3 0 0 0.3 0 0.3 0 0.3 0 0.3 0 0.3 0.3 0.3 0 0 0.3 -0.3 0 -0.3 0 -0.3 0 -0.3 0 -0.3 0 -0.3 -0.3 -0.3 0 -0.3 0 -0.3 -0.3 0 0 -0.3 0 -0.3 -0.3 -0.3 0 -0.3 0 0 -0.3 -0.3 0 -0.3 -0.3 0 0 -0.3 -0.3 -0.3 -0.3 0 0 -0.3 -0.3 -0.3 -0.3 0 0 -0.3 -0.3 0 -0.3 -0.3 0 0 -0.3 -0.3 -0.3 0 -0.3 -0.3 -0.3 0 -0.3 0 0zm-0.89 -0.3l0.3 -0.59 0 0 0 0 0 0 0 0 0 0 0 0 0.3 0 0 0 0 0 0 0 0 0 0 0 0 0.3 0.3 0 0 0 0 0 0 0 0 0 0 0 0 0 0 0 0 0 0.3 0 0 0.3 0 0 0 0 0 0 0 0 0 0 0 0 0 0 0 0 0 0.3 -0.3 0 0 0 0 0 0 0 0 0 0 0 0 0 0 0 0 0 -0.3 0 0 0 0 0 0 -0.3 0 0 0 0 0 0 0 0 0 0 0 0 0 0 0 0 -0.3 0 0 0 0 0 0 0 0 0 0 0 0 0 0 0 0 0 0 0 0 0 -0.3 0 0 0 0 0zm-13.04 -7.41l0.3 -0.3 0 0 0.3 0.3 0.3 0.59 0.59 0.3 0.3 0.3 0.3 0.3 0.3 0.3 0.3 0.3 0.59 0.3 0.3 0.3 0.3 0.3 0.3 0.3 0.59 0.3 0.3 0 0.3 0.3 0.59 0.3 0.3 0.3 0.3 0 0.59 0.3 0.3 0.3 0.59 0.3 0.3 0 0.3 0.3 0.59 0 0.3 0.3 0.59 0 0.3 0.3 0.59 0 0.3 0.3 0.59 0 0.59 0 0.3 0.3 0.59 0 -0.3 0.59 -0.3 -0.3 -0.59 0 -0.3 0 -0.59 -0.3 -0.59 0 -0.3 -0.3 -0.59 0 -0.3 -0.3 -0.59 0 -0.3 -0.3 -0.59 0 -0.3 -0.3 -0.59 -0.3 -0.3 0 -0.3 -0.3 -0.59 -0.3 -0.3 -0.3 -0.59 0 -0.3 -0.3 -0.3 -0.3 -0.59 -0.3 -0.3 -0.3 -0.3 -0.3 -0.3 -0.3 -0.59 -0.3 -0.3 -0.3 -0.3 -0.3 -0.3 -0.3 -0.59 -0.3 -0.3 -0.3 -0.3 -0.3 -0.3 -0.59 0 0 0 -0zm-0.3 -2.07l0.3 0.3 0 0 0 0 0 0 0 0 0 0.3 0 0 0 0 0 0 0 0 0 0 0 0 -0.3 0 0 0.3 0 0 0 0 0 0 0 0 0 0 0.3 0.3 0 0 0 0 0 0 0 0 0 0.3 0 0 0 0 0 0 0 0 0 0 0.3 0.3 0 0 0 0 0 0 -0.3 0.3 0 0 0 0 -0.3 0 0 -0.3 0 0 0 0 0 0 -0.3 -0.3 0 0 0 0 0 0 0 -0.3 0 0 0 0 0 0 0 -0.3 0 0 0 0 0 0 0 -0.3 0 0 0 0 0 0 0 -0.3 0 0 0 0 0 0 0.3 0 0 -0.3 0 0 0 0 0 0 0 0zm0.3 0.3l0 0 0 0 0 0zm2.07 0l-0.3 0.3 0 0 0 0 -0.3 0 0 0 0 -0.3 0 0 0 0 0 0 -0.3 0 0 0 0 0 0 0 0 0 -0.3 -0.3 0 0 0 0 0 0 0 0 0 0 0 0 -0.3 0 0 0 0 0 0 0 0 0 0 0 0 0 -0.3 0 0 0.3 0 0 0 0 0 0 -0.3 0 -0.3 -0.3 0.3 0 0 -0.3 0 0 0 0 0.3 0 0 0 0 0 0 0 0.3 0 0 0 0 0 0 0 0.3 0 0 0 0 0 0 0 0.3 0 0 0 0 0 0 0 0.3 0 0 0 0 0 0 0.3 0 0 0.3 0 0 0 0 0 0 0 0 0 0.3 0.3 0 0 0 0zm4.45 3.56l-0.3 0.3 0 0 -0.3 0 0 0 -0.3 -0.3 0 0 -0.3 -0.3 0 0 -0.3 0 0 -0.3 -0.3 0 0 0 -0.3 -0.3 0 0 0 0 -0.3 -0.3 0 0 -0.3 -0.3 0 0 -0.3 0 0 -0.3 -0.3 0 0 -0.3 -0.3 0 0 0 -0.3 -0.3 0 0 0 -0.3 -0.3 0 0 0 -0.3 -0.3 0 0 -0.3 -0.3 0 0 0.3 -0.3 0 0 0.3 0.3 0 0 0.3 0 0 0.3 0.3 0 0 0.3 0.3 0 0 0 0 0.3 0.3 0 0 0.3 0.3 0 0 0 0.3 0.3 0 0 0.3 0 0 0.3 0.3 0 0 0.3 0 0 0.3 0 0 0.3 0.3 0 0 0 0.3 0.3 0 0 0.3 0 0 0.3 0.3 0 0 0 0.3 0.3 0 0zm11.56 2.67l0 0.3 0 0 -0.3 0.3 -0.59 0 -0.3 0 -0.3 0 -0.59 0 -0.3 0 -0.3 0 -0.59 0 -0.3 0 -0.3 0 -0.59 0 -0.3 0 -0.3 -0.3 -0.3 0 -0.59 0 -0.3 0 -0.3 -0.3 -0.59 0 -0.3 0 -0.3 -0.3 -0.3 0 -0.3 -0.3 -0.59 0 -0.3 -0.3 -0.3 0 -0.3 -0.3 -0.3 0 -0.59 -0.3 -0.3 -0.3 -0.3 0 -0.3 -0.3 -0.3 -0.3 0.3 -0.3 0.3 0.3 0.3 0 0.3 0.3 0.3 0 0.3 0.3 0.59 0.3 0.3 0 0.3 0.3 0.3 0 0.3 0.3 0.3 0 0.59 0.3 0.3 0 0.3 0 0.3 0.3 0.3 0 0.59 0 0.3 0.3 0.3 0 0.3 0 0.59 0 0.3 0 0.3 0 0.3 0 0.59 0 0.3 0 0.3 0 0.3 0 0.59 0 0.3 0 0.3 0 0.59 0 0 0 0 0zm1.19 -1.78l0.59 0 0 0 0 0 0 0.3 0 0 0 0 0 0.3 0 0 0 0.3 0 0 0 0 0 0.3 0 0 0 0 0 0 0 0.3 -0.3 0 0 0 0 0 0 0.3 0 0 -0.3 0 0 0 0 0 -0.3 0.3 0 0 0 0 -0.3 0 0 0 0 0 -0.3 0 0 0 -0.3 0 0 0 0 -0.3 0 0 0.3 0 0 0 0 -0.3 0.3 0 0 0 0 0 0.3 0 0 0 0 0 0 0 0 0 0.3 0 0 -0.3 0 0 0 0 0 0 0 0 0 0 0 0 0 0 0 -0.3 0 0 0 0 0 0 0 -0.3 0 0 0 0 0 -0.3 0 0 0 0 0 -0.3 0 0 0 0zm0.59 -3.56l0.3 0.3 0 0 0 0 0 0 -0.3 0.3 0 0 0 0 0 0.3 0 0 0 0 -0.3 0 0 0.3 0 0 0 0 0 0.3 0 0 0 0 0 0.3 0 0 0 0.3 0 0 0 0 0 0.3 0 0 0 0 0 0.3 0 0 0 0 0 0.3 0 0 0 0.3 0 0 0 0 0.3 0.3 -0.59 0 0 0 0 -0.3 0 0 0 -0.3 0 0 -0.3 0 0 -0.3 0 0 0 -0.3 0 0 0 0 0 -0.3 0 0 0 -0.3 0 0 0 0 0 -0.3 0 0 0 0 0 -0.3 0.3 0 0 -0.3 0 0 0 0 0 -0.3 0 0 0.3 -0.3 0 0 0 0 0 -0.3 0.3 0 0 0 0 0 0 0zm0.3 0.3l0 0 0 0 0 0zm-0.3 -0.59l0.3 -0.3 0 0 0 0 0 0 0 0 0 0 0.3 0 0 0 0 0 0 0.3 0 0 0 0 0 0 0 0 0 0 0 0 0 0 0 0 0 0 0 0 0 0 0 0.3 0 0 0 0 -0.3 0 0 0 0 0 0 0 0 0 0 0 0 0 0 0 0 0.3 0 0 -0.3 -0.3 0 0 0 0 0 0 0 0 0 0 0 -0.3 0 0 0 0 0 0 0 0 0 0 0 0 0 0 0 0 0 0 0 0 0 0 0 0 0 0 0 0 0 0 0 0 0 0 0 0 0 0 0 0 0 0 0 0 0 0 0 0 0 0 0 0 0 0zm0.3 -0.3l0 0 0 0 0 0zm0.59 -2.07l0.3 -0.3 0 0.3 0 0 -0.3 0 0 0.3 0 0 -0.3 0 0 0 0 0 0 0.3 -0.3 0 0 0 0 0 0 0 0 0.3 0 0 -0.3 0 0 0 0 0 0 0.3 0 0 0 0 0 0 0 0 0 0 0 0.3 0 0 0 0 0 0 0 0.3 0.3 0 0 0 0 0 0 0.3 -0.3 0.3 0 -0.3 -0.3 0 0 0 0 -0.3 0 0 0 0 0 -0.3 -0.3 0 0 0 0 -0.3 0 0 0 0 0.3 -0.3 0 0 0 0 0 -0.3 0 0 0 0 0 0 0.3 -0.3 0 0 0 0 0 0 0.3 -0.3 0 0 0 0 0 0 0.3 -0.3 0 0 0 0 0.3 0 0 0 0 0.3zm0.3 -0.3l0.3 0 -0.3 0.3 0 -0.3zm-2.07 -0.89l0.3 -0.59 0 0 0 0 0 0 0 0.3 0.3 0 0 0 0 0 0 0 0 0 0 0 0.3 0 0 0.3 0 0 0 0 0 0 0.3 0 0 0 0 0 0 0.3 0 0 0.3 0 0 0 0 0 0 0 0 0 0.3 0.3 0 0 0 0 0 0 0 0 0.3 0 0 0 0 0.3 -0.3 0.3 0 0 0 0 -0.3 -0.3 0 0 0 0 0 0 0 0 -0.3 0 0 0 0 -0.3 0 0 0 0 -0.3 0 0 0 0 0 0 0 0 -0.3 -0.3 0 0 0 0 0 0 0 0 0 -0.3 0 0 0 0 -0.3 0 0 0 0 0 0 -0.3 0 0 0 0 0 0 0 0 0 0 0zm0 0l0 0 0 0 0 0zm-1.48 -1.19l0.59 -0.3 0 0 0 0 0 0 0 0 0 0.3 0 0 0 0 0 0 0 0 0.3 0 0 0 0 0 0 0 0 0 0 0 0 0.3 0.3 0 0 0 0 0 0 0 0 0 0 0 0 0 0.3 0 0 0 0 0.3 0 0 0 0 0 0 0 0 0.3 0 0 0 0 0 -0.3 0.59 0 -0.3 0 0 -0.3 0 0 0 0 0 0 0 0 0 0 0 0 0 -0.3 0 0 0 0 -0.3 0 0 0 0 0 0 0 0 -0.3 0 0 0 0 0 0 0 0 0 0 -0.3 0 0 -0.3 0 0 0 0 0 0 0 0 0 0 0 0 0 0 -0.3 -0.3 0 0 0 0 0zm-0.3 -2.37l0.3 0.3 0 0 0 0 0 0 0 0.3 0 0 0 0 0 0 0 0 0 0.3 0 0 0 0 0 0 0 0 0 0 0 0.3 0 0 0 0 0 0 0 0 0 0.3 0 0 0 0 0 0 0 0 0 0.3 0.3 0 0 0 0 0 0 0 0 0.3 0 0 0 0 0.3 0 -0.59 0.3 0 0 0 0 0 0 0 -0.3 -0.3 0 0 0 0 0 0 -0.3 0 0 0 0 0 0 0 -0.3 -0.3 0 0 0 0 0 0 -0.3 0 0 0 0 0 0 0 -0.3 0 0 0 0 0 -0.3 0 0 0 0 0 0 0 -0.3 0 0 0.3 0 0 0 0 -0.3 0 0 0 0 0 0zm0 0l0 0 0 0 0 0zm2.07 -1.48l0.3 0.3 0 0 -0.3 0.3 0 0 0 0 0 0 -0.3 0 0 0 0 0 0 0 0 0.3 -0.3 0 0 0 0 0 0 0 0 0 -0.3 0 0 0.3 0 0 0 0 -0.3 0 0 0 0 0 0 0 0 0.3 0 0 -0.3 0 0 0 0 0 0 0 0 0.3 0 0 -0.3 0 0 0 -0.3 -0.3 0 0 0 0 0.3 -0.3 0 0 0 0 0 0 0 0 0 0 0.3 -0.3 0 0 0 0 0 0 0 0 0.3 -0.3 0 0 0 0 0 0 0.3 0 0 0 0 0 0 -0.3 0 0 0.3 0 0 0 0 0 0 0 0.3 0 0 -0.3 0 0 0 0 0.3 0 0 0 0 0zm0 0l0 0 -0.3 0 0.3 0zm1.19 0.59l-0.3 0.3 0 0 0 0 0 0 0 0 0 0 0 0 -0.3 -0.3 0 0 0 0 0 0 0 0 0 0 0 0 0 0 0 0 0 0 -0.3 0 0 0 0 0 0 0 0 0 0 0 0 0 0 0 0 0 0 0 0 0 0 0 0 0 -0.3 0 0.3 -0.3 0 0 0 0 -0.3 -0.3 0 0 0 0 0 0 0 0 0.3 0 0 0 0 0 0 0 0 0 0 0 0.3 0 0 0 0 0 0 0 0 0 0 0 0 0 0.3 0 0 0.3 0 0 0 0 0 0 0 0 0 0 0 0 0.3 0 0 0 0 0 0 0.3 0 0 0 0 0 0 0 0zm0.3 1.48l-0.59 -0.3 0 0 0 0 0 0 0 0 0 0 0 0 0 0 0 -0.3 0 0 0 0 0 0 0 0 0 0 0 0 0 0 0 -0.3 0 0 0 0 0 0 0 0 0 0 0 0 0 0 0 0 0 -0.3 0 0 0 0 0 0 0 0 0 0 0 0 0 0 0 0 0.3 -0.3 0 0 0 0 0 0 0 0.3 0 0 0.3 0 0 0 0 0 0 0 0 0 0 0.3 0 0 0 0 0 0 0 0 0 0 0 0 0 0.3 0 0 0 0 0 0 0 0 0 0 0 0 0 0.3 0 0 0 0 0 0 0 0 0 0 0 0 0 0.3 0 0 0 0zm0 0l0 0 0 0 0 0zm-0.89 0.3l0 0.59 -0.3 -0.59 0 0 0 0 0 0 0.3 0 0 0 0 0 0 0 0 0 0 0 0 -0.3 0 0 0 0 0 0 0 0 0 0 0 0 0.3 0 0 0 0 0 0 0 0 0 0 0 0 0 0 0 0 0 0 -0.3 0 0 0 0 0 0 0 0 0 0 0 0 0.59 0.3 -0.3 0 0 0 0 0 0 0 0 0 0 0 0 0 0 0 0 0.3 0 0 0 0 0 0 0 0 0 0 0 0 0 0 0 0 0 0 0 0 -0.3 0 0 0 0 0.3 0 0 0 0 0 0 0 0 0 0 0 0 0 0 0 0 0 0 0 0 -0.3 -0.3 0 0zm0 0.59l-0.59 0 0.3 -0.59 0.3 0.59 0 0zm2.37 -0.3l0 0.59 0 0 0 0 0 0 -0.3 0 0 0 0 0 0 0 -0.3 0 0 0 0 0 0 0 -0.3 0 0 0 0 -0.3 0 0 -0.3 0 0 0 0 0 0 0 -0.3 0 0 0 0 0 -0.3 0 0 0 0 0 0 0 -0.3 0 0 0 0 0 0 0 -0.3 0 0 0 0 0 0 -0.59 0 0 0.3 0 0 0 0 0 0 0 0.3 0 0 0 0 0 0 0 0.3 0 0 0.3 0 0 0.3 0 0 0 0 0 0 0 0.3 0 0 0 0 0 0 0 0 0 0.3 0 0 0 0 0 0 0 0.3 0 0 0 0 0 0 0 0.3 0 0 0 0 0 0 0zm1.48 -1.48l0.3 -0.3 0 0 0.3 0.3 0 0 0 0.3 0 0 0 0.3 0 0 0 0 0 0.3 0 0 0 0.3 0 0 0 0 -0.3 0 0 0.3 0 0 0 0 0 0.3 -0.3 0 0 0 0 0 -0.3 0 0 0 0 0 -0.3 0.3 0 0 0 0 -0.3 0 0 0 -0.3 0 0 0 -0.3 0 0 0 0 -0.59 0.3 0 0 0 0 0 0.3 0 0 0 0 0 0.3 0 0 0 0 0 0.3 0 0 0 0 0 0 0 0 -0.3 0.3 0 0 0 0 0 0 0 0 0 0 0 0 -0.3 0 0 0 0 0 0 0 -0.3 0 0 0 0 0 -0.3 0 0 0 0 0 -0.3 0 0 0 0 0 0zm-1.78 -5.33l0.59 -0.3 0 0 0 0.3 0 0 0 0.3 0.3 0 0 0.3 0 0.3 0 0 0 0.3 0.3 0 0 0.3 0 0 0 0.3 0 0 0.3 0.3 0 0.3 0 0 0 0.3 0 0 0 0.3 0.3 0 0 0.3 0 0.3 0 0 0 0.3 0 0 0.3 0.3 0 0 0 0.3 0 0.3 0 0 0 0.3 0 0 -0.3 0.3 0 -0.3 0 0 -0.3 -0.3 0 -0.3 0 0 0 -0.3 0 0 0 -0.3 0 0 -0.3 -0.3 0 -0.3 0 0 0 -0.3 0 0 -0.3 -0.3 0 0 0 -0.3 0 0 0 -0.3 0 -0.3 -0.3 0 0 -0.3 0 0 0 -0.3 0 0 -0.3 -0.3 0 0 0 -0.3 0 -0.3 0 0 -0.3 -0.3 0 0 0 0 -0 0zm0.89 -4.44l0.59 0.3 0 0 -0.3 0 0 0.3 0 0 -0.3 0 0 0.3 0 0 -0.3 0.3 0 0 0 0 0 0.3 0 0 -0.3 0 0 0.3 0 0 0 0.3 0 0 0 0 0 0.3 0 0 0 0.3 0 0 0 0.3 0 0 0 0 0 0.3 0 0 0 0.3 0 0 0 0.3 0 0 0.3 0.3 0 0 -0.59 0.3 0 -0.3 0 0 0 -0.3 0 0 -0.3 -0.3 0 0 0 -0.3 0 0 0 -0.3 0 0 0 -0.3 0 0 0 -0.3 0 0 0 -0.3 0 0 0 -0.3 0.3 0 0 -0.3 0 0 0 -0.3 0 0 0 0 0.3 -0.3 0 0 0 -0.3 0.3 0 0 -0.3 0 0 0.3 0 0 -0.3 0 0 0 0zm0.59 -4.15l0.3 -0.3 0 0 0 0.3 0 0 0.3 0.3 0 0 0 0.3 0 0 0.3 0.3 0 0 0 0.3 0 0 0 0.3 0 0 0 0.3 0 0 0 0.3 0 0 0 0.3 0 0 0 0.3 0 0.3 0 0 -0.3 0.3 0 0 0 0 0 0.3 0 0 -0.3 0.3 0 0 0 0.3 -0.3 0 0 0.3 0 0 -0.59 -0.3 0.3 -0.3 0 0 0 0 0.3 -0.3 0 0 0 0 0 -0.3 0 0 0.3 -0.3 0 0 0 0 0 -0.3 0 0 0 -0.3 0 0 0 -0.3 0 0 0 -0.3 0 0 0 -0.3 0 0 0 0 0 -0.3 0 0 0 -0.3 0 0 0 -0.3 -0.3 0 0 0 0 -0.3 0 0 0 -0.3 0 0 0 0zm0.3 -0.3l0 0 0 0 0 0zm-0.59 0.3l0 -0.59 0 0 0 0 0 0 0 0 0 0 0 0 0 0 0.3 0 0 0 0 0 0 0.3 0 0 0 0 0 0 0 0 0 0 0 0 0 0 0 0 0 0 0 0 0 0 0 0 0 0 0 0 0.3 0 0 0 0 0 0 0 0 0 0 0 0 0 0 0 -0.3 0.3 -0.3 0 0 0 0 0 0 0 0 0 0 0 0 0 0 0 0 0 0 0 0 0 0 0 0 0 0 0 0 0 0 0 0 0 0 0 0 0 0 0 0 0 0 0 0 0 0 0 0 0 0 0 0 0 0 0 0 0 0 0 0 0 0 0 0 0 0 0zm0 -0.59l0 0 -0.3 0 0.3 0zm-3.26 -2.07l-0.3 -0.59 0.3 0.3 0 0 0.3 0.3 0 0 0 0 0 0.3 0.3 0 0 0 0 0.3 0.3 0 0 0 0 0.3 0 0 0.3 0 0 0.3 0 0 0.3 0 0 0 0 0.3 0.3 0 0 0 0 0 0.3 0.3 0 0 0.3 0 0 0 0 0 0.3 0.3 0 0 0.3 0 0 0 0.3 0 0 0 0 0.59 -0.3 0 0 0 -0.3 -0.3 0 0 -0.3 0 0 0 -0.3 0 0 0 -0.3 -0.3 0 0 0 0 -0.3 0 0 -0.3 -0.3 0 0 0 0 -0.3 -0.3 0 0 0 0 0 -0.3 -0.3 0 0 0 0 -0.3 -0.3 0 0 0 -0.3 -0.3 0 0 0 0 -0.3 0 0 -0.3 -0.3 0 0 0 0 0.3 0zm-0.3 -0.59l0.3 0 0 0.3 -0.3 -0.3zm-17.78 16.3l0 0 0 0 0 0 0 -0.3 0 0.3zm0.3 0.3l-0.3 0 0 -0.3 0.3 0.3zm1.19 -2.67l0.3 0 0 0 0 0 0 0 0 0.3 0 0 0 0.3 0 0 0 0 0 0.3 0 0 0 0.3 0 0 0 0 -0.3 0 0 0.3 0 0 0 0 0 0.3 0 0 -0.3 0 0 0 0 0.3 0 0 -0.3 0 0 0 0 0 0 0.3 -0.3 0 0 0 0 0 -0.3 0 0 0 0 0.3 -0.3 -0.59 0 0 0.3 0 0 0 0 0 0.3 -0.3 0 0 0 0 0 0 0 0 0.3 0 0 -0.3 0 0 0 0 0 0 0 0 0.3 -0.3 0 0 0 0 0 0 0 0 0 -0.3 0 0 0 0 0 -0.3 0 0 0 0 0.3 -0.3 0 0 0 0 0 -0.3 0 0 0 0 0 0 0 0zm0 -6.22l0.3 0 0 0 0 0 0 0.3 0 0.3 0 0 0 0.3 0 0.3 0 0 0 0.3 0 0.3 0 0 0 0.3 0 0 0 0.3 0 0.3 0 0 0 0.3 0 0.3 0 0 0 0.3 0 0.3 0 0 0 0.3 0 0.3 0 0 0 0.3 0 0.3 0 0 0 0.3 0 0.3 0 0 0 0.3 0 0.3 -0.3 0 0 -0.3 0 -0.3 0 0 0 -0.3 0 -0.3 0 0 0 -0.3 0 -0.3 0 0 0 -0.3 0 -0.3 0 0 0 -0.3 0 -0.3 0 0 0 -0.3 0 -0.3 0 0 0 -0.3 0 -0.3 0 0 0 -0.3 0 0 0 -0.3 0 -0.3 0 0 0 -0.3 0 -0.3 0 0 0 -0.3 0 -0.3 0 0 0 0zm0.89 -1.48l0 0.3 0 0 0 0 0 0 0 0 0 0 0 0 0 0 0 0 0 0 0 0.3 -0.3 0 0 0 0 0 0 0 0 0 0 0 0 0 0 0.3 0 0 0 0 0 0 0 0 0 0 0 0 0 0.3 0 0 0 0 0 0 -0.3 0 0 0 0 0 0 0.3 0 0 -0.3 0 0 -0.3 0 0 0 0 0 0 0 0 0 0 0 -0.3 0 0 0 0 0 0 0 0 0 -0.3 0 0 0 0 0 0 0.3 0 0 -0.3 0 0 0 0 0 0 0 0 0 0 0 0 0 -0.3 0 0 0.3 0 0 0 0 0 0 0 0 0 0 0 0.3 0 0 0zm1.78 -2.67l0.59 0.3 0 0 0 0 -0.3 0.3 0 0 0 0 0 0.3 0 0 0 0 0 0.3 0 0 -0.3 0 0 0.3 0 0 0 0 0 0.3 -0.3 0 0 0 0 0.3 0 0 0 0 -0.3 0.3 0 0 0 0 -0.3 0 0 0.3 0 0 -0.3 0 0 0 0 0 -0.3 0.3 0 0 0 0 -0.3 0 0 -0.3 0 -0.3 0 0 0.3 0 0 0 0 0 0.3 0 0 -0.3 0 0 0 0 0.3 0 0 0 0 -0.3 0 0 0.3 0 0 0 0 -0.3 0 0 0 0 0 0 0.3 -0.3 0 0 0 0 0 -0.3 0 0 0 0 0 -0.3 0.3 0 0 0 0 -0.3 0 0 0 0 0 -0.3 0 0 0 0zm0 0l0 0 0 0 0 0zm2.07 -0.89l0 0.3 0 0 -0.3 0 0 0 0 0 0 0 -0.3 0 0 0 0 0 0 0 -0.3 0 0 0 0 0 0 0 0 0 0 0 -0.3 0 0 0 0 0 0 0 0 0 0 0 0 0 0 0 0 0.3 -0.3 0 0 0 0 0 0 0 0 0.3 0 0 0 0 0 0 0 0.3 -0.59 -0.3 0 0 0 0 0 -0.3 0 0 0.3 0 0 -0.3 0 0 0 0 0 0 0 -0.3 0 0 0.3 0 0 0 0 0 0 -0.3 0.3 0 0 0 0 0 0 0 0.3 0 0 0 0 0 0 0 0.3 0 0 0 0 0 0.3 0 0 0 0 0 0.3 0 0 0 0 0.3 0 0 0 0zm2.37 -1.78l0.59 0 0 0 0 0.3 0 0 0 0.3 0 0 0 0.3 -0.3 0 0 0 0 0.3 0 0 0 0.3 -0.3 0 0 0 0 0.3 0 0 -0.3 0 0 0.3 0 0 -0.3 0 0 0 -0.3 0 0 0.3 0 0 -0.3 0 0 0 -0.3 0 0 0 -0.3 0 0 0 -0.3 0 0 -0.3 -0.3 0 0 0 0 -0.3 0.3 0 0 0 0.3 0 0 0 0 0 0.3 0 0 0 0.3 0 0 0 0 0 0.3 0 0 0 0 0 0 0 0.3 -0.3 0 0 0 0 0.3 0 0 0 0 -0.3 0 0 0 0 0 0 0.3 -0.3 0 0 0 0 0 -0.3 0 0 0 -0.3 0 0 0 0 0 -0.3 0 0 -0 0zm1.78 -1.78l0 0.59 0 0 0 0 -0.3 0 0 0 0 0 -0.3 0 0 0 0 0 0 0 0 0 -0.3 0 0 0 0 0 0 0 0 0 0 0 0 0 -0.3 0.3 0 0 0 0 0 0 0 0 0 0 0 0 0 0.3 0 0 0 0 0 0 0 0.3 0 0 0 0 0 0.3 0 0 -0.59 0 0 0 0 -0.3 0 0 0 0 0 -0.3 0 0 0 0 0 -0.3 0 0 0.3 0 0 -0.3 0 0 0 0 0 0 0 -0.3 0 0 0.3 0 0 0 0 0 0 0 0 -0.3 0.3 0 0 0 0 0 0.3 0 0 0 0 0 0.3 0 0 0 0 0 0.3 0 0 0 0 0 0 0zm1.78 -0.89l0.3 0 0 0 0 0.3 0 0 0 0 -0.3 0 0 0.3 0 0 0 0 0 0 0 0 -0.3 0.3 0 0 0 0 0 0 0 0 -0.3 0 0 0 0 0.3 0 0 -0.3 0 0 0 0 0 0 0 0 0 -0.3 0 0 0 0 0 -0.3 0 0 0 0 0.3 0 0 -0.3 0 0 0 0 -0.59 0 0 0.3 0 0 0 0 0 0 0 0 0 0.3 0 0 0 0 0 0 0 0 -0.3 0.3 0 0 0 0 0 0 0 0 0 0 0 0.3 0 0 0 0 0 0 -0.3 0 0 0 0 0.3 0 0 0 0 0 0 0 0 -0.3 0 0 0 0 0 0 0.3 0 0 0 0 0zm2.37 -0.59l-0.3 0.3 0 0 0 0 -0.3 0 0 -0.3 0 0 0 0 -0.3 0 0 0 0 0 0 0 -0.3 0 0 0 0 0 0 0 0 0 0 0 0 0 -0.3 0 0 0 0 0 0 0 0 0 0 0 0 0 -0.3 0 0 0.3 0 0 0 0 0 0 0 0.3 -0.3 0 0 0 0 0 -0.3 0 0 -0.3 0 0 0 0 0 -0.3 0.3 0 0 0 0 0 0 -0.3 0 0 0.3 0 0 0 0 0 0 -0.3 0.3 0 0 0 0 0 0 0 0.3 0 0 0 0 0 0.3 0 0 0 0 0 0 0 0.3 0 0 0.3 0 0 0.3 0 0 0 0 0 0.3 0 0 0.3 0 0zm2.96 -0.3l0.3 0.59 0 0 0 0 -0.3 0 0 0.3 -0.3 0 0 0 0 0 -0.3 0 0 0.3 0 0 -0.3 0 0 0 -0.3 0 0 0 0 0 -0.3 0 0 0 0 0 -0.3 0 0 0 -0.3 0 0 0 0 0 -0.3 0 0 0 0 0 -0.3 -0.3 0 0 -0.3 0 0 0 0 0 -0.3 -0.3 0 0 0.3 -0.3 0 0 0.3 0 0 0 0 0.3 0.3 0 0 0 0 0 0.3 0 0 0 0 0 0 0 0.3 0 0 0.3 0 0 0.3 0 0 0 0 0 0.3 0 0 -0.3 0 0 0 0 0.3 0 0 0 0 0 0.3 0 0 0 0 0 0.3 -0.3 0 0 0 0 0.3 0 0 -0.3 0 0 0 0zm0 0l0 0 0 0 0 0zm2.37 0.89l-0.3 0.3 0 0 0 -0.3 -0.3 0 0 0 0 -0.3 0 0 0 0 0 0 0 0 0 -0.3 -0.3 0 0 0 0 0 0 0 0 0 0 0 0 0 -0.3 0 0 0 0 0 0 0 0 0 -0.3 0 0 0 0 0 0 0 0 0 -0.3 0 0 0 0 0 0 0 -0.3 0.3 0 0 -0.3 -0.59 0 0 0.3 0 0 0 0 0 0.3 -0.3 0 0 0 0 0.3 0 0 0 0 0 0.3 0 0 0 0 0 0.3 0 0 0 0 0 0 0 0.3 0 0 0.3 0 0 0 0 0.3 0 0 0 0 0.3 0 0 0 0 0.3 0 0 0.3 0 0 0 0.3 0 0 0 0 0 0 0 0zm-0.3 0.3l0 0 0 0.3 0 -0.3zm3.56 2.07l0 0.3 0 0 -0.3 0 0 0 -0.3 0 0 0 -0.3 0 0 0 -0.3 0 0 0 -0.3 0 0 0 -0.3 0 0 0 -0.3 0 0 -0.3 0 0 -0.3 0 0 0 -0.3 -0.3 0 0 0 0 -0.3 -0.3 0 0 0 -0.3 -0.3 0 0 -0.3 0 0 0 -0.3 -0.3 0 0 -0.3 0 0 0 -0.3 0 0 0.3 -0.3 0 0.3 0.3 0 0 0.3 0 0 0 0.3 0 0 0.3 0.3 0 0 0 0 0 0.3 0.3 0 0 0 0 0.3 0 0 0.3 0 0 0 0 0.3 0.3 0 0 0 0.3 0 0 0 0 0.3 0.3 0 0 0 0 0 0.3 0 0 0 0.3 0 0 0 0.3 0 0 0 0.3 0 0 0zm1.78 -3.26l0.3 -0.3 0 0 0 0.3 0 0.3 0 0 0 0.3 0 0 0 0.3 0 0 0 0.3 0 0 0 0.3 0 0 0 0.3 0 0 0 0.3 -0.3 0 0 0.3 0 0 0 0.3 -0.3 0 0 0 0 0.3 -0.3 0 0 0 0 0.3 -0.3 0 0 0 -0.3 0 0 0.3 -0.3 0 0 0 -0.3 0 0 0 0 -0.3 0 -0.3 0 0 0.3 0 0 0 0.3 0 0 0 0 0 0.3 -0.3 0 0 0 0 0 0 0.3 -0.3 0 0 0 0 0 -0.3 0.3 0 0 0 0 -0.3 0 0 0 -0.3 0 0 0.3 0 0 -0.3 0 0 0 -0.3 0 0 0 -0.3 0 0 0 -0.3 0 0 0 -0.3 0 0 0 0zm0 0l0 0 0 0 0 0zm0.3 -1.78l0.3 0.3 0 0 0 0 0 0 0 0.3 0 0 0 0 0 0 0 0 0 0 0 0 0 0 0 0.3 0 0 -0.3 0 0 0 0 0 0 0 0 0 0 0.3 0 0 0 0 0 0 0 0 0 0 0 0 0 0.3 0 0 0 0 0 0 0 0 0 0 0 0 0 0 -0.3 0.3 0 0 0 -0.3 -0.3 0 0 0 0 0 0 0 0 -0.3 0 0 0.3 0 0 0 0 0 0 0 0 -0.3 0 0 0 0 0 0 0 0 0 -0.3 0 0 0 0 0 0 0 0 0 0 0 -0.3 0 0 0 0 0 0 0.3 0 0 0 0 -0.3 0 0 0 0 0 0zm-0.3 -3.85l0.3 -0.59 0 0 0 0.3 0.3 0 0 0.3 0 0 0.3 0.3 0 0 0.3 0.3 0 0 0 0 0 0.3 0.3 0 0 0.3 0 0 0 0.3 0 0 0 0.3 0 0 0 0.3 0 0 0 0.3 0 0 0 0.3 0 0 0 0.3 -0.3 0.3 0 0 0 0.3 0 0 -0.3 0.3 0 0 0 0.3 -0.3 0 -0.3 -0.3 0 0 0.3 -0.3 0 0 0 -0.3 0 0 0.3 -0.3 0 0 0 -0.3 0 0 0 0 0 -0.3 0.3 0 0 -0.3 0 0 0 -0.3 0 0 0 0 -0.3 -0.3 0 0 0 -0.3 0 0 0 0 0 -0.3 -0.3 0 0 -0.3 0 0 0 0 -0.3 -0.3 0 0 -0.3 0 0 -0.3 0 0 0 0 0 0zm0.3 -0.59l0 0 0 0 0 0zm-1.19 -1.19l0.59 0 0 0 0 0 0 0 0 0.3 0 0 0 0 0 0 0 0 0 0 0 0 0 0.3 0 0 0 0 0 0 0 0 0 0 0 0 0 0.3 0 0 0 0 0 0 0 0 0 0 0 0 0.3 0 0 0.3 0 0 0 0 0 0 0 0 0 0 0 0 0.3 0 -0.3 0.59 -0.3 0 0 -0.3 0 0 0 0 0 0 0 0 -0.3 0 0 -0.3 0 0 0 0 0 0 0 0 0 0 0 -0.3 0 0 -0.3 0 0 0 0 0 0 -0.3 0 0 0 0 0 0 0 0 0 -0.3 0 0 0 0 0 0 0 0 0 -0.3 0 0 0 0 0 0 0 0 -0 -0zm0.59 0l0 0 0 0 0 0zm-1.48 -2.96l0 -0.59 0 0 0.3 0.3 0 0 0.3 0 0 0 0 0.3 0 0 0.3 0 0 0 0 0.3 0.3 0 0 0 0 0.3 0 0 0 0 0 0.3 0.3 0 0 0 0 0.3 0 0 0 0.3 0 0 0 0 0 0.3 0 0 0 0.3 0 0 0 0.3 0 0 0 0.3 0 0 0 0 0 0.3 -0.59 0 0 -0.3 0 0 0.3 -0.3 0 0 0 0 0 -0.3 0 0 0 -0.3 0 0 0 0 0 -0.3 -0.3 0 0 0 0 -0.3 0 0 0 0 0 -0.3 0 0 0 0 0 -0.3 -0.3 0 0 0 0 0 0 -0.3 0 0 -0.3 0 0 0 0 0 0 -0.3 -0.3 0 0 0 0 0 0 0 0 0zm-3.26 0.59l-0.3 -0.59 0 0 0 0 0.3 0 0 -0.3 0 0 0.3 0 0 0 0.3 -0.3 0 0 0 0 0.3 0 0 0 0.3 -0.3 0 0 0 0 0.3 0 0 0 0.3 0 0 0 0 0 0.3 0 0 0 0.3 0 0 0 0 0 0.3 0 0 0 0.3 0 0 0.3 0 0 0.3 0 0 0 0 0 0 0.59 -0.3 0 0 -0.3 0 0 -0.3 0 0 0 0 0 -0.3 0 0 0 0 0 -0.3 0 0 0 0 0 -0.3 0 0 0 0 0 -0.3 0 0 0 0 0 -0.3 0 0 0 0 0 -0.3 0 0 0 0 0.3 -0.3 0 0 0 0 0 -0.3 0 0 0.3 0 0 -0.3 0 0 0.3 0 0zm-2.07 0l0 -0.3 0 0 0.3 0 0 0 0 0 0 0 0 0 0.3 0 0 0 0 0 0 0.3 0 0 0.3 0 0 0 0 0 0 0 0 0 0 0 0.3 0 0 0 0 0 0 0 0 0 0 0 0 -0.3 0.3 0 0 0 0 0 0 0 0 0 0 0 0 0 0.3 0 0 -0.3 0.3 0.59 0 0 0 0 -0.3 0 0 0 0 0.3 0 0 -0.3 0 0 0 0 0 0 0 0 0 -0.3 0 0 0 0 0 0 0 -0.3 0 0 0 0 0 0 0 0 0 -0.3 0 0 0 0 0 0 0 -0.3 0 0 0 0 0 0 0 -0.3 0 0 0 0 -0.3 0 0 0 0 0 0zm-2.37 -0.3l0 -0.59 0 0 0 0 0.3 0 0 0 0 0 0 0 0.3 0 0 0 0 0 0 0 0.3 0 0 0 0 0 0.3 0 0 0 0 0 0 0.3 0.3 0 0 0 0 0 0 0 0.3 0 0 0 0 0 0 0 0.3 0 0 0 0 0 0 0 0.3 0.3 0 0 0 0 0 0 0 0.3 0 0 -0.3 0 0 0 0 0 0 0 -0.3 0 0 0 0 0 0 0 -0.3 0 0 -0.3 0 0 0 0 0 0 -0.3 0 0 0 0 0 0 0 -0.3 0 0 0 0 0 0 0 -0.3 0 0 0 0 0 0 0 -0.3 0 0 0 0 0 0 0 -0.3 0 0 0 0 0 0 0zm-2.07 -1.19l0.59 -0.3 0 0 0 0.3 0 0 0 0 0 0 0 0.3 0 0 0 0 0.3 0 0 0 0 0.3 0 0 0 0 0 0 0 0 0 0 0 0 0 0 0.3 0 0 0 0 0 0 0 0 0 0 0 0.3 0 0 0 0 0 0 0 0.3 0 0 0 0 0 0.3 0 0 0 0 0.59 0 0 -0.3 0 0 0 0 0 -0.3 0 0 0 0 0 0 0 -0.3 0 0 0 0 0 0 0 -0.3 0 0 0 0 0 0 0 -0.3 -0.3 0 0 0 0 0 0 0 0 -0.3 0 0 -0.3 0 0 0 0 0 0 0 -0.3 0 0 -0.3 0 0 -0.3 0 0 0 0 0 0 0 0zm-2.07 -2.07l0 -0.3 0 0 0.3 0 0 0 0 0 0.3 0 0 0 0 0 0.3 0 0 0.3 0.3 0 0 0 0 0 0.3 0 0 0 0 0.3 0 0 0.3 0 0 0 0 0.3 0 0 0.3 0 0 0 0 0.3 0 0 0 0 0.3 0.3 0 0 0 0 0 0.3 0 0 0 0 0.3 0.3 0 0 -0.59 0.3 0 -0.3 0 0 0 0 0 -0.3 -0.3 0 0 0 0 0 0 -0.3 0 0 0 0 0 -0.3 -0.3 0 0 0 0 0 0 0 0 -0.3 -0.3 0 0 0 0 0 0 0 -0.3 -0.3 0 0 0 0 0 0 -0.3 0 0 0 0 0 -0.3 0 0 0 0 0 -0.3 -0.3 0 0 0 0 0 0zm-2.67 1.48l-0.3 -0.3 0 0 0 0 0 0 0.3 -0.3 0 0 0 0 0 -0.3 0.3 0 0 0 0 0 0 -0.3 0.3 0 0 0 0 0 0 -0.3 0.3 0 0 0 0 0 0.3 0 0 -0.3 0 0 0.3 0 0 0 0.3 0 0 0 0 0 0.3 0 0 0 0 0 0.3 0 0 0 0.3 0 0 0 0 0.3 0 0 -0.3 0 0 0 0 0 -0.3 0 0 0 0 0 -0.3 0.3 0 0 0 0 -0.3 0 0 0 0 0 -0.3 0 0 0 0 0 0 0 -0.3 0.3 0 0 0 0 0 0 -0.3 0 0 0.3 0 0 0 0 0 0 -0.3 0.3 0 0 0 0 0 0.3 0 0 -0.3 0 0 0zm-2.37 0.3l0.3 -0.3 0 0 0 0 0 0 0.3 0.3 0 0 0 0 0 0 0.3 0 0 0.3 0 0 0 0 0 0 0.3 0 0 0 0 0 0 0 0 0 0 0 0.3 0 0 0 0 0 0 0 0 0 0 -0.3 0.3 0 0 0 0 0 0 0 0 0 0 -0.3 0.3 0 0 0 0 -0.3 0.3 0.3 0 0.3 0 0 0 0 0 0.3 -0.3 0 0 0 0 0 0 0.3 -0.3 0 0 0 0 0 0 0 -0.3 0 0 0 0 0 -0.3 0.3 0 0 0 0 -0.3 0 0 -0.3 0 0 0 0 -0.3 0 0 0 0 0 -0.3 0 0 -0.3 0 0 0 0 -0.3 0 0 -0.3 0 0 0 0zm-3.85 -0.3l-0.3 -0.59 0 0 0.3 0 0 0 0.3 0 0 -0.3 0.3 0 0 0 0.3 0 0 0 0.3 -0.3 0 0 0.3 0 0 0 0.3 0 0 0 0.3 0 0 0 0 0 0.3 0 0 0 0.3 0.3 0 0 0.3 0 0 0 0.3 0 0 0.3 0 0 0.3 0 0 0 0.3 0.3 0 0 0 0.3 0.3 0 -0.3 0.3 -0.3 0 0 -0.3 0 0 -0.3 0 0 0 0 -0.3 -0.3 0 0 0 -0.3 0 0 -0.3 0 0 -0.3 0 0 0 0 0 -0.3 0 0 0 -0.3 0 0 0 0 0 -0.3 0 0 0 0 0 -0.3 0 0 0 -0.3 0 0 0 -0.3 0.3 0 0 0 0 -0.3 0 0 0 -0.3 0.3 0 0 0 0zm-2.37 -0.59l0.59 -0.3 0 0 0 0 0 0.3 0 0 0 0 0 0 0.3 0 0 0.3 0 0 0 0 0 0 0 0 0 0 0.3 0 0 0 0 0.3 0 0 0 0 0 0 0 0 0.3 0 0 0 0 0 0 0 0 -0.3 0.3 0 0 0 0 0 0 0 0.3 0 0 0 0 0 0 -0.3 0.3 0.59 0 0 0 0 -0.3 0 0 0.3 0 0 0 0 -0.3 0 0 0 0 0 -0.3 0 0 0 0 0 -0.3 0 0 0 0 0 0 0 -0.3 0 0 0 0 0 0 0 -0.3 0 0 -0.3 0 0 0 0 -0.3 0 0 -0.3 0 0 0 0 0 0 0 -0.3 -0.3 0 0 0 0 0 0 0zm-2.07 -1.78l0 -0.3 0 0 0 0 0 0 0.3 0 0 0 0.3 0 0 0 0 0 0.3 0 0 0 0 0 0.3 0 0 0.3 0 0 0.3 0 0 0 0 0 0 0.3 0.3 0 0 0 0 0 0 0 0.3 0.3 0 0 0 0 0 0.3 0.3 0 0 0 0 0.3 0 0 0 0 0.3 0.3 0 0 -0.59 0.3 0 -0.3 0 0 0 0 0 -0.3 -0.3 0 0 0 0 0 0 -0.3 0 0 -0.3 0 0 0 0 -0.3 0 0 0 0 -0.3 0 0 0 0 0 0 -0.3 -0.3 0 0 0 0 0 0 0 -0.3 0 0 0 0 0 0 -0.3 -0.3 0 0 0 0 0 -0.3 0 0 0 0 0 0 0 0 0zm0 -0.3l0 0 0 0 0 0zm-2.37 1.78l-0.59 -0.3 0 0 0.3 0 0 0 0 -0.3 0 0 0 0 0.3 -0.3 0 0 0 0 0 0 0.3 -0.3 0 0 0 0 0 0 0.3 -0.3 0 0 0 0 0.3 0 0 0 0 0 0 -0.3 0.3 0 0 0 0 0 0.3 0 0 0 0 0 0.3 0 0 0 0.3 0 0 0 0 0 0.3 0 0 0.3 -0.3 0 0 0 0 0 -0.3 0 0 0 0 0 -0.3 0 0 0.3 0 0 0 0 -0.3 0 0 0 0 0 0 0 -0.3 0 0 0 0 0.3 0 0 -0.3 0 0 0 0 0 0 0 0 0.3 -0.3 0 0 0 0 0 0 0.3 0 0 -0.3 0 0 0 0 0.3 0 0 0 0 0 0zm-2.37 0.59l0.3 -0.3 0 0 0 0 0.3 0 0 0 0 0 0 0.3 0 0 0.3 0 0 0 0 0 0 0 0 0 0.3 0 0 0 0 0 0 0 0 0 0 0 0 0 0.3 0 0 -0.3 0 0 0 0 0 0 0 0 0 0 0 0 0.3 -0.3 0 0 0 0 0 0 0 -0.3 0 0 0.59 0.3 0 0 -0.3 0.3 0 0 0 0 0 0 0 0.3 0 0 -0.3 0 0 0 0 0 0 0.3 0 0 -0.3 0 0 0 0 0 0 0 -0.3 0 0 0 0 0 0 0 -0.3 0 0 0 0 0 0 0 -0.3 0 0 0 0 0 -0.3 0 0 0 0 0 0 0 -0.3 -0.3 0 0 0 0zm-4.74 3.26l-0.59 0 0 0 0 -0.3 0 -0.3 0.3 -0.3 0 -0.3 0 -0.3 0 -0.3 0 -0.3 0.3 0 0 -0.3 0.3 -0.3 0 0 0.3 -0.3 0 0 0.3 -0.3 0 0 0.3 -0.3 0.3 0 0 -0.3 0.3 0 0.3 0 0.3 0 0 -0.3 0.3 0 0.3 0 0.3 0 0.3 0 0.3 0.3 0 0 0.3 0 0.3 0 0.3 0.3 0.3 0 -0.3 0.3 -0.3 0 0 0 -0.3 0 -0.3 -0.3 -0.3 0 -0.3 0 0 0 -0.3 0 -0.3 0 0 0 -0.3 0 -0.3 0 0 0.3 -0.3 0 -0.3 0 0 0.3 -0.3 0 0 0 -0.3 0.3 0 0 -0.3 0.3 0 0 0 0.3 -0.3 0 0 0.3 0 0.3 0 0.3 -0.3 0 0 0.3 0 0.3 0 0.3 0 0.3 0 0 0 0zm-1.78 1.48l0 -0.3 0 0 0 0 0.3 0 0 0 0 0 0.3 0 0 0 0 0 0 0 0 -0.3 0.3 0 0 0 0 0 0 0 0 0 0 0 0 0 0.3 0 0 0 0 0 0 -0.3 0 0 0 0 0 0 0 0 0 0 0 -0.3 0 0 0 0 0 0 0 -0.3 0 0 0 0 0.59 0 0 0 0 0 0 0.3 0 0 0 0 0 0.3 0 0 0 0 0 0.3 0 0 -0.3 0 0 0 0 0.3 0 0 0 0 0 0 -0.3 0 0 0.3 0 0 0 0 -0.3 0 0 0 0 0 0 0 -0.3 0 0 0 0 0 -0.3 0 0 0 0 0 -0.3 0 0 0 0 0 0 0zm-2.96 3.26l-0.59 0 0 0 0 -0.3 0 0 0 -0.3 0 -0.3 0 0 0 -0.3 0 -0.3 0 0 0.3 -0.3 0 0 0 -0.3 0 -0.3 0 0 0.3 -0.3 0 0 0.3 0 0 -0.3 0 0 0.3 -0.3 0 0 0.3 0 0 -0.3 0.3 0 0.3 0 0 0 0.3 0 0.3 0 0 0 0.3 -0.3 0.3 0 0 0.3 0.3 0 0 0.3 -0.3 0 0 0 -0.3 0 -0.3 0 0 0 -0.3 0 0 0 -0.3 0.3 0 0 -0.3 0 0 0 -0.3 0 0 0.3 -0.3 0 0 0 0 0.3 -0.3 0 0 0 0 0.3 0 0 -0.3 0.3 0 0 0 0.3 0 0 0 0.3 0 0 0 0.3 0 0 0 0.3 0 0.3 0 0 0 0.3 0 0 0 0zm-1.19 1.78l0 -0.3 0 0 0 0 0 0 0 0 0 0 0.3 -0.3 0 0 0 0 0 0 0 0 0 0 0.3 0 0 0 0 0 0 0 0 -0.3 0 0 0 0 0 0 0 0 0 0 0 0 0 -0.3 0 0 0 0 0 0 0 0 0 -0.3 0 0 0 0 0 0 0 -0.3 0 0 0.59 0 0 0 0 0.3 0 0 0 0 0 0 0 0.3 0 0 0 0 0 0 0 0.3 0 0 0 0 0 0 0 0.3 0 0 -0.3 0 0 0 0 0.3 0 0 0 0 0 0 -0.3 0 0 0 0 0.3 0 0 0 0 -0.3 0 0 0 0 0 0 0 -0.3 0 0 0 0 0 0 0zm-1.48 5.04l-0.3 0.59 0 0 -0.3 -0.3 0 -0.3 -0.3 -0.3 0 0 0 -0.3 -0.3 -0.3 0 0 0 -0.3 0 -0.3 0 -0.3 0 0 -0.3 -0.3 0.3 -0.3 0 0 0 -0.3 0 -0.3 0 -0.3 0 0 0.3 -0.3 0 0 0 -0.3 0.3 -0.3 0 0 0.3 -0.3 0 0 0.3 -0.3 0.3 0 0 -0.3 0.3 0 0.3 0 0.3 -0.3 0.3 0 0 0.3 -0.3 0.3 0 0 -0.3 0 -0.3 0.3 0 0 -0.3 0.3 0 0 -0.3 0 0 0.3 -0.3 0 0 0.3 -0.3 0 0 0.3 0 0 0 0.3 -0.3 0.3 0 0 0 0.3 0 0 0 0.3 0 0.3 0 0 0 0.3 0 0 0.3 0.3 0 0.3 0 0 0.3 0.3 0 0.3 0 0 0.3 0.3 0 0 0 0 0 -0zm0 2.37l-0.3 -0.3 0 0 0 0 0 0 0 0 0.3 -0.3 0 0 0 0 0 0 0 0 0 0 0 -0.3 0 0 0 0 0 0 0 0 0 0 0 -0.3 0 0 0 0 0 0 0 0 0 0 0 -0.3 0 0 0 0 0 0 0 0 0 0 0 -0.3 -0.3 0 0 0 0 0 0 0 0.3 -0.59 0 0.3 0.3 0 0 0 0 0 0 0.3 0 0 0 0 0.3 0 0 0.3 0 0 0 0 0 0 0 0.3 0 0 0 0 0 0 0 0.3 0 0 0 0 0 0.3 0 0 0 0 0 0 -0.3 0 0 0.3 0 0 0 0 0 0 0 0.3 0 0 -0.3 0 0 0 0 0 0 0zm-0.3 3.56l-0.3 0.3 0 0 -0.3 -0.3 0 0 0 -0.3 0 0 -0.3 0 0 -0.3 0 0 0 -0.3 0 0 0 -0.3 0 0 0 0 0 -0.3 0 0 0 -0.3 0 0 0 -0.3 0 0 0 0 0 -0.3 0 0 0 -0.3 0 0 0.3 -0.3 0 0 0 0 0 -0.3 0.3 0 0 -0.3 0 0 0.3 0 0 -0.3 0.3 0.3 0 0.3 -0.3 0 0 0 0 0.3 0 0 -0.3 0.3 0 0 0 0 0 0.3 0 0 0 0 -0.3 0.3 0 0 0 0 0 0.3 0 0 0 0 0 0.3 0 0 0 0 0 0.3 0 0 0 0 0.3 0.3 0 0 0 0 0 0.3 0 0 0 0.3 0.3 0 0 0 0 0.3 0 0zm-0.59 2.37l-0.3 -0.3 0 0 0.3 0 0 -0.3 0 0 0 0 0.3 0 0 0 0 -0.3 0 0 0 0 0.3 0 0 0 0 0 0 0 0 -0.3 0 0 0 0 0 0 0 0 0 0 0 0 0 -0.3 0 0 0 0 0 0 0 0 0 -0.3 0 0 -0.3 0 0 0 0 -0.3 0 0 0 0 0.3 -0.3 0 0 0.3 0.3 0 0 0 0 0 0 0 0.3 0 0 0 0 0 0.3 0.3 0 0 0 0 0 0 0.3 0 0 0 0 0 0.3 0 0 -0.3 0 0 0 0 0.3 0 0 0 0 0 0 -0.3 0 0 0.3 0 0 0 0 -0.3 0 0 0.3 0 0 0 0 -0.3 0 0 0zm-1.48 2.96l-0.3 0 0 0 0 0 0 -0.3 0 0 0 0 -0.3 -0.3 0.3 0 0 -0.3 0 0 0 0 0 -0.3 0 0 0 -0.3 0 0 0 0 0 -0.3 0.3 0 0 -0.3 0 0 0 0 0 -0.3 0.3 0 0 0 0 -0.3 0 0 0.3 0 0 -0.3 0 0 0.3 0 0 0 0.3 -0.3 0 0 0 0 0.3 0.3 0 0 0 0.3 -0.3 0 0 0 0 0 -0.3 0.3 0 0 0 0 -0.3 0.3 0 0 0 0 0 0 0 0.3 -0.3 0 0 0 0 0.3 0 0 0 0 0 0.3 0 0 -0.3 0 0 0 0 0.3 0 0 0 0.3 0 0 0 0 0 0.3 0 0 0 0 0 0.3 0 0 0 0zm2.37 2.37l0 0.3 0 0 -0.3 0 0 0 -0.3 0 0 0 0 0 -0.3 0 0 -0.3 -0.3 0 0 0 0 0 -0.3 0 0 -0.3 0 0 -0.3 0 0 0 0 -0.3 -0.3 0 0 0 0 -0.3 0 0 -0.3 0 0 -0.3 0 0 0 0 0 -0.3 -0.3 0 0 -0.3 0 0 0 0 0 -0.3 0 0 0 -0.3 0.3 0 0 0 0 0.3 0.3 0 0 0.3 0 0 0 0 0 0.3 0 0 0 0 0.3 0 0 0.3 0 0 0 0 0 0.3 0.3 0 0 0 0 0 0 0.3 0.3 0 0 0 0 0 0 0 0.3 0.3 0 0 0 0 0.3 0 0 0 0.3 0 0 0 0 0.3 0.3 0 0 0 0 0zm1.48 2.37l-0.59 -0.3 0 0 0 0 0 -0.3 0 0 0 0 0.3 -0.3 0 0 0 0 0 0 0 -0.3 0 0 0 0 0 0 0 0 0 -0.3 -0.3 0 0 0 0 0 0 0 0 0 0 0 0 0 0 -0.3 0 0 -0.3 0 0 0 0 0 0 0 -0.3 0 0 0 0 0 -0.3 -0.3 0 0 0 -0.3 0.3 0 0 0 0 0 0.3 0 0 0 0 0 0.3 0.3 0 0 0 0 0.3 0 0 0 0 0 0 0.3 0.3 0 0 0 0 0 0 0.3 0 0 0 0 0 0 0 0.3 0 0 0 0 0 0.3 0 0 0 0 0 0.3 0 0 0 0 0 0.3 0 0 0 0.3 0 0 0 0zm0.59 2.67l-0.59 0.59 0 0 0 -0.3 0 0 0 0 -0.3 -0.3 0 0 0 0 0 0 -0.3 -0.3 0 0 0 0 0 -0.3 0 0 0 -0.3 0 0 -0.3 0 0 -0.3 0 0 0 0 0 -0.3 0 0 0 -0.3 0 0 0 0 0 -0.3 0 0 0 -0.3 0 0 0.3 0 0 -0.3 0 0 0 -0.3 0 0 0.59 0.3 -0.3 0 0 0 0 0.3 0 0 0 0 0 0.3 0 0 0 0 0 0.3 0 0 0 0 0 0.3 0 0 0 0 0 0.3 0 0 0 0 0 0.3 0 0 0 0 0 0.3 0.3 0 0 0 0 0 0 0.3 0 0 0 0 0.3 0 0 0.3 0 0 0 0 0.3 0 0 0 0 0zm2.67 0.3l0.3 0.59 0 0 0 0 -0.3 0 0 0 -0.3 0.3 0 0 0 0 -0.3 0 0 0 -0.3 0 0 0 0 0 -0.3 0 0 0 0 0 -0.3 0 0 0 -0.3 0 0 0 0 0 -0.3 0 0 0 0 0 -0.3 0 0 -0.3 0 0 -0.3 0 0 0 0 0 -0.3 -0.3 0 0 0 0 -0.3 0 0.59 -0.59 0 0.3 0 0 0 0 0.3 0 0 0 0 0.3 0 0 0.3 0 0 0 0 0 0.3 0 0 0 0 0 0 0 0.3 0.3 0 0 0 0 0.3 0 0 0 0 0 0 0 0.3 0 0 -0.3 0 0 0.3 0 0 0 0 0 0.3 0 0 0 0.3 0 0 0 0 -0.3 0 0 0 0zm2.37 0.89l-0.3 0.3 0 0 0 0 -0.3 -0.3 0 0 0 0 0 0 0 -0.3 0 0 -0.3 0 0 0 0 0 0 0 0 0 0 -0.3 0 0 -0.3 0 0 0 0 0 0 0 0 0 0 0 0 0 -0.3 0 0 0 0 0 0 0 0 0 -0.3 0 0 0 0 0.3 0 0 -0.3 0 0 0 -0.3 -0.59 0.3 0 0 0 0 0 0.3 0 0 0 0 0 0 0 0.3 0 0 0 0 -0.3 0.3 0 0 0 0 0 0 0.3 0.3 0 0 0 0 0 0 0 0.3 0 0 0 0 0 0 0 0 0.3 0.3 0 0 0 0 0 0 0.3 0 0 0.3 0 0 0 0 0.3 0 0 0 0 0 0zm0.89 1.48l0.59 0 -0.59 0.3 0 0 0 -0.3 0 0 0 0 0 0 -0.3 0 0 0 0 0 0 -0.3 0 0 0 0 0 0 -0.3 0 0 0 0 0 0 -0.3 0 0 0 0 0 0 -0.3 0 0 0 0 0 0 -0.3 0 0 0 0 0 0 -0.3 0 0 0 0 -0.3 0 0 0 0 0 0 0.3 -0.3 0 0 0 0 0 0 0.3 0.3 0 0 0 0 0 0 0 0 0 0 0 0 0 0.3 0.3 0 0 0 0 0 0 0 0 0 0 0 0 0.3 0.3 0 0 0 0 0 0 0 0 0 0 0 0 0.3 0.3 0 0 0 0 0 0 0 0 0 0 0 0 0.3 -0.3 0zm0.59 0l-0.3 0.59 -0.3 -0.3 0.59 -0.3 0 0zm-0.3 -2.67l0.59 0 0 0 0 0 0 0.3 0 0 0 0 0 0 0 0.3 0 0 0 0 0 0.3 0 0 0 0 0 0 0 0.3 0 0 0 0 0 0.3 0 0 0 0 0 0 0 0.3 -0.3 0 0 0 0 0.3 0 0 0 0 0 0 0 0.3 0 0 0 0 0 0.3 0 0 0 0 -0.59 0 0 0 0 -0.3 0 0 0 0 0 -0.3 0.3 0 0 0 0 0 0 -0.3 0 0 0 0 0 -0.3 0 0 0 0 0 0 0 -0.3 0 0 0 0 0 -0.3 0 0 0 0 0 0 0 -0.3 0 0 0 0 0 0 0 -0.3 0 0 0 0 0 0 0 -0.3 0 0 0 0zm-0.3 -0.89l0.3 -0.3 0 0 0.3 0 0 0 0 0 0 0 0 0 0 0 0 0.3 0 0 0 0 0 0 0 0 0 0 0 0 0.3 0.3 0 0 0 0 0 0 0 0 0 0 0 0 0 0.3 0 0 0 0 0 0 0 0 0 0 0 0 0 0.3 0 0 0 0 0 0 0 0 -0.59 0 0 0 0 0 0 0 0 0 0 0 0 -0.3 0 0 0 0 0 0 0 0 0 0 0 0 0 0 0 0 0 -0.3 0 0 0 0 0 0 0 0 0 0 0 0 0 0 0 0 0 0 0 -0.3 0 0 0 0 0 0 -0.3 0 0 0 0 0 0 0 0 0 0 0zm-2.67 -8l0.59 0 0 0 0 0.3 0 0.3 0 0.3 0 0.3 0 0.3 0 0.3 0 0.3 0 0 0 0.3 0 0.3 0 0.3 0 0.3 0 0.3 0.3 0 0 0.3 0 0.3 0 0.3 0.3 0.3 0 0 0 0.3 0.3 0.3 0 0.3 0 0 0.3 0.3 0 0.3 0.3 0.3 0 0 0.3 0.3 0.3 0.3 0 0 0.3 0.3 0 0.3 -0.3 0.3 0 -0.3 -0.3 0 -0.3 -0.3 0 -0.3 -0.3 -0.3 0 0 -0.3 -0.3 -0.3 -0.3 0 -0.3 0 0 -0.3 -0.3 0 -0.3 -0.3 -0.3 0 -0.3 0 -0.3 -0.3 0 0 -0.3 0 -0.3 0 -0.3 0 -0.3 -0.3 -0.3 0 -0.3 0 -0.3 0 0 0 -0.3 0 -0.3 0 -0.3 0 -0.3 0 -0.3 0 -0.3 0 -0.3 0 -0.3 0 0 0 0zm3.85 -4.74l0.3 0.59 0 0 -0.3 0 0 0 -0.3 0 -0.3 0.3 0 0 -0.3 0 0 0.3 -0.3 0 0 0 -0.3 0.3 0 0 -0.3 0 0 0.3 -0.3 0 0 0.3 -0.3 0 0 0.3 0 0 -0.3 0 0 0.3 0 0.3 -0.3 0 0 0.3 0 0 0 0.3 -0.3 0 0 0.3 0 0.3 0 0 0 0.3 0 0.3 0 0 -0.59 0 0 -0.3 0 0 0 -0.3 0 -0.3 0.3 0 0 -0.3 0 -0.3 0 0 0.3 -0.3 0 -0.3 0 0 0.3 -0.3 0 0 0 -0.3 0.3 -0.3 0 0 0.3 -0.3 0 0 0.3 -0.3 0 0 0.3 0 0 -0.3 0.3 0 0 -0.3 0.3 0 0 0 0.3 -0.3 0.3 0 0 0 0.3 0 0.3 -0.3 0 0 0 0 0 -0zm9.19 5.34l-0.59 0 0 0 0 -0.3 0 -0.59 -0.3 -0.3 0 -0.3 -0.3 -0.3 -0.3 -0.3 0 -0.3 -0.3 -0.3 -0.3 -0.3 0 -0.3 -0.3 0 -0.3 -0.3 -0.3 -0.3 -0.3 -0.3 0 0 -0.3 -0.3 -0.3 0 -0.3 -0.3 -0.3 0 -0.3 0 -0.3 -0.3 -0.3 0 -0.3 0 -0.59 0 -0.3 0 -0.3 0 -0.3 0 -0.3 0 -0.3 0 -0.59 0 -0.3 0 -0.3 0.3 -0.3 -0.59 0.59 0 0.3 0 0.3 -0.3 0.59 0 0.3 0 0.3 0 0.3 0 0.59 0 0.3 0 0.3 0 0.3 0.3 0.3 0 0.3 0 0.3 0.3 0.3 0 0.3 0.3 0.3 0 0.3 0.3 0.3 0.3 0.3 0.3 0.3 0 0.3 0.3 0.3 0.3 0 0.3 0.3 0.3 0.3 0.3 0 0.3 0.3 0.3 0.3 0.59 0 0.3 0.3 0.3 0 0.59 0 0zm0.59 5.63l0.3 0.59 -0.3 -0.3 0 -0.3 -0.3 0 0 -0.3 0 -0.3 0 0 0 -0.3 0 -0.3 0 0 0 -0.3 0 0 0 -0.3 0 -0.3 0 0 -0.3 -0.3 0 -0.3 0 0 0 -0.3 0 -0.3 0 0 0 -0.3 0 0 0 -0.3 0 -0.3 0 0 -0.3 -0.3 0 0 0 -0.3 0 -0.3 0 0 0 -0.3 0 0 -0.3 -0.3 0.59 0 0 0 0 0.3 0 0 0.3 0.3 0 0.3 0 0 0 0.3 0 0 0 0.3 0 0.3 0 0 0.3 0.3 0 0.3 0 0 0 0.3 0 0.3 0 0 0 0.3 0 0 0 0.3 0 0.3 0 0 0.3 0.3 0 0.3 0 0 0 0.3 0 0 0 0.3 0 0.3 0 0 0 0.3 0 0.3 -0.3 -0.3 0 0zm0.3 0.59l-0.3 0 0 -0.3 0.3 0.3zm1.48 60.47l0 0 0 0 0 0 0 -0.3 0 0.3zm15.11 -0.3l0 0.59 0 0 -0.3 0 -0.59 0 -0.59 0 -0.3 0 -0.59 0 -0.3 0 -0.59 0 -0.59 0 -0.3 0 -0.59 0 -0.3 0 -0.59 0 -0.59 0 -0.3 0 -0.59 0 -0.3 0 -0.59 0 -0.59 0 -0.3 0 -0.59 0 -0.3 0 -0.59 0 -0.59 0 -0.3 0 -0.59 0 -0.3 0 -0.59 0 -0.59 0 -0.3 0 -0.59 0 -0.59 0 -0.3 0 0 -0.59 0.3 0 0.59 0 0.59 0 0.3 0 0.59 0 0.59 0 0.3 0 0.59 0 0.3 0 0.59 0 0.59 0 0.3 0 0.59 0 0.3 0 0.59 0 0.59 0 0.3 0 0.59 0 0.3 0 0.59 0 0.59 0 0.3 0 0.59 0 0.3 0 0.59 0 0.59 0 0.3 0 0.59 0 0.3 0 0.59 0 0.59 0 0.3 0 0 0zm6.22 0l0 0.59 0 0 -0.3 0 0 0 -0.3 0 -0.3 0 0 0 -0.3 0 -0.3 0 0 0 -0.3 0 -0.3 0 0 0 -0.3 0 -0.3 0 0 0 -0.3 0 0 0 -0.3 0 -0.3 0 0 0 -0.3 0 -0.3 0 0 0 -0.3 0 -0.3 0 0 0 -0.3 0 -0.3 0 0 0 -0.3 0 0 0 -0.3 0 -0.3 0 0 -0.59 0.3 0 0.3 0 0 0 0.3 0 0 0 0.3 0 0.3 0 0 0 0.3 0 0.3 0 0 0 0.3 0 0.3 0 0 0 0.3 0 0.3 0 0 0 0.3 0 0 0 0.3 0 0.3 0 0 0 0.3 0 0.3 0 0 0 0.3 0 0.3 0 0 0 0.3 0 0.3 0 0 0 0.3 0 0 0zm0.89 -0.89l0.3 0 0 0 0 0.3 0 0 0 0 0 0 0 0.3 0 0 0 0 0 0 0 0 0 0.3 0 0 0 0 0 0 0 0 0 0.3 -0.3 0 0 0 0 0 0 0 0 0 0 0 -0.3 0.3 0 0 0 0 0 0 -0.3 0 0 0 0 0 0 0 -0.3 0 0 0 0 0 0 -0.59 0 0 0 0 0.3 0 0 0 0 0 0 0 0 0 0 0 0.3 0 0 0 0 0 0 0 0 0 0 0 0 0 0 0 0 0 0 0 0 -0.3 0 0 0 0 0 0 0 0 0 0 0.3 0 0 0 0 -0.3 0 0 0 0 0 0 0 0 0 -0.3 0 0 0 0zm-1.48 -2.96l0.3 -0.59 0 0 0.3 0.3 0 0 0 0 0 0.3 0.3 0 0 0 0 0.3 0 0 0.3 0 0 0.3 0 0 0 0 0 0.3 0.3 0 0 0.3 0 0 0 0 0 0.3 0 0 0 0 0 0.3 0.3 0 0 0.3 0 0 0 0 0 0.3 0 0 0 0.3 0 0 0 0 0 0.3 0 0 -0.3 0 0 0 -0.3 0 0 -0.3 0 0 0 -0.3 0 0 0 0 0 -0.3 0 0 0 0 0 -0.3 0 0 0 0 0 -0.3 -0.3 0 0 0 0 -0.3 0 0 0 0 0 -0.3 0 0 -0.3 0 0 -0.3 0 0 0 0 0 -0.3 -0.3 0 0 0 0 -0.3 0 0 -0.3 0 0 0 0 0 0 0zm-4.15 -1.78l0 -0.3 0 0 0.3 0 0 0 0.3 0 0 0 0.3 0 0 0 0.3 0 0 0 0.3 0 0 0 0.3 0 0 0 0.3 0 0 0.3 0.3 0 0 0 0.3 0 0 0 0.3 0 0 0.3 0.3 0 0 0 0.3 0 0 0.3 0 0 0.3 0 0 0.3 0.3 0 0 0 0.3 0.3 0 0 0 0 -0.3 0.59 0 -0.3 -0.3 0 0 0 0 -0.3 -0.3 0 0 0 -0.3 -0.3 0 0 0 0 -0.3 0 0 -0.3 -0.3 0 0 0 0 0 -0.3 0 0 -0.3 -0.3 0 0 0 -0.3 0 0 0 -0.3 0 0 0 0 0 -0.3 0 0 0 -0.3 0 0 -0.3 -0.3 0 0 0 -0.3 0 0 0 -0.3 0 0 0 0 0zm-33.2 0l0 -0.3 0 0 1.19 0 0.89 0 1.19 0 0.89 0 1.19 0 0.89 0 1.19 0 0.89 0 1.19 0 0.89 0 1.19 0 0.89 0 1.19 0 0.89 0 1.19 0 0.89 0 1.19 0 0.89 0 1.19 0 0.89 0 1.19 0 0.89 0 1.19 0 0.89 0 1.19 0 0.89 0 1.19 0 0.89 0 1.19 0 0.89 0 1.19 0 0.89 0 0 0.3 -0.89 0 -1.19 0 -0.89 0 -1.19 0 -0.89 0 -1.19 0 -0.89 0 -1.19 0 -0.89 0 -1.19 0 -0.89 0 -1.19 0 -0.89 0 -1.19 0 -0.89 0 -1.19 0 -0.89 0 -1.19 0 -0.89 0 -1.19 0 -0.89 0 -1.19 0 -0.89 0 -1.19 0 -0.89 0 -1.19 0 -0.89 0 -1.19 0 -0.89 0 -1.19 0 -0.89 0 -1.19 0 0 0zm-1.19 0.3l0 -0.59 0 0 0 0 0 0 0 0 0.3 0 0 0 0 0 0 0 0 0 0 0 0 0 0.3 0 0 0 0 0 0 0 0 0 0 0 0 0 0.3 0 0 0 0 0 0 0 0 0 0 0 0 0 0 0 0.3 0 0 0 0 0 0 0 0 0 0 0 0 0 0 0.3 0 0 0 0 0 0 0 0 0 0 0 0 0 0 -0.3 0 0 0 0 0 0 0 0 0 0 0 0 0 -0.3 0 0 0 0 0 0 0 0 0.3 0 0 0 0 0 0 -0.3 0 0 0 0 0 0 0 0 0 0 0 0 0 -0.3 0 0 0 0 0 0 0 0 0zm0 -0.59l0 0 0 0 0 0zm-4.15 5.04l-0.59 0 0 0 0 -0.3 0 -0.3 0.3 -0.3 0 -0.3 0 0 0 -0.3 0 -0.3 0.3 -0.3 0 0 0 -0.3 0.3 -0.3 0 0 0.3 -0.3 0 0 0.3 -0.3 0 -0.3 0.3 0 0 -0.3 0.3 0 0 -0.3 0.3 0 0.3 -0.3 0 0 0.3 0 0.3 -0.3 0 0 0.3 0 0.3 0 0.3 -0.3 0 0 0.3 0 0.3 0 0 0.59 -0.3 0 0 0 -0.3 0 -0.3 0 0 0 -0.3 0.3 -0.3 0 0 0 -0.3 0.3 0 0 -0.3 0 -0.3 0.3 0 0 -0.3 0.3 0 0 -0.3 0.3 0 0 -0.3 0.3 0 0 0 0.3 -0.3 0 0 0.3 0 0.3 -0.3 0 0 0.3 0 0 0 0.3 -0.3 0.3 0 0.3 0 0 0 0.3 0 0.3 0 0 0 0zm0.89 0.89l0 0.59 0 0 0 0 -0.3 0 0 0 0 0 -0.3 0 0 0 0 0 0 0 -0.3 0 0 0 0 0 0 0 -0.3 -0.3 0 0 0 0 0 0 0 0 0 0 0 -0.3 -0.3 0 0 0 0 0 0 -0.3 0 0 0 0 0 0 0 -0.3 0 0 0 0 0 -0.3 0 0 0 0 0.59 0 0 0 0 0 0 0.3 0 0 0 0 0 0.3 0 0 0 0 0 0 0 0 0 0.3 0 0 0 0 0 0 0 0 0 0 0 0 0 0 0 0 0 0 0 0 0.3 0 0 0 0 0 0 0 0 0 0.3 0 0 0 0 0 0 0 0.3 0 0 0 0 0 0 -0zm21.05 0l0 0.59 0 0 -0.59 0 -0.89 0 -0.59 0 -0.59 0 -0.59 0 -0.59 0 -0.89 0 -0.59 0 -0.59 0 -0.59 0 -0.59 0 -0.89 0 -0.59 0 -0.59 0 -0.59 0 -0.59 0 -0.89 0 -0.59 0 -0.59 0 -0.59 0 -0.59 0 -0.89 0 -0.59 0 -0.59 0 -0.59 0 -0.89 0 -0.59 0 -0.59 0 -0.59 0 -0.59 0 -0.89 0 -0.59 0 0 -0.59 0.59 0 0.89 0 0.59 0 0.59 0 0.59 0 0.59 0 0.89 0 0.59 0 0.59 0 0.59 0 0.89 0 0.59 0 0.59 0 0.59 0 0.59 0 0.89 0 0.59 0 0.59 0 0.59 0 0.59 0 0.89 0 0.59 0 0.59 0 0.59 0 0.59 0 0.89 0 0.59 0 0.59 0 0.59 0 0.59 0 0.89 0 0.59 0 0 0zm8.59 -12.74l0 0 0 0 0 0 0 0.3 0 -0.3zm0 -0.3l0.3 0 0 0.3 -0.3 -0.3zm-16.89 0.3l-0.3 0 0.3 -0.3 0.59 0.3 0.3 0 0.59 0 0.59 0 0.59 0.3 0.3 0 0.59 0 0.59 0 0.59 0 0.59 0.3 0.3 0 0.59 0 0.59 0 0.59 0 0.3 0 0.59 0 0.59 0 0.59 0 0.59 0 0.3 0 0.59 0 0.59 0 0.59 0 0.59 0 0.3 -0.3 0.59 0 0.59 0 0.59 0 0.3 -0.3 0.59 0 0.59 0 0.59 -0.3 0 0.59 -0.59 0 -0.3 0.3 -0.59 0 -0.59 0 -0.59 0.3 -0.59 0 -0.59 0 -0.3 0 -0.59 0 -0.59 0.3 -0.59 0 -0.59 0 -0.3 0 -0.59 0 -0.59 0 -0.59 0 -0.59 0 -0.3 0 -0.59 0 -0.59 0 -0.59 -0.3 -0.59 0 -0.3 0 -0.59 0 -0.59 0 -0.59 -0.3 -0.59 0 -0.3 0 -0.59 0 -0.59 -0.3 -0.59 0 -0.3 0 0 -0.3 0 0zm-0.3 0l0 -0.3 0.3 0 -0.3 0.3zm0.3 4.44l0 0.3 -0.3 0 0 -0.3 0 0 0 -0.3 0 0 0 -0.3 0 0 0 -0.3 0 0 0 -0.3 0 0 0 -0.3 0 0 0 -0.3 0 0 0 -0.3 0 0 0 0 0 -0.3 0 0 0 -0.3 0 0 0 -0.3 0 0 0 -0.3 0 0 0 -0.3 0 0 0 -0.3 0 0 0 -0.3 0 0 0 -0.3 0.3 0 0 0.3 0 0 0 0.3 0 0 0 0.3 0 0 0 0.3 0 0 0 0.3 0 0 0 0.3 0 0 0 0.3 0 0 0 0.3 0 0 0 0 0 0.3 0 0 0 0.3 0 0 0 0.3 0 0 0 0.3 0 0 0 0.3 0 0 0 0.3 0 0 0 0.3 0 0 0 0.3 0 -0.3zm0 0.3l-0.3 0 0 0 0.3 0zm16.6 0l0.59 0 -0.3 0 -0.59 0 -0.59 0 -0.3 0 -0.59 0 -0.59 0 -0.59 0 -0.59 0 -0.3 0 -0.59 0 -0.59 0 -0.59 0 -0.3 0 -0.59 0 -0.59 0 -0.59 0 -0.59 0 -0.3 0 -0.59 0 -0.59 0 -0.59 0 -0.59 0 -0.3 0 -0.59 0 -0.59 0 -0.59 0 -0.59 0 -0.3 0 -0.59 0 -0.59 0 -0.59 0 -0.59 0 -0.3 0 0 -0.3 0.3 0 0.59 0 0.59 0 0.59 0 0.59 0 0.3 0 0.59 0 0.59 0 0.59 0 0.59 0 0.3 0 0.59 0 0.59 0 0.59 0 0.59 0 0.3 0 0.59 0 0.59 0 0.59 0 0.59 0 0.3 0 0.59 0 0.59 0 0.59 0 0.3 0 0.59 0 0.59 0 0.59 0 0.59 0 0.3 0 0.59 0 0.59 0 -0.3 0.3 0 0zm0.59 0l0 0 -0.3 0 0.3 0zm-0.3 -4.45l0 -0.59 0.3 0.3 0 0.3 0 0 0 0.3 0 0 0 0.3 0 0 0 0.3 0 0 0 0.3 0 0 0 0.3 0 0 0 0.3 0 0 0 0 0 0.3 0 0 0 0.3 0 0 0 0.3 0 0 0 0.3 0 0 0 0.3 0 0 0 0.3 0 0 0 0.3 0 0 0 0.3 0 0 0 0.3 -0.59 0 0 -0.3 0 0 0 -0.3 0 0 0 -0.3 0 0 0 -0.3 0 0 0 -0.3 0 0 0 -0.3 0 0 0 -0.3 0 0 0 -0.3 0 0 0 -0.3 0 0 0 0 0 -0.3 0 0 0 -0.3 0 0 0 -0.3 0 0 0 -0.3 0 0 0 -0.3 0 0 0 -0.3 0 0 0 -0.3 0.3 0.3 0 0zm0 -0.59l0.3 0 0 0.3 -0.3 -0.3z"/>
   </g>
  </g>
  <rect class="fil0" width="140" height="140"/>
 </g>
</svg>
