<?xml version="1.0" encoding="UTF-8"?>
<!DOCTYPE svg PUBLIC "-//W3C//DTD SVG 1.1//EN" "http://www.w3.org/Graphics/SVG/1.1/DTD/svg11.dtd">
<!-- Creator: CorelDRAW -->
<svg xmlns="http://www.w3.org/2000/svg" xml:space="preserve" width="0.14in" height="0.14in" version="1.1" style="shape-rendering:geometricPrecision; text-rendering:geometricPrecision; image-rendering:optimizeQuality; fill-rule:evenodd; clip-rule:evenodd"
viewBox="0 0 140 140"
 xmlns:xlink="http://www.w3.org/1999/xlink"
 xmlns:xodm="http://www.corel.com/coreldraw/odm/2003">
 <defs>
  <style type="text/css">
   <![CDATA[
    .str0 {stroke:#1C2335;stroke-width:3.33;stroke-miterlimit:2.61313}
    .fil0 {fill:none}
    .fil1 {fill:#1C2335;fill-rule:nonzero}
   ]]>
  </style>
 </defs>
 <g id="Layer_x0020_1">
  <metadata id="CorelCorpID_0Corel-Layer"/>
  <g id="_1819132848672">
   <g>
    <path class="fil0 str0" d="M133.98 88.98c10.48,-35.34 -9.67,-72.48 -45,-82.96 -35.34,-10.48 -72.48,9.67 -82.96,45 -10.48,35.34 9.67,72.48 45,82.96 35.34,10.48 72.48,-9.67 82.96,-45z"/>
   </g>
   <g id="_2134926194400">
    <path class="fil1" d="M19.06 103.36c0.29,-0.58 0.58,-0.87 0.87,-1.45 -0.29,-1.16 -0.58,-2.62 -0.58,-4.07 -0.29,-3.49 2.04,-6.69 5.52,-8.14 3.49,-1.17 6.69,-0.29 9.3,2.32 0.87,0.58 1.45,0.87 2.33,0.58 0.29,0 0.58,0 1.16,0 0,-1.45 0,-2.61 0,-4.07 0,-1.45 0,-2.91 0,-4.36 -7.27,-0.87 -12.5,-4.36 -15.99,-10.76 -2.61,-4.94 -2.91,-9.88 -1.16,-15.12 3.2,-10.46 14.53,-16.28 25,-12.79 10.17,2.91 17.15,14.53 12.21,27.03 0.29,0 0.87,0 1.16,0 3.49,0 6.98,0 10.46,0 0.58,0 0.87,0 1.16,0 0.87,0.29 1.17,0.87 0.87,1.75 0,0.29 -0.58,0.87 -1.17,1.16 -0.29,0 -0.58,0 -0.87,0 -6.69,0 -13.08,0 -19.48,0 -0.58,0 -1.16,0.29 -1.45,0.58 0,0.87 0,1.45 0.29,2.32 0,0.29 0.58,0.29 0.87,0.29 3.78,0 7.56,0 11.34,0 9.59,0 19.48,0 29.07,0 0.58,0 1.45,-0.29 1.45,-0.58 0.29,-0.58 0,-1.45 0,-2.32 0,0 -0.87,-0.29 -1.16,-0.29 -4.65,0 -9.01,0 -13.66,0 -0.29,0 -0.58,0 -0.87,0 -0.58,0 -1.16,-0.58 -1.16,-1.16 0,-0.87 0.29,-1.46 0.87,-1.75 0,0 0.29,0 0.58,0 5.23,0 10.46,0 15.41,0 0.29,0 0.87,-0.29 0.87,-0.58 0.87,-0.87 1.45,-2.04 2.33,-2.91 2.32,-2.91 5.52,-2.91 8.14,0 0.29,0.58 0.87,1.16 1.45,1.74 0.58,-0.87 1.16,-1.45 1.74,-2.32 2.33,-2.04 4.94,-2.04 7.27,0 2.04,1.74 2.91,4.07 4.07,6.69 2.32,6.39 3.49,12.79 3.49,19.77 0,2.61 -0.58,5.23 -2.04,6.98 0.87,0.58 1.45,0.87 2.33,1.45 0,0.29 0,0.58 0,0.87 -0.58,0.87 -1.17,1.17 -2.33,1.17 -32.56,0 -65.11,0 -97.67,0 -0.87,0 -1.45,-0.29 -2.04,-1.17 0,-0.29 0,-0.58 0,-0.87l0 0zm26.74 -23.26l0 0c-0.29,-1.45 -0.29,-2.61 -0.29,-3.78 0,-2.32 1.45,-3.78 3.78,-3.78 1.45,0 2.61,0 4.07,0 0.87,0 1.17,-0.29 1.45,-0.87 5.24,-11.05 -2.61,-23.83 -14.53,-24.13 -6.98,-0.29 -12.5,2.61 -15.99,9.01 -3.2,6.39 -2.33,12.79 2.04,18.31 2.91,3.78 6.69,5.81 11.33,6.4 0,-2.33 0,-4.36 0,-6.4 0,-0.29 -0.29,-0.58 -0.29,-0.87 -1.45,-1.45 -2.91,-2.91 -4.36,-4.07 -0.87,-0.87 -0.87,-1.74 -0.29,-2.33 0.58,-0.87 1.45,-0.58 2.33,0 0.87,0.87 1.74,1.74 2.61,2.91 0,-0.87 0,-1.17 0,-1.45 0,-2.33 0,-4.94 0,-7.27 0,-1.17 0.58,-1.74 1.45,-2.04 1.17,0 1.74,0.87 1.74,2.04 0,0.87 0,2.04 0,3.2 0,0 0,0 0,0 0.87,-0.87 1.74,-1.74 2.62,-2.61 0.87,-0.87 1.74,-0.87 2.32,-0.29 0.87,0.87 0.58,1.74 -0.29,2.61 -1.45,1.45 -2.91,2.62 -4.07,4.36 -0.29,0.29 -0.58,0.87 -0.58,1.16 -0.29,3.49 0,6.69 0,10.17 0,0.29 0,0.58 0,0.87 1.74,-0.29 3.49,-0.58 4.94,-1.17l0 0zm44.76 9.89l0 0c1.45,0 2.33,0 3.49,0 2.04,0 3.49,1.45 3.49,3.49 0,0.58 0,1.16 0,1.74 0,2.32 -1.45,3.78 -3.78,3.78 -0.87,0 -1.46,0 -2.33,0 0.58,1.75 1.45,2.62 3.2,2.62 2.04,0.29 4.36,0.29 6.4,0.29 3.49,0 4.94,-1.46 5.52,-4.65 0.58,-3.49 0.29,-6.69 -0.29,-10.17 -0.87,-4.65 -1.74,-9.01 -4.07,-13.37 -0.58,-1.17 -1.16,-2.04 -2.04,-2.91 -1.16,-1.16 -2.04,-1.16 -2.91,0 -1.17,0.87 -1.75,2.33 -2.62,3.49 0,0.29 0,0.87 0,1.45 0,1.45 0.29,2.91 -0.58,4.07 0,0.29 0,0.58 0,0.87 1.17,2.61 0.87,6.39 -3.2,7.27 0,0.58 0,1.16 -0.29,2.04zm17.15 12.21l0 0c2.04,-0.29 4.07,-0.29 6.11,-0.58 1.45,0 2.62,-1.17 3.2,-2.62 0.29,-0.87 0.58,-1.45 0.58,-2.32 0.58,-3.2 0,-6.69 -0.29,-9.89 -0.87,-4.65 -1.74,-9.01 -4.07,-13.08 -0.58,-1.17 -1.45,-2.04 -2.33,-3.2 -0.87,-0.87 -1.74,-0.87 -2.61,0 -0.87,0.87 -1.46,2.32 -2.33,3.2 0,0.29 0,0.58 0,0.87 2.33,5.81 3.49,12.21 3.78,18.31 0,3.2 -0.29,6.11 -2.04,9.3l-0 0zm-72.96 0l0 0c3.49,0 6.69,0 9.88,0.29 1.17,0 1.45,-0.58 1.45,-1.45 0.29,-1.16 0,-2.04 -0.87,-2.32 -0.58,-0.29 -1.45,-0.58 -1.74,-0.87 -0.58,-0.58 -0.87,-0.58 -1.45,-0.29 -0.87,0.29 -1.74,0 -2.33,-0.87 -1.16,-0.87 -2.33,-1.17 -4.07,-0.87 -1.74,0.29 -1.74,0.29 -2.91,-1.16 -2.04,-2.62 -5.52,-3.2 -8.14,-1.16 -2.61,1.74 -3.2,5.52 -1.16,8.14 0.29,0.58 0.58,0.87 1.45,0.87 3.2,-0.29 6.69,-0.29 9.89,-0.29l0 0zm35.46 -9.3l0 0c-7.85,0 -15.7,0 -23.55,0 -0.29,0 -1.16,0.29 -1.16,0.29 0,0.87 0,1.74 0,2.32 0,0.29 0.87,0.29 1.45,0.29 15.11,0 30.52,0 45.93,0 2.04,0 1.45,0.29 1.74,-1.74 0,-0.87 -0.29,-1.16 -1.16,-1.16 -7.85,0 -15.7,0 -23.26,0l0 0zm-0.29 -8.14l0 0c4.65,0 9.59,0 14.24,0 2.04,0 4.36,0 6.39,0 0.58,0 1.17,-0.29 1.17,-0.87 0,-0.29 0,-0.58 0,-0.87 0,-1.16 -0.29,-1.45 -1.45,-1.45 -2.04,0 -4.07,0 -5.81,0 -11.63,0 -22.96,0 -34.59,0 -0.29,0 -1.17,0.29 -1.17,0.29 -0.29,0.87 -0.29,1.74 -0.29,2.61 0,0 0.87,0.29 1.45,0.29 6.69,0 13.37,0 20.06,0l0 0zm13.95 14.24l0 0c-9.01,0 -18.02,0 -27.04,0 0,1.17 0,2.33 0,3.2 9.01,0 18.02,0 27.04,0 0,-1.17 0,-2.04 0,-3.2zm-41.57 -4.65l0 0c0.29,-0.29 0.29,-0.29 0.29,-0.58 0,-2.61 1.17,-3.78 3.78,-3.78 2.91,0 5.81,0 8.72,0 0.29,0 0.58,0 0.87,0 0,-0.87 0,-1.46 0,-2.33 -0.29,0 -0.58,0 -0.87,0 -2.04,0 -4.07,0.29 -5.81,0 -2.04,0 -3.49,-1.16 -3.78,-3.2 0,-0.29 -0.29,-0.58 -0.29,-0.87 -1.45,0.29 -2.91,0.58 -4.36,0.87 0,2.61 0,5.52 0,8.43 0,1.16 0.29,1.45 1.45,1.45zm39.24 -6.39l0 0c-7.56,0 -15.12,0 -22.39,0 0,0.58 0,1.45 0,2.04 7.56,0 14.83,0 22.39,0 0,-0.87 0,-1.46 0,-2.04zm-27.91 14.24l0 0c0,-1.17 0,-2.04 0,-3.2 -1.45,0 -3.2,0 -4.36,0 0,1.17 0,2.33 0,3.2 1.45,0 2.91,0 4.36,0zm34.01 -12.21l0 0c0,-0.87 0.29,-1.46 0.29,-2.04 -1.17,0 -2.33,0 -3.2,0 0,0.58 0,1.45 0,2.04 0.87,0 1.75,0 2.91,0zm-0.58 9.01l0 0c0,1.17 0,2.33 0,3.2 0.87,0 1.75,0 2.62,0 -0.58,-0.87 -0.87,-1.45 -1.17,-2.33 -0.29,-0.87 -0.87,-1.16 -1.45,-0.87z"/>
    <path class="fil1" d="M81.85 53.94c-2.32,0 -4.65,0 -6.98,0 -3.78,-0.29 -5.81,-3.2 -4.65,-6.69 0.58,-2.33 2.04,-3.78 4.36,-4.65 0.29,-0.29 0.87,-0.58 0.87,-0.87 1.74,-4.36 5.52,-6.98 9.89,-6.98 4.65,0 8.43,2.61 10.17,6.69 0,0.58 0.29,0.87 0.87,0.87 1.45,0.29 2.62,1.16 3.78,2.04 0.29,0.29 0.58,0.58 1.16,0.58 0.87,0 1.74,0 2.91,0 2.32,0.29 4.07,2.04 4.07,4.36 0,2.61 -2.04,4.36 -4.36,4.36 -2.61,0.29 -5.52,0.29 -8.14,0.29 -1.17,-0.29 -1.74,-0.58 -1.74,-1.45 0,-1.16 0.58,-1.74 1.74,-1.74 2.32,0 4.65,0 6.98,0 0.29,0 0.58,0 0.87,0 0.87,0 1.45,-0.58 1.74,-1.45 0,-0.87 -0.58,-1.45 -1.74,-1.45 -1.16,0 -2.32,0 -3.49,0 -0.87,0 -1.45,-0.29 -2.04,-0.87 -0.58,-1.16 -1.74,-1.74 -3.2,-1.74 -1.16,0 -1.74,-0.29 -2.04,-1.45 -0.87,-3.78 -3.78,-6.11 -7.56,-6.11 -3.49,0 -6.4,2.33 -7.27,6.11 -0.29,0.87 -0.87,1.45 -1.75,1.45 -1.74,0.29 -2.91,1.16 -3.49,2.91 -0.29,1.74 0.29,2.61 2.04,2.61 4.65,0 9.3,0 13.96,0 0.29,0 0.58,0 0.87,0 0.87,0.29 1.45,0.87 1.16,1.74 0,0.87 -0.58,1.16 -1.16,1.16 -1.16,0.29 -2.04,0.29 -3.2,0.29 -1.45,0 -3.2,0 -4.65,0l-0 0z"/>
   </g>
  </g>
  <rect class="fil0" width="140" height="140"/>
 </g>
</svg>
