<?xml version="1.0" encoding="UTF-8"?>
<!DOCTYPE svg PUBLIC "-//W3C//DTD SVG 1.1//EN" "http://www.w3.org/Graphics/SVG/1.1/DTD/svg11.dtd">
<!-- Creator: CorelDRAW -->
<svg xmlns="http://www.w3.org/2000/svg" xml:space="preserve" width="0.14in" height="0.14in" version="1.1" style="shape-rendering:geometricPrecision; text-rendering:geometricPrecision; image-rendering:optimizeQuality; fill-rule:evenodd; clip-rule:evenodd"
viewBox="0 0 140 140"
 xmlns:xlink="http://www.w3.org/1999/xlink"
 xmlns:xodm="http://www.corel.com/coreldraw/odm/2003">
 <defs>
  <style type="text/css">
   <![CDATA[
    .str0 {stroke:#1C2335;stroke-width:3.33;stroke-miterlimit:2.61313}
    .str1 {stroke:#1C2335;stroke-width:3;stroke-miterlimit:2.61313}
    .fil0 {fill:none}
    .fil1 {fill:#1C2335}
   ]]>
  </style>
 </defs>
 <g id="Layer_x0020_1">
  <metadata id="CorelCorpID_0Corel-Layer"/>
  <g id="_1818631158688">
   <circle class="fil0 str0" transform="matrix(0.606967 0.180039 -0.180039 0.606967 70 70)" r="107.11"/>
   <g id="_2562501346944">
    <path class="fil1" d="M67.86 30.35c0,5.02 4.73,4.43 1.78,11.52 -0.89,2.07 -0.59,1.48 -2.66,2.37 -2.07,0.89 -4.43,2.07 -6.2,3.54 -0.59,0.3 -0.89,0.59 -1.48,0.89l-2.95 2.95c-0.3,0.3 -0.59,0.3 -0.59,0.59 -0.89,0.89 -1.77,1.48 -2.36,2.66l-2.36 2.66c0,-0.89 -0.89,-2.07 -1.48,-2.96 -0.59,-0.89 -1.48,-1.48 -2.36,-2.36 -1.18,-0.89 -3.54,-3.84 -4.72,-4.43 1.18,-2.07 3.25,-3.54 5.02,-4.72 0.59,-0.59 5.31,-3.84 5.31,-4.43 0,-1.48 -0.3,-1.77 -1.48,-1.77 -0.59,0 -5.91,4.13 -7.09,5.02 -0.89,0.89 -0.89,0.3 -0.89,-1.18 0,-6.79 5.91,-9.45 11.22,-11.81 4.72,-2.36 8.56,-2.07 13.59,-0.89 0,0.89 -0.3,1.48 -0.3,2.36l-0 0zm-7.09 -5.91l2.36 0c0.89,0 2.07,0.3 3.25,0.3 1.19,0.3 2.66,0.89 3.55,0.89 1.18,0 3.84,-0.89 7.09,-1.18l2.66 0c1.18,0 2.66,0.3 3.84,0.59 1.19,0.59 2.66,0.59 2.66,2.07 0,1.78 -1.78,1.18 -2.96,0.89 -2.95,-0.89 -5.02,-0.89 -8.27,-0.59 -3.55,0.59 -4.14,0.3 -4.14,2.66 0,4.14 3.84,4.73 2.07,10.93 -0.29,0.89 -0.89,1.78 -0.89,2.66 2.66,0.59 7.98,3.84 9.75,5.61 0.3,0.59 0.59,0.59 0.89,0.89 1.18,0.89 1.78,2.07 2.96,2.95l1.48 2.07c0.59,0.59 1.18,1.77 1.77,2.07 0.59,-1.18 1.18,-1.77 1.77,-2.66 0.89,-1.18 5.91,-6.2 6.8,-6.8 -1.18,-2.07 -3.25,-3.54 -5.02,-4.72 -0.89,-0.89 -1.77,-1.48 -2.95,-2.36 -0.3,-0.3 -0.89,-0.59 -1.18,-0.89 -1.77,-1.48 -1.48,-2.96 0.59,-2.96 0.59,0 5.02,3.54 5.91,4.43 0.3,0.3 1.77,1.77 1.77,0.59 0,-3.25 -0.59,-5.61 -2.66,-7.68 -0.59,-0.89 -1.48,-1.48 -2.36,-2.07 -0.59,-0.3 -2.36,-1.18 -2.36,-2.07 0,-0.59 0.29,-1.48 0.89,-1.48 1.48,0 2.95,1.18 3.84,1.77 3.25,2.36 5.61,5.91 5.61,10.34 0,3.84 -1.48,2.95 0,5.02 1.78,-1.48 12.41,-13 13.88,-13.88 0.89,-0.89 2.36,-0.3 2.36,0.89 0,1.18 -2.95,3.54 -3.84,4.43 -1.18,1.19 -2.36,2.37 -3.84,3.84 -2.66,2.66 -5.02,5.02 -7.68,7.68 -2.07,2.07 -6.2,5.91 -7.68,7.98 -3.25,4.13 -2.07,9.75 -2.96,10.63 -0.59,0.89 -2.36,0.89 -2.36,-0.59l0.3 -5.31c0,-0.89 0.3,0 0,-0.89 -1.48,-2.07 -4.13,-5.32 -5.91,-7.39l-2.36 -2.07c-1.78,-1.48 -3.84,-2.95 -5.91,-3.84 -0.59,-0.3 -2.66,-1.18 -3.54,-1.18 -1.18,0 -5.02,2.07 -6.2,2.95 -2.66,1.77 -4.72,3.84 -6.79,5.91 -1.48,1.48 -2.66,3.25 -4.14,5.02 -0.59,1.18 -0.59,0.59 -0.3,2.36 0,0.89 0,1.48 0,2.66 0,1.48 0.3,1.77 0.3,3.25 0,6.2 2.07,10.93 -3.54,13.88 0.89,0.89 3.54,2.66 3.54,4.14 0,0.59 -0.89,1.18 -1.48,1.18 -0.89,0 -3.84,-3.25 -4.72,-4.14 -3.84,-3.84 -2.36,-2.66 -2.66,-7.97l-0.3 -3.84c-0.3,-0.59 0,-1.48 -0.3,-2.07 0,-1.18 -0.59,-5.02 0,-5.91 0.3,-1.48 2.07,-0.89 2.66,0.3l0.3 6.79c0,1.78 0,2.96 0.3,4.73l0.3 4.43c1.18,0 2.07,-0.59 2.66,-1.18 0.59,-0.59 0.89,-1.77 0.89,-2.66 -0.3,-3.25 -0.59,-12.11 -0.89,-14.18 -0.3,-2.37 -0.89,-3.55 -2.07,-5.02 -1.48,-2.07 -8.86,-9.15 -11.22,-11.22 -0.89,-0.89 -2.36,-2.07 -1.77,-3.25 1.18,-2.66 5.02,2.66 6.2,3.54 1.18,-2.07 0,-1.48 0,-5.02 0,-6.5 4.43,-10.04 9.75,-13 3.84,-1.77 6.8,-2.95 10.34,-3.25l0 0z"/>
    <path class="fil1 str1" d="M24.44 56.05c0,0.89 1.18,1.77 2.07,2.66 2.07,2.07 4.72,4.13 6.5,6.5 1.18,1.48 1.18,5.32 1.48,7.09 0.3,2.36 0.59,5.61 1.18,7.97 0.59,2.37 2.07,3.25 3.54,5.02l8.86 8.57c2.07,2.36 2.95,3.84 6.2,3.84 2.07,0 3.55,-1.48 3.84,-3.25 0.89,0.59 0.59,0.59 1.18,0.89 1.48,1.18 0.89,1.18 0.89,5.61 0,3.25 -2.36,3.54 -5.32,4.13 -2.66,0.3 -5.31,0.89 -7.97,1.18 -3.25,0.59 -4.73,0.89 -7.09,2.37 -0.59,0.59 -1.77,1.77 -2.36,2.36 -0.59,0.89 -1.77,2.36 -1.77,3.54 0,0.3 0.59,0.89 1.18,1.18l0.3 0c0.59,-0.3 1.18,-0.59 1.48,-1.48 0.59,-0.59 0.59,-1.18 1.18,-1.77 3.25,-3.54 7.39,-3.25 11.81,-4.14 4.43,-0.59 9.45,-0.59 10.93,-5.31 0.59,-1.48 0.3,-3.54 0.3,-5.32 5.91,3.25 8.27,3.25 14.18,0 0,1.78 0,3.84 0.3,5.32 0.59,1.18 1.18,2.07 2.07,2.95 1.18,1.18 2.36,1.18 4.14,1.48 2.95,0.59 11.22,1.48 13.59,2.66 1.48,0.89 1.77,1.18 2.95,2.37 0.59,0.59 0.89,0.89 1.18,1.77 0.3,0.89 0.89,1.18 1.48,1.48l0.59 0c0.59,-0.3 0.89,-0.89 0.89,-1.48 0,-0.89 -1.19,-2.66 -1.48,-3.25 -2.66,-2.96 -5.32,-4.14 -9.45,-4.73l-7.98 -1.18c-2.36,-0.3 -5.61,-0.59 -5.61,-3.84l0 -5.02c0,-0.59 1.48,-1.48 2.07,-1.78 0.59,2.66 2.66,3.25 5.02,3.25 1.78,0 3.84,-2.36 5.02,-3.55l8.56 -8.86c1.78,-1.48 3.25,-2.66 3.84,-5.02 0.59,-2.07 0.89,-5.31 1.18,-7.68 0.3,-2.07 0.3,-5.61 1.48,-7.39 0.89,-0.89 8.86,-8.27 8.86,-8.86 0,-1.48 -1.18,-2.36 -2.66,-1.18 -1.48,1.18 -5.02,5.02 -6.5,6.5 -1.78,1.77 -2.96,2.66 -3.25,5.91 -0.3,1.78 -1.18,10.34 -1.77,11.81 -0.3,1.18 -0.89,2.07 -1.48,2.66 -2.36,2.66 -8.27,8.27 -11.22,11.22 -0.59,0.59 -1.48,1.78 -2.66,1.78 -0.89,0 -2.07,-0.89 -2.07,-1.78 0,-1.48 4.13,-4.72 5.31,-5.91 1.78,-2.07 3.55,-3.84 5.61,-5.61 1.77,-2.07 0.89,-7.38 1.48,-9.74 0,-1.48 0.3,-3.84 0.3,-5.32 0,-1.18 0.59,-2.95 -0.3,-3.84 -0.89,-0.59 -2.07,-0.3 -2.36,0.59l-0.3 4.72c0,2.66 -0.59,8.57 -0.59,11.52 -6.2,0 -1.48,-8.57 -4.73,-8.57 -2.07,0 -1.48,4.14 -1.48,5.61 0,1.18 0.59,2.36 0.89,3.25 0.89,0.89 1.78,1.48 2.66,2.07 -0.89,1.48 -2.37,2.66 -3.55,3.84l-0.3 0.3c0,0 0,0 0,0 -3.84,3.54 -11.22,11.22 -16.83,11.22 -3.54,0 -8.27,-3.54 -10.93,-5.91 -0.59,-0.59 -2.36,-2.36 -3.25,-2.36 -0.89,0 -1.48,0.59 -1.48,1.18 0,1.18 1.48,1.48 1.48,2.95 0,1.48 -1.78,2.96 -3.84,0.59l-1.48 -1.19c0,-0.3 0,-0.3 0,-0.3l-0.89 -0.89c-2.07,-1.77 -3.54,-3.54 -5.61,-5.61l0 0c0,0 -0.3,-0.3 -0.3,-0.3l-2.95 -2.95c-0.3,-0.3 -0.3,-0.3 -0.59,-0.3 -0.29,-0.3 -0.29,-0.3 -0.59,-0.59 -0.59,-0.59 -0.89,-1.18 -1.18,-2.07 -0.3,-1.77 -1.48,-10.04 -1.48,-12.11 -0.59,-2.95 -1.48,-3.84 -3.25,-5.61 -2.07,-2.36 -4.43,-4.73 -6.5,-6.8 -1.18,-0.89 -2.66,-0.59 -2.66,0.89l0 0z"/>
    <path class="fil1" d="M62.84 86.76c0,1.77 2.96,2.36 5.32,1.77 2.36,-0.59 0.59,-0.59 2.95,0 4.43,0.89 6.8,-1.77 4.72,-2.95 -1.18,-0.59 -0.89,0.3 -3.25,0.3 -1.48,0 -1.48,-0.59 -3.25,-0.59 -1.18,0 -0.89,0.59 -3.25,0.59 -0.59,0 -3.25,-1.48 -3.25,0.89z"/>
    <path class="fil1" d="M73.18 63.13c0,2.66 3.25,0.89 3.54,0.89 3.25,-1.18 6.2,0.59 7.68,0.59 1.48,0 2.07,-2.07 0,-2.66 -2.36,-0.89 -3.54,-1.18 -5.91,-1.18 -1.77,0 -5.31,1.18 -5.31,2.36l0 0z"/>
    <path class="fil1" d="M55.46 64.61c0.89,0 1.77,-0.3 2.66,-0.59 1.77,-0.59 3.25,-0.59 5.02,0 0.3,0 3.54,1.77 3.54,-0.59 0,-2.36 -4.72,-2.66 -6.5,-2.66 -0.89,0 -5.91,0.59 -5.91,2.36 0,0.89 0.3,1.48 1.18,1.48l0 0z"/>
    <path class="fil1" d="M24.44 32.71c0,1.18 2.95,3.54 3.84,4.43 0.59,0.59 1.18,1.48 2.07,2.07 0.89,0.89 2.36,0.59 2.36,-0.89 0,-0.89 -1.18,-1.77 -1.77,-2.36l-4.13 -4.13c-0.89,-0.89 -2.36,-0.3 -2.36,0.89l0 0z"/>
    <path class="fil1" d="M54.87 70.52c0,1.18 0.3,1.48 1.48,1.77 2.36,0.89 8.56,0.89 8.56,-1.48 0,-2.36 -2.95,-0.59 -5.02,-0.59 -1.77,0 -2.95,-0.89 -3.84,-0.89 -0.3,0 -1.18,0.59 -1.18,1.18l0 0z"/>
    <path class="fil1" d="M75.24 70.81c0,2.36 6.2,2.36 8.27,1.48 2.95,-0.89 1.48,-2.95 0.3,-2.95 -1.18,0 -2.07,1.48 -5.61,0.59 -0.59,0 -2.95,-1.18 -2.95,0.89l0 0z"/>
    <path class="fil1" d="M65.2 79.38c0,2.07 4.14,2.07 5.61,2.07 0.89,0 2.66,-0.59 2.95,-0.89 0.89,-0.89 0.3,-2.36 -0.89,-2.36 -1.48,0 -2.07,0.89 -4.72,0.3 -0.3,0 -2.96,-0.89 -2.96,0.89z"/>
   </g>
  </g>
  <rect class="fil0" width="140" height="140"/>
 </g>
</svg>
