<?xml version="1.0" encoding="UTF-8"?>
<!DOCTYPE svg PUBLIC "-//W3C//DTD SVG 1.1//EN" "http://www.w3.org/Graphics/SVG/1.1/DTD/svg11.dtd">
<!-- Creator: CorelDRAW -->
<svg xmlns="http://www.w3.org/2000/svg" xml:space="preserve" width="0.14in" height="0.14in" version="1.1" style="shape-rendering:geometricPrecision; text-rendering:geometricPrecision; image-rendering:optimizeQuality; fill-rule:evenodd; clip-rule:evenodd"
viewBox="0 0 140 140"
 xmlns:xlink="http://www.w3.org/1999/xlink"
 xmlns:xodm="http://www.corel.com/coreldraw/odm/2003">
 <defs>
  <style type="text/css">
   <![CDATA[
    .str1 {stroke:#1C2335;stroke-width:3;stroke-miterlimit:2.61313}
    .str0 {stroke:#1C2335;stroke-width:3.31;stroke-miterlimit:2.61313}
    .fil0 {fill:none}
    .fil1 {fill:#1C2335;fill-rule:nonzero}
   ]]>
  </style>
 </defs>
 <g id="Layer_x0020_1">
  <metadata id="CorelCorpID_0Corel-Layer"/>
  <g id="_1819485878848">
   <g>
    <path class="fil0 str0" d="M135.18 89.33c10.68,-36 -9.85,-73.83 -45.84,-84.51 -36,-10.68 -73.83,9.85 -84.51,45.84 -10.68,36 9.85,73.83 45.84,84.51 36,10.68 73.83,-9.85 84.51,-45.84z"/>
   </g>
   <g id="_2562532414656">
    <path class="fil1" d="M66.05 117.11c-1.5,-0.89 -1.8,-1.79 -1.8,-3.28 0,-3.58 0,-7.17 0,-10.75 0,-0.6 0,-0.9 0,-1.2 -0.3,0 -0.89,0 -1.19,0 -9.85,0 -19.71,0 -29.86,0 -4.48,0 -8.06,-3.88 -7.46,-8.36 0.3,-3.58 0.9,-7.47 1.2,-11.05 0.59,-5.97 1.49,-12.24 2.09,-18.21 0.89,-6.57 1.49,-12.84 2.39,-19.41 0.6,-5.08 1.2,-10.15 1.79,-14.93 0.3,-3.88 3.29,-6.87 7.17,-6.87 19.7,0 39.42,0 59.12,0 3.88,0 6.87,2.99 7.47,6.87 1.19,9.56 2.09,19.41 3.28,29.26 0.3,2.39 0.6,4.78 0.9,7.17 0,1.19 -0.3,1.79 -1.2,1.79 -0.89,0 -1.49,-0.3 -1.49,-1.49 -0.6,-4.48 -1.19,-8.96 -1.49,-13.14 -0.9,-6.57 -1.49,-13.14 -2.39,-19.7 0,-1.2 -0.3,-2.39 -0.3,-3.59 -0.3,-2.69 -2.39,-4.48 -5.07,-4.48 -10.75,0 -21.5,0 -32.25,0 -8.66,0 -17.32,0 -25.68,0 -3.28,0 -5.07,1.49 -5.37,4.78 -0.9,7.76 -1.8,15.23 -2.69,22.99 -1.19,8.36 -2.09,16.43 -2.99,24.49 -0.59,5.07 -1.19,10.45 -1.79,15.83 -0.3,2.98 1.79,5.07 4.78,5.07 8.66,0 17.02,0 25.68,0 1.79,0 3.58,0 5.37,0 0,-0.9 0,-2.09 0,-3.28 -0.3,0 -0.9,0 -1.19,0 -9.26,0 -18.22,0 -27.47,0 -2.69,0 -3.88,-1.49 -3.58,-3.88 0.89,-7.46 1.79,-15.23 2.69,-22.7 0.9,-7.46 1.79,-14.93 2.69,-22.39 0.6,-4.78 1.19,-9.56 1.79,-14.63 0.3,-1.79 1.19,-2.69 3.28,-2.69 8.06,0 15.83,0 23.89,0 1.19,0 1.79,0.6 1.79,1.19 0,0.9 -0.6,1.49 -1.79,1.49 -7.76,0 -15.53,0 -23.29,0 -0.3,0 -0.6,0 -1.2,0 -2.39,20.31 -4.78,40.31 -7.17,60.62 4.48,0 8.66,0 13.14,0 0,-0.89 0,-1.79 0,-2.69 0.3,-1.79 0.3,-3.58 0.59,-5.07 1.8,-5.38 5.68,-8.36 11.05,-8.96 5.37,-0.6 9.26,1.49 12.24,5.97 0.3,0 0.3,0.3 0.3,0.3 0,0.3 0.3,0.3 0.3,0.6 0.3,-0.3 0.3,-0.6 0.6,-0.9 2.99,-4.78 8.96,-7.17 14.33,-5.67 5.67,1.49 9.56,6.57 9.56,12.24 0,1.49 0,2.69 0,4.18 2.69,0 5.67,0 8.36,0 -2.39,-20.01 -4.78,-40.31 -7.17,-60.62 -0.3,0 -0.6,0 -0.9,0 -7.76,0 -15.53,0 -23.29,0 -0.3,0 -0.6,0 -0.89,0 -0.6,0 -1.2,-0.6 -1.2,-1.2 0,-0.89 0.6,-1.19 1.2,-1.49 0.3,0 0.6,0 0.89,0 7.76,0 15.53,0 23.59,0 2.09,0 3.29,0.9 3.58,2.99 0.9,8.96 2.09,17.62 2.99,26.28 1.19,9.85 2.39,19.41 3.28,28.96 0.3,1.5 0.6,2.99 0.6,4.78 0.3,1.79 -0.9,3.28 -2.98,3.28 -2.69,0 -5.38,0 -8.06,0 0,1.2 0,2.09 0,3.29 0.89,0 1.49,0 2.09,0 2.69,0 5.07,0 7.76,0 3.28,0 5.37,-2.39 4.78,-5.67 -0.6,-6.27 -1.49,-12.84 -2.09,-19.11 0,-0.3 0,-0.59 0,-0.89 0,-0.6 0.3,-1.2 1.2,-1.49 0.59,0 1.19,0.59 1.49,1.19 0,1.19 0.3,2.39 0.3,3.58 0.59,5.67 1.49,11.35 2.09,17.02 0.3,4.18 -2.98,8.06 -7.17,8.36 -3.28,0 -6.57,0 -9.56,0 -0.3,0 -0.6,0 -0.89,0 0,0.3 0,0.6 0,0.9 0,3.58 0,7.46 0,11.05 0,1.49 -0.6,2.69 -1.8,3.28 -2.09,0 -3.88,0 -5.97,0 -1.2,-0.6 -1.8,-1.49 -1.8,-2.69 -4.48,0 -8.96,0 -13.44,0 0,1.19 -0.89,2.09 -2.09,2.69 -1.79,0 -3.88,0 -5.67,0l0 -0zm4.78 -2.98l0 0c0,0 0,-0.3 0,-0.3 0,-8.66 0.3,-17.02 0,-25.68 0,-6.87 -7.46,-11.65 -14.04,-8.96 -4.78,2.39 -7.46,7.76 -5.97,13.44 1.19,0 2.39,0 3.88,0 0,-1.49 0,-2.69 0,-4.18 0,-4.18 3.88,-6.87 7.77,-5.67 2.98,0.6 4.48,2.98 4.48,6.27 0,8.06 0,16.12 0,24.19 0,0.3 0,0.6 0,0.9 1.49,0 2.69,0 3.88,0zm23.29 0l0 0c0,-1.2 0,-2.39 0,-3.88 0,-7.17 0,-14.33 0,-21.5 -0.3,-4.48 -2.09,-7.46 -5.97,-9.26 -3.88,-1.79 -7.46,-1.2 -10.75,1.19 -3.88,3.28 -3.88,7.46 -3.58,11.94 1.19,0 2.39,0 3.88,0 0,-1.49 0,-2.98 0,-4.18 0,-3.28 2.69,-5.97 6.27,-5.97 2.99,0 5.97,2.39 5.97,5.67 0.3,1.5 0,2.69 0,4.18 0,0.6 0.3,0.9 0.9,1.5 2.09,1.49 2.39,4.78 0.3,6.57 -0.9,0.9 -1.2,1.79 -1.2,2.99 0.3,0.6 0,1.19 0.3,1.79 0,0.3 0,0.6 0.3,0.9 2.69,2.09 2.69,5.37 0,7.46 -0.3,0.3 -0.3,0.3 -0.6,0.6 1.49,0 2.69,0 4.18,0l0 -0zm-20.31 -15.23l0 0c1.8,0 3.88,0 5.67,0 2.99,0 5.68,0.3 8.66,0 0.9,0 1.79,-0.6 1.79,-1.49 0,-0.9 -0.89,-1.8 -1.79,-1.8 -0.3,0 -0.3,0 -0.6,0 -4.18,0 -8.66,0 -13.14,0 0,0 -0.3,0 -0.6,0 0,1.2 0,2.09 0,3.29l0 0zm0 12.54l0 0c0,0 0.3,0 0.3,0 4.48,0 9.26,0 14.04,0 0,0 0,0 0.3,0 0.59,0 1.49,-0.89 1.49,-1.49 0,-0.89 -0.6,-1.49 -1.49,-1.79 -0.3,0 -0.6,0 -0.9,0 -4.18,0 -8.66,0 -13.14,0 0,0 -0.3,0 -0.6,0 0,1.19 0,2.09 0,3.28l0 0zm-9.56 -18.81l0 0c0,-0.9 0,-2.09 0,-2.99 0,-0.6 0,-0.89 0,-1.49 -0.3,-1.49 -1.49,-2.98 -3.28,-2.98 -1.49,0 -3.28,0.89 -3.58,2.69 0,1.49 0,3.28 0,4.78 2.39,0 4.48,0 6.87,0l0 0zm9.56 12.54l0 0c4.48,0 8.96,0 13.44,0 0,-1.19 0,-2.09 0,-3.28 -4.48,0 -8.96,0 -13.44,0 0,1.19 0,2.09 0,3.28zm6.57 -12.54l0 0c2.39,0 4.48,0 6.87,0 0,-1.49 0,-2.99 0,-4.18 0,-1.79 -1.5,-3.28 -3.29,-3.28 -1.79,0 -3.28,1.19 -3.58,2.98 0,1.49 0,2.99 0,4.48z"/>
    <path class="fil1 str1" d="M69.93 65.45c-3.59,3.58 -9.56,4.18 -13.74,0 -1.5,1.49 -3.29,2.69 -5.67,2.69 -0.9,0.3 -1.5,0.3 -2.39,0 -0.9,0 -1.2,-0.6 -1.2,-1.49 0.3,-0.6 0.6,-1.19 1.5,-1.19 2.39,0.3 4.48,-0.6 6.27,-2.39 0.9,-1.19 2.39,-0.9 3.29,0.3 1.19,0.89 2.39,1.79 3.88,2.09 2.39,0.6 4.48,-0.3 5.97,-1.79 1.79,-1.8 2.69,-1.8 4.18,0 2.69,2.69 6.87,2.69 9.56,0 1.8,-1.8 2.69,-1.8 4.18,0 1.5,1.19 2.99,1.79 5.08,1.79 0.3,0 0.3,0 0.59,0 0.9,0 1.5,0.6 1.5,1.19 0,0.9 -0.3,1.49 -1.2,1.79 -2.39,0 -4.48,-0.3 -6.27,-1.79 -0.6,-0.3 -1.19,-0.6 -1.79,-1.19 -1.79,1.79 -4.18,2.98 -6.87,2.98 -2.69,0 -4.78,-1.19 -6.87,-2.98l0 0z"/>
    <path class="fil1" d="M83.66 54.1c-3.28,3.58 -9.26,4.18 -13.73,0 -1.8,1.79 -4.18,2.98 -6.87,2.98 -2.69,0 -4.78,-1.19 -6.87,-2.98 -0.3,0.3 -0.6,0.59 -0.9,0.89 -1.49,1.2 -3.28,1.79 -5.37,2.09 -0.9,0 -1.49,-0.6 -1.49,-1.19 -0.3,-0.9 0.3,-1.49 1.19,-1.49 2.09,-0.3 3.58,-1.2 5.07,-2.69 0.9,-0.89 2.39,-0.89 3.58,0.3 1.79,2.09 4.18,2.69 6.57,2.09 1.19,-0.6 2.39,-1.19 3.28,-2.09 1.2,-1.19 2.39,-1.19 3.88,0 2.69,2.99 6.87,2.99 9.85,0 1.2,-1.19 2.39,-1.19 3.88,0 1.19,1.19 2.69,2.09 4.48,2.39 0.89,0 1.49,0.6 1.49,1.49 0,0.6 -0.6,1.19 -1.79,1.19 -2.39,-0.3 -4.48,-1.19 -6.27,-2.98l0 0z"/>
    <path class="fil1" d="M83.66 42.75c-3.58,3.88 -9.56,3.88 -13.73,0 -1.8,1.8 -4.18,2.99 -6.87,2.99 -2.69,0 -4.78,-1.19 -6.87,-2.99 0,0.3 -0.3,0.3 -0.6,0.6 -1.2,0.9 -2.69,1.79 -4.18,2.09 -0.9,0.3 -1.49,-0.3 -1.79,-0.89 0,-0.9 0.3,-1.49 1.19,-1.8 1.49,-0.3 2.69,-1.19 3.88,-2.39 0.89,-0.9 2.39,-0.9 3.58,0.3 1.79,2.09 4.78,2.99 7.46,1.8 0.9,-0.3 1.49,-1.2 2.39,-1.8 1.19,-1.19 2.39,-1.19 3.58,0 2.99,2.99 7.17,2.99 10.15,0 1.19,-1.19 2.39,-1.19 3.58,0 1.19,0.9 2.09,1.8 3.58,2.09 0.9,0.3 1.49,0.9 1.2,1.8 -0.3,0.89 -0.9,1.19 -2.09,0.89 -1.5,-0.6 -2.99,-1.49 -4.48,-2.69l0 -0z"/>
   </g>
  </g>
  <rect class="fil0" width="140" height="140"/>
 </g>
</svg>
