<?xml version="1.0" encoding="UTF-8"?>
<!DOCTYPE svg PUBLIC "-//W3C//DTD SVG 1.1//EN" "http://www.w3.org/Graphics/SVG/1.1/DTD/svg11.dtd">
<!-- Creator: CorelDRAW -->
<svg xmlns="http://www.w3.org/2000/svg" xml:space="preserve" width="0.14in" height="0.14in" version="1.1" style="shape-rendering:geometricPrecision; text-rendering:geometricPrecision; image-rendering:optimizeQuality; fill-rule:evenodd; clip-rule:evenodd"
viewBox="0 0 140 140"
 xmlns:xlink="http://www.w3.org/1999/xlink"
 xmlns:xodm="http://www.corel.com/coreldraw/odm/2003">
 <defs>
  <style type="text/css">
   <![CDATA[
    .str0 {stroke:#1C2335;stroke-width:3.33;stroke-miterlimit:2.61313}
    .str1 {stroke:#1C2335;stroke-width:3;stroke-miterlimit:2.61313}
    .fil0 {fill:none}
    .fil1 {fill:#1C2335;fill-rule:nonzero}
   ]]>
  </style>
 </defs>
 <g id="Layer_x0020_1">
  <metadata id="CorelCorpID_0Corel-Layer"/>
  <g id="_1819475488672">
   <circle class="fil0 str0" transform="matrix(0.602299 0.178654 -0.178654 0.602299 70 70)" r="107.11"/>
   <g id="_2134926166208">
    <g>
     <path class="fil1" d="M42.08 41.2c0.88,-4.1 1.76,-8.5 2.64,-12.6 0.59,-1.76 0.88,-3.52 1.17,-5.57 0.29,-1.17 0.88,-1.76 1.76,-1.76 4.69,0 9.09,0 13.48,0 10.26,0 20.52,0 30.78,0 1.76,0 1.76,0 2.35,2.34 1.17,5.86 2.34,11.72 3.52,17.59 2.05,0 4.4,0 6.45,0 4.1,0 3.81,-0.29 3.81,5.57 0,5.86 0,12.02 0,18.17 0,0.59 0,0.88 0,1.76 1.76,0 3.22,0 4.69,0 0.88,0 1.46,0.29 1.46,1.76 0.29,1.17 -0.29,2.05 -1.17,2.05 -2.05,0 -4.1,0 -6.15,0 -0.88,0 -1.46,-0.59 -1.46,-2.05 0,-0.88 0,-2.05 0,-3.22 -0.88,0 -1.76,0 -2.64,0 0.29,2.05 0.88,4.1 1.17,6.15 2.93,14.66 6.16,29.31 9.09,43.96 0.59,2.64 0,3.52 -1.76,3.52 -27.55,0 -55.1,0 -82.36,0 -1.76,0 -2.35,-0.88 -1.76,-3.52 3.22,-16.12 6.45,-32.24 9.96,-48.36 0,-0.59 0,-1.17 0.3,-1.76 -0.88,0 -1.76,0 -2.64,0 0,1.17 0,2.05 0,2.93 -0.3,1.76 -0.59,2.35 -1.76,2.35 -2.05,0 -3.81,0 -5.86,0 -0.88,0 -1.46,-0.59 -1.46,-1.76 0,-1.46 0.59,-2.05 1.46,-2.05 1.76,0 3.22,0 4.69,0 0,-0.59 0,-1.17 0,-1.76 0,-7.04 0,-13.78 0,-20.81 0,-2.34 0.3,-2.93 2.05,-2.93 2.64,0 5.57,0 8.21,0l0 0zm-0.88 73.57l0 0c19.34,0 38.4,0 57.74,0 -1.17,-7.04 -2.05,-13.78 -3.22,-20.52 -17.29,0 -34.29,0 -51.58,0 -0.88,6.74 -2.06,13.48 -2.93,20.52zm-6.45 -69.46l0 0c0,5.28 0,10.55 0,15.83 23.45,0 46.9,0 70.64,0 0,-5.28 0,-10.55 0,-15.83 -23.74,0 -47.19,0 -70.64,0zm14.07 19.93l0 0c-1.17,8.5 -2.64,16.7 -3.81,24.91 7.91,0 15.83,0 23.45,0 0,-8.21 0,-16.71 0,-24.91 -6.45,0 -12.9,0 -19.64,0zm42.5 0l0 0c-6.74,0 -13.19,0 -19.93,0 0,8.5 0,16.7 0,24.91 7.91,0 15.83,0 23.74,0 -1.46,-8.21 -2.64,-16.41 -3.81,-24.91zm2.64 0l0 0c0.29,0.59 0.29,1.17 0.29,1.46 0.59,4.1 1.17,8.2 1.76,12.02 2.05,11.72 3.81,23.16 5.57,34.88 0.3,0.88 0.59,1.46 1.17,1.46 2.05,-0.29 4.1,-0.29 6.16,-0.29 0.29,0 0.59,0 0.88,0 0,-0.59 0,-0.88 0,-1.17 -1.46,-6.45 -2.64,-12.89 -4.1,-19.64 -1.76,-9.09 -3.81,-18.17 -5.57,-27.26 -0.29,-0.59 -0.59,-1.47 -0.88,-1.47 -1.76,0 -3.22,0 -5.28,0l0 0zm-48.07 0l0 0c-1.46,0 -2.93,0 -4.4,0 -1.17,0 -1.46,0.29 -1.76,1.46 -2.93,15.54 -6.16,31.07 -9.38,46.6 0,0.29 0,0.88 -0.29,1.46 2.35,0 4.69,0 7.04,0.29 0.88,0 1.17,-0.59 1.46,-1.76 1.76,-11.72 3.52,-23.45 5.28,-35.17 0.88,-4.1 1.46,-8.5 2.05,-12.9l0 0zm39.86 -34.3l0 0c-0.29,-1.76 -0.59,-2.93 -0.59,-4.39 0,-1.17 -0.59,-1.46 -1.46,-1.46 -6.45,0 -12.9,0 -19.35,0 -2.64,0 -5.57,0 -8.5,0 -0.29,0 -0.88,0.29 -0.88,0.59 -0.29,1.76 -0.59,3.52 -0.88,5.28 10.55,0 21.1,0 31.65,0l0 -0zm-17.29 4.11l0 0c-4.98,0 -9.96,0 -14.95,0 -0.29,2.05 -0.59,4.1 -0.88,6.15 5.28,0 10.55,0 15.83,0 0,-2.05 0,-4.1 0,-6.15zm19.05 6.15l0 0c-0.3,-1.76 -0.59,-3.22 -0.88,-4.98 0,-0.88 -0.29,-1.17 -1.17,-1.17 -3.22,0 -6.45,0 -9.67,0 -1.46,0 -2.93,0 -4.4,0 0,2.05 0,4.1 0,6.15 5.28,0 10.55,0 16.12,0l0 0zm7.33 0l0 0c0,-0.29 0,-0.29 0,-0.29 -1.17,-4.98 -2.05,-10.26 -3.22,-15.24 0,-0.29 -0.3,-0.59 -0.3,-0.59 -1.17,0 -2.34,0 -3.52,0 0.88,5.57 1.76,10.85 2.35,16.12 1.76,0 3.22,0 4.69,0zm-45.14 0l0 0c0.88,-5.28 1.76,-10.55 2.64,-16.12 -1.17,0 -2.05,0 -3.22,0 -0.59,0 -0.88,0.3 -0.88,1.17 -0.88,3.81 -1.76,7.91 -2.35,11.72 -0.29,1.17 -0.59,2.05 -0.88,3.22 1.76,0 3.22,0 4.69,0l0 0z"/>
     <path id="_1" class="fil1" d="M44.72 28.31l0.3 0.29 0 0 0 0.29 -0.3 0.59 0 0.3 0 0.29 0 0.59 -0.29 0.29 0 0.3 0 0.59 0 0.29 -0.29 0.59 0 0.3 0 0.29 -0.3 0.59 0 0.29 0 0.3 0 0.59 -0.29 0.29 0 0.3 0 0.59 -0.3 0.29 0 0.29 0 0.59 0 0.3 -0.29 0.59 0 0.29 0 0.29 0 0.59 -0.29 0.29 0 0.29 0 0.59 -0.3 0.3 0 0.29 -0.29 0 0 -0.29 0 -0.59 0.29 -0.3 0 -0.59 0 -0.29 0 -0.3 0.3 -0.59 0 -0.29 0 -0.29 0.29 -0.59 0 -0.3 0 -0.29 0 -0.59 0.29 -0.29 0 -0.59 0 -0.3 0.3 -0.29 0 -0.59 0 -0.3 0 -0.29 0.29 -0.59 0 -0.29 0 -0.3 0 -0.59 0.3 -0.29 0 -0.3 0 -0.59 0.29 -0.29 0 -0.29 0 -0.59 0 -0.3 0.29 -0.59 0 0 0 0zm0.88 -5.28l0.59 0.3 0 0 0 0 0 0.29 -0.3 0 0 0.3 0 0 0 0.29 0 0.29 0 0 0 0.3 0 0 0 0.29 -0.29 0.29 0 0 0 0.3 0 0 0 0.29 0 0 0 0.3 0 0.29 -0.29 0 0 0.29 0 0 0 0.3 0 0 0 0.29 0 0.29 0 0 0 0.3 -0.3 0 0 0.29 0 0 0 0.29 -0.29 -0.29 0 0 0 -0.29 0 0 0 -0.3 0 0 0 -0.29 0.29 -0.29 0 0 0 -0.3 0 0 0 -0.29 0 0 0 -0.29 0 -0.3 0.3 0 0 -0.29 0 0 0 -0.3 0 0 0 -0.29 0 -0.29 0 0 0 -0.3 0.29 0 0 -0.29 0 0 0 -0.29 0 -0.3 0 0 0 -0.29 0 0 0 -0.3 0 0 0 0zm2.05 -2.05l0 0.59 0 0 0 0 0 0 0 0 -0.29 0 0 0 0 0 -0.3 0 0 0 0 0 0 0 0 0 -0.29 0 0 0 0 0.3 0 0 0 0 0 0 -0.3 0 0 0.29 0 0 0 0 0 0 0 0 0 0.29 -0.29 0 0 0 0 0.3 0 0 0 0 0 0.29 0 0 0 0.3 -0.59 -0.3 0.29 0 0 -0.29 0 0 0 -0.3 0 0 0 -0.29 0 0 0 0 0.3 -0.29 0 0 0 0 0 -0.3 0 0 0 0 0.29 0 0 -0.29 0 0 0 0 0.3 0 0 0 0 -0.29 0 0 0.29 0 0 0 0 0 0 0 0.29 0 0 0 0 0 0.3 0 0 0 0 0 0 0 0 -0zm13.48 0l0 0.59 0 0 -0.29 0 -0.59 0 -0.29 0 -0.59 0 -0.3 0 -0.59 0 -0.29 0 -0.3 0 -0.59 0 -0.29 0 -0.59 0 -0.29 0 -0.3 0 -0.59 0 -0.29 0 -0.59 0 -0.29 0 -0.59 0 -0.29 0 -0.29 0 -0.59 0 -0.3 0 -0.59 0 -0.29 0 -0.59 0 -0.29 0 -0.3 0 -0.59 0 -0.29 0 -0.59 0 -0.3 0 -0.59 0 0 -0.59 0.59 0 0.3 0 0.59 0 0.29 0 0.59 0 0.3 0 0.29 0 0.59 0 0.29 0 0.59 0 0.3 0 0.59 0 0.29 0 0.29 0 0.59 0 0.29 0 0.59 0 0.29 0 0.59 0 0.3 0 0.29 0 0.59 0 0.29 0 0.59 0 0.3 0 0.29 0 0.59 0 0.3 0 0.59 0 0.29 0 0.59 0 0.29 0 0 0zm30.78 0l0 0.59 0 0 -1.17 0 -0.88 0 -0.88 0 -1.17 0 -0.88 0 -0.88 0 -0.88 0 -1.17 0 -0.88 0 -0.88 0 -0.88 0 -1.17 0 -0.88 0 -0.88 0 -0.88 0 -1.17 0 -0.88 0 -0.88 0 -1.17 0 -0.88 0 -0.88 0 -0.88 0 -1.17 0 -0.88 0 -0.88 0 -0.88 0 -1.17 0 -0.88 0 -0.88 0 -0.88 0 -1.17 0 -0.88 0 0 -0.59 0.88 0 1.17 0 0.88 0 0.88 0 0.88 0 1.17 0 0.88 0 0.88 0 0.88 0 1.17 0 0.88 0 0.88 0 0.88 0 1.17 0 0.88 0 0.88 0 1.17 0 0.88 0 0.88 0 0.88 0 1.17 0 0.88 0 0.88 0 0.88 0 1.17 0 0.88 0 0.88 0 0.88 0 1.17 0 0.88 0 0.88 0 1.17 0 0 0zm2.35 2.64l-0.29 0.3 0 0 0 -0.3 0 -0.29 0 -0.3 0 0 -0.3 -0.29 0 0 0 -0.29 0 0 0 -0.3 0 0 0 0 -0.29 0 0 -0.29 0 0 0 0 0 0 0 0 0 -0.29 -0.3 0 0 0 0 0 0 0 -0.29 0 0 0 0 0 -0.29 0 0 0 0 0 -0.3 0 0 0 -0.29 0 0 0 0 -0.59 0 0 0.29 0 0 0 0.3 0 0 0 0 0 0.29 0 0 0 0.29 0 0 0 0 0 0.3 0 0 0 0 0.29 0 0 0.29 0 0 0 0 0.29 0 0 0.3 0 0 0.3 0 0 0 0.29 0 0 0 0.29 0.29 0 0 0.3 0 0 0 0.29 0 0.3 0 0 0 0.29 0 0 0 0zm3.52 17.3l0 0.59 -0.29 -0.3 0 -0.29 0 -0.59 -0.29 -0.59 0 -0.59 -0.3 -0.59 0 -0.59 0 -0.59 -0.29 -0.59 0 -0.59 -0.3 -0.3 0 -0.59 0 -0.59 -0.29 -0.59 0 -0.59 0 -0.59 -0.29 -0.59 0 -0.59 -0.3 -0.29 0 -0.59 0 -0.59 -0.29 -0.59 0 -0.59 0 -0.59 -0.29 -0.59 0 -0.3 -0.3 -0.59 0 -0.59 0 -0.59 -0.29 -0.59 0 -0.59 -0.3 -0.59 0 -0.29 0.3 -0.3 0.29 0.59 0 0.59 0.3 0.59 0 0.3 0 0.59 0.29 0.59 0 0.59 0 0.59 0.29 0.59 0 0.59 0.3 0.29 0 0.59 0 0.59 0.29 0.59 0 0.59 0.29 0.59 0 0.59 0 0.59 0.3 0.3 0 0.59 0 0.59 0.29 0.59 0 0.59 0.3 0.59 0 0.59 0 0.59 0.29 0.29 0 0.59 0.29 0.59 0 0.59 0 0.59 0.3 0.59 -0.3 -0.3 0 0zm0 0.58l-0.29 0 0 -0.29 0.29 0.29zm6.45 -0.58l0 0.59 0 0 0 0 -0.29 0 -0.3 0 0 0 -0.29 0 -0.29 0 -0.3 0 0 0 -0.29 0 -0.29 0 0 0 -0.3 0 -0.29 0 0 0 -0.3 0 -0.29 0 -0.29 0 0 0 -0.3 0 -0.29 0 0 0 -0.29 0 -0.3 0 0 0 -0.29 0 -0.3 0 0 0 -0.29 0 -0.29 0 -0.3 0 0 0 -0.29 0 0 -0.59 0.29 0 0 0 0.3 0 0.29 0 0.29 0 0 0 0.3 0 0.29 0 0 0 0.3 0 0.29 0 0 0 0.29 0 0.3 0 0 0 0.29 0 0.29 0 0.3 0 0 0 0.29 0 0.3 0 0 0 0.29 0 0.29 0 0 0 0.3 0 0.29 0 0.29 0 0 0 0.3 0 0.29 0 0 0 0 0zm4.1 5.86l-0.29 0 0 0 0 -0.59 0 -0.59 0 -0.29 0 -0.59 0 -0.29 0 -0.3 0 -0.59 0 -0.29 0 -0.29 -0.29 0 0 -0.3 0 -0.29 0 0 0 -0.3 0 0 -0.3 0 0 -0.29 0 0 0 0 -0.29 0 0 0 -0.29 -0.29 0 0 -0.3 0 -0.29 0 0 0 -0.29 0 -0.3 0 -0.29 0 -0.3 0 -0.29 0 -0.59 0 0 -0.59 0.59 0 0.29 0 0.3 0 0.29 0 0.3 0 0.29 0 0 0 0.29 0 0.3 0 0 0 0.29 0.29 0.29 0 0 0 0.3 0 0 0.29 0 0 0.29 0.3 0 0 0 0.29 0.29 0.3 0 0 0 0.29 0 0.29 0 0.3 0 0.29 0 0.29 0 0.59 0 0.3 0 0.59 0 0.29 0 0.59 0 0.59 0 0 0 0zm0 18.17l-0.29 0 0 0 0 -0.59 0 -0.59 0 -0.59 0 -0.59 0 -0.59 0 -0.59 0 -0.59 0 -0.59 0 -0.59 0 -0.29 0 -0.59 0 -0.59 0 -0.59 0 -0.59 0 -0.59 0 -0.59 0 -0.59 0 -0.59 0 -0.59 0 -0.59 0 -0.59 0 -0.59 0 -0.59 0 -0.59 0 -0.59 0 -0.59 0 -0.59 0 -0.59 0 -0.59 0 -0.59 0 -0.29 0 -0.59 0.29 0 0 0.59 0 0.29 0 0.59 0 0.59 0 0.59 0 0.59 0 0.59 0 0.59 0 0.59 0 0.59 0 0.59 0 0.59 0 0.59 0 0.59 0 0.59 0 0.59 0 0.59 0 0.59 0 0.59 0 0.59 0 0.59 0 0.59 0 0.29 0 0.59 0 0.59 0 0.59 0 0.59 0 0.59 0 0.59 0 0.59 0 0.59 0 0.59 0 0zm-0.29 1.47l0 0.59 0 -0.3 0 0 0 -0.29 0 0 0 0 0 0 0 0 0 -0.3 0 0 0 0 0 0 0 0 0 -0.29 0 0 0 0 0 0 0 0 0 0 0 -0.29 0 0 0 0 0 0 0 0 0 0 0 -0.3 0 0 0 0 0 0 0 0 0 0 0 -0.29 0 0 0 0 0.29 0 0 0 0 0 0 0.29 0 0 0 0 0 0 0 0 0 0 0 0.3 0 0 0 0 0 0 0 0 0 0 0 0.29 0 0 0 0 0 0 0 0 0 0 0 0.29 0 0 0 0 0 0 0 0 0 0.3 0 0 0 0 0 0 0 0 0 0.29 0 0 -0.29 -0.29 0 0zm0 0.58l0 0 0 -0.29 0 0.29zm4.69 -0.58l0 0.59 0 0 0 0 -0.29 0 0 0 -0.3 0 0 0 -0.29 0 0 0 -0.29 0 0 0 -0.3 0 0 0 -0.29 0 0 0 -0.29 0 0 0 -0.3 0 0 0 -0.29 0 0 0 -0.29 0 0 0 -0.3 0 0 0 -0.29 0 0 0 -0.3 0 0 0 -0.29 0 0 0 -0.29 0 0 0 -0.3 0 0 -0.59 0.3 0 0 0 0.29 0 0 0 0.29 0 0 0 0.3 0 0 0 0.29 0 0 0 0.3 0 0 0 0.29 0 0 0 0.29 0 0 0 0.3 0 0 0 0.29 0 0 0 0.29 0 0 0 0.3 0 0 0 0.29 0 0 0 0.29 0 0 0 0.3 0 0 0 0.29 0 0 0 0 0zm1.76 2.05l-0.3 0 0 0 0 0 0 -0.3 -0.29 0 0 0 0 -0.29 0 0 0 0 0 0 0 -0.29 0 0 0 0 0 0 0 0 -0.29 -0.3 0 0 0 0 0 0 0 0 0 0 0 0 -0.3 -0.29 0 0 0 0 0 0 0 0 0 0 -0.29 0 0 0 0 0 0 0 -0.3 0 0 0 0 -0.59 0 0 0.3 0 0 0 0 0 0.29 0 0 0 0 0 0 0 0.3 0 0 0 0 0.29 0 0 0 0 0.29 0 0 0 0 0 0 0.3 0 0 0.29 0 0 0 0 0.29 0 0 0 0 0 0.29 0 0 0.3 0 0 0.3 0 0 0 0 0 0.29 0 0 0 0.29 0 0 0 0zm-1.46 2.34l0 -0.59 0 0 0 0 0 0 0.29 0 0 0 0 0 0 0 0 0 0.29 0 0 0 0 -0.29 0 0 0 0 0 0 0.3 0 0 0 0 -0.3 0 0 0 0 0 0 0 0 0 -0.29 0 0 0 0 0.29 -0.29 0 0 0 0 0 0 0 -0.3 0 0 0 0 0 -0.29 0 0 0.29 0 0 0 0 0.29 0 0 0 0 0 0.3 0 0 0 0.29 0 0 0 0 0 0.29 0 0 0 0 -0.29 0.3 0 0 0 0 0 0.29 0 0 0 0 -0.29 0.3 0 0 0 0 0 0 -0.3 0 0 0.29 0 0 0 0 -0.29 0 0 0 0 0 0 0 -0.29 0 0 0 0 0 0 0zm-6.16 0l0 -0.59 0 0 0 0 0.29 0 0.3 0 0 0 0.29 0 0.3 0 0 0 0.29 0 0.29 0 0 0 0.3 0 0.29 0 0 0 0.29 0 0.3 0 0 0 0.29 0 0.29 0 0 0 0.3 0 0.29 0 0 0 0.3 0 0.29 0 0 0 0.29 0 0.3 0 0 0 0.29 0 0.29 0 0 0 0.3 0 0 0.59 -0.3 0 0 0 -0.29 0 -0.29 0 0 0 -0.3 0 -0.29 0 0 0 -0.29 0 -0.3 0 0 0 -0.29 0 -0.3 0 0 0 -0.29 0 -0.29 0 0 0 -0.3 0 -0.29 0 0 0 -0.29 0 -0.3 0 0 0 -0.29 0 -0.29 0 0 0 -0.3 0 -0.29 0 0 0 -0.3 0 -0.29 0 0 0 0 0zm-1.76 -2.34l0.59 0 0 0 0 0.29 0 0 0 0 0 0.29 0 0 0 0 0 0.3 0 0 0 0 0 0 0 0.29 0 0 0 0 0.29 0 0 0 0 0.3 0 0 0 0 0 0 0 0 0 0 0.29 0.29 0 0 0 0 0 0 0 0 0.3 0 0 0 0 0 0 0 0 0 0.29 0 0 0.59 -0.29 0 0 0 0 0 -0.3 0 0 0 0 0 0 0 -0.29 0 0 -0.29 0 0 0 0 0 0 -0.29 0 0 0 0 -0.3 0 0 0 0 -0.3 -0.29 0 0 0 0 0 0 0 -0.3 0 0 0 0 0 -0.29 0 0 0 -0.29 -0.29 0 0 0 0 -0.3 0 0 0 -0.29 0 0 0 0zm0.29 -2.93l0 -0.59 0.29 0.29 0 0.3 0 0 0 0 0 0.29 0 0 0 0 0 0.3 0 0 0 0 0 0.29 0 0 0 0.29 0 0 0 0 0 0.3 0 0 0 0 0 0.29 0 0 0 0 0 0.29 0 0 0 0 0 0.3 0 0 0 0 0 0.29 0 0 0 0 0 0.3 0 0 0 0 -0.59 0 0 0 0 0 0 -0.3 0 0 0 0 0 -0.29 0 0 0 0 0 -0.3 0 0 0 0 0 -0.29 0 0 0 0 0 -0.29 0 0 0 0 0 -0.3 0 0 0 0 0 -0.29 0 0 0 -0.29 0 0 0 0 0 -0.3 0 0 0 0 0 -0.29 0 0 0 0 0 -0.3 0.3 0.3 0 0zm0 -0.59l0.29 0 0 0.3 -0.29 -0.3zm-2.35 0.3l-0.59 0.29 0.3 -0.59 0 0 0 0 0.29 0 0 0 0 0 0.29 0 0 0 0 0 0 0 0.3 0 0 0 0 0 0.29 0 0 0 0 0 0 0 0.3 0 0 0 0 0 0.29 0 0 0 0 0 0 0 0.29 0 0 0 0 0 0.3 0 0 0 0 0 0 0 0.29 0 0 0 0 0.59 0 0 -0.29 0 0 0 0 0 0 0 -0.3 0 0 0 0 0 -0.29 0 0 0 0 0 0 0 -0.29 0 0 0 0 0 -0.3 0 0 0 0 0 0 0 -0.29 0 0 0 0 0 -0.3 0 0 0 0 0 0 0 -0.29 0 0 0 0 0 -0.29 0 0 0 0 0 0.29 -0.29 0 0zm-0.59 0.29l0 -0.59 0.3 0 -0.3 0.59zm1.76 5.86l-0.59 0 0 0 0 0 0 -0.29 0 -0.3 0 0 0 -0.29 0 -0.29 -0.29 0 0 -0.3 0 -0.29 0 0 0 -0.3 0 0 0 -0.29 0 -0.29 -0.3 0 0 -0.3 0 -0.29 0 0 0 -0.29 0 -0.3 0 0 -0.29 -0.29 0 -0.3 0 0 0 -0.29 0 -0.29 0 0 0 -0.3 0 -0.29 -0.29 0 0 -0.29 0 0 0.59 -0.3 0 0.3 0 0 0 0.29 0 0.29 0 0 0 0.3 0 0.29 0.29 0 0 0.29 0 0.3 0 0 0 0.29 0 0 0 0.3 0 0.29 0.29 0 0 0.29 0 0.3 0 0 0 0.29 0 0.29 0 0 0.3 0.3 0 0.29 0 0 0 0.3 0 0 0 0.29 0 0.29 0 0 0.29 0.3 0 0.29 0 0zm8.8 43.96l-0.3 0 0 0 -0.29 -1.17 -0.3 -1.46 -0.29 -1.46 -0.29 -1.17 -0.3 -1.46 -0.29 -1.46 -0.29 -1.17 -0.3 -1.46 -0.29 -1.46 0 -1.46 -0.29 -1.17 -0.3 -1.46 -0.29 -1.46 -0.3 -1.17 -0.29 -1.46 -0.29 -1.46 -0.3 -1.17 -0.29 -1.46 -0.29 -1.46 -0.3 -1.17 -0.29 -1.46 -0.3 -1.46 -0.29 -1.47 -0.29 -1.17 -0.3 -1.46 -0.29 -1.47 -0.29 -1.17 -0.3 -1.46 -0.29 -1.47 -0.3 -1.17 -0.29 -1.47 -0.29 -1.46 0.59 0 0.29 1.17 0.3 1.46 0.29 1.46 0.29 1.17 0.3 1.46 0 1.46 0.29 1.47 0.29 1.17 0.3 1.46 0.29 1.47 0.29 1.17 0.3 1.47 0.29 1.46 0.3 1.17 0.29 1.47 0.29 1.46 0.3 1.17 0.29 1.47 0.29 1.46 0.3 1.46 0.29 1.17 0.3 1.46 0.29 1.46 0.29 1.17 0.3 1.46 0.29 1.46 0.29 1.17 0.3 1.46 0.29 1.46 0.29 1.17 0.3 1.46 0 1.46 0 0 0 0zm-1.76 3.81l0 -0.59 0 0 0 0 0.29 0 0 0 0.3 0 0 0 0.29 0 0 -0.3 0 0 0.29 0 0 0 0 0 0 0 0.3 -0.29 0 0 0 0 0 0 0 -0.29 0 0 0.29 0 0 -0.3 0 0 0 -0.29 0 0 0 0 0 -0.29 0 -0.3 0 0 0 -0.29 0 0 -0.29 -0.3 0 -0.29 0 -0.29 0.29 0 0.29 0.29 0 0 0 0.29 0 0.3 0 0.29 0 0 0 0.3 0 0.29 0 0 0 0.29 0 0 0 0.3 0 0 0 0.29 0 0 -0.29 0.29 0 0 0 0.3 0 0 -0.29 0 0 0.29 0 0 -0.3 0 0 0 -0.29 0 0 0.3 -0.29 0 0 0 -0.3 0 0 0 -0.29 0 0 0 0 0 0 0zm-82.36 0l0 -0.59 0 0 2.64 0 2.35 0 2.64 0 2.64 0 2.63 0 2.35 0 2.64 0 2.64 0 2.64 0 2.64 0 2.34 0 2.64 0 2.64 0 2.64 0 2.34 0 2.64 0 2.64 0 2.64 0 2.64 0 2.35 0 2.64 0 2.63 0 2.64 0 2.35 0 2.64 0 2.64 0 2.64 0 2.64 0 2.34 0 2.64 0 2.64 0 2.64 0 0 0.59 -2.64 0 -2.64 0 -2.64 0 -2.34 0 -2.64 0 -2.64 0 -2.64 0 -2.64 0 -2.35 0 -2.64 0 -2.63 0 -2.64 0 -2.35 0 -2.64 0 -2.64 0 -2.64 0 -2.64 0 -2.34 0 -2.64 0 -2.64 0 -2.64 0 -2.34 0 -2.64 0 -2.64 0 -2.64 0 -2.64 0 -2.35 0 -2.63 0 -2.64 0 -2.64 0 -2.35 0 -2.64 0 0 0zm-2.05 -3.81l0.29 0.29 0 0 0 0 0 0.3 0 0.29 0 0 0 0.3 0 0.29 0 0 0 0.29 0 0 0 0.3 0 0 0 0 0 0.29 0 0 0 0 0 0.29 0.3 0 0 0 0 0 0 0.3 0 0 0.29 0 0 0 0 0 0.3 0 0 0.29 0 0 0.29 0 0 0 0.29 0 0 0 0.3 0 0 0.59 -0.3 0 0 0 -0.29 0 0 0 -0.29 0 0 0 -0.3 -0.29 0 0 -0.29 0 0 0 0 0 -0.3 -0.3 0 0 0 0 0 -0.29 -0.29 0 0 -0.29 0 0 0 -0.3 0 0 0 -0.29 -0.29 0 0 -0.29 0 0 0 -0.3 0 -0.29 0 0 0.29 -0.29 0 -0.3 0 0 0 -0.29 0 -0.3 0 0 0 0zm9.96 -48.65l0.3 0.29 0 0 -0.3 1.46 -0.29 1.47 -0.29 1.46 -0.3 1.76 -0.29 1.47 -0.3 1.46 -0.29 1.46 -0.29 1.46 -0.3 1.76 -0.29 1.46 -0.29 1.46 -0.3 1.46 -0.59 1.46 -0.29 1.47 -0.3 1.76 -0.29 1.47 -0.29 1.46 -0.3 1.46 -0.29 1.46 -0.29 1.76 -0.3 1.46 -0.29 1.46 -0.29 1.46 -0.3 1.46 -0.29 1.46 -0.3 1.76 -0.29 1.46 -0.29 1.47 -0.3 1.46 -0.59 1.46 -0.29 1.76 -0.29 1.46 -0.3 -0.3 0.3 -1.46 0.29 -1.46 0.29 -1.46 0.3 -1.76 0.29 -1.46 0.29 -1.46 0.3 -1.46 0.29 -1.46 0.59 -1.47 0.3 -1.76 0.29 -1.47 0.29 -1.46 0.3 -1.46 0.29 -1.46 0.29 -1.76 0.3 -1.46 0.29 -1.46 0.29 -1.46 0.3 -1.46 0.29 -1.46 0.3 -1.76 0.29 -1.46 0.29 -1.47 0.3 -1.46 0.29 -1.46 0.59 -1.76 0.29 -1.46 0.3 -1.46 0.29 -1.46 0.3 -1.46 0.29 -1.46 0.29 -1.76 0 0zm0.3 0.29l0 0 0 0 0 0zm0.29 -1.46l0 -0.59 0 0.59 0 0 0 0 0 0 0 0 0 0 0 0.3 0 0 0 0 0 0 0 0 0 0.29 0 0 0 0 0 0 0 0 0 0 0 0 0 0.29 0 0 0 0 0 0 0 0 0 0 0 0.3 -0.29 0 0 0 0 0 0 0 0 0 0 0.29 0 0 0 0 -0.29 -0.29 0 0 0 0 0 0 0 0 0 0 0 -0.3 0 0 0 0 0 0 0 0 0 0 0 -0.29 0 0 0 0 0 0 0 0 0 0 0 -0.29 0 0 0.29 0 0 0 0 0 0 0 0 -0.3 0 0 0 0 0 0 0 0 0 0 0 -0.29 0 0 0 0 0.29 0.29zm0 -0.59l0.3 0 -0.3 0.59 0 -0.59zm-2.64 0.3l-0.29 0 0.29 -0.3 0 0 0 0 0 0 0.3 0 0 0 0 0 0.29 0 0 0 0 0 0.29 0 0 0 0 0 0 0 0.3 0 0 0 0 0 0 0 0.29 0 0 0 0 0 0.29 0 0 0 0 0 0 0 0.3 0 0 0 0 0 0 0 0.29 0 0 0 0 0 0.29 0 0 0.59 -0.29 0 0 0 0 0 -0.29 0 0 0 0 0 0 0 -0.3 0 0 0 0 0 0 0 -0.29 0 0 0 0 0 -0.29 0 0 0 0 0 0 0 -0.3 0 0 0 0 0 0 0 -0.29 0 0 0 0 0 -0.29 0 0 0 0 0 -0.3 0 0 0 0 0 0 0 0 -0.29 0 0zm-0.29 0l0 -0.3 0.29 0 -0.29 0.3zm0.29 2.93l-0.29 0 0 0 0 0 0 0 0 -0.29 0 0 0 0 0 -0.3 0 0 0 0 0 -0.29 0 0 0 0 0 0 0 -0.29 0 0 0 0 0 -0.3 0 0 0 0 0 -0.29 0 0 0 0 0 -0.3 0 0 0 0 0 -0.29 0 0 0 0 0 0 0 -0.29 0 0 0 0 0 -0.3 0.29 0 0 0.3 0 0 0 0 0 0.29 0 0 0 0 0 0 0 0.29 0 0 0 0 0 0.3 0 0 0 0 0 0.29 0 0 0 0 0 0.3 0 0 0 0 0 0.29 0 0 0 0 0 0 0 0.29 0 0 0 0 0 0.3 0 0 0 0 0 0.29 0 0 0 0 0 0zm-1.76 2.64l0 -0.59 0 0 0 0 0 0 0.29 0 0 0 0 0 0.29 0 0 0 0 0 0 0 0.3 0 0 0 0 -0.29 0 0 0 0 0.29 0 0 0 0 0 0 -0.3 0 0 0 0 0 0 0 -0.29 0 0 0 0 0.29 -0.29 0 0 0 0 0 -0.3 0 0 0 -0.29 0 0 0 -0.29 0.3 0 0 0.29 0 0 0 0.29 0 0 0 0.3 0 0 0 0.29 0 0 0 0.29 0 0 0 0 -0.3 0.3 0 0 0 0.29 0 0 0 0 -0.29 0 0 0.3 0 0 0 0 -0.29 0 0 0 0 0.29 0 0 -0.3 0 0 0 0 0 -0.29 0 0 0 -0.29 0 0 0 0 0 0 0 0 0zm-5.87 0l0 -0.59 0 0 0.3 0 0.29 0 0 0 0.3 0 0 0 0.29 0 0.29 0 0 0 0.3 0 0 0 0.29 0 0.29 0 0 0 0.3 0 0 0 0.29 0 0.3 0 0 0 0.29 0 0 0 0.29 0 0.3 0 0 0 0.29 0 0 0 0.29 0 0.3 0 0 0 0.29 0 0 0 0.3 0 0.29 0 0 0.59 -0.29 0 0 0 -0.3 0 -0.29 0 0 0 -0.3 0 -0.29 0 0 0 -0.29 0 0 0 -0.3 0 -0.29 0 0 0 -0.29 0 0 0 -0.3 0 -0.29 0 0 0 -0.3 0 0 0 -0.29 0 -0.29 0 0 0 -0.3 0 0 0 -0.29 0 -0.29 0 0 0 -0.3 0 0 0 -0.29 0 -0.3 0 0 0zm-1.76 -2.05l0.59 0 0 0 0 0 0 0 0 0.29 0 0 0 0 0 0.3 0 0 0 0 0 0 0 0.29 0 0 0 0 0.29 0 0 0 0 0.3 0 0 0 0 0 0 0 0 0.3 0 0 0.29 0 0 0 0 0 0 0.29 0 0 0 0 0 0 0 0.29 0 0 0 0 0 0 0 0 0.59 0 0 0 0 -0.29 0 0 0 0 0 -0.29 0 0 0 0 0 0 0 -0.3 -0.29 0 0 0 0 0 0 -0.29 0 0 -0.3 0 0 0 0 0 0 -0.29 -0.29 0 0 0 0 0 -0.3 0 0 0 0 0 -0.29 0 0 0 0 0 -0.29 -0.3 0 0 -0.3 0 0 0 0 0 0 0 0zm1.76 -2.34l0 0.59 0 0 0 0 0 0 0 0 -0.29 0 0 0 0 0 0 0 -0.29 0 0 0 0 0.29 0 0 0 0 -0.3 0 0 0 0 0 0 0 0 0.29 0 0 0 0 -0.29 0 0 0 0 0.3 0 0 0 0 0 0 0 0.29 0 0 0 0 0 0.29 0 0 0 0 0 0.3 -0.59 0 0 -0.3 0 0 0 -0.29 0.29 0 0 0 0 -0.29 0 0 0 -0.3 0 0 0 0 0 -0.29 0 0 0 0 0.3 -0.29 0 0 0 0 0 0 0 -0.3 0.29 0 0 0 0 0 0 0 0.29 0 0 -0.29 0 0 0.3 0 0 0 0 0 0 0 0.29 0 0 0 0 0 0 0 0 0zm4.4 0.29l0.59 0 -0.29 0.29 0 0 -0.3 0 0 0 -0.29 0 0 0 -0.29 0 0 0 -0.3 0 0 0 -0.29 0 0 0 -0.29 0 0 0 -0.3 0 0 0 -0.29 0 0 0 -0.29 0 0 0 -0.3 0 0 0 -0.29 0 0 0 -0.3 0 0 0 -0.29 0 0 0 -0.29 0 0 0 -0.3 0 0 0 -0.29 0 0 -0.59 0.29 0 0 0 0.3 0 0 0 0.29 0 0 0 0.29 0 0 0 0.3 0 0 0 0.29 0 0 0 0.3 0 0 0 0.29 0 0 0 0.29 0 0 0 0.3 0 0 0 0.29 0 0 0 0.29 0 0 0 0.3 0 0 0 0.29 0 0 0 0.29 0 0 0 0.3 0 0 0 -0.3 0.3 0 0zm0.59 0l0 0.29 -0.29 0 0.29 -0.29zm-0.59 -1.76l0.59 0 0 0 0 0 0 0 0 0 0 0.3 0 0 0 0 0 0 0 0 0 0.29 0 0 0 0 0 0 0 0 0 0 0 0.3 0 0 0 0 0 0 0 0 0 0.29 0 0 0 0 0 0 0 0 0 0 0 0.29 0 0 0 0 0 0 0 0 0 0.3 0 0 -0.59 0 0 0 0 -0.3 0 0 0 0 0 0 0 0 0 -0.29 0 0 0 0 0 0 0 0 0 0 0 -0.29 0 0 0 0 0 0 0 0 0 -0.3 0 0 0 0 0 0 0 0 0 0 0 -0.29 0 0 0 0 0 0 0 0 0 -0.3 0 0 0 0 0 0 0 0zm0 -20.81l0.59 0 0 0 0 0.59 0 0.59 0 0.59 0 0.88 0 0.59 0 0.59 0 0.59 0 0.88 0 0.59 0 0.59 0 0.59 0 0.59 0 0.88 0 0.59 0 0.59 0 0.59 0 0.88 0 0.59 0 0.59 0 0.59 0 0.59 0 0.88 0 0.59 0 0.59 0 0.59 0 0.88 0 0.59 0 0.59 0 0.59 0 0.59 0 0.88 0 0.59 -0.59 0 0 -0.59 0 -0.88 0 -0.59 0 -0.59 0 -0.59 0 -0.59 0 -0.88 0 -0.59 0 -0.59 0 -0.59 0 -0.88 0 -0.59 0 -0.59 0 -0.59 0 -0.59 0 -0.88 0 -0.59 0 -0.59 0 -0.59 0 -0.88 0 -0.59 0 -0.59 0 -0.59 0 -0.59 0 -0.88 0 -0.59 0 -0.59 0 -0.59 0 -0.88 0 -0.59 0 -0.59 0 -0.59 0 0zm2.35 -3.22l0 0.59 0 0 -0.29 0 0 0 0 0 -0.3 0 0 0 -0.29 0 0 0 0 0.29 -0.29 0 0 0 0 0 0 0 -0.3 0 0 0 0 0.29 0 0 0 0 0 0 0 0 -0.29 0.3 0 0 0 0 0 0.29 0 0 0 0.3 0 0 0 0.29 0 0 0 0.29 0 0 0 0.3 0 0.29 -0.59 0 0 -0.29 0 -0.3 0.29 0 0 -0.29 0 -0.29 0 0 0 -0.3 0 0 0 -0.29 0 0 0 -0.3 0 0 0 -0.29 0.3 0 0 0 0 -0.29 0 0 0 0 0.29 -0.3 0 0 0 0 0.29 0 0 0 0 0 0.3 -0.29 0 0 0.29 0 0 0 0 0 0.29 0 0 0 0.3 0 0 0 0 0zm8.2 0.29l0.3 0 -0.3 0.29 0 0 -0.29 0 -0.29 0 -0.3 0 -0.29 0 -0.29 0 -0.3 0 -0.29 0 -0.3 0 -0.29 0 0 0 -0.29 0 -0.3 0 -0.29 0 -0.29 0 -0.3 0 -0.29 0 -0.29 0 -0.3 0 0 0 -0.29 0 -0.3 0 -0.29 0 -0.29 0 -0.3 0 -0.29 0 -0.29 0 -0.3 0 0 0 -0.29 0 -0.3 0 -0.29 0 0 -0.59 0.29 0 0.3 0 0.29 0 0 0 0.3 0 0.29 0 0.29 0 0.3 0 0.29 0 0.29 0 0.3 0 0.29 0 0 0 0.3 0 0.29 0 0.29 0 0.3 0 0.29 0 0.29 0 0.3 0 0.29 0 0 0 0.29 0 0.3 0 0.29 0 0.3 0 0.29 0 0.29 0 0.3 0 0.29 0 0.29 0 0 0 0 0.3 0 0zm0.3 0l0 0.29 -0.3 0 0.3 -0.29zm-1.17 73.57l0 0 0 0 0 0 0 -0.29 0 0.29zm0 0.3l-0.29 0 0 -0.3 0.29 0.3zm57.45 -0.3l0.59 0 -0.3 0.29 -1.76 0 -1.76 0 -2.05 0 -1.76 0 -1.76 0 -1.76 0 -1.76 0 -1.76 0 -2.06 0 -1.76 0 -1.76 0 -1.76 0 -1.76 0 -1.76 0 -2.05 0 -1.76 0 -1.76 0 -1.76 0 -1.76 0 -1.76 0 -2.05 0 -1.76 0 -1.76 0 -1.76 0 -1.76 0 -1.76 0 -2.05 0 -1.76 0 -1.76 0 -1.76 0 -1.76 0 -1.76 0 0 -0.59 1.76 0 1.76 0 1.76 0 1.76 0 1.76 0 2.05 0 1.76 0 1.76 0 1.76 0 1.76 0 1.76 0 2.05 0 1.76 0 1.76 0 1.76 0 1.76 0 1.76 0 2.05 0 1.76 0 1.76 0 1.76 0 1.76 0 1.76 0 2.06 0 1.76 0 1.76 0 1.76 0 1.76 0 1.76 0 2.05 0 1.76 0 1.76 0 -0.29 0.3 0 0zm0.58 0l0 0.29 -0.29 0 0.29 -0.29zm-3.52 -20.22l0 -0.59 0.29 0.3 0 0.59 0 0.59 0.3 0.59 0 0.88 0 0.59 0.29 0.59 0 0.59 0 0.59 0.3 0.59 0 0.59 0 0.88 0.29 0.59 0 0.59 0 0.59 0.29 0.59 0 0.88 0.3 0.59 0 0.59 0 0.59 0.29 0.59 0 0.59 0 0.88 0.29 0.59 0 0.59 0 0.59 0.3 0.59 0 0.88 0 0.59 0.29 0.59 0 0.59 0 0.59 0.3 0.88 -0.59 0 0 -0.59 0 -0.59 -0.29 -0.88 0 -0.59 0 -0.59 -0.29 -0.59 0 -0.59 0 -0.88 -0.3 -0.59 0 -0.59 0 -0.59 -0.29 -0.59 0 -0.88 -0.29 -0.59 0 -0.59 0 -0.59 -0.3 -0.59 0 -0.59 0 -0.88 -0.29 -0.59 0 -0.59 0 -0.59 -0.29 -0.59 0 -0.59 0 -0.88 -0.3 -0.59 0 -0.59 0 -0.59 -0.29 -0.59 0 -0.59 0 -0.88 -0.3 -0.59 0.3 0.29 0 0zm0 -0.58l0.29 0 0 0.29 -0.29 -0.29zm-51.29 0.29l-0.29 0 0 -0.29 1.76 0 1.47 0 1.76 0 1.46 0 1.76 0 1.46 0 1.76 0 1.46 0 1.76 0 1.46 0 1.76 0 1.46 0 1.76 0 1.46 0 1.76 0 1.46 0 1.76 0 1.46 0 1.76 0 1.46 0 1.76 0 1.46 0 1.76 0 1.46 0 1.76 0 1.46 0 1.76 0 1.46 0 1.76 0 1.46 0 1.76 0 1.46 0 0 0.59 -1.46 0 -1.76 0 -1.46 0 -1.76 0 -1.46 0 -1.76 0 -1.46 0 -1.76 0 -1.46 0 -1.76 0 -1.46 0 -1.76 0 -1.46 0 -1.76 0 -1.46 0 -1.76 0 -1.46 0 -1.76 0 -1.46 0 -1.76 0 -1.46 0 -1.76 0 -1.46 0 -1.76 0 -1.46 0 -1.76 0 -1.46 0 -1.76 0 -1.46 0 -1.76 0 -1.47 0 -1.76 0 0.29 -0.3 0 0zm-0.29 0l0 -0.29 0 0 0 0.29zm-2.93 20.22l0 0.59 -0.29 -0.3 0 -0.88 0.29 -0.59 0 -0.59 0 -0.59 0.29 -0.59 0 -0.88 0 -0.59 0.3 -0.59 0 -0.59 0 -0.59 0.29 -0.59 0 -0.88 0 -0.59 0.3 -0.59 0 -0.59 0 -0.59 0.29 -0.59 0 -0.88 0 -0.59 0.29 -0.59 0 -0.59 0 -0.59 0.3 -0.88 0 -0.59 0 -0.59 0.29 -0.59 0 -0.59 0 -0.59 0.29 -0.88 0 -0.59 0 -0.59 0.3 -0.59 0.29 0 0 0.88 -0.29 0.59 0 0.59 0 0.59 -0.3 0.59 0 0.59 0 0.88 -0.29 0.59 0 0.59 0 0.59 -0.29 0.59 0 0.59 0 0.88 -0.3 0.59 0 0.59 0 0.59 -0.29 0.59 0 0.59 0 0.88 -0.29 0.59 0 0.59 0 0.59 -0.3 0.59 0 0.88 0 0.59 -0.29 0.59 0 0.59 0 0.59 -0.3 0.59 0 0.88 0 0.59 -0.29 0.59 0 -0.29 0 0zm0 0.59l-0.29 0 0 -0.3 0.29 0.3zm-6.45 -69.76l0 0 0 0 0 0 0.3 0 -0.3 0zm-0.29 0l0 -0.29 0.29 0 -0.29 0.29zm0.29 15.54l0 0.59 -0.29 -0.29 0 -0.3 0 -0.59 0 -0.59 0 -0.29 0 -0.59 0 -0.59 0 -0.59 0 -0.3 0 -0.59 0 -0.59 0 -0.29 0 -0.59 0 -0.59 0 -0.29 0 -0.59 0 -0.59 0 -0.59 0 -0.29 0 -0.59 0 -0.59 0 -0.29 0 -0.59 0 -0.59 0 -0.3 0 -0.59 0 -0.59 0 -0.59 0 -0.29 0 -0.59 0 -0.59 0 -0.3 0 -0.59 0.59 0 0 0.59 0 0.3 0 0.59 0 0.59 0 0.29 0 0.59 0 0.59 0 0.59 0 0.3 0 0.59 0 0.59 0 0.29 0 0.59 0 0.59 0 0.29 0 0.59 0 0.59 0 0.59 0 0.29 0 0.59 0 0.59 0 0.29 0 0.59 0 0.59 0 0.3 0 0.59 0 0.59 0 0.59 0 0.29 0 0.59 0 0.59 0 0.3 -0.3 -0.3 0 0zm0 0.59l-0.29 0 0 -0.3 0.29 0.3zm70.35 -0.3l0.59 0 -0.3 0.3 -2.34 0 -2.06 0 -2.34 0 -2.05 0 -2.35 0 -2.05 0 -2.34 0 -2.06 0 -2.34 0 -2.05 0 -2.35 0 -2.34 0 -2.06 0 -2.34 0 -2.05 0 -2.35 0 -2.05 0 -2.35 0 -2.05 0 -2.34 0 -2.05 0 -2.35 0 -2.05 0 -2.35 0 -2.05 0 -2.34 0 -2.06 0 -2.34 0 -2.35 0 -2.05 0 -2.34 0 -2.06 0 0 -0.59 2.06 0 2.34 0 2.05 0 2.35 0 2.34 0 2.06 0 2.34 0 2.05 0 2.35 0 2.05 0 2.35 0 2.05 0 2.34 0 2.05 0 2.35 0 2.05 0 2.35 0 2.05 0 2.34 0 2.06 0 2.34 0 2.35 0 2.05 0 2.34 0 2.06 0 2.34 0 2.05 0 2.35 0 2.05 0 2.34 0 2.06 0 2.34 0 -0.29 0.29 0 0zm0.58 0l0 0.3 -0.29 0 0.29 -0.3zm-0.29 -15.53l0 -0.59 0.29 0.29 0 0.59 0 0.29 0 0.59 0 0.59 0 0.29 0 0.59 0 0.59 0 0.29 0 0.59 0 0.59 0 0.59 0 0.3 0 0.59 0 0.59 0 0.29 0 0.59 0 0.59 0 0.3 0 0.59 0 0.59 0 0.59 0 0.29 0 0.59 0 0.59 0 0.3 0 0.59 0 0.59 0 0.29 0 0.59 0 0.59 0 0.59 0 0.29 -0.59 0 0 -0.29 0 -0.59 0 -0.59 0 -0.59 0 -0.29 0 -0.59 0 -0.59 0 -0.3 0 -0.59 0 -0.59 0 -0.29 0 -0.59 0 -0.59 0 -0.59 0 -0.3 0 -0.59 0 -0.59 0 -0.29 0 -0.59 0 -0.59 0 -0.3 0 -0.59 0 -0.59 0 -0.59 0 -0.29 0 -0.59 0 -0.59 0 -0.29 0 -0.59 0 -0.59 0 -0.29 0 -0.59 0.3 0.29 0 0zm0 -0.59l0.29 0 0 0.29 -0.29 -0.29zm-70.34 0.29l-0.59 0 0.29 -0.29 2.05 0 2.35 0 2.05 0 2.35 0 2.34 0 2.05 0 2.35 0 2.05 0 2.35 0 2.05 0 2.34 0 2.05 0 2.35 0 2.05 0 2.35 0 2.05 0 2.34 0 2.06 0 2.34 0 2.05 0 2.35 0 2.34 0 2.06 0 2.34 0 2.05 0 2.35 0 2.05 0 2.34 0 2.06 0 2.34 0 2.05 0 2.35 0 0 0.59 -2.35 0 -2.05 0 -2.34 0 -2.06 0 -2.34 0 -2.05 0 -2.35 0 -2.05 0 -2.34 0 -2.06 0 -2.34 0 -2.35 0 -2.05 0 -2.34 0 -2.06 0 -2.34 0 -2.05 0 -2.35 0 -2.05 0 -2.35 0 -2.05 0 -2.34 0 -2.05 0 -2.35 0 -2.05 0 -2.35 0 -2.05 0 -2.34 0 -2.35 0 -2.05 0 -2.35 0 -2.05 0 0.3 -0.29 0 -0zm-0.59 0l0 -0.29 0.29 0 -0.29 0.29zm14.36 19.93l0 0 0 0 0 0 0.29 0 -0.29 0zm-0.3 0l0 -0.3 0.3 0 -0.3 0.3zm-3.52 24.62l0 0.59 -0.29 -0.29 0 -0.88 0.29 -0.59 0 -0.88 0.29 -0.88 0 -0.59 0 -0.88 0.3 -0.88 0 -0.59 0.29 -0.88 0 -0.88 0.29 -0.59 0 -0.88 0 -0.88 0.3 -0.59 0 -0.88 0.29 -0.88 0 -0.59 0 -0.88 0.3 -0.88 0 -0.59 0.29 -0.88 0 -0.59 0.29 -0.88 0 -0.88 0 -0.59 0.3 -0.88 0 -0.88 0.29 -0.59 0 -0.88 0 -0.88 0.29 -0.59 0 -0.88 0.59 0 -0.29 0.88 0 0.88 -0.29 0.59 0 0.88 0 0.88 -0.3 0.59 0 0.88 -0.29 0.88 0 0.59 -0.29 0.88 0 0.88 0 0.59 -0.3 0.88 0 0.88 -0.29 0.59 0 0.88 0 0.88 -0.29 0.59 0 0.88 -0.3 0.88 0 0.59 -0.29 0.88 0 0.59 0 0.88 -0.3 0.88 0 0.59 -0.29 0.88 0 0.88 0 0.59 -0.29 0.88 0 0.88 -0.3 0.59 0 -0.29 0 -0zm0 0.59l-0.29 0 0 -0.29 0.29 0.29zm23.45 -0.29l0.29 0 -0.29 0.29 -0.59 0 -0.88 0 -0.59 0 -0.88 0 -0.59 0 -0.88 0 -0.59 0 -0.88 0 -0.59 0 -0.88 0 -0.59 0 -0.88 0 -0.59 0 -0.88 0 -0.59 0 -0.88 0 -0.59 0 -0.88 0 -0.59 0 -0.88 0 -0.59 0 -0.88 0 -0.88 0 -0.59 0 -0.88 0 -0.59 0 -0.88 0 -0.59 0 -0.88 0 -0.59 0 -0.88 0 -0.59 0 0 -0.59 0.59 0 0.88 0 0.59 0 0.88 0 0.59 0 0.88 0 0.59 0 0.88 0 0.59 0 0.88 0 0.88 0 0.59 0 0.88 0 0.59 0 0.88 0 0.59 0 0.88 0 0.59 0 0.88 0 0.59 0 0.88 0 0.59 0 0.88 0 0.59 0 0.88 0 0.59 0 0.88 0 0.59 0 0.88 0 0.59 0 0.88 0 0.59 0 0 0.29 0 0zm0.29 0l0 0.29 -0.29 0 0.29 -0.29zm-0.29 -24.62l0 -0.59 0.29 0.29 0 0.88 0 0.59 0 0.88 0 0.88 0 0.59 0 0.88 0 0.88 0 0.59 0 0.88 0 0.88 0 0.59 0 0.88 0 0.88 0 0.59 0 0.88 0 0.88 0 0.59 0 0.88 0 0.88 0 0.59 0 0.88 0 0.88 0 0.59 0 0.88 0 0.59 0 0.88 0 0.88 0 0.59 0 0.88 0 0.88 0 0.88 0 0.59 -0.29 0 0 -0.59 0 -0.88 0 -0.88 0 -0.88 0 -0.59 0 -0.88 0 -0.88 0 -0.59 0 -0.88 0 -0.59 0 -0.88 0 -0.88 0 -0.59 0 -0.88 0 -0.88 0 -0.59 0 -0.88 0 -0.88 0 -0.59 0 -0.88 0 -0.88 0 -0.59 0 -0.88 0 -0.88 0 -0.59 0 -0.88 0 -0.88 0 -0.59 0 -0.88 0 -0.88 0 -0.59 0 -0.88 0 0.3 0 0zm0 -0.59l0.29 0 0 0.3 -0.29 -0.3zm-19.35 0.3l-0.59 0 0.29 -0.3 0.59 0 0.59 0 0.59 0 0.59 0 0.88 0 0.59 0 0.59 0 0.59 0 0.59 0 0.59 0 0.59 0 0.59 0 0.59 0 0.59 0 0.88 0 0.59 0 0.59 0 0.59 0 0.59 0 0.59 0 0.59 0 0.59 0 0.59 0 0.59 0 0.88 0 0.59 0 0.59 0 0.59 0 0.59 0 0.59 0 0.59 0 0.59 0 0 0.59 -0.59 0 -0.59 0 -0.59 0 -0.59 0 -0.59 0 -0.59 0 -0.59 0 -0.88 0 -0.59 0 -0.59 0 -0.59 0 -0.59 0 -0.59 0 -0.59 0 -0.59 0 -0.59 0 -0.59 0 -0.88 0 -0.59 0 -0.59 0 -0.59 0 -0.59 0 -0.59 0 -0.59 0 -0.59 0 -0.59 0 -0.59 0 -0.88 0 -0.59 0 -0.59 0 -0.59 0 -0.59 0 0.3 -0.29 0 0zm-0.59 0l0 -0.3 0.3 0 -0.3 0.3zm42.79 0l0 0 0 0 0 0 0 0.29 0 -0.29zm0 -0.3l0 0 0 0.3 0 -0.3zm-19.63 0.3l-0.59 0 0.29 -0.3 0.59 0 0.59 0 0.59 0 0.88 0 0.59 0 0.59 0 0.59 0 0.59 0 0.59 0 0.59 0 0.59 0 0.59 0 0.59 0 0.88 0 0.59 0 0.59 0 0.59 0 0.59 0 0.59 0 0.59 0 0.59 0 0.59 0 0.88 0 0.59 0 0.59 0 0.59 0 0.59 0 0.59 0 0.59 0 0.59 0 0.88 0 0.59 0 0 0.59 -0.59 0 -0.88 0 -0.59 0 -0.59 0 -0.59 0 -0.59 0 -0.59 0 -0.59 0 -0.59 0 -0.88 0 -0.59 0 -0.59 0 -0.59 0 -0.59 0 -0.59 0 -0.59 0 -0.59 0 -0.59 0 -0.88 0 -0.59 0 -0.59 0 -0.59 0 -0.59 0 -0.59 0 -0.59 0 -0.59 0 -0.59 0 -0.59 0 -0.88 0 -0.59 0 -0.59 0 -0.59 0 0.29 -0.29 0 0zm-0.59 0l0 -0.3 0.29 0 -0.29 0.3zm0.29 24.62l0 0.59 -0.29 -0.29 0 -0.59 0 -0.88 0 -0.88 0 -0.59 0 -0.88 0 -0.88 0 -0.59 0 -0.88 0 -0.88 0 -0.59 0 -0.88 0 -0.88 0 -0.59 0 -0.88 0 -0.59 0 -0.88 0 -0.88 0 -0.59 0 -0.88 0 -0.88 0 -0.59 0 -0.88 0 -0.88 0 -0.59 0 -0.88 0 -0.88 0 -0.59 0 -0.88 0 -0.88 0 -0.59 0 -0.88 0 -0.88 0.59 0 0 0.88 0 0.88 0 0.59 0 0.88 0 0.88 0 0.59 0 0.88 0 0.88 0 0.59 0 0.88 0 0.88 0 0.59 0 0.88 0 0.88 0 0.59 0 0.88 0 0.88 0 0.59 0 0.88 0 0.59 0 0.88 0 0.88 0 0.59 0 0.88 0 0.88 0 0.59 0 0.88 0 0.88 0 0.59 0 0.88 0 0.88 0 0.59 -0.3 -0.29 0 -0zm0 0.59l-0.29 0 0 -0.29 0.29 0.29zm23.45 -0.29l0.59 0 -0.3 0.29 -0.88 0 -0.59 0 -0.88 0 -0.59 0 -0.88 0 -0.59 0 -0.88 0 -0.59 0 -0.88 0 -0.59 0 -0.88 0 -0.59 0 -0.88 0 -0.59 0 -0.88 0 -0.59 0 -0.88 0 -0.88 0 -0.59 0 -0.88 0 -0.59 0 -0.88 0 -0.59 0 -0.88 0 -0.59 0 -0.88 0 -0.59 0 -0.88 0 -0.59 0 -0.88 0 -0.59 0 -0.88 0 0 -0.59 0.88 0 0.59 0 0.88 0 0.59 0 0.88 0 0.59 0 0.88 0 0.59 0 0.88 0 0.59 0 0.88 0 0.59 0 0.88 0 0.59 0 0.88 0 0.88 0 0.59 0 0.88 0 0.59 0 0.88 0 0.59 0 0.88 0 0.59 0 0.88 0 0.59 0 0.88 0 0.59 0 0.88 0 0.59 0 0.88 0 0.59 0 0.88 0 -0.29 0.29 0 0zm0.59 0l0 0.29 -0.3 0 0.3 -0.29zm-4.11 -24.62l0 -0.59 0 0.29 0.3 0.88 0 0.59 0.29 0.88 0 0.88 0 0.59 0.29 0.88 0 0.88 0.3 0.59 0 0.88 0 0.88 0.29 0.59 0 0.88 0.3 0.88 0 0.59 0.29 0.88 0 0.59 0 0.88 0.29 0.88 0 0.59 0.3 0.88 0 0.88 0 0.59 0.29 0.88 0 0.88 0.29 0.59 0 0.88 0 0.88 0.3 0.59 0 0.88 0.29 0.88 0 0.59 0.3 0.88 -0.59 0 0 -0.59 -0.3 -0.88 0 -0.88 0 -0.59 -0.29 -0.88 0 -0.88 -0.3 -0.59 0 -0.88 -0.29 -0.88 0 -0.59 0 -0.88 -0.29 -0.88 0 -0.59 -0.3 -0.88 0 -0.59 0 -0.88 -0.29 -0.88 0 -0.59 -0.29 -0.88 0 -0.88 -0.3 -0.59 0 -0.88 0 -0.88 -0.29 -0.59 0 -0.88 -0.3 -0.88 0 -0.59 0 -0.88 -0.29 -0.59 0 -0.88 -0.29 -0.88 0 -0.59 0.29 0 0 0zm0 -0.59l0 0 0 0.3 0 -0.3zm2.64 0.3l0 0 0 0 0 0 0.29 0 -0.29 0zm0 0l0 -0.3 0 0 0 0.3zm0.58 1.46l-0.59 0.29 0 0 0 0 0 -0.29 0 0 0 0 0 0 0 0 0 0 0 -0.29 0 0 0 0 0 0 0 0 0 0 0 0 0 -0.3 0 0 0 0 0 0 0 0 0 0 0 -0.29 0 0 0 0 0 0 0 0 0 -0.3 0 0 0 0 0 0 0 0 0 -0.29 0 0 0.3 0 0 0 0 0 0 0 0 0.29 0 0 0 0 0 0 0 0 0 0.3 0 0 0 0 0 0 0 0 0 0.29 0 0 0 0 0 0 0.29 0 0 0 0 0.3 0 0 0 0 0 0 0 0 0 0 0 0 0 0.29 0 0 0 0 0 0 0 0 0 0 0 0 0 0zm1.76 12.02l-0.29 0 0 0 0 -0.29 -0.3 -0.29 0 -0.3 0 -0.59 0 -0.29 0 -0.3 -0.29 -0.59 0 -0.29 0 -0.29 0 -0.3 0 -0.59 -0.29 -0.29 0 -0.3 0 -0.29 0 -0.59 0 -0.29 -0.3 -0.3 0 -0.29 0 -0.59 0 -0.29 0 -0.3 -0.29 -0.59 0 -0.29 0 -0.3 0 -0.29 0 -0.59 -0.29 -0.29 0 -0.3 0 -0.29 0 -0.59 0 -0.29 -0.3 -0.3 0.59 -0.29 0 0.59 0 0.29 0 0.3 0.3 0.29 0 0.59 0 0.29 0 0.3 0 0.29 0.29 0.59 0 0.29 0 0.3 0 0.59 0 0.29 0.29 0.3 0 0.29 0 0.59 0 0.29 0 0.3 0.3 0.29 0 0.59 0 0.3 0 0.29 0 0.59 0.29 0.29 0 0.3 0 0.29 0 0.59 0 0.29 0.29 0.3 0 0.29 0 0.59 0 0.3 0 0 0 -0zm5.57 34.59l-0.59 0.29 0 0 0 -1.17 -0.3 -1.17 0 -0.88 -0.29 -1.17 -0.3 -1.17 0 -0.88 -0.29 -1.17 0 -1.17 -0.29 -1.17 0 -0.88 -0.3 -1.17 -0.29 -1.17 0 -0.88 -0.29 -1.17 0 -1.17 -0.3 -0.88 -0.29 -1.17 0 -1.17 -0.29 -1.17 0 -0.88 -0.3 -1.17 0 -1.17 -0.29 -0.88 -0.3 -1.17 0 -1.17 -0.29 -0.88 0 -1.17 -0.29 -1.17 0 -0.88 -0.3 -1.17 -0.29 -1.17 0 -1.17 0.29 0 0.3 1.17 0 0.88 0.29 1.17 0 1.17 0.29 0.88 0.3 1.17 0 1.17 0.29 1.17 0 0.88 0.3 1.17 0.29 1.17 0 0.88 0.29 1.17 0 1.17 0.3 0.88 0 1.17 0.29 1.17 0.29 1.17 0 0.88 0.3 1.17 0 1.17 0.29 0.88 0 1.17 0.29 1.17 0.3 0.88 0 1.17 0.29 1.17 0 1.17 0.3 0.88 0 1.17 0.29 1.17 0.29 0.88 0 0 0 0zm0.88 1.46l0 0.59 0 0 0 0 0 0 0 0 -0.29 0 0 0 0 -0.29 0 0 -0.3 0 0 0 0 0 0 0 0 0 -0.29 0 0 0 0 0 0 -0.3 0 0 0 0 -0.29 0 0 0 0 -0.29 0 0 0 0 0 -0.29 0 0 0 0 0 0 -0.3 -0.3 0 0 0 0 0 -0.29 0 0 0.59 -0.29 0 0.29 0 0 0 0 0 0.29 0 0 0 0 0 0 0 0.3 0 0 0 0 0 0 0 0 0 0 0.3 0.29 0 0 0 0 0 0 0 0 0 0 0 0 0 0 0 0 0.29 0 0 0 0 0 0 0 0 0.29 0 0 0.29 0 0 0 0 0 0 0 0 0 0 0zm6.15 -0.29l0 0.59 0 0 -0.29 0 -0.3 0 0 0 -0.29 0 -0.29 0 0 0 -0.3 0 0 0 -0.29 0 -0.29 0 0 0 -0.3 0 -0.29 0 0 0 -0.29 0 0 0 -0.3 0 -0.29 0 0 0 -0.3 0 -0.29 0 0 0 -0.29 0 -0.3 0 0 0 -0.29 0 0 0 -0.29 0 -0.3 0 0 0.29 -0.29 0 -0.3 0 0 -0.59 0.3 0 0.29 0 0 -0.29 0.3 0 0.29 0 0 0 0.29 0 0 0 0.3 0 0.29 0 0 0 0.29 0 0.3 0 0 0 0.29 0 0.3 0 0 0 0.29 0 0 0 0.29 0 0.3 0 0 0 0.29 0 0.29 0 0 0 0.3 0 0 0 0.29 0 0.29 0 0 0 0.3 0 0.29 0 0 0zm0.88 0.29l0.29 0 -0.29 0.29 0 0 0 0 0 0 0 0 0 0 0 0 0 0 -0.3 0 0 0 0 0 0 0 0 0 0 0 0 0 0 0 -0.29 0 0 0 0 0 0 0 0 0 0 0 0 0 0 0 0 0 -0.29 0 0 0 0 0 0 0 0 0 0 0 0 0 0 0 0 -0.59 0 0 0 0 0 0 0 0 0 0 0 0 0 0 0 0 0.29 0 0 0 0 0 0 0 0 0 0 0 0 0 0 0 0 0 0.29 0 0 0 0 0 0 0 0 0 0 0 0 0 0 0 0.3 0 0 0 0 0 0 0 0 0 0 0 0 0 0 0.3 0 0zm0.29 0l0 0.29 -0.29 0 0.29 -0.29zm-0.59 -0.88l0.3 -0.29 0 0 0 0 0 0 0 0 0 0 0 0.29 0 0 0.29 0 0 0 0 0 0 0 0 0 0 0 0 0 0 0.29 0 0 0 0 0 0 0 0 0 0 0 0 0 0 0 0 0 0.3 0 0 0 0 0 0 0 0 0 0 0 0 0 0.29 0 0 0 0 -0.29 0 0 0 0 0 0 0 0 0 0 0 0 -0.29 -0.3 0 0 0 0 0 0 0 0 0 0 0 0 0 0 -0.3 0 0 0 0 0 0 0 0 0 0 0 0 0 0 0 0 0 -0.29 0 0 0 0 0 0 0 0 0 0 0 0 0 0 0 0 0 0 0 0zm0 0l0 0 0 0 0 0zm-4.1 -19.93l0.59 0 0 0 0 0.59 0.29 0.59 0 0.59 0 0.59 0.3 0.59 0 0.59 0.29 0.88 0 0.59 0.29 0.59 0 0.59 0 0.59 0.3 0.59 0 0.59 0.29 0.59 0 0.59 0.3 0.59 0 0.88 0 0.59 0.29 0.59 0 0.59 0.29 0.59 0 0.59 0.3 0.59 0 0.59 0 0.59 0.29 0.59 0 0.88 0.29 0.59 0 0.59 0.3 0.59 0 0.59 0 0.59 -0.3 0.29 0 -0.88 -0.29 -0.59 0 -0.59 -0.29 -0.59 0 -0.59 -0.3 -0.59 0 -0.59 0 -0.59 -0.29 -0.59 0 -0.59 -0.29 -0.88 0 -0.59 -0.3 -0.59 0 -0.59 0 -0.59 -0.29 -0.59 0 -0.59 -0.3 -0.59 0 -0.59 -0.29 -0.59 0 -0.88 0 -0.59 -0.29 -0.59 0 -0.59 -0.3 -0.59 0 -0.59 -0.29 -0.59 0 -0.59 0 -0.59 -0.29 -0.59 0 -0.88 -0.3 -0.59 0 0 0 0zm-5.57 -27.26l0.59 -0.29 0 0 0 0.88 0.3 0.88 0 0.88 0.29 0.88 0.3 0.88 0 0.88 0.29 0.88 0 0.88 0.29 0.88 0.3 0.88 0 0.88 0.29 0.59 0 0.88 0.29 0.88 0.3 0.88 0 0.88 0.29 0.88 0 0.88 0.3 0.88 0.29 0.88 0 0.88 0.29 0.88 0 0.88 0.3 0.59 0 0.88 0.29 0.88 0.29 0.88 0 0.88 0.3 0.88 0 0.88 0.29 0.88 0.29 0.88 -0.59 0 0 -0.88 -0.29 -0.59 0 -0.88 -0.29 -0.88 -0.3 -0.88 0 -0.88 -0.29 -0.88 0 -0.88 -0.29 -0.88 -0.3 -0.88 0 -0.88 -0.29 -0.88 0 -0.88 -0.3 -0.59 -0.29 -0.88 0 -0.88 -0.29 -0.88 0 -0.88 -0.3 -0.88 -0.29 -0.88 0 -0.88 -0.29 -0.88 0 -0.88 -0.3 -0.88 -0.29 -0.88 0 -0.88 -0.29 -0.59 0 -0.88 -0.3 -0.88 -0.29 -0.88 0 -0.88 -0.3 -0.88 0 0zm-0.59 -1.17l0 -0.59 0 0 0.3 0 0 0 0 0 0 0 0 0.29 0 0 0 0 0 0 0.29 0 0 0 0 0 0 0.3 0 0 0 0 0 0 0 0 0 0 0.3 0.29 0 0 0 0 0 0 0 0 0 0.3 0 0 0 0 0 0 0 0 0 0.29 0 0 0 0 0 0 0.29 0 -0.59 0.29 0 0 0 0 0 0 0 -0.29 0 0 0 0 0 0 0 0 0 0 0 -0.29 0 0 0 0 -0.3 0 0 0 0 0 0 -0.3 0 0 0 0 0 0 0 0 0 0 0 0 0 0 0 -0.29 0 0 -0.29 0 0 0 0 0 0 0 0 0 0 0 0 0 0 0 0 0zm0 -0.59l0 0 0 0 0 0zm-4.98 0.3l-0.29 0 0 -0.3 0.29 0 0.29 0 0 0 0.3 0 0 0 0.29 0 0 0 0.29 0 0.3 0 0 0 0.29 0 0 0 0.3 0 0 0 0.29 0 0.29 0 0 0 0.3 0 0 0 0.29 0 0 0 0.29 0 0 0 0.3 0 0.29 0 0 0 0.29 0 0 0 0.3 0 0 0 0.29 0 0 0 0 0.59 0 0 -0.29 0 0 0 -0.3 0 0 0 -0.29 0 -0.29 0 0 0 -0.3 0 0 0 -0.29 0 0 0 -0.29 0 0 0 -0.3 0 0 0 -0.29 0 -0.29 0 0 0 -0.3 0 0 0 -0.29 0 0 0 -0.3 0 -0.29 0 0 0 -0.29 0 0 0 -0.3 0 0 0 -0.29 0 -0.29 0 0.29 -0.29 0 0zm-0.29 0l0 -0.3 0 0 0 0.3zm-48.07 0l0 0 0 0 0 0 0 0.29 0 -0.29zm0 -0.3l0.29 0 0 0.3 -0.29 -0.3zm-4.69 0.59l0.29 -0.59 0 0 0 0 0.3 0 0 0 0 0 0.29 0 0 0 0.3 0 0 0 0.29 0 0 0 0.29 0 0 0 0.3 0 0 0 0.29 0 0 0 0.29 0 0 0 0.3 0 0 0 0.29 0 0 0 0.29 0 0 0 0.3 0 0 0 0.29 0 0 0 0.3 0 0 0 0.29 0 0 0 0 0.59 0 0 -0.29 0 0 0 -0.3 0 0 0 -0.29 0 0 0 -0.3 0 0 0 -0.29 0 0 0 -0.29 0 0 0 -0.3 0 0 0 -0.29 0 0 0 -0.29 0 0 0 -0.3 0 0 0 -0.29 0 0 0 -0.29 0 0 0 -0.3 0 0 0 -0.29 0 0 0 -0.3 0 0 0 -0.29 0 0 0zm0.29 -0.59l0 0 0 0 0 0zm-1.46 1.76l-0.29 0 0 0 0 0 0 -0.29 0 0 0 -0.3 0 0 0 0 0 -0.29 0.29 0 0 0 0 0 0 -0.3 0 0 0 0 0 0 0.3 -0.29 0 0 0 0 0 0 0 0 0.29 -0.29 0 0 0 0 0 0 0 0 0.29 0 0 0 0 0 0 0 0.3 0 0 0 0 0 0.29 0 -0.29 0.59 0 0 0 0 0 0 0 0 -0.3 0 0 0 0 0 0 0 0 0 -0.29 0 0 0 0 0 0 0 0 0 0 0.29 0 0 -0.29 0 0 0 0 0 0 0 0 0 0 0.29 0 0 0 0 0 0 0 0.3 0 0 -0.3 0 0 0 0 0.29 0 0 0 0 0 0 0 0zm-9.38 46.6l-0.59 -0.29 0 0 0.29 -1.47 0.59 -1.46 0.3 -1.46 0.29 -1.46 0.3 -1.17 0.29 -1.46 0.29 -1.46 0.3 -1.46 0.29 -1.46 0.29 -1.46 0.3 -1.47 0.29 -1.46 0.3 -1.46 0.29 -1.46 0.29 -1.46 0.3 -1.46 0.29 -1.46 0.29 -1.47 0.3 -1.46 0.29 -1.46 0.29 -1.46 0.3 -1.46 0.29 -1.46 0.3 -1.17 0.29 -1.46 0.29 -1.46 0.3 -1.46 0.29 -1.47 0.29 -1.46 0.3 -1.46 0.29 -1.46 0.3 -1.46 0.29 0 -0.29 1.46 -0.3 1.46 -0.29 1.46 -0.3 1.46 -0.29 1.47 -0.29 1.46 -0.3 1.46 -0.29 1.46 -0.29 1.46 -0.3 1.46 -0.29 1.46 -0.3 1.47 -0.29 1.46 -0.29 1.46 -0.3 1.46 -0.29 1.46 -0.29 1.46 -0.3 1.46 -0.29 1.17 -0.29 1.46 -0.3 1.46 -0.29 1.47 -0.3 1.46 -0.29 1.46 -0.29 1.46 -0.3 1.46 -0.29 1.46 -0.29 1.46 -0.3 1.47 -0.29 1.46 -0.3 1.46 -0.29 1.46 0 0zm-0.59 1.17l0 0.59 -0.29 -0.3 0.29 0 0 0 0 0 0 -0.29 0 0 0 0 0 0 0 0 0 -0.29 0 0 0 0 0 0 0 0 0 -0.3 0 0 0 0 0 0 0 0 0 -0.29 0 0 0 0 0 0 0 0 0 0 0 -0.29 0 0 0 0 0 0 0 0 0 0 0 -0.3 0 0 0.59 0.3 0 0 0 0 0 0 0 0 0 0.29 0 0 0 0 0 0 0 0 0 0 0 0.29 -0.29 0 0 0 0 0 0 0 0 0 0 0.3 0 0 0 0 0 0 0 0 0 0.29 0 0 0 0 0 0 0 0 0 0.29 0 0 0 0 0 0 0 0 0 0.3 -0.3 -0.59 0 0zm0 0.59l-0.29 0 0 -0.3 0.29 0.3zm7.04 -0.3l-0.3 0.59 0 0 0 0 -0.29 0 -0.29 -0.29 0 0 -0.3 0 -0.29 0 0 0 -0.3 0 -0.29 0 -0.29 0 0 0 -0.3 0 -0.29 0 -0.29 0 0 0 -0.3 0 -0.29 0 0 0 -0.29 0 -0.3 0 -0.29 0 0 0 -0.3 0 -0.29 0 -0.29 0 0 0 -0.3 0 -0.29 0 -0.29 0 0 0 -0.3 0 -0.29 0 0 -0.59 0.29 0 0.3 0 0 0 0.29 0 0.29 0 0.3 0 0 0 0.29 0 0.29 0 0.3 0 0 0 0.29 0 0.3 0 0.29 0 0 0 0.29 0 0.3 0 0 0 0.29 0 0.29 0 0.3 0 0 0 0.29 0 0.29 0 0.3 0 0 0 0.29 0 0.3 0 0 0 0.29 0.29 0.29 0 0.3 0 0 0zm1.17 -1.76l0.29 0.29 0 0 0 0 0 0.29 0 0 0 0.3 0 0 0 0 0 0.29 0 0 0 0 0 0.29 -0.29 0 0 0 0 0 0 0.3 0 0 0 0 -0.3 0 0 0.29 0 0 0 0 0 0 -0.29 0 0 0 0 0 0 0 -0.29 0 0 0.3 0 0 -0.3 0 0 0 0 0 -0.29 0 0.29 -0.59 0 0 0 0 0 0 0.3 0 0 0 0 -0.29 0 0 0 0 0.29 0 0 0 0 0 0 0 0 0 0 0 0.29 0 0 0 0 -0.29 0 0 0 0 0 0 0 0 0 0 0 -0.3 0 0 0.3 0 0 0 0 -0.29 0 0 0 0 0 -0.29 0 0 0 -0.3 0 0 0 0zm5.57 -34.88l0.3 0.3 0 0 -0.3 0.88 0 1.17 -0.29 1.17 0 0.88 -0.3 1.17 0 1.17 -0.29 1.17 -0.29 0.88 0 1.17 -0.3 1.17 0 1.17 -0.29 0.88 -0.29 1.17 0 1.17 -0.3 0.88 0 1.17 -0.29 1.17 0 1.17 -0.29 0.88 -0.3 1.17 0 1.17 -0.29 1.17 0 0.88 -0.3 1.17 -0.29 1.17 0 0.88 -0.29 1.17 0 1.17 -0.3 1.17 0 0.88 -0.29 1.17 -0.29 1.17 -0.3 -0.29 0.3 -0.88 0 -1.17 0.29 -1.17 0 -1.17 0.29 -0.88 0.3 -1.17 0 -1.17 0.29 -0.88 0 -1.17 0.29 -1.17 0 -1.17 0.3 -0.88 0.29 -1.17 0 -1.17 0.3 -1.17 0 -0.88 0.29 -1.17 0 -1.17 0.29 -0.88 0.3 -1.17 0 -1.17 0.29 -1.17 0 -0.88 0.29 -1.17 0.3 -1.17 0 -1.17 0.29 -0.88 0 -1.17 0.29 -1.17 0 -0.88 0.3 -1.17 0.29 -1.17 0 0zm2.05 -12.6l0 -0.59 0.29 0.29 0 0.59 -0.29 0.29 0 0.59 0 0.29 0 0.3 0 0.59 -0.29 0.29 0 0.59 0 0.29 0 0.3 0 0.59 -0.3 0.29 0 0.59 0 0.3 0 0.29 -0.29 0.59 0 0.29 0 0.3 0 0.59 0 0.29 -0.29 0.59 0 0.3 0 0.29 0 0.59 0 0.29 -0.3 0.3 0 0.59 0 0.29 0 0.29 -0.29 0.59 0 0.29 0 0.59 -0.29 -0.29 0 -0.3 0 -0.59 0 -0.29 0.29 -0.3 0 -0.59 0 -0.29 0 -0.29 0 -0.59 0.29 -0.3 0 -0.59 0 -0.29 0 -0.3 0 -0.59 0.3 -0.29 0 -0.29 0 -0.59 0 -0.3 0 -0.59 0.29 -0.29 0 -0.29 0 -0.59 0 -0.29 0.29 -0.29 0 -0.59 0 -0.3 0 -0.59 0 -0.29 0.3 -0.59 0 -0.29 0 -0.3 0 -0.59 0.29 -0.29 0 0.29zm0 -0.59l0.29 0 0 0.3 -0.29 -0.3zm39.86 -34l0 0 0 0 0 0 0 0 0 0zm0.3 0l0 0.3 -0.3 0 0.3 -0.3zm-1.18 -4.39l0.59 0 0 0 0 0 0 0.29 0 0 0 0 0 0.29 0 0 0 0.3 0 0 0 0.29 0 0 0 0.3 0 0 0 0.29 0 0 0.29 0 0 0.29 0 0 0 0.3 0 0 0 0.29 0 0 0 0.29 0 0 0 0.3 0 0 0 0.29 0.29 0 0 0.3 0 0 0 0.29 0 0 0 0.29 -0.29 0 0 0 -0.29 -0.29 0 0 0 -0.29 0 0 0 -0.3 0 0 0 -0.29 0 0 0 -0.3 0 0 0 -0.29 0 0 -0.3 -0.29 0 0 0 -0.3 0 0 0 -0.29 0 0 0 0 0 -0.29 0 0 0 -0.3 0 0 0 -0.29 0 0 0 -0.3 -0.29 0 0 -0.29 0 0 0 -0.29 0 0 0 0 -0 0zm-1.17 -1.17l0 -0.59 0 0 0.29 0 0 0 0 0 0 0 0.29 0 0 0 0 0 0 0 0.3 0 0 0 0 0 0 0 0 0.29 0.29 0 0 0 0 0 0 0 0 0 0 0.3 0.3 0 0 0 0 0 0 0.29 0 0 0 0 0 0 0 0.29 0 0 0.29 0.3 0 0 0 0 0 0.29 -0.59 0 0 0 0 -0.29 0 0 0 0 0 -0.3 0 0 0 0 0 0 0 0 0 -0.29 0 0 0 0 -0.29 0 0 0 0 0 0 0 0 0 0 -0.29 0 0 0 0 0 0 -0.3 0 0 0 0 0 0 0 0 0 0 0 -0.29 0 0 0 0 0 0 0 -0.3 0 0 0 0 0zm0 0l0 0 0 0 0 0zm-19.35 0l0 -0.59 0 0 0.59 0 0.59 0 0.59 0 0.88 0 0.59 0 0.59 0 0.59 0 0.59 0 0.59 0 0.59 0 0.59 0 0.59 0 0.59 0 0.59 0 0.59 0 0.59 0 0.59 0 0.88 0 0.59 0 0.59 0 0.59 0 0.59 0 0.59 0 0.59 0 0.59 0 0.59 0 0.59 0 0.59 0 0.59 0 0.59 0 0.59 0 0.59 0 0 0.59 -0.59 0 -0.59 0 -0.59 0 -0.59 0 -0.59 0 -0.59 0 -0.59 0 -0.59 0 -0.59 0 -0.59 0 -0.59 0 -0.59 0 -0.59 0 -0.59 0 -0.88 0 -0.59 0 -0.59 0 -0.59 0 -0.59 0 -0.59 0 -0.59 0 -0.59 0 -0.59 0 -0.59 0 -0.59 0 -0.59 0 -0.59 0 -0.59 0 -0.88 0 -0.59 0 -0.59 0 -0.59 0 0 0zm-8.5 0l0 -0.59 0 0 0.3 0 0.29 0 0.29 0 0.3 0 0.29 0 0.3 0 0.29 0 0 0 0.29 0 0.3 0 0.29 0 0.29 0 0.3 0 0.29 0 0.29 0 0.3 0 0.29 0 0.3 0 0 0 0.29 0 0.29 0 0.3 0 0.29 0 0.29 0 0.3 0 0.29 0 0.3 0 0.29 0 0.29 0 0 0 0.3 0 0.29 0 0 0.59 -0.29 0 -0.3 0 0 0 -0.29 0 -0.29 0 -0.3 0 -0.29 0 -0.3 0 -0.29 0 -0.29 0 -0.3 0 -0.29 0 -0.29 0 0 0 -0.3 0 -0.29 0 -0.3 0 -0.29 0 -0.29 0 -0.3 0 -0.29 0 -0.29 0 -0.3 0 0 0 -0.29 0 -0.29 0 -0.3 0 -0.29 0 -0.3 0 -0.29 0 -0.29 0 -0.3 0 0 0zm-0.58 0.59l-0.59 -0.3 0 0 0.29 0 0 0 0 -0.29 0 0 0 0 0 0 0 0 0 0 0 0 0 -0.29 0 0 0.29 0 0 0 0 0 0 0 0 0 0 0 0 0 0 0 0.3 0 0 -0.3 0 0 0 0 0 0 0 0 0 0 0.29 0 0 0 0 0 0 0 0 0 0 0 0 0.59 0 0 0 0 0 0 0 0 0 0 0 0 0 0 0 0 -0.29 0 0 0 0 0 0 0 0 0.3 0 0 0 0 0 0 0 0 -0.3 0 0 0 0 0 0 0 0 0 0 0 0 0 0 0 0 0 0 0 0 0 0 0.29 0 0 0 0 0 0 0 0 0 0zm-0.59 -0.3l0 0 0.29 0 -0.29 0zm-0.59 4.98l0 0.59 0 -0.29 0 -0.3 0 0 0 -0.29 0 0 0 -0.29 0 0 0 -0.3 0 -0.29 0 0 0 -0.29 0 0 0.29 -0.3 0 0 0 -0.29 0 0 0 -0.3 0 -0.29 0 0 0 -0.29 0 0 0 -0.3 0 0 0.3 -0.29 0 -0.29 0 0 0 -0.3 0 0 0 -0.29 0 0 0 -0.3 0 0 0 -0.29 0.59 0.29 0 0 0 0.3 -0.3 0 0 0.29 0 0 0 0.3 0 0 0 0.29 0 0.29 0 0 0 0.3 0 0 0 0.29 -0.29 0 0 0.29 0 0 0 0.3 0 0.29 0 0 0 0.3 0 0 0 0.29 0 0 0 0.29 0 0 -0.3 0.3 0 0.29 0 0 0 0.29 0 0 0 0.3 0 0 -0.29 -0.3 0 0zm0 0.59l-0.3 0 0.3 -0.3 0 0.3zm31.65 -0.3l0.29 0 -0.29 0.3 -0.88 0 -0.88 0 -1.17 0 -0.88 0 -1.17 0 -0.88 0 -0.88 0 -1.17 0 -0.88 0 -1.17 0 -0.88 0 -0.88 0 -1.17 0 -0.88 0 -0.88 0 -1.17 0 -0.88 0 -0.88 0 -1.17 0 -0.88 0 -1.17 0 -0.88 0 -0.88 0 -1.17 0 -0.88 0 -0.88 0 -1.17 0 -0.88 0 -1.17 0 -0.88 0 -0.88 0 -1.17 0 0 -0.59 1.17 0 0.88 0 0.88 0 1.17 0 0.88 0 1.17 0 0.88 0 0.88 0 1.17 0 0.88 0 0.88 0 1.17 0 0.88 0 1.17 0 0.88 0 0.88 0 1.17 0 0.88 0 0.88 0 1.17 0 0.88 0 0.88 0 1.17 0 0.88 0 1.17 0 0.88 0 0.88 0 1.17 0 0.88 0 1.17 0 0.88 0 0.88 0 0 0.29 0 0zm0.3 0l0 0.3 -0.3 0 0.3 -0.3zm-17.59 4.11l0 0 0 0 0 0 0 0.29 0 -0.29zm0 -0.3l0.29 0 0 0.3 -0.29 -0.3zm-14.66 0.3l-0.59 0 0.29 -0.3 0.59 0 0.29 0 0.59 0 0.29 0 0.59 0 0.59 0 0.3 0 0.59 0 0.29 0 0.59 0 0.59 0 0.3 0 0.59 0 0.29 0 0.59 0 0.59 0 0.29 0 0.59 0 0.3 0 0.59 0 0.59 0 0.29 0 0.59 0 0.59 0 0.3 0 0.59 0 0.29 0 0.59 0 0.59 0 0.29 0 0.59 0 0.29 0 0 0.59 -0.29 0 -0.59 0 -0.29 0 -0.59 0 -0.59 0 -0.29 0 -0.59 0 -0.3 0 -0.59 0 -0.59 0 -0.29 0 -0.59 0 -0.59 0 -0.3 0 -0.59 0 -0.29 0 -0.59 0 -0.59 0 -0.29 0 -0.59 0 -0.3 0 -0.59 0 -0.59 0 -0.29 0 -0.59 0 -0.3 0 -0.59 0 -0.59 0 -0.29 0 -0.59 0 -0.29 0 -0.59 0 0.3 -0.29 0 0zm-0.59 0l0 -0.3 0.3 0 -0.3 0.3zm-0.59 5.86l0 0.59 -0.29 -0.3 0 -0.29 0 -0.29 0 0 0.29 -0.3 0 -0.29 0 0 0 -0.3 0 -0.29 0 0 0 -0.29 0 0 0 -0.3 0 -0.29 0.3 0 0 -0.29 0 -0.3 0 0 0 -0.29 0 -0.29 0 0 0 -0.3 0 -0.29 0 0 0.29 -0.3 0 0 0 -0.29 0 -0.29 0 0 0 -0.3 0 -0.29 0 0 0 -0.29 0.59 0 0 0.29 0 0.29 -0.29 0 0 0.3 0 0.29 0 0 0 0.29 0 0.3 0 0 0 0.29 0 0.3 0 0 -0.3 0.29 0 0.29 0 0 0 0.3 0 0 0 0.29 0 0.29 0 0 0 0.3 0 0.29 -0.29 0 0 0.29 0 0.3 0 0 0 0.29 0 0 0 0.3 0 0.29 0 0 0 0.29 -0.29 -0.29 -0 0zm0 0.58l-0.29 0 0 -0.29 0.29 0.29zm15.83 -0.29l0.29 0 -0.29 0.29 -0.3 0 -0.59 0 -0.59 0 -0.29 0 -0.59 0 -0.59 0 -0.3 0 -0.59 0 -0.59 0 -0.59 0 -0.29 0 -0.59 0 -0.59 0 -0.29 0 -0.59 0 -0.59 0 -0.59 0 -0.29 0 -0.59 0 -0.59 0 -0.29 0 -0.59 0 -0.59 0 -0.3 0 -0.59 0 -0.59 0 -0.59 0 -0.29 0 -0.59 0 -0.59 0 -0.3 0 -0.59 0 0 -0.59 0.59 0 0.3 0 0.59 0 0.59 0 0.29 0 0.59 0 0.59 0 0.59 0 0.3 0 0.59 0 0.59 0 0.29 0 0.59 0 0.59 0 0.29 0 0.59 0 0.59 0 0.59 0 0.29 0 0.59 0 0.59 0 0.29 0 0.59 0 0.59 0 0.59 0 0.3 0 0.59 0 0.59 0 0.29 0 0.59 0 0.59 0 0.3 0 0 0.3 0 0zm0.29 0l0 0.29 -0.29 0 0.29 -0.29zm-0.29 -5.86l0 -0.59 0.29 0.3 0 0.29 0 0.29 0 0 0 0.3 0 0 0 0.29 0 0.29 0 0 0 0.3 0 0.29 0 0 0 0.29 0 0.3 0 0 0 0.29 0 0.3 0 0 0 0.29 0 0 0 0.29 0 0.3 0 0 0 0.29 0 0.29 0 0 0 0.3 0 0.29 0 0 0 0.3 0 0.29 0 0 0 0.29 -0.29 0 0 -0.29 0 0 0 -0.29 0 -0.3 0 0 0 -0.29 0 -0.3 0 0 0 -0.29 0 -0.29 0 0 0 -0.3 0 -0.29 0 0 0 -0.29 0 0 0 -0.3 0 -0.29 0 0 0 -0.3 0 -0.29 0 0 0 -0.29 0 -0.3 0 0 0 -0.29 0 -0.29 0 0 0 -0.3 0 0 0 -0.29 0 -0.29 0 0.29 0 0zm0 -0.59l0.29 0 0 0.3 -0.29 -0.3zm19.05 6.45l0 0 0 0 0 0 -0.3 0 0.3 0zm0 0l0.29 0.29 -0.29 0 0 -0.29zm-1.17 -4.98l0.59 0 0 0 0 0 0 0.29 0 0 0 0.29 0 0 0 0.3 0 0 0 0.29 0 0 0.29 0.29 0 0 0 0.3 0 0 0 0.29 0 0.3 0 0 0 0.29 0 0 0 0.29 0 0 0 0.3 0.3 0 0 0.29 0 0 0 0.29 0 0 0 0.3 0 0.29 0 0 0 0.29 0 0 0 0.3 -0.3 0 0 0 0 -0.3 0 0 0 -0.29 0 -0.29 0 0 -0.29 -0.3 0 0 0 -0.29 0 0 0 -0.29 0 0 0 -0.3 0 0 0 -0.29 0 0 0 -0.29 -0.29 -0.3 0 0 0 -0.29 0 0 0 -0.3 0 0 0 -0.29 0 0 0 -0.29 0 0 0 -0.3 0 0 0 -0.29 0 0 -0.3 -0.29 0 0 0 0zm-0.88 -0.88l0 -0.59 0 0 0.29 0 0 0 0 0 0 0 0.29 0 0 0 0 0 0 0 0 0 0.3 0 0 0 0 0 0 0 0 0 0 0.3 0 0 0.29 0 0 0 0 0 0 0.29 0 0 0 0 0 0 0 0.29 0 0 0.29 0 0 0 0 0.3 0 0 0 0 0 0.29 0 0 -0.59 0 0 0 0 0 0 -0.29 0 0 0 0 0 0 0 -0.3 0 0 0 0 0 0 0 0 0 0 0 0 0 0 0 -0.29 0 0 0 0 -0.29 0 0 0 0 0 0 0 0 0 0 0 0 0 0 0 0 0 -0.29 0 0 0 0 0 0 0 0 0 -0.3 0 0 0 0 0zm-9.67 0l0 -0.59 0 0 0.29 0 0.29 0 0.3 0 0.29 0 0.3 0 0.29 0 0.29 0 0.3 0 0.29 0 0.29 0 0.3 0 0.29 0 0.3 0 0.29 0 0.29 0 0.59 0 0.3 0 0.29 0 0.29 0 0.3 0 0.29 0 0.29 0 0.3 0 0.29 0 0.3 0 0.29 0 0.29 0 0.3 0 0.29 0 0.29 0 0.3 0 0.29 0 0 0.59 -0.29 0 -0.3 0 -0.29 0 -0.29 0 -0.3 0 -0.29 0 -0.29 0 -0.3 0 -0.29 0 -0.3 0 -0.29 0 -0.29 0 -0.3 0 -0.29 0 -0.29 0 -0.3 0 -0.59 0 -0.29 0 -0.29 0 -0.3 0 -0.29 0 -0.3 0 -0.29 0 -0.29 0 -0.3 0 -0.29 0 -0.29 0 -0.3 0 -0.29 0 -0.3 0 -0.29 0 -0.29 0 0 0zm-4.1 -0.29l-0.3 0 0 -0.3 0.3 0 0 0 0.29 0 0 0 0 0 0.29 0 0 0 0.3 0 0 0 0.29 0 0 0 0.29 0 0 0 0.3 0 0 0 0 0 0.29 0 0 0 0.3 0 0 0 0.29 0 0 0 0.29 0 0 0 0 0 0.3 0 0 0 0.29 0 0 0 0.29 0 0 0 0.3 0 0 0.59 -0.3 0 0 0 -0.29 0 0 0 -0.29 0 0 0 -0.3 0 0 0 0 0 -0.29 0 0 0 -0.29 0 0 0 -0.3 0 0 0 -0.29 0 0 0 0 0 -0.3 0 0 0 -0.29 0 0 0 -0.29 0 0 0 -0.3 0 0 0 -0.29 0 0 0 0 0 -0.29 0 0 0 -0.3 0 0.3 -0.29 0 0zm-0.3 0l0 -0.3 0 0 0 0.3zm0 5.86l0 0.59 0 -0.3 0 -0.29 0 0 0 -0.29 0 -0.3 0 0 0 -0.29 0 -0.3 0 0 0 -0.29 0 0 0 -0.29 0 -0.3 0 0 0 -0.29 0 -0.29 0 0 0 -0.3 0 -0.29 0 0 0 -0.29 0 -0.3 0 0 0 -0.29 0 -0.3 0 0 0 -0.29 0 -0.29 0 0 0 -0.3 0 -0.29 0 0 0 -0.29 0.29 0 0 0.29 0 0 0 0.29 0 0.3 0 0 0 0.29 0 0.29 0 0 0 0.3 0 0.29 0 0 0 0.3 0 0.29 0 0 0 0.29 0 0.3 0 0 0 0.29 0 0.29 0 0 0 0.3 0 0.29 0 0 0 0.29 0 0 0 0.3 0 0.29 0 0 0 0.3 0 0.29 0 0 0 0.29 -0.29 -0.29 0 0zm0 0.58l0 0 0 -0.29 0 0.29zm15.83 -0.29l0.3 0 0 0.29 -0.59 0 -0.59 0 -0.3 0 -0.59 0 -0.59 0 -0.59 0 -0.29 0 -0.59 0 -0.59 0 -0.3 0 -0.59 0 -0.59 0 -0.29 0 -0.59 0 -0.59 0 -0.59 0 -0.3 0 -0.59 0 -0.59 0 -0.29 0 -0.59 0 -0.59 0 -0.29 0 -0.59 0 -0.59 0 -0.59 0 -0.3 0 -0.59 0 -0.59 0 -0.29 0 -0.59 0 -0.59 0 0 -0.59 0.59 0 0.59 0 0.29 0 0.59 0 0.59 0 0.3 0 0.59 0 0.59 0 0.59 0 0.29 0 0.59 0 0.59 0 0.29 0 0.59 0 0.59 0 0.3 0 0.59 0 0.59 0 0.59 0 0.29 0 0.59 0 0.59 0 0.3 0 0.59 0 0.59 0 0.29 0 0.59 0 0.59 0 0.59 0 0.3 0 0.59 0 0.59 0 -0.3 0.3 0 0zm0.3 0l0.29 0.29 -0.29 0 0 -0.29zm7.33 0l0 0 0 0 0 0 -0.3 0 0.3 0zm0 0l0 0.29 0 0 0 -0.29zm-0.3 -0.29l0.3 -0.3 0 0 0 0.3 0 0 0.29 0 0 0 0 0 0 0 0 0 0 0 0 0 -0.29 0 0 0 0 0 0 0 0 0 0 0 0 0 0 0 0 0.29 0 0 0 0 0 0 0 0 0 0 0 0 0 0 0 0 0 0 0 0 0 0 0 0 0 0 0 0 -0.3 0 0 0 0 0 0 0 0 0 0 -0.29 0 0 0 0 0 0 0 0 0 0 0 0 0 0 0 0 0 0 0 0 0 0 0 0 0 0 0 0 0 0 0 0 0 0 0 0 0 0 0 0 0 0 0 0 0 0 0 0 0 0 0 0 0 0 0 0zm0.3 -0.3l0 0 0 0 0 0zm-3.22 -14.65l0.29 -0.3 0 0 0 0.59 0.3 0.3 0 0.59 0 0.29 0.29 0.59 0 0.59 0 0.3 0.3 0.59 0 0.29 0 0.59 0.29 0.59 0 0.29 0 0.59 0.29 0.59 0 0.3 0 0.59 0.3 0.29 0 0.59 0 0.59 0.29 0.3 0 0.59 0 0.29 0.29 0.59 0 0.59 0 0.3 0.3 0.59 0 0.29 0 0.59 0 0.59 0.29 0.29 0 0.59 0 0.3 -0.29 0.29 0 -0.59 -0.3 -0.29 0 -0.59 0 -0.3 -0.29 -0.59 0 -0.59 0 -0.29 0 -0.59 -0.29 -0.3 0 -0.59 0 -0.59 -0.3 -0.29 0 -0.59 0 -0.29 -0.29 -0.59 0 -0.59 0 -0.3 -0.29 -0.59 0 -0.59 0 -0.29 -0.3 -0.59 0 -0.3 0 -0.59 -0.29 -0.59 0 -0.29 0 -0.59 -0.3 -0.29 0 -0.59 0 -0.59 -0.29 -0.29 0 -0.59 0 -0.29 0 0zm-0.59 -0.59l0.29 -0.59 0 0 0 0 0 0 0 0 0 0 0 0 0 0 0 0 0 0 0 0.29 0.3 0 0 0 0 0 0 0 0 0 0 0 0 0 0 0 0 0 0 0 0 0.3 0 0 0 0 0.29 0 0 0 0 0 0 0 0 0 0 0 0 0.29 0 0 0 0 0 0 -0.29 0.29 0 0 0 0 0 -0.29 0 0 0 0 0 0 0 0 -0.3 0 0 0 0 0 0 0 0 0 0 0 0 0 0 0 0 0 0 0 0 0 0 -0.29 0 0 0 0 0 0 0 0 0 0 0 0 0 0 0 0 0 0 0 0 0 0 0 0 -0.29 0 0 0 0 0zm0.29 -0.59l0 0 0 0 0 0zm-3.22 0.3l-0.59 0 0.3 -0.3 0 0 0.29 0 0 0 0 0 0.3 0 0 0 0.29 0 0 0 0 0 0.29 0 0 0 0 0 0.3 0 0 0 0 0 0.29 0 0 0 0.29 0 0 0 0 0 0.3 0 0 0 0 0 0.29 0 0 0 0 0 0.29 0 0 0 0 0 0.3 0 0 0 0.29 0 -0.29 0.59 0 0 0 0 -0.3 0 0 0 0 0 -0.29 0 0 0 0 0 -0.29 0 0 0 0 0 -0.3 0 0 0 0 0 -0.29 0 0 0 -0.29 0 0 0 0 0 -0.3 0 0 0 0 0 -0.29 0 0 0 0 0 -0.29 0 0 0 -0.3 0 0 0 0 0 -0.29 0 0 0 0.29 -0.29 0 0zm-0.58 0l0 -0.3 0.29 0 -0.29 0.3zm2.64 15.83l0 0.59 0 -0.3 -0.3 -0.59 0 -0.29 0 -0.59 0 -0.59 -0.29 -0.3 0 -0.59 0 -0.59 0 -0.29 -0.29 -0.59 0 -0.59 0 -0.59 0 -0.29 -0.3 -0.59 0 -0.59 0 -0.3 -0.29 -0.59 0 -0.59 0 -0.29 0 -0.59 -0.3 -0.59 0 -0.59 0 -0.3 0 -0.59 -0.29 -0.59 0 -0.59 0 -0.29 0 -0.59 -0.29 -0.59 0 -0.3 0 -0.59 -0.3 -0.59 0 -0.59 0.59 0 0 0.59 0 0.3 0 0.59 0.3 0.59 0 0.59 0 0.29 0 0.59 0.29 0.59 0 0.59 0 0.3 0.29 0.59 0 0.59 0 0.29 0 0.59 0.3 0.59 0 0.59 0 0.29 0 0.59 0.29 0.59 0 0.29 0 0.59 0 0.59 0.3 0.29 0 0.59 0 0.59 0.29 0.59 0 0.3 0 0.59 0 0.59 0.29 0.29 0 0.59 0 0.59 -0.29 -0.29 0 0zm0 0.58l0 0 0 -0.29 0 0.29zm4.39 -0.29l0.3 0 0 0.29 -0.3 0 0 0 -0.29 0 0 0 -0.29 0 0 0 -0.3 0 0 0 -0.29 0 0 0 0 0 -0.3 0 0 0 -0.29 0 0 0 -0.29 0 0 0 -0.3 0 0 0 -0.29 0 0 0 -0.29 0 0 0 -0.3 0 0 0 -0.29 0 0 0 -0.29 0 0 0 -0.3 0 0 0 -0.29 0 0 -0.59 0.29 0 0 0 0.3 0 0 0 0.29 0 0 0 0.29 0 0 0 0.3 0 0 0 0.29 0 0 0 0.29 0 0 0 0.3 0 0 0 0.29 0 0 0 0.29 0 0 0 0.3 0 0 0 0 0 0.29 0 0 0 0.3 0 0 0 0.29 0 0 0 0.29 0 0 0 0.3 0 -0.3 0.3 0 0zm0.3 0l0 0.29 0 0 0 -0.29zm-45.14 0l0 0 0 0 0 0 -0.29 0 0.29 0zm0.29 0l0 0.29 -0.29 0 0.29 -0.29zm2.35 -15.83l0 -0.59 0 0.29 0 0.59 0 0.59 0 0.3 -0.29 0.59 0 0.59 0 0.59 -0.3 0.29 0 0.59 0 0.59 0 0.59 -0.29 0.3 0 0.59 0 0.59 0 0.29 -0.29 0.59 0 0.59 0 0.59 0 0.3 -0.3 0.59 0 0.59 0 0.29 -0.29 0.59 0 0.59 0 0.59 0 0.29 -0.3 0.59 0 0.59 0 0.29 0 0.59 -0.29 0.59 0 0.29 0 0.59 -0.59 0 0.29 -0.59 0 -0.59 0 -0.29 0 -0.59 0.3 -0.59 0 -0.59 0 -0.3 0.29 -0.59 0 -0.59 0 -0.29 0 -0.59 0.29 -0.59 0 -0.29 0 -0.59 0 -0.59 0.3 -0.59 0 -0.3 0 -0.59 0 -0.59 0.29 -0.29 0 -0.59 0 -0.59 0.3 -0.59 0 -0.3 0 -0.59 0 -0.59 0.29 -0.59 0 -0.29 0 -0.59 0 -0.59 0.29 -0.3 0 -0.59 0.3 0.3 0 0zm0 -0.59l0.29 0 -0.29 0.29 0 -0.29zm-3.22 0.59l0 -0.59 0 0 0.29 0 0 0 0 0 0.3 0 0 0 0 0 0 0 0.29 0 0 0 0 0 0.3 0 0 0 0 0 0.29 0 0 0 0 0 0.29 0 0 0 0 0 0.3 0 0 0 0 0 0.29 0 0 0 0 0 0.29 0 0 0 0 0 0.3 0 0 0 0 0 0.29 0 0 0.59 -0.29 0 0 0 0 0 -0.3 0 0 0 0 0 -0.29 0 0 0 0 0 -0.29 0 0 0 0 0 -0.3 0 0 0 0 0 -0.29 0 0 0 0 0 -0.29 0 0 0 0 0 -0.3 0 0 0 0 0 -0.29 0 0 0 0 0 -0.3 0 0 0 0 0 0 0 -0.29 0 0 0zm0 -0.59l0 0 0.29 0 -0.29 0zm-0.88 1.46l-0.3 -0.29 0 0 0 0 0 0 0 0 0 -0.29 0 0 0.3 0 0 0 0 -0.3 0 0 0 0 0 0 0 0 0 -0.29 0 0 0 0 0.29 0 0 0 0 0 0 0 0 -0.29 0 0 0 0 0.29 0 0 0 0 0 0 0 0 0 0.3 0 0 0 0 0 0 0 0 0 0 0.59 0 0 0 0 0 0 0 0 -0.3 0 0 0 0 0 0 0 0 0 0 0 0 0 0 0 0 0 0 0 -0.29 0 0 0 0 0.29 0 0 0 0 0 0 0 0 0 0 0 0 0 0 0 0.29 0 0 0 0 0 0 0 0 0 0 0 0.3 -0.29 0 0 0 0 -0zm-2.35 11.72l-0.29 0 0 0 0 -0.29 0 -0.59 0.29 -0.3 0 -0.29 0 -0.29 0.29 -0.59 0 -0.3 0 -0.29 0 -0.59 0.3 -0.3 0 -0.29 0 -0.29 0 -0.59 0.29 -0.3 0 -0.29 0 -0.29 0 -0.59 0.3 -0.29 0 -0.29 0 -0.3 0 -0.59 0.29 -0.29 0 -0.29 0 -0.3 0 -0.59 0.29 -0.29 0 -0.3 0 -0.59 0 -0.29 0.3 -0.29 0 -0.3 0 -0.59 0.29 0.3 0 0.29 0 0.29 0 0.59 -0.29 0.3 0 0.29 0 0.59 0 0.3 -0.3 0.29 0 0.29 0 0.59 0 0.3 -0.29 0.29 0 0.29 0 0.59 0 0.3 -0.29 0.29 0 0.3 0 0.59 0 0.29 -0.3 0.29 0 0.59 0 0.3 0 0.29 -0.29 0.3 0 0.59 0 0.29 0 0.29 -0.3 0.3 0 0.59 0 0.29 0 0.29 -0.29 0.3 0 0 0 0zm-0.88 2.93l0 0.59 0 -0.3 0 -0.29 0 0 0 0 0 -0.29 0 0 0 0 0 -0.3 0 0 0 -0.29 0 0 0.29 0 0 -0.3 0 0 0 0 0 -0.29 0 0 0 0 0 -0.29 0 0 0 0 0 -0.3 0 0 0 0 0 -0.29 0 0 0.3 0 0 -0.29 0 0 0 0 0 0 0 -0.3 0 0 0.29 0 0 0.3 0 0 0 0 0 0.29 0 0 0 0 0 0.29 0 0 0 0 0 0.3 0 0 0 0 -0.29 0.29 0 0 0 0 0 0.29 0 0 0 0 0 0.3 0 0 0 0 0 0.29 0 0 0 0 0 0.3 0 0 -0.3 0 0 0.29 0 0 0 0.29 0 0 0 0 -0.29 -0.29 0 0zm0 0.58l-0.29 0 0.29 -0.29 0 0.29zm4.4 -0.29l0.59 0 -0.3 0.29 0 0 -0.29 0 0 0 -0.29 0 0 0 -0.3 0 0 0 -0.29 0 0 0 -0.29 0 0 0 -0.3 0 0 0 -0.29 0 0 0 -0.3 0 0 0 -0.29 0 0 0 -0.29 0 0 0 -0.3 0 0 0 -0.29 0 0 0 -0.29 0 0 0 -0.3 0 0 0 -0.29 0 0 0 -0.3 0 0 -0.59 0.3 0 0 0 0.29 0 0 0 0.3 0 0 0 0.29 0 0 0 0.29 0 0 0 0.3 0 0 0 0.29 0 0 0 0.29 0 0 0 0.3 0 0 0 0.29 0 0 0 0.3 0 0 0 0.29 0 0 0 0.29 0 0 0 0.3 0 0 0 0.29 0 0 0 0.29 0 0 0 -0.29 0.3 0 0zm0.58 0l0 0.29 -0.29 0 0.29 -0.29z"/>
    </g>
    <g>
     <path class="fil1" d="M64.36 47.94c0.88,0 1.76,0 1.76,1.46 0,0.59 -0.29,2.06 -0.59,2.06 -0.59,0.29 -1.76,0.29 -2.64,0 -0.29,-0.3 -0.29,-1.47 -0.29,-2.35 0,-1.17 0.88,-1.17 1.76,-1.17l-0 0z"/>
     <path id="_1_91" class="fil1" d="M66.41 49.12l-0.59 0.29 0 0 0 -0.29 0 0 0 0 0 -0.29 0 0 0 0 0 0 0 0 0 -0.3 -0.3 0 0 0 0 0 0 0 0 0 0 0 0 -0.29 -0.29 0 0 0 0 0 0 0 0 0 -0.3 0 0 0 0 0 0 0 -0.29 0 0 0 0 0 0 0 -0.29 0 0 0 0 0 0 -0.59 0 0 0 0 0.29 0 0 0 0 0 0 0 0.29 0 0 0 0 0 0 0 0.3 0 0 0 0 0 0.29 0 0 0 0 0.29 0 0 0 0 0.3 0 0 0 0 0 0 0.3 0.29 0 0 0 0 0.29 0 0 0 0 0 0.29 0 0 0.29 0 0 0.3 0 0 0 0 0 0zm-0.59 0.3l0 0 0 0 0 0zm0 2.34l-0.3 -0.59 0 0 0 0 0 0 0 0 0 0 0 0 0 0 0 0 0 -0.29 0.3 0 0 0 0 0 0 0 0 -0.3 0 0 0 0 0 0 0 -0.29 0 0 0 0 0 0 0 -0.29 0 0 0 0 0 0 0 -0.3 0 0 0 0 0 0 0 -0.29 0 0 0 0 0 0 0.59 -0.29 0 0.29 0 0 0 0 0 0.29 0 0 0 0 0 0 0 0.3 0 0 0 0 0 0.29 0 0 0 0 -0.3 0.29 0 0 0 0 0 0.3 0 0 0 0 0 0 0 0.29 0 0 0 0 0 0 0 0.3 -0.29 0 0 0 0 0 0 0 0 0.29 0 0 0 0 0 0 0 0zm0 0l0 0 -0.3 0 0.3 0zm-2.93 0l0.3 -0.59 0 0 0 0 0 0 0 0 0.29 0 0 0 0 0 0 0 0.29 0 0 0 0 0 0.3 0 0 0 0 0 0 0.3 0.29 0 0 0 0 0 0 0 0.29 0 0 -0.3 0 0 0.3 0 0 0 0 0 0 0 0.29 0 0 0 0 0 0 0 0.3 0 0 0 0 0 0.29 0.59 -0.29 0 0 0 0 0 -0.3 0 0 0 0 0 0 0 -0.29 0 0 0 0 0 -0.3 0 0 0 0 0.3 -0.29 0 0 0 0 0 0 0 -0.29 0 0 -0.3 0 0 -0.3 0 0 0 0 0 0 0 -0.29 0 0 0 0 0 -0.29 0 0 0 0 0 0 0 -0.3 0 0 0zm0 0l0 0 0 0 0 0zm-0.59 -2.64l0.59 0.29 0 0 0 0 0 0 0 0 0 0 0 0.3 0 0 0 0 0 0 0 0.29 0 0 0 0 0 0 0 0.3 0 0 0 0 0 0.29 0 0 0 0 0 0 0 0 0 0.29 0 0 0 0 0 0 0 0 0 0.3 0.3 0 0 0 0 0 0 0 0 0 0 0 -0.3 0.59 0 0 0 -0.3 0 0 0 0 -0.29 0 0 0 0 -0.29 0 0 0 0 0 0 0 0 0 -0.29 0 0 0 0 0 -0.3 0 0 -0.3 0 0 -0.29 0 0 0 0 0 -0.3 0 0 0 0 0 0 0 -0.29 0 0 0 0 0 -0.29 0 0 0 0 0 -0.3 0 0 0 0 0 0zm2.05 -1.46l0 0.59 0 0 0 0 -0.29 0 0 0 0 0 0 0 -0.29 0 0 0 0 0 0 0 0 0 -0.3 0 0 0 0 0 0 0 0 0 -0.29 0 0 0.29 0 0 0 0 0 0 0 0 -0.29 0 0 0 0 0.3 0 0 0 0 0 0 0 0 0 0.29 0 0 0 0 0 0.29 -0.59 -0.29 0 0 0 -0.29 0 0 0.3 0 0 -0.3 0 0 0 -0.29 0 0 0 0 0.29 0 0 -0.29 0 0 0 0 0 0 0.3 0 0 0 0 -0.3 0 0 0.29 0 0 0 0 0 0 0 0.29 0 0 0 0 0 0 0 0.3 0 0 0 0 0 0 0 0.29 0 0 0 0 0 0 0zm0 0.59l0 0 0 0 0 0z"/>
    </g>
    <g>
     <path class="fil1" d="M41.79 47.94c0.88,0 1.76,0 1.76,1.76 0,0.59 -0.3,1.76 -0.59,1.76 -0.88,0.29 -1.76,0.29 -2.64,-0.29 -0.29,0 -0.59,-1.17 -0.29,-2.06 0,-1.17 0.88,-1.17 1.76,-1.17l0 -0z"/>
     <path id="_1_92" class="fil1" d="M43.84 49.41l-0.59 0.29 0 0 0 -0.29 0 0 0 -0.3 0 0 0 0 0 0 0 -0.29 0 0 0 0 0 0 -0.29 -0.29 0 0 0 0 0 0 0 0 0 0 -0.3 0 0 -0.3 0 0 0 0 0 0 -0.29 0 0 0 0 0 0 0 -0.29 0 0 0 0 0 0 0 -0.3 0 0 0 0 0 0 -0.59 0 0 0 0 0.3 0 0 0 0 0 0 0 0.29 0 0 0 0 0 0.29 0 0 0 0 0 0 0 0.3 0.3 0 0 0 0 0 0 0.29 0 0 0 0 0.29 0 0 0.3 0 0 0.29 0 0 0 0 0 0.3 0 0 0 0 0.29 0.29 0 0 0 0.29 0 0 0 0 0 0zm-0.88 2.34l0 -0.59 0 0 0 0 0 0 0 0 0 0 0 0 0 0 0 0 0 0 0 0 0 -0.29 0 0 0 0 0.29 0 0 0 0 -0.3 0 0 0 0 0 0 0 -0.29 0 0 0 0 0 0 0 -0.29 0 0 0 0 0 0 0 0 0 -0.3 0 0 0 0 0 0 0 0 0.59 -0.29 0 0.29 0 0 0 0 0 0.3 0 0 0 0 0 0 0 0.29 0 0 -0.29 0 0 0.29 0 0 0 0 0 0 0 0.3 0 0 0 0 0 0.29 0 0 0 0 0 0 -0.3 0.3 0 0 0 0 0 0 0 0 0 0.29 0 0 0 0 -0.29 0 0 0 0 0 0 0 0 0zm-2.64 -0.29l0 -0.59 0 0 0 0.29 0.29 0 0 0 0 0 0 0 0.29 0 0 0 0 0 0.3 0 0 0 0 0 0 0 0.29 0 0 0 0 0 0 0 0.29 0 0 0.29 0 0 0.3 0 0 0 0 0 0 0 0.29 -0.29 0 0 0 0 0 0 0.3 0 0 0 0 0 0.29 0 0 0 0 0.59 0 0 -0.29 0 0 0 0 0 0 0 -0.3 0 0 0 0 0 -0.29 0.29 0 0 0 0 0 0 -0.3 0 0 0 0 -0.29 -0.29 0 0 0 0 0 -0.29 0 0 0 0 0 0 0 -0.3 0 0 0 0 0 -0.29 0 0 0 0 0 0 0 -0.29 0 0 -0.29 0 0 0 0zm0 -0.59l0 0 0 0 0 0zm-0.59 -1.76l0.29 0.29 0 0 0 0 0 0 0 0 0 0 0 0.3 0 0 0 0 0 0 0 0.29 0 0 0 0 0 0 0 0.3 0 0 0.3 0 0 0 0 0.29 0 0 0 0 0 0 0 0 0 0.29 0 0 0 0 0 0 0 0 0 0 0 0 0 0 0 0 0 0 0 0 0 0.59 0 0 -0.3 0 0 0 0 0 0 0 0 -0.29 0 0 0 0 0 0 0 -0.29 0 0 -0.29 0 0 0 0 -0.3 0 0 0 0 0 0 0 -0.29 0 0 0 0 0 -0.3 0 0 0 0 0 -0.29 0 0 0 0 0 -0.29 0 0 0 0 0 0 0 -0.3 0 0 0 0 0 0zm0 0l0 0 0 0 0 0zm2.05 -1.46l0 0.59 0 0 -0.29 0 0 0 0 0 0 0 0 0 -0.3 0 0 0 0 0 0 0 -0.29 0 0 0 0 0 0 0 0 0 -0.29 0 0 0 0 0.29 0 0 0 0 0 0 -0.3 0 0 0 0 0 0 0 0 0.3 0 0 0 0 0 0 0 0.29 0 0 -0.29 0 0 0.29 -0.3 -0.29 0 0 0 -0.29 0 0 0 -0.3 0.3 0 0 0 0 -0.29 0 0 0 0 0 0 0.29 -0.29 0 0 0 0 0 0 0.3 0 0 0 0 -0.3 0 0 0 0 0.29 0 0 0 0 0 0 0 0.29 0 0 0 0 0 0.3 0 0 0 0 0 0 0 0.29 0 0 0 0 0 0 0zm0 0.59l0 0 0 0 0 0z"/>
    </g>
    <g>
     <path class="fil1" d="M52.93 47.94c0.88,0 1.76,0 2.05,1.46 0,0.59 -0.29,2.06 -0.59,2.06 -0.88,0.29 -1.76,0.29 -2.64,0 -0.29,-0.3 -0.59,-1.47 -0.59,-2.06 0.3,-1.46 1.17,-1.46 1.76,-1.46z"/>
     <path id="_1_93" class="fil1 str1" d="M54.98 49.41l-0.29 0 0 0 0 0 0 0 0 -0.3 0 0 0 0 0 -0.29 -0.3 0 0 0 0 0 0 -0.29 0 0 0 0 0 0 -0.29 0 0 0 0 0 0 -0.3 0 0 0 0 -0.29 0 0 0 0 0 0 0 0 0 -0.3 0 0 0 0 0 0 0 -0.29 0 0 0 0 0 -0.29 0 0 -0.59 0.29 0 0 0 0 0 0.29 0 0 0 0 0 0 0 0.3 0 0 0 0 0 0 0 0.29 0 0 0 0 0 0 0.3 0.29 0 0 0 0 0 0 0 0.3 0.29 0 0 0 0 0 0 0 0.29 0.29 0 0 0 0 0.3 0 0 0 0.29 0 0 0 0.29 0 0 0 0 0 0zm-0.29 0l0 0 0 -0.59 0 0.59zm-0.3 2.34l0 -0.59 0 0 0 0 0 0 0 0 0 0 0 0 0 0 0 0 0 0 0 -0.29 0 0 0 0 0 0 0 0 0 -0.3 0 0 0 0 0 0 0.3 -0.29 0 0 0 0 0 0 0 -0.29 0 0 0 0 0 0 0 -0.3 0 0 0 0 0 0 0 0 0 -0.29 0 0 0.29 0 0 0 0 0.29 0 0 0 0 0 0 0 0.3 0 0 0 0 0 0.29 0 0 0 0 0 0.29 0 0 0 0 0 0 0 0.3 0 0 0 0 0 0 -0.29 0.29 0 0 0 0 0 0 0 0.3 0 0 0 0 0 0 0 0 -0.3 0.29 0 0 0 0 0 0 0 0 0 0zm-2.64 0l0 -0.59 0 0 0 0 0 0 0.3 0 0 0 0 0 0.29 0 0 0 0 0 0 0 0.29 0 0 0 0 0 0 0 0.3 0 0 0 0 0 0.29 0.3 0 0 0 0 0 -0.3 0.29 0 0 0 0 0 0 0 0.3 0 0 0 0 0 0.29 0 0 0 0 0 0 0 0.3 0 0 0.59 0 0 -0.3 0 0 0 0 0 -0.29 0 0 0 0 0 0 0 -0.3 0 0 0 0 0 -0.29 0 0 0.3 0 0 0 0 -0.29 -0.3 0 0 0 0 -0.3 0 0 0 0 0 -0.29 0 0 0 0 0 0 0 -0.29 0 0 0 0 0 -0.3 0 0 0 0 0 0 0 0 0zm0 -0.59l0 0 0 0 0 0zm-0.59 -2.05l0.3 0.29 0 0 0 0 0 0 0 0 0 0.3 0 0 0 0 0 0 0 0.29 0 0 0 0 0 0 0 0.3 0 0 0 0 0 0 0 0.29 0 0 0 0 0 0 0 0.29 0.29 0 0 0 0 0 0 0 0 0 0 0 0 0.3 0 0 0 0 0 0 0 0 0 0 0 0.59 -0.29 0 0 -0.3 0 0 0 0 0 0 0 0 0 -0.29 -0.3 0 0 0 0 0 0 0 0 -0.29 0 0 0 0 0 -0.3 0 0 0 0 0 0 0 -0.29 0 0 0 0 0 -0.3 0 0 0 0 0 -0.29 0 0 0 0 0 0 0 -0.29 0 0 0 0 0 -0.3 0 0 0 0zm1.76 -1.46l0 0.59 0 0 0 0 0 0 0 0 -0.29 0 0 0 0 0 0 0 -0.3 0 0 0 0 0 0 0 0 0 -0.29 0 0 0 0 0 0 0 0 0.29 -0.29 0 0 0 0 0 0 0 0 0 0 0 0 0.3 0 0 -0.3 0 0 0 0 0.29 0 0 0 0 0 0 0 0.29 -0.29 -0.29 0 0 0 0 0 -0.29 0 0 0 -0.3 0 0 0 0 0.29 -0.29 0 0 0 0 0 0 0 -0.29 0.3 0 0 0 0 0 0 0 0.29 -0.3 0 0 0 0 0 0 0.29 0 0 0 0 0 0 0 0.3 0 0 0 0 0 0 0 0.29 0 0 0 0 0 0 0 0 0 0 0zm0 0.59l0 0 0 0 0 0z"/>
    </g>
    <g>
     <path class="fil1" d="M75.79 47.94c1.17,0 1.76,0.59 1.76,1.76 0,1.17 -0.3,2.05 -1.17,2.05 -0.3,0.3 -0.88,0.3 -1.17,0 -0.88,0 -1.46,-0.59 -1.46,-2.05 0,-1.17 0.59,-1.76 1.46,-1.76 0.29,0 0.29,0 0.59,0l0 0z"/>
     <path id="_1_94" class="fil1" d="M77.84 49.7l-0.59 0 0 0 0 -0.29 0 0 0 0 0 0 0 -0.3 0 0 0 0 0 0 0 -0.29 0 0 0 0 -0.3 0 0 0 0 -0.29 0 0 0 0 0 0 0 0 -0.29 0 0 0 0 0 0 -0.3 -0.29 0 0 0 0 0 0 0 -0.3 0 0 0 0 0 -0.29 0 0 0 0 0 0 -0.59 0 0 0 0 0.29 0 0 0 0.3 0 0 0 0 0 0 0 0.29 0 0 0.3 0 0 0.29 0 0 0 0 0 0 0 0.3 0 0 0.29 0 0 0 0 0 0 0.29 0.29 0 0 0 0 0 0.3 0 0 0 0 0 0.29 0 0 0.3 0 0 0.29 0 0 0 0.3 0 0 0 0zm-1.46 2.35l0 -0.59 0 0 0 0 0 0 0.29 0 0 0 0 0 0 0 0 0 0.29 0 0 -0.3 0 0 0 0 0 0 0 0 0 0 0 -0.29 0.3 0 0 0 0 0 0 -0.3 0 0 0 0 0 0 0 -0.29 0 0 0 0 0 0 0 -0.29 0 0 0 0 0 -0.3 0 0 0 0 0.59 0 0 0 0 0 0 0.3 0 0 0 0.29 0 0 0 0 0 0.29 -0.29 0 0 0 0 0.3 0 0 0 0 0 0.29 0 0 0 0 0 0.3 -0.3 0 0 0 0 0 0 0.29 0 0 -0.29 0 0 0 0 0 0 0.29 0 0 -0.3 0 0 0 0 0 -0.29 0 0 0 0 0 0 0zm-1.17 0l0 -0.59 0 0 0 0 0 0 0 0 0 0 0 0 0.29 0 0 0 0 0 0 0 0 0.29 0 0 0 0 0 0 0.3 0 0 0 0 0 0 0 0 0 0 -0.29 0 0 0 0 0.29 0 0 0 0 0 0 0 0 0 0 0 0 0 0.29 0 0 0 0 0 0 0 0 0.59 0 0 0 0 0 0 0 0 -0.29 0 0 0 0 0 0 0 0 0 0 0 0 0 -0.29 0 0 0 0 0.29 0 0 0 0 0 0 0 0 -0.3 0 0 0 0 0 0 0 0 -0.29 0 0 0 0 -0.29 0 0 0 0 0 0 0 0 0 0 0 0 0 0 0zm0 0l0 0 0 0 0 0zm-1.76 -2.35l0.59 0 0 0 0 0.29 0 0 0 0.3 0 0 0 0 0 0 0 0.29 0 0 0 0 0 0 0 0.3 0 0 0 0 0.3 0 0 0 0 0.29 0 0 0 0 0 0 0 0 0 0 0.29 0.29 0 0 0 0 0 0 0 0 0.29 0 0 0 0 0 0 0 0 0 0.3 0 0 0.59 -0.3 0 0 0 0 0 -0.29 0 0 0 0 0 0 0 -0.29 0 0 -0.29 0 0 0 0 0 0 -0.3 0 0 0 0 -0.29 0 0 0 0 -0.29 0 0 -0.3 0 0 0 0 0 -0.29 0 0 0 0 0 -0.3 0 0 0 -0.29 0 0 -0.3 0 0 -0.29 0 0 0 -0.3 0 0 0 0zm1.76 -2.05l0 0.59 0 0 0 0 -0.29 0 0 0 0 0 0 0 0 0 -0.3 0 0 0 0 0.29 0 0 0 0 0 0 -0.29 0 0 0 0 0 0 0 0 0.3 0 0 0 0 0 0 -0.3 0 0 0.29 0 0 0 0 0 0 0 0.29 0 0 0 0 0 0 0 0.3 0 0 0 0 -0.59 0 0 0 0.3 0 0 -0.3 0 0 0 -0.29 0 0 0 0 0 -0.29 0 0 0 0 0 -0.3 0 0 0.29 0 0 -0.29 0 0 0 0 0 0 0 0 0.3 -0.29 0 0 0 0 0 0 0 0 0.29 0 0 -0.3 0 0 0.29 0 0 0 0 0 0 0 0.3 0 0 0 0 0 0 0zm0 0.59l0 0 0 0 0 0zm0.59 -0.59l0 0.59 0 0 0 0 0 0 -0.3 0 0 0 0 0 0 0 0 0 0 0 0 0 0 0 0 0 0 0 0 0 0 0 0 0 0 0 0 0 0 0 0 0 0 0 0 0 -0.29 0 0 0 0 0 0 0 0 0 0 0 0 0 0 0 0 0 0 0 0 0 0 -0.59 0 0 0 0 0 0 0 0 0 0 0 0 0 0 0 0 0 0 0 0 0.29 0 0 0 0 0 0 0 0 0 0 0 0 0 0 0 0 0 0 0 0 0 0 0 0 0 0 0 0 0 0 0 0 0 0 0 0 0 0.3 0 0 0 0 0 0 0zm0 0.59l0 0 0 0 0 0z"/>
    </g>
    <g>
     <path class="fil1" d="M86.93 47.65c0.59,0.29 1.17,0.59 1.76,1.17 0.59,0.88 0,2.64 -0.88,2.93 -0.59,0.3 -0.88,0.3 -1.46,0 -0.88,0 -1.46,-0.88 -1.17,-2.05 0,-1.17 0.59,-1.76 1.17,-1.76 0.29,0 0.29,0 0.59,0 0,0 0,-0.29 0,-0.29l0 0z"/>
     <path id="_1_95" class="fil1" d="M88.69 48.53l-0.29 0.59 0 0 0 -0.29 0 0 0 0 0 0 0 0 -0.29 0 0 0 0 0 0 -0.29 0 0 0 0 0 0 -0.3 0 0 0 0 0 0 0 0 0 0 -0.3 -0.29 0 0 0 0 0 0 0 0 0 0 0 -0.29 0 0 0 0 0 0 -0.29 0 0 -0.3 0 0 0 0 0 0.3 -0.59 0 0 0 0 0 0.29 0 0 0 0 0.29 0 0 0 0 0 0 0 0 0 0.29 0 0 0 0 0 0 0.3 0 0 0 0 0.3 0 0 0 0 0 0 0 0 0 0.29 0.29 0 0 0 0 0 0 0 0 0 0 0.29 0 0 0.29 0 0 0 0 0 0 0 0zm0 0l0 0 -0.29 -0.29 0.29 0.29zm-0.88 3.52l0 -0.59 0 0 0 0 0 0 0.29 0 0 0 0 -0.3 0 0 0.3 0 0 0 0 0 0 -0.29 0 0 0 0 0 -0.3 0.29 0 0 0 0 0 0 -0.29 0 0 0 0 0 -0.29 0 0 0 0 0 -0.3 0 0 0 0 0 -0.29 0 0 0 0 0 -0.29 -0.29 0 0 0 0 0 0.29 -0.59 0 0.29 0.3 0 0 0 0 0.29 0 0 0 0.3 0 0 0 0.29 0 0 0 0.29 0 0 0 0 0 0.3 0 0 0 0.29 0 0 0 0.3 0 0 0 0 0 0.29 -0.3 0 0 0.29 0 0 0 0 -0.29 0.3 0 0 0 0 0 0 -0.3 0.29 0 0 0 0 -0.29 0 0 0 0 0zm-1.46 0l0 -0.59 0 0 0 0 0 0 0.29 0 0 0 0 0 0 0 0 0 0 0 0.3 0 0 0 0 0 0 0 0 0 0 0 0 0 0.29 0 0 0 0 0 0 0 0 0 0 0 0.29 0 0 0 0 0 0 0 0 0 0 0 0 0 0.3 0 0 0 0 0 0 0 0 0.59 0 0 0 0 0 0 0 0 -0.3 0 0 0 0 0 0 0 0 0 0 0 -0.29 0 0 0 0 0 0 0 0 0 0 0 -0.29 0 0 0 0 0 0 0 0 0 0 0 -0.3 0 0 0 0 0 0 0 0 0 0 0 0 0 -0.29 0 0 0 0 0 0 0zm-1.47 -2.35l0.3 0 0 0 0 0.29 0 0 0 0 0 0.3 0 0 0 0 0.29 0 0 0.29 0 0 0 0 0 0 0 0.3 0 0 0 0 0 0 0 0 0 0.29 0.3 0 0 0 0 0 0 0 0 0 0 0.29 0 0 0.29 0 0 0 0 0 0 0 0 0 0.29 0 0 0 0 0 0 0.59 0 0 -0.29 0 0 0 0 0 0 0 -0.29 0 0 0 0 0 0 -0.29 -0.3 0 0 0 0 0 0 0 0 -0.29 -0.29 0 0 0 0 -0.3 0 0 0 0 0 0 0 -0.29 -0.3 0 0 0 0 -0.3 0 0 0 -0.29 0 0 0 0 0 -0.29 0 0 0 0 0 -0.3 0 0 0 0zm1.47 -2.05l0 0.59 0 0 0 0 0 0 0 0 -0.29 0 0 0 0 0 0 0 0 0 0 0.29 -0.3 0 0 0 0 0 0 0 0 0 0 0 0 0 -0.29 0.3 0 0 0 0 0 0 0 0 0 0.29 0 0 0 0 0 0 0 0.29 0 0 0 0 0 0 -0.3 0.3 0 0 0 0 -0.29 0 0 0 0 -0.3 0 0 0 0 0 -0.29 0 0 0 0 0.29 -0.29 0 0 0 0 0 -0.3 0 0 0 0 0 0 0 -0.29 0.3 0 0 0 0 0 0 -0.29 0 0 0.29 0 0 0 0 0 0 0 0 -0.3 0.3 0 0 0 0 0 0 0 0.29 0 0 0 0 0 0 0 0 0zm0 0.59l0 0 0 0 0 0zm0.29 -0.3l0.59 0 -0.29 0.3 0 0 0 0 0 0 0 0 0 0 0 0 0 0 0 0 0 0 -0.29 0 0 0 0 0 0 0 0 0 0 0 0 0 0 0 0 0 0 0 0 0 0 0 0 0 0 0 0 0 0 0 0 0 0 0 0 0 0 0 -0.3 0 0 0 0 0 0 -0.59 0 0 0 0 0 0 0.3 0 0 0 0 0 0 0 0 0 0 0 0 0 0 0 0 0 0 0 0 0 0 0 0 0 0 0 0 0 0 0 0 0 0 0 0 0 0.29 0 0 0 0 0 0 0 0 0 0 0 0 0 0 0 0 0 0 0 -0.29 0.29 -0 0zm0.59 0l-0.29 0.3 0 0 0.29 -0.3zm0 -0.58l-0.29 0.59 0.29 0 0 0 0 0 0 0 0 0 0 0 0 0 0 0 0 0 0 0 0 0 0 0 0 0 0 0 0 0 0 0 0 0 0 0 0 0 0 0 0 0 0 0 0 0 0 0 0 0 0 0 0 0 0 0 0 0 0 0 0 0 0 0 0 0 -0.59 0 0 0 0 0 0 0 0 0 0 -0.3 0 0 0 0 0 0 0 0 0 0 0 0 0 0 0.3 0 0 0 0 0 0 0 0 0 0 0 0 0 0 0 0 0 0 0 0 0 0 0 0 0 0 0 0 0 0 0 0 0 0 0 0 0 0 0 0.29 -0.29 0 0zm-0.29 0.29l0 -0.29 0.29 0 -0.29 0.29z"/>
    </g>
    <g>
     <path class="fil1" d="M98.36 47.94c1.17,0 1.76,0.88 1.76,2.35 0,1.17 -0.88,1.76 -2.34,1.46 -0.88,0 -1.47,-0.59 -1.47,-2.05 0,-1.17 0.59,-1.76 2.06,-1.76l-0 0z"/>
     <path id="_1_96" class="fil1" d="M100.41 50.29l-0.59 0 0 0 0 -0.3 0 0 0 -0.29 0 0 0 0 0 -0.29 0 0 0 0 0 -0.3 0 0 0 0 0 0 0 -0.29 0 0 0 0 -0.29 0 0 -0.29 0 0 0 0 0 0 -0.3 0 0 0 0 0 0 -0.3 -0.29 0 0 0 0 0 -0.29 0 0 0 0 0 -0.3 0 0 0 0 -0.59 0 0 0.3 0 0 0 0.29 0 0 0 0 0 0.29 0 0 0.3 0 0 0.3 0 0 0 0 0 0.29 0 0 0.29 0 0 0 0 0.3 0 0 0.29 0 0 0 0 0 0.3 0 0 0.29 0.29 0 0 0 0 0 0.29 0 0 0 0.3 0 0 0 0.29 0 0 0 0.3 0 0 0 0zm-2.64 1.76l0 -0.59 0 0 0.3 0 0 0.29 0.29 0 0 0 0.29 0 0 -0.29 0 0 0.3 0 0 0 0 0 0 0 0.29 0 0 0 0 0 0 0 0.29 0 0 -0.3 0 0 0 0 0 0 0 0 0.3 -0.29 0 0 0 0 0 0 0 -0.3 0 0 0 0 0 0 0 -0.29 0 0 0 0 0.59 0 0 0 0 0.29 0 0 0 0 -0.29 0.3 0 0 0 0.29 0 0 0 0 0 0.3 -0.3 0 0 0 0 0.29 0 0 0 0 -0.29 0 0 0 0 0.29 -0.3 0 0 0 0 0 -0.29 0 0 0 0 0 -0.29 0 0 0 0 0.3 -0.3 0 0 0 -0.29 0 0 -0.3 -0.29 0 0 0 -0 0zm-1.46 -2.35l0.29 0 0 0 0 0.29 0 0 0 0 0 0.3 0 0 0 0 0 0.29 0 0 0 0 0 0 0 0.3 0.3 0 0 0 0 0 0 0 0 0.29 0 0 0 0 0.29 0 0 0 0 0 0 0.29 0 0 0 0 0.3 0 0 0 0 0 0 0 0.29 0 0 0 0 0 0 0 0 0.59 0 0 0 0 -0.29 0 0 0 0 0 0 0 -0.3 0 0 0 0 0 -0.29 -0.29 0 0 0 0 0 0 -0.3 0 0 -0.29 0 0 0 0 0 0 0 -0.3 -0.29 0 0 0 0 -0.29 0 0 0 0 0 -0.3 0 0 0 -0.29 0 0 0 0 0 -0.29 0 0 0 -0.3 0 0 0 0zm2.05 -2.05l0 0.59 0 0 -0.29 0 0 0 0 0 -0.29 0 0 0 0 0 -0.3 0 0 0 0 0 0 0.29 -0.29 0 0 0 0 0 0 0 -0.3 0 0 0 0 0 0 0.3 0 0 0 0 0 0 0 0 -0.29 0.29 0 0 0 0 0 0 0 0.29 0 0 0 0 0 0.3 0 0 0 0 -0.29 0 0 0 0 -0.3 0 0 0 0 0 -0.29 0 0 0 -0.29 0 0 0 0 0 -0.3 0 0 0.29 0 0 -0.29 0 0 0 0 0 0 0.29 -0.29 0 0 0 0 0.3 0 0 0 0 0 0 -0.3 0.29 0 0 0 0 0 0.3 0 0 0 0.29 0 0 0 0 0 0.29 0 0 0 0 0z"/>
    </g>
    <g>
     <path class="fil1" d="M41.79 58.5c-1.46,0 -2.05,-0.59 -2.05,-2.06 0.29,-1.46 0.88,-2.05 2.34,-1.76 1.17,0 1.47,0.88 1.47,2.05 0,1.17 -0.59,1.76 -1.76,1.76l0 0z"/>
     <path id="_1_97" class="fil1" d="M39.74 56.15l0.29 0.29 0 0 0 0 0 0 0 0.3 0 0 0 0.29 0 0 0 0 0 0.29 0 0 0 0 0 0 0.3 0.3 0 0 0 0 0 0 0 0 0 0.29 0 0 0.29 0 0 0 0 0 0 0 0.29 0.3 0 0 0 0 0 0 0.3 0 0 0 0 0 0.29 0 0 0 0.29 0 0 0.59 -0.29 0 0 0 -0.29 0 0 0 0 0 -0.3 0 0 0 -0.29 0 0 -0.3 0 0 0 0 -0.29 0 0 0 0 0 -0.3 -0.29 0 0 0 0 0 -0.3 0 0 -0.29 0 0 -0.29 0 0 0 0 0 -0.29 0 0 0 -0.3 0 0 0 -0.29 0 0 0 -0.29 0 0 0 -0.3 0 0 0 0zm2.34 -1.76l0 0.59 0 0 0 0 -0.29 0 0 0 0 0 -0.29 0 0 0 -0.3 0 0 0 0 0 -0.29 0 0 0 0 0 0 0 -0.29 0 0 0 0 0.3 0 0 0 0 -0.3 0 0 0 0 0.29 0 0 0 0 0 0 0 0 -0.29 0.29 0 0 0 0 0 0.3 0 0 0 0 0 0.29 -0.3 -0.29 0 0 0 -0.3 0 0 0 0 0 -0.29 0 0 0 -0.29 0.3 0 0 0 0 -0.3 0 0 0 0 0.29 0 0 -0.29 0 0 0 0 0.3 0 0 -0.3 0 0 0.29 0 0 0 0 0 0.29 0 0 0 0 0 0.3 0 0 0 0.29 0 0 0 0.29 0 0 0 0 0 0 0 0 0zm1.76 2.35l-0.29 0 0 0 0 -0.3 0 0 0 0 -0.3 -0.29 0 0 0 0 0 0 0 -0.29 0 0 0 0 0 0 0 -0.3 0 0 0 0 0 0 0 0 -0.29 -0.29 0 0 0 0 0 0 0 0 0 0 -0.29 0 0 -0.3 0 0 0 0 0 0 -0.3 0 0 0 0 0 0 0 -0.29 0 0 -0.59 0.29 0 0 0 0 0 0.3 0 0 0 0 0 0.29 0 0 0.3 0 0 0 0 0.29 0 0 0 0 0 0 0.29 0 0 0.3 0 0 0.3 0 0 0 0 0 0 0 0.29 0 0 0.29 0 0 0.29 0 0 0 0 0 0.3 0 0 0 0.29 0 0 0 0 0 0.29 0 0 0 0zm-2.05 2.05l0 -0.59 0 0 0 0 0 0 0.29 0 0 0 0.3 0 0 0 0 0 0 0 0.29 0 0 0 0 0 0 -0.3 0.3 0 0 0 0 0 0 0 0 0 0 -0.29 0.29 0 0 0 0 0 0 0 0 -0.29 0 0 0 0 0 0 0 -0.3 0 0 0 0 0 -0.29 0.29 0 0 0 0.3 0 0 0 0 0.29 0 0 0 0.3 0 0 0 0 0 0.29 -0.3 0 0 0 0 0.29 0 0 0 0 0 0.3 -0.29 0 0 0 0 0 0 0.29 -0.29 0 0 0 0 0 0 0 -0.3 0.3 0 0 0 0 -0.29 0 0 0 0 0 -0.3 0 0 0 0 0 -0.29 0 0 0 0 0 0 0z"/>
    </g>
    <g>
     <path class="fil1" d="M52.93 58.79c-0.59,-0.29 -1.17,-0.59 -1.46,-1.17 -0.59,-1.17 0,-2.64 0.88,-2.93 0.3,0 0.88,0 1.17,0 0.88,0 1.46,0.59 1.46,2.05 0,1.17 -0.59,1.76 -1.46,1.76 0,0 -0.29,0 -0.59,0 0,0 0,0.29 0,0.29z"/>
     <path id="_1_98" class="fil1" d="M51.17 57.62l0.3 -0.29 0 0 0 0 0 0 0 0.29 0.29 0 0 0 0 0 0 0 0 0 0 0 0 0.29 0.29 0 0 0 0 0 0 0 0 0 0 0 0.3 0 0 0.3 0 0 0 0 0 0 0 0 0.29 0 0 0 0 0 0 0 0 0.29 0.29 0 0 0 0 0 0 0 0 0 0 0.59 0 0 -0.29 0 0 0 0 0 0 -0.29 0 0 -0.29 0 0 0 0 0 0 0 0 0 0 0 -0.3 -0.29 0 0 0 0 0 0 0 0 -0.29 0 0 0 0 0 0 -0.3 0 0 0 0 -0.29 0 0 0 0 0 0 -0.29 0 0 0 0 -0.3 0 0 0 0 -0.3 0 0 0 0zm1.17 -3.22l0 0.59 0 0 0 0 -0.29 0 0 0 0 0 0 0.3 -0.3 0 0 0 0 0 0 0 0 0.29 0 0 -0.29 0 0 0 0 0.29 0 0 0 0 0 0 0 0.3 0 0 0 0 0 0.29 0 0 0 0 0 0.29 0 0 0 0 0 0.3 0 0 0 0 0 0.29 0 0 0 0 -0.29 0.3 0 0 0 0 0 -0.3 -0.3 0 0 -0.29 0 0 0 -0.3 0 0 0 -0.29 0 0 0 -0.29 0 0 0 0 0 -0.3 0 0 0.3 -0.29 0 0 0 0 0 -0.29 0 0 0.29 -0.3 0 0 0 0 0 0 0.29 -0.29 0 0 0 0 0 0 0.3 -0.3 0 0 0 0 0.29 0 0 0 0 0zm1.17 0l0 0.59 0 0 0 0 0 0 0 0 0 0 0 0 -0.3 0 0 0 0 0 0 0 0 0 0 0 0 0 -0.29 0 0 0 0 0 0 0 0 0 0 0 0 0 0 0 -0.29 0 0 0 0 0 0 0 0 0 0 0 0 0 -0.3 0 0 0 0 0 0 0 0 0 0 -0.59 0 0 0 0 0 0 0 0 0 0 0.3 0 0 0 0 0 0 0 0 0 0 0 0 0 0.29 0 0 0 0 0 0 0 0 0 0 0 0 0 0.29 0 0 0 0 0 0 0 0 0 0 0 0 0 0.3 0 0 0 0 0 0 0 0 0 0 0 0 0zm1.46 2.35l-0.29 0 0 0 0 -0.3 0 0 0 0 0 -0.29 0 0 0 0 0 -0.29 0 0 0 0 0 0 0 -0.3 0 0 -0.3 0 0 0 0 0 0 -0.29 0 0 0 0 0 0 0 0 -0.29 0 0 0 0 -0.3 0 0 0 0 0 0 -0.29 0 0 0 0 0 0 0 -0.3 0 0 0 0 -0.59 0.3 0 0 0 0 0 0 0 0.29 0 0 0 0 0 0 0 0.29 0.3 0 0 0 0 0 0 0.3 0 0 0.29 0 0 0 0 0 0 0 0.3 0.29 0 0 0 0 0 0 0.29 0 0 0 0 0 0.29 0 0 0 0.3 0 0 0 0 0 0.29 0 0 0 0.29 0 0 0 0zm-1.46 2.05l0 -0.59 0 0 0 0 0.29 0 0 0 0 0 0 0 0 0 0.3 0 0 0 0 0 0 -0.3 0 0 0.29 0 0 0 0 0 0 0 0 0 0 -0.29 0 0 0 0 0 0 0.29 0 0 -0.29 0 0 0 0 0 0 0 -0.3 0 0 0 0 0 0 0 -0.29 0 0 0 0 0.3 0 0 0 0 0 0 0.29 0 0 0 0.3 0 0 0 0 0 0.29 0 0 0 0 0 0.29 0 0 0 0 -0.3 0.3 0 0 0 0 0 0 0 0.29 -0.29 0 0 0 0 0 0 0 0 0 -0.29 0.3 0 0 0 0 0 0 -0.3 0 0 0 0 0 -0.29 0 0 0 0 0 0 0zm0 -0.59l0 0 0 0 0 0zm-0.3 0.59l-0.29 -0.29 0 -0.3 0 0 0.29 0 0 0 0 0 0 0 0 0 0 0 0 0 0 0 0 0 0 0 0 0 0 0 0 0 0 0 0 0 0 0 0 0 0 0 0 0 0.3 0 0 0 0 0 0 0 0 0 0 0 0 0 0 0 0 0 0 0 0 0 0 0 0 0.59 0 0 0 0 0 0 0 0 0 0 0 0 0 0 0 0 0 0 0 0 0 0 -0.3 0 0 0 0 0 0 0 0 0 0 0 0 0 0 0 0 0 0 0 0 0 0 0 0 0 0 0 0 0 0 0 0 0 0 0 0 0 -0.29 0 0 0 0.29 0 0 0zm-0.29 -0.29l0 -0.3 0 0 0 0.3zm0 0.58l0 -0.59 -0.29 0.3 0 0 0 0 0 0 0 0 0 -0.3 0 0.3 0 -0.3 0 0 0.29 0 0 0 0 0 0 0 0 0 0 0 0 0 0 0 0 0 0 0 0 0 0 0 0 0 0 0 0 0 0 0 0 0 0 0 0 0 0 0 0 0 0 0 0 0 0 0 0.29 0.3 0 0 0 0 0 0 0 0 0 0 0 0 0 0 0 0 0 0 0 0 0 0 0 0 0 0 0 0 0 0 0 0 0 0 0 0 0 0 0 0 0 0 0 0 0 0 0 0 0 0 0 0 0 0.29 0 0 0 0 0 0 0 0 0 0 -0.29 0 0 0zm0.29 0l-0.29 0.3 0 -0.3 0.29 0z"/>
    </g>
    <g>
     <path class="fil1" d="M75.79 58.5c-0.59,0 -0.88,0 -1.17,-0.3 -0.29,-0.29 -0.88,-1.17 -0.88,-1.76 0,-0.59 0.59,-1.46 0.88,-1.76 0.59,-0.3 1.17,0 1.76,0 0.59,0 1.17,0.59 1.17,2.05 0,1.17 -0.59,1.76 -1.47,1.76 0,0 -0.29,0 -0.29,0 0,0 0,0 0,0l0 0z"/>
     <path id="_1_99" class="fil1" d="M74.33 58.5l0.29 -0.3 0 0 0 0 0 0 0 0 0 0 0 0 0.29 0 0 0 0 0 0 0 0 0 0 0 0 0 0 0 0 0 0 0 0.3 0 0 0 0 0 0 0 0 0 0 0 0 0 0 0 0.29 0 0 0 0 0 0 0 0 0 0 0 0 0 0.29 0 0 0 0 0.59 -0.29 0 0 0 0 0 0 0 0 0 0 0 0 0 0 0 -0.29 0 0 0 0 0 0 0 0 0 0 0 0 0 -0.3 0 0 0 0 0 0 0 0 0 0 0 0 0 -0.29 0 0 0 0 0 0 0 0 0 0 0 0 0 0 -0.29 -0.29 0 0 0 0 0 0 0zm0 0l0 0 0.29 0.59 -0.29 -0.59zm-0.59 -2.06l0.29 0 0 0 0 0 0 0 0 0 0 0 0 0.3 0 0 0 0 0 0 0 0 0 0.29 0 0 0 0 0 0 0.29 0 0 0.29 0 0 0 0 0 0 0 0 0 0.3 0 0 0 0 0 0 0 0 0.3 0.29 0 0 0 0 0 0 0 0 0 0 0 0.3 0 0 -0.3 0.29 0 0 0 0 0 0 0 -0.29 0 0 0 0 -0.29 0 0 0 0 -0.3 0 0 0 0 0 0 0 -0.29 0 0 0 0 -0.29 0 0 0 0 -0.3 0 0 0 0 0 0 0 -0.29 0 0 0 0 0 0 0 -0.29 0 0 0 0 0 0 0 -0.3 0 0 0 0 0 0zm0.29 0l0 0 0 0 0 0zm0.59 -2.05l0.29 0.59 0 0 0 0 -0.29 0 0 0.3 0 0 0 0 0 0 0 0 0 0 0 0 0 0 -0.29 0.29 0 0 0 0 0 0 0 0 0 0 0 0.29 0 0 0 0 0 0 -0.3 0 0 0 0 0.3 0 0 0 0 0 0 0 0 0 0 0 0 0 0.29 0 0 0 0 -0.29 0 0 0 0 -0.29 0 0 0 0 0 0 0 -0.3 0 0 0 0 0 0 0 -0.29 0 0 0 0 0 0 0.29 0 0 -0.29 0 0 0 0 0 0 0 -0.3 0 0 0 0 0.3 0 0 0 0 0 0 -0.29 0 0 0 0 0 0 0.29 0 0 0 0 0 0 -0.3 0 0 0 0zm0 0l0 0 0 0 0 0zm1.76 0l0 0.59 0 0 -0.3 0 0 0 0 0 0 0 0 0 0 0 -0.29 0 0 0 0 0 0 0 0 0 0 0 -0.29 0 0 0 0 0 0 0 0 0 0 0 -0.3 0 0 0 0 0 0 0 0 0 0 0 0 0 -0.29 0 0 0 0 0 0 0 0 0 0 0 0 0 -0.29 -0.59 0 0 0 0 0.29 0 0 0 0 0 0 0 0 0 0 0 0.29 0 0 0 0 0 0 0 0 0 0.3 0 0 0 0 0 0 0 0 0 0 0 0.29 0 0 0 0 0 0 0 0 0 0.29 0 0 0 0 0 0 0 0 0 0 0 0.3 0 0 0 0 0zm1.46 2.35l-0.59 -0.3 0 0 0 0 0 0 0 0 0 -0.29 0 0 0 0 0 -0.29 0 0 0 0 0 0 0 -0.3 0 0 0 0 0 0 -0.3 0 0 -0.29 0 0 0 0 0 0 0 0 0 0 0 0 -0.29 0 0 -0.3 0 0 0 0 0 0 -0.29 0 0 0 0 0 0 0 0 0 0 -0.59 0 0 0 0 0.29 0 0 0 0 0 0 0 0.29 0 0 0.3 0 0 0 0 0 0 0.3 0 0 0 0 0.29 0 0 0 0 0.29 0 0 0.3 0 0 0 0 0 0.29 0 0 0 0 0 0.29 0 0 0 0 0.3 0.3 0 0 0 0 0 0.29 0 0 0 0.29 0 0 0 0zm-1.76 2.05l0 -0.59 0 0 0.3 0 0 0 0 0 0 0 0 0 0.29 0 0 0 0 0 0 0 0 -0.3 0.29 0 0 0 0 0 0 0 0 0 0 0 0 -0.29 0 0 0.3 0 0 0 0 0 0 -0.29 0 0 0 0 0 0 0 -0.3 0 0 0 0 0 0 0 -0.29 0 0 0 -0.29 0.59 0.29 0 0 0 0 0 0.29 0 0 0 0.3 -0.29 0 0 0 0 0.29 0 0 0 0 0 0.29 0 0 0 0 0 0.3 -0.3 0 0 0 0 0 0 0.29 0 0 -0.29 0 0 0 0 0 0 0 0 0.3 -0.3 0 0 0 0 0 0 0 -0.29 0 0 0 0 0 -0.29 0 0 0 -0 0zm-0.29 -0.29l-0.3 0 0.3 -0.3 0 0 0 0 0 0 0 0 0 0 0 0 0 0 0 0 0 0 0 0 0 0 0 0 0 0 0 0 0 0 0.29 0 0 0 0 0 0 0 0 0 0 0 0 0 0 0 0 0 0 0 0 0 0 0 0 0 0 0 0 0 0 0 0 0 0 0.59 0 0 0 0 0 0 0 0 0 0 0 0 0 0 0 0 0 0 0 0 0 0 0 0 0 0 0 0 0 0 0 0 -0.29 0 0 0 0 0 0 0 0 0 0 0 0 0 0 0 0 0 0 0 0 0 0 0 0 0 0 0 0 0 0 0 0 -0.29 0 0zm-0.3 0l0 -0.3 0.3 0 -0.3 0.3zm0.3 0.29l0 -0.59 -0.3 0.29 0 0 0 0 0 0 0 0 0 0 0 0 0 0 0 0 0 0 0 0 0 0 0 0 0 0 0 0 0 0 0 0 0 0 0 0 0 0 0 0 0 0 0 0 0 0 0 0 0 0 0 0 0 0 0 0 0 0 0 0 0 0 0 0 0.3 0 0 0 0 0 0 0 0 0.3 0 0 0 -0.3 0 0 0 0 0 0 0 0 0 0 0 0.3 0 0 0 -0.3 0 0 0 0 0 0 0 0 0 0.3 0 0 0 -0.3 0 0 0 0 0 0 0 0 0 0 0 0.3 0 0 0 -0.3 0 0 0 0 0 0 0 0.3 0 0zm0 -0.29l0 0.29 0 0 0 -0.29z"/>
    </g>
    <g>
     <path class="fil1" d="M86.93 58.5c-1.17,0 -2.06,-0.59 -1.76,-2.06 0,-1.17 0.59,-1.76 1.46,-1.76 1.46,-0.3 2.05,0.29 2.05,1.46 0.3,1.46 -0.29,2.34 -1.76,2.34l0 0z"/>
     <path id="_1_100" class="fil1" d="M84.87 56.44l0.3 0 0 0 0 0 0 0.3 0 0 0 0.29 0 0 0 0 0.29 0 0 0.29 0 0 0 0 0 0 0 0.3 0 0 0 0 0 0 0.3 0.29 0 0 0 0 0 0 0 0 0 0 0.29 0 0 0.3 0 0 0.29 0 0 0 0 0 0.3 0 0 0 0 0 0.29 0 0 0 0 0.59 0 0 -0.29 0 0 0 -0.3 0 0 0 0 0 -0.29 0 0 0 0 0 -0.29 -0.3 0 0 0 0 -0.3 0 0 0 0 -0.29 0 0 -0.29 0 0 0 0 -0.3 0 0 0 0 0 -0.29 -0.3 0 0 -0.29 0 0 0 0 0 -0.3 0 0 0 -0.29 0 0 0 -0.29 0 0 0 0 0 -0zm1.76 -2.05l0 0.59 0 0 0 0 -0.29 0 0 0 0 0 0 0 -0.29 0 0 0 0 0 0 0 0 0 -0.3 0 0 0.3 0 0 0 0 0 0 0 0 0 0 -0.29 0 0 0.29 0 0 0 0 0 0 0 0 0 0.29 0 0 0 0 0 0 0 0.3 0 0 -0.3 0 0 0.29 0 0 -0.29 0 0 -0.29 0 0 0 0 0 -0.3 0 0 0 -0.29 0.29 0 0 0 0 -0.29 0 0 0 0 0 0 0 -0.3 0 0 0.3 0 0 0 0 -0.29 0 0 0 0 0.29 0 0 0 0 0 0 -0.3 0.3 0 0 0 0 0 0 0 0.29 0 0 0 0 0 0 0 0.29 0 0 0 0 0zm2.35 1.76l-0.3 0 0 0 0 0 0 -0.29 0 0 0 0 -0.29 0 0 -0.3 0 0 0 0 0 0 0 0 0 -0.29 0 0 -0.29 0 0 0 0 0 0 0 0 -0.3 0 0 -0.3 0 0 0 0 0 -0.29 0 0 0 0 0 0 0 -0.29 0 0 0 -0.3 0 0 0 0 0 -0.29 0 0 0 0 -0.59 0 0 0.29 0 0 0 0 0 0.3 0 0 0 0.29 0 0 0 0 0 0.29 0 0 0 0 0 0.3 0 0 0 0 0.3 0.29 0 0 0 0 0 0 0 0 0.29 0.29 0 0 0 0 0 0 0.3 0 0 0.3 0 0 0.29 0 0 0 0.29 0 0 0 0 0 0.3 0 0 0 0zm-2.05 2.64l0 -0.59 0 0 0 0 0.29 0 0 0 0.29 0 0 0 0 0 0.3 0 0 0 0 0 0.29 -0.3 0 0 0 0 0 0 0.3 0 0 0 0 -0.29 0 0 0 0 0 0 0 -0.29 0.29 0 0 0 0 0 0 -0.3 0 0 0 0 0 -0.29 0 0 0 -0.29 0 0 0 0 0 -0.3 0.29 0 0 0 0 0.3 0 0 0 0.29 0 0 0 0.29 0 0 0 0.3 0 0 0 0.29 0 0 0 0 -0.29 0.29 0 0 0 0 0 0.3 0 0 -0.29 0 0 0.29 0 0 -0.3 0 0 0 0 0 -0.29 0.3 0 0 0 0 -0.3 0 0 0 -0.29 0 0 0 -0.29 0 0 0 0 0 0 0z"/>
    </g>
    <g>
     <path class="fil1" d="M98.07 58.5c-0.59,0 -1.47,0 -1.47,-1.47 -0.29,-0.59 0,-1.76 0.3,-2.05 0.88,-0.29 1.76,-0.29 2.64,0.3 0.29,0 0.59,1.17 0.59,2.05 0,0.88 -0.59,1.17 -2.05,1.17z"/>
     <path id="_1_101" class="fil1" d="M96.31 57.03l0.29 0 0 0 0 0 0 0.29 0 0 0 0 0.3 0.3 0 0 0 0 0 0 0 0.29 0 0 0 0 0 0 0 0 0.29 0 0 0.3 0 0 0 0 0 0 0 0 0.3 0 0 0 0 0 0 0 0.29 0 0 0 0 0 0 0 0 0 0.29 0 0 0 0 0 0 0 0 0.59 0 0 0 0 0 0 -0.29 0 0 0 0 0 0 0 -0.29 0 0 0 0 0 0 0 -0.3 0 0 0 0 0 0 0 -0.29 -0.3 0 0 0 0 0 0 -0.3 0 0 -0.29 0 0 0 0 0 0 0 -0.3 -0.29 0 0 -0.29 0 0 0 0 0 -0.29 0 0 0 -0.3 0 0 0 0zm0.59 -2.34l0 0.59 0 0 0 0 0 0 0 0 0 0 0 0 0 0 0 0.29 0 0 0 0 0 0 0 0 0 0 0 0.29 0 0 0 0 0 0 0 0 0 0.3 -0.3 0 0 0 0 0.29 0 0 0 0 0 0 0 0 0 0.29 0 0 0 0 0 0 0 0.3 0 0 0 0 -0.29 0 0 0 0 0 0 -0.3 0 0 0 0 0 0 0 -0.29 0 0 0 0 0 -0.29 0 0 0 0 0 -0.3 0 0 0 0 0 0 0 -0.29 0 0 0.29 0 0 -0.29 0 0 0 0 0 0 0 0 0 -0.3 0 0 0 0 0.3 0 0 0 0 -0.29 0 0 0 0 0 0 0 0zm0 0.59l0 0 0 0 0 0zm2.64 -0.3l0 0.3 0 0 0 0 0 0 -0.29 0 0 0 0 0 0 0 -0.3 0 0 0 0 0 -0.29 0 0 0 0 0 0 0 -0.29 0 0 0 0 0 0 0 -0.3 0 0 0 0 0 -0.29 0 0 0 0 0 0 0 -0.3 0 0 0 0 0 0 0 -0.29 0 0 0 0 0 -0.29 0 0 -0.59 0 0 0.29 0 0 0 0 0 0.29 0 0 0 0 0 0 0 0.3 0 0 0 0 0 0.29 0 0 0 0 0 0.3 0 0 0 0 0 0 0 0.29 0 0 0 0 0 0.29 0 0 0 0 0 0 0 0.3 0 0 0 0 0 0.29 0 0 0 0 0 0 0.29 0 0 0 0zm0.59 2.35l-0.3 0 0 0 0 0 0 -0.3 0 0 0 0 0 0 0 -0.29 0 0 0 0 0 0 0 -0.29 0 0 0 0 0 -0.3 0 0 0 0 0 0 0 -0.29 0 0 0 0 0 0 0 -0.29 -0.29 0 0 0 0 0 0 0 0 0 0 0 0 0 0 -0.3 0 0 0 0 0 0 0 -0.29 0.29 0 0 0 0 0 0 0 0 0 0 0.29 0 0 0.3 0 0 0 0 0 0 0.3 0 0 0 0 0 0.29 0 0 0 0 0 0 0 0.29 0 0 0 0 0 0.3 0 0 0 0 0 0.29 0 0 0 0 0 0.29 0 0 0 0 0 0 0 0.3 0 0 0 0zm-2.05 1.46l0 -0.59 0 0 0.29 0 0 0 0 0 0.29 0 0 0 0 0 0.3 0 0 0 0 0 0.29 0 0 0 0 0 0 0 0 -0.3 0.29 0 0 0 0 0 0 0 0 0 0 0 0 0 0.3 0 0 -0.29 0 0 0 0 0 0 0 0 0 0 0 -0.29 0 0 0 0 0 0 0.29 0 0 0 0 0.29 0 0 0 0 0 0.29 0 0 0 0 0 0.3 0 0 0 0 -0.29 0 0 0 0 0.29 0 0 0 0 -0.3 0 0 0 0 0 0 0 -0.29 0.3 0 0 0 0 -0.29 0 0 0 0 0 0 0 -0.3 0 0 0 -0.29 0 0 0 0 0 -0.29 0 0 0 0 0zm0 -0.59l0 0 0 0 0 0z"/>
    </g>
    <g>
     <path class="fil1" d="M64.36 58.79c-0.59,-0.29 -1.17,-0.59 -1.76,-1.17 -0.59,-0.88 0,-2.64 0.88,-2.93 0.59,0 0.88,0 1.46,0 0.88,0 1.17,0.59 1.17,2.05 0,0.88 -0.29,1.76 -1.17,1.76 -0.29,0 -0.29,0 -0.59,0 0,0 0,0.29 0,0.29l0 0z"/>
     <path id="_1_102" class="fil1" d="M62.6 57.91l0.29 -0.29 0 0 0 0 0 0 0 0 0 0 0 0 0.29 0 0 0.29 0 0 0 0 0 0 0 0 0 0 0.3 0 0 0 0 0 0 0 0 0.3 0 0 0.29 0 0 0 0 0 0 0 0 0 0.29 0 0 0 0 0 0 0.29 0 0 0 0 0.3 0 0 0 0 0 -0.3 0.59 0 0 0 0 0 0 0 0 0 -0.29 -0.29 0 0 0 0 0 0 0 0 0 0 0 -0.29 0 0 0 0 0 0 -0.29 0 0 -0.3 0 0 0 0 0 0 0 0 0 -0.29 0 0 -0.3 0 0 0 0 0 0 0 0 -0.29 0 0 -0.29 0 0 0 0 0 0 0 0 0 -0zm0.29 -0.29l0 0 0 0 0 0zm0.59 -3.22l0 0.59 0 0 0 0 0 0 0 0 -0.29 0 0 0.3 0 0 0 0 0 0 -0.3 0 0 0.29 0 0 0 0 0 0.29 0 0 -0.29 0 0 0 0 0.3 0 0 0 0 0 0.29 0 0 0 0 0 0.29 0 0 0 0 0 0.3 0 0 0 0 0 0.29 0.29 0 0 0 0 0.3 -0.29 0.29 0 -0.29 -0.3 0 0 0 0 -0.3 0 0 0 -0.29 0 0 0 -0.3 0 0 0 -0.29 0 0 0 -0.29 0 0 0 0 0 -0.3 0 0 0 -0.29 0 0 0.3 -0.29 0 0 0 0 0 -0.3 0 0 0.29 0 0 -0.29 0 0 0.3 0 0 0 0 -0.3 0.29 0 0 0 0 0 0 0 0 0zm1.46 0l0 0.59 0 0 0 0 -0.29 0 0 0 0 0 0 0 0 0 0 0 0 0 -0.29 0 0 0 0 0 0 0 0 0 0 0 0 0 0 0 -0.3 0 0 0 0 0 0 0 0 0 0 0 0 0 0 0 -0.29 0 0 0 0 0 0 0 0 0 0 0 0 0 -0.29 0 0 -0.59 0 0 0.29 0 0 0 0 0 0 0 0 0 0 0 0 0 0.29 0 0 0 0 0 0 0 0 0 0 0 0 0 0.3 0 0 0 0 0 0 0 0 0 0 0 0 0 0.29 0 0 0 0 0 0 0 0 0 0 0 0 0 0.29 0 0 0 0 0 0 0zm1.47 2.05l-0.3 0.3 0 0 0 -0.3 0 0 0 0 0 -0.29 0 0 -0.29 0 0 -0.29 0 0 0 0 0 0 0 -0.3 0 0 0 0 0 0 0 0 0 -0.29 0 0 -0.3 0 0 0 0 0 0 0 0 0 0 -0.3 -0.29 0 0 0 0 0 0 0 0 0 -0.29 0 0 0 0 0 0 0 0 -0.59 0 0 0 0 0.29 0 0 0 0 0 0 0 0.29 0 0 0 0 0.3 0 0 0.3 0 0 0 0 0 0 0.29 0 0 0.29 0 0 0 0 0 0 0.3 0 0 0 0 0 0.29 0.3 0 0 0 0 0.29 0 0 0 0 0 0.3 0 0 0 0.29 0 0 0 0 0 0 0 0zm-0.3 0.3l0 0 0 0 0 0zm-1.17 2.05l0 -0.59 0 0 0 0 0 0 0 0 0.3 0 0 0 0 0 0 0 0 0 0.29 -0.3 0 0 0 0 0 0 0 0 0 0 0.3 0 0 -0.29 0 0 0 0 0 0 0 0 0 0 0 -0.29 0 0 0 0 0 0 0.29 -0.3 0 0 0 0 0 -0.29 0 0 0 0 0 0 0.29 -0.29 0 0.29 0 0 0 0.29 0 0 0 0 0 0.3 0 0 0 0.29 0 0 0 0 -0.29 0 0 0.29 0 0 0 0 0 0.3 0 0 0 0 -0.29 0 0 0.29 0 0 0 0 -0.3 0 0 0 0 0 0 0.3 -0.29 0 0 0 0 0 0 0 -0.3 0 0 0 0 0 0 0 0 0zm0 -0.59l0 0 0 0 0 0zm-0.29 0.59l-0.59 -0.29 0.29 -0.3 0 0 0 0 0 0 0 0 0 0 0 0 0 0 0 0 0.29 0 0 0 0 0 0 0 0 0 0 0 0 0 0 0 0 0 0 0 0 0 0 0 0 0 0 0 0 0 0 0 0 0 0 0 0 0 0 0 0.3 0 0 0 0 0 0 0 0 0.59 0 0 0 0 0 0 0 0 0 0 -0.3 0 0 0 0 0 0 0 0 0 0 0 0 0 0 0 0 0 0 0 0 0 0 0 0 0 0 0 0 0 0 0 0 0 -0.29 0 0 0 0 0 0 0 0 0 0 0 0 0 0 0 0 0 0 0 0.29 0 0 0zm-0.59 -0.29l0.29 -0.3 0 0 -0.29 0.3zm0 0.58l0.29 -0.59 -0.29 0.3 0 0 0 0 0 0 0 0 0 -0.3 0 0 0 0 0 0 0 0 0 0 0 0 0 0 0 0 0 0 0 0 0 0 0 0 0 0 0 0 0 0 0 0 0 0 0 0 0 0 0 0 0 0 0 0 0 0 0 0 0 0 0 0 0 0 0.59 0.3 0 0 0 0 0 0 0 0 0 0 0 0 0 0 0 0 0 0 0 0 0 0 0 0 0 0 0 0 0 0 0 0 0 0 0 0 -0.29 0 0 0 0 0 0 0 0 0 0 0 0 0 0 0 0 0 0 0 0 0 0 0 0 0 0 0 -0.3 0.29 0 0zm0.29 -0.29l0 0.29 -0.29 0 0.29 -0.29z"/>
    </g>
   </g>
  </g>
  <rect class="fil0" width="140" height="140"/>
 </g>
</svg>
