<?xml version="1.0" encoding="UTF-8"?>
<!DOCTYPE svg PUBLIC "-//W3C//DTD SVG 1.1//EN" "http://www.w3.org/Graphics/SVG/1.1/DTD/svg11.dtd">
<!-- Creator: CorelDRAW -->
<svg xmlns="http://www.w3.org/2000/svg" xml:space="preserve" width="0.14in" height="0.14in" version="1.1" style="shape-rendering:geometricPrecision; text-rendering:geometricPrecision; image-rendering:optimizeQuality; fill-rule:evenodd; clip-rule:evenodd"
viewBox="0 0 140 140"
 xmlns:xlink="http://www.w3.org/1999/xlink"
 xmlns:xodm="http://www.corel.com/coreldraw/odm/2003">
 <defs>
  <style type="text/css">
   <![CDATA[
    .str0 {stroke:#1C2335;stroke-width:3.33;stroke-miterlimit:2.61313}
    .fil0 {fill:none}
    .fil1 {fill:#1C2335;fill-rule:nonzero}
   ]]>
  </style>
 </defs>
 <g id="Layer_x0020_1">
  <metadata id="CorelCorpID_0Corel-Layer"/>
  <g id="_1782461254352">
   <circle class="fil0 str0" transform="matrix(0.606615 0.179934 -0.179934 0.606615 70 70)" r="107.11"/>
   <g id="_2134955300176">
    <g>
     <path class="fil1" d="M68.45 71.7c-2.07,-3.84 -1.48,-7.68 -1.18,-11.51 0.59,-5.02 5.91,-7.97 10.04,-5.91 0.3,0 0.59,0.3 0.89,0.3 0.3,0 0.59,-0.3 0.59,-0.59 2.36,-2.66 5.91,-2.66 8.27,-0.3 0.89,0.89 1.77,2.36 2.95,2.95 0.89,0.59 2.36,0 3.83,0.3 0.3,0 1.18,0.59 1.18,0.89 0.3,0.59 0,1.48 -0.3,1.77 -1.18,1.48 -2.36,2.95 -3.83,4.13 -1.77,2.06 -4.43,1.77 -6.5,0 -0.3,-0.3 -0.59,-0.89 -0.89,-0.89 -0.3,-0.3 -0.89,-0.3 -1.18,-0.3 -0.3,0.3 -0.3,0.89 -0.3,1.18 0,0 0,0.29 0,0.59 0,2.65 0,5.02 -1.48,7.38 2.07,0 3.84,0.3 5.91,-0.89 1.18,-0.59 2.66,-1.18 3.84,-1.77 3.83,-1.48 7.08,-0.59 9.74,2.66 1.77,2.07 3.25,4.13 5.02,6.5 0.89,1.18 2.06,2.36 3.83,3.24 1.18,0.59 1.48,1.18 0.89,2.95 -0.3,1.18 -0.59,2.66 -1.18,3.84 -0.3,1.18 -0.89,1.77 -2.07,1.18 -1.77,-0.3 -3.24,-0.59 -5.02,-1.18 -0.59,-0.3 -1.18,-0.59 -1.77,-1.18 -1.48,-1.48 -2.95,-2.95 -4.13,-4.72 -0.3,-0.29 -0.59,-0.29 -1.18,0 -1.77,1.48 -3.84,2.95 -5.61,4.43 -0.29,0 -0.59,0.59 -0.59,0.89 0.3,2.07 0.3,4.13 -0.3,6.5 0,1.18 0,2.36 0.3,3.54 0.3,1.47 0.59,3.24 0.89,5.02 0.59,0 0.89,0 1.18,0 7.38,0 14.76,0 22.14,0 1.77,0 2.07,0.59 2.07,2.36 0,4.13 0,7.97 0,11.81 0,1.77 -0.3,2.36 -2.07,2.36 -28.34,0 -56.68,0 -85.02,0 -1.48,0 -2.07,-0.59 -2.07,-2.36 0,-3.83 0,-7.67 0,-11.81 0,-1.77 0.59,-2.36 2.07,-2.36 10.04,0 20.07,0 30.11,0 0.59,0 0.89,0 1.47,0 -0.59,-2.66 -0.3,-5.61 -1.18,-8.56 -0.59,-1.77 -0.59,-3.54 -0.29,-5.61 0,-0.59 0,-1.18 -0.3,-1.77 -4.13,-8.26 -8.27,-16.53 -12.4,-24.5 -2.66,-5.31 -2.07,-10.63 1.77,-14.76 3.83,-4.13 7.67,-8.56 11.51,-12.7 1.18,-1.18 1.47,-1.18 2.65,-0.29 1.48,0.89 2.66,1.77 3.84,2.95 1.18,0.59 1.18,1.77 0.3,2.66 -2.07,2.07 -3.25,4.43 -4.13,7.09 -0.59,2.36 -1.48,4.72 -2.36,7.08 0,0.3 0,0.89 0.3,1.48 2.95,5.02 5.91,10.04 8.86,15.35 0,0.3 0.59,0.3 0.89,0.59 0,0 0,0 0,0l0 0zm-6.79 -32.47l0 0c-0.3,-0.3 -0.59,-0.59 -0.89,-0.89 -0.59,-0.59 -1.18,-0.59 -1.77,0.3 -3.54,3.83 -6.79,7.38 -10.33,11.22 -2.66,3.25 -3.25,6.79 -1.18,10.63 3.84,7.68 7.68,15.06 11.51,22.73 0,0.29 0.3,0.59 0.3,0.89 1.18,-0.89 2.36,-1.77 3.25,-2.95 1.18,-0.59 2.36,-1.18 2.95,-2.36 0.3,-0.89 0,-2.36 0,-3.84 0,-0.89 0,-1.48 -0.59,-2.36 -2.95,-5.31 -6.2,-10.63 -9.15,-15.65 -0.59,-1.18 -0.59,-2.06 -0.3,-2.95 1.18,-3.25 2.07,-6.2 3.24,-9.15 0.59,-2.07 1.18,-4.43 2.95,-5.61l0 0zm-0.89 53.72l0 0c7.97,0 16.24,0 24.5,0 0,-1.18 0.3,-2.36 0.3,-3.25 0,-2.36 -0.89,-4.43 -1.77,-6.79 -0.3,-0.59 -0.3,-1.48 -0.3,-2.36 -0.3,-1.77 0,-3.83 0,-5.61 -1.18,0 -2.07,0 -2.95,0 0,1.18 0,2.06 -0.3,2.95 0,2.95 -1.77,5.31 -4.43,5.31 -2.36,0 -4.43,-2.36 -4.43,-5.31 0,-0.89 0,-1.77 0,-2.95 -0.89,0 -1.77,0 -2.95,0 0,1.47 0,2.65 0,4.13 0.3,1.18 -0.3,2.07 -1.18,2.66 -1.48,1.18 -2.95,2.36 -4.72,3.54 -2.07,1.77 -2.95,5.02 -1.77,7.67l0 0zm0.89 9.74l0 0c8.27,0 16.24,0 24.21,0 -0.3,-2.06 -0.59,-4.13 -0.89,-6.49 -7.97,0 -15.65,0 -23.62,0 0,2.36 0.3,4.43 0.3,6.49zm45.17 -18.89l0 0c-1.77,-0.3 -2.95,-2.07 -4.13,-3.54 -1.47,-2.07 -3.24,-4.43 -5.02,-6.5 -1.48,-2.07 -3.84,-2.65 -6.2,-1.77 -1.48,0.89 -2.95,1.48 -4.43,2.07 -0.59,0.3 -0.59,0.59 -0.59,0.89 0,1.77 -0.3,3.54 0,5.02 0,1.18 0.3,2.36 0.59,3.83 2.66,-1.77 4.72,-3.54 7.09,-5.02 0.89,-0.89 1.48,-0.89 2.36,0.3 1.48,1.18 2.95,2.65 3.83,4.13 1.77,2.06 3.84,2.06 5.91,2.95 0.3,-0.89 0.3,-1.47 0.59,-2.36l0 0zm-36.6 -20.37l0 0c0,1.48 -0.3,2.66 0,4.13 0.3,2.07 2.07,3.84 4.13,4.13 2.07,0 3.84,-1.48 4.43,-3.54 0,-0.3 0.3,-0.59 0,-0.59 -0.59,-0.89 -1.48,-2.36 -2.36,-2.66 -2.07,-0.59 -4.13,-0.89 -6.2,-1.48l0 0zm-41.92 42.8l0 0c0,0.89 0,2.07 0,2.95 5.02,0 10.04,0 14.76,0 0,-0.89 0,-2.07 0,-2.95 -4.72,0 -9.74,0 -14.76,0zm35.72 2.95l0 0c5.02,0 10.04,0 14.76,0 0,-0.89 0,-2.07 0,-2.95 -5.02,0 -9.74,0 -14.76,0 0,0.89 0,2.07 0,2.95zm-20.96 6.79l0 0c0,-1.18 0,-2.07 0,-3.25 -4.72,0 -9.74,0 -14.76,0 0,1.18 0,2.07 0,3.25 5.02,0 10.04,0 14.76,0zm35.72 -3.25l0 0c-5.02,0 -9.74,0 -14.76,0 0,1.18 0,2.07 0,3.25 5.02,0 10.04,0 14.76,0 0,-1.18 0,-2.07 0,-3.25zm-32.47 3.25l0 0c4.72,0 9.45,0 14.46,0 -0.3,-1.18 -0.59,-2.36 -0.59,-3.25 -4.72,0 -9.44,0 -13.87,0 0,1.18 0,2.07 0,3.25zm0 -6.79l0 0c4.43,0 8.86,0 13.28,0 0,-0.89 -0.29,-2.07 -0.29,-2.95 -4.43,0 -8.86,0 -12.99,0 0,0.89 0,2.07 0,2.95zm53.43 0l0 0c4.13,0 7.97,0 11.81,0 0,-0.89 0,-2.07 0,-2.95 -3.83,0 -7.97,0 -11.81,0 0,0.89 0,2.07 0,2.95zm0 6.79l0 0c4.13,0 7.97,0 11.81,0 0,-1.18 0,-2.36 0,-3.25 -3.83,0 -7.97,0 -11.81,0 0,0.89 0,2.07 0,3.25zm-20.96 -53.43l0 0c0.3,-2.66 -0.89,-5.02 -3.25,-5.61 -2.36,-0.59 -4.43,0.89 -5.02,3.25 1.48,0.3 2.95,0.59 4.43,0.89 1.18,0.59 2.65,0.3 3.83,1.48zm3.25 50.19l0 0c0,1.18 0,2.07 0,2.95 2.95,0 6.2,0 9.44,0 -0.59,-0.89 -1.18,-1.77 -1.48,-2.66 -0.3,-0.3 -0.59,-0.3 -0.59,-0.3 -2.65,0 -5.02,0 -7.38,0l0 0zm-0.3 -53.43l0 0c2.36,-0.3 2.95,0 4.43,1.47 1.48,1.48 2.65,1.18 3.83,-0.59 -1.18,0.3 -1.77,-0.59 -2.36,-1.18 -0.89,-0.89 -1.77,-2.07 -2.66,-2.95 -1.18,-1.18 -2.66,-1.18 -3.84,0 -0.3,0.3 -0.59,0.89 -0.3,1.77 0.3,0.3 0.59,0.89 0.89,1.48l0 0zm15.06 46.93l0 0c-2.36,0 -4.43,0 -6.5,0 0.3,0.89 0.59,1.77 0.89,2.66 0.3,0.3 0.3,0.3 0.59,0.3 1.48,0.3 3.25,0.3 5.02,0.3 0,-1.18 0,-2.36 0,-3.25l0 0zm-8.56 2.95l0 0c-0.59,-0.89 -0.89,-1.77 -1.18,-2.66 0,-0.3 -0.29,-0.3 -0.29,-0.3 -1.48,-0.29 -3.25,-0.29 -4.72,-0.29 0,1.18 0,2.36 0,3.24 2.07,0 4.13,0 6.2,0l-0 0zm-13.87 -34.24l0 0c0,1.18 0,2.36 0,3.25 0.3,0.89 0.89,1.77 1.48,1.77 0.89,-0.3 1.48,-0.59 1.48,-1.48 0.3,-1.18 0,-2.36 0,-3.54 -0.89,0 -1.77,0 -2.95,0l0 -0zm22.44 37.79l0 0c-1.18,0 -2.36,0 -3.54,0 0.3,0.89 0.89,1.48 1.18,2.07 0.89,1.18 0.89,1.47 2.36,0.89 0,-0.89 0,-1.77 0,-2.95z"/>
     <path id="_1" class="fil1" d="M66.98 60.19l0.59 0 0 0 0 0.3 0 0.59 0 0.3 -0.3 0.3 0 0.3 0 0.3 0 0.59 0 0.3 0 0.3 0 0.3 0 0.59 0 0.3 0 0.3 0 0.3 0 0.29 0 0.59 0 0.29 0 0.3 0 0.3 0 0.3 0 0.3 0.3 0.59 0 0.3 0 0.3 0 0.3 0.3 0.3 0 0.3 0.3 0.59 0 0.3 0.3 0.3 0 0.29 0.3 0.3 -0.59 0.3 0 -0.3 -0.29 -0.3 0 -0.59 -0.3 -0.3 0 -0.29 -0.3 -0.3 0 -0.3 0 -0.59 -0.3 -0.3 0 -0.3 0 -0.3 0 -0.3 -0.3 -0.59 0 -0.3 0 -0.3 0 -0.3 0 -0.59 0 -0.3 0 -0.3 0 -0.3 0 -0.59 0 -0.3 0 -0.29 0 -0.3 0.3 -0.3 0 -0.59 0 -0.3 0 -0.3 0 -0.3 0 -0.59 0 -0.3 0 -0.3 0 0 0 0zm10.63 -6.2l-0.3 0.59 0 0 -0.3 -0.3 -0.59 0 -0.3 -0.3 -0.29 0 -0.59 0 -0.29 0 -0.3 0 -0.59 0 -0.3 0 -0.3 0 -0.59 0 -0.3 0.3 -0.3 0 -0.59 0 -0.3 0.3 -0.3 0.3 -0.3 0 -0.3 0.3 -0.3 0.3 -0.3 0.3 -0.3 0.29 -0.29 0.3 -0.3 0.3 -0.3 0.3 -0.3 0.3 -0.3 0.59 0 0.3 -0.3 0.3 0 0.59 -0.3 0.3 0 0.59 0 0.3 -0.59 0 0.3 -0.59 0 -0.3 0 -0.59 0.3 -0.3 0.3 -0.59 0 -0.3 0.3 -0.59 0.29 -0.3 0.3 -0.3 0.3 -0.3 0 -0.3 0.59 -0.3 0.3 -0.3 0.3 -0.29 0.3 -0.3 0.3 -0.3 0.3 0 0.59 -0.3 0.3 -0.3 0.3 0 0.59 0 0.3 -0.3 0.59 0 0.3 0 0.59 0 0.3 0 0.3 0 0.59 0 0.3 0.3 0.59 0 0.3 0.3 0.59 0 0 0 -0 0zm-0.3 0.59l0 0 0 -0.3 0 0.3zm0.89 0l0.3 0.3 -0.3 0 0 0 0 0 0 0 0 0 0 0 -0.3 0 0 0 0 0 0 0 0 0 0 0 0 0 0 -0.3 0 0 0 0 0 0 -0.3 0 0 0 0 0 0 0 0 0 0 0 0 0 0 0 0 0 0 0 0 0 -0.3 0 0 0 0 0 0 0 0 0 0.3 -0.59 0 0 0 0 0 0 0 0 0 0 0 0 0 0 0 0 0.3 0.29 0 0 0 0 0 0 0 0 0 0 0 0 0 0 0 0 0 0 0 0 0.3 0 0 0 0 0 0 0 0 0 0 0 0 0 0 0 0 0 0 0 0 0 0.3 0 0 0.3 -0.3 0 0 0zm0.3 0.3l0 0 -0.3 0 0.3 0zm0.3 -0.89l0.3 0.3 0 0 0 0 0 0 -0.3 0 0 0 0 0 0 0 0 0 0 0 0 0 0 0 0 0 0 0 0 0.3 0 0 0 0 0 0 0 0 0 0 0 0 0 0 0 0 -0.3 0 0 0 0 0 0 0 0 0 0 0 0 0.3 0 0 0 0 0 0 0 0 -0.3 -0.3 0 0 0 0 0 0 0 -0.3 0 0 0 0 0 0 0 0 0 0 0 0 0 0 0 0 0 0 0.3 0 0 0 0 0 0 0 0 0 0 -0.3 0 0 0 0 0 0 0 0 0 0 0 0 0 0 0 0 0 0 0 0 0 0 0 0 0.3 0 0 0zm0.3 0.3l0 0 0 0 0 0zm7.97 -0.89l-0.29 0.3 0 0 0 0 -0.3 -0.3 -0.3 -0.3 -0.3 0 -0.3 -0.3 0 0 -0.3 0 -0.3 -0.3 -0.3 0 -0.3 0 -0.3 -0.3 -0.29 0 -0.3 0 0 0 -0.3 0 -0.3 0 -0.3 0 -0.3 0 -0.3 0 -0.3 0.3 -0.3 0 -0.3 0 0 0 -0.29 0.3 -0.3 0 -0.3 0.3 -0.3 0 0 0.3 -0.3 0.3 -0.3 0 -0.3 0.3 0 0.29 -0.3 -0.29 0 -0.3 0.3 -0.3 0.3 -0.3 0.3 0 0 -0.3 0.3 -0.3 0.3 0 0.3 -0.3 0.3 0 0.29 0 0.3 -0.3 0.3 0 0.3 0 0.3 0 0.3 -0.3 0.3 0 0.3 0 0.3 0 0.3 0 0.29 0.3 0 0 0.3 0 0.3 0 0.3 0.3 0.3 0 0.3 0 0.3 0.3 0.3 0 0.3 0.3 0.3 0.3 0 0 0.29 0.3 0 0zm2.95 2.95l-0.3 0.59 0 0 0 0 0 -0.3 -0.29 0 0 0 -0.3 0 0 -0.3 0 0 -0.3 0 0 -0.3 0 0 -0.3 0 0 -0.3 0 0 0 0 -0.3 -0.3 0 0 0 0 -0.3 -0.3 0 0 0 0 -0.3 -0.3 0 0 0 -0.29 0 0 -0.3 0 0 -0.3 0 0 -0.3 0 0 -0.3 0 0 0 0 -0.3 -0.3 0.3 -0.3 0.3 0.3 0 0 0 0 0.3 0.3 0 0 0 0 0 0.3 0.3 0 0 0 0 0.3 0.3 0 0 0 0 0.29 0 0 0.3 0.3 0 0 0 0 0.3 0.3 0 0 0 0 0 0.3 0.3 0 0 0 0 0 0.3 0.3 0 0 0 0 0.29 0 0 0.3 0 0 0.3 0 0 0 0 0 0 0zm-0.3 0.59l0 0 -0.29 -0.29 0.29 0.29zm4.13 -0.29l0 0.59 0 0 -0.3 0 0 0 0 0 -0.3 0 0 0 -0.3 0 0 0 -0.3 0 0 0 0 0 -0.3 0 0 0 -0.29 0 0 0 -0.3 0 0 0 0 0 -0.3 0 0 0 -0.3 0 0 0 -0.3 0 0 0 0 0 -0.3 0 0 -0.3 -0.3 0 0 0 -0.3 0 0 0 0 0 -0.3 0 0.3 -0.59 0 0 0.3 0 0 0.3 0 0 0.3 0 0 0 0 0 0.3 0 0 0 0.3 0 0 0 0 0 0.3 0 0 0 0.3 0 0 0 0 0 0.3 0 0 0 0.29 0 0 0 0.3 0 0 0 0 0 0.3 0 0 0 0.3 0 0 0 0.3 0 0 0 0 0 0.3 0 0 0zm0 0.59l0 0 0 0 0 0zm1.48 0.59l-0.3 0.3 0 0 0 0 -0.3 0 0 -0.3 0 0 0 0 0 0 0 0 0 0 0 0 0 0 0 -0.29 0 0 -0.3 0 0 0 0 0 0 0 0 0 0 0 0 0 -0.3 -0.3 0 0 0 0 0 0 0 0 0 0 0 0 -0.29 0 0 0 0 0 0 0 0 0 0 0 0 -0.59 0 0 0 0 0 0 0.29 0 0 0 0 0 0 0.29 0 0 0.3 0 0 0 0 0 0 0 0 0 0.3 0 0 0 0 0.3 0 0 0 0 0 0 0.3 0 0 0 0 0 0 0.3 0 0 0 0 0 0 0 0 0.3 0 0 0.3 0 0 0 0 0 0 0 0 0 0zm-0.3 2.07l-0.3 -0.59 0 0 0 0 0 0 0 0 0 0 0 0 0 0 0 0 0 0 0 -0.3 0 0 0.3 0 0 0 0 0 0 0 0 -0.3 0 0 0 0 0 0 0 0 0 -0.29 0 0 0 0 0 0 0 0 0 0 0 0 0 -0.3 0 0 0 0 0 0 0 0 0 0 0.3 -0.3 0 0 0 0 0 0.3 0 0 0 0 0 0 0 0.3 0 0 0 0 0 0 0 0 0 0.29 0 0 0 0 0 0 0 0 0 0.3 0 0 0 0 0 0 0 0.3 0 0 0 0 0 0 0 0 0 0.3 -0.3 0 0 0 0 0 0 0 0 0 0 0.3 0 0 0 0zm-3.84 4.13l-0.3 -0.3 0 0 0 -0.3 0.3 0 0 0 0 -0.3 0.3 0 0 -0.29 0.3 0 0 -0.3 0.3 0 0 0 0 -0.3 0.3 0 0 -0.3 0.3 0 0 -0.3 0 0 0.3 -0.3 0 0 0.3 0 0 -0.3 0 0 0.3 -0.3 0 0 0.29 -0.3 0 0 0 -0.3 0.3 0 0 -0.29 0.3 0 0 -0.3 0 0 0.3 -0.3 0.3 0.59 0 0 -0.3 0.3 0 0 -0.3 0.3 0 0 0 0 -0.3 0.3 0 0 -0.3 0.29 0 0 0 0.3 -0.29 0 0 0.3 -0.3 0 0 0.3 0 0 -0.3 0.3 0 0 -0.3 0 0 0.3 -0.3 0 0 0.3 0 0 -0.3 0.3 0 0 -0.3 0.3 0 0 -0.3 0 0 0.3 0 0 -0.3 0.29 0 0 0 0 0 0zm-6.79 -0.3l0.3 -0.3 0 0 0 0 0.3 0.3 0 0 0.29 0.3 0.3 0 0 0.3 0.3 0 0.3 0 0 0.3 0.3 0 0.3 0 0 0 0.3 0.3 0.3 0 0 0 0.3 0 0.3 0 0.29 0 0 0 0.3 0 0.3 0 0 -0.3 0.3 0 0.3 0 0 0 0.3 -0.3 0.3 0 0 0 0.3 -0.3 0.3 0 0 -0.3 0.3 0 0.3 0.3 -0.3 0.3 -0.3 0 0 0.3 -0.3 0 -0.3 0.3 0 0 -0.3 0 -0.3 0.3 -0.3 0 0 0 -0.3 0 -0.3 0 -0.3 0 0 0 -0.29 0 -0.3 0 -0.3 0 0 0 -0.3 0 -0.3 0 -0.3 0 0 0 -0.3 -0.3 -0.3 0 -0.3 0 0 -0.3 -0.3 0 -0.29 -0.3 -0.3 0 0 -0.3 -0.3 0 0 -0.3 0 0zm-0.89 -0.59l0.3 -0.59 0 0 0 0 0 0 0 0 0 0 0 0 0 0 0 0.3 0 0 0.3 0 0 0 0 0 0 0 0 0 0 0 0 0 0 0 0 0.3 0 0 0 0 0.29 0 0 0 0 0 0 0 0 0 0 0 0 0 0 0 0 0.3 0 0 0 0 0 0 0.3 0 -0.3 0.3 -0.29 0 0 0 0 0 0 0 0 0 0 0 0 -0.3 0 0 0 0 0 0 0 0 -0.3 0 0 0 0 0 0 0 0 0 0 -0.3 0 0 0 0 0 0 0 0 0 0 0 0 0 0 -0.3 0 0 0 0 0 0 0 0 0 0 0 0 0 0 0 0 0 0 0zm0.3 -0.59l0 0 -0.59 -0.3 0.59 0.3zm-1.48 0.3l0 -0.3 0 0 0 0 0 -0.3 0 0 0 0 0.3 0 0 0 0 0 0 0 0 0 0 0 0.3 0 0 0 0 0 0 0 0 0 0 0 0 0 0.3 0 0 0 0 0 0 0.3 0 0 0 0 0 0 0.29 0 0 0 0 0 0 0 0 0 0 0 0 0 0.3 0 -0.3 0.59 0 0 0 -0.29 0 0 0 0 -0.29 0 0 0 0 0 0 0 0 0 0 0 0 0 0 0 -0.3 0 0 0 0 0 0 0 0 0 0 0 0 0 0 0 0 0 -0.3 0 0 0 0 0 0 0 0 0 0 0 0 0 0 0 0 0 -0.3 0 0 0 0 0 0 -0zm0 0l0 0 0 0 0 0zm0 0.89l-0.59 0 0 0 0 -0.3 0 0 0 0 0 0 0 0 0 0 0 0 0 0 0 -0.3 0 0 0 0 0 0 0.3 0 0 0 0 0 0 -0.3 0 0 0 0 0 0 0 0 0 0 0 0 0 0 0 -0.3 0 0 0 0 0 0 0 0 0.3 0 0 0 0 0 0 0 0 0.3 0 0 0 0 0 0 0 0 0 0 0 0 0 0 0 0 0 0 0 0 0 0 0 0.3 0 0 0 0 0 0 0 0 0 0 0 0 0 0 0 0 0 0.3 0 0 0 0 0 0 0 0 0 0 0 0 0 0 0 0.3 0 0 0 0 0 0 0 0 0 0zm-0.59 0l0 0 0 -0.3 0 0.3zm0.59 0.59l-0.59 0 0 0 0 0 0 0 0 0 0 0 0 0 0 0 0 0 0 0 0 0 0 -0.3 0 0 0 0 0 0 0 0 0 0 0 0 0 0 0 0 0 0 0 0 0 0 0 -0.3 0 0 0 0 0 0 0 0 0 0 0 0 0 0 0 0 0 0 0 0 0.59 0 0 0 0 0 0 0 0 0 0 0 0 0 0 0 0 0 0 0 0 0 0 0.3 0 0 0 0 0 0 0 0 0 0 0 0 0 0 0 0 0 0 0 0 0 0 0 0 0 0 0 0.3 0 0 0 0 0 0 0 0 0 0 0 0 0 0 0 0zm-0.59 0l0 0 0 0 0 0zm-1.18 7.09l0 0.59 -0.3 -0.59 0.3 0 0 -0.3 0 -0.3 0.3 -0.3 0 0 0.3 -0.3 0 -0.3 0 0 0 -0.3 0.3 -0.3 0 -0.3 0 0 0 -0.3 0 -0.3 0 -0.29 0.29 0 0 -0.3 0 -0.3 0 -0.3 0 0 0 -0.3 0 -0.3 0 -0.3 0 -0.3 0 0 0 -0.3 0 -0.3 0 -0.29 0 0 0 -0.3 0 -0.3 0 -0.3 0.59 0 0 0.3 0 0.3 0 0.3 0 0 0 0.29 0 0.3 0 0.3 0 0.3 0 0 0 0.3 0 0.3 -0.3 0.3 0 0 0 0.3 0 0.3 0 0.3 0 0.29 0 0 0 0.3 -0.3 0.3 0 0.3 0 0.3 0 0 0 0.3 -0.3 0.3 0 0.3 0 0.3 -0.3 0 0 0.3 -0.3 0.3 0 0.29 -0.3 0 0 -0.29 0 0zm0 0.59l-0.59 0 0.3 -0.59 0.3 0.59 0 0zm5.61 -1.48l0.3 0.59 0 0 -0.3 0 0 0.3 -0.3 0 0 0 -0.3 0 -0.3 0.3 0 0 -0.3 0 -0.3 0 0 0 -0.3 0 0 0 -0.3 0 -0.29 0.3 0 0 -0.3 0 -0.3 0 0 0 -0.3 0 0 0 -0.3 0 -0.3 0 0 0 -0.3 0 -0.3 0 0 0 -0.3 0 -0.3 0 0 0 -0.29 0 -0.3 0 0 0 0 -0.59 0 0 0.3 0 0.29 0 0 0 0.3 0 0.3 0 0 0 0.3 0 0.3 0 0 0 0.3 0 0.3 0 0 0 0.3 0 0 0 0.3 0 0.3 0 0 0 0.29 0 0 0 0.3 0 0.3 0 0 -0.3 0.3 0 0 0 0.3 0 0.3 0 0 0 0.3 -0.3 0 0 0.3 0 0 -0.3 0 0zm4.13 -1.77l0 0.59 0 0 0 0 0 0 -0.3 0.3 0 0 -0.3 0 0 0 -0.29 0 0 0 0 0.3 -0.3 0 0 0 -0.3 0 0 0 -0.3 0 0 0.3 0 0 -0.3 0 0 0 -0.3 0 0 0.3 -0.3 0 0 0 0 0 -0.3 0 0 0 -0.3 0.29 0 0 0 0 -0.3 0 0 0.3 -0.29 0 0 0 -0.3 -0.59 0.3 0 0 0 0.29 0 0 0 0 -0.3 0.3 0 0 0 0.3 0 0 0 0 -0.3 0.3 0 0 0 0.3 0 0 0 0.3 -0.29 0 0 0 0 0.3 0 0 0 0.3 0 0 -0.3 0.3 0 0 0 0 0 0.3 0 0 0 0.29 -0.3 0 0 0.3 0 0 0 0 0 0.3 -0.3 0 0zm10.04 2.95l-0.3 0.3 0 0 -0.3 -0.3 -0.3 -0.3 -0.3 -0.3 -0.3 -0.3 -0.3 -0.3 -0.3 -0.3 0 0 -0.3 -0.3 -0.29 -0.3 -0.3 0 -0.3 -0.29 -0.3 0 -0.3 -0.3 -0.3 0 -0.3 0 -0.3 -0.3 -0.3 0 -0.3 0 -0.3 0 -0.29 0 -0.3 0 -0.3 0 -0.59 0 -0.3 0 -0.3 0 -0.3 0 -0.3 0 -0.3 0 -0.3 0.3 -0.3 0 -0.3 0.3 -0.59 0 0 -0.59 0.3 0 0.3 0 0.3 -0.3 0.59 0 0.3 0 0.3 -0.29 0.3 0 0.3 0 0.3 0 0.3 0 0.59 0 0.3 0 0.29 0 0.3 0 0.3 0 0.3 0.29 0.3 0 0.3 0 0.3 0.3 0.3 0 0.3 0.3 0.3 0 0.3 0.3 0.29 0.3 0.3 0 0.3 0.3 0.3 0.3 0.3 0.3 0.3 0.3 0.3 0.3 0.3 0.3 0.3 0.29 0 0 0 0zm4.72 6.2l-0.3 0.3 0 0 0 -0.3 -0.3 0 0 -0.3 -0.29 -0.3 0 0 -0.3 -0.3 0 -0.29 -0.3 0 0 -0.3 -0.3 -0.3 -0.3 0 0 -0.3 -0.3 -0.3 0 0 -0.3 -0.3 0 -0.3 -0.3 0 0 -0.3 -0.3 -0.3 0 0 -0.3 -0.3 0 -0.29 -0.29 0 0 -0.3 -0.3 -0.3 0 0 -0.3 -0.3 0 -0.3 -0.3 0 0 -0.3 -0.3 -0.3 0 0 0.3 -0.3 0 0 0.3 0.3 0 0.3 0.3 0 0 0.3 0.3 0.3 0 0 0.29 0.3 0 0.3 0.3 0 0 0.3 0.3 0.29 0 0 0.3 0.3 0.3 0.3 0 0 0.3 0.3 0 0.3 0.3 0 0 0.3 0.3 0.3 0 0 0.3 0.3 0 0.3 0.3 0 0 0.3 0.29 0.29 0 0 0.3 0.3 0 0.3 0.3 0 0 0.3 0 0zm3.84 3.25l-0.3 0.59 0 0 0 -0.3 -0.3 0 0 0 -0.3 -0.3 0 0 -0.29 0 0 0 -0.3 -0.3 0 0 0 0 -0.3 -0.3 0 0 -0.3 0 0 -0.29 -0.3 0 0 0 0 -0.3 -0.3 0 0 0 -0.3 -0.3 0 0 0 -0.3 -0.3 0 0 0 0 -0.3 -0.3 0 0 -0.3 -0.3 0 0 -0.3 0 0 -0.29 0 0 -0.3 0.29 -0.3 0.3 0 0 0.3 0 0 0.3 0.3 0 0 0 0.3 0.3 0 0 0 0 0.3 0.3 0 0 0.3 0 0 0.3 0 0 0.3 0.3 0 0 0 0 0.3 0.3 0 0 0 0.3 0.3 0 0 0 0 0.3 0.29 0 0 0.29 0 0 0 0.3 0.3 0 0 0 0 0.3 0.3 0 0 0.3 0 0 0 0 0zm1.18 3.25l-0.3 -0.3 0 0 0 0 0 -0.3 0 0 0 -0.3 0 0 0 0 0 -0.3 0 0 0 0 0 -0.3 0 0 0 0 0 -0.3 0 0 0 0 0 0 0 0 0 -0.3 0 0 0 0 0 0 -0.3 0 0 -0.29 0 0 0 0 -0.3 0 0 0 0 -0.3 -0.3 0 0 0 0 0 -0.29 0 0.29 -0.59 0 0 0.3 0 0 0.29 0.3 0 0 0 0 0 0.3 0.3 0 0 0 0 0 0 0.3 0.3 0 0 0 0 0 0 0 0.3 0.3 0 0 0 0 0.3 0 0 0 0.3 0 0 0 0 0 0.3 0 0 0 0.3 0 0 0 0 0 0.3 -0.3 0 0 0.3 0 0 0 0.29 0 0 0 0zm-1.18 3.83l-0.3 0 0 0 0 -0.3 0 0 0 0 0 -0.29 0 0 0 -0.3 0 0 0.3 -0.3 0 0 0 0 0 -0.3 0 0 0 -0.3 0 0 0 -0.3 0.3 0 0 0 0 -0.3 0 0 0 -0.3 0 0 0 0 0 -0.3 0.3 0 0 -0.3 0 0 0 -0.29 0 0 0 0 0 -0.3 0.3 0 0 -0.3 0.3 0.3 0 0 0 0.3 0 0 0 0.29 -0.3 0 0 0 0 0.3 0 0 0 0.3 0 0 0 0 0 0.3 -0.3 0 0 0.3 0 0 0 0.3 0 0 0 0 0 0.3 0 0 -0.3 0.3 0 0 0 0.3 0 0 0 0 0 0.3 0 0 -0.3 0.29 0 0 0 0 0 0.3 0 0 0 0zm-2.36 1.48l0 -0.29 0 0 0.3 0 0 0 0 0 0.3 0 0 0 0 0 0 0 0.3 0 0 0 0 0 0 0 0 0 0.3 0 0 0 0 0 0 0 0 -0.3 0.3 0 0 0 0 0 0 0 0 0 0 -0.3 0 0 0.3 0 0 0 0 -0.3 0 0 0 0 0 -0.3 0 0 0.3 0 0.3 0 0 0.3 0 0 0 0.3 -0.3 0 0 0 0 0.3 0 0 0 0 0 0 -0.3 0.3 0 0 0 0 0 0 -0.3 0.29 0 0 0 0 0 0 -0.3 0 0 0 0 0 0 0.3 -0.3 0 0 0 0 0 -0.3 0 0 0 0 0 -0.3 0 0 0 0 -0.3 -0.3 0 0 0 0 0zm0 0l0 0 0 0 0 0zm-5.02 -1.18l0 -0.59 0 0 0.29 0 0 0 0.3 0 0 0.3 0.3 0 0 0 0.3 0 0 0 0.3 0 0 0.3 0.3 0 0.3 0 0 0 0.3 0 0 0 0.3 0 0 0.3 0.3 0 0 0 0.29 0 0 0 0.3 0 0 0 0.3 0.3 0 0 0.3 0 0.3 0 0 0 0.3 0 0 0 0.3 0.3 0 0 0 0.3 -0.3 0 0 0 -0.3 0 0 0 -0.3 0 0 -0.3 -0.3 0 0 0 -0.3 0 0 0 -0.3 0 -0.29 0 0 -0.3 -0.3 0 0 0 -0.3 0 0 0 -0.3 0 0 0 -0.3 -0.3 0 0 -0.3 0 0 0 -0.3 0 -0.3 0 0 0 -0.3 -0.3 0 0 -0.3 0 0 0 -0.29 0 0 0 0 0 0 0zm0 0l0 0 -0.3 -0.3 0.3 0.3zm-2.07 -1.48l0.3 -0.29 0 0 0.29 0 0 0.29 0 0 0 0 0 0 0 0 0.3 0 0 0 0 0.3 0 0 0 0 0 0 0.3 0 0 0 0 0 0 0 0 0.3 0 0 0.3 0 0 0 0 0 0 0 0 0 0.3 0 0 0 0 0 0 0.3 0 0 0.3 0 0 0 0 0 0 0 0 0.59 0 -0.3 -0.3 0 0 0 0 0 0 0 -0.3 0 0 0 0 0 0 0 0 0 -0.3 -0.3 0 0 0 0 0 0 0 0 -0.3 0 0 0 0 0 0 -0.29 0 0 -0.3 0 0 0 0 0 0 0 0 0 -0.29 -0.3 0 0 0 0 0 0 0 0 0 0 -0.3 -0.3 0 0 0 -0zm-4.13 -4.43l0.3 -0.3 0 0 0.3 0 0 0.3 0.3 0 0 0.3 0.3 0 0 0.3 0 0 0.3 0.29 0 0 0.3 0.3 0 0 0.29 0.3 0 0 0 0.3 0.3 0 0 0.3 0.3 0 0 0.3 0.3 0 0 0.3 0 0 0.3 0.3 0 0 0.3 0 0 0.3 0.3 0 0 0.3 0.3 0 0 0.29 0 0 0.3 0.3 0 0 -0.3 0.3 0 0 -0.3 0 0 -0.3 0 0 -0.3 -0.3 0 0 -0.3 -0.29 0 0 -0.3 -0.3 0 0 -0.3 -0.3 0 0 0 -0.3 -0.3 0 0 -0.3 -0.3 0 0 -0.3 -0.29 0 0 -0.3 -0.3 0 0 -0.3 0 0 -0.3 -0.3 0 0 -0.3 -0.3 0 0 -0.3 -0.29 0 0 0 -0.3 -0.3 0 0 0 -0.3 -0.3 0 0zm0 0l0 0 0.3 0.3 -0.3 -0.3zm-0.59 0l-0.3 -0.59 0 0 0 0 0 0 0 0 0.3 0 0 0 0 0 0 0 0 0 0 0 0 0 0.3 0 0 0 0 0 0 -0.3 0 0 0 0.3 0 0 0.3 0 0 0 0 0 0 0 0 0 0 0 0 0 0.3 0 0 0 0 0 0 0 0 0 0 0.3 0 0 0 0 -0.3 0.29 0 0 0 0 0 0 0 0 0 0 0 -0.29 0 0 0 0 0 0 -0.3 0 0 0 0 0 0 0 0 0 0 0 0 0 0 0 0 0 0 0 0 0 0 0 0 0 0 0 0 0 0 0 -0.3 0 0 0 0 0 0 0 0 0.29 0 0 0 0 0 0 0 0zm-5.91 4.13l-0.29 -0.3 0 0 0.29 0 0 -0.3 0.3 0 0.3 -0.3 0 0 0.3 -0.3 0 0 0.3 -0.3 0.3 0 0 -0.3 0.3 0 0.3 0 0 -0.3 0.3 0 0 -0.3 0.3 0 0.3 -0.3 0 0 0.29 -0.29 0.3 0 0 -0.3 0.3 0 0 -0.3 0.3 0 0.3 0 0 -0.3 0.3 0 0 -0.3 0.3 0 0.3 -0.3 0 0 0.3 -0.3 0.3 0.59 -0.3 0 0 0.3 -0.3 0 -0.3 0.3 0 0 -0.3 0.3 -0.3 0 0 0 -0.3 0.3 0 0 -0.3 0.3 -0.3 0 0 0.3 -0.3 0 -0.29 0.3 0 0 -0.3 0.29 0 0 -0.3 0 -0.3 0.3 0 0 -0.3 0.3 0 0 -0.3 0.3 -0.3 0 0 0.3 -0.3 0 -0.3 0.3 0 0 -0.3 0.3 0 0 -0.3 0 0 0 0 0zm-0.29 -0.3l0 0 0 0 0 0zm0 1.18l-0.3 0 0 0 0 0 0 0 0 0 0 -0.3 0 0 0 0 0 0 0 0 0 0 0 0 0 -0.3 0 0 0 0 0 0 0 0 0 0 0 0 0 0 0 -0.3 0 0 0 0 0 0 0 0 0 0 0.3 0 0 0 0 0 0 -0.3 0 0 0 0 0 0 0 0 0.29 0.3 0 0 0 0.3 0 0 0 0 0 0 0 0 0 0 0 0 0 0 0 0 0 0 -0.29 0 0 0 0 0 0 0 0 0 0 0.3 0 0 0 0 0 0 0 0 0 0 0 0 0 0 0 0 0 0 0 0 0 0 0 0.3 0 0 0 0 0 0 0 0zm-0.3 6.49l-0.3 0 0 0 0 -0.3 0 -0.3 0 0 0 -0.3 0 -0.29 0 0 0 -0.3 0.3 -0.3 0 0 0 -0.3 0 -0.3 0 0 0 -0.3 0 -0.3 0 -0.3 0 0 0 -0.3 0 -0.3 0 0 0 -0.29 0 -0.3 0 0 0 -0.3 0 -0.3 0 0 0 -0.3 0 -0.3 0 0 0 -0.3 0 -0.3 0 0 0 -0.3 0.3 0 0 0 0 0.3 0 0.3 0 0 0 0.3 0 0.3 0 0.3 0 0 0.3 0.3 0 0.3 0 0 0 0.3 0 0.29 0 0 -0.3 0.3 0 0.3 0 0.3 0 0 0 0.3 0 0.3 0 0 0 0.3 0 0.3 0 0 0 0.3 0 0.3 0 0.29 0 0 0 0.3 -0.3 0.3 0 0 0 0.3 0 0zm0.3 3.25l-0.59 0.3 0 0 0 -0.3 0 0 0 0 0 -0.3 0 0 0 -0.3 0 0 0 0 0 -0.3 0 0 0 0 0 -0.3 0 0 0 -0.29 0 0 0 0 0 -0.3 -0.29 0 0 0 0 -0.3 0 0 0 -0.3 0 0 0 0 0 -0.3 0 0 0.29 0 0 -0.3 0 0 0 -0.3 0 0 0 0 0.3 0 0 0 0 0.3 0 0 0 0 0 0.3 0 0 0 0 0 0.3 0 0 0 0 0 0.3 0 0 0 0.3 0 0 0 0 0 0.3 0 0 0 0 0 0.29 0 0 0 0 0 0.3 0 0 0 0 0 0.3 0 0 0 0.3 0.3 0 0 0 0 0.3 0 0 0 0 0 0 0 0zm0.59 5.31l0 0.3 -0.3 0 0 -0.3 0 -0.29 0 0 0 -0.3 0 0 0 -0.3 0 0 -0.29 -0.3 0 -0.3 0 0 0 -0.3 0 0 0 -0.3 0 0 0 -0.3 0 0 0 -0.3 -0.3 -0.3 0 0 0 -0.29 0 0 0 -0.3 0 0 0 -0.3 0 0 0 -0.3 0 -0.3 0 0 -0.3 -0.3 0 0 0 -0.3 0 0 0.59 -0.3 0 0.3 0 0 0 0.3 0 0.3 0 0 0 0.3 0 0 0 0.3 0 0 0.3 0.3 0 0 0 0.3 0 0.29 0 0 0 0.3 0 0 0 0.3 0 0 0 0.3 0.3 0 0 0.3 0 0.3 0 0 0 0.3 0 0 0 0.3 0 0 0 0.3 0 0 0.3 0.3 0 0.29 0 0 -0.3 0 -0 0zm0 0.3l-0.3 0 0 0 0.3 0zm1.18 -0.3l0 0.3 0 0 0 0 0 0 0 0 0 0 0 0 -0.3 0 0 0 0 0 0 0 0 0 0 0 0 0 0 0 -0.3 0 0 0 0 0 0 0 0 0 0 0 0 0 0 0 -0.29 0 0 0 0 0 0 0 0 0 0 0 0 0 -0.3 0 0 0 0 0 0 0 0 -0.3 0 0 0 0 0 0 0.3 0 0 0 0 0 0 0 0 0 0 0 0 0 0.29 0 0 0 0 0 0 0 0 0 0 0 0 0 0 0 0.3 0 0 0 0 0 0 0 0 0 0 0 0 0 0 0 0.3 0 0 0 0 0 0 0 0 0 0 0 0 0zm22.14 0l0 0.3 0 0 -0.59 0 -0.89 0 -0.59 0 -0.59 0 -0.89 0 -0.59 0 -0.59 0 -0.89 0 -0.59 0 -0.59 0 -0.89 0 -0.59 0 -0.59 0 -0.89 0 -0.59 0 -0.59 0 -0.89 0 -0.59 0 -0.59 0 -0.89 0 -0.59 0 -0.59 0 -0.89 0 -0.59 0 -0.89 0 -0.59 0 -0.59 0 -0.89 0 -0.59 0 -0.59 0 -0.89 0 -0.59 0 0 -0.3 0.59 0 0.89 0 0.59 0 0.59 0 0.89 0 0.59 0 0.59 0 0.89 0 0.59 0 0.89 0 0.59 0 0.59 0 0.89 0 0.59 0 0.59 0 0.89 0 0.59 0 0.59 0 0.89 0 0.59 0 0.59 0 0.89 0 0.59 0 0.59 0 0.89 0 0.59 0 0.59 0 0.89 0 0.59 0 0.59 0 0.89 0 0.59 0 0 0zm2.36 2.36l-0.3 0 0 0 0 0 0 -0.3 0 0 0 -0.3 -0.3 0 0 -0.29 0 0 0 0 0 -0.3 0 0 0 0 0 -0.3 0 0 0 0 0 0 -0.3 0 0 -0.3 0 0 0 0 0 0 -0.3 0 0 0 0 0 -0.3 0 0 -0.3 0 0 -0.3 0 0 0 0 0 -0.3 0 0 0 -0.3 0 0 -0.3 0.3 0 0 0 0.3 0 0 0 0.3 0 0 0 0 0 0.3 0 0 0 0.3 0 0 0 0 0 0.3 0.3 0 0 0 0 0 0 0.3 0.3 0 0 0 0 0 0.3 0 0 0.3 0 0 0.3 0 0 0 0.3 0 0 0 0.29 0 0 0 0.3 0 0 0 0.3 0 0 0 0zm0 11.81l-0.3 0 0 0 0 -0.3 0 -0.3 0 -0.59 0 -0.3 0 -0.3 0 -0.3 0 -0.59 0 -0.3 0 -0.3 0 -0.3 0 -0.59 0 -0.3 0 -0.3 0 -0.3 0 -0.59 0 -0.3 0 -0.3 0 -0.29 0 -0.59 0 -0.29 0 -0.3 0 -0.3 0 -0.59 0 -0.3 0 -0.3 0 -0.3 0 -0.59 0 -0.3 0 -0.3 0 -0.3 0 -0.3 0 -0.59 0.3 0 0 0.59 0 0.3 0 0.3 0 0.3 0 0.3 0 0.59 0 0.3 0 0.3 0 0.3 0 0.59 0 0.3 0 0.3 0 0.29 0 0.59 0 0.29 0 0.3 0 0.3 0 0.59 0 0.3 0 0.3 0 0.3 0 0.59 0 0.3 0 0.3 0 0.3 0 0.59 0 0.3 0 0.3 0 0.3 0 0.59 0 0.3 0 0.3 0 0zm-2.36 2.65l0 -0.59 0 0 0.3 0 0 0 0.3 0 0 0 0.3 0 0 0 0 0 0.29 0 0 0 0 0 0 -0.3 0.3 0 0 0 0 0 0 0 0 0 0.3 0 0 -0.3 0 0 0 0 0 0 0 -0.3 0 0 0 0 0 -0.29 0 0 0 0 0.3 -0.3 0 0 0 -0.3 0 0 0 -0.3 0.3 0 0 0.3 0 0 0 0.3 0 0 0 0.3 0 0 0 0.29 0 0 0 0.3 0 0 -0.3 0 0 0.3 0 0 0 0 0 0.3 -0.3 0 0 0 0 0 0 0.3 -0.3 0 0 0 0 0 -0.3 0 0 0 0 0 -0.29 0.3 0 0 -0.3 0 0 0 -0.3 0 0 0 -0.3 0 0 0 0 0zm-85.02 0l0 -0.59 0 0 2.65 0 2.66 0 2.66 0 2.65 0 2.66 0 2.66 0 2.66 0 2.65 0 2.66 0 2.66 0 2.65 0 2.66 0 2.66 0 2.66 0 2.65 0 2.66 0 2.66 0 2.65 0 2.66 0 2.66 0 2.66 0 2.65 0 2.66 0 2.66 0 2.65 0 2.66 0 2.66 0 2.65 0 2.66 0 2.66 0 2.66 0 2.65 0 0 0.59 -2.65 0 -2.66 0 -2.66 0 -2.66 0 -2.65 0 -2.66 0 -2.66 0 -2.65 0 -2.66 0 -2.66 0 -2.65 0 -2.66 0 -2.66 0 -2.66 0 -2.65 0 -2.66 0 -2.66 0 -2.65 0 -2.66 0 -2.66 0 -2.66 0 -2.65 0 -2.66 0 -2.66 0 -2.65 0 -2.66 0 -2.66 0 -2.66 0 -2.65 0 -2.66 0 -2.66 0 -2.65 0 0 0zm-2.36 -2.65l0.59 0 0 0 0 0.29 0 0 0 0.3 0 0 0 0.3 0 0 0 0 0 0.3 0 0 0 0 0 0.3 0.3 0 0 0 0 0 0 0.3 0 0 0 0 0 0 0.3 0 0 0 0 0 0 0.3 0.3 0 0 0 0 0 0.29 0 0 0 0 0 0.3 0 0 0 0.3 0 0 0 0 0.59 0 0 -0.3 0 0 0 -0.3 0 0 0 -0.29 0 0 -0.3 0 0 -0.3 0 0 0 0 0 -0.3 0 0 0 0 -0.3 -0.3 0 0 0 0 0 0 -0.3 -0.3 0 0 0 0 -0.3 0 0 0 0 0 -0.3 0 0 0 -0.29 0 0 -0.3 -0.3 0 0 0 -0.3 0 0 0 -0.3 0 0 0 0zm0 -11.81l0.59 0 0 0 0 0.59 0 0.3 0 0.3 0 0.3 0 0.59 0 0.3 0 0.3 0 0.3 0 0.59 0 0.3 0 0.3 0 0.3 0 0.59 0 0.3 0 0.3 0 0.29 0 0.59 0 0.29 0 0.3 0 0.3 0 0.59 0 0.3 0 0.3 0 0.3 0 0.59 0 0.3 0 0.3 0 0.3 0 0.59 0 0.3 0 0.3 0 0.3 -0.59 0 0 -0.3 0 -0.3 0 -0.3 0 -0.59 0 -0.3 0 -0.3 0 -0.3 0 -0.59 0 -0.3 0 -0.3 0 -0.3 0 -0.59 0 -0.3 0 -0.3 0 -0.29 0 -0.59 0 -0.29 0 -0.3 0 -0.3 0 -0.59 0 -0.3 0 -0.3 0 -0.3 0 -0.59 0 -0.3 0 -0.3 0 -0.3 0 -0.59 0 -0.3 0 -0.3 0 -0.3 0 -0.59 0 0zm2.36 -2.36l0 0.3 0 0 0 0 -0.3 0 0 0 -0.3 0 0 0 0 0 -0.3 0 0 0.3 0 0 -0.3 0 0 0 0 0 0 0 -0.3 0 0 0 0 0.3 0 0 0 0 0 0 0 0 -0.3 0.3 0 0 0 0 0 0.3 0 0 0 0 0 0.3 0 0 0 0.3 0 0 0 0.3 0 0 -0.59 0 0 0 0 -0.3 0 0 0 -0.3 0.3 0 0 -0.3 0 0 0 -0.3 0 0 0 -0.3 0 0 0 0 0 -0.3 0.3 0 0 0 0 -0.3 0 0 0.3 0 0 0 0 -0.3 0.3 0 0 0 0 0 0.3 0 0 0 0 0 0.29 0 0 0 0.3 0 0 0 0.3 0 0 0 0 0 0 0zm30.11 0l0 0.3 0 0 -0.89 0 -0.89 0 -0.89 0 -0.89 0 -1.18 0 -0.89 0 -0.89 0 -0.89 0 -0.89 0 -1.18 0 -0.89 0 -0.89 0 -0.89 0 -0.89 0 -0.89 0 -1.18 0 -0.89 0 -0.89 0 -0.89 0 -0.89 0 -1.18 0 -0.89 0 -0.89 0 -0.89 0 -0.89 0 -1.18 0 -0.89 0 -0.89 0 -0.89 0 -0.89 0 -0.89 0 -1.18 0 0 -0.3 1.18 0 0.89 0 0.89 0 0.89 0 0.89 0 0.89 0 1.18 0 0.89 0 0.89 0 0.89 0 0.89 0 1.18 0 0.89 0 0.89 0 0.89 0 0.89 0 1.18 0 0.89 0 0.89 0 0.89 0 0.89 0 0.89 0 1.18 0 0.89 0 0.89 0 0.89 0 0.89 0 1.18 0 0.89 0 0.89 0 0.89 0 0.89 0 0 0zm1.18 0.3l0.3 -0.3 0 0.3 -0.3 0 0 0 0 0 0 0 0 0 0 0 0 0 -0.29 0 0 0 0 0 0 0 0 0 0 0 0 0 -0.3 0 0 0 0 0 0 0 0 0 0 0 0 0 -0.3 0 0 0 0 0 0 0 0 0 0 0 0 0 0 0 0 0 -0.3 0 0 0 0 -0.3 0 0 0.3 0 0 0 0 0 0 0 0 0 0 0 0 0 0 0 0 0 0.3 0 0 0 0 0 0 0 0 0 0 0 0 0 0.3 0 0 0 0 0 0 0 0 0 0 0 0 0 0.29 0 0 0 0 0 0 0 0 0 0 0 0 0 0.3 0 -0.3 0.3zm0.3 -0.3l0.3 0.3 -0.3 0 0 -0.3zm-1.47 -8.56l0.59 0 0 0 0 0.3 0 0.3 0.3 0.3 0 0.3 0 0 0 0.3 0 0.3 0 0.3 0.29 0.29 0 0.3 0 0.3 0 0.3 0 0.3 0 0.3 0 0.3 0 0.3 0 0 0 0.3 0 0.3 0 0.29 0 0.3 0 0.3 0 0.3 0 0.3 0.3 0.3 0 0.3 0 0.3 0 0.3 0 0 0 0.3 0 0.29 0 0.3 -0.3 0.3 0 -0.3 0 -0.3 -0.29 -0.29 0 -0.3 0 -0.3 0 -0.3 0 -0.3 0 -0.3 0 -0.3 0 -0.3 0 -0.3 0 -0.3 0 -0.29 0 -0.3 0 0 0 -0.3 0 -0.3 -0.3 -0.3 0 -0.3 0 -0.3 0 -0.3 0 -0.3 0 -0.3 0 -0.29 0 0 0 -0.3 -0.3 -0.3 0 -0.3 0 -0.3 0 -0.3 0 -0.3 -0.3 -0.3 0 0 0 0zm-0.3 -5.61l0.59 0 0 0 -0.3 0.29 0 0 0 0.3 0 0.3 0 0 0 0.3 0 0 0 0.3 0 0.3 0 0 0 0.3 0 0 0 0.3 0 0 0 0.3 0 0.3 0 0 0 0.3 0 0 0 0.29 0 0.3 0 0 0 0.3 0.3 0 0 0.3 0 0 0 0.3 0 0.3 0 0 0 0.3 0.3 0 0 0.3 -0.59 0 0 0 0 -0.3 0 0 0 -0.3 -0.3 -0.3 0 0 0 -0.3 0 0 0 -0.3 0 -0.3 0 0 0 -0.3 0 0 0 -0.29 0 -0.3 -0.3 0 0 -0.3 0 0 0 -0.3 0 -0.3 0 0 0 -0.3 0 -0.3 0.3 0 0 -0.3 0 0 0 -0.3 0 -0.3 0 0 0 -0.3 0 -0.29 0 0 0 0zm-0.3 -1.48l0.59 -0.29 0 0 0 0 0 0 0 0 0 0.29 0 0 0 0 0 0 0 0 0 0.3 0 0 0 0 0 0 0.29 0 0 0.3 0 0 0 0 0 0 0 0 0 0.3 0 0 0 0 0 0 0 0 0 0.3 0 0 0 0 0 0 0 0 0 0.3 0 0 0 0 0 0 -0.59 0 0 0 0 0 0 -0.3 0 0 0 0 0 0 0 0 0 0 0 -0.3 0 0 0 0 0 0 0 0 0 0 0 -0.3 0 0 0 0 0 0 0 0 0 -0.3 0 0 0 0 0 0 0 0 0 0 0 0 0 -0.3 0 0 0 0 0 0 -0.3 0 0 0 0 0zm0.59 -0.29l0 0 0 0 0 0zm-12.99 -24.5l0.59 -0.3 0 0 0.3 0.89 0.3 0.59 0.59 0.89 0.3 0.89 0.3 0.59 0.59 0.89 0.3 0.59 0.3 0.89 0.59 0.89 0.3 0.59 0.3 0.89 0.3 0.89 0.59 0.59 0.3 0.89 0.3 0.59 0.59 0.89 0.3 0.89 0.3 0.59 0.59 0.89 0.3 0.59 0.3 0.89 0.59 0.89 0.3 0.59 0.29 0.89 0.59 0.89 0.29 0.59 0.3 0.89 0.3 0.59 0.59 0.89 0.3 0.89 0.3 0.59 0.59 0.89 -0.59 0.29 -0.3 -0.89 -0.3 -0.89 -0.59 -0.59 -0.3 -0.89 -0.3 -0.59 -0.29 -0.89 -0.59 -0.89 -0.29 -0.59 -0.3 -0.89 -0.59 -0.89 -0.3 -0.59 -0.3 -0.89 -0.59 -0.59 -0.3 -0.89 -0.3 -0.89 -0.59 -0.59 -0.3 -0.89 -0.3 -0.59 -0.59 -0.89 -0.3 -0.89 -0.3 -0.59 -0.3 -0.89 -0.59 -0.89 -0.3 -0.59 -0.3 -0.89 -0.59 -0.59 -0.3 -0.89 -0.3 -0.89 -0.59 -0.59 -0.3 -0.89 -0.3 -0.59 -0.59 -0.89 0 0zm2.07 -15.06l0.3 0.3 0 0 -0.3 0.59 -0.3 0.3 -0.59 0.59 0 0.3 -0.3 0.3 -0.3 0.59 -0.29 0.3 -0.3 0.59 0 0.3 -0.3 0.59 -0.3 0.3 0 0.59 -0.3 0.3 0 0.59 0 0.3 0 0.59 -0.3 0.3 0 0.59 0 0.3 0 0.59 0 0.3 0.3 0.59 0 0.3 0 0.59 0 0.59 0.3 0.3 0 0.59 0.3 0.59 0 0.3 0.3 0.59 0.3 0.3 0.29 0.59 -0.59 0.3 0 -0.59 -0.3 -0.3 -0.29 -0.59 -0.3 -0.59 0 -0.59 -0.3 -0.3 0 -0.59 0 -0.59 -0.3 -0.3 0 -0.59 0 -0.59 0 -0.3 0 -0.59 0 -0.3 0 -0.59 0 -0.59 0 -0.3 0.3 -0.59 0 -0.3 0 -0.59 0.3 -0.59 0.3 -0.3 0 -0.59 0.29 -0.3 0.3 -0.59 0 -0.3 0.3 -0.59 0.3 -0.3 0.3 -0.3 0.3 -0.59 0.59 -0.3 0.3 -0.59 0 0 0 0zm11.51 -12.4l0.3 0.3 0 0 -0.59 0.3 -0.3 0.3 -0.3 0.59 -0.3 0.3 -0.29 0.3 -0.59 0.59 -0.29 0.3 -0.3 0.3 -0.3 0.59 -0.59 0.3 -0.3 0.3 -0.3 0.59 -0.3 0.3 -0.3 0.3 -0.59 0.59 -0.3 0.3 -0.3 0.29 -0.3 0.59 -0.3 0.29 -0.59 0.3 -0.3 0.59 -0.3 0.3 -0.29 0.3 -0.3 0.59 -0.59 0.3 -0.3 0.3 -0.3 0.59 -0.3 0.3 -0.59 0.3 -0.3 0.59 -0.3 0.3 -0.3 0.3 -0.3 -0.3 0.3 -0.3 0.3 -0.3 0.3 -0.59 0.59 -0.3 0.3 -0.3 0.3 -0.59 0.3 -0.3 0.3 -0.3 0.59 -0.59 0.3 -0.3 0.29 -0.29 0.3 -0.59 0.59 -0.29 0.3 -0.3 0.3 -0.59 0.3 -0.3 0.3 -0.3 0.59 -0.59 0.3 -0.3 0.3 -0.3 0.3 -0.59 0.3 -0.3 0.59 -0.3 0.3 -0.59 0.3 -0.3 0.3 -0.3 0.29 -0.59 0.59 -0.3 0.29 -0.3 0.3 -0.59 0.3 -0.3 0.59 -0.3 0 0zm2.95 -0.59l-0.3 0.59 0 0 0 0 -0.3 -0.3 0 0 0 0 -0.29 0 0 -0.3 0 0 -0.3 0 0 0 0 0 0 0 -0.3 0 0 0 0 0 0 0 0 0 -0.3 0 0 0 0 0 0 0 0 0 -0.3 0 0 0 0 0.3 0 0 -0.3 0 0 0 0 0.3 0 0 -0.3 0 0 0 0 0.3 -0.3 -0.3 0 -0.3 0 0 0 0 0.3 -0.3 0 0 0 0 0.3 -0.3 0 0 0 0 0.3 0 0 0 0 0 0 -0.29 0.3 0 0 0 0 0 0.3 0 0 0 0 0 0.3 0 0 0 0 0 0.3 0.29 0 0 0 0 0.29 0 0 0 0 0 0.3 0.3 0 0 0 0 0.3 0 0 0 0 0zm3.84 2.95l-0.3 0.3 0 0 -0.3 0 0 0 0 -0.3 -0.3 0 0 0 -0.29 -0.3 0 0 0 0 -0.3 0 0 -0.3 -0.3 0 0 0 0 -0.3 -0.3 0 0 0 -0.3 -0.3 0 0 0 0 -0.3 0 0 -0.3 -0.3 0 0 0 0 -0.29 -0.3 0 0 0 -0.3 0 0 -0.3 0 0 -0.3 0 0 -0.3 -0.29 0 0 0 0.29 -0.59 0 0.3 0.3 0 0 0 0 0.29 0.3 0 0 0 0.3 0 0 0.3 0 0 0.3 0 0 0.3 0.3 0 0 0 0 0 0.3 0.3 0 0 0.3 0 0 0.3 0 0 0.3 0 0 0.3 0.3 0 0 0 0 0 0.29 0.3 0 0 0.3 0 0 0.3 0 0 0.3 0 0 0.3 0.3 0 0 0 0 0zm0 0l0 0 0 0 0 0zm0 3.25l-0.3 -0.3 0 0 0.3 -0.3 0 0 0 0 0 0 0.3 -0.3 0 0 0 0 0 -0.3 0 0 0 0 0 0 0 -0.3 0 0 0.3 0 0 0 -0.3 -0.3 0 0 0 0 0 0 0 -0.3 0 0 0 0 0 0 0 -0.29 0 0 -0.3 0 0 0 0 -0.3 0 0 -0.3 0 0 -0.3 0 0 0.3 -0.3 0 0 0 0 0.3 0.3 0 0 0 0 0 0.3 0.3 0 0 0 0 0.3 0 0 0.3 0 0 0.29 0 0 0 0 0 0.3 0 0 0 0.3 0 0 0 0 0 0.3 0 0 0 0 0 0.3 -0.3 0 0 0.3 0 0 0 0 0 0.3 -0.3 0 0 0 0 0.3 -0.3 0 0 0zm-3.84 7.08l-0.3 -0.3 0 0 0 -0.3 0 -0.29 0 -0.3 0.3 0 0 -0.3 0 -0.3 0.3 -0.3 0 -0.3 0 -0.3 0.3 0 0 -0.3 0 -0.3 0.3 -0.3 0 -0.29 0 0 0.3 -0.3 0 -0.3 0.3 -0.3 0 -0.3 0.3 0 0 -0.3 0.3 -0.3 0 0 0.3 -0.3 0 -0.3 0.29 0 0 -0.3 0.3 -0.3 0.3 0 0 -0.29 0.3 -0.3 0 0 0.3 0.3 0 0.29 -0.3 0 0 0.3 -0.3 0 -0.3 0.3 0 0.3 -0.3 0 0 0.3 -0.29 0.3 0 0 -0.3 0.3 0 0.3 -0.3 0 0 0.3 0 0.3 -0.3 0.3 0 0 -0.3 0.29 0 0.3 0 0.3 -0.3 0 0 0.3 0 0.3 -0.3 0.3 0 0.3 0 0 -0.3 0.3 0 0.3 0 0.3 0 0.29 -0.3 0.3 0 0.3 0 0zm-2.36 6.79l-0.29 0 0 0 0 -0.3 0 -0.3 0 -0.3 0.29 0 0 -0.3 0 -0.3 0 0 0.3 -0.3 0 -0.3 0 -0.29 0 0 0.3 -0.3 0 -0.3 0 -0.3 0.3 0 0 -0.3 0 -0.3 0 -0.3 0.3 0 0 -0.3 0 -0.3 0 -0.3 0.3 0 0 -0.29 0 -0.3 0 -0.3 0.3 0 0 -0.3 0 -0.3 0 -0.3 0 0 0.3 -0.3 0.3 0.3 0 0 0 0.3 -0.3 0.3 0 0.3 0 0 0 0.3 -0.3 0.3 0 0.29 0 0 0 0.3 -0.3 0.3 0 0 0 0.3 0 0.3 -0.3 0.3 0 0 0 0.3 0 0.3 -0.3 0.3 0 0 0 0.3 0 0.29 -0.3 0.3 0 0 0 0.3 0 0.3 -0.3 0.3 0 0 0 0.3 0 0.3 -0.3 0.3 0 0 0 0zm0 0l0 0 0 0 0 0zm0 1.18l-0.29 0.3 0 0 0 0 0 0 0 0 0 0 0 -0.3 0 0 0 0 0 0 0 0 0 0 0 -0.3 0 0 0 0 -0.3 0 0 0 0 -0.3 0 0 0 0 0 0 0 0 0 0 0 -0.3 0 0 0 0 0.3 0 0 0 0 0 0 -0.3 0 0 0 0 0 0 0 0 0.29 0 0 0 0 0 0 0.3 0 0 0 0 0 0 0 0 0 0 0 0 0 0.3 0 0 0 0 0 0 0 0 0 0 0 0 0 0 0 0.3 0 0 0 0 0 0 0 0 0 0 0 0 0 0.3 0 0 0 0 0 0 0 0 0 0 0 0 0 0 0 0zm8.86 15.35l-0.3 0.3 0 0 -0.3 -0.3 -0.3 -0.59 -0.3 -0.59 -0.3 -0.3 -0.3 -0.59 0 -0.59 -0.29 -0.29 -0.3 -0.59 -0.3 -0.29 -0.3 -0.59 -0.3 -0.59 -0.3 -0.3 -0.3 -0.59 -0.3 -0.59 -0.3 -0.3 -0.3 -0.59 -0.29 -0.3 -0.3 -0.59 -0.3 -0.59 -0.3 -0.3 -0.3 -0.59 -0.3 -0.59 0 -0.3 -0.3 -0.59 -0.3 -0.3 -0.3 -0.59 -0.3 -0.59 -0.29 -0.3 -0.3 -0.59 -0.3 -0.59 -0.3 -0.3 -0.3 -0.59 0.3 -0.3 0.3 0.59 0.3 0.3 0.3 0.59 0.29 0.59 0.3 0.3 0.3 0.59 0.3 0.59 0.3 0.3 0.3 0.59 0.3 0.59 0.3 0.3 0.3 0.59 0.3 0.3 0.29 0.59 0 0.59 0.3 0.3 0.3 0.59 0.3 0.59 0.3 0.29 0.3 0.59 0.3 0.29 0.3 0.59 0.3 0.59 0.3 0.3 0.29 0.59 0.3 0.59 0.3 0.3 0.3 0.59 0.3 0.3 0.3 0.59 0.3 0.59 0 0.3 0 0zm0.59 0.89l0.3 0.3 -0.3 0 0 0 0 0 0 0 0 0 0 0 0 -0.3 -0.3 0 0 0 0 0 0 0 0 0 0 0 0 0 0 0 0 0 0 0 0 0 -0.3 0 0 0 0 -0.3 0 0 0 0 0 0 0 0 0 0 0 0 0 0 0 0 -0.3 0 0 -0.3 0 0 0 0 0.3 -0.3 0.3 0 0 0 0 0.3 0 0 0 0 0 0 0 0 0 0 0 0 0 0 0 0 0 0 0 0 0 0 0 0 0.3 0 0 0 0 0.3 0 0 0 0 0 0 0 0 0 0 0 0 0 0 0 0 0.3 0 0 0 0 0 0 0 0 0 0 0.3 -0.3 0zm0.3 0.3l0 0 -0.3 0 0.3 0zm-0.3 -0.3l0.59 -0.3 0 0.3 0 0 0 0 0 0 0 0 0 0 0 0 0 0 -0.3 0 0 0 0 0 0 0 0 0 0 0 0 0 0 0 0 0 0 0 0 0 0 0.3 0 0 0 0 0 0 0 0 0 0 0 0 0 0 0 0 0 0 0 0 0 0 0 0 0 0 -0.3 -0.3 0 0 0 0 0 0 0 0 0 0 0 -0.3 0 0 0 0 0 0 0 0 0 0 0 0 0 0 0 0 0 0 0 0 0 0 0 0 0 0 0 0 0 0 0 0 0 0 0 0 0 0 0 0 0 0 0 0 0 0 0.3 0 0 0 0 0 -0.3 0.3 0 0zm0.59 -0.3l0 0.29 0 0 0 -0.29zm-7.09 -32.18l0 0 0 0 0 0 0 0 0 0zm0.3 -0.3l0.3 0.3 -0.3 0.3 0 -0.59 0 0zm-1.48 -0.3l0.3 -0.3 0 0 0.3 0 0 0 0 0 0 0 0 0 0 0 0 0 0 0 0 0 0 0 0 0 0 0 0.3 0 0 0.3 0 0 0 0 0 0 0 0 0 0 0 0 0 0 0.3 0 0 0 0 0 0 0 0 0 0 0.3 0 0 0 0 0.3 0 0 0 0 0 -0.3 0.3 0 0 0 0 0 0 -0.3 0 0 0 0 0 0 0 0 0 0 0 0 0 0 -0.3 -0.3 0 0 0 0 0 0 0 0 0 0 0 0 0 0 0 0 0 -0.3 0 0 0 0 0 0 -0.3 0 0 0 0 0 0 0 0 0 0 0 0 0 0 -0.3 0 0 0zm0 0l0 0 0 0 0 0zm-1.48 0l-0.3 -0.3 0 0 0.3 0 0 0 0 -0.3 0 0 0 0 0.3 0 0 0 0 0 0 -0.3 0 0 0.3 0 0 0 0 0 0 0 0.3 0 0 0 0 0 0 0 0.3 0 0 0 0 0 0 0 0 0 0.3 0 0 0 0 0 0 0.3 0.3 0 0 0 0 0 0 0 0 0.3 -0.3 0.3 0 0 0 -0.3 0 0 0 0 0 0 -0.3 0 0 0 0 0 0 0 0 0 0 0 -0.3 -0.3 0 0 0 0 0 0 0 0 0 0 0 0 0 0.3 -0.3 0 0 0 0 0 0 0 0 0 0 0 -0.3 0 0 0 0 0 0 0.3 0 0 0 0 -0.3 0 0 0zm-10.04 11.51l-0.3 -0.59 0 0 0.3 -0.3 0.3 -0.3 0.3 -0.3 0.3 -0.3 0.3 -0.59 0.3 -0.3 0.29 -0.3 0.3 -0.3 0.3 -0.29 0.59 -0.59 0.3 -0.29 0.3 -0.3 0.3 -0.3 0.3 -0.3 0.3 -0.3 0.3 -0.59 0.3 -0.3 0.3 -0.3 0.29 -0.3 0.3 -0.3 0.3 -0.59 0.59 -0.3 0.3 -0.3 0.3 -0.3 0.3 -0.3 0.3 -0.59 0.3 -0.3 0.3 -0.29 0.3 -0.3 0.3 -0.3 0.3 -0.59 0.29 -0.3 0.3 0.3 -0.3 0.3 -0.29 0.59 -0.3 0.3 -0.3 0.29 -0.3 0.3 -0.3 0.59 -0.3 0.3 -0.3 0.3 -0.3 0.3 -0.3 0.3 -0.3 0.59 -0.59 0.3 -0.3 0.3 -0.3 0.3 -0.29 0.3 -0.3 0.3 -0.3 0.59 -0.3 0.3 -0.3 0.3 -0.3 0.3 -0.3 0.29 -0.3 0.59 -0.3 0.29 -0.59 0.3 -0.3 0.3 -0.3 0.3 -0.29 0.59 -0.3 0.3 -0.3 0.3 -0.3 0.3 -0.3 0.3 -0.3 0.59 0 0zm-1.48 10.33l-0.3 0 0 0 -0.3 -0.29 0 -0.3 -0.29 -0.3 0 -0.59 -0.3 -0.3 0 -0.3 0 -0.3 -0.3 -0.59 0 -0.3 0 -0.3 0 -0.3 0 -0.3 0 -0.59 0 -0.3 0 -0.3 0 -0.3 0 -0.29 0 -0.3 0.3 -0.59 0 -0.3 0 -0.3 0.3 -0.3 0 -0.3 0.29 -0.3 0 -0.3 0.3 -0.3 0.3 -0.3 0 -0.3 0.3 -0.29 0.3 -0.59 0.3 -0.29 0.3 -0.3 0.3 0.59 -0.3 0.3 -0.3 0.3 -0.3 0.29 0 0.3 -0.3 0.3 -0.3 0.3 0 0.3 -0.3 0.3 0 0.3 -0.3 0.3 0 0.3 -0.29 0.3 0 0.29 0 0.3 0 0.3 0 0.3 -0.3 0.3 0 0.3 0 0.3 0 0.59 0 0.3 0.3 0.3 0 0.3 0 0.3 0 0.29 0.29 0.3 0 0.59 0 0.3 0.3 0.3 0 0.3 0.3 0.3 0 0.59 0 0 0 0zm11.51 22.73l-0.3 0.3 0 0 -0.29 -0.89 -0.3 -0.59 -0.59 -0.89 -0.3 -0.59 -0.3 -0.59 -0.3 -0.89 -0.59 -0.59 -0.3 -0.89 -0.3 -0.59 -0.3 -0.89 -0.3 -0.59 -0.59 -0.59 -0.3 -0.89 -0.3 -0.59 -0.3 -0.89 -0.59 -0.59 -0.3 -0.59 -0.3 -0.89 -0.29 -0.59 -0.3 -0.89 -0.59 -0.59 -0.3 -0.59 -0.3 -0.89 -0.3 -0.59 -0.3 -0.89 -0.59 -0.59 -0.3 -0.89 -0.3 -0.59 -0.3 -0.59 -0.59 -0.89 -0.3 -0.59 -0.3 -0.89 0.3 0 0.59 0.59 0.3 0.59 0.3 0.89 0.3 0.59 0.3 0.89 0.59 0.59 0.3 0.59 0.3 0.89 0.3 0.59 0.59 0.89 0.3 0.59 0.3 0.89 0.29 0.59 0.3 0.59 0.59 0.89 0.3 0.59 0.3 0.89 0.3 0.59 0.3 0.59 0.59 0.89 0.3 0.59 0.3 0.89 0.3 0.59 0.59 0.59 0.3 0.89 0.3 0.59 0.3 0.89 0.3 0.59 0.59 0.89 0.3 0.59 0.29 0.59 0.3 0.89 0 0zm0.3 0.59l0.29 0.59 -0.59 -0.3 0 0 0 0 0 0 0 0 0 0 0 0 0 0 0 0 0 0 0 0 0 0 0 -0.3 0 0 0 0 0 0 0 0 0 0 0 0 0 0 0 0 -0.3 0 0 0 0 -0.3 0 0 0 0 0 0 0 0 0 0 0 0 0 0 0 0 0 0 0.3 -0.3 0 0 0 0 0 0 0 0 0 0 0.3 0 0 0 0 0 0 0.3 0 0 0 0 0 0 0 0 0 0 0 0 0 0 0 0 0 0 0 0 0 0.3 0 0 0 0 0 0 0 0 0 0 0 0 0.3 0 0 0 0 0 0 0 0 0 0 0.3 -0.3 -0.3 0 0zm0.29 0.59l-0.29 0 -0.3 -0.3 0.59 0.3 -0 0zm2.95 -3.25l0.3 0.3 0 0 0 0 -0.3 0.3 0 0 -0.3 0 0 0.3 0 0 -0.3 0 0 0 0 0.3 -0.3 0 0 0 0 0.29 -0.3 0 0 0 0 0 -0.29 0.3 0 0 0 0 -0.3 0.3 0 0 0 0 -0.3 0.3 0 0 -0.3 0 0 0 0 0.3 -0.3 0 0 0 0 0.3 -0.3 0 0 0 0 0.3 -0.3 -0.59 0 0 0 0 0.3 -0.3 0 0 0 0 0.3 -0.3 0 0 0.3 0 0 0 0 -0.3 0.3 0 0 0 0 -0.3 0.3 0 0 0 0 -0.3 0.3 0 0 0 0 0 0.29 -0.3 0 0 0 0 0.3 -0.3 0 0 0.3 0 0 -0.29 0 0 0.3 0 0 0 0 -0.3 0.3 0 0 0 0 0 0 0zm2.66 -2.36l0.3 0.3 0 0 0 0 0 0 0 0.3 0 0 -0.3 0 0 0.3 0 0 -0.3 0 0 0.3 0 0 0 0 -0.3 0 0 0.3 0 0 -0.3 0 0 0 0 0.3 -0.3 0 0 0 0 0 -0.29 0.29 0 0 0 0 -0.3 0 0 0 0 0.3 -0.3 0 0 0 0 0 -0.3 0.3 0 0 0 0 -0.3 -0.3 0 -0.3 0.3 0 0 0 0 0 0.3 0 0 -0.29 0 0 0.3 0 0 0 0 -0.3 0.3 0 0 0 0 0 0.29 -0.3 0 0 0 0 0.3 0 0 0 0 -0.3 0 0 0.3 0 0 0 0 -0.3 0 0 0.3 0 0 0 0 -0.3 0 0 0.3 0 0 0 0 -0.3 0 0 0 0zm0 -3.84l0.59 0 0 0 0 0.3 0 0 0 0.3 0 0 0 0 0 0.3 0 0 0 0.3 0 0 0 0.3 0 0 0 0 0 0.3 0 0 0 0.3 0 0 0 0.29 0 0 0 0 0 0.3 0 0 0 0.3 0 0 0 0.3 0 0 0 0 0 0.3 0 0 0 0.3 0 0 -0.3 0 0 0.3 -0.3 -0.3 0 0 0 -0.3 0 0 0 0 0 -0.3 0.3 0 0 0 0 -0.3 0 0 0 0 0 -0.3 0 0 0 -0.3 0 0 0 0 0 -0.29 0 0 0 -0.3 0 0 0 0 0 -0.3 0 0 0 -0.3 -0.3 0 0 -0.3 0 0 0 0 0 -0.3 0 0 0 -0.3 0 0 0 -0.3 0 0 0 0zm-0.59 -2.06l0.59 -0.3 0 0 0 0 0 0 0 0.3 0 0 0 0 0.3 0 0 0.3 0 0 0 0 0 0 0 0.29 0 0 0 0 0 0 0 0.3 0 0 0.3 0 0 0 0 0.3 0 0 0 0 0 0.3 0 0 0 0 0 0 0 0.3 0 0 0 0 0 0.3 0 0 0 0 0 0 -0.59 0 0 0 0 0 0 0 0 -0.3 0 0 0 0 0 0 0 -0.3 0 0 0 0 0 0 0 -0.3 0 0 0 0 0 0 0 -0.3 0 0 0 0 0 0 0 0 0 -0.3 0 0 -0.3 0 0 0 0 -0.29 0 0 0 0 0 0 0 -0.3 0 0 0 0 -0.3 0 0 0zm-9.15 -15.94l0.59 -0.29 0 0 0.3 0.59 0.3 0.3 0.29 0.59 0 0.59 0.3 0.59 0.3 0.3 0.3 0.59 0.3 0.59 0.3 0.3 0.3 0.59 0.3 0.59 0.3 0.3 0.3 0.59 0.29 0.59 0.3 0.3 0.3 0.59 0.3 0.59 0.3 0.3 0.3 0.59 0.3 0.59 0.3 0.3 0.3 0.59 0.3 0.59 0.3 0.3 0.29 0.59 0.3 0.59 0.3 0.29 0.3 0.59 0.3 0.59 0.3 0.59 0.3 0.3 0.3 0.59 -0.59 0.3 -0.3 -0.59 0 -0.59 -0.3 -0.29 -0.3 -0.59 -0.3 -0.59 -0.3 -0.3 -0.3 -0.59 -0.3 -0.59 -0.3 -0.3 -0.29 -0.59 -0.3 -0.59 -0.3 -0.3 -0.3 -0.59 -0.3 -0.59 -0.3 -0.3 -0.3 -0.59 -0.3 -0.59 -0.3 -0.3 -0.3 -0.59 -0.3 -0.59 -0.29 -0.59 -0.3 -0.3 -0.3 -0.59 -0.3 -0.59 -0.3 -0.3 -0.3 -0.59 -0.3 -0.59 -0.3 -0.3 -0.3 -0.59 -0.3 -0.59 -0.29 -0.29 -0.3 -0.59 0 0zm-0.3 -3.24l0.59 0.3 0 0 0 0 0 0.29 -0.3 0 0 0 0 0 0 0.3 0 0 0 0 0 0.3 0 0 0 0 0 0.3 0 0 0 0 0 0 0 0.3 0 0 0 0 0 0 0 0.3 0 0 0 0 0 0.3 0 0 0.3 0 0 0 0 0.3 0 0 0 0 0 0.3 0 0 0.3 0 -0.59 0.3 0 0 0 -0.3 0 0 0 0 -0.3 -0.3 0 0 0 0 0 -0.3 0 0 0 0 0 -0.3 0 0 0 0 0 -0.3 0 0 -0.3 0 0 -0.3 0 0 0 0 0 -0.3 0 0 0.3 0 0 -0.3 0 0 0 0 0 -0.3 0 0 0 0 0 -0.29 0 0 0 0 0 -0.3 0 0zm3.25 -8.85l0.29 0 0 0 0 0.29 0 0.3 -0.29 0.3 0 0.3 0 0.3 -0.3 0.3 0 0.3 0 0.3 -0.3 0.3 0 0.3 0 0.29 -0.3 0.3 0 0.3 0 0.3 -0.3 0.3 0 0.3 0 0 -0.3 0.3 0 0.3 0 0.3 -0.3 0.3 0 0.29 0 0.3 -0.3 0.3 0 0.3 0 0.3 -0.3 0.3 0 0.3 0 0.3 -0.3 0.3 0 0.3 0 0.29 -0.59 -0.29 0.3 -0.3 0 -0.3 0 -0.3 0.3 -0.3 0 -0.3 0 0 0.3 -0.3 0 -0.3 0 -0.3 0.3 -0.3 0 -0.29 0 -0.3 0.3 -0.3 0 -0.3 0 -0.3 0.3 -0.3 0 -0.3 0 -0.3 0.3 -0.3 0 -0.3 0 -0.29 0.3 -0.3 0 -0.3 0 -0.3 0.29 -0.3 0 -0.3 0 -0.3 0.3 -0.3 0 -0.3 0 -0.3 0.3 -0.29 0 0 0 0 0 0zm3.24 -5.61l0.3 -0.3 0 0.59 -0.3 0 0 0 -0.3 0.3 0 0 -0.29 0.3 0 0 -0.3 0.3 0 0 -0.3 0.3 0 0 0 0.3 -0.3 0 0 0.3 0 0.29 -0.3 0 0 0.3 0 0 -0.3 0.3 0 0.3 0 0 0 0.3 -0.3 0.3 0 0 0 0.3 0 0 0 0.3 -0.3 0.3 0 0 0 0.3 0 0.29 0 0 -0.3 0.3 -0.3 0 0 -0.3 0 -0.29 0.3 0 0 -0.3 0 -0.3 0 0 0 -0.3 0.3 -0.3 0 0 0 -0.3 0 -0.3 0.3 0 0 -0.3 0 -0.3 0 0 0.3 -0.3 0 -0.29 0 0 0.3 -0.3 0 0 0 -0.3 0.3 -0.3 0 0 0.3 -0.3 0 0 0.3 -0.3 0 0 0.3 -0.3 0 0 0.29 -0.3 0 0 0.3 -0.3 0 0.3 0 0zm0.3 -0.3l0.3 0.3 -0.3 0.3 0 -0.59 0 0zm-1.18 54.02l0 0 0 0 0 0 0 -0.3 0 0.3zm0 0.3l-0.3 0 0 -0.3 0.3 0.3zm24.21 -0.3l0.59 0 -0.3 0.3 -0.59 0 -0.89 0 -0.89 0 -0.59 0 -0.89 0 -0.89 0 -0.59 0 -0.89 0 -0.59 0 -0.89 0 -0.89 0 -0.59 0 -0.89 0 -0.89 0 -0.59 0 -0.89 0 -0.59 0 -0.89 0 -0.89 0 -0.59 0 -0.89 0 -0.59 0 -0.89 0 -0.89 0 -0.59 0 -0.89 0 -0.59 0 -0.89 0 -0.89 0 -0.59 0 -0.89 0 -0.59 0 0 -0.59 0.59 0 0.89 0 0.59 0 0.89 0 0.89 0 0.59 0 0.89 0 0.59 0 0.89 0 0.89 0 0.59 0 0.89 0 0.59 0 0.89 0 0.89 0 0.59 0 0.89 0 0.59 0 0.89 0 0.89 0 0.59 0 0.89 0 0.89 0 0.59 0 0.89 0 0.59 0 0.89 0 0.89 0 0.59 0 0.89 0 0.89 0 0.59 0 -0.3 0.3 0 0zm0.59 0l0 0.3 -0.3 0 0.3 -0.3zm-0.3 -3.25l0.3 0 0 0 0 0 0 0 0 0.3 0 0 0 0 0 0.3 0 0 0 0 0 0.3 0 0 0 0.3 0 0 0 0 0 0.3 0 0 0 0 0 0.3 0 0 0 0 0 0.3 0 0 0 0 0 0.3 0 0 0 0 0 0.3 0 0 0 0 0 0.3 0 0 0 0.29 0 0 -0.59 0 0 -0.29 0 0 0 0 0 -0.3 0.29 0 0 0 0 -0.3 0 0 0 0 0 -0.3 0 0 0 0 0 -0.3 0 0 0 -0.3 0 0 0 0 0 -0.3 0 0 0 0 0 -0.3 0 0 0 0 0 -0.3 0 0 0 0 0 -0.3 0 0 0 0 0 -0.3 0 0 0 0 0 0 0 0zm-1.77 -6.49l0.59 -0.3 0 0 0 0.3 0 0 0.3 0.3 0 0.3 0 0.3 0 0 0.3 0.29 0 0.3 0 0 0 0.3 0 0.3 0.3 0 0 0.3 0 0.3 0 0 0.29 0.3 0 0.3 0 0 0 0.3 0 0.3 0.3 0.29 0 0 0 0.3 0 0.3 0 0 0 0.3 0 0.3 0 0.3 0 0 0 0.3 0 0.3 0 0.3 -0.3 0 0 -0.3 0 -0.3 0 0 0 -0.3 0 -0.3 0 -0.3 0 0 -0.29 -0.3 0 -0.3 0 0 0 -0.3 0 -0.29 0 0 0 -0.3 -0.3 -0.3 0 0 0 -0.3 0 -0.3 0 0 -0.3 -0.3 0 -0.3 0 -0.3 0 0 -0.3 -0.3 0 -0.3 0 0 0 -0.29 -0.3 -0.3 0 0 0 -0.3 0 -0.3 -0.3 0 0 0 0 0zm-0.3 -2.66l0.3 0 0 0 0 0 0 0 0 0 0 0.3 0 0 0.3 0 0 0.3 0 0 0 0 0 0 0 0.3 0 0 0 0 0 0 0 0.29 0 0 0 0 0 0.3 0 0 0 0 0 0 0 0.3 0 0 0 0 0 0 0 0.3 0.3 0 0 0 0 0 0 0.3 0 0 0 0 -0.59 0.3 0 -0.3 0 0 0 0 0 0 0 -0.3 0 0 0 0 0 0 0 -0.3 0 0 0 0 0 -0.3 0 0 -0.29 0 0 0 0 -0.3 0 0 0 0 0 -0.29 0 0 0 0 0 0 0 -0.3 0 0 0 0 0 -0.3 0 0 0 0 0 0 0 -0.3 0 0 0 0 0 0 0 0zm0.3 -5.31l0 -0.59 0 0.3 0 0.3 0 0 0 0.3 0 0 0 0.3 0 0.3 0 0 0 0.3 0 0 0 0.3 0 0.3 0 0 0 0.29 0 0 0 0.3 0 0 0 0.3 0 0.3 0 0 0 0.3 0 0 0 0.3 0 0 0 0.3 0 0.3 0 0 0 0.3 0 0 0 0.3 0 0.29 0 0 0 0.3 -0.3 0 0 -0.3 0 0 0 -0.29 0 -0.3 0 0 0 -0.3 0 0 0 -0.3 0 0 0 -0.3 0 -0.3 0 0 0 -0.3 0 0 0 -0.3 0 -0.3 0 0 0 -0.3 0 0 0 -0.29 0 0 0 -0.3 0 -0.3 0 0 0 -0.3 0 0 0 -0.3 0 -0.3 0 0 0 -0.3 0 0 0 -0.3 0.3 0.3 0 0zm0 -0.59l0 0 0 0.3 0 -0.3zm-2.95 0.3l-0.3 0 0.3 -0.3 0 0 0 0 0 0 0.3 0 0 0 0 0 0.3 0 0 0 0 0 0.3 0 0 0 0 0 0.29 0 0 0 0 0 0 0 0.3 0 0 0 0 0 0.3 0 0 0 0 0 0.3 0 0 0 0 0 0.3 0 0 0 0 0 0.3 0 0 0 0 0 0.3 0 0 0.59 -0.3 0 0 0 0 0 -0.3 0 0 0 0 0 -0.3 0 0 0 0 0 -0.3 0 0 0 0 0 -0.3 0 0 0 0 0 -0.3 0 0 0 0 0 0 0 -0.29 0 0 0 0 0 -0.3 0 0 0 0 0 -0.3 0 0 0 0 0 -0.3 0 0 0 0 0 0 0 0 -0.29 0 -0zm-0.3 0l0 -0.3 0.3 0 -0.3 0.3zm0.3 2.95l-0.3 0 0 0 0 0 0 0 0 0 0 -0.3 0 0 0 0 0 -0.3 0 0 0 0 0 -0.3 0 0 0 0 0 -0.29 0 0 0 0 0 -0.3 0 0 0 0 0 -0.3 0 0 0 0 0 0 0 -0.3 0 0 0 0 0 -0.3 0 0 0 0 0 -0.3 0 0 0 0 0 -0.3 0.3 0 0 0.3 0 0 0 0 0 0.3 0 0 0 0 0 0.3 0 0 0 0 0 0 0 0.3 0 0 0 0 0 0.3 0 0 0 0 0 0.3 0 0 0 0 0 0.29 0 0 0 0 0 0.3 0 0 0 0 0 0.3 0 0 0 0 0 0.3 0 0 0 0 0 0 0 0zm-4.72 5.61l0 -0.59 0 0 0.3 0 0.3 0 0.3 0 0 0 0.3 -0.3 0.3 0 0 0 0.3 0 0.3 -0.3 0 0 0.29 0 0 -0.3 0.3 0 0.3 -0.3 0 0 0.3 -0.3 0 0 0 -0.3 0.3 -0.3 0 0 0.3 -0.3 0 -0.29 0 0 0.3 -0.3 0 -0.3 0 -0.3 0 0 0 -0.3 0.3 -0.3 0 -0.3 0 -0.3 0 -0.3 0.3 0 0 0.3 0 0.3 0 0.3 0 0.3 0 0.3 0 0.3 -0.3 0.3 0 0.3 0 0 -0.3 0.29 0 0.3 0 0.3 -0.3 0 0 0.3 -0.3 0.3 0 0 -0.3 0.3 0 0 -0.3 0.3 -0.3 0.3 0 0 -0.3 0 -0.29 0.3 0 0 -0.3 0 -0.3 0.3 -0.3 0 0 0 -0.3 0 -0.3 0 -0.3 0 -0.3 0.29 0 0 0 0zm-4.43 -5.61l0.29 0 0 0 0 0.3 0 0.3 0 0.3 0 0.3 0.3 0.3 0 0 0 0.3 0 0.29 0 0.3 0.3 0 0 0.3 0.3 0.3 0 0 0 0.3 0.3 0.3 0 0 0.3 0.3 0 0 0.3 0.3 0 0 0.3 0.3 0.3 0 0 0 0.3 0.3 0 0 0.29 0 0.3 0 0 0.29 0.3 0 0.3 0 0.3 0 0 0 0 0.59 0 -0.3 -0.3 0 -0.3 0 -0.3 0 -0.3 0 0 0 -0.29 -0.3 -0.3 0 -0.3 0 0 -0.3 -0.3 0 -0.3 -0.3 0 0 -0.3 -0.3 0 0 -0.3 -0.3 0 0 -0.3 -0.3 0 -0.3 -0.3 0 0 -0.3 -0.3 -0.29 0 -0.3 0 0 0 -0.3 -0.29 -0.3 0 -0.3 0 -0.3 0 -0.3 0 -0.3 0 -0.3 0 -0.3 0 0 0 0zm0 -2.66l0 -0.59 0.29 0.3 0 0 0 0.3 0 0 0 0 0 0.3 0 0 0 0 0 0.3 0 0 0 0 0 0.3 0 0 0 0 0 0.3 0 0 0 0 0 0.3 0 0 0 0 0 0.3 0 0 0 0 0 0.29 0 0 0 0 0 0.3 0 0 0 0 0 0.3 0 0 0 0 0 0 -0.29 0 0 0 0 0 0 0 0 -0.3 0 0 0 0 0 -0.3 0 0 0 0 0 -0.29 0 0 0 0 0 -0.3 0 0 0 0 0 -0.3 0 0 0 0 0 -0.3 0 0 0 0 0 -0.3 0 0 0 0 0 -0.3 0 0 0 0 0 -0.3 0 0 0 0 0 -0.3 0 0 0 0.3 0 0zm0 -0.59l0.29 0 0 0.3 -0.29 -0.3zm-2.66 0.3l-0.59 0 0.3 -0.3 0.3 0 0 0 0 0 0 0 0.29 0 0 0 0 0 0.3 0 0 0 0 0 0.3 0 0 0 0 0 0.3 0 0 0 0 0 0 0 0.3 0 0 0 0 0 0.3 0 0 0 0 0 0.3 0 0 0 0 0 0.3 0 0 0 0 0 0.3 0 0 0 0 0 0 0.59 0 0 0 0 -0.3 0 0 0 0 0 -0.3 0 0 0 0 0 -0.3 0 0 0 0 0 -0.3 0 0 0 0 0 -0.3 0 0 0 0 0 0 0 -0.3 0 0 0 0 0 -0.3 0 0 0 0 0 -0.3 0 0 0 0 0 -0.29 0 0 0 0 0 0 0 -0.3 0 0.3 -0.29 0 -0zm-0.59 0l0 -0.3 0.3 0 -0.3 0.3zm0.59 4.13l-0.3 0 0 0 -0.3 0 0 -0.3 0 0 0 -0.3 0 0 0 -0.3 0 0 0 0 0 -0.3 0 0 0 -0.29 0 0 0 -0.3 0 0 0 0 0 -0.3 0 0 0 -0.3 0 0 0 -0.3 0 0 0 0 0 -0.3 0 0 0 -0.3 0 0 0 -0.3 0 0 0 -0.3 0 0 0 0 0 -0.3 0.59 0 0 0.3 0 0 0 0 0 0.3 0 0 0 0.3 0 0 0 0.3 0 0 0 0.3 0 0 0 0 0 0.3 0 0 0 0.3 0 0 0 0.3 0 0 0 0 0 0.3 0 0 0 0.29 0 0 0 0.3 0 0 0 0 0 0.3 0 0 0 0.3 0 0 0 0 0 0.3 0 0 0 0zm-1.48 2.95l0 -0.59 0 0 0 0 0 0 0 0 0.3 -0.3 0 0 0 0 0 0 0 -0.3 0.3 0 0 0 0 0 0 0 0 -0.3 0 0 0.3 0 0 0 0 -0.3 0 0 0 0 0 0 0 -0.3 0 0 0 0 0 0 0 -0.3 0 0 0.3 0 0 -0.29 0 0 0 0 0 -0.3 0 0 0.3 0 0 0 0 0.3 0 0 0 0 0 0.29 0 0 0 0 0 0.3 0 0 0 0.3 0 0 0 0 -0.3 0.3 0 0 0 0 0 0 0 0.3 0 0 0 0 -0.3 0.3 0 0 0 0 0 0 0 0.3 -0.3 0 0 0 0 0 0 0.3 -0.3 0 0 0 0 0 -0.3 0.3 0 0 0 0zm-4.43 3.54l-0.3 -0.59 0 0 0 0 0.3 0 0 -0.3 0.3 0 0 -0.3 0.3 0 0 0 0.3 -0.3 0 0 0.3 -0.3 0 0 0.3 0 0 -0.3 0.3 0 0 0 0.3 -0.3 0 0 0.3 -0.3 0 0 0.29 0 0 -0.3 0.3 0 0 -0.3 0.3 0 0 0 0.3 -0.29 0 0 0.3 0 0 -0.3 0.3 0 0 -0.3 0.3 0 0 0.59 0 0 -0.3 0 0 0.3 -0.3 0 0 0 0 0.3 -0.3 0 0 0 -0.3 0.3 0 0 -0.3 0.29 0 0 -0.3 0 0 0.3 -0.29 0 0 0.3 -0.3 0 0 0 -0.3 0.3 0 0 -0.3 0 0 0.3 -0.3 0 0 0.3 -0.3 0 0 0 -0.3 0.3 0 0 -0.3 0.3 0 0 -0.3 0 0 0.3 0 0zm-2.07 7.08l0 0.59 -0.3 -0.3 0 -0.3 -0.29 -0.3 0 0 0 -0.29 0 -0.3 0 -0.3 0 -0.3 -0.3 -0.3 0 -0.3 0 -0.3 0.3 -0.3 0 -0.3 0 -0.3 0 0 0 -0.29 0 -0.3 0.29 -0.3 0 -0.3 0 -0.3 0.3 -0.3 0 -0.3 0 0 0.3 -0.3 0 -0.3 0.3 -0.3 0 0 0.3 -0.29 0 -0.3 0.3 -0.3 0.3 0 0 -0.3 0.3 -0.3 0.3 0.59 -0.3 0 0 0.3 -0.3 0.3 -0.3 0 0 0.3 -0.3 0.3 0 0 -0.3 0.3 0 0.29 0 0 -0.3 0.3 0 0.3 0 0.3 -0.3 0.3 0 0 0 0.3 0 0.3 -0.3 0.3 0 0.3 0 0.3 0 0 0 0.29 0 0.3 0 0.3 0 0.3 0 0.3 0 0 0 0.3 0.3 0.3 0 0.3 0 0.3 0 0.3 0 -0.3 0 -0zm0 0.59l-0.3 0 0 -0.3 0.3 0.3zm0.89 9.44l0 0 0 0 0 0 0 -0.29 0 0.29zm0 0.3l0 0 0 -0.3 0 0.3zm24.21 -0.3l0.29 0 -0.29 0.3 -0.59 0 -0.89 0 -0.59 0 -0.89 0 -0.59 0 -0.89 0 -0.59 0 -0.89 0 -0.59 0 -0.89 0 -0.89 0 -0.59 0 -0.89 0 -0.59 0 -0.89 0 -0.59 0 -0.89 0 -0.59 0 -0.89 0 -0.89 0 -0.59 0 -0.89 0 -0.59 0 -0.89 0 -0.59 0 -0.89 0 -0.89 0 -0.59 0 -0.89 0 -0.59 0 -0.89 0 -0.89 0 0 -0.59 0.89 0 0.89 0 0.59 0 0.89 0 0.59 0 0.89 0 0.89 0 0.59 0 0.89 0 0.59 0 0.89 0 0.59 0 0.89 0 0.89 0 0.59 0 0.89 0 0.59 0 0.89 0 0.59 0 0.89 0 0.59 0 0.89 0 0.89 0 0.59 0 0.89 0 0.59 0 0.89 0 0.59 0 0.89 0 0.59 0 0.89 0 0.59 0 0 0.3 0 0zm0.3 0l0 0.3 -0.3 0 0.3 -0.3zm-1.18 -6.2l0 -0.3 0.29 0 0 0.3 0 0.3 0 0 0 0.3 0 0.3 0 0 0.3 0.3 0 0.3 0 0 0 0.29 0 0.3 0 0 0 0.3 0 0.3 0 0 0 0.3 0.3 0.3 0 0 0 0.3 0 0.3 0 0 0 0.3 0 0.3 0 0 0 0.29 0.3 0.3 0 0.3 0 0 0 0.3 0 0.3 0 0 0 0.3 -0.3 0 0 0 0 -0.3 -0.3 -0.3 0 0 0 -0.3 0 -0.3 0 -0.3 0 0 0 -0.29 0 -0.3 0 0 -0.3 -0.3 0 -0.3 0 0 0 -0.3 0 -0.3 0 0 0 -0.3 0 -0.3 0 0 -0.29 -0.3 0 -0.3 0 0 0 -0.29 0 -0.3 0 0 0 -0.3 0 -0.3 0 0 -0.3 -0.3 0 -0.3 0 -0.3 0.3 0.3zm0 -0.3l0.29 0 0 0 -0.29 0zm-23.32 0l-0.59 0 0.3 0 0.59 0 0.89 0 0.59 0 0.89 0 0.59 0 0.89 0 0.59 0 0.89 0 0.59 0 0.89 0 0.59 0 0.89 0 0.59 0 0.89 0 0.59 0 0.89 0 0.59 0 0.89 0 0.59 0 0.89 0 0.59 0 0.89 0 0.59 0 0.89 0 0.59 0 0.89 0 0.59 0 0.89 0 0.59 0 0.89 0 0.59 0 0.89 0 0 0.3 -0.89 0 -0.59 0 -0.89 0 -0.59 0 -0.89 0 -0.59 0 -0.89 0 -0.59 0 -0.89 0 -0.59 0 -0.89 0 -0.59 0 -0.89 0 -0.59 0 -0.89 0 -0.59 0 -0.89 0 -0.59 0 -0.89 0 -0.59 0 -0.89 0 -0.59 0 -0.89 0 -0.59 0 -0.89 0 -0.59 0 -0.89 0 -0.59 0 -0.89 0 -0.59 0 -0.89 0 -0.59 0 0.3 -0.3 0 0zm-0.59 0l0 0 0.3 0 -0.3 0zm0.59 6.2l0 0.59 0 -0.3 0 0 0 -0.3 0 -0.3 0 -0.3 -0.3 0 0 -0.3 0 -0.3 0 0 0 -0.3 0 -0.3 0 0 0 -0.29 0 -0.3 0 0 0 -0.3 0 -0.3 0 0 0 -0.3 0 -0.3 0 0 0 -0.3 0 -0.3 0 0 -0.29 -0.3 0 -0.3 0 0 0 -0.3 0 -0.29 0 -0.3 0 0 0 -0.3 0 -0.3 0.59 0 0 0.3 0 0.3 0 0 0 0.3 0 0.29 0 0 0 0.3 0 0.3 0 0 0 0.3 0 0.3 0 0 0 0.3 0 0.3 0 0.3 0 0 0 0.3 0 0.3 0.3 0 0 0.3 0 0.29 0 0 0 0.3 0 0.3 0 0 0 0.3 0 0.3 0 0 0 0.3 0 0.3 0 0 0 0.3 -0.3 -0.3 -0 0zm0 0.59l0 0 0 -0.3 0 0.3zm45.17 -19.19l0 0 0 0 0 0 0 0.3 0 -0.3zm0 -0.3l0.3 0 0 0.3 -0.3 -0.3zm-4.13 -2.95l0.3 -0.3 0 0 0 0 0.3 0.3 0 0 0 0 0.3 0.3 0 0 0 0.3 0.3 0 0 0.3 0.3 0 0 0.29 0 0 0.3 0.3 0 0 0 0 0.3 0.3 0 0 0.3 0.3 0 0 0 0 0.3 0.3 0 0 0.29 0 0 0.3 0.3 0 0 0 0.3 0 0 0.3 0.3 0 0 0 0.3 0 0 0 0 0.59 -0.3 0 0 0 -0.3 -0.3 0 0 -0.3 0 -0.3 0 0 -0.3 -0.29 0 0 0 -0.3 -0.3 0 0 -0.3 0 0 -0.3 0 0 -0.3 -0.3 0 0 -0.3 0 0 -0.29 0 0 -0.3 -0.3 0 0 -0.3 -0.3 0 0 0 -0.3 -0.3 0 0 -0.3 0 0 -0.3 0 0 -0.3 0 0 -0.3 -0.3 0 0 0 0 0 0zm-5.02 -6.49l0.3 -0.3 0 0 0 0 0.3 0.3 0 0.29 0.3 0 0 0.3 0.3 0.3 0.29 0 0 0.3 0.3 0.3 0 0 0.3 0.3 0 0.3 0.3 0 0 0.3 0.3 0.3 0 0.3 0.3 0 0 0.29 0.3 0.3 0.3 0 0 0.3 0.3 0.3 0 0 0.3 0.3 0 0.3 0.29 0 0 0.3 0.3 0.3 0 0.3 0.3 0 0 0.3 0.3 0.29 -0.3 0.3 -0.3 -0.3 0 -0.29 -0.3 0 0 -0.3 -0.29 -0.3 0 0 -0.3 -0.3 0 -0.3 -0.3 -0.3 -0.3 0 0 -0.3 -0.3 -0.3 0 0 -0.3 -0.3 0 -0.3 -0.3 0 0 -0.29 -0.3 -0.3 0 0 -0.3 -0.3 0 -0.3 -0.3 -0.3 -0.29 0 0 -0.3 -0.3 -0.3 0 0 -0.3 -0.3 0 -0.3 -0.3 0 0 -0.3 -0.3 -0.29 0 0 0 0zm-5.91 -1.77l-0.3 -0.3 0 0 0.3 -0.3 0.3 0 0 0 0.3 0 0.3 -0.3 0.3 0 0 0 0.3 0 0.3 0 0.3 0 0 0 0.3 0 0.3 0 0 0 0.29 0 0.3 0.3 0.3 0 0 0 0.3 0 0.3 0.3 0 0 0.3 0 0 0.3 0.3 0 0.3 0.29 0 0 0.3 0 0.3 0.3 0 0.3 0.29 0 0 0.3 0.3 0.3 -0.3 0.3 -0.29 -0.3 0 -0.3 -0.3 0 0 -0.3 -0.3 0 -0.3 -0.3 0 0 -0.3 -0.3 0 0 -0.3 0 0 -0.29 -0.3 0 -0.3 0 0 0 -0.3 -0.3 -0.3 0 0 0 -0.29 0 0 0 -0.3 0 -0.3 0 0 0 -0.3 0 -0.3 0 0 0 -0.3 0 -0.3 0 -0.3 0 0 0 -0.3 0.3 -0.3 0 0 0 0 0zm-4.72 2.06l-0.29 -0.59 0 0 0.29 0 0 0 0.3 0 0 0 0.3 -0.3 0 0 0.3 0 0 0 0.3 0 0 -0.29 0.3 0 0 0 0.3 0 0 -0.3 0.3 0 0 0 0.3 0 0 0 0.3 -0.3 0 0 0.3 0 0 0 0.29 -0.3 0 0 0.3 0 0 0 0.3 0 0 -0.3 0.3 0 0 0 0.3 0 0 0 0.3 0.3 -0.3 0 0 0.3 -0.3 0 0 0 -0.3 0 0 0 -0.3 0.3 0 0 -0.3 0 0 0 -0.29 0 0 0.3 -0.3 0 0 0 -0.3 0 0 0.29 -0.3 0 0 0 -0.3 0 0 0 -0.3 0.3 0 0 -0.3 0 0 0 -0.3 0 0 0.3 -0.3 0 0 0 -0.3 0 0 0.3 -0.3 0 0 0 0 0 0 0zm-0.59 0.59l-0.3 0 0 0 0 0 0 0 0 0 0 0 0 0 0 -0.3 0 0 0 0 0 0 0 0 0 0 0 -0.3 0 0 0 0 0 0 0 0 0.3 0 0 0 0 0 0 -0.29 0 0 0 0 0 0 0 0 0 0 0.3 0 0 0 0 0 0 0 0 0 0 -0.3 0 0 0.29 0.59 0 0 0 0 0 0 -0.29 0 0 0 0 0 0 0 0 0 0 0 0 0.3 0 0 0 0 0 0 0 0 0 0 0 0 0 0 0 0 0 0 0 0 0 0 -0.3 0 0 0 0 0 0 0.3 0 0 0 0 0 0 0 0 0 0 0 0 0 0 0 0 0 -0zm0.3 5.02l-0.59 0 0 0 0 0 0 -0.3 0 0 0 -0.3 0 0 0 -0.3 0 0 0 -0.3 0 -0.29 0 0 0 -0.3 0 0 0 -0.3 0 0 0 -0.3 0 0 0 -0.3 0 0 0 -0.3 0 0 0 -0.3 0 0 0 -0.3 0 0 0 -0.3 0 0 0 -0.3 0 0 0 -0.29 0 0 0 -0.3 0 -0.3 0.3 0 0 0.3 0 0.3 0 0 0 0.29 0 0 0 0.3 0 0 0 0.3 0 0 0 0.3 0 0 0 0.3 0 0 0 0.3 0 0 0 0.3 0 0 0 0.3 0 0 0 0.3 0 0 0 0.3 0 0 0 0.29 0 0 0 0.3 0 0.3 0 0 0 0.3 0 0 0 0.3 0.3 0 0 0 0 0zm0.29 3.54l0.3 0.59 -0.3 -0.3 0 0 -0.29 -0.3 0 0 0 0 0 -0.3 0 0 0 -0.3 0 0 0 0 0 -0.3 0 0 -0.3 -0.3 0 0 0 -0.29 0 0 0 0 0 -0.3 0 0 0 -0.3 0 0 0 0 0 -0.3 -0.3 0 0 -0.3 0 0 0 0 0 -0.3 0 0 0 -0.3 0 0 0 0 0 -0.3 0.59 0 0 0 0 0.3 0 0 0 0.3 0 0 0 0 0 0.3 0 0 0 0.3 0 0 0 0 0 0.3 0 0 0 0 0 0.3 0.3 0 0 0.3 0 0 0 0 0 0.29 0 0 0 0.3 0 0 0 0.3 0 0 0 0 0.3 0.3 0 0 0 0.3 0 0 0 0.3 0 0 -0.3 -0.3 -0 0zm0.3 0.59l-0.3 0.3 0 -0.59 0.3 0.3 0 0zm6.79 -5.61l0.3 0.3 0 0 -0.3 0.3 -0.3 0 -0.3 0.3 0 0 -0.3 0.3 -0.29 0.3 0 0 -0.3 0.3 -0.3 0 -0.3 0.3 0 0 -0.3 0.29 -0.3 0 -0.3 0.3 0 0 -0.3 0.3 -0.3 0 -0.3 0.3 0 0 -0.29 0.3 -0.3 0.3 -0.3 0 0 0.3 -0.3 0 -0.3 0.3 -0.3 0 0 0.3 -0.3 0.3 -0.3 0 -0.3 0.29 0 0 -0.3 0.3 -0.29 -0.59 0.29 0 0 -0.3 0.3 0 0.3 -0.3 0.3 0 0.3 -0.29 0 -0.3 0.3 0 0.3 -0.3 0.3 0 0 -0.3 0.3 0 0.3 -0.3 0.29 0 0 -0.3 0.3 -0.3 0.3 0 0.3 -0.3 0 0 0.3 -0.3 0.3 0 0.3 -0.3 0 0 0.3 -0.29 0.3 0 0 -0.3 0.3 0 0.29 -0.3 0.3 0 0 -0.3 0.3 -0.3 0.3 0 0 0 0 0zm2.66 0.3l-0.3 0.3 0 0 -0.3 0 0 0 0 -0.3 0 0 0 0 -0.3 0 0 0 0 -0.3 0 0 -0.3 0 0 0 0 0 0 0 0 0 -0.3 0 0 0 0 0 0 0 0 0 0 0 -0.3 0 0 0 0 0 0 0 -0.29 0 0 0 0 0 0 0.3 -0.3 0 0 0 0 0 0 0 -0.3 -0.3 0 0 0 0 0.3 -0.3 0 0 0 0 0.3 0 0 0 0 0 0 -0.3 0.29 0 0 0 0 0 0.3 0 0 0 0 0 0 0 0.3 0 0 0 0 0 0.3 0 0 0.3 0 0 0 0 0.3 0 0 0 0 0 0 0.3 0.3 0 0 0 0 0 0 0.3 0.3 0 0 0zm3.84 4.43l-0.3 0.3 0 0 0 -0.3 -0.3 0 0 -0.3 -0.3 0 0 -0.3 0 0 -0.3 -0.3 0 0 -0.3 0 0 -0.3 0 0 -0.3 -0.3 0 0 -0.3 -0.3 0 0 0 -0.29 -0.3 0 0 -0.3 -0.3 0 0 0 -0.29 -0.3 0 0 0 -0.3 -0.3 0 0 -0.3 -0.3 0 0 -0.3 -0.3 0 0 -0.3 0 0 -0.3 0 0 -0.3 0.3 -0.3 0 0 0.3 0.3 0 0 0 0.3 0.3 0 0 0.3 0.3 0 0 0.3 0.29 0 0 0 0 0.3 0.3 0 0 0.3 0.3 0 0 0.3 0.3 0 0 0.3 0 0 0.3 0.29 0 0 0.3 0 0 0.3 0.3 0 0 0.3 0 0 0.3 0.3 0 0 0.3 0.3 0 0 0 0.3 0.3 0 0 0.3 0 0zm5.31 2.66l0.59 0.29 -0.3 0 -0.29 0 -0.3 0 0 0 -0.3 0 -0.3 0 0 -0.29 -0.3 0 -0.3 0 0 0 -0.3 0 0 0 -0.3 -0.3 -0.3 0 0 0 -0.3 0 -0.29 0 0 -0.3 -0.3 0 -0.3 0 0 0 -0.3 -0.3 0 0 -0.3 0 -0.3 -0.3 0 0 -0.3 -0.3 0 0 -0.3 -0.3 -0.3 0 0 -0.3 -0.3 0 0 -0.3 0.3 -0.3 0.3 0 0 0.3 0.3 0.3 0 0 0.3 0.3 0 0 0.3 0 0 0.3 0.3 0 0 0 0.3 0.3 0 0 0.3 0 0.3 0.3 0 0 0.29 0 0 0 0.3 0 0.3 0.3 0 0 0.3 0 0 0 0.3 0 0.3 0 0 0.3 0.3 0 0.3 0 0 0 0.3 0 0.3 0 0 0.3 0.29 0 -0.29 0 -0 0zm0.59 0.3l-0.3 0.3 0 -0.3 0.3 0zm0.3 -2.07l0 -0.59 0.3 0.3 0 0.3 0 0 0 0 0 0 -0.3 0.29 0 0 0 0 0 0 0 0.3 0 0 0 0 0 0 0 0.3 0 0 0 0 0 0 0 0.3 0 0 -0.3 0 0 0 0 0 0 0.3 0 0 0 0 0 0 0 0.3 0 0 0 0 0 0 0 0 0 0.3 0 0 -0.59 -0.3 0 0 0 0 0 0 0 -0.3 0 0 0.3 0 0 0 0 0 0 -0.3 0 0 0 0 0 0 0 -0.3 0 0 0 0 0 0 0 0 0 -0.3 0 0 0.3 0 0 0 0 -0.3 0 0 0 0 0 0 0 -0.29 0 0 0 0 0 0 0 -0.3 0 0 0 0 0.3 0.3 0 0zm0 -0.59l0.3 0 0 0.3 -0.3 -0.3zm-36.6 -20.07l0 0 0 0 0 0 0.3 0 -0.3 0zm-0.3 0l0 -0.3 0.3 0 -0.3 0.3zm0.59 4.13l-0.59 0 0 0 0 -0.3 0 0 0 -0.3 0 0 0 0 0 -0.3 0 0 0 -0.3 0 0 0 0 0 -0.3 0 0 0 -0.3 0 0 0 0 0 -0.29 0 0 0 -0.3 0 0 0 -0.3 0 0 0 0 0 -0.3 0 0 0 -0.3 0 0 0 -0.3 0 0 0 0 0 -0.3 0 0 0 -0.3 0.59 0 0 0.3 0 0 0 0.3 0 0 0 0.3 -0.3 0 0 0 0 0.3 0 0 0 0.3 0 0 0 0.3 0 0 0 0 0 0.3 0 0 0 0.29 0 0 0 0 0 0.3 0 0 0 0.3 0 0 0 0 0 0.3 0 0 0 0.3 0 0 0.3 0 0 0.3 0 0 0 0.3 0 0zm3.83 3.84l0 0.59 0 0 -0.29 0 -0.3 -0.3 0 0 -0.3 0 -0.3 0 0 0 -0.3 -0.3 -0.3 0 0 0 -0.3 0 0 -0.3 -0.3 0 -0.3 -0.3 0 0 -0.3 -0.3 0 0 -0.29 -0.3 0 0 -0.3 -0.3 0 0 0 -0.3 -0.3 0 0 -0.29 0 -0.3 -0.3 0 0 -0.3 0 -0.3 0 0 -0.3 -0.3 0 -0.3 0 -0.3 0 0 0.59 0 0 0 0 0.3 0 0.3 0 0 0 0.3 0 0 0.3 0.3 0 0.3 0 0 0.3 0.3 0 0 0 0.29 0.3 0 0 0.3 0 0 0.3 0.3 0 0 0.3 0.3 0 0 0.29 0 0 0.3 0.3 0 0 0 0.3 0.3 0 0 0.3 0 0.3 0 0 0.3 0.3 0 0 0 0.3 0 0.3 0 0 0 -0 0zm4.13 -3.25l0.59 0 0 0 0 0.3 -0.3 0.3 0 0 0 0.29 0 0.3 -0.29 0 0 0.3 -0.3 0 0 0.3 0 0.3 -0.3 0 0 0.3 -0.3 0 0 0.3 -0.3 0 0 0 -0.3 0.3 0 0 -0.3 0.3 -0.3 0 0 0 -0.3 0.3 0 0 -0.3 0 -0.29 0 0 0 -0.3 0 -0.3 0.29 0 0 -0.3 0 -0.3 0 0 0 0 -0.59 0 0 0.3 0 0.3 0 0 0 0.3 0 0 0 0.3 0 0.29 -0.3 0 0 0.3 0 0 0 0.3 -0.29 0 0 0.3 0 0 -0.3 0.3 0 0 0 0.3 -0.3 0 0 0.3 -0.3 0 0 0 -0.3 0.3 0 0 -0.3 0.3 0 0 -0.3 0 0 0 -0.3 0.3 0 0 -0.3 0 -0.3 0 0 0 0 -0 0zm0 0l0 0 0 0 0 0zm0.3 -0.59l0.3 -0.3 0 0 0 0 0 0 0 0 0 0 0 0.3 0 0 0 0 0 0 0 0 0 0 0 0 0 0 0 0 0 0.3 0 0 0 0 0 0 0 0 0 0 0 0 0 0 0 0 0 0 0 0 0 0.3 0 0 0 0 0 0 0 0 0 0 0 0 0 0 -0.59 0 0 0 0 -0.3 0 0 0 0 0 0 0 0 0 0 0.3 0 0 0 0 0 0 0 0 0 0 0 0 0 0 0 0 -0.3 0 0 0 0 0 0 0 0 0 0 0 0 0 0 0 0 0 0 0 0 0 0 0 0 0 0 0 0 0 0 0 0 0 0 0 0zm0 0l0 0 -0.3 0 0.3 0zm-2.36 -2.36l0 -0.59 0 0 0.3 0.3 0 0 0 0 0.3 0 0 0 0 0.3 0.3 0 0 0 0 0 0 0 0.3 0.3 0 0 0 0 0 0.3 0.3 0 0 0 0 0 0 0.3 0.3 0 0 0 0 0.29 0 0 0.3 0 0 0.3 0 0 0 0 0.3 0.3 0 0 0 0 0 0 0.29 0.3 0 0 -0.29 0.3 -0.3 0 0 0 0 -0.3 0 0 0 0 -0.3 -0.3 0 0 0 0 0 -0.3 -0.3 0 0 0 0 -0.3 0 0 -0.3 0 0 0 0 -0.29 0 0 -0.3 0 0 -0.3 0 0 0 0 -0.3 0 0 0 0 -0.3 0 0 -0.3 0 0 0 0 0 0 -0.3 -0.3 0 0 0 0 0 0 0 0 0zm-5.9 -1.77l-0.59 0 0.3 -0.3 0.3 0.3 0 0 0.29 0 0.3 0 0 0 0.3 0 0.3 0 0 0.3 0.3 0 0.3 0 0 0 0.3 0 0.3 0 0 0 0.3 0 0.3 0.3 0 0 0.29 0 0.3 0 0 0 0.3 0 0.3 0.3 0 0 0.3 0 0.3 0 0 0 0.3 0 0.3 0.3 0 0 0.3 0 0.3 0 0 0 0 0.59 -0.3 0 0 0 -0.3 -0.3 -0.3 0 0 0 -0.3 0 -0.3 0 0 -0.3 -0.3 0 0 0 -0.3 0 -0.3 0 0 0 -0.3 0 -0.29 -0.3 0 0 -0.3 0 -0.3 0 0 0 -0.3 0 -0.3 0 -0.3 -0.3 0 0 -0.3 0 -0.3 0 0 0 -0.3 0 -0.3 0 0 0 -0.29 -0.3 -0.3 0 0 0 0.3 -0.3 0 0zm-0.59 0l0 -0.3 0.3 0 -0.3 0.3zm-41.62 42.8l0 0 0 0 0 0 0.29 0 -0.29 0zm0 0l0 -0.3 0 0 0 0.3zm0 2.95l0 0.3 0 -0.3 0 0 0 0 0 -0.3 0 0 0 0 0 -0.3 0 0 0 0 0 -0.3 0 0 0 0 0 -0.3 0 0 0 0 0 -0.29 0 0 0 0 0 -0.3 0 0 0 0 0 -0.3 0 0 0 0 0 -0.3 0 0 0 0 0 -0.3 0 0 0 0 0 -0.3 0 0 0 0 0.29 0 0 0 0 0 0 0.3 0 0 0 0 0 0.3 0 0 0 0 0 0.3 0 0 0 0 0 0.3 0 0 0 0 0 0.3 0 0 0 0 0 0.29 0 0 0 0 0 0.3 0 0 0 0 0 0.3 0 0 0 0 0 0.3 0 0 0 0 0 0.3 0 0 0 0 -0.29 0zm0 0.3l0 0 0 -0.3 0 0.3zm14.76 -0.3l0.29 0 -0.29 0.3 -0.3 0 -0.59 0 -0.3 0 -0.59 0 -0.3 0 -0.59 0 -0.59 0 -0.29 0 -0.59 0 -0.29 0 -0.59 0 -0.29 0 -0.59 0 -0.29 0 -0.59 0 -0.59 0 -0.3 0 -0.59 0 -0.3 0 -0.59 0 -0.3 0 -0.59 0 -0.3 0 -0.59 0 -0.59 0 -0.3 0 -0.59 0 -0.3 0 -0.59 0 -0.3 0 -0.59 0 -0.59 0 0 -0.3 0.59 0 0.59 0 0.3 0 0.59 0 0.3 0 0.59 0 0.3 0 0.59 0 0.59 0 0.3 0 0.59 0 0.3 0 0.59 0 0.3 0 0.59 0 0.3 0 0.59 0 0.59 0 0.29 0 0.59 0 0.29 0 0.59 0 0.29 0 0.59 0 0.29 0 0.59 0 0.59 0 0.3 0 0.59 0 0.3 0 0.59 0 0.3 0 0 0zm0.29 0l0 0.3 -0.29 0 0.29 -0.3zm-0.29 -2.95l0 -0.3 0.29 0.3 0 0 0 0 0 0.3 0 0 0 0 0 0.3 0 0 0 0 0 0.3 0 0 0 0 0 0.3 0 0 0 0 0 0.3 0 0 0 0 0 0.3 0 0 0 0 0 0.29 0 0 0 0 0 0.3 0 0 0 0 0 0.3 0 0 0 0 0 0.3 0 0 0 0 -0.29 0 0 0 0 0 0 -0.3 0 0 0 0 0 -0.3 0 0 0 0 0 -0.3 0 0 0 0 0 -0.29 0 0 0 0 0 -0.3 0 0 0 0 0 -0.3 0 0 0 0 0 -0.3 0 0 0 0 0 -0.3 0 0 0 0 0 -0.3 0 0 0 0 0 -0.3 0 0 0 0 0 0zm0 -0.3l0.29 0 0 0.3 -0.29 -0.3zm-14.47 0.3l-0.29 0 0 -0.3 0.59 0 0.59 0 0.3 0 0.59 0 0.3 0 0.59 0 0.3 0 0.59 0 0.3 0 0.59 0 0.59 0 0.3 0 0.59 0 0.3 0 0.59 0 0.3 0 0.59 0 0.3 0 0.59 0 0.59 0 0.3 0 0.59 0 0.3 0 0.59 0 0.3 0 0.59 0 0.3 0 0.59 0 0.59 0 0.3 0 0.59 0 0.3 0 0 0.3 -0.3 0 -0.59 0 -0.3 0 -0.59 0 -0.59 0 -0.3 0 -0.59 0 -0.3 0 -0.59 0 -0.3 0 -0.59 0 -0.3 0 -0.59 0 -0.59 0 -0.3 0 -0.59 0 -0.3 0 -0.59 0 -0.3 0 -0.59 0 -0.3 0 -0.59 0 -0.59 0 -0.3 0 -0.59 0 -0.3 0 -0.59 0 -0.3 0 -0.59 0 -0.3 0 -0.59 0 -0.59 0 0.29 0zm-0.29 0l0 -0.3 0 0 0 0.3zm35.72 2.95l0 0 0 0 0 0 0 0 0 0zm0 0.3l-0.3 0 0 -0.3 0.3 0.3zm14.46 -0.3l0.59 0 -0.3 0.3 -0.29 0 -0.59 0 -0.29 0 -0.59 0 -0.59 0 -0.3 0 -0.59 0 -0.3 0 -0.59 0 -0.3 0 -0.59 0 -0.3 0 -0.59 0 -0.59 0 -0.3 0 -0.59 0 -0.3 0 -0.59 0 -0.3 0 -0.59 0 -0.3 0 -0.59 0 -0.59 0 -0.3 0 -0.59 0 -0.3 0 -0.59 0 -0.3 0 -0.59 0 -0.59 0 -0.3 0 -0.59 0 0 -0.3 0.59 0 0.3 0 0.59 0 0.59 0 0.3 0 0.59 0 0.3 0 0.59 0 0.3 0 0.59 0 0.59 0 0.3 0 0.59 0 0.3 0 0.59 0 0.3 0 0.59 0 0.3 0 0.59 0 0.59 0 0.3 0 0.59 0 0.3 0 0.59 0 0.3 0 0.59 0 0.3 0 0.59 0 0.59 0 0.29 0 0.59 0 0.29 0 -0.29 0 -0 0zm0.59 0l0 0.3 -0.3 0 0.3 -0.3zm-0.3 -2.95l0 -0.3 0.3 0.3 0 0 0 0 0 0.3 0 0 0 0 0 0.3 0 0 0 0 0 0.3 0 0 0 0 0 0.3 0 0 0 0 0 0.3 0 0 0 0 0 0.3 0 0 0 0 0 0.29 0 0 0 0 0 0.3 0 0 0 0 0 0.3 0 0 0 0 0 0.3 0 0 0 0 -0.59 0 0 0 0 0 0 -0.3 0 0 0 0 0 -0.3 0 0 0 0 0 -0.3 0 0 0 0 0 -0.29 0 0 0 0 0 -0.3 0 0 0 0 0 -0.3 0 0 0 0 0 -0.3 0 0 0 0 0 -0.3 0 0 0 0 0 -0.3 0 0 0 0 0 -0.3 0 0 0 0 0.3 0 0 0zm0 -0.3l0.3 0 0 0.3 -0.3 -0.3zm-14.46 0.3l-0.59 0 0.3 -0.3 0.59 0 0.3 0 0.59 0 0.3 0 0.59 0 0.59 0 0.3 0 0.59 0 0.3 0 0.59 0 0.3 0 0.59 0 0.59 0 0.3 0 0.59 0 0.3 0 0.59 0 0.3 0 0.59 0 0.3 0 0.59 0 0.59 0 0.3 0 0.59 0 0.3 0 0.59 0 0.3 0 0.59 0 0.59 0 0.3 0 0.59 0 0.3 0 0 0.3 -0.3 0 -0.59 0 -0.3 0 -0.59 0 -0.59 0 -0.3 0 -0.59 0 -0.3 0 -0.59 0 -0.3 0 -0.59 0 -0.59 0 -0.3 0 -0.59 0 -0.3 0 -0.59 0 -0.3 0 -0.59 0 -0.3 0 -0.59 0 -0.59 0 -0.3 0 -0.59 0 -0.3 0 -0.59 0 -0.3 0 -0.59 0 -0.59 0 -0.3 0 -0.59 0 -0.3 0 -0.59 0 0.3 0 0 0zm-0.59 0l0 -0.3 0.3 0 -0.3 0.3zm0.3 2.95l0 0.3 -0.3 -0.3 0 0 0 0 0 -0.3 0 0 0 0 0 -0.3 0 0 0 0 0 -0.3 0 0 0 0 0 -0.3 0 0 0 0 0 -0.29 0 0 0 0 0 -0.3 0 0 0 0 0 -0.3 0 0 0 0 0 -0.3 0 0 0 0 0 -0.3 0 0 0 0 0 -0.3 0 0 0 0 0.59 0 0 0 0 0 0 0.3 0 0 0 0 0 0.3 0 0 0 0 0 0.3 0 0 0 0 0 0.3 0 0 0 0 0 0.3 0 0 0 0 0 0.29 0 0 0 0 0 0.3 0 0 0 0 0 0.3 0 0 0 0 0 0.3 0 0 0 0 0 0.3 0 0 0 0 -0.3 0 0 0zm0 0.3l-0.3 0 0 -0.3 0.3 0.3zm-20.96 6.5l0 0 0 0 0 0 0 0 0 0zm0.29 0l0 0.29 -0.29 0 0.29 -0.29zm-0.29 -2.95l0 -0.59 0.29 0.3 0 0 0 0.3 0 0 0 0 0 0.3 0 0 0 0 0 0.29 0 0 0 0 0 0.3 0 0 0 0 0 0.3 0 0 0 0 0 0.3 0 0 0 0 0 0.3 0 0 0 0 0 0.3 0 0 0 0 0 0.3 0 0 0 0 0 0.3 0 0 0 0 0 0.3 -0.29 0 0 -0.3 0 0 0 0 0 -0.3 0 0 0 0 0 -0.3 0 0 0 0 0 -0.3 0 0 0 0 0 -0.3 0 0 0 0 0 -0.3 0 0 0 0 0 -0.3 0 0 0 0 0 -0.3 0 0 0 0 0 -0.29 0 0 0 0 0 -0.3 0 0 0 0 0 -0.3 0 0 0 0.3 0 0zm0 -0.59l0.29 0 0 0.3 -0.29 -0.3zm-14.47 0.3l-0.29 0 0 -0.3 0.59 0 0.59 0 0.3 0 0.59 0 0.3 0 0.59 0 0.3 0 0.59 0 0.3 0 0.59 0 0.59 0 0.3 0 0.59 0 0.3 0 0.59 0 0.3 0 0.59 0 0.3 0 0.59 0 0.59 0 0.3 0 0.59 0 0.3 0 0.59 0 0.3 0 0.59 0 0.3 0 0.59 0 0.59 0 0.3 0 0.59 0 0.3 0 0 0.59 -0.3 0 -0.59 0 -0.3 0 -0.59 0 -0.59 0 -0.3 0 -0.59 0 -0.3 0 -0.59 0 -0.3 0 -0.59 0 -0.3 0 -0.59 0 -0.59 0 -0.3 0 -0.59 0 -0.3 0 -0.59 0 -0.3 0 -0.59 0 -0.3 0 -0.59 0 -0.59 0 -0.3 0 -0.59 0 -0.3 0 -0.59 0 -0.3 0 -0.59 0 -0.3 0 -0.59 0 -0.59 0 0.29 -0.3 0 0zm-0.29 0l0 -0.3 0 0 0 0.3zm0 2.95l0 0.59 0 -0.3 0 -0.3 0 0 0 0 0 -0.3 0 0 0 0 0 -0.3 0 0 0 0 0 -0.3 0 0 0 0 0 -0.3 0 0 0 0 0 -0.3 0 0 0 0 0 -0.29 0 0 0 0 0 -0.3 0 0 0 0 0 -0.3 0 0 0 0 0 -0.3 0 0 0 0 0 -0.3 0 0 0.29 0 0 0 0 0.3 0 0 0 0 0 0.3 0 0 0 0 0 0.3 0 0 0 0 0 0.3 0 0 0 0 0 0.29 0 0 0 0 0 0.3 0 0 0 0 0 0.3 0 0 0 0 0 0.3 0 0 0 0 0 0.3 0 0 0 0 0 0.3 0 0 0 0 0 0.3 -0.29 -0.3 0 0zm0 0.59l0 0 0 -0.29 0 0.29zm14.76 -0.29l0.29 0 -0.29 0.29 -0.3 0 -0.59 0 -0.3 0 -0.59 0 -0.3 0 -0.59 0 -0.59 0 -0.29 0 -0.59 0 -0.29 0 -0.59 0 -0.29 0 -0.59 0 -0.59 0 -0.3 0 -0.59 0 -0.3 0 -0.59 0 -0.3 0 -0.59 0 -0.3 0 -0.59 0 -0.59 0 -0.3 0 -0.59 0 -0.3 0 -0.59 0 -0.3 0 -0.59 0 -0.3 0 -0.59 0 -0.59 0 0 -0.59 0.59 0 0.59 0 0.3 0 0.59 0 0.3 0 0.59 0 0.3 0 0.59 0 0.3 0 0.59 0 0.59 0 0.3 0 0.59 0 0.3 0 0.59 0 0.3 0 0.59 0 0.3 0 0.59 0 0.59 0 0.29 0 0.59 0 0.29 0 0.59 0 0.29 0 0.59 0 0.59 0 0.3 0 0.59 0 0.3 0 0.59 0 0.3 0 0 0.3 0 0zm0.29 0l0 0.29 -0.29 0 0.29 -0.29zm35.43 -3.25l0 0 0 0 0 0 0 0.3 0 -0.3zm0 -0.3l0.3 0 0 0.3 -0.3 -0.3zm-14.46 0.3l-0.3 0 0 -0.3 0.59 0 0.3 0 0.59 0 0.59 0 0.3 0 0.59 0 0.3 0 0.59 0 0.3 0 0.59 0 0.3 0 0.59 0 0.59 0 0.29 0 0.59 0 0.29 0 0.59 0 0.29 0 0.59 0 0.29 0 0.59 0 0.59 0 0.3 0 0.59 0 0.3 0 0.59 0 0.3 0 0.59 0 0.59 0 0.3 0 0.59 0 0.3 0 0 0.59 -0.3 0 -0.59 0 -0.3 0 -0.59 0 -0.59 0 -0.3 0 -0.59 0 -0.3 0 -0.59 0 -0.3 0 -0.59 0 -0.59 0 -0.29 0 -0.59 0 -0.29 0 -0.59 0 -0.29 0 -0.59 0 -0.29 0 -0.59 0 -0.59 0 -0.3 0 -0.59 0 -0.3 0 -0.59 0 -0.3 0 -0.59 0 -0.3 0 -0.59 0 -0.59 0 -0.3 0 -0.59 0 0.3 -0.3 0 0zm-0.3 0l0 -0.3 0 0 0 0.3zm0 2.95l0 0.3 0 0 0 -0.3 0 0 0 0 0 -0.3 0 0 0 0 0 -0.3 0 0 0 0 0 -0.3 0 0 0 0 0 -0.3 0 0 0 0 0 -0.3 0 0 0 0 0 -0.3 0 0 0 0 0 -0.3 0 0 0 0 0 -0.3 0 0 0 0 0 -0.29 0 0 0 0 0 -0.3 0 0 0.3 0 0 0 0 0.3 0 0 0 0 0 0.29 0 0 0 0 0 0.3 0 0 0 0 0 0.3 0 0 0 0 0 0.3 0 0 0 0 0 0.3 0 0 0 0 0 0.3 0 0 0 0 0 0.3 0 0 0 0 0 0.3 0 0 0 0 0 0.3 0 0 0 0 0 0.3 -0.3 -0.3zm0 0.3l0 0 0 0 0 0zm14.76 0l0.3 0 -0.3 0 -0.3 0 -0.59 0 -0.3 0 -0.59 0 -0.3 0 -0.59 0 -0.59 0 -0.3 0 -0.59 0 -0.3 0 -0.59 0 -0.3 0 -0.59 0 -0.59 0 -0.3 0 -0.59 0 -0.3 0 -0.59 0 -0.3 0 -0.59 0 -0.3 0 -0.59 0 -0.59 0 -0.3 0 -0.59 0 -0.3 0 -0.59 0 -0.3 0 -0.59 0 -0.59 0 -0.3 0 -0.59 0 0 -0.3 0.59 0 0.3 0 0.59 0 0.59 0 0.3 0 0.59 0 0.3 0 0.59 0 0.3 0 0.59 0 0.59 0 0.3 0 0.59 0 0.3 0 0.59 0 0.3 0 0.59 0 0.3 0 0.59 0 0.59 0 0.3 0 0.59 0 0.3 0 0.59 0 0.3 0 0.59 0 0.59 0 0.3 0 0.59 0 0.3 0 0.59 0 0.3 0 0 0.3zm0.3 0l0 0 -0.3 0 0.3 0zm-0.3 -2.95l0 -0.59 0.3 0.3 0 0 0 0.3 0 0 0 0 0 0.3 0 0 0 0 0 0.29 0 0 0 0 0 0.3 0 0 0 0 0 0.3 0 0 0 0 0 0.3 0 0 0 0 0 0.3 0 0 0 0 0 0.3 0 0 0 0 0 0.3 0 0 0 0 0 0.3 0 0 0 0 0 0.3 -0.3 0 0 -0.3 0 0 0 0 0 -0.3 0 0 0 0 0 -0.3 0 0 0 0 0 -0.3 0 0 0 0 0 -0.3 0 0 0 0 0 -0.3 0 0 0 0 0 -0.3 0 0 0 0 0 -0.3 0 0 0 0 0 -0.29 0 0 0 0 0 -0.3 0 0 0 0 0 -0.3 0 0 0 0.3 0 0zm0 -0.59l0.3 0 0 0.3 -0.3 -0.3zm-32.47 3.54l0 0 0 0 0 0 0 -0.3 0 0.3zm0 0l-0.3 0 0 0 0.3 0zm14.17 0l0.59 -0.3 -0.3 0.3 -0.59 0 -0.3 0 -0.59 0 -0.3 0 -0.59 0 -0.3 0 -0.59 0 -0.3 0 -0.59 0 -0.59 0 -0.29 0 -0.59 0 -0.29 0 -0.59 0 -0.29 0 -0.59 0 -0.29 0 -0.59 0 -0.29 0 -0.59 0 -0.29 0 -0.59 0 -0.29 0 -0.59 0 -0.29 0 -0.59 0 -0.59 0 -0.3 0 -0.59 0 -0.3 0 -0.59 0 -0.3 0 0 -0.3 0.3 0 0.59 0 0.3 0 0.59 0 0.3 0 0.59 0 0.59 0 0.29 0 0.59 0 0.29 0 0.59 0 0.29 0 0.59 0 0.29 0 0.59 0 0.29 0 0.59 0 0.29 0 0.59 0 0.29 0 0.59 0 0.29 0 0.59 0 0.59 0 0.3 0 0.59 0 0.3 0 0.59 0 0.3 0 0.59 0 0.3 0 0.59 0 -0.3 0.3 -0 0zm0.59 -0.3l0 0.3 -0.3 0 0.3 -0.3zm-0.89 -2.66l0 -0.59 0.3 0.3 0 0 0 0 0 0.3 0 0 0 0 0 0.3 0 0 0 0 0 0.29 0 0 0 0 0 0.3 0 0 0 0 0 0.3 0.3 0 0 0 0 0.3 0 0 0 0 0 0.3 0 0 0 0 0 0.3 0 0 0 0 0 0.3 0 0 0 0 0 0.3 0 0 0.3 0 -0.59 0.3 0 -0.3 0 0 0 0 0 -0.3 0 0 0 0 0 -0.3 0 0 -0.3 0 0 -0.3 0 0 0 0 0 -0.3 0 0 0 0 0 -0.3 0 0 0 0 0 -0.3 0 0 0 0 0 -0.3 0 0 0 0 -0.3 -0.29 0 0 0 0 0 -0.3 0 0 0 0 0 -0.3 0 0 0.3 0.3 0 0zm0 -0.59l0 0 0.3 0.3 -0.3 -0.3zm-13.58 0.3l-0.59 0 0.3 -0.3 0.3 0 0.59 0 0.3 0 0.59 0 0.3 0 0.59 0 0.3 0 0.59 0 0.3 0 0.3 0 0.59 0 0.3 0 0.59 0 0.3 0 0.59 0 0.3 0 0.59 0 0.3 0 0.59 0 0.3 0 0.59 0 0.3 0 0.59 0 0.3 0 0.3 0 0.59 0 0.3 0 0.59 0 0.3 0 0.59 0 0.3 0 0.59 0 0 0.59 -0.59 0 -0.3 0 -0.59 0 -0.3 0 -0.59 0 -0.3 0 -0.59 0 -0.3 0 -0.3 0 -0.59 0 -0.3 0 -0.59 0 -0.3 0 -0.59 0 -0.3 0 -0.59 0 -0.3 0 -0.59 0 -0.3 0 -0.59 0 -0.3 0 -0.59 0 -0.3 0 -0.3 0 -0.59 0 -0.3 0 -0.59 0 -0.3 0 -0.59 0 -0.3 0 -0.59 0 -0.3 0 0.3 -0.3 0 0zm-0.59 0l0 -0.3 0.3 0 -0.3 0.3zm0.3 2.95l0 0.3 -0.3 0 0 -0.3 0 0 0 0 0 -0.3 0 0 0 0 0 -0.3 0 0 0 0 0 -0.3 0 0 0 0 0 -0.3 0 0 0 0 0 -0.3 0 0 0 0 0 -0.3 0 0 0 0 0 -0.3 0 0 0 0 0 -0.3 0 0 0 0 0 -0.29 0 0 0 0 0 -0.3 0 0 0.59 0 0 0 0 0.3 0 0 0 0 0 0.29 0 0 0 0 0 0.3 0 0 0 0 0 0.3 0 0 0 0 0 0.3 0 0 0 0 0 0.3 0 0 0 0 0 0.3 0 0 0 0 0 0.3 0 0 0 0 0 0.3 0 0 0 0 0 0.3 0 0 0 0 0 0.3 -0.3 -0.3 -0 0zm0 0.3l-0.3 0 0 0 0.3 0zm0 -6.79l0 0 0 0 0 0 0 0 0 0zm0 0.3l-0.3 0 0 -0.3 0.3 0.3zm12.99 -0.3l0.59 0 -0.3 0.3 -0.3 0 -0.59 0 -0.3 0 -0.59 0 -0.3 0 -0.3 0 -0.59 0 -0.3 0 -0.59 0 -0.3 0 -0.3 0 -0.59 0 -0.3 0 -0.59 0 -0.3 0 -0.59 0 -0.3 0 -0.3 0 -0.59 0 -0.3 0 -0.59 0 -0.3 0 -0.3 0 -0.59 0 -0.3 0 -0.59 0 -0.3 0 -0.59 0 -0.3 0 -0.3 0 -0.59 0 -0.3 0 0 -0.3 0.3 0 0.59 0 0.3 0 0.3 0 0.59 0 0.3 0 0.59 0 0.3 0 0.59 0 0.3 0 0.3 0 0.59 0 0.3 0 0.59 0 0.3 0 0.3 0 0.59 0 0.3 0 0.59 0 0.3 0 0.59 0 0.3 0 0.3 0 0.59 0 0.3 0 0.59 0 0.3 0 0.3 0 0.59 0 0.3 0 0.59 0 0.3 0 -0.3 0 0 0zm0.59 0l0 0.3 -0.3 0 0.3 -0.3zm-0.59 -2.66l0 -0.59 0 0.3 0 0 0 0 0 0.3 0.29 0 0 0 0 0.3 0 0 0 0 0 0 0 0.3 0 0 0 0 0 0.3 0 0 0 0 0 0.3 0 0 0 0 0 0.3 0 0 0 0 0 0.29 0 0 0 0 0 0.3 0.3 0 0 0.3 0 0 0 0 0 0.3 0 0 0 0 -0.59 0 0 0 0 0 0 -0.3 0 0 0 0 0 -0.3 0 0 0 0 0 -0.3 0 0 0 0 0 -0.29 0 0 0 0 0 -0.3 0 0 0 0 -0.3 -0.3 0 0 0 0 0 -0.3 0 0 0 0 0 -0.3 0 0 0 0 0 -0.3 0 0 0 0 0 -0.3 0 0 0 0 0.3 0.3 0 0zm0 -0.59l0 0 0 0.3 0 -0.3zm-12.7 0.3l-0.59 0 0.3 -0.3 0.3 0 0.59 0 0.3 0 0.3 0 0.59 0 0.3 0 0.3 0 0.59 0 0.3 0 0.3 0 0.59 0 0.3 0 0.59 0 0.3 0 0.3 0 0.59 0 0.3 0 0.29 0 0.59 0 0.29 0 0.3 0 0.59 0 0.3 0 0.59 0 0.3 0 0.3 0 0.59 0 0.3 0 0.3 0 0.59 0 0.3 0 0.59 0 0 0.59 -0.59 0 -0.3 0 -0.59 0 -0.3 0 -0.3 0 -0.59 0 -0.3 0 -0.3 0 -0.59 0 -0.3 0 -0.59 0 -0.3 0 -0.29 0 -0.59 0 -0.29 0 -0.3 0 -0.59 0 -0.3 0 -0.3 0 -0.59 0 -0.3 0 -0.59 0 -0.3 0 -0.3 0 -0.59 0 -0.3 0 -0.3 0 -0.59 0 -0.3 0 -0.3 0 -0.59 0 -0.3 0 0.3 -0.3 0 0zm-0.59 0l0 -0.3 0.3 0 -0.3 0.3zm0.3 2.95l0 0.3 -0.3 -0.3 0 0 0 0 0 -0.3 0 0 0 0 0 -0.3 0 0 0 0 0 -0.3 0 0 0 0 0 -0.3 0 0 0 0 0 -0.29 0 0 0 0 0 -0.3 0 0 0 0 0 -0.3 0 0 0 0 0 -0.3 0 0 0 0 0 -0.3 0 0 0 0 0 -0.3 0 0 0 0 0.59 0 0 0 0 0 0 0.3 0 0 0 0 0 0.3 0 0 0 0 0 0.3 0 0 0 0 0 0.3 0 0 0 0 0 0.3 0 0 0 0 0 0.29 0 0 0 0 0 0.3 0 0 0 0 0 0.3 0 0 0 0 0 0.3 0 0 0 0 0 0.3 0 0 0 0 -0.3 0 -0 0zm0 0.3l-0.3 0 0 -0.3 0.3 0.3zm53.43 -0.3l0 0 0 0 0 0 0 0 0 0zm0 0.3l-0.3 0 0 -0.3 0.3 0.3zm11.51 -0.3l0.59 0 -0.3 0.3 -0.3 0 -0.3 0 -0.59 0 -0.3 0 -0.3 0 -0.29 0 -0.59 0 -0.29 0 -0.3 0 -0.3 0 -0.59 0 -0.3 0 -0.3 0 -0.3 0 -0.59 0 -0.3 0 -0.3 0 -0.3 0 -0.59 0 -0.3 0 -0.3 0 -0.3 0 -0.59 0 -0.3 0 -0.3 0 -0.29 0 -0.59 0 -0.29 0 -0.3 0 -0.3 0 -0.59 0 -0.3 0 0 -0.3 0.3 0 0.59 0 0.3 0 0.3 0 0.29 0 0.59 0 0.29 0 0.3 0 0.3 0 0.59 0 0.3 0 0.3 0 0.3 0 0.59 0 0.3 0 0.3 0 0.3 0 0.59 0 0.3 0 0.3 0 0.3 0 0.59 0 0.3 0 0.3 0 0.29 0 0.59 0 0.29 0 0.3 0 0.3 0 0.59 0 0.3 0 0.3 0 -0.3 0 0 0zm0.59 0l0 0.3 -0.3 0 0.3 -0.3zm-0.3 -2.95l0 -0.3 0.3 0.3 0 0 0 0 0 0.3 0 0 0 0 0 0.3 0 0 0 0 0 0.3 0 0 0 0 0 0.3 0 0 0 0 0 0.3 0 0 0 0 0 0.3 0 0 0 0 0 0.29 0 0 0 0 0 0.3 0 0 0 0 0 0.3 0 0 0 0 0 0.3 0 0 0 0 -0.59 0 0 0 0 0 0 -0.3 0 0 0 0 0 -0.3 0 0 0 0 0 -0.3 0 0 0 0 0 -0.29 0 0 0 0 0 -0.3 0 0 0 0 0 -0.3 0 0 0 0 0 -0.3 0 0 0 0 0 -0.3 0 0 0 0 0 -0.3 0 0 0 0 0 -0.3 0 0 0 0 0.3 0 0 0zm0 -0.3l0.3 0 0 0.3 -0.3 -0.3zm-11.51 0.3l-0.59 0 0.3 -0.3 0.29 0 0.59 0 0.29 0 0.3 0 0.3 0 0.59 0 0.3 0 0.3 0 0.3 0 0.59 0 0.3 0 0.3 0 0.3 0 0.59 0 0.3 0 0.3 0 0.3 0 0.59 0 0.3 0 0.3 0 0.29 0 0.3 0 0.59 0 0.3 0 0.3 0 0.3 0 0.59 0 0.3 0 0.3 0 0.59 0 0.3 0 0.3 0 0 0.3 -0.3 0 -0.3 0 -0.59 0 -0.3 0 -0.3 0 -0.59 0 -0.3 0 -0.3 0 -0.3 0 -0.59 0 -0.3 0 -0.29 0 -0.3 0 -0.3 0 -0.59 0 -0.3 0 -0.3 0 -0.3 0 -0.59 0 -0.3 0 -0.3 0 -0.3 0 -0.59 0 -0.3 0 -0.3 0 -0.3 0 -0.59 0 -0.3 0 -0.3 0 -0.29 0 -0.59 0 -0.29 0 0.29 0 0 0zm-0.59 0l0 -0.3 0.3 0 -0.3 0.3zm0.3 2.95l0 0.3 -0.3 -0.3 0 0 0 0 0 -0.3 0 0 0 0 0 -0.3 0 0 0 0 0 -0.3 0 0 0 0 0 -0.3 0 0 0 0 0 -0.29 0 0 0 0 0 -0.3 0 0 0 0 0 -0.3 0 0 0 0 0 -0.3 0 0 0 0 0 -0.3 0 0 0 0 0 -0.3 0 0 0 0 0.59 0 0 0 0 0 0 0.3 0 0 0 0 0 0.3 0 0 0 0 0 0.3 0 0 0 0 0 0.3 0 0 0 0 0 0.3 0 0 0 0 0 0.29 0 0 0 0 0 0.3 0 0 0 0 0 0.3 0 0 0 0 0 0.3 0 0 0 0 0 0.3 0 0 0 0 -0.3 0 0 0zm0 0.3l-0.3 0 0 -0.3 0.3 0.3zm0 6.5l0 0 0 0 0 0 0 -0.3 0 0.3zm0 0l-0.3 0 0 0 0.3 0zm11.51 0l0.59 0 -0.3 0 -0.3 0 -0.3 0 -0.59 0 -0.3 0 -0.3 0 -0.29 0 -0.59 0 -0.29 0 -0.3 0 -0.3 0 -0.59 0 -0.3 0 -0.3 0 -0.3 0 -0.59 0 -0.3 0 -0.3 0 -0.3 0 -0.59 0 -0.3 0 -0.3 0 -0.3 0 -0.59 0 -0.3 0 -0.3 0 -0.29 0 -0.59 0 -0.29 0 -0.3 0 -0.3 0 -0.59 0 -0.3 0 0 -0.3 0.3 0 0.59 0 0.3 0 0.3 0 0.29 0 0.59 0 0.29 0 0.3 0 0.3 0 0.59 0 0.3 0 0.3 0 0.3 0 0.59 0 0.3 0 0.3 0 0.3 0 0.59 0 0.3 0 0.3 0 0.3 0 0.59 0 0.3 0 0.3 0 0.29 0 0.59 0 0.29 0 0.3 0 0.3 0 0.59 0 0.3 0 0.3 0 -0.3 0.3 0 0zm0.59 0l0 0 -0.3 0 0.3 0zm-0.3 -2.95l0 -0.59 0.3 0.3 0 0 0 0.3 0 0 0 0 0 0 0 0.3 0 0 0 0 0 0.29 0 0 0 0 0 0.3 0 0 0 0 0 0.3 0 0 0 0 0 0.3 0 0 0 0 0 0.3 0 0 0 0 0 0.3 0 0 0 0 0 0.3 0 0 0 0.3 0 0 0 0 0 0.3 -0.59 0 0 -0.3 0 0 0 0 0 -0.3 0 0 0 -0.3 0 0 0 0 0 -0.3 0 0 0 0 0 -0.3 0 0 0 0 0 -0.3 0 0 0 0 0 -0.3 0 0 0 0 0 -0.3 0 0 0 0 0 -0.29 0 0 0 0 0 -0.3 0 0 0 0 0 0 0 -0.3 0 0 0.3 0.3 0 0zm0 -0.59l0.3 0 0 0.3 -0.3 -0.3zm-11.51 0.3l-0.59 0 0.3 -0.3 0.29 0 0.59 0 0.29 0 0.3 0 0.3 0 0.59 0 0.3 0 0.3 0 0.3 0 0.59 0 0.3 0 0.3 0 0.3 0 0.59 0 0.3 0 0.3 0 0.3 0 0.59 0 0.3 0 0.3 0 0.29 0 0.59 0 0.29 0 0.3 0 0.3 0 0.59 0 0.3 0 0.3 0 0.3 0 0.59 0 0.3 0 0.3 0 0 0.59 -0.3 0 -0.3 0 -0.59 0 -0.3 0 -0.3 0 -0.3 0 -0.59 0 -0.3 0 -0.3 0 -0.29 0 -0.59 0 -0.29 0 -0.3 0 -0.3 0 -0.59 0 -0.3 0 -0.3 0 -0.3 0 -0.59 0 -0.3 0 -0.3 0 -0.3 0 -0.59 0 -0.3 0 -0.3 0 -0.3 0 -0.59 0 -0.3 0 -0.3 0 -0.29 0 -0.59 0 -0.29 0 0.29 -0.3 0 0zm-0.59 0l0 -0.3 0.3 0 -0.3 0.3zm0.3 2.95l0 0.3 -0.3 0 0 -0.3 0 0 0 0 0 -0.3 0 0 0 0 0 -0.3 0 0 0 0 0 -0.3 0 0 0 0 0 -0.3 0 0 0 0 0 -0.3 0 0 0 0 0 -0.3 0 0 0 0 0 -0.3 0 0 0 0 0 -0.3 0 0 0 0 0 -0.29 0 0 0 0 0 -0.3 0 0 0.59 0 0 0 0 0.3 0 0 0 0 0 0.29 0 0 0 0 0 0.3 0 0 0 0 0 0.3 0 0 0 0 0 0.3 0 0 0 0 0 0.3 0 0 0 0 0 0.3 0 0 0 0 0 0.3 0 0 0 0 0 0.3 0 0 0 0 0 0.3 0 0 0 0 0 0.3 -0.3 -0.3 0 0zm0 0.3l-0.3 0 0 0 0.3 0zm-20.96 -53.43l0 0 0 0 0 0 0 0 0 0zm0.3 0l0 0.59 -0.3 -0.3 0.3 -0.3 0 0zm-3.84 -5.31l0.3 -0.59 0 0 0.3 0.29 0 0 0.3 0 0.3 0 0 0.3 0.3 0 0.3 0 0 0.3 0.3 0 0.3 0.3 0 0 0.3 0.3 0 0.3 0.29 0 0 0.3 0.3 0 0 0.3 0 0.3 0.3 0 0 0.3 0 0.29 0 0.3 0.3 0.3 0 0 0 0.3 0 0.3 0 0.3 0 0.3 0 0.3 0 0.3 0 0 0 0.3 -0.3 0 0 -0.3 0 0 0 -0.3 0 -0.3 0 -0.3 0 -0.3 0 -0.3 -0.3 0 0 -0.3 0 -0.3 0 0 0 -0.3 -0.3 -0.29 0 0 0 -0.3 -0.29 -0.3 0 0 0 -0.3 -0.3 0 0 -0.3 -0.3 0 0 -0.3 -0.3 0 0 -0.3 -0.3 0 -0.3 0 0 -0.3 -0.3 0 0 0 -0.3 -0.3 -0.3 0 -0.3 0 0 0 0 0zm-4.72 2.65l-0.3 0.59 0 -0.29 0 -0.3 0 -0.3 0.3 0 0 -0.3 0 -0.3 0.3 -0.3 0 0 0.3 -0.3 0 0 0.3 -0.3 0 0 0.29 -0.3 0 0 0.3 -0.3 0 0 0.3 -0.29 0.3 0 0 0 0.3 -0.3 0.3 0 0 0 0.3 -0.3 0.3 0 0 0 0.3 0 0.3 0 0 0 0.29 0 0.3 0 0 0 0.3 0 0.3 0 -0.3 0.59 0 0 -0.3 0 0 0 -0.3 0 -0.29 0 0 0 -0.3 0 -0.3 0 0 0 -0.3 0 0 0 -0.3 0.3 -0.3 0 0 0 -0.3 0 0 0.3 -0.3 0 0 0 -0.3 0.3 0 0 -0.3 0.29 0 0 -0.29 0.3 0 0 -0.3 0.3 0 0 0 0.3 -0.3 0.3 0 0 0 0.3 0 0.3 -0.3 0 0 -0.3 0 -0zm-0.3 0.59l0 0 0 -0.29 0 0.29zm4.72 0.59l-0.3 0.3 0 0 0 0 0 0 -0.3 0 0 0 -0.29 0 0 0 -0.3 -0.3 0 0 -0.3 0 0 0 -0.3 0 0 0 -0.3 0 0 0 -0.3 0 0 -0.3 0 0 -0.3 0 0 0 -0.3 0 0 0 -0.3 0 0 0 -0.3 0 0 0 -0.29 -0.3 0 0 -0.3 0 0 0 -0.3 0 0 0 -0.3 0 0.3 -0.59 0 0 0.3 0 0 0.3 0.3 0 0 0 0.29 0 0 0 0.3 0 0 0 0 0 0.3 0 0 0 0.3 0.3 0 0 0.3 0 0 0 0.3 0 0 0 0.3 0 0 0 0.3 0 0 0 0.3 0.3 0 0 0.3 0 0 0 0 0 0.29 0 0 0 0.3 0 0 0.3 0.3 0 0 0 0 0zm3.84 1.48l0.3 0 -0.3 0.3 0 0 -0.3 -0.3 0 0 -0.3 0 0 -0.3 0 0 -0.3 0 0 0 -0.29 0 0 -0.3 0 0 -0.3 0 0 0 -0.3 0 0 0 0 0 -0.3 0 0 -0.3 -0.3 0 0 0 -0.3 0 0 0 -0.3 0 0 0 0 0 -0.3 0 0 0 -0.3 0 0 0 -0.3 -0.3 0 0 -0.29 0 0.29 -0.29 0 0 0.3 0 0 0 0 0 0.3 0 0 0 0.3 0 0 0 0.3 0 0 0.29 0.3 0 0 0 0 0 0.3 0 0 0 0.3 0 0 0 0.3 0 0 0 0.3 0.3 0 0 0.29 0 0 0 0 0 0.3 0 0 0.3 0.3 0 0 0 0.3 0.3 0 0 0.3 0 0 0.3 -0.3 0zm0.3 0l0 0.59 -0.3 -0.3 0.3 -0.3 0 0zm2.95 50.19l0 0 0 0 0 0 0 0 0 0zm-0.3 0l0 -0.3 0.3 0 -0.3 0.3zm0.3 2.95l0 0.3 -0.3 -0.3 0 0 0 0 0 0 0 -0.3 0 0 0 0 0 -0.3 0 0 0 0 0 -0.3 0 0 0 0 0 -0.3 0 0 0 0 0 -0.3 0 0 0 0 0 -0.3 0 0 0 0 0 -0.3 0 0 0 0 0 -0.3 0 0 0 0 0 -0.29 0 0 0 -0.3 0 0 0 0 0.3 0 0 0 0 0 0 0.3 0 0 0 0.29 0 0 0 0 0 0.3 0 0 0 0 0 0.3 0 0 0 0 0 0.3 0 0 0 0 0 0.3 0 0 0 0 0 0.3 0 0 0 0 0 0.3 0 0 0 0 0 0.3 0 0 0 0 0 0.3 0 0 0 0 0 0 0 0zm0 0.3l-0.3 0 0 -0.3 0.3 0.3zm9.15 0l0.3 -0.3 0 0.3 -0.3 0 -0.3 0 -0.3 0 -0.29 0 -0.3 0 -0.3 0 -0.3 0 -0.3 0 -0.3 0 -0.3 0 -0.3 0 -0.3 0 -0.3 0 -0.29 0 -0.3 0 -0.3 0 -0.3 0 -0.3 0 -0.3 0 -0.3 0 -0.3 0 -0.3 0 -0.3 0 -0.29 0 -0.3 0 -0.3 0 -0.3 0 -0.3 0 -0.3 0 -0.3 0 -0.3 0 -0.3 0 0 -0.3 0.3 0 0.3 0 0.3 0 0.3 0 0.3 0 0.3 0 0.3 0 0.3 0 0.29 0 0.3 0 0.3 0 0.3 0 0.3 0 0.3 0 0.3 0 0.3 0 0.3 0 0.3 0 0.29 0 0.3 0 0.3 0 0.3 0 0.3 0 0.3 0 0.3 0 0.3 0 0.3 0 0.3 0 0.29 0 0.3 0 0.3 0 0.3 0 -0.3 0.3zm0.3 -0.3l0.3 0.3 -0.3 0 0 -0.3zm-1.77 -2.66l0.3 0 0 0 0 0 0.3 0 0 0 0 0.3 0 0 0 0 0 0.3 0.3 0 0 0 0 0 0 0.3 0 0 0 0 0 0.3 0.3 0 0 0 0 0 0 0.29 0 0 0 0 0.3 0.3 0 0 0 0 0 0.3 0 0 0 0 0.3 0.3 0 0 0 0 0 0 0 0.3 0 0 -0.3 0.3 0 0 0 -0.3 0 0 -0.3 0 0 -0.3 0 0 0 0 0 -0.3 0 0 -0.3 0 0 0 0 -0.3 0 0 0 0 0 -0.3 -0.3 0 0 0 0 -0.29 0 0 0 0 0 0 0 -0.3 -0.3 0 0 0 0 -0.3 0 0 0 0 0 0 -0.3 -0.3 0 0 0 0 0 -0.3 0 0zm-0.3 0l0 -0.59 0 0 0 0 0 0 0 0 0 0 0 0 0 0 0 0 0 0 0 0 0.3 0 0 0 0 0 0 0 0 0 0 0 0 0 0 0 0 0.3 0 0 0 0 0 0 0.3 0 0 0 0 0 0 0 0 0 0 0 0 0 0 0 0 0 0 0 0 0.3 -0.3 0 0 0 0 0 0 0 0 0 0 0 0 0 0 0 0 0 0 0 0 0 0 0 0 0 -0.3 0 0 0 0 0 0 0 0 0 0 0 0 0 0 0 0 0 0 0 0 0 0 0 0 0 0 0 0 0 0 0 0 0 0 0 0 0 0 0 0 0 0 0zm0 -0.59l0 0 0 0 0 0zm-7.38 0.3l-0.3 0 0.3 -0.3 0 0 0.3 0 0.3 0 0.3 0 0.3 0 0 0 0.29 0 0.3 0 0.3 0 0.3 0 0 0 0.3 0 0.3 0 0.3 0 0 0 0.3 0 0.3 0 0.3 0 0.29 0 0 0 0.3 0 0.3 0 0.3 0 0 0 0.3 0 0.3 0 0.3 0 0.3 0 0 0 0.3 0 0.3 0 0.3 0 0 0.59 -0.3 0 -0.3 0 -0.3 0 0 0 -0.3 0 -0.3 0 -0.3 0 -0.3 0 0 0 -0.3 0 -0.3 0 -0.3 0 0 0 -0.29 0 -0.3 0 -0.3 0 -0.3 0 0 0 -0.3 0 -0.3 0 -0.3 0 0 0 -0.3 0 -0.3 0 -0.3 0 -0.29 0 0 0 -0.3 0 -0.3 0 -0.3 0 -0.3 0 0 0 0 -0.3 0 0zm-0.3 0l0 -0.3 0.3 0 -0.3 0.3zm0 -53.43l0 0 0 0 0 0 0 -0.3 0 0.3zm0 0.29l-0.3 0 0 -0.29 0.3 0.29zm4.43 1.18l-0.3 0.3 0 0 0 -0.3 -0.3 0 0 0 0 -0.3 -0.3 0 0 0 0 -0.29 -0.3 0 0 0 -0.3 -0.3 0 0 0 0 -0.3 0 0 0 0 -0.3 -0.3 0 0 0 -0.29 0 0 0 0 0 -0.3 0 0 0 -0.3 0 0 0 -0.3 0 0 0 -0.3 0 0 0 -0.3 0 -0.3 0 0 0 -0.3 0 0 -0.59 0 0 0.3 0 0.3 0 0 0 0.3 0 0.3 0 0 0 0.3 0 0 0 0.3 0 0 0 0.3 0 0 0 0.29 0 0 0.3 0.3 0 0 0 0.3 0 0 0 0 0.29 0.3 0 0 0 0.3 0 0 0.3 0 0 0.3 0 0 0.3 0.3 0 0 0 0 0.3 0.3 0 0 0.3 0 0 0 0zm3.83 -0.59l0 -0.3 0.3 0.3 -0.3 0.3 0 0 0 0.3 -0.3 0 0 0.3 -0.29 0 0 0.3 0 0 -0.3 0.3 0 0 -0.3 0 0 0.3 -0.3 0 0 0 -0.3 0 0 0 -0.3 0 0 0 -0.3 0 0 0 0 0 -0.3 0 0 0 -0.3 0 0 -0.3 -0.3 0 0 0 -0.29 0 0 -0.3 -0.3 0 0 -0.3 -0.3 0 0.3 -0.3 0.3 0 0 0 0.29 0.3 0 0 0 0 0.3 0.3 0 0 0.3 0 0 0 0 0 0.3 0 0 0.3 0.3 0 0 0 0 0 0.3 0 0 -0.3 0 0 0.3 0 0 0 0.3 0 0 0 0 -0.3 0.3 0 0 0 0 -0.3 0.3 0 0 -0.3 0 0 0.29 -0.3 0 0 0 -0.3 0.3 0.3zm0 -0.3l0.59 -0.3 -0.29 0.59 -0.3 -0.3 -0 -0zm-2.65 -0.59l0.59 -0.59 0 0 0 0.3 0 0 0 0 0 0 0.3 0.3 0 0 0 0 0 0 0 0 0.3 0.3 0 0 0 0 0 0 0 0 0.29 0 0 0 0 0.3 0 0 0 0 0.3 0 0 0 0 0 0 0 0.3 0 0 0 0 0 0 0 0.3 0 0 0 0 0 0.3 0 0 0 0 0.3 0 0.3 0 0 -0.3 0 0 0 -0.3 0 0 0 0 0 -0.3 0 0 0 0 0 0 0 -0.3 -0.3 0 0 0 0 -0.29 0 0 0 0 0 0 0 -0.3 -0.3 0 0 0 0 0 0 -0.3 0 0 -0.3 0 0 0 0 0 0 -0.3 -0.3 0 0 0 0 0 0 -0.3 0 0 0 0 0zm-2.36 -2.95l0.29 -0.3 0 0 0 0 0 0 0.3 0.3 0 0 0 0 0 0 0.3 0.3 0 0 0 0 0 0.29 0.3 0 0 0 0 0.3 0.3 0 0 0 0 0 0 0.3 0.3 0 0 0 0 0.3 0.3 0 0 0 0 0.3 0 0 0.3 0 0 0.3 0 0 0 0 0.3 0 0 0.3 0 0 0.3 0 -0.59 0.59 0 -0.3 0 0 0 0 -0.29 -0.3 0 0 0 0 0 -0.3 -0.3 0 0 0 0 -0.3 -0.3 0 0 0 0 0 0 -0.3 -0.3 0 0 0 0 -0.29 0 0 -0.3 0 0 -0.3 0 0 -0.3 0 0 0 0 -0.3 0 0 -0.3 0 0 -0.3 0 0 -0.3 0 0 -0.3 0 0 0 0 0 0 0 0zm-3.54 -0.3l-0.3 -0.3 0 0 0 0 0.3 0 0 -0.3 0 0 0.3 0 0 -0.3 0.3 0 0 0 0.3 0 0 0 0 0 0.29 0 0 -0.3 0.3 0 0 0 0.3 0 0 0 0.3 0 0 0.3 0.3 0 0 0 0 0 0.3 0 0 0 0.3 0 0 0.3 0.3 0 0 0 0 0.3 0.3 0 0 0 0.3 0.3 -0.3 0.3 -0.3 0 0 -0.3 0 0 -0.3 0 0 -0.3 -0.3 0 0 0 0 0 -0.3 0 0 -0.3 0 0 -0.3 0 0 0 -0.3 0 0 0 0 0 -0.3 0 0 0 0 0 -0.3 0 0 0 -0.29 0 0 0 0 0.3 -0.3 0 0 0 -0.3 0 0 0 0 0.3 -0.3 0 0 0 0 0 0 0zm-0.3 1.48l-0.3 0.29 0 0 0 0 -0.3 0 0 -0.29 0 0 0 0 0 0 0 -0.3 0 0 0 0 0 0 0 -0.3 0 0 0 0 0 0 0 -0.3 0 0 0 0 0 0 0 0 0 -0.3 0 0 0 0 0 0 0.3 0 0 -0.3 0 0 0 0 0 0 0 0 0 0 0.3 -0.3 0 0 0.3 0.3 0 0.3 -0.3 0 0 0 0 0 0 0 0 0 0 0 0 0.3 0 0 0 0 -0.3 0 0 0 0 0 0 0 0 0.3 0 0 0 0 0 0 0 0 0 0 0 0 0 0 0 0 0 0.3 0 0 0 0 0 0 0 0 0.3 0 0 0.3 0 0 0 0 0 0zm0.59 1.47l0 0.59 -0.3 -0.29 0 0 0 0 0 0 0 0 0 -0.3 0 0 0 0 0 0 -0.3 0 0 0 0 -0.3 0 0 0 0 0 0 0 0 0 -0.3 0 0 0 0 0 0 0 0 0 0 0 0 -0.3 -0.3 0 0 0 0 0 0 0 0 0 0 0 0 0 -0.3 0 0 0 0 0.3 -0.3 0 0 0 0 0 0.3 0 0 0 0 0.3 0 0 0 0 0 0 0.3 0 0 0 0 0 0 0 0 0 0 0 0.3 0 0 0 0 0.3 0 0 0 0 0.3 0 0 0 0 0 0 0 0 0 0 0 0.3 0 0 0 0 0 0 0 0 0 0 0 0.3 0 -0.3 0 -0zm0 0.59l-0.3 0 0 -0.29 0.3 0.29zm15.06 46.64l0 0 0 0 0 0 0 0.3 0 -0.3zm0 -0.3l0.3 0 0 0.3 -0.3 -0.3zm-6.5 0l-0.3 0.3 0.3 -0.3 0 0 0.3 0 0.3 0 0 0 0.3 0 0.3 0 0.3 0 0 0 0.3 0 0.3 0 0 0 0.3 0 0.29 0 0 0 0.3 0 0.3 0 0 0 0.3 0 0.3 0 0.3 0 0 0 0.3 0 0.3 0 0 0 0.3 0 0.3 0 0 0 0.29 0 0.3 0 0 0 0.3 0 0.3 0 0 0.59 -0.3 0 -0.3 0 0 0 -0.3 0 -0.29 0 0 0 -0.3 0 -0.3 0 0 0 -0.3 0 -0.3 0 0 0 -0.3 0 -0.3 0 -0.3 0 0 0 -0.3 0 -0.3 0 0 0 -0.29 0 -0.3 0 0 0 -0.3 0 -0.3 0 0 0 -0.3 0 -0.3 0 -0.3 0 0 0 -0.3 0 -0.3 0 0 0 0 -0.59zm-0.3 0.3l-0.3 -0.3 0.59 0 -0.3 0.3 -0 0zm1.48 2.66l-0.3 0 0 0 0 0 -0.3 0 0 -0.3 0 0 0 0 0 0 0 -0.3 0 0 0 0 0 0 -0.3 -0.3 0 0 0 0 0 -0.29 0 0 0 0 0 0 0 -0.3 -0.29 0 0 0 0 -0.3 0 0 0 0 0 0 0 -0.3 0 0 0 0 -0.3 -0.3 0 0 0 0 0 -0.3 0 0 0.3 -0.3 0 0.3 0.29 0 0 0 0 0.3 0 0 0 0 0 0.3 0 0 0 0 0.3 0 0 0.3 0 0 0 0 0 0.3 0 0 0 0 0 0 0 0.3 0.3 0 0 0 0 0.29 0 0 0 0 0 0 0 0.3 0 0 0 0 0.3 0.3 0 0 0 0 0 0 0 0.3 0 0zm-0.3 0l0 0 0 0 0 0zm0.59 0.3l0 0.3 0 0 0 0 0 0 -0.3 0 0 0 0 0 0 0 0 0 0 0 0 0 0 0 0 0 0 0 0 0 0 0 -0.29 0 0 0 0 -0.3 0 0 0 0 0 0 0 0 0 0 0 0 0 0 0 0 0 0 0 0 0 0 0 0 0 -0.3 0 0 0 0 0.29 0 0 0 0 0 0 0 0 0 0 0 0 0 0 0 0 0 0 0 0 0 0 0 0 0 0 0 0 0 0 0 0.3 0 0 0 0 0 0 0 0 0.3 0 0 0 0 0 0 0 0 0 0 0 0 0 0 0 0 0 0 0 0 0 0 0 0 0 0zm0 0l0 0 0 0 0 0zm4.72 0.3l0.59 0 -0.3 0 -0.3 0 0 0 -0.3 0 0 0 -0.29 0 0 0 -0.3 0 0 0 -0.3 0 -0.3 0 0 0 -0.3 0 0 0 -0.3 0 0 0 -0.3 0 0 0 -0.3 0 0 0 -0.3 0 0 0 -0.3 0 0 0 -0.3 0 -0.29 0 0 0 -0.3 0 0 0 -0.3 0 0 0 -0.3 0 0 0 0 -0.3 0 0 0.3 0 0 0 0.3 0 0 0 0.3 0 0 0 0.29 0 0.3 0 0 0 0.3 0 0 0 0.3 0 0 0 0.3 0 0 0 0.3 0 0 0 0.3 0 0 0 0.3 0 0 0 0.3 0 0.3 0 0 0 0.3 0 0 0 0.29 0 0 0 0.3 0 0 0 0.3 0 -0.3 0.3 0 0zm0.59 0l0 0 -0.3 0 0.3 0zm-0.3 -2.95l0 -0.59 0.3 0.3 0 0 0 0 0 0.3 0 0 0 0 0 0.3 0 0 0 0 0 0.3 0 0 0 0 0 0.3 0 0 0 0 0 0.3 0 0 0 0 0 0.3 0 0 0 0 0 0.29 0 0 0 0 0 0.3 0 0 0 0 0 0.3 0 0 0 0 0 0.3 0 0 0 0.3 -0.59 0 0 -0.3 0 0 0 -0.3 0 0 0 0 0 -0.3 0 0 0 0 0 -0.3 0 0 0 0 0 -0.29 0 0 0 0 0 -0.3 0 0 0 0 0 -0.3 0 0 0 0 0 -0.3 0 0 0 0 0 -0.3 0 0 0 0 0 -0.3 0 0 0 0 0 -0.3 0 0 0 0 0.3 0.3 0 0zm0 -0.59l0.3 0 0 0.3 -0.3 -0.3zm-8.56 3.25l0 0 0 0 0 0 -0.3 0.3 0.3 -0.3zm0 0l0.3 0.3 -0.3 0 0 -0.3zm-1.18 -2.66l0.3 -0.3 0 0 0 0.3 0 0 0 0 0 0.3 0 0 0.3 0 0 0 0 0.3 0 0 0 0 0 0.3 0 0 0 0 0 0.3 0.3 0 0 0 0 0 0 0.3 0 0 0 0 0 0.3 0 0 0 0 0.3 0.3 0 0 0 0 0 0.3 0 0 0 0 0 0.29 0 0 0 0 -0.3 0.3 0 -0.3 0 0 0 0 0 -0.29 -0.3 0 0 0 0 0 0 -0.3 0 0 0 0 0 -0.3 0 0 0 0 -0.3 -0.3 0 0 0 0 0 -0.3 0 0 0 0 0 0 0 -0.3 0 0 0 0 -0.3 -0.3 0 0 0 0 0 -0.3 0 0 0 0 0 0 0 -0.3 0 0 0 0zm-0.29 -0.3l0 -0.3 0 0 0 0 0 0 0 0 0 0 0 0 0 0 0.29 0 0 0 0 0 0 0 0 0 0 0 0 0 0 0 0 0 0 0 0 0 0 0 0 0 0 0 0 0.3 0 0 0.3 0 0 0 0 0 0 0 0 0 0 0 0 0 0 0 0 0 0 0 -0.3 0.3 0 0 0 0 -0.29 0 0 0 0 0 0 0 0 0 0 0 0 0 0 0 0 0 0 0 0 0 0 0 0 0 0 0 0 0 0 0 0 -0.3 0 0 0 0 0 0 0 0 0 0 0 0 0 0 0 0 0 0 0 0 0 0 0 0 0 0 0 0zm0 -0.3l0 0 0 0 0 0zm-4.43 0l-0.59 0 0.3 0 0 0 0.3 0 0 0 0.29 0 0 0 0.3 0 0 0 0.3 0 0 0 0.3 0 0 0 0.3 0 0 0 0.3 0 0 0 0.3 0 0 0 0.3 0 0 0 0.3 0 0 0 0.3 0 0 0 0.29 0 0 0 0.3 0 0 0 0.3 0 0 0 0.3 0 0 0 0.3 0 0 0.3 -0.3 0 0 0 -0.3 0 0 0 -0.3 0 0 0 -0.3 0 0 0 -0.29 0 0 0 -0.3 0 0 0 -0.3 0 0 0 -0.3 0 0 0 -0.3 0 0 0 -0.3 0 0 0 -0.3 0 0 0 -0.3 0 0 0 -0.3 0 0 0 -0.3 0 0 0 -0.29 0 0 0 -0.3 0 0 0 0.3 -0.3 0 0zm-0.59 0l0 0 0.3 0 -0.3 0zm0.3 3.25l0 0.3 -0.3 -0.3 0 0 0 0 0 -0.3 0 0 0 0 0 -0.3 0 0 0 0 0 -0.3 0 0 0 0 0 -0.3 0 0 0 0 0 -0.29 0 0 0 0 0 -0.3 0 0 0 0 0 -0.3 0 0 0 0 0 -0.3 0 0 0 0 0 -0.3 0 0 0 0 0 -0.3 0 0 0 -0.3 0.59 0 0 0.3 0 0 0 0.3 0 0 0 0 0 0.3 0 0 0 0 0 0.3 0 0 0 0 0 0.3 0 0 0 0 0 0.3 0 0 0 0 0 0.29 0 0 0 0 0 0.3 0 0 0 0 0 0.3 0 0 0 0 0 0.3 0 0 0 0 0 0.3 0 0 0 0 -0.3 0 0 0zm0 0.3l-0.3 0 0 -0.3 0.3 0.3zm5.9 0l0.3 -0.3 0 0.3 -0.3 0 -0.29 0 0 0 -0.3 0 -0.3 0 0 0 -0.3 0 -0.3 0 0 0 -0.3 0 -0.3 0 0 0 -0.3 0 0 0 -0.3 0 -0.3 0 0 0 -0.29 0 -0.3 0 0 0 -0.3 0 -0.3 0 0 0 -0.3 0 -0.3 0 0 0 -0.3 0 -0.3 0 0 0 -0.3 0 -0.3 0 0 0 0 -0.3 0 0 0.3 0 0.3 0 0 0 0.3 0 0.3 0 0 0 0.3 0 0.3 0 0 0 0.3 0 0.3 0 0 0 0.3 0 0.29 0 0 0 0.3 0 0.3 0 0 0 0.3 0 0 0 0.3 0 0.3 0 0 0 0.3 0 0.3 0 0 0 0.3 0 0.3 0 0 0 0.29 0 0.3 0 -0.3 0.3zm0.3 -0.3l0.3 0.3 -0.3 0 0 -0.3zm-13.87 -34.24l0 0 0 0 0 0 0.3 0 -0.3 0zm0 0l0 -0.3 0 0 0 0.3zm0.3 3.25l-0.3 0 0 0 0 0 0 0 0 -0.3 0 0 0 0 0 -0.3 0 0 0 0 0 -0.3 0 0 0 0 0 -0.3 0 0 0 0 0 -0.29 0 0 0 0 0 -0.3 0 0 0 -0.3 0 0 0 0 0 -0.3 0 0 0 0 0 -0.3 0 0 0 0 0 -0.3 0 0 0 -0.3 0 0 0.3 0 0 0 0 0.3 0 0 0 0.3 0 0 0 0 0 0.3 0 0 0 0 0 0.3 0 0 0 0 0 0.3 0 0 0 0.3 0 0 0 0 0 0.29 0 0 0 0 0 0.3 0 0 0 0 0 0.3 0 0 0 0 0 0.3 0 0 0 0 0 0.3 0 0 0 0 0 0zm1.18 1.48l0 0.3 0 0 0 0 0 0 0 0 -0.3 0 0 0 0 0 0 0 -0.3 0 0 0 0 0 0 0 -0.29 -0.3 0 0 0 0 0 0 -0.3 0 0 0 0 -0.3 0 0 0 0 0 0 -0.3 -0.3 0 0 0 0 0 0 0 -0.3 0 0 0 0 0 -0.29 0 0 0 0 0 -0.3 0.3 0 0 0.3 0 0 0 0 0 0 0 0.29 0 0 0.3 0 0 0 0 0 0 0.3 0 0 0 0 0 0 0 0 0 0 0 0.3 0.29 0 0 0 0 0 0 0 0 0 0 0 0.3 0 0 0 0 0 0 0.3 0 0 0.3 0 0 0 0 0 0 0 0 0 0 0zm1.48 -1.18l0.3 0 0 0 0 0 0 0 0 0.3 0 0 0 0 0 0.3 0 0 0 0 -0.3 0 0 0.3 0 0 0 0 0 0 0 0 -0.3 0.3 0 0 0 0 0 0 0 0 -0.29 0 0 0.3 0 0 0 0 0 0 -0.3 0 0 0 0 0 0 0 -0.3 0 0 0 0 0 -0.3 0 0 -0.3 0.3 0 0 0 0 0 0 0 0 0 0.3 -0.3 0 0 0 0 0 0 0 0 0.3 0 0 0 0 0 0 0 0 0 0 0 0 -0.3 0.29 0 0 0 0 0 0 0 0 0 0 0 0 -0.3 0 0 0 0 0 0 0 0 0 -0.3 0 0 0.3 0 0 0 0 0zm0 -3.25l0 -0.59 0.3 0.3 0 0 0 0.3 0 0 0 0.3 0 0 0 0 0 0.3 0 0 0 0 0 0.3 0 0 0 0 0 0.3 0 0 0 0.3 0 0 0 0 0 0.3 0 0 0 0 0 0.29 0 0 0 0.3 0 0 0 0 0 0.3 0 0 0 0 0 0.3 0 0 0 0 0 0.3 -0.3 0 0 -0.3 0 0 0 0 0 -0.3 0 0 0 0 0 -0.3 0 0 0 -0.3 0 0 0 0 0 -0.29 0 0 0 0 0 -0.3 0 0 0 0 0 -0.3 0 0 0 -0.3 0 0 0 0 0 -0.3 0 0 0 0 0 -0.3 0 0 0 0 0 -0.3 0 0 0 -0.3 0 0 0 0.3 0 0zm0 -0.59l0.3 0 0 0.3 -0.3 -0.3zm-2.66 0.3l-0.3 0 0 -0.3 0.3 0 0 0 0 0 0.3 0 0 0 0 0 0.3 0 0 0 0 0 0.3 0 0 0 0 0 0 0 0.3 0 0 0 0 0 0.3 0 0 0 0 0 0.3 0 0 0 0 0 0.3 0 0 0 0 0 0 0 0.3 0 0 0 0 0 0.29 0 0 0 0 0 0 0.59 0 0 0 0 -0.29 0 0 0 0 0 -0.3 0 0 0 0 0 0 0 -0.3 0 0 0 0 0 -0.3 0 0 0 0 0 -0.3 0 0 0 0 0 -0.3 0 0 0 0 0 0 0 -0.3 0 0 0 0 0 -0.3 0 0 0 0 0 -0.3 0 0 0 0 0 -0.3 0 0.3 -0.29 0 -0zm-0.3 0l0 -0.3 0 0 0 0.3zm22.44 37.79l0 0 0 0 0 0 0 0.3 0 -0.3zm0 -0.3l0.3 0 0 0.3 -0.3 -0.3zm-3.54 0l-0.3 0.3 0.3 -0.3 0 0 0.3 0 0 0 0 0 0.3 0 0 0 0 0 0.3 0 0 0 0.3 0 0 0 0 0 0.3 0 0 0 0 0 0.3 0 0 0 0.3 0 0 0 0 0 0.29 0 0 0 0 0 0.3 0 0 0 0.3 0 0 0 0 0 0.3 0 0 0 0 0 0.3 0 0 0.59 -0.3 0 0 0 0 0 -0.3 0 0 0 0 0 -0.3 0 0 0 -0.3 0 0 0 0 0 -0.29 0 0 0 0 0 -0.3 0 0 0 -0.3 0 0 0 0 0 -0.3 0 0 0 0 0 -0.3 0 0 0 -0.3 0 0 0 0 0 -0.3 0 0 0 0 0 -0.3 0 0 0 0 -0.59zm-0.3 0.3l-0.3 -0.3 0.59 0 -0.29 0.3 -0 0zm1.48 1.77l-0.3 0.3 0 0 0 0 0 0 0 0 0 0 0 -0.3 -0.3 0 0 0 0 0 0 0 0 -0.3 0 0 0 0 0 0 -0.3 -0.3 0 0 0 0 0 0 0 0 0 -0.3 0 0 0 0 -0.3 0 0 0 0 -0.3 0 0 0 0 0 0 0 -0.3 0 0 -0.29 0 0 0 0 -0.3 0.29 -0.3 0.3 0.3 0 0 0 0 0 0 0 0.3 0 0 0 0 0 0 0.3 0.3 0 0 0 0 0 0 0 0 0 0.3 0 0 0.3 0 0 0 0 0.3 0 0 0 0 0 0 0 0 0 0.3 0.3 0 0 0 0 0 0 0 0 0.3 0 0 0 0 0 0 0 0 0 0zm2.07 1.18l0.59 0 -0.3 0.3 -0.3 0 0 0 0 0 -0.3 0.29 0 0 0 0 -0.29 0 0 0 0 0 -0.3 0 0 0 0 0 -0.3 0 0 0 0 0 0 0 -0.3 -0.29 0 0 0 0 0 0 0 0 -0.3 0 0 -0.3 0 0 0 0 0 0 -0.3 -0.3 0 0 0 0 0 -0.3 -0.3 0 0 -0.3 0.3 -0.3 0.3 0.3 0 0 0 0.3 0 0 0.3 0 0 0.3 0 0 0 0 0 0 0 0 0.3 0.3 0 0 0 0 0 0 0 0 0 0 0 0 0 0 0.3 0 0 0 0 0 0 0 0 0 0.3 0 0 0 0 0 0.29 0 0 0 0 0 0.3 0 0 0 0.3 0 -0.3 0 0 0zm0.59 0l0 0.3 -0.3 0 0.3 -0.3zm-0.3 -2.66l0 -0.59 0.3 0.3 0 0 0 0.3 0 0 0 0 0 0.3 0 0 0 0 0 0.29 0 0 0 0 0 0.3 0 0 0 0 0 0.3 0 0 0 0 0 0.3 0 0 0 0 0 0.3 0 0 0 0 0 0 0 0.3 0 0 0 0 0 0.3 0 0 0 0 0 0.3 0 0 0 0 -0.59 0 0 0 0 0 0 -0.3 0 0 0 0 0 -0.3 0 0 0 0 0 -0.3 0 0 0 0 0 0 0 -0.3 0 0 0 0 0 -0.3 0 0 0 0 0 -0.3 0 0 0 0 0 -0.3 0 0 0 0 0 -0.29 0 0 0 0 0 -0.3 0 0 0 0 0 -0.3 0 0 0.3 0.3 0 0zm0 -0.59l0.3 0 0 0.3 -0.3 -0.3z"/>
    </g>
    <g>
     <path class="fil1" d="M33.62 32.14c0,-6.2 4.72,-11.51 10.63,-11.22 5.61,0 10.33,5.02 10.33,11.22 0,6.5 -4.72,11.51 -10.63,11.51 -5.61,0 -10.33,-5.02 -10.33,-11.51zm18.01 -1.48l0 0c-0.59,-0.89 -0.89,-1.77 -1.18,-2.95 -0.3,-0.59 -0.59,-0.59 -1.18,-0.29 -3.54,1.47 -7.08,2.95 -10.33,4.72 -2.66,1.18 -2.66,1.77 -1.18,4.43 0,0 0.3,0.3 0.3,0.3 0.3,0.3 0.59,0.59 0.89,0.3 4.13,-1.48 8.26,-3.25 12.1,-5.61 0,-0.3 0.3,-0.59 0.59,-0.89l0 0zm-14.46 -1.47l0 0c3.25,-1.48 6.5,-2.95 9.44,-4.43 -3.54,-1.77 -7.97,0.3 -9.44,4.43zm4.43 10.63l0 0c3.54,2.07 8.56,-0.89 9.15,-4.43 -2.95,1.48 -6.2,2.95 -9.15,4.43z"/>
     <path id="_1_103" class="fil1" d="M44.24 20.63l0 0.3 0 0 -0.59 0 -0.59 0.3 -0.3 0 -0.59 0 -0.59 0.3 -0.3 0 -0.59 0.3 -0.59 0 -0.3 0.3 -0.59 0.29 -0.3 0.3 -0.3 0.3 -0.59 0.3 -0.3 0.3 -0.3 0.3 -0.59 0.3 -0.3 0.59 -0.3 0.3 -0.29 0.59 -0.3 0.3 -0.3 0.59 -0.3 0.3 0 0.59 -0.3 0.3 -0.3 0.59 0 0.59 -0.3 0.59 0 0.59 0 0.3 -0.3 0.59 0 0.59 0 0.59 -0.3 0 0 -0.59 0 -0.59 0 -0.59 0 -0.59 0.3 -0.59 0 -0.59 0.3 -0.3 0.3 -0.59 0 -0.59 0.3 -0.59 0.3 -0.3 0.3 -0.59 0.3 -0.3 0.3 -0.59 0.29 -0.3 0.3 -0.59 0.59 -0.3 0.3 -0.3 0.3 -0.3 0.59 -0.59 0.3 -0.3 0.59 -0.3 0.3 0 0.59 -0.3 0.59 -0.3 0.3 -0.3 0.59 0 0.59 0 0.29 -0.3 0.59 0 0.59 0 0.59 0 0 0 -0 0zm10.63 11.51l-0.59 0 0 0 0 -0.3 0 -0.59 0 -0.59 -0.3 -0.59 0 -0.59 0 -0.59 -0.3 -0.59 -0.3 -0.3 0 -0.59 -0.3 -0.59 -0.3 -0.3 -0.3 -0.59 -0.3 -0.3 -0.29 -0.59 -0.3 -0.3 -0.3 -0.3 -0.3 -0.59 -0.3 -0.3 -0.59 -0.3 -0.3 -0.3 -0.3 -0.3 -0.59 -0.3 -0.3 -0.3 -0.59 -0.3 -0.3 0 -0.59 -0.3 -0.59 0 -0.3 -0.29 -0.59 0 -0.59 0 -0.3 -0.3 -0.59 0 0 -0.3 0.59 0 0.59 0 0.3 0 0.59 0.3 0.59 0 0.59 0.3 0.3 0 0.59 0.29 0.3 0.3 0.59 0.3 0.3 0.3 0.59 0.3 0.3 0.3 0.59 0.3 0.3 0.3 0.3 0.59 0.3 0.3 0.3 0.3 0.59 0.59 0.3 0.3 0 0.59 0.3 0.59 0.3 0.3 0.29 0.59 0 0.59 0.3 0.59 0.3 0.59 0 0.59 0 0.3 0 0.59 0.3 0.59 0 0.59 0 0 0 0zm-10.92 11.81l0 -0.3 0 0 0.59 -0.3 0.59 0 0.59 0 0.3 0 0.59 -0.3 0.59 0 0.3 -0.3 0.59 0 0.3 -0.3 0.59 -0.3 0.3 -0.3 0.59 -0.3 0.3 -0.3 0.3 -0.3 0.59 -0.29 0.3 -0.59 0.3 -0.29 0.3 -0.3 0.29 -0.59 0.3 -0.3 0.3 -0.59 0.3 -0.3 0.3 -0.59 0 -0.59 0.3 -0.29 0.3 -0.59 0 -0.59 0 -0.59 0.3 -0.59 0 -0.59 0 -0.59 0 -0.59 0.59 0 0 0.59 -0.3 0.89 0 0.3 0 0.59 0 0.59 -0.3 0.59 -0.3 0.59 0 0.59 -0.3 0.59 -0.3 0.3 -0.3 0.59 -0.29 0.59 -0.3 0.29 -0.3 0.59 -0.3 0.29 -0.3 0.59 -0.3 0.29 -0.59 0.3 -0.3 0.3 -0.3 0.3 -0.59 0.3 -0.3 0.3 -0.59 0.3 -0.59 0.3 -0.3 0.3 -0.59 0 -0.59 0.3 -0.3 0 -0.59 0.3 -0.59 0 -0.59 0 -0.59 0 0 0zm-10.33 -11.81l0.3 0 0 0 0 0.59 0 0.59 0.3 0.59 0 0.59 0 0.59 0.3 0.59 0 0.3 0.3 0.59 0.3 0.59 0 0.3 0.3 0.59 0.3 0.59 0.3 0.3 0.29 0.59 0.3 0.3 0.3 0.3 0.3 0.59 0.59 0.3 0.3 0.3 0.3 0.3 0.59 0.3 0.3 0.29 0.59 0.3 0.3 0 0.59 0.3 0.3 0.3 0.59 0 0.3 0.3 0.59 0 0.59 0 0.59 0 0.3 0.3 0 0.3 -0.3 0 -0.59 0 -0.59 0 -0.59 -0.3 -0.59 0 -0.3 -0.3 -0.59 0 -0.59 -0.3 -0.3 -0.3 -0.59 -0.3 -0.3 -0.3 -0.59 -0.29 -0.3 -0.3 -0.3 -0.3 -0.59 -0.3 -0.3 -0.59 -0.3 -0.3 -0.3 -0.3 -0.3 -0.59 -0.3 -0.3 -0.29 -0.59 -0.3 -0.59 -0.3 -0.3 -0.3 -0.59 0 -0.59 -0.3 -0.59 0 -0.59 -0.3 -0.59 0 -0.59 0 -0.59 0 -0.59 0 -0.59 0 0 0 0zm18.01 -1.48l0 0 0 0 0 0 -0.3 0.3 0.3 -0.3zm0.3 0l0 0.3 -0.3 0 0.3 -0.3zm-1.77 -2.65l0.3 -0.3 0 0 0.3 0 0 0.3 0 0 0 0 0 0 0 0.3 0 0 0 0 0.3 0.29 0 0 0 0 0 0.3 0 0 0 0 0 0.3 0 0 0.3 0 0 0 0 0.3 0 0 0 0 0 0.3 0 0 0 0 0.29 0.3 0 0 0 0 0 0.3 0 0 0 0 0 0.3 0.3 0 -0.59 0.3 0 -0.3 0 0 0 0 0 -0.3 0 0 -0.3 0 0 -0.3 0 0 0 0 0 -0.3 0 0 0 0 -0.3 -0.3 0 0 0 0 0 0 0 -0.3 0 0 0 0 0 -0.3 -0.29 0 0 0 0 -0.3 0 0 0 0 0 -0.29 0 0 0 0 -0.3 0 0 -0.3 0 0 0 0 0 0 0 0zm0 0l0 0 0 0.3 0 -0.3zm-0.89 -0.3l-0.3 -0.59 0 0 0.3 0 0 0 0 0 0 0 0 0 0.3 0 0 0 0 -0.3 0 0 0 0 0 0 0.3 0 0 0 0 0.3 0 0 0 0 0.3 0 0 0 0 0 0 0 0 0 0 0 0 0 0.3 0.3 0 0 0 0 0 0 0 0 0 0 0 0.3 0 0 0 0 -0.3 0.3 0 -0.3 0 0 0 0 0 0 0 0 0 0 0 0 -0.3 0 0 0 0 -0.3 0 0 0 0 0 0 0 0 0 0 0 0 0 0 0 0 0 0 0 0 -0.3 0 0 0 0 0 0 0 0 0 0 0 0 0 0 0 -0.3 0 0 0 0 0 0 0.3 0 0 0 0zm-10.33 4.72l-0.3 -0.59 0 0 0.59 0 0.3 -0.3 0.3 0 0.3 -0.3 0.3 0 0.29 -0.29 0.3 0 0.3 -0.3 0.3 0 0.3 -0.3 0.3 0 0.59 -0.3 0.3 0 0.3 -0.3 0.3 0 0.3 -0.3 0.3 0 0.29 -0.3 0.3 0 0.3 -0.3 0.3 0 0.3 -0.3 0.59 0 0.3 -0.3 0.3 0 0.3 -0.29 0.3 0 0.3 -0.3 0.3 0 0.29 -0.3 0.3 -0.3 0.3 0 0.3 0.59 -0.3 0 -0.3 0.3 -0.3 0 -0.29 0.3 -0.3 0 -0.59 0.3 -0.3 0 -0.3 0.3 -0.3 0 -0.3 0.29 -0.3 0 -0.3 0.3 -0.3 0 -0.3 0.3 -0.3 0 -0.59 0.3 -0.3 0 -0.29 0.3 -0.3 0 -0.3 0.3 -0.3 0 -0.3 0.3 -0.3 0 -0.3 0.3 -0.3 0 -0.3 0.3 -0.3 0 -0.59 0.3 -0.3 0 -0.29 0.29 -0.3 0 -0.3 0.3 0 0zm-0.89 4.13l-0.3 0 0 0 -0.3 0 0 -0.3 -0.3 -0.3 0 -0.3 0 0 -0.3 -0.3 0 -0.3 0 0 0 -0.3 -0.3 0 0 -0.29 0 0 0 -0.3 0 0 0 -0.3 0 0 0 -0.3 0.3 0 0 -0.3 0 0 0 -0.3 0.3 0 0 0 0.3 -0.3 0 0 0.3 0 0 -0.3 0.3 0 0 0 0.3 -0.3 0.3 0 0 -0.3 0.3 0.59 -0.3 0 0 0.29 -0.3 0 -0.3 0 0 0.3 -0.3 0 0 0 -0.3 0.3 0 0 0 0 -0.3 0.3 0 0 0 0 0 0 0 0.3 0 0 0 0 0 0.3 0 0 0 0 0 0.3 0 0 0 0.3 0 0 0 0.3 0.3 0 0 0.3 0 0.29 0.3 0 0 0.3 0 0.3 0.3 0.3 0 0 0 0zm0 0.3l0 0.3 0 0 0 0 0 0 0 0 -0.3 0 0 0 0 0 0 0 0 0 0 0 0 0 0 0 0 -0.3 0 0 0 0 0 0 0 0 0 0 0 0 0 0 0 0 0 0 0 0 0 0 0 0 0 0 0 0 0 0 0 0 0 0 0 -0.3 0 0 0 0 0.3 0 0 0 0 0 0 0 0 0 0 0 0 0 0 0 0 0 0 0 0 0 0 0 0 0 0 0 0 0 0 0 0 0 0 0 0 0 0 0.3 0 0 0 0 0 0 0 0 0 0 0 0 0 0 0 0 0 0 0 0 0 0 0 0 0 0 0 0zm0 0l0 0 0 0 0 0zm0.89 0l0 0.59 0 0 0 0 0 0 0 0 0 0 -0.3 0 0 0 0 0 0 0 0 0 0 0 0 0 0 0 0 0 -0.3 0 0 0 0 0 0 0 0 0 0 0 0 0 0 0 0 0 0 0 -0.3 0 0 -0.3 0 0 0 0 0 0 0 0 0 0 0 0 0 0 0 -0.3 0 0 0.3 0 0 0 0 0 0 0 0 0 0 0 0 0 0 0 0 0 0 0 0 0 0.3 0 0 0 0 0 0 0 0 0 0 0 0 0 0 0 0 0 0 0 0 0.3 0 0 0 0 0 0 0 0 0.3 0 0 0 0 0 0 0 0 -0.3 0 0 0 0zm11.81 -5.61l0.3 0.3 0 0 -0.3 0.3 -0.3 0.3 -0.59 0.3 -0.3 0 -0.3 0.3 -0.3 0.3 -0.59 0 -0.3 0.29 -0.3 0.3 -0.29 0 -0.59 0.3 -0.29 0.3 -0.3 0 -0.3 0.3 -0.59 0.3 -0.3 0 -0.3 0.3 -0.59 0 -0.3 0.3 -0.3 0.3 -0.3 0 -0.59 0.3 -0.3 0 -0.3 0.3 -0.59 0 -0.3 0.29 -0.3 0.3 -0.59 0 -0.3 0.3 -0.3 0 -0.59 0.3 -0.3 0 0 -0.59 0.3 0 0.3 0 0.59 -0.3 0.3 0 0.3 -0.3 0.59 -0.3 0.3 0 0.3 -0.3 0.3 0 0.59 -0.29 0.3 0 0.3 -0.3 0.59 0 0.3 -0.3 0.3 -0.3 0.3 0 0.59 -0.3 0.3 0 0.29 -0.3 0.3 -0.3 0.59 0 0.3 -0.3 0.3 -0.3 0.3 0 0.59 -0.3 0.3 -0.3 0.3 0 0.3 -0.29 0.59 -0.3 0.3 -0.3 0.3 0 0.3 -0.3 0 0 0 0zm0 0l0 0 0 0 0 0zm0.59 -0.3l0.59 -0.3 -0.3 0.3 0 0 0 0 0 0 0 0 0 0 0 0 0 0.3 0 0 0 0 0 0 0 0 0 0 0 0 -0.3 0 0 0 0 0 0 0 0 0 0 0.3 0 0 0 0 0 0 0 0 0 0 0 0 0 0 0 0 -0.3 0 0 0 0 0 0 0 0 0 -0.3 -0.3 0 0 0 0 0.3 0 0 0 0 0 0 0 0 0 0 0 0 0 0 0 0 0 0 -0.3 0 0 0 0 0 0 0 0 0 0 0 0 0 0 0 0 0.3 0 0 0 0 0 0 0 0 -0.3 0 0 0 0 0 0 0 0 0 0 0 0 0 0 0 0.3 0 0zm0.59 -0.3l0 0.3 -0.3 0 0.3 -0.3zm-14.76 -1.47l0 0 0 0 0 0 0 -0.3 0 0.3zm0.3 0.29l-0.59 0.3 0.3 -0.59 0.3 0.3 0 0zm9.15 -4.43l0.3 -0.59 0 0.59 -0.3 0 -0.3 0 -0.3 0.3 -0.29 0 -0.3 0.3 -0.3 0 -0.3 0.29 -0.3 0 -0.3 0.3 -0.3 0 -0.3 0.3 -0.3 0 -0.3 0.3 -0.29 0 -0.3 0.3 -0.3 0 -0.3 0.3 -0.3 0 -0.3 0.3 -0.3 0 -0.3 0.3 -0.3 0 -0.3 0.3 -0.3 0 -0.29 0.3 -0.3 0 -0.3 0.29 -0.3 0 -0.3 0 -0.3 0.3 -0.3 0 -0.3 0.3 -0.3 -0.59 0.3 0 0.3 -0.3 0.3 0 0.3 -0.3 0.3 0 0.3 -0.3 0.3 0 0.3 0 0.29 -0.29 0.3 0 0.3 -0.3 0.3 0 0.3 -0.3 0.3 0 0.3 -0.3 0.3 0 0.3 -0.3 0.3 0 0.3 -0.3 0.29 0 0.3 -0.3 0.3 0 0.3 -0.3 0.3 0 0.3 -0.3 0.3 0 0.3 -0.3 0.3 0 0.3 -0.29 0.29 0 0.3 -0.3 0.3 0 0 0.59zm0.3 -0.59l0.3 0.3 -0.3 0.29 0 -0.59 0 0zm-9.74 4.43l0.3 0.59 -0.3 -0.29 0 -0.3 0.3 -0.59 0 -0.3 0.3 -0.3 0.3 -0.3 0 -0.3 0.3 -0.3 0.3 -0.3 0.29 -0.3 0.3 -0.3 0.3 -0.3 0.3 -0.29 0.3 -0.3 0.3 0 0.3 -0.3 0.3 -0.3 0.3 0 0.59 -0.3 0.3 0 0.3 0 0.29 -0.3 0.3 0 0.59 0 0.3 0 0.3 0 0.3 0 0.59 0 0.3 0 0.3 0.3 0.3 0 0.59 0 0.3 0.3 -0.3 0.59 -0.3 -0.3 -0.3 0 -0.3 -0.3 -0.3 0 -0.29 0 -0.59 0 -0.29 0 -0.3 0 -0.3 0 -0.3 0 -0.3 0 -0.59 0 -0.3 0.3 -0.3 0 -0.3 0 -0.3 0.3 -0.3 0 -0.3 0.3 -0.29 0.3 -0.3 0 -0.3 0.3 -0.3 0.3 -0.3 0.29 -0.3 0.3 -0.3 0.3 0 0.3 -0.3 0.3 -0.3 0.3 0 0.3 -0.3 0.3 0 0.3 -0.3 0.3 -0.29 -0.3 -0 -0zm0.3 0.59l-0.59 0.3 0.3 -0.59 0.3 0.3 0 0zm4.13 10.33l0 0 0 0 0 0 0 -0.3 0 0.3zm0 0.3l-0.59 -0.3 0.59 -0.3 0 0.59 0 0zm9.44 -4.43l-0.3 -0.59 0.3 0.3 0 0.3 -0.3 0.3 0 0.59 -0.3 0.3 0 0.29 -0.3 0.3 -0.3 0.3 0 0.3 -0.3 0.3 -0.29 0.3 -0.3 0.3 -0.3 0.3 -0.3 0 -0.3 0.3 -0.3 0.3 -0.3 0 -0.59 0.29 -0.3 0 -0.3 0.3 -0.3 0 -0.59 0.3 -0.3 0 -0.3 0 -0.29 0 -0.59 0 -0.29 0 -0.3 0 -0.59 0 -0.3 -0.3 -0.3 0 -0.3 -0.3 -0.3 0 0 -0.59 0.3 0.3 0.3 0 0.59 0.3 0.3 0 0.3 0 0.3 0 0.29 0 0.59 0 0.29 0 0.3 0 0.3 0 0.3 0 0.3 -0.3 0.59 0 0.3 -0.3 0.3 0 0.3 -0.3 0.3 0 0.3 -0.29 0.3 -0.3 0.29 -0.3 0.3 0 0.3 -0.3 0.3 -0.3 0 -0.3 0.3 -0.3 0.3 -0.3 0 -0.3 0.3 -0.3 0 -0.29 0 -0.3 0.3 -0.3 0.3 0.3 0 0zm-0.3 -0.59l0.59 -0.3 -0.3 0.59 -0.3 -0.3 0 0zm-9.15 4.43l0 0.59 0 -0.59 0.3 0 0.3 -0.3 0.29 0 0.3 -0.3 0.3 0 0.3 -0.3 0.3 0 0.3 0 0 -0.3 0.3 0 0.3 -0.3 0.3 0 0.3 -0.3 0.29 0 0.3 -0.3 0.3 0 0.3 -0.29 0.3 0 0.3 -0.3 0.3 0 0.3 -0.3 0.3 0 0.3 -0.3 0.29 0 0.3 -0.3 0.3 0 0.3 -0.3 0.3 0 0.3 0 0.3 -0.3 0.3 0 0.3 -0.3 0.3 0.59 -0.3 0 -0.3 0.3 -0.3 0 -0.3 0.3 -0.3 0 -0.3 0 -0.3 0.3 -0.3 0 -0.3 0.3 -0.29 0 -0.3 0.3 -0.3 0 -0.3 0.3 -0.3 0 -0.3 0.3 -0.3 0 -0.3 0.3 -0.3 0 -0.3 0.29 -0.29 0 -0.3 0.3 -0.3 0 -0.3 0.3 -0.3 0 -0.3 0.3 -0.3 0 -0.3 0 -0.3 0.3 -0.3 0 -0.29 0.3 -0.3 0 -0.3 0.3 0 -0.59zm0 0.59l-0.59 -0.3 0.59 -0.3 0 0.59 0 0z"/>
    </g>
   </g>
  </g>
  <rect class="fil0" width="140" height="140"/>
 </g>
</svg>
