<?xml version="1.0" encoding="UTF-8"?>
<!DOCTYPE svg PUBLIC "-//W3C//DTD SVG 1.1//EN" "http://www.w3.org/Graphics/SVG/1.1/DTD/svg11.dtd">
<!-- Creator: CorelDRAW -->
<svg xmlns="http://www.w3.org/2000/svg" xml:space="preserve" width="0.14in" height="0.14in" version="1.1" style="shape-rendering:geometricPrecision; text-rendering:geometricPrecision; image-rendering:optimizeQuality; fill-rule:evenodd; clip-rule:evenodd"
viewBox="0 0 140 140"
 xmlns:xlink="http://www.w3.org/1999/xlink"
 xmlns:xodm="http://www.corel.com/coreldraw/odm/2003">
 <defs>
  <style type="text/css">
   <![CDATA[
    .str0 {stroke:#1C2335;stroke-width:3.33;stroke-miterlimit:2.61313}
    .fil0 {fill:none}
    .fil1 {fill:#1C2335;fill-rule:nonzero}
    .fil2 {fill:#677266;fill-rule:nonzero}
   ]]>
  </style>
 </defs>
 <g id="Layer_x0020_1">
  <metadata id="CorelCorpID_0Corel-Layer"/>
  <g id="_1819138174496">
   <circle class="fil0 str0" transform="matrix(0.598496 0.177526 -0.177526 0.598496 70 70)" r="107.11"/>
   <g id="_2170286556112">
    <g>
     <path class="fil1" d="M91.77 92.94c-6.41,5.24 -15.15,4.95 -20.97,0 -0.87,0.58 -2.04,1.17 -2.91,1.75 -1.17,0.58 -2.04,0.58 -2.62,-0.29 -0.29,-0.58 0,-1.17 0.87,-1.75 1.17,-0.87 2.33,-1.75 3.2,-2.62 0.87,-0.87 2.04,-0.87 2.91,0 4.95,5.24 12.81,5.24 18.06,0 0.87,-0.87 1.75,-0.87 2.91,0 3.5,3.78 8.45,4.95 13.11,3.2 2.04,-0.87 3.5,-1.75 4.66,-3.2 0.87,-0.87 1.75,-0.87 2.33,-0.29 0.87,0.29 0.87,1.17 0,2.04 -5.24,5.82 -14.27,6.41 -20.97,1.75 0,-0.29 -0.29,-0.59 -0.58,-0.59l0 0z"/>
     <path id="_1" class="fil1" d="M71.09 92.94l-0.29 -0.29 0.29 0 0.58 0.58 0.58 0.29 0.58 0.29 0.58 0.58 0.58 0.29 0.58 0.29 0.58 0.29 0.59 0.29 0.58 0 0.87 0.29 0.58 0.29 0.58 0 0.58 0 0.87 0.29 0.58 0 0.58 0 0.87 0 0.58 0 0.58 0 0.87 -0.29 0.58 0 0.58 -0.29 0.87 0 0.59 -0.29 0.58 -0.29 0.58 -0.29 0.58 -0.29 0.87 -0.29 0.58 -0.58 0.58 -0.29 0.58 -0.29 0.58 -0.58 0.29 0.29 -0.58 0.58 -0.58 0.29 -0.58 0.58 -0.58 0.29 -0.87 0.29 -0.58 0.29 -0.58 0.29 -0.59 0.29 -0.87 0.29 -0.58 0.29 -0.87 0 -0.58 0.29 -0.58 0 -0.87 0 -0.58 0.29 -0.87 0 -0.58 -0.29 -0.87 0 -0.58 0 -0.58 0 -0.87 -0.29 -0.58 0 -0.58 -0.29 -0.87 -0.29 -0.58 -0.29 -0.59 -0.29 -0.58 -0.29 -0.58 -0.29 -0.87 -0.29 -0.58 -0.58 -0.58 -0.29 -0.29 -0.58 0.29 0 0 0zm-0.29 -0.29l0 0 0.29 0 -0.29 0zm-2.91 2.33l-0.29 -0.29 0 0 0 0 0.29 -0.29 0 0 0 0 0.29 0 0 0 0 -0.29 0.29 0 0 0 0 0 0.29 -0.29 0 0 0 0 0.29 0 0 0 0 -0.29 0.29 0 0 0 0 0 0.29 0 0 -0.29 0 0 0.29 0 0 0 0 0 0.29 -0.29 0 0 0 0 0.29 0 0 -0.29 0 0 0.29 0 0.29 0.29 -0.29 0.29 0 0 0 0 -0.29 0 0 0 0 0.29 0 0 -0.29 0 0 0 0 0 -0.29 0.29 0 0 0 0 -0.29 0 0 0.29 0 0 -0.29 0 0 0 0 0 -0.29 0.29 0 0 0 0 -0.29 0 0 0 0 0.29 -0.29 0 0 0 0 0 -0.29 0 0 0.29 0 0 -0.29 0 0 0zm0 0l0 0 0.29 0 -0.29 0zm-2.91 -0.29l0.59 -0.29 0 0 0 0 0 0 0 0.29 0.29 0 0 0 0 0 0 0 0 0 0.29 0 0 0 0 0.29 0 0 0 0 0.29 0 0 0 0 0 0 0 0 0 0.29 0 0 0 0 0 0 0 0.29 0 0 0 0 0 0 0 0.29 -0.29 0 0 0 0 0.29 0 0 0 0 0 0.29 0.29 0 0 -0.29 0 0 0.29 0 0 -0.29 0 0 0 0 0 -0.29 0 0 0 0 0 -0.29 0 0 0 0 0 -0.29 0 0 0 0 0 -0.29 0 0 0 0 0 -0.29 0 0 0 0 0 0 0 -0.29 0 0 -0.29 0 0 -0.29 0 0 0 0 0 0 -0.29 0 0 -0.29 0 0 0 -0 0zm0.87 -2.33l0.29 0.29 0 0 0 0.29 0 0 0 0 -0.29 0 0 0 0 0 0 0.29 0 0 -0.29 0 0 0 0 0 0 0.29 0 0 0 0 0 0 0 0 0 0 -0.29 0.29 0 0 0 0 0 0 0 0 0 0 0 0.29 0 0 0 0 0.29 0 0 0 0 0 0 0.29 0 0 0 0 -0.58 0.29 0 0 0 -0.29 0 0 0 0 0 0 0 -0.29 0 0 -0.29 0 0 0 0 -0.29 0 0 0 0 0.29 -0.29 0 0 0 0 0 0 0 -0.29 0 0 0 0 0 0 0 -0.29 0.29 0 0 0 0 0 0 0 0 -0.29 0.29 0 0 0 0 0 0.29 -0.29 0 0 0 0 0 0 0 0zm0.29 0.29l0 0 0.58 -0.29 -0.58 0.29zm2.91 -2.91l0.58 0.29 0 0 0 0.29 -0.29 0 0 0 -0.29 0.29 0 0 0 0 -0.29 0 0 0.29 0 0 -0.29 0 0 0.29 0 0 -0.29 0 0 0 0 0.29 -0.29 0 0 0 0 0.29 -0.29 0 0 0 -0.29 0 0 0.29 0 0 -0.29 0 0 0 0 0.29 -0.29 0 0 0 -0.29 0.29 0 0 0 0 -0.29 0 -0.29 -0.29 0 0 0.29 0 0 -0.29 0.29 0 0 0 0 -0.29 0.29 0 0 0 0 0 0.29 -0.29 0 0 0.29 0 0 0 0 -0.29 0.29 0 0 0 0 0 0.29 -0.29 0 0 0 0 0.29 -0.29 0 0 0 0 0.29 0 0 -0.29 0 0 0.29 0 0 -0.29 0 0 0.29 0 0 0 0 -0.29 0 0 0 0zm3.5 0l-0.58 0.58 0 0 0 -0.29 0 0 -0.29 0 0 0 0 -0.29 0 0 -0.29 0 0 0 0 0 0 0 -0.29 0 0 0 0 0 0 0 -0.29 0 0 0 0 0 0 0 -0.29 0 0 0 0 0 0 0 -0.29 0 0 0 0 0 0 0 -0.29 0 0 0.29 0 0 -0.29 0 0 0 0 0 -0.58 -0.29 0.29 0 0 0 0 0 0.29 -0.29 0 0 0.29 0 0 0 0 0 0.29 -0.29 0 0 0 0 0.29 0 0 0 0 0 0.29 0 0 0 0 0 0.29 0 0 0 0.29 0 0 0 0 0 0.29 0 0 0.29 0 0 0.29 0 0 0 0 0 0.29 0.29 0 0 0 0 0.29 0 0 0 0 -0zm17.47 0.29l0.29 0.29 0 0 -0.29 0.29 -0.58 0.58 -0.58 0.29 -0.58 0.58 -0.58 0.29 -0.58 0.29 -0.58 0.29 -0.58 0.29 -0.58 0.29 -0.59 0 -0.58 0.29 -0.58 0.29 -0.58 0 -0.58 0 -0.58 0 -0.58 0 -0.58 0 -0.87 0 -0.58 0 -0.58 -0.29 -0.58 0 -0.59 -0.29 -0.58 0 -0.58 -0.29 -0.58 -0.29 -0.58 -0.29 -0.58 -0.29 -0.58 -0.29 -0.58 -0.58 -0.29 -0.29 -0.58 -0.58 -0.58 -0.29 0.58 -0.58 0.29 0.58 0.58 0.58 0.58 0.29 0.29 0.29 0.58 0.29 0.58 0.58 0.58 0 0.58 0.29 0.58 0.29 0.58 0.29 0.58 0 0.59 0.29 0.58 0 0.58 0 0.58 0.29 0.58 0 0.58 0 0.58 0 0.58 -0.29 0.58 0 0.58 -0.29 0.58 0 0.59 -0.29 0.58 -0.29 0.58 0 0.29 -0.29 0.58 -0.29 0.58 -0.58 0.58 -0.29 0.29 -0.29 0.58 -0.58 0.58 -0.29 0 0 0 0zm3.5 0l-0.58 0.29 0 0 0 0 -0.29 -0.29 0 0 0 0 -0.29 0 0 -0.29 0 0 0 0 -0.29 0 0 0 0 0 0 0 -0.29 0 0 -0.29 0 0 0 0 -0.29 0 0 0 0 0 0 0.29 -0.29 0 0 0 0 0 0 0 -0.29 0 0 0 0 0 -0.29 0.29 0 0 0 0 0 0 -0.29 0.29 -0.29 -0.29 0 -0.29 0 0 0.29 0 0 -0.29 0.29 0 0 0 0 0 0.29 0 0 -0.29 0 0 0.29 0 0 0 0 0 0.29 0 0 0 0.29 0 0 0 0 0 0.29 0 0 0 0.29 0 0 0 0 0 0.29 0.29 0 0 0 0 0.29 0 0 0.29 0 0 0.29 0 0 0.29 0.29 0 0 0 0 0zm12.81 2.91l0.29 0.58 0 0 -0.58 0 -0.29 0.29 -0.58 0 -0.58 0 -0.29 0.29 -0.58 0 -0.29 0 -0.58 0 -0.29 0 -0.58 0 -0.29 0 -0.58 0 -0.58 0 -0.29 0 -0.58 0 -0.29 -0.29 -0.58 0 -0.29 -0.29 -0.58 0 -0.29 -0.29 -0.58 0 -0.29 -0.29 -0.29 0 -0.58 -0.29 -0.29 -0.29 -0.58 -0.29 -0.29 -0.29 -0.29 -0.29 -0.29 -0.29 -0.58 -0.29 -0.29 -0.29 -0.29 -0.29 0.58 -0.29 0.29 0.29 0.29 0.29 0.29 0.29 0.29 0.29 0.29 0.29 0.58 0.29 0.29 0.29 0.29 0 0.58 0.29 0.29 0.29 0.29 0 0.58 0.29 0.29 0 0.29 0.29 0.58 0 0.29 0.29 0.58 0 0.29 0 0.58 0 0.29 0.29 0.58 0 0.29 0 0.58 0 0.29 0 0.58 -0.29 0.29 0 0.59 0 0.29 0 0.29 -0.29 0.58 0 0.29 0 0.58 -0.29 0 0 0 0zm4.37 -2.91l0.58 0.29 0 0 -0.29 0 0 0.29 -0.29 0 0 0.29 0 0 -0.29 0 0 0.29 -0.29 0 0 0 -0.29 0.29 0 0 -0.29 0.29 0 0 -0.29 0 0 0.29 -0.29 0 0 0 -0.29 0.29 0 0 -0.29 0 0 0.29 -0.29 0 0 0 -0.29 0 0 0.29 -0.29 0 0 0 -0.29 0.29 -0.29 0 0 0 -0.29 0 0 0.29 -0.29 -0.58 0 0 0.29 0 0.29 -0.29 0 0 0.29 0 0 0 0.29 -0.29 0 0 0.29 0 0 0 0.29 -0.29 0 0 0.29 0 0 -0.29 0.29 0 0 0 0.29 -0.29 0 0 0.29 0 0 -0.29 0.29 0 0 0 0 -0.29 0.29 0 0 0 0.29 -0.29 0 0 0.29 -0.29 0 0 0 0 0.29 -0.29 0 0 0 0 0 0zm2.91 -0.58l-0.29 0.29 0 0 0 0 -0.29 0 0 0 0 0 0 0 -0.29 0 0 0 0 0 0 -0.29 0 0 -0.29 0 0 0 0 0 0 0 0 0 -0.29 0.29 0 0 0 0 0 0 0 0 -0.29 0 0 0 0 0 0 0 -0.29 0 0 0.29 0 0 0 0 -0.29 0 0 0 0 0.29 0 0 -0.58 -0.29 0.29 0 0 -0.29 0 0 0 0 0.29 0 0 -0.29 0 0 0 0 0.29 0 0 0 0 -0.29 0.29 0 0 0 0 0 0.29 0 0 0 0 0 0.29 0 0 0 0 0 0.29 0 0 0 0 0 0.29 0 0 0 0 0 0 0 0.29 0 0 0 0 0.29 0.29 0 0 0 0 0 0 0zm0 2.62l-0.29 -0.29 0 0 0 -0.29 0 0 0 0 0 0 0.29 -0.29 0 0 0 0 0 0 0 -0.29 0 0 0 0 0 0 0 0 0 -0.29 0 0 0 0 0 0 0 0 0 -0.29 0 0 0 0 0 0 0 0 0 -0.29 0 0 0 0 0 0 -0.29 0 0 0 0 0 0 -0.29 0 0 0.29 -0.29 0 0 0 0 0.29 0.29 0 0 0 0 0 0 0.29 0 0 0.29 0 0 0 0 0 0 0 0.29 0 0 0 0 0 0.29 0 0 0 0 0 0 0 0.29 0 0 0 0 0 0.29 0 0 0 0 0 0.29 -0.29 0 0 0 0 0 0 0.29 0 0 -0.29 0 0 0.29 0 0zm-21.26 1.46l0.29 -0.29 0 0 0.58 0.58 0.58 0.29 0.58 0.29 0.87 0.29 0.58 0.29 0.58 0.29 0.59 0.29 0.87 0.29 0.58 0 0.87 0.29 0.58 0 0.58 0.29 0.87 0 0.58 0 0.87 0 0.58 0 0.58 -0.29 0.87 0 0.58 0 0.58 -0.29 0.87 -0.29 0.58 0 0.58 -0.29 0.58 -0.29 0.59 -0.29 0.58 -0.29 0.58 -0.58 0.58 -0.29 0.58 -0.29 0.58 -0.58 0.58 -0.58 0.58 -0.29 0.29 0.29 -0.58 0.29 -0.29 0.58 -0.58 0.58 -0.58 0.29 -0.58 0.58 -0.58 0.29 -0.87 0.29 -0.58 0.29 -0.58 0.29 -0.59 0.29 -0.87 0.29 -0.58 0.29 -0.87 0 -0.58 0.29 -0.58 0 -0.87 0 -0.58 0 -0.87 0.29 -0.58 -0.29 -0.87 0 -0.58 0 -0.87 0 -0.58 -0.29 -0.87 -0.29 -0.58 0 -0.87 -0.29 -0.58 -0.29 -0.58 -0.29 -0.87 -0.29 -0.58 -0.58 -0.59 -0.29 -0.58 -0.58 0 0 0 0zm-0.58 -0.58l-0.29 -0.29 0.29 0 0 0 0 0 0.29 0 0 0 0 0 0 0 0 0 0 0.29 0 0 0 0 0 0 0 0 0 0 0.29 0 0 0 0 0 0 0 0 0 0 0 0 0 0 0 0 0 0 0.29 0 0 0 0 0.29 0 0 0 0 0 0 0 0 0 0 0 0 0 -0.29 0.29 0 0 0 0 0 0 -0.29 0 0 0 0 0 0 0 0 0 0 0 0 0 0 0 0 0 0 -0.29 0 0 0 0 -0.29 0 0 0 0 0 0 0 0 0 0 0 0 0 0 0 0 0 0 0 0 0 -0.29 0 0 -0.29 0 0 0 0 0 0 0 0 0.29 0zm-0.29 -0.29l0.29 -0.29 0 0.29 -0.29 0z"/>
    </g>
    <g>
     <path class="fil1" d="M49.83 92.65c-2.04,1.75 -4.08,2.91 -6.99,3.5 -5.24,1.46 -11.65,-0.58 -14.85,-4.37 -0.58,-0.87 -0.58,-1.75 0,-2.04 0.87,-0.58 1.75,-0.58 2.62,0.29 2.33,2.62 5.83,4.08 9.91,3.79 3.2,0 5.53,-1.46 7.86,-3.5 1.17,-1.46 2.04,-1.46 3.2,0 2.33,2.04 4.95,3.5 8.44,3.5 0,0 0.29,0 0.58,0.29 0.87,0 1.46,0.58 1.46,1.17 0,0.87 -0.87,1.45 -1.75,1.45 -3.5,0 -6.41,-1.16 -9.03,-2.91 -0.29,-0.29 -0.87,-0.59 -1.46,-1.17l0 0z"/>
     <path id="_1_113" class="fil1" d="M43.13 96.43l-0.29 -0.29 0 0 0.29 0 0.29 -0.29 0.29 0 0.29 0 0 0 0.29 -0.29 0.29 0 0.29 0 0.29 0 0 -0.29 0.29 0 0.29 0 0.29 -0.29 0 0 0.29 0 0.29 -0.29 0.29 0 0 -0.29 0.29 0 0.29 0 0 -0.29 0.29 0 0.29 -0.29 0 0 0.29 -0.29 0.29 0 0 -0.29 0.29 0 0.29 -0.29 0 0 0.29 -0.29 0.29 0 0.29 0.29 -0.29 0.29 0 0 -0.29 0.29 -0.29 0 0 0.29 -0.29 0 -0.29 0.29 0 0 -0.29 0.29 -0.29 0 0 0 -0.29 0.29 -0.29 0 -0.29 0.29 0 0 -0.29 0.29 -0.29 0 -0.29 0 0 0.29 -0.29 0 -0.29 0 -0.29 0.29 -0.29 0 0 0 -0.29 0.29 -0.29 0 -0.29 0 -0.29 0 -0.29 0.29 -0.29 0 0 0 -0.29 0 0 0zm-15.44 -4.66l0.59 -0.29 0 0 0.29 0.29 0.29 0.29 0.29 0.58 0.29 0.29 0.58 0.29 0.29 0.29 0.29 0.29 0.58 0.29 0.29 0.29 0.58 0 0.29 0.29 0.58 0.29 0.29 0.29 0.58 0 0.58 0.29 0.29 0 0.58 0.29 0.58 0 0.29 0.29 0.58 0 0.58 0 0.58 0.29 0.29 0 0.58 0 0.58 0 0.59 0 0.29 0 0.59 0 0.58 0 0.58 -0.29 0.29 0 0.58 0 0.29 0.29 -0.58 0.29 -0.59 0 -0.58 0 -0.58 0 -0.29 0 -0.58 0.29 -0.58 0 -0.58 -0.29 -0.58 0 -0.58 0 -0.29 0 -0.58 0 -0.58 -0.29 -0.58 0 -0.58 -0.29 -0.29 0 -0.58 -0.29 -0.58 0 -0.29 -0.29 -0.58 -0.29 -0.59 0 -0.29 -0.29 -0.58 -0.29 -0.29 -0.29 -0.58 -0.29 -0.29 -0.29 -0.58 -0.29 -0.29 -0.29 -0.29 -0.29 -0.29 -0.29 -0.58 -0.58 -0.29 -0.29 0 0 0 0zm0.29 -2.33l0.29 0.29 0 0 0 0 0 0.29 0 0 -0.29 0 0 0 0 0 0 0 0 0 0 0.29 0 0 0 0 0 0 0 0 0 0 0 0.29 0 0 0 0 0 0 0 0 0 0.29 0 0 0 0 0 0 0 0 0 0.29 0 0 0 0 0 0 0 0 0.29 0.29 0 0 0 0 -0.58 0.29 0 0 0 0 0 -0.29 0 0 -0.29 0 0 -0.29 0 0 0 0 0 0 0 -0.29 0 0 0 0 0 0 0 -0.29 0 0 0 0 0 -0.29 0 0 0 0 0 0 0 -0.29 0 0 0 0 0 0 0 0 0.29 -0.29 0 0 0 0 0 0 0 -0.29 0.29 0 0 0 0 0 0 0zm0.29 0.29l0 0 0 0 0 0zm2.33 0l-0.29 0.29 0 0 0 0 -0.29 0 0 0 0 0 0 -0.29 0 0 -0.29 0 0 0 0 0 0 0 -0.29 0 0 0 0 0 0 0 0 0 -0.29 -0.29 0 0 0 0 0 0 0 0 -0.29 0 0 0 0 0.29 0 0 -0.29 0 0 0 0 0 0 0 0 0 -0.29 0 0 0 0 0 -0.29 -0.29 0 0 0 0 0.29 0 0 -0.29 0 0 0.29 0 0 0 0 0 0 0 0.29 0 0 0 0 0 0.29 0 0 0 0 0 0.29 0 0 0 0 0 0.29 0 0 0 0 0 0.29 0 0 0.29 0 0 0 0 0.29 0 0 0 0 0 0.29 0.29 0 0 0 0 0 0 0 0zm9.9 3.79l0 0.58 0 0 -0.58 0 -0.29 0 -0.29 0 -0.58 0 -0.29 0 -0.29 0 -0.29 0 -0.59 0 -0.29 -0.29 -0.29 0 -0.29 0 -0.29 0 -0.29 -0.29 -0.58 0 -0.29 0 -0.29 -0.29 -0.29 0 -0.29 -0.29 -0.29 0 -0.29 -0.29 -0.29 0 -0.29 -0.29 -0.29 -0.29 -0.29 0 -0.29 -0.29 -0.29 -0.29 -0.29 0 -0.29 -0.29 -0.29 -0.29 0 -0.29 -0.29 -0.29 -0.29 -0.29 0.29 -0.29 0.29 0.29 0.29 0.29 0.29 0.29 0.29 0.29 0.29 0 0 0.29 0.29 0.29 0.29 0 0.29 0.29 0.29 0.29 0.29 0 0.29 0.29 0.29 0 0.29 0.29 0.29 0 0.29 0.29 0.29 0 0.29 0 0.29 0.29 0.29 0 0.29 0 0.59 0.29 0.29 0 0.29 0 0.29 0 0.29 0 0.29 0 0.58 0.29 0.29 0 0.29 0 0.29 0 0.58 -0.29 0 0 0 0zm7.57 -3.2l0.29 0.29 0 0 0 0 -0.29 0.29 -0.29 0.29 -0.29 0 0 0.29 -0.29 0 -0.29 0.29 0 0.29 -0.29 0 -0.29 0.29 -0.29 0 -0.29 0.29 0 0 -0.29 0 -0.29 0.29 -0.29 0 -0.29 0.29 -0.29 0 -0.29 0 0 0.29 -0.29 0 -0.29 0 -0.29 0.29 -0.29 0 -0.29 0 -0.29 0 -0.29 0.29 -0.29 0 -0.29 0 -0.29 0 -0.29 0 -0.29 0 0 -0.58 0.29 0 0.29 0 0.29 0 0.29 0 0.29 0 0 0 0.29 0 0.29 -0.29 0.29 0 0.29 0 0.29 0 0.29 -0.29 0.29 0 0 0 0.29 -0.29 0.29 0 0.29 -0.29 0.29 0 0.29 0 0 -0.29 0.29 0 0.29 -0.29 0.29 0 0 -0.29 0.29 0 0.29 -0.29 0 0 0.29 -0.29 0.29 -0.29 0.29 0 0 -0.29 0.29 0 0 0 0 0zm3.79 -0.29l-0.59 0.58 0 0 0 -0.29 0 0 -0.29 -0.29 0 0 0 0 -0.29 0 0 -0.29 0 0 -0.29 0 0 0 0 0 -0.29 0 0 -0.29 0 0 0 0 -0.29 0 0 0 0 0 0 0 -0.29 0.29 0 0 0 0 0 0 -0.29 0 0 0 0 0.29 -0.29 0 0 0 0 0 -0.29 0.29 0 0 -0.29 0.29 -0.29 -0.29 0 -0.29 0.29 0 0 -0.29 0.29 0 0 0 0 -0.29 0.29 0 0 0 0.29 0 0 -0.29 0 0 0.29 0 0 0 0.29 0 0 0 0 0 0.29 0 0 0 0.29 0 0 0 0 0 0.29 0 0 0.29 0.29 0 0 0 0 0 0.29 0.29 0 0 0.29 0 0 0.29 0.29 0 0 0 0 0 0 -0zm8.15 3.79l0 0.29 0 0 -0.29 0 -0.29 0 -0.58 0 -0.29 0 -0.29 0 -0.29 0 -0.29 -0.29 -0.29 0 -0.29 0 -0.29 0 -0.29 -0.29 -0.29 0 -0.29 0 -0.29 -0.29 -0.29 0 -0.29 0 0 -0.29 -0.29 0 -0.29 -0.29 -0.29 0 -0.29 -0.29 -0.29 0 -0.29 -0.29 0 0 -0.29 -0.29 -0.29 -0.29 -0.29 0 -0.29 -0.29 0 0 -0.29 -0.29 -0.29 -0.29 -0.29 0 0.59 -0.58 0.29 0.29 0 0.29 0.29 0 0.29 0.29 0.29 0.29 0 0 0.29 0.29 0.29 0 0.29 0.29 0 0 0.29 0.29 0.29 0 0.29 0.29 0.29 0 0.29 0.29 0 0 0.29 0.29 0.29 0 0.29 0 0.29 0.29 0.29 0 0.29 0 0.29 0 0.29 0.29 0.29 0 0.29 0 0.29 0 0.29 0 0.29 0 0.29 0 0.29 0.29 0.29 0 0 0 0 0zm0.58 0l-0.29 0.29 0 0 0 0 0 0 0 0 0 0 0 0 0 0 0 0 0 0 0 0 0 0 0 0 0 0 0 0 0 0 0 0 0 0 0 0 0 0 -0.29 0 0 0 0 0 0 0 0 0 0 0 0 0 0 0 0 0 0 0 0 0 0 0 0 0 0 0 0 -0.29 0 0 0 0 0 0 0 0 0 0 0 0 0 0 0 0 0 0 0 0 0 0 0.29 0 0 0 0 0 0 0 0 0 0 0 0 0 0 0 0 0 0 0 0 0 0 0 0 0 0 0 0 0 0 0 0.29 0 0 0 0 0 0 0 0 0 0 0zm-0.29 0.29l0 0 0 0 0 0zm2.04 1.17l-0.59 0 0 0 0 0 0 0 0 0 0 0 0 -0.29 0 0 0 0 -0.29 0 0 0 0 0 0 -0.29 0 0 0 0 0 0 0 0 0 0 -0.29 0 0 0 0 -0.29 0 0 0 0 0 0 -0.29 0 0 0 0 0 0 0 0 0 -0.29 0 0 0 0 -0.29 0 0 -0.29 0 0.29 -0.29 0 0 0 0 0.29 0 0 0 0 0 0.29 0 0 0 0 0 0 0.29 0.29 0 0 0 0 0 0 0 0.29 0 0 0 0 0.29 0 0 0 0 0.29 0 0 0 0 0.29 0 0 0 0 0 0 0 0.29 0 0 0 0 0.29 0 0 0.29 0 0 0 0 0 0 0 0 0 0zm0 0l0 0 0 0 0 0zm-2.04 1.75l0 -0.58 0 0 0 0 0 0 0.29 0 0 0 0 0 0 0 0.29 0 0 0 0 0 0 -0.29 0 0 0.29 0 0 0 0 0 0 0 0 0 0 0 0.29 0 0 -0.29 0 0 0 0 0 0 0 0 0 0 0 0 0 -0.29 0.29 0 0 0 0 0 0 0 0 -0.29 0 0 0.58 0 0 0.29 0 0 -0.29 0 0 0 0 0.29 0 0 0 0 0 0 0 0.29 0 0 0 0 -0.29 0 0 0 0 0.29 0 0 0 0 -0.29 0 0 0 0 0.29 0 0 -0.29 0 0 0 0 0 -0.29 0 0 0 0 0 0 0 -0.29 0 0 0 0 0 -0.29 0 0 0.29 0 0 0 0zm-9.03 -2.91l0.29 -0.58 0 0 0.29 0.29 0 0 0.29 0.29 0.29 0.29 0.29 0 0.29 0.29 0.29 0 0.29 0 0 0.29 0.29 0 0.29 0.29 0.29 0 0.29 0 0.29 0.29 0.29 0 0.29 0 0.29 0.29 0.29 0 0.29 0 0.29 0 0.29 0.29 0.29 0 0.29 0 0.29 0 0.29 0 0.29 0.29 0.29 0 0.29 0 0.29 0 0.29 0 0.29 0 0.29 0 0 0.58 -0.29 -0.29 -0.29 0 -0.29 0 -0.58 0 -0.29 0 -0.29 0 -0.29 0 -0.29 0 -0.29 0 -0.29 -0.29 -0.29 0 -0.29 0 -0.29 0 -0.29 0 -0.29 -0.29 -0.29 0 -0.29 0 -0.29 -0.29 -0.29 0 -0.29 0 -0.29 -0.29 -0.29 0 -0.29 -0.29 0 0 -0.29 -0.29 -0.29 0 -0.29 -0.29 -0.29 0 -0.29 -0.29 -0.29 0 -0.29 -0.29 0 0 0 0 0 0zm-1.16 -1.17l-0.29 -0.29 0.29 0 0 0 0 0 0.29 0 0 0 0 0 0 0.29 0 0 0 0 0 0 0.29 0 0 0 0 0 0 0 0 0 0 0.29 0 0 0.29 0 0 0 0 0 0 0 0 0 0 0 0 0 0.29 0.29 0 0 0 0 0 0 0 0 0 0 0 0 0.29 0 0 0 -0.29 0.58 -0.29 0 0 -0.29 0 0 0 0 0 0 0 0 -0.29 0 0 0 0 0 0 0 0 -0.29 0 0 0 0 -0.29 0 0 0 0 0 0 0 0 0 0 0 0 -0.29 -0.29 0 0 0 0 0 0 0 0 0 0 0 0 0 -0.29 0 0 -0.29 0 0 0 0 0 0 0.29 0 0 0zm-0.29 -0.29l0 -0.29 0.29 0.29 -0.29 0z"/>
    </g>
    <g>
     <path class="fil1" d="M91.77 114.78c-6.41,5.24 -15.15,4.95 -20.97,0 -0.87,0.59 -2.04,1.17 -2.91,2.04 -1.17,0.58 -2.04,0.29 -2.62,-0.29 -0.58,-0.87 0,-1.45 0.87,-2.04 1.17,-0.87 2.33,-1.75 3.2,-2.62 0.87,-0.87 2.04,-0.87 2.91,0 4.95,5.24 12.81,5.24 17.77,0 1.16,-0.87 2.04,-0.87 3.2,0.29 3.5,3.49 8.45,4.66 13.11,2.91 1.75,-0.58 3.5,-1.75 4.66,-3.2 0.87,-0.58 1.75,-0.87 2.33,-0.29 0.87,0.29 0.87,1.17 0,2.04 -5.24,5.82 -14.27,6.41 -20.97,1.75 -0.29,-0.29 -0.29,-0.29 -0.58,-0.58l0 -0z"/>
     <path id="_1_114" class="fil1" d="M71.09 115.07l-0.29 -0.58 0.29 0 0.58 0.58 0.58 0.29 0.58 0.58 0.58 0.29 0.58 0.29 0.58 0.29 0.58 0.29 0.59 0.29 0.58 0.29 0.58 0 0.87 0.29 0.58 0 0.58 0.29 0.87 0 0.58 0 0.58 0 0.87 0 0.58 0 0.58 0 0.87 -0.29 0.58 0 0.58 -0.29 0.59 0 0.87 -0.29 0.58 -0.29 0.58 -0.29 0.58 -0.29 0.87 -0.29 0.58 -0.29 0.58 -0.58 0.58 -0.29 0.58 -0.58 0.29 0.29 -0.58 0.58 -0.58 0.58 -0.58 0.29 -0.58 0.29 -0.87 0.29 -0.58 0.58 -0.58 0.29 -0.87 0 -0.59 0.29 -0.58 0.29 -0.87 0.29 -0.58 0 -0.58 0 -0.87 0.29 -0.58 0 -0.87 0 -0.58 0 -0.87 -0.29 -0.58 0 -0.58 0 -0.87 -0.29 -0.58 0 -0.58 -0.29 -0.87 -0.29 -0.58 -0.29 -0.59 -0.29 -0.58 -0.29 -0.58 -0.29 -0.87 -0.29 -0.58 -0.59 -0.58 -0.29 -0.58 -0.59 0.58 0.29 0 0zm-0.29 -0.58l0 0 0.29 0 -0.29 0zm-2.91 2.33l-0.29 -0.29 0 0 0 0 0.29 0 0 -0.29 0 0 0.29 0 0 0 0 0 0.29 -0.29 0 0 0 0 0.29 0 0 -0.29 0 0 0.29 0 0 0 0 0 0.29 -0.29 0 0 0 0 0.29 0 0 0 0 -0.29 0.29 0 0 0 0 0 0.29 -0.29 0 0 0 0 0.29 0 0 0 0 -0.29 0.29 0 0.29 0.58 -0.29 0 0 0 0 0 -0.29 0 0 0.29 0 0 -0.29 0 0 0 0 0 -0.29 0.29 0 0 0 0 -0.29 0 0 0.29 0 0 -0.29 0 0 0 0 0 -0.29 0.29 0 0 0 0 -0.29 0 0 0 0 0.29 -0.29 0 0 0 0 0 -0.29 0 0 0.29 0 0 -0.29 0 0 0 0 0 0 0zm0 0l0 0 0.29 0 -0.29 0zm-2.91 -0.29l0.59 -0.29 0 0 0 0 0 0.29 0 0 0.29 0 0 0 0 0 0 0 0 0 0 0.29 0.29 0 0 0 0 0 0 0 0 0 0.29 0 0 0 0 0 0 0 0.29 0 0 0 0 0 0 0 0.29 0 0 0 0 0 0 0 0.29 0 0 -0.29 0 0 0 0 0.29 0 0 0 0.29 0.29 0 0 -0.29 0.29 0 0 0 0 -0.29 0 0 0 0 0 -0.29 0 0 0.29 0 0 -0.29 0 0 0 0 0 -0.29 0 0 0 0 0 -0.29 0 0 0 0 -0.29 -0.29 0 0 0 0 0 -0.29 0 0 0 0 0 0 -0.29 -0.29 0 0 0 0 0 0 0 0 -0.29 -0.29 0 0 0 -0 0zm0.87 -2.33l0.29 0.29 0 0 0 0.29 0 0 -0.29 0 0 0 0 0 0 0.29 0 0 -0.29 0 0 0 0 0 0 0.29 0 0 0 0 0 0 0 0 -0.29 0 0 0.29 0 0 0 0 0 0 0 0 0 0 0 0.29 0 0 0 0 0 0 0 0 0.29 0 0 0.29 0 0 0 0 0 0 -0.58 0.29 0 0 0 0 0 -0.29 0 0 0 0 0 0 -0.29 -0.29 0 0 0 0 0 -0.29 0 0 0 0 0 0 0.29 -0.29 0 0 0 0 0 0 0 -0.29 0 0 0 0 0 0 0.29 -0.29 0 0 0 0 0 0 0 0 0.29 -0.29 0 0 0 0 0 0 0.29 -0.29 0 0 0 0 0 0zm3.2 -2.62l0.58 0.58 0 0 -0.29 0 0 0 0 0.29 -0.29 0 0 0 0 0 -0.29 0.29 0 0 0 0 -0.29 0.29 0 0 0 0 -0.29 0 0 0.29 0 0 -0.29 0 0 0 -0.29 0.29 0 0 0 0 -0.29 0.29 0 0 0 0 -0.29 0 0 0.29 -0.29 0 0 0 0 0 -0.29 0.29 0 0 0 0 -0.29 0 -0.29 -0.29 0 0 0.29 0 0 -0.29 0.29 0 0 0 0 0 0.29 -0.29 0 0 0 0 0.29 0 0 -0.29 0 0 0.29 0 0 0 0.29 -0.29 0 0 0 0 0.29 -0.29 0 0 0 0 0.29 0 0 -0.29 0 0 0.29 0 0 -0.29 0 0 0.29 0 0 0 0 -0.29 0.29 0 0 0 0 -0.29 0 0 0 0zm3.5 0.29l-0.58 0.29 0 0 0 -0.29 -0.29 0 0 0 0 0 0 0 -0.29 -0.29 0 0 0 0 0 0 -0.29 0 0 0 0 0 0 0 0 0 -0.29 0 0 0 0 0 0 0 -0.29 0 0 0 0 0 0 0 -0.29 0 0 0 0 0 -0.29 0 0 0.29 0 0 0 0 -0.29 0 0 0 0 0.29 -0.58 -0.59 0.29 0 0 0 0 0 0.29 -0.29 0 0 0 0 0.29 0 0 0 0 0 0.29 -0.29 0 0 0.29 0 0 0 0 0 0.29 0 0 0 0 0 0.29 0 0 0 0 0 0.29 0 0 0 0.29 0.29 0 0 0 0 0.29 0 0 0 0 0.29 0.29 0 0 0 0 0 0.29 0.29 0 0 0 0zm17.47 0l0.29 0.29 0 0 -0.29 0.58 -0.58 0.29 -0.58 0.59 -0.58 0.29 -0.58 0.29 -0.58 0.29 -0.58 0.29 -0.58 0.29 -0.58 0.29 -0.59 0.29 -0.58 0 -0.58 0.29 -0.58 0 -0.58 0 -0.58 0 -0.58 0.29 -0.58 -0.29 -0.87 0 -0.58 0 -0.58 0 -0.58 -0.29 -0.59 0 -0.58 -0.29 -0.58 -0.29 -0.58 -0.29 -0.58 -0.29 -0.58 -0.29 -0.58 -0.29 -0.58 -0.58 -0.58 -0.29 -0.29 -0.58 -0.58 -0.29 0.58 -0.29 0.29 0.29 0.58 0.58 0.58 0.29 0.29 0.29 0.58 0.58 0.58 0.29 0.58 0.29 0.58 0.29 0.58 0 0.58 0.29 0.58 0.29 0.59 0 0.58 0 0.58 0.29 0.58 0 0.58 0 0.58 0 0.58 0 0.58 -0.29 0.58 0 0.58 0 0.58 -0.29 0.59 -0.29 0.58 0 0.29 -0.29 0.58 -0.29 0.58 -0.29 0.58 -0.29 0.58 -0.59 0.29 -0.29 0.58 -0.58 0.58 -0.29 0 0 0 0zm3.2 0l-0.29 0.29 0 0 0 0 -0.29 0 0 -0.29 0 0 -0.29 0 0 0 0 -0.29 0 0 -0.29 0 0 0 0 0 -0.29 0 0 0 0 0 0 0 -0.29 0 0 0 0 0 0 0 0 0 -0.29 0 0 0 0 0 0 0 -0.29 0 0 0 0 0.29 -0.29 0 0 0 0 0 -0.29 0.29 0 0 -0.29 -0.29 0 0 0 -0.29 0.29 0 0 0 0 -0.29 0.29 0 0 0 0 0 0.29 0 0 -0.29 0.29 0 0 0 0 0 0.29 0 0 0 0.29 0 0 0 0 0 0.29 0 0 0 0 0 0.29 0 0 0.29 0.29 0 0 0 0 0 0.29 0.29 0 0 0 0 0.29 0 0 0.29 0 0 0 0zm13.11 2.91l0.29 0.59 0 0 -0.58 0 -0.29 0.29 -0.58 0 -0.58 0.29 -0.29 0 -0.58 0 -0.29 0 -0.58 0 -0.29 0.29 -0.58 0 -0.58 -0.29 -0.29 0 -0.58 0 -0.29 0 -0.58 0 -0.29 -0.29 -0.58 0 -0.29 0 -0.58 -0.29 -0.29 0 -0.58 -0.29 -0.29 -0.29 -0.58 0 -0.29 -0.29 -0.29 -0.29 -0.58 -0.29 -0.29 -0.29 -0.29 -0.29 -0.29 -0.29 -0.58 -0.29 -0.29 -0.29 -0.29 -0.29 0.29 -0.29 0.58 0.29 0.29 0.29 0.29 0.29 0.29 0.29 0.29 0.29 0.58 0.29 0.29 0.29 0.29 0.29 0.29 0 0.58 0.29 0.29 0.29 0.58 0 0.29 0.29 0.29 0 0.58 0.29 0.29 0 0.58 0 0.29 0 0.58 0.29 0.29 0 0.58 0 0.29 0 0.29 0 0.59 0 0.29 0 0.58 -0.29 0.29 0 0.58 0 0.29 0 0.58 -0.29 0.29 0 0.58 -0.29 0 0 0 -0zm4.37 -2.91l0.58 0.29 0 0 -0.29 0 0 0.29 -0.29 0 0 0.29 0 0 -0.29 0.29 0 0 -0.29 0 0 0.29 -0.29 0 0 0 -0.29 0.29 0 0 -0.29 0.29 0 0 -0.29 0 0 0.29 -0.29 0 0 0 -0.29 0 0 0.29 -0.29 0 0 0 -0.29 0.29 0 0 -0.29 0 0 0 -0.29 0.29 -0.29 0 0 0 -0.29 0 0 0.29 -0.29 -0.58 0 0 0.29 0 0 0 0.29 -0.29 0.29 0 0 0 0.29 0 0 -0.29 0.29 0 0 0 0.29 -0.29 0 0 0.29 0 0 0 0.29 -0.29 0 0 0.29 0 0 -0.29 0.29 0 0 0 0.29 -0.29 0 0 0 -0.29 0.29 0 0 0 0.29 -0.29 0 0 0.29 0 0 -0.29 0 0 0.29 -0.29 0 0 0 0 0 0zm0 0l0 0 0.29 -0.29 -0.29 0.29zm2.91 -0.58l-0.29 0.29 0 0 -0.29 0 0 0 0 0 0 0 0 0 -0.29 0 0 0 0 0 0 0 0 0 -0.29 0 0 0 0 0 0 0 0 0 -0.29 0 0 0 0 0 0 0 -0.29 0 0 0 0 0 0 0 0 0 -0.29 0.29 0 0 0 0 0 0 -0.29 0 0 0.29 0 0 0 0 -0.58 -0.29 0 0 0.29 -0.29 0 0 0 0 0.29 0 0 -0.29 0 0 0 0 0.29 0 0 0 0 0 0.29 -0.29 0 0 0 0 0.29 0 0 0 0 0 0.29 0 0 0 0 0 0 0 0.29 0 0 0 0 0 0.29 0 0 0 0 0 0.29 0 0 0.29 0 0 0.29 0 0 0 0 0 0 0zm0 0l0 0 0 0 0 0zm0 2.62l-0.29 -0.29 0 0 0 0 0 -0.29 0 0 0 0 0 0 0.29 -0.29 0 0 0 0 0 0 0 -0.29 0 0 0 0 0 0 0 -0.29 0 0 0 0 0 0 0 0 0 0 0 -0.29 0 0 0 0 0 0 0 0 0 -0.29 0 0 0 0 -0.29 0 0 0 0 0 0 0 0 -0.29 0.29 -0.29 0 0 0 0 0.29 0.29 0 0 0 0 0 0 0 0.29 0.29 0 0 0 0 0 0 0.29 0 0 0 0 0 0 0 0.29 0 0 0 0 0 0.29 0 0 0 0 0 0.29 0 0 0 0 0 0 0 0.29 -0.29 0 0 0 0 0.29 0 0 0 0 -0.29 0.29 0 0 0 0zm-21.26 1.75l0.29 -0.58 0 0 0.58 0.58 0.58 0.29 0.58 0.29 0.87 0.58 0.58 0.29 0.58 0 0.59 0.29 0.87 0.29 0.58 0.29 0.58 0 0.87 0.29 0.58 0 0.87 0 0.58 0 0.58 0 0.87 0 0.58 0 0.87 -0.29 0.58 0 0.58 -0.29 0.87 0 0.58 -0.29 0.58 -0.29 0.58 -0.29 0.59 -0.29 0.58 -0.29 0.58 -0.29 0.58 -0.58 0.58 -0.29 0.58 -0.58 0.58 -0.29 0.58 -0.58 0.29 0.29 -0.58 0.58 -0.58 0.29 -0.29 0.58 -0.58 0.58 -0.58 0.29 -0.87 0.29 -0.58 0.29 -0.58 0.58 -0.58 0.29 -0.59 0 -0.87 0.29 -0.58 0.29 -0.87 0 -0.58 0.29 -0.87 0 -0.58 0.29 -0.58 0 -0.87 0 -0.58 0 -0.87 -0.29 -0.58 0 -0.87 0 -0.58 -0.29 -0.87 0 -0.58 -0.29 -0.87 -0.29 -0.58 -0.29 -0.58 -0.29 -0.87 -0.29 -0.58 -0.58 -0.59 -0.29 -0.58 -0.29 0 0 0 0zm0.29 -0.58l0 0 0.29 0.29 -0.29 -0.29zm-0.87 -0.29l-0.29 -0.29 0.29 0 0 0 0 0 0 0 0.29 0 0 0 0 0.29 0 0 0 0 0 0 0 0 0 0 0 0 0 0 0 0 0.29 0 0 0 0 0 0 0 0 0 0 0.29 0 0 0 0 0 0 0 0 0 0 0.29 0 0 0 0 0 0 0 0 0 0 0 0 0 -0.29 0.58 0 -0.29 0 0 -0.29 0 0 0 0 0 0 0 0 0 0 0 0 0 0 0 0 0 0 0 0 0 0 0 -0.29 0 0 -0.29 0 0 0 0 0 0 0 0 0 0 0 0 0 0 0 0 0 0 -0.29 0 0 0 0 0 0 0 0 -0.29 0 0 0 0 0.29 0 0 -0zm-0.29 -0.29l0.29 0 0 0 -0.29 0z"/>
    </g>
    <g>
     <path class="fil1" d="M49.83 114.78c-2.04,1.46 -4.08,2.91 -6.99,3.5 -5.24,1.17 -11.65,-0.87 -14.85,-4.66 -0.58,-0.87 -0.58,-1.46 0,-2.04 0.87,-0.58 1.75,-0.29 2.62,0.29 2.33,2.62 5.54,4.07 9.91,3.78 3.2,0 5.53,-1.46 7.57,-3.49 1.46,-1.17 2.33,-1.17 3.5,0 2.33,2.33 4.95,3.49 8.44,3.78 0,0 0.29,0 0.58,0 0.87,0 1.46,0.58 1.46,1.17 -0.29,0.87 -0.87,1.46 -1.75,1.46 -3.5,0 -6.41,-1.17 -9.03,-2.91 -0.58,-0.29 -0.87,-0.58 -1.46,-0.87l0 0z"/>
     <path id="_1_115" class="fil1" d="M43.13 118.28l-0.29 -0.29 0 0 0.29 0 0.29 -0.29 0.29 0 0 0 0.29 0 0.29 0 0.29 -0.29 0.29 0 0 0 0.29 -0.29 0.29 0 0.29 0 0.29 -0.29 0 0 0.29 0 0.29 -0.29 0 0 0.29 0 0.29 -0.29 0.29 0 0 -0.29 0.29 0 0.29 -0.29 0 0 0.29 0 0.29 -0.29 0 0 0.29 -0.29 0.29 0 0 -0.29 0.29 0 0.29 -0.29 0.29 0.29 -0.29 0.29 0 0 -0.29 0.29 -0.29 0 0 0.29 -0.29 0 -0.29 0.29 0 0 -0.29 0.29 -0.29 0 -0.29 0.29 0 0 -0.29 0.29 -0.29 0 0 0 -0.29 0.29 -0.29 0 -0.29 0.29 -0.29 0 0 0 -0.29 0.29 -0.29 0 -0.29 0 -0.29 0 0 0.29 -0.29 0 -0.29 0 -0.29 0.29 -0.29 0 -0.29 0 0 0 -0.29 0 0 0zm-15.44 -4.66l0.59 -0.29 0 0 0.29 0.29 0.29 0.58 0.29 0.29 0.29 0.29 0.58 0.29 0.29 0.29 0.29 0.29 0.58 0.29 0.29 0.29 0.58 0.29 0.29 0 0.58 0.29 0.29 0.29 0.58 0 0.58 0.29 0.29 0.29 0.58 0 0.58 0 0.29 0.29 0.58 0 0.58 0 0.58 0.29 0.29 0 0.58 0 0.58 0 0.59 0 0.29 0 0.59 0 0.58 0 0.58 0 0.29 -0.29 0.58 0 0.29 0.29 -0.58 0.29 -0.59 0 -0.58 0 -0.58 0.29 -0.58 0 -0.29 0 -0.58 0 -0.58 0 -0.58 0 -0.58 -0.29 -0.58 0 -0.29 0 -0.58 -0.29 -0.58 0 -0.58 0 -0.29 -0.29 -0.58 0 -0.58 -0.29 -0.29 -0.29 -0.58 0 -0.59 -0.29 -0.29 -0.29 -0.58 -0.29 -0.29 -0.29 -0.58 -0.29 -0.29 -0.29 -0.58 -0.29 -0.29 -0.29 -0.29 -0.29 -0.29 -0.29 -0.58 -0.59 -0.29 -0.29 0 0 0 0zm0.29 -2.33l0.29 0.29 0 0 0 0.29 0 0 -0.29 0 0 0 0 0 0 0 0 0.29 0 0 0 0 0 0 0 0 0 0 0 0 0 0.29 0 0 -0.29 0 0 0 0 0 0.29 0.29 0 0 0 0 0 0 0 0 0 0.29 0 0 0 0 0 0 0 0 0 0.29 0 0 0.29 0 0 0 -0.58 0.29 0 0 0 0 0 -0.29 -0.29 0 0 0 0 0 0 -0.29 0 0 0 0 0 0 0 -0.29 0 0 0 0 0 -0.29 0 0 0 0 0 0 0 -0.29 0 0 0 0 0 0 0 -0.29 0 0 0 0 0 0 0 -0.29 0.29 0 0 0 0 0 0 0 0.29 -0.29 0 0 0 0 0 0zm2.62 0.58l-0.29 0.29 0 0 0 -0.29 -0.29 0 0 0 0 0 0 0 0 0 -0.29 -0.29 0 0 0 0 0 0 -0.29 0 0 0 0 0 0 0 0 0 -0.29 0 0 0 0 0 0 0 -0.29 0 0 0 0 0 0 0 0 0 -0.29 0 0 0 0 0 0 0 0 0 -0.29 0 0 0 0 0 -0.29 -0.29 0 0 0 0 0.29 0 0 0 0 -0.29 0 0 0.29 0 0 0 0 0 0.29 0 0 0 0 0 0.29 0 0 0 0 0 0.29 0 0 0 0 0 0.29 0 0 0 0 0 0.29 0.29 0 0 0 0 0 0 0.29 0 0 0 0 0.29 0.29 0 0 0 0 0 0 0.29 0 0zm-0.29 0.29l0 0 0 0 0 0zm10.19 3.49l0 0.29 0 0 -0.58 0 -0.29 0 -0.29 0 -0.58 0 -0.29 0 -0.29 0 -0.29 0 -0.59 0 -0.29 0 -0.29 -0.29 -0.29 0 -0.29 0 -0.58 0 -0.29 -0.29 -0.29 0 -0.29 -0.29 -0.29 0 -0.29 -0.29 -0.29 0 -0.29 -0.29 -0.29 0 -0.29 -0.29 -0.29 -0.29 -0.29 0 -0.29 -0.29 -0.29 -0.29 -0.29 0 -0.29 -0.29 -0.29 -0.29 -0.29 -0.29 0 -0.29 -0.29 0 0.29 -0.29 0.29 0 0.29 0.29 0.29 0.29 0.29 0.29 0 0 0.29 0.29 0.29 0.29 0.29 0.29 0.29 0 0.29 0.29 0.29 0 0.29 0.29 0.29 0 0.29 0.29 0.29 0 0.29 0.29 0.29 0 0.29 0.29 0.29 0 0.29 0 0.29 0.29 0.29 0 0.58 0 0.29 0 0.29 0 0.29 0.29 0.29 0 0.29 0 0.58 0 0.29 0 0.29 0 0.58 0 0 0 0 0zm7.57 -3.49l0.29 0.29 0 0 0 0 -0.29 0.29 -0.29 0.29 -0.29 0 0 0.29 -0.29 0.29 -0.29 0 -0.29 0.29 0 0 -0.29 0.29 -0.29 0 -0.29 0.29 0 0 -0.29 0.29 -0.29 0 -0.29 0.29 -0.29 0 -0.29 0 -0.29 0.29 -0.29 0 0 0 -0.29 0.29 -0.29 0 -0.29 0 -0.29 0 -0.29 0.29 -0.29 0 -0.29 0 -0.29 0 -0.29 0 -0.29 0 -0.29 0 0 -0.29 0.29 0 0.29 0 0.29 -0.29 0 0 0.29 0 0.29 0 0.29 0 0.29 -0.29 0.29 0 0.29 0 0.29 0 0.29 -0.29 0.29 0 0 0 0.29 -0.29 0.29 0 0.29 0 0.29 -0.29 0 0 0.29 -0.29 0.29 0 0.29 -0.29 0.29 0 0 -0.29 0.29 0 0.29 -0.29 0 0 0.29 -0.29 0.29 0 0 -0.29 0.29 -0.29 0.29 0 0 0zm3.79 0l-0.59 0.29 0 0 0 -0.29 0 0 -0.29 0 0 -0.29 -0.29 0 0 0 0 -0.29 -0.29 0 0 0 0 0 0 0 -0.29 0 0 0 0 0 0 0 -0.29 0 0 0 0 0 0 0 -0.29 0 0 0 0 0 0 0 -0.29 0 0 0.29 0 0 -0.29 0 0 0 -0.29 0.29 0 0 0 0 -0.29 0.29 -0.29 -0.29 0 -0.29 0.29 0 0 0 0 -0.29 0.29 0 0 0 0.29 -0.29 0 0 0 0 0.29 0 0 -0.29 0.29 0 0 0 0.29 0 0 0 0 0 0.29 0 0 0 0.29 0 0 0 0 0 0.29 0 0 0.29 0.29 0 0 0 0 0 0.29 0.29 0 0 0.29 0 0 0.29 0 0 0.29 0.29 0 0 0 0zm8.15 3.49l0 0.29 0 0 -0.29 0 -0.58 0 -0.29 0 -0.29 0 -0.29 0 -0.29 0 -0.29 0 -0.29 -0.29 -0.29 0 -0.29 0 -0.29 0 -0.29 -0.29 -0.29 0 -0.29 0 -0.29 -0.29 -0.29 0 0 -0.29 -0.29 0 -0.29 -0.29 -0.29 0 -0.29 -0.29 -0.29 0 -0.29 -0.29 0 0 -0.29 -0.29 -0.29 0 -0.29 -0.29 -0.29 -0.29 0 0 -0.29 -0.29 -0.29 -0.29 -0.29 0 0.59 -0.29 0.29 0 0 0.29 0.29 0.29 0.29 0 0 0.29 0.29 0 0.29 0.29 0.29 0.29 0.29 0 0 0.29 0.29 0 0.29 0.29 0.29 0 0.29 0 0 0.29 0.29 0 0.29 0.29 0.29 0 0.29 0 0.29 0.29 0.29 0 0.29 0 0.29 0.29 0.29 0 0.29 0 0.29 0 0.29 0 0.29 0 0.29 0.29 0.29 0 0.29 0 0.29 0 0 0zm0.58 0l-0.29 0.58 0 0 0 0 0 0 0 0 0 0 0 -0.29 0 0 0 0 0 0 0 0 0 0 0 0 0 0 0 0 0 0 0 0 0 0 0 0 -0.29 0 0 0 0 0 0 0 0 0 0 0 0 0 0 0 0 0 0 0 0 0 0 0 0 0 0 0 0 0 0 -0.29 0 0 0 0 0 0 0 0 0 0 0 0 0 0 0 0 0 0 0 0 0 0 0 0 0.29 0 0 0 0 0 0 0 0 0 0 0 0 0 0 0 0 0 0 0 0 0 0 0 0 0 0 0 0 0 0 0 0.29 0 0 0 0 0 0 0 0 0 0 0zm0 0l0 0 0 0 0 0zm1.75 1.75l-0.59 -0.29 0 0 0 0 0 0 0 0 0 0 0 0 -0.29 -0.29 0 0 0 0 0 0 0 0 0 0 0 -0.29 0 0 0 0 0 0 0 0 -0.29 0 0 0 0 0 0 -0.29 0 0 0 0 -0.29 0 0 0 0 0 0 0 0 0 -0.29 0 0 0 0 0 0 0 -0.29 0 0.29 -0.59 0 0 0 0 0.29 0 0 0 0 0 0.29 0 0 0 0 0.29 0 0 0.29 0 0 0 0 0 0 0 0.29 0 0 0.29 0 0 0 0 0 0 0.29 0 0 0.29 0 0 0 0 0 0 0 0.29 0 0 0 0 0 0 0 0.29 0.29 0 0 0 0 0 0 0.29 0 0 0 0zm-0.58 -0.29l0 0 0 0 0 0zm-1.46 1.75l0 -0.58 0 0 0 0 0 0 0.29 0 0 0 0 0 0 0 0.29 0 0 0 0 0 0 0 0 0 0.29 -0.29 0 0 0 0 0 0 0 0 0 0 0.29 0 0 0 0 -0.29 0 0 0 0 0 0 0 0 0 0 0 0 0 -0.29 0 0 0.29 0 0 0 0 0 0 -0.29 0.58 0.29 0 0 -0.29 0 0 0 0 0.29 0 0 0 0 0 0 0 0.29 0 0 0 0 -0.29 0 0 0 0 0.29 0 0 0 0 0 0 -0.29 0 0 0.29 0 0 0 0 -0.29 0 0 0 0 0 -0.29 0 0 0 0 0 -0.29 0.29 0 0 0 0 -0.29 0 0 0 0 0 0 0 0 0zm-9.32 -2.91l0.58 -0.29 0 0 0 0 0.29 0.29 0.29 0 0.29 0.29 0.29 0 0.29 0.29 0.29 0 0 0.29 0.29 0 0.29 0 0.29 0.29 0.29 0 0.29 0.29 0.29 0 0.29 0 0.29 0.29 0.29 0 0.29 0 0.29 0 0.29 0.29 0.29 0 0 0 0.29 0 0.29 0 0.29 0.29 0.29 0 0.58 0 0.29 0 0.29 0 0.29 0 0.29 0 0.29 0 0 0.58 -0.29 0 -0.29 0 -0.58 0 -0.29 0 -0.29 -0.29 -0.29 0 -0.29 0 -0.29 0 -0.29 0 -0.29 0 -0.29 -0.29 -0.29 0 -0.29 0 -0.29 0 -0.29 -0.29 -0.29 0 -0.29 0 -0.29 -0.29 -0.29 0 -0.29 0 -0.29 -0.29 -0.29 0 -0.29 -0.29 -0.29 0 0 0 -0.29 -0.29 -0.29 0 -0.29 -0.29 -0.29 0 -0.29 -0.29 -0.29 -0.29 -0.29 0 0 0 0 -0zm-0.87 -1.17l-0.29 -0.29 0.29 0 0 0 0 0 0 0 0.29 0.29 0 0 0 0 0 0 0 0 0 0 0 0 0.29 0 0 0 0 0.29 0 0 0 0 0 0 0 0 0.29 0 0 0 0 0 0 0 0 0.29 0 0 0 0 0.29 0 0 0 0 0 0 0 0 0 0 0 0.29 0 0 0.29 -0.58 0.29 0 0 0 0 0 -0.29 0 0 0 0 0 0 -0.29 0 0 0 0 0 0 0 0 0 0 0 0 -0.29 -0.29 0 0 0 0 0 0 0 0 0 0 0 -0.29 0 0 0 0 -0.29 0 0 0 0 0 0 0 0 -0.29 0 0 0 0 0 0 0 0 -0.29 0 0 0.29 0 0 0zm-0.29 -0.29l0 0 0.29 0 -0.29 0z"/>
    </g>
    <g>
     <path class="fil1" d="M48.38 103.71c6.11,5.24 14.85,4.95 20.68,0 1.17,0.87 2.04,1.46 3.2,2.04 0.87,0.58 2.04,0.58 2.33,-0.29 0.58,-0.58 0.29,-1.45 -0.59,-2.04 -1.16,-0.87 -2.33,-1.45 -3.49,-2.62 -0.87,-0.58 -1.75,-0.87 -2.62,0.29 -5.24,5.24 -13.11,5.24 -18.06,0 -1.17,-1.17 -2.04,-1.17 -2.91,0 -3.5,3.49 -8.74,4.66 -13.4,2.91 -1.75,-0.59 -3.2,-1.75 -4.37,-2.91 -0.87,-0.87 -1.75,-1.17 -2.62,-0.58 -0.87,0.58 -0.87,1.45 0,2.33 5.24,5.54 14.56,6.41 20.97,1.46 0.29,0 0.58,-0.29 0.87,-0.58l0 0z"/>
     <path id="_1_116" class="fil1" d="M69.35 103.71l-0.29 0.29 0.29 0 -0.58 0.29 -0.58 0.58 -0.58 0.29 -0.58 0.58 -0.59 0.29 -0.58 0.29 -0.87 0.29 -0.58 0.29 -0.58 0 -0.58 0.29 -0.87 0.29 -0.58 0 -0.87 0.29 -0.58 0 -0.58 0 -0.87 0 -0.58 0 -0.87 0 -0.58 0 -0.58 -0.29 -0.87 0 -0.59 -0.29 -0.87 0 -0.58 -0.29 -0.58 -0.29 -0.87 -0.29 -0.58 -0.29 -0.58 -0.29 -0.58 -0.58 -0.87 -0.29 -0.58 -0.58 -0.58 -0.29 0.58 -0.58 0.58 0.58 0.58 0.58 0.58 0.29 0.58 0.29 0.58 0.29 0.59 0.58 0.58 0 0.87 0.29 0.58 0.29 0.58 0.29 0.87 0 0.58 0.29 0.58 0 0.87 0 0.58 0 0.58 0 0.87 0 0.58 0 0.58 0 0.58 0 0.87 -0.29 0.58 0 0.59 -0.29 0.58 -0.29 0.87 -0.29 0.58 -0.29 0.58 -0.29 0.58 -0.29 0.58 -0.29 0.58 -0.29 0.58 -0.58 0.58 -0.29 0.29 0 0 -0zm-0.29 0l0 -0.29 0.29 0.29 -0.29 0zm3.2 1.75l-0.29 0.58 0 0 0 -0.29 0 0 -0.29 0 0 0 0 0 -0.29 -0.29 0 0 0 0 -0.29 0 0 0 0 -0.29 -0.29 0 0 0 0 0 -0.29 0 0 -0.29 0 0 -0.29 0 0 0 0 -0.29 -0.29 0 0 0 0 0 -0.29 0 0 -0.29 0 0 -0.29 0 0 0 0 0 -0.29 -0.29 0 0 0 0 0.29 -0.29 0 0 0.29 0 0 0 0 0 0.29 0.29 0 0 0 0 0 0 0.29 0.29 0 0 0 0 0.29 0 0 0 0 0.29 0.29 0 0 0 0 0 0.29 0 0 0.29 0 0 0.29 0 0 0 0 0 0.29 0.29 0 0 0 0 0.29 0 0 0 0 0.29 0.29 0 0 0 0 0 0 0 0 0zm-0.29 0.58l0 0 -0.29 -0.29 0.29 0.29zm2.33 -0.58l0.58 0 0 0 0 0.29 0 0 -0.29 0 0 0 0 0.29 0 0 0 0 -0.29 0 0 0 0 0 -0.29 0.29 0 0 0 0 -0.29 0 0 0 0 0 0 0 -0.29 0 0 0 -0.29 0 0 0 0 0 -0.29 0 0 0 0 0 -0.29 0 0 -0.29 0 0 -0.29 0 0 0 0 0 -0.29 0 0.29 -0.58 0.29 0 0 0.29 0 0 0.29 0 0 0 0 0 0 0 0.29 0 0 0 0 0 0 0 0.29 0 0 0 0 0 0 0 0.29 0 0 0 0 0 0 0 0 0 0.29 0 0 0 0 0 0 0 0 0 0.29 0 0 -0.29 0 0 0 0 0 0 0 0 0 0 0 0 0 0zm-0.58 -1.75l0.29 -0.29 0 0 0.29 0 0 0 0 0 0.29 0 0 0.29 0 0 0 0 0 0 0.29 0.29 0 0 0 0 0 0 0 0.29 0.29 0 0 0 0 0 0 0.29 0 0 0 0 0 0 0 0.29 0 0 0 0 0 0 0 0.29 0 0 0 0 0 0 0 0.29 -0.29 0 0 0 0 0 -0.58 0 0.29 -0.29 0 0 0 0 0 0 0 0 0 -0.29 0 0 0 0 0 0 0 0 0 0 0 -0.29 0 0 0 0 0 0 0 0 0 0 0 -0.29 0 0 0 0 -0.29 0 0 0 0 0 0 -0.29 0 0 0 0 -0.29 0 0 0 0 -0.29 0 0 -0.29 0 0 0 0 0 0 0zm0.29 -0.29l0 0 0.29 0 -0.29 0zm-3.5 -2.33l0.29 -0.29 0 0 0 0 0.29 0 0 0.29 0 0 0.29 0 0 0.29 0 0 0.29 0 0 0 0 0.29 0.29 0 0 0 0 0.29 0.29 0 0 0 0.29 0 0 0.29 0 0 0.29 0 0 0 0 0.29 0.29 0 0 0 0 0.29 0.29 0 0 0 0.29 0 0 0.29 0 0 0.29 0 0 0 0 0.29 -0.29 0.29 0 0 -0.29 -0.29 0 0 0 0 -0.29 0 0 -0.29 0 0 -0.29 0 0 0 -0.29 -0.29 0 0 0 0 -0.29 -0.29 0 0 0 0 -0.29 0 0 -0.29 0 0 -0.29 0 0 -0.29 -0.29 0 0 0 0 0 -0.29 -0.29 0 0 0 0 -0.29 -0.29 0 0 0 0 -0.29 0 0 -0.29 0 0 0 0zm0.29 -0.29l0 0 0 0 0 0zm-2.91 0.29l-0.29 -0.29 0 0 0 0 0.29 -0.29 0 0 0 0 0.29 0 0 -0.29 0 0 0.29 0 0 0 0 0 0.29 0 0 0 0 0 0.29 -0.29 0 0 0 0 0.29 0 0 0 0 0.29 0.29 0 0 0 0.29 0 0 0 0 0 0.29 0 0 0 0 0.29 0.29 0 0 0 0 0 0.29 0.29 0 0 -0.29 0.29 -0.29 0 0 0 0 -0.29 -0.29 0 0 0 0 0 0 0 -0.29 0 0 -0.29 0 0 0 0 -0.29 0 0 0 0 0 0 0 -0.29 0 0 0 0 0 0 0 -0.29 0 0 0 0 0 0 0 -0.29 0.29 0 0 0 0 0 0 -0.29 0 0 0 0 0.29 0 0 -0.29 0 0 0zm-18.35 0l0.58 -0.29 0 0 0.29 0.59 0.58 0.29 0.58 0.59 0.29 0.29 0.58 0.29 0.58 0.29 0.58 0.29 0.58 0.29 0.58 0.29 0.58 0 0.58 0.29 0.59 0 0.58 0.29 0.58 0 0.58 0 0.58 0 0.58 0 0.58 0 0.58 0 0.58 -0.29 0.58 0 0.58 -0.29 0.59 0 0.58 -0.29 0.58 -0.29 0.29 -0.29 0.58 -0.29 0.58 -0.29 0.58 -0.29 0.58 -0.59 0.29 -0.29 0.58 -0.59 0.29 0.29 -0.29 0.58 -0.58 0.29 -0.58 0.58 -0.58 0.29 -0.58 0.29 -0.29 0.29 -0.58 0.29 -0.58 0.29 -0.59 0.29 -0.87 0.29 -0.58 0.29 -0.58 0 -0.58 0 -0.58 0.29 -0.58 0 -0.58 0 -0.58 0 -0.58 0 -0.87 -0.29 -0.58 0 -0.58 0 -0.59 -0.29 -0.58 -0.29 -0.58 0 -0.58 -0.29 -0.58 -0.29 -0.58 -0.29 -0.58 -0.58 -0.58 -0.29 -0.29 -0.29 -0.58 -0.58 -0.58 -0.58 0 0 0 0zm0.58 -0.29l0 0 0 0 0 0zm-3.2 0.58l-0.29 -0.58 0 0 0 0 0.29 0 0 -0.29 0 0 0.29 0 0 0 0 -0.29 0.29 0 0 0 0.29 0 0 0 0 0 0.29 -0.29 0 0 0 0 0.29 0 0 0 0.29 0 0 0 0 0.29 0.29 0 0 0 0.29 0 0 0 0 0 0.29 0.29 0 0 0 0 0.29 0 0 0.29 0 0 0.29 0 -0.58 0.29 0 0 0 0 -0.29 -0.29 0 0 0 0 -0.29 0 0 0 0 -0.29 0 0 -0.29 0 0 0 0 0 0 0 -0.29 0 0 0 0 0 0 0 -0.29 0 0 0 0 0 0 0 -0.29 0 0 0 0 0.29 0 0 -0.29 0 0 0 0 0 -0.29 0.29 0 0 0 0 -0.29 0.29 0 0 0 0zm-13.4 2.91l0.29 -0.29 0 0 0.29 0 0.58 0.29 0.29 0 0.58 0 0.29 0.29 0.29 0 0.58 0 0.29 0 0.58 0 0.29 0 0.58 0 0.29 0 0.58 0 0.29 0 0.58 0 0.29 -0.29 0.58 0 0.29 -0.29 0.29 0 0.58 0 0.29 -0.29 0.58 -0.29 0.29 0 0.29 -0.29 0.58 -0.29 0.29 -0.29 0.29 0 0.29 -0.29 0.58 -0.29 0.29 -0.29 0.29 -0.29 0.29 -0.58 0.29 0.58 -0.29 0.29 -0.29 0.29 -0.29 0.29 -0.29 0.29 -0.58 0.29 -0.29 0.29 -0.29 0.29 -0.58 0 -0.29 0.29 -0.29 0.29 -0.58 0 -0.29 0.29 -0.58 0.29 -0.29 0 -0.58 0 -0.29 0.29 -0.58 0 -0.29 0 -0.58 0.29 -0.29 0 -0.58 0 -0.58 0 -0.29 0 -0.58 0 -0.29 0 -0.58 -0.29 -0.29 0 -0.58 0 -0.58 0 -0.29 -0.29 -0.58 0 -0.29 -0.29 0 0 0 0zm-4.66 -3.2l0.29 -0.29 0 0 0.29 0.29 0 0 0 0.29 0.29 0 0 0 0.29 0.29 0 0 0.29 0.29 0 0 0 0 0.29 0.29 0 0 0.29 0 0 0.29 0.29 0 0 0 0.29 0.29 0 0 0.29 0 0 0.29 0.29 0 0 0 0.29 0 0 0.29 0.29 0 0 0 0.29 0 0 0.29 0.29 0 0 0 0.29 0 0.29 0.29 -0.29 0.29 -0.29 0 0 0 -0.29 -0.29 -0.29 0 0 0 -0.29 0 0 -0.29 -0.29 0 0 0 -0.29 -0.29 0 0 -0.29 0 0 0 -0.29 -0.29 0 0 -0.29 0 0 -0.29 -0.29 0 0 0 -0.29 -0.29 0 0 -0.29 -0.29 0 0 -0.29 0 0 -0.29 -0.29 0 0 -0.29 -0.29 0 0 0 0 -0.29 -0.29 0 0 -0.29 0 0zm-2.04 -0.29l-0.29 -0.58 0 0 0 0 0 0 0 0 0.29 0 0 0 0 0 0.29 0 0 -0.29 0 0 0.29 0 0 0 0 0 0.29 0 0 0 0 0 0.29 0 0 0.29 0 0 0 0 0.29 0 0 0 0 0 0.29 0 0 0 0 0.29 0.29 0 0 0 0 0 0 0.29 0.29 0 0 0 0 0 -0.29 0.29 0 0 -0.29 0 0 0 0 -0.29 0 0 -0.29 0 0 0 0 0 0 0 -0.29 0 0 -0.29 0 0 0 0 0 0 -0.29 0 0 0 0 0 0 0 -0.29 0 0 0 0 0 0 0 0 0 -0.29 0 0 0 0 0 0 0 0 0 -0.29 0 0 0.29 0 0 0 0 0 0 0 0zm-0.29 -0.58l0 0 0 0 0 0zm0.29 2.33l-0.58 0.29 0 0 0 0 0 0 0 -0.29 -0.29 0 0 0 0 -0.29 0 0 0 0 0 0 -0.29 -0.29 0 0 0 0 0 -0.29 0 0 0 0 0 -0.29 0 0 0 0 0 0 0 -0.29 0 0 0.29 0 0 0 0 -0.29 0 0 0 0 0 0 0.29 -0.29 0 0 0 0 0 0 0.29 -0.29 0.29 0.58 0 0 -0.29 0 0 0 0 0 0 0.29 0 0 0 0 0 0 -0.29 0 0 0 0 0.29 0 0 0 0 0 0 0 0 0 0 0 0.29 0 0 0 0 0 0 0 0.29 0 0 0 0 0.29 0 0 0 0 0.29 0 0 0 0 0 0 0 0.29 0.29 0 0 0 0 0 0 -0zm20.39 1.75l0.58 0.29 0 0 -0.58 0.29 -0.87 0.58 -0.58 0.29 -0.59 0.29 -0.87 0.29 -0.58 0.29 -0.58 0.29 -0.87 0.29 -0.58 0.29 -0.87 0 -0.58 0.29 -0.87 0 -0.58 0 -0.87 0 -0.58 0 -0.87 0 -0.58 0 -0.87 -0.29 -0.58 0 -0.58 -0.29 -0.87 0 -0.58 -0.29 -0.58 -0.29 -0.87 -0.29 -0.59 -0.29 -0.58 -0.29 -0.58 -0.58 -0.58 -0.29 -0.58 -0.58 -0.58 -0.29 -0.58 -0.58 -0.58 -0.58 0.58 -0.29 0.58 0.58 0.29 0.58 0.58 0.29 0.58 0.58 0.58 0.29 0.58 0.29 0.58 0.29 0.58 0.29 0.59 0.29 0.87 0.29 0.58 0.29 0.58 0.29 0.87 0 0.58 0.29 0.58 0 0.87 0 0.58 0 0.58 0 0.87 0 0.58 0 0.87 0 0.58 -0.29 0.58 0 0.87 -0.29 0.58 0 0.59 -0.29 0.87 -0.29 0.59 -0.29 0.58 -0.29 0.58 -0.58 0.58 -0.29 0.58 -0.29 0 0 0 0zm1.46 -0.87l-0.58 0.58 0.58 0 -0.29 0 0 0 0 0 0 0 0 0 0 0 0 0 0 0 0 0 0 0 0 0 -0.29 0.29 0 0 0 0 0 0 0 0 0 0 0 0 0 0 0 0 0 0 0 0 -0.29 0 0 0 0 0 0 0.29 0 0 0 0 0 0 0 0 0 0 0 0 -0.58 -0.29 0.29 0 0 0 0 -0.29 0 0 0 0 0 0 0 0 0 0 0 0 0 0 0 0 0 0 0.29 0 0 0 0 0 0 0 0 0 0 -0.29 0 0 0 0 0 0 0 0 0 0 0 0 0.29 0 0 0 0 0 0 0 0 0 0 0 0 0 0 -0.29 0.58 0 0 0zm-0.58 0l0.29 0 0.29 0 -0.58 0 0 0z"/>
    </g>
    <g>
     <path class="fil1" d="M90.02 103.71c2.04,1.75 4.37,2.91 6.99,3.5 5.53,1.17 11.65,-0.58 14.85,-4.66 0.87,-0.58 0.58,-1.45 0,-2.04 -0.58,-0.58 -1.75,-0.29 -2.33,0.29 -2.62,2.91 -5.83,4.37 -9.91,4.08 -3.2,-0.29 -5.82,-1.46 -7.86,-3.49 -1.46,-1.46 -2.04,-1.46 -3.5,0 -2.04,2.04 -4.95,3.49 -8.15,3.49 -0.29,0 -0.58,0 -0.58,0 -0.87,0.29 -1.46,0.58 -1.46,1.46 0,0.58 0.58,1.17 1.75,1.17 3.2,0 6.12,-0.87 8.74,-2.62 0.58,-0.58 0.87,-0.87 1.45,-1.17z"/>
     <path id="_1_117" class="fil1" d="M97.02 106.92l0 0.58 0 0 -0.29 0 -0.29 -0.29 -0.29 0 -0.29 0 -0.29 0 0 -0.29 -0.29 0 -0.29 0 -0.29 0 -0.29 -0.29 0 0 -0.29 0 -0.29 -0.29 -0.29 0 -0.29 0 0 -0.29 -0.29 0 -0.29 -0.29 -0.29 0 0 -0.29 -0.29 0 -0.29 0 0 -0.29 -0.29 0 -0.29 -0.29 -0.29 0 0 -0.29 -0.29 0 -0.29 -0.29 0 0 -0.29 -0.29 -0.29 0 0.59 -0.58 0 0.29 0.29 0 0.29 0.29 0 0 0.29 0.29 0.29 0 0 0.29 0.29 0 0.29 0.29 0 0 0.29 0.29 0.29 0 0.29 0.29 0 0 0.29 0 0.29 0.29 0 0 0.29 0 0.29 0.29 0.29 0 0 0 0.29 0.29 0.29 0 0.29 0 0.29 0.29 0 0 0.29 0 0.29 0 0.29 0.29 0.29 0 0 0 0.29 0 0 0 0 0zm14.85 -4.37l0.29 0.29 0 0 -0.29 0.29 -0.29 0.29 -0.29 0.29 -0.58 0.29 -0.29 0.58 -0.29 0.29 -0.58 0.29 -0.29 0.29 -0.58 0 -0.29 0.29 -0.58 0.29 -0.29 0.29 -0.58 0.29 -0.58 0 -0.29 0.29 -0.58 0 -0.58 0.29 -0.58 0 -0.29 0.29 -0.58 0 -0.58 0 -0.59 0.29 -0.58 0 -0.58 0 -0.29 0 -0.58 0 -0.58 0 -0.58 0 -0.58 0 -0.58 0 -0.29 -0.29 -0.58 0 0 -0.58 0.58 0.29 0.58 0 0.58 0 0.29 0 0.58 0 0.58 0 0.58 0 0.29 0 0.58 0 0.58 0 0.59 0 0.29 0 0.58 -0.29 0.59 0 0.29 -0.29 0.59 0 0.58 -0.29 0.29 0 0.58 -0.29 0.58 -0.29 0.29 0 0.58 -0.29 0.29 -0.29 0.58 -0.29 0.29 -0.29 0.29 -0.29 0.58 -0.29 0.29 -0.29 0.29 -0.29 0.29 -0.29 0.58 -0.29 0.29 -0.29 0 0 0 0zm-0.29 -1.75l0.58 -0.29 0 0 0 0 0 0 0 0 0.29 0 0 0.29 0 0 0 0 0 0 0 0.29 0 0 0.29 0 0 0 0 0.29 0 0 0 0 0 0 0 0.29 0 0 0 0 0 0 0 0.29 0 0 0 0 -0.29 0 0 0.29 0 0 0 0 0 0.29 0 0 0 0 -0.29 0 0 0.29 -0.29 -0.29 0 -0.29 0 0 0 0 0 0 0 0 0 -0.29 0.29 0 0 0 0 0 0 0 0 -0.29 0 0 0 0 0 0 0 0 0 -0.29 0 0 0 0 0 0 0 0 0 0 0 -0.29 0 0 0 0 -0.29 0 0 0 0 0 0 -0.29 0 0 0 0 0 0 -0.29 0 0 0 0 0zm-1.75 0.29l-0.58 -0.29 0 0 0 0 0.29 -0.29 0 0 0 0 0 0 0.29 0 0 -0.29 0 0 0.29 0 0 0 0 0 0.29 0 0 0 0 0 0 -0.29 0.29 0 0 0 0 0 0.29 0 0 0 0 0 0.29 0 0 0 0 0.29 0.29 0 0 0 0 0 0.29 0 0 0 0 0 0 0 0.29 0.29 -0.58 0.29 0 0 0 0 0 0 0 -0.29 -0.29 0 0 0 0 0 0 0 0 0 -0.29 0 0 0 0 0 0 0 0 0 -0.29 0 0 0 0 0 0 0 -0.29 0 0 0 0 0 0 0 0 0.29 -0.29 0 0 0 0 0 0 0 -0.29 0 0 0 0 0.29 0 0 0 0 0 0 0 0zm-10.19 4.08l0 -0.58 0 0 0.29 0 0.29 0 0.58 0 0.29 0 0.29 0 0.29 0 0.58 0 0.29 0 0.29 -0.29 0.29 0 0.29 0 0.29 0 0.29 -0.29 0.29 0 0.29 0 0.29 -0.29 0.29 0 0.29 -0.29 0.29 0 0.29 -0.29 0.29 0 0.29 -0.29 0.29 0 0.29 -0.29 0.29 -0.29 0.29 0 0.29 -0.29 0.29 -0.29 0.29 -0.29 0 0 0.29 -0.29 0.29 -0.29 0.58 0.29 -0.29 0.29 -0.29 0.29 -0.29 0.29 -0.29 0 -0.29 0.29 -0.29 0.29 -0.29 0.29 -0.29 0 -0.29 0.29 0 0.29 -0.29 0 -0.58 0.29 -0.29 0 -0.29 0.29 -0.29 0 -0.29 0.29 -0.29 0 -0.29 0.29 -0.29 0 -0.29 0 -0.29 0.29 -0.58 0 -0.29 0 -0.29 0 -0.29 0 -0.29 0.29 -0.58 0 -0.29 0 -0.29 0 -0.58 0 -0.29 0 -0.29 0 0 0 0 0zm-8.16 -3.79l0.58 -0.29 0 0 0 0.29 0.29 0 0.29 0.29 0 0.29 0.29 0 0.29 0.29 0 0 0.29 0.29 0.29 0 0.29 0.29 0 0 0.29 0.29 0.29 0 0.29 0.29 0.29 0 0 0 0.29 0.29 0.29 0 0.29 0 0.29 0.29 0.29 0 0 0 0.29 0.29 0.29 0 0.29 0 0.29 0 0.29 0 0.29 0.29 0.29 0 0.29 0 0.29 0 0.29 0 0 0.58 -0.29 0 -0.29 0 -0.29 -0.29 -0.29 0 -0.29 0 -0.29 0 -0.29 0 -0.29 -0.29 -0.29 0 -0.29 0 -0.29 0 -0.29 -0.29 -0.29 0 -0.29 0 -0.29 -0.29 -0.29 0 0 -0.29 -0.29 0 -0.29 0 -0.29 -0.29 -0.29 0 0 -0.29 -0.29 0 -0.29 -0.29 -0.29 0 -0.29 -0.29 0 -0.29 -0.29 0 -0.29 -0.29 0 0 -0.29 -0.29 -0.29 -0.29 0 0 -0 -0zm-2.91 0l-0.29 -0.29 0 0 0 0 0 -0.29 0.29 0 0 -0.29 0.29 0 0 0 0 0 0.29 -0.29 0 0 0.29 0 0 0 0 0 0.29 -0.29 0 0 0.29 0 0 0 0 0 0.29 0 0 0 0.29 0.29 0 0 0.29 0 0 0 0 0 0.29 0.29 0 0 0.29 0 0 0.29 0 0 0.29 0 0 0.29 0.29 0 -0.58 0.29 0 0 -0.29 -0.29 0 0 0 0 -0.29 -0.29 0 0 0 0 -0.29 0 0 0 0 -0.29 -0.29 0 0 0 0 0 0 0 -0.29 0 0 0 0 0 0 0 -0.29 0 0 0 0 0 0 0 -0.29 0 0 0.29 0 0 -0.29 0 0 0 0 0.29 -0.29 0 0 0 -0.29 0.29 0 0 0 0 0 0zm-0.29 -0.29l0 0 0 0 0 0zm-8.16 4.08l0 -0.58 0 0 0.29 0 0.29 0 0.29 0 0.29 0 0.29 0 0.29 0 0.29 -0.29 0.29 0 0.29 0 0.29 0 0.29 -0.29 0.29 0 0 0 0.29 -0.29 0.29 0 0.29 0 0.29 -0.29 0.29 0 0.29 -0.29 0 0 0.29 -0.29 0.29 0 0.29 -0.29 0.29 0 0 -0.29 0.29 0 0.29 -0.29 0.29 0 0 -0.29 0.29 -0.29 0.29 0 0.29 -0.29 0.29 0.29 -0.29 0.29 0 0 -0.29 0.29 -0.29 0.29 -0.29 0 -0.29 0.29 0 0.29 -0.29 0 -0.29 0.29 -0.29 0 -0.29 0.29 0 0 -0.29 0.29 -0.29 0 -0.29 0.29 -0.29 0 -0.29 0.29 -0.29 0 -0.29 0 -0.29 0.29 -0.29 0 -0.29 0 -0.29 0 -0.29 0.29 -0.29 0 -0.29 0 -0.29 0 -0.29 0 -0.29 0.29 -0.29 0 -0.29 0 -0.29 0 0 0 0 0zm-0.58 0l0 -0.58 0 0 0 0 0 0 0 0 0 0 0 0 0 0 0 0 0 0 0 0 0 0 0 0 0 0 0 0 0.29 0 0 0 0 0 0 0 0 0 0 0 0 0 0 0 0 0 0 0 0 0 0 0 0 0 0 0 0 0 0 0 0.29 0 0 0 0 0 0 0.58 0 0 0 0 0 0 0 0 -0.29 0 0 0 0 0 0 0 0 0 0 0 0 0 0 0 0 0 0 0 0 0 0 0 0 0 0 0 0 0 0 0 0 0 0 0 0 0 -0.29 0 0 0 0 0 0 0 0 0 0 0 0 0 0 0 0 0 0 0zm0 -0.58l0 0 0 0 0 0zm-1.17 1.75l-0.58 0 0 0 0 0 0 -0.29 0 0 0 0 0 0 0 -0.29 0 0 0 0 0 0 0 -0.29 0.29 0 0 0 0 0 0 0 0 -0.29 0 0 0.29 0 0 0 0 0 0 0 0.29 -0.29 0 0 0 0 0 0 0.29 0 0 0 0 0 0 0 0.29 -0.29 0 0 0 0 0.29 0 0 0.58 0 0 0 0 -0.29 0 0 0 0 0 0 0 -0.29 0 0 0 0 0.29 0 0 0 0 -0.29 0 0 0 0 0 0 0 0 0 0 0 0 0.29 -0.29 0 0 0 0 0 0 0 0 0 0 0 0 0.29 0 0 0 0 0 0 0 0 0 0 0 0.29 0 0 0 0 0 0zm0 0l0 0 0 0 0 0zm1.46 0.87l0 0.58 0 0 -0.29 0 0 0 0 0 -0.29 0 0 0 0 0 -0.29 0 0 0 0 0 -0.29 -0.29 0 0 0 0 0 0 -0.29 0 0 0 0 0 0 -0.29 -0.29 0 0 0 0 0 0 0 0 -0.29 0 0 -0.29 0 0 0 0 -0.29 0 0 0 0 0 0 0 -0.29 0 0 0 0 0.58 0 0 0 0 0 0 0 0 0.29 0 0 0 0 0 0 0 0 0 0 0 0.29 0.29 0 0 0 0 0 0 0 0 0 0 0 0 0 0.29 0.29 0 0 0 0 0 0 0 0 0 0 0.29 0 0 0 0 0 0 0 0.29 0 0 0 0 0 0 0 0.29 0 0 0 0 0zm8.74 -2.62l0.29 0.29 0 0 -0.29 0.29 -0.29 0 -0.29 0.29 0 0 -0.29 0.29 -0.29 0 -0.29 0.29 -0.29 0 -0.29 0.29 -0.29 0 -0.29 0.29 -0.29 0 -0.29 0 -0.29 0.29 -0.29 0 -0.29 0.29 -0.29 0 -0.29 0 -0.29 0 -0.29 0.29 -0.29 0 -0.29 0 -0.29 0 -0.29 0 -0.29 0.29 -0.29 0 -0.29 0 -0.29 0 -0.29 0 -0.29 0 -0.29 0 -0.29 0 0 -0.58 0.29 0 0.29 0 0.29 0 0.29 0 0.29 0 0.29 0 0.29 0 0.29 0 0.29 0 0.29 -0.29 0.29 0 0.29 0 0.29 0 0.29 0 0.29 -0.29 0.29 0 0.29 0 0.29 -0.29 0 0 0.29 0 0.29 -0.29 0.29 0 0.29 -0.29 0.29 0 0.29 0 0.29 -0.29 0.29 0 0 -0.29 0.29 0 0.29 -0.29 0.29 -0.29 0.29 0 0 0 0 0zm1.74 -1.17l-0.58 0.58 0.58 0 0 0 -0.29 0 0 0 0 0 0 0 0 0 0 0 0 0.29 -0.29 0 0 0 0 0 0 0 0 0 0 0 -0.29 0 0 0 0 0.29 0 0 0 0 0 0 0 0 -0.29 0 0 0 0 0 0 0 0 0.29 0 0 0 0 -0.29 0 0 0 0 0 0 0 -0.29 -0.29 0 0 0 0 0 0 0 0 0 -0.29 0.29 0 0 0 0 0 0 0 0 0 0 0 0 0 0.29 0 0 -0.29 0 0 0 0 0 0 0 0 0.29 0 0 0 0 0 0 0 0 -0.29 0 0 0 0 0.29 0 0 0 0 0 0 0 0 0 0 0 0 -0.29 0.58 0 0 0zm-0.58 0l0.29 0 0.29 0 -0.58 0 0 0z"/>
    </g>
    <g>
     <polygon class="fil1" points="71.97,85.37 73.43,85.37 73.43,73.13 73.43,73.13 76.63,73.13 76.63,73.13 76.63,85.37 77.79,85.37 "/>
     <path id="_1_118" class="fil1" d="M73.43 85.66l-1.46 0 0 -0.58 1.46 0 0.29 0.29 -0.29 0.29 0 0zm0.29 -0.29l0 0.29 -0.29 0 0.29 -0.29zm0 -12.23l0 12.23 -0.59 0 0 -12.23 0 -0.29 0.59 0.29zm-0.58 -0.29l0.58 -0.29 0 0.58 -0.58 -0.29 0 0zm0 0l0 0 0.58 0.58 -0.29 0 0 0 -0.29 -0.58 0 0zm0.29 0.58l-0.87 0 0.58 -0.58 0.29 0.58zm3.2 0l-3.2 0 0 -0.58 3.2 0 0 0 0 0.58zm0 -0.58l0.87 0.58 -0.87 0 0 -0.58zm0 0l0 0 -0.29 0.58 0 0 0 -0.29 0.29 -0.29 0 0zm-0.29 0.29l0 -0.58 0.29 0.29 -0.29 0.29 0 0zm0 12.23l0 -12.23 0.58 0 0 12.23 -0.29 0.29 -0.29 -0.29 0 0zm0.29 0.29l-0.29 0 0 -0.29 0.29 0.29zm1.17 0l-1.17 0 0 -0.58 1.17 0 0 0.58zm-5.82 -0.58l5.82 0 0 0.58 -5.82 0 0 -0.58z"/>
    </g>
    <g>
     <path class="fil2" d="M45.46 69.64l0 -8.44 -12.52 0c-0.87,0 -1.46,-0.58 -1.46,-1.17 0,-0.29 0.29,-0.58 0.29,-0.58 0.29,-0.29 0.29,-0.58 0.58,-0.87 0.29,-0.58 0.58,-1.17 1.17,-1.46 2.04,-2.04 4.08,-3.79 6.12,-5.54l0.29 0c0.29,-0.29 0.58,-0.58 0.87,-0.58l0 0c0.29,0 0.58,-0.29 0.87,-0.29l0 0c0.29,0 0.58,0 0.58,0l0 -0.29 -9.32 0c-0.87,0 -1.46,-0.58 -1.46,-1.16 0,-0.29 0.29,-0.59 0.29,-0.59 0.29,-0.29 0.29,-0.58 0.58,-0.58l0 -0.29c0.29,-0.58 0.58,-0.87 1.17,-1.45 2.04,-1.75 4.08,-3.5 6.11,-5.24l0.58 -0.29c0,-0.29 0.29,-0.58 0.59,-0.58 0,0 0.29,0 0.29,0 0.29,0 0.29,0 0.59,0l0 0c0.29,0 0.58,0 0.87,0l0 -0.58 -9.61 0c-0.29,0 -0.87,-0.29 -1.17,-0.58l0 0c-0.58,-0.58 -0.29,-1.17 0,-1.46l0.29 -0.29 0 0c0.29,-0.29 0.58,-0.58 1.17,-0.87 2.33,-1.75 4.66,-3.5 6.7,-5.24 1.75,-2.04 3.49,-4.08 5.24,-6.41 0,-0.29 0.29,-0.58 0.29,-0.87 0.29,-0.29 0.58,-0.87 0.87,-1.17l0 0c0.29,-0.29 0.58,-0.58 0.87,-0.87 0.29,-0.29 0.58,-0.29 1.17,-0.29 0.58,-0.29 1.17,0 1.46,0.29 0.29,0.29 0.58,0.58 0.87,0.87l0 0 0 0c1.17,2.04 2.33,4.08 3.78,5.83l0 0c1.46,1.75 3.2,3.2 5.24,4.66 0.58,0.87 1.46,1.46 2.33,2.04 0.58,0.29 1.46,0.87 1.75,1.17l0 0c0.58,0.29 0.87,0.58 0.87,0.87l0.29 0 0 0.29c0.58,0.29 0.58,0.87 0.29,1.17l-0.29 0.29c-0.29,0.29 -0.58,0.58 -0.87,0.58l0 0 -9.61 0 0 0.29c0.58,0 1.17,0.29 1.75,0.58 0.87,0.29 1.46,0.87 2.04,1.45 0.87,0.87 1.75,1.46 2.62,2.04 0.58,0.87 1.46,1.46 2.04,2.04l0.29 0c0.29,0.58 0.87,1.17 1.17,1.75 0.29,0 0.29,0.29 0.58,0.58 0.29,0.58 0.29,1.17 -0.29,1.46l0 0c-0.29,0.29 -0.58,0.58 -0.87,0.58l0 0 -9.32 0 0 0.29c0.58,0 1.17,0.29 1.75,0.29 0.58,0.58 1.45,0.87 2.04,1.46 0.58,0.87 1.45,1.46 2.04,2.04 0.58,0.58 1.46,1.17 2.33,1.75 0.58,0.58 1.17,1.16 1.17,2.04l0 0c0.29,0.59 0,1.17 -0.29,2.04 0,0.58 -0.58,0.87 -1.17,0.87l0 0 -11.07 0 0 1.75 0 0 0 2.33c0,2.04 0,3.79 0,5.83 0,0.29 0.29,0.58 0.58,0.87l0 0c0.29,0 0.29,0.29 0.29,0.29 1.46,0 2.91,0 3.79,0.59l0 0c1.17,0.58 2.04,1.45 2.62,2.33 0.29,0 0.59,0 0.87,0 1.17,-0.29 2.33,-0.29 3.5,0 1.17,0.29 2.04,0.87 2.91,1.75 0.58,0.87 0.87,2.04 1.17,2.91 0,0.87 -0.29,2.04 -0.87,2.91 -0.29,0.29 -0.58,0.58 -1.17,0.87 -0.29,0 -0.87,0.29 -1.46,0.29l0 0c-2.62,0 -6.7,0 -11.94,0 -5.24,0 -9.32,0 -12.23,0l0 0c-0.29,0 -0.87,-0.29 -1.17,-0.29l0 0 0 0c-0.58,-0.29 -0.87,-0.58 -1.17,-0.87l0 -0.29c-0.29,-0.29 -0.29,-0.58 -0.58,-1.17 -0.29,-1.17 -0.29,-2.04 0.29,-3.2 0.29,-0.87 1.17,-1.74 2.33,-2.33 0.29,-0.29 0.87,-0.58 1.46,-0.58 0.29,0 0.58,-0.29 0.58,-0.29 0,0 0,0 0,0 -0.29,-1.46 0.29,-2.62 1.46,-3.79 0.58,-0.58 1.75,-1.17 2.91,-1.46l0 0 -0 0zm2.62 -9.61l0 10.48 0 0c0,0.58 -0.29,1.17 -1.17,1.17 -1.17,0.29 -2.04,0.58 -2.62,1.17 -0.58,0.29 -0.87,1.16 -0.87,1.75 0.29,0.87 0,1.45 -0.58,1.75 -0.29,0.58 -0.87,0.87 -1.46,0.87 -0.58,0 -0.87,0.29 -0.87,0.29 -0.87,0.29 -1.17,0.87 -1.46,1.46 -0.29,0.58 -0.29,1.17 0,1.75 0,0.29 0,0.58 0.29,0.87l0 0 0 0 0 0c0,0 0,0 0,0l0 0c5.54,0 9.61,0 12.23,0 2.62,0 6.7,0 11.94,0l0 0c0.29,0 0.29,0 0.29,0l0 0c0.29,-0.58 0.58,-1.17 0.58,-1.75 0,-0.58 -0.29,-1.17 -0.58,-1.46 -0.58,-0.58 -1.17,-0.87 -1.75,-1.17 -0.58,0 -1.17,-0.29 -2.04,0 -0.29,0 -0.58,0.29 -1.16,0.29l-0.29 0.29c-0.87,0 -1.46,0 -1.75,-0.58l-0.29 -0.29 0 0c0,0 0,-0.29 -0.29,-0.58l0 0c-0.29,-0.58 -0.87,-1.17 -1.46,-1.46l0 0c-0.58,-0.29 -1.46,-0.58 -2.33,-0.29l-0.29 0 0 0c-0.29,0 -1.16,0 -1.75,-0.59 0,-0.29 -0.29,-0.29 -0.29,-0.58l0 0c-0.87,-0.58 -1.46,-1.17 -1.46,-2.33 0,-2.04 0,-3.79 0,-5.83l0 -2.33 0 0 0 -2.91c0,-0.58 0.58,-1.16 1.46,-1.16l11.36 0c0,0 0,-0.29 0,-0.29l0 0c-0.29,-0.29 -0.29,-0.29 -0.59,-0.58 -0.87,-0.59 -1.75,-1.46 -2.33,-2.04 -0.87,-0.58 -1.46,-1.17 -2.33,-2.04 -0.29,-0.29 -0.87,-0.58 -1.17,-0.87 -0.29,0 -0.87,0 -1.46,0 -0.29,0 -0.58,0 -0.87,-0.29l0 0c-0.58,0 -0.87,-0.58 -0.87,-0.87l0 -2.62c0,-0.58 0.58,-1.17 1.46,-1.17l8.44 0c-0.29,-0.29 -0.29,-0.29 -0.58,-0.58l0 0c-0.87,-0.58 -1.45,-1.17 -2.33,-1.75 -0.87,-0.87 -1.75,-1.46 -2.33,-2.33 -0.58,-0.29 -0.87,-0.87 -1.46,-0.87 -0.29,-0.29 -0.87,-0.29 -1.46,-0.29 -0.58,0 -0.87,0 -0.87,-0.29 -0.58,0 -0.87,-0.29 -0.87,-0.87l0 -2.62c0,-0.58 0.58,-1.17 1.17,-1.17l8.15 0 -0.58 -0.29c-0.87,-0.58 -2.04,-1.46 -2.91,-2.04 -1.75,-1.75 -3.49,-3.49 -5.24,-5.24l0 0 0 0c-1.46,-1.75 -2.91,-3.79 -4.08,-5.54 -0.29,0.29 -0.29,0.58 -0.58,0.87 0,0.29 -0.29,0.58 -0.58,0.87 -1.46,2.33 -3.2,4.66 -5.54,6.7 -1.75,1.75 -3.78,3.2 -6.11,4.95l8.15 0c0.58,0 1.17,0.29 1.17,0.87l0 2.62 0 0 0 0c0,0.58 -0.58,1.17 -1.17,1.17l-0.58 0 0 0c-0.29,0 -0.87,0 -1.17,0l0 0 0 0 0 0 0 0 -0.58 0.29c-2.04,1.74 -4.08,3.49 -6.12,5.53 0,0 0,0 0,0l8.45 0c0.58,0 1.16,0.58 1.16,1.17l0 2.62c0,0.58 -0.58,1.17 -1.16,1.17l-0.59 0c-0.29,0 -0.87,0 -1.16,0l0 0c0,0 0,0 0,0l0 0 0 0 -0.29 0 0.29 0 -0.29 0 0 0 -0.29 0.29c-1.75,1.75 -3.79,3.5 -5.83,5.24 -0.29,0 -0.29,0.29 -0.29,0.29l11.65 0c0.58,0 1.16,0.58 1.16,1.17l0.01 0zm-16.31 -11.36c0.29,-0.29 0.58,-0.58 0.87,-0.58l-0.87 0.58z"/>
     <g>
      <path id="_1_119" class="fil1" d="M45.46 69.64l0 -8.44 -12.52 0c-0.87,0 -1.46,-0.58 -1.46,-1.17 0,-0.29 0.29,-0.58 0.29,-0.58 0.29,-0.29 0.29,-0.58 0.58,-0.87 0.29,-0.58 0.58,-1.17 1.17,-1.46 2.04,-2.04 4.08,-3.79 6.12,-5.54l0.29 0c0.29,-0.29 0.58,-0.58 0.87,-0.58l0 0c0.29,0 0.58,-0.29 0.87,-0.29l0 0c0.29,0 0.58,0 0.58,0l0 -0.29 -9.32 0c-0.87,0 -1.46,-0.58 -1.46,-1.16 0,-0.29 0.29,-0.59 0.29,-0.59 0.29,-0.29 0.29,-0.58 0.58,-0.58l0 -0.29c0.29,-0.58 0.58,-0.87 1.17,-1.45 2.04,-1.75 4.08,-3.5 6.11,-5.24l0.58 -0.29c0,-0.29 0.29,-0.58 0.59,-0.58 0,0 0.29,0 0.29,0 0.29,0 0.29,0 0.59,0l0 0c0.29,0 0.58,0 0.87,0l0 -0.58 -9.61 0c-0.29,0 -0.87,-0.29 -1.17,-0.58l0 0c-0.58,-0.58 -0.29,-1.17 0,-1.46l0.29 -0.29 0 0c0.29,-0.29 0.58,-0.58 1.17,-0.87 2.33,-1.75 4.66,-3.5 6.7,-5.24 1.75,-2.04 3.49,-4.08 5.24,-6.41 0,-0.29 0.29,-0.58 0.29,-0.87 0.29,-0.29 0.58,-0.87 0.87,-1.17l0 0c0.29,-0.29 0.58,-0.58 0.87,-0.87 0.29,-0.29 0.58,-0.29 1.17,-0.29 0.58,-0.29 1.17,0 1.46,0.29 0.29,0.29 0.58,0.58 0.87,0.87l0 0 0 0c1.17,2.04 2.33,4.08 3.78,5.83l0 0c1.46,1.75 3.2,3.2 5.24,4.66 0.58,0.87 1.46,1.46 2.33,2.04 0.58,0.29 1.46,0.87 1.75,1.17l0 0c0.58,0.29 0.87,0.58 0.87,0.87l0.29 0 0 0.29c0.58,0.29 0.58,0.87 0.29,1.17l-0.29 0.29c-0.29,0.29 -0.58,0.58 -0.87,0.58l0 0 -9.61 0 0 0.29c0.58,0 1.17,0.29 1.75,0.58 0.87,0.29 1.46,0.87 2.04,1.45 0.87,0.87 1.75,1.46 2.62,2.04 0.58,0.87 1.46,1.46 2.04,2.04l0.29 0c0.29,0.58 0.87,1.17 1.17,1.75 0.29,0 0.29,0.29 0.58,0.58 0.29,0.58 0.29,1.17 -0.29,1.46l0 0c-0.29,0.29 -0.58,0.58 -0.87,0.58l0 0 -9.32 0 0 0.29c0.58,0 1.17,0.29 1.75,0.29 0.58,0.58 1.45,0.87 2.04,1.46 0.58,0.87 1.45,1.46 2.04,2.04 0.58,0.58 1.46,1.17 2.33,1.75 0.58,0.58 1.17,1.16 1.17,2.04l0 0c0.29,0.59 0,1.17 -0.29,2.04 0,0.58 -0.58,0.87 -1.17,0.87l0 0 -11.07 0 0 1.75 0 0 0 2.33c0,2.04 0,3.79 0,5.83 0,0.29 0.29,0.58 0.58,0.87l0 0c0.29,0 0.29,0.29 0.29,0.29 1.46,0 2.91,0 3.79,0.59l0 0c1.17,0.58 2.04,1.45 2.62,2.33 0.29,0 0.59,0 0.87,0 1.17,-0.29 2.33,-0.29 3.5,0 1.17,0.29 2.04,0.87 2.91,1.75 0.58,0.87 0.87,2.04 1.17,2.91 0,0.87 -0.29,2.04 -0.87,2.91 -0.29,0.29 -0.58,0.58 -1.17,0.87 -0.29,0 -0.87,0.29 -1.46,0.29l0 0c-2.62,0 -6.7,0 -11.94,0 -5.24,0 -9.32,0 -12.23,0l0 0c-0.29,0 -0.87,-0.29 -1.17,-0.29l0 0 0 0c-0.58,-0.29 -0.87,-0.58 -1.17,-0.87l0 -0.29c-0.29,-0.29 -0.29,-0.58 -0.58,-1.17 -0.29,-1.17 -0.29,-2.04 0.29,-3.2 0.29,-0.87 1.17,-1.74 2.33,-2.33 0.29,-0.29 0.87,-0.58 1.46,-0.58 0.29,0 0.58,-0.29 0.58,-0.29 0,0 0,0 0,0 -0.29,-1.46 0.29,-2.62 1.46,-3.79 0.58,-0.58 1.75,-1.17 2.91,-1.46l-0 0zm2.62 -9.61l0 10.48 0 0c0,0.58 -0.29,1.17 -1.17,1.17 -1.17,0.29 -2.04,0.58 -2.62,1.17 -0.58,0.29 -0.87,1.16 -0.87,1.75 0.29,0.87 0,1.45 -0.58,1.75 -0.29,0.58 -0.87,0.87 -1.46,0.87 -0.58,0 -0.87,0.29 -0.87,0.29 -0.87,0.29 -1.17,0.87 -1.46,1.46 -0.29,0.58 -0.29,1.17 0,1.75 0,0.29 0,0.58 0.29,0.87l0 0 0 0 0 0c0,0 0,0 0,0l0 0c5.54,0 9.61,0 12.23,0 2.62,0 6.7,0 11.94,0l0 0c0.29,0 0.29,0 0.29,0l0 0c0.29,-0.58 0.58,-1.17 0.58,-1.75 0,-0.58 -0.29,-1.17 -0.58,-1.46 -0.58,-0.58 -1.17,-0.87 -1.75,-1.17 -0.58,0 -1.17,-0.29 -2.04,0 -0.29,0 -0.58,0.29 -1.16,0.29l-0.29 0.29c-0.87,0 -1.46,0 -1.75,-0.58l-0.29 -0.29 0 0c0,0 0,-0.29 -0.29,-0.58l0 0c-0.29,-0.58 -0.87,-1.17 -1.46,-1.46l0 0c-0.58,-0.29 -1.46,-0.58 -2.33,-0.29l-0.29 0 0 0c-0.29,0 -1.16,0 -1.75,-0.59 0,-0.29 -0.29,-0.29 -0.29,-0.58l0 0c-0.87,-0.58 -1.46,-1.17 -1.46,-2.33 0,-2.04 0,-3.79 0,-5.83l0 -2.33 0 0 0 -2.91c0,-0.58 0.58,-1.16 1.46,-1.16l11.36 0c0,0 0,-0.29 0,-0.29l0 0c-0.29,-0.29 -0.29,-0.29 -0.59,-0.58 -0.87,-0.59 -1.75,-1.46 -2.33,-2.04 -0.87,-0.58 -1.46,-1.17 -2.33,-2.04 -0.29,-0.29 -0.87,-0.58 -1.17,-0.87 -0.29,0 -0.87,0 -1.46,0 -0.29,0 -0.58,0 -0.87,-0.29l0 0c-0.58,0 -0.87,-0.58 -0.87,-0.87l0 -2.62c0,-0.58 0.58,-1.17 1.46,-1.17l8.44 0c-0.29,-0.29 -0.29,-0.29 -0.58,-0.58l0 0c-0.87,-0.58 -1.45,-1.17 -2.33,-1.75 -0.87,-0.87 -1.75,-1.46 -2.33,-2.33 -0.58,-0.29 -0.87,-0.87 -1.46,-0.87 -0.29,-0.29 -0.87,-0.29 -1.46,-0.29 -0.58,0 -0.87,0 -0.87,-0.29 -0.58,0 -0.87,-0.29 -0.87,-0.87l0 -2.62c0,-0.58 0.58,-1.17 1.17,-1.17l8.15 0 -0.58 -0.29c-0.87,-0.58 -2.04,-1.46 -2.91,-2.04 -1.75,-1.75 -3.49,-3.49 -5.24,-5.24l0 0 0 0c-1.46,-1.75 -2.91,-3.79 -4.08,-5.54 -0.29,0.29 -0.29,0.58 -0.58,0.87 0,0.29 -0.29,0.58 -0.58,0.87 -1.46,2.33 -3.2,4.66 -5.54,6.7 -1.75,1.75 -3.78,3.2 -6.11,4.95l8.15 0c0.58,0 1.17,0.29 1.17,0.87l0 2.62 0 0 0 0c0,0.58 -0.58,1.17 -1.17,1.17l-0.58 0 0 0c-0.29,0 -0.87,0 -1.17,0l0 0 0 0 0 0 0 0 -0.58 0.29c-2.04,1.74 -4.08,3.49 -6.12,5.53 0,0 0,0 0,0l8.45 0c0.58,0 1.16,0.58 1.16,1.17l0 2.62c0,0.58 -0.58,1.17 -1.16,1.17l-0.59 0c-0.29,0 -0.87,0 -1.16,0l0 0c0,0 0,0 0,0l0 0 0 0 -0.29 0 0.29 0 -0.29 0 0 0 -0.29 0.29c-1.75,1.75 -3.79,3.5 -5.83,5.24 -0.29,0 -0.29,0.29 -0.29,0.29l11.65 0c0.58,0 1.16,0.58 1.16,1.17l0.01 0zm-16.31 -11.36c0.29,-0.29 0.58,-0.58 0.87,-0.58l-0.87 0.58z"/>
     </g>
    </g>
    <g>
     <path class="fil2" d="M90.61 50.13l0.87 0.87 0 0c1.46,1.75 2.91,2.91 4.08,4.37 0.29,0.29 0.29,0.58 0.29,0.87 0.29,0.29 0.29,0.58 0.29,0.87l0 0c0,1.75 0,3.5 0,5.54l0 1.75 0 0 0 0 1.17 0c0,-0.29 0,-0.87 0,-1.17l0 0c0,-0.58 0,-1.17 0.29,-1.75 0.29,-0.58 0.58,-0.87 0.87,-1.46 1.46,-1.17 2.33,-2.33 3.49,-3.5l0.87 -0.87 -0.87 -0.87 -2.62 2.91c-0.29,0.29 -0.87,0.58 -1.17,0.29l-0.29 0c-0.29,-0.29 -0.58,-0.58 -0.58,-0.87l0 0 0 -12.23 -1.17 0 0 7.28c0,0.29 -0.29,0.58 -0.87,0.58 -0.29,0 -0.58,0 -0.87,-0.29l-2.91 -2.91 -0.87 0.58 0 0zm-0.58 2.04l-1.45 -1.45 0 0c-0.29,-0.58 -0.29,-0.87 0.29,-1.17l2.33 -1.75c0.29,-0.29 0.87,-0.29 1.46,0l1.46 2.04 0 -5.83 0 0c0,-0.58 0.58,-0.87 1.17,-0.87l2.91 0 0 0c0.58,0 1.16,0.29 1.16,0.87l0 11.07 1.75 -1.75c0.29,-0.58 0.87,-0.58 1.46,-0.29l2.33 1.75 0 0c0.29,0.29 0.58,0.87 0,1.17 -0.58,0.87 -0.87,1.17 -1.46,1.46 -1.17,1.46 -2.33,2.62 -3.49,3.79 -0.29,0.29 -0.29,0.58 -0.59,0.87 0,0.29 0,0.58 0,0.87l0 0c0,0.58 0,1.17 0,1.75 0,0 0,0.29 0,0.58l0 0c0,0 0,0.29 -0.29,0.29 0,0.29 0.29,0.29 0.29,0.29 0.59,1.17 1.17,1.75 2.04,2.33 0.87,0.29 1.75,0.29 2.62,0 0.29,0 0.87,-0.29 1.17,-0.29 0.29,-0.29 0.58,-0.58 0.87,-0.87l0 0c0.58,-0.58 0.87,-1.17 0.58,-1.75 0,-0.87 -0.29,-1.45 -0.58,-2.04 0,0 0,-0.29 0,-0.29 -0.29,-0.29 0,-0.87 0.58,-0.87 0.87,-0.58 1.75,-0.87 2.33,-1.46l0 0c0.58,-0.58 0.87,-1.17 0.87,-2.04 0,-0.87 -0.29,-1.46 -0.87,-2.04 -0.58,-0.58 -1.46,-0.87 -2.33,-1.46 -0.29,0 -0.29,0 -0.29,0 -0.58,-0.29 -0.58,-0.87 0,-1.17l0 -0.29c1.17,-0.87 2.04,-2.04 2.04,-3.2 0,-0.58 -0.29,-1.17 -0.87,-1.75 -0.29,-0.29 -0.87,-0.87 -1.46,-1.17 -0.58,-0.29 -0.58,-0.87 -0.29,-1.17l0.29 -0.29 0 0 0 0c0,-0.29 0.29,-0.58 0.29,-0.87 0.29,-0.58 0.29,-0.87 0.29,-1.46 0,-0.58 -0.29,-1.17 -0.58,-1.75 -0.29,-0.29 -0.87,-0.87 -1.46,-0.87 -0.58,-0.29 -0.87,-0.29 -1.46,-0.29 -0.87,0 -1.46,0 -1.75,-0.29l-0.29 0c-0.29,-0.59 -0.58,-0.87 -0.87,-1.46l0 0 0 0c0,-0.87 -0.58,-1.46 -1.16,-1.75 -0.59,-0.29 -1.46,-0.58 -2.33,-0.58 -0.87,0 -1.46,0.29 -2.33,0.58 -0.58,0.29 -0.87,0.87 -1.17,1.75 0,0.58 -0.29,0.87 -0.87,1.17l0 0 0 0c-0.58,0.29 -1.17,0.58 -1.75,0.58 -0.58,0 -1.17,0 -1.75,0.29 -0.58,0 -1.17,0.58 -1.46,0.87 -0.29,0.58 -0.58,1.16 -0.58,1.75 0,0.58 0,0.87 0.29,1.45l0 0c0.29,0.29 0.29,0.58 0.58,0.87l0 0 0.29 0.29c0,0.29 0,0.87 -0.29,1.17l-0.58 0.29 0 0c-0.29,0.29 -0.58,0.29 -0.87,0.58l0 0c-0.29,0.58 -0.87,1.17 -0.87,1.75 -0.29,0.58 -0.29,1.17 0,1.46 1.75,2.33 2.62,4.95 2.91,7.28 0.29,2.62 0,5.24 -0.87,7.87 0,0 0,0.29 0,0.29l0 0 0 0c0,0 0.29,0 0.29,0l0 0 0 0c0.29,0.58 0.87,0.87 1.46,1.17 0.87,0.29 1.46,0.29 2.33,0.29 0.58,-0.29 1.16,-0.58 1.74,-0.87 0.29,-0.58 0.87,-1.16 1.17,-1.75 0,0 0,0 0,-0.29 0,0 -0.29,-0.29 -0.29,-0.29l0 -0.87 0.29 0 0 -1.75c0,-2.04 0,-3.79 -0.29,-5.54l0 0 0 0c0,-0.29 0,-0.29 0,-0.29 0,-0.29 0,-0.29 0,-0.29 -1.45,-1.75 -2.62,-2.91 -4.07,-4.37l0 0 0 -0zm7.28 13.98l-1.17 0 0 0 0 15.73 0 0c0,0 0,0.29 0,0.29 0,0.29 0,0.29 0,0.58l0 0.29 1.17 0 0 -16.89 0 0c0,0 0,0 0,0zm-3.2 13.4l0 -10.48c-0.58,0.29 -1.46,0.58 -2.33,0.87 -1.17,0.29 -2.33,0.29 -3.2,0 -1.17,-0.58 -2.04,-1.17 -2.62,-2.04l0 0c-0.29,0 -0.29,-0.29 -0.29,-0.58l0 0c0,-0.29 0,-0.58 0,-0.87 0.58,-2.62 0.87,-4.95 0.58,-7.28 -0.29,-2.33 -1.17,-4.66 -2.62,-6.99 -0.29,-0.58 -0.58,-1.45 -0.29,-2.33 0.29,-1.17 0.87,-2.04 1.75,-2.62l0 0c0.29,-0.29 0.59,-0.58 0.87,-0.58 -0.29,-0.29 -0.29,-0.58 -0.58,-0.87l0 0c-0.29,-0.58 -0.58,-1.46 -0.58,-2.04 0.29,-0.87 0.58,-1.75 1.17,-2.62 0.58,-0.58 1.17,-1.17 2.33,-1.75 0.58,-0.29 1.46,-0.29 2.33,-0.29 0.29,0 0.58,0 0.58,0l0 0c0,0 0,-0.29 0.29,-0.58 0.29,-0.87 0.87,-1.75 1.75,-2.33 1.17,-0.87 2.33,-1.17 3.49,-1.17 1.46,0 2.62,0.29 3.5,1.17 0.87,0.58 1.75,1.45 2.04,2.33l0 0c0,0.29 0,0.58 0,0.58l0 0c0.29,0 0.29,0 0.58,0 0.87,0 1.75,0 2.62,0.29 0.87,0.58 1.75,1.17 2.33,1.75 0.59,0.87 0.87,1.75 0.87,2.62 0,0.58 -0.29,1.46 -0.58,2.04 0,0.29 -0.29,0.58 -0.29,0.87 0.59,0.29 0.87,0.58 1.46,1.17 0.58,0.58 0.87,1.46 0.87,2.62 0.29,1.46 -0.58,2.62 -1.75,3.79 0.87,0.29 1.46,0.58 2.04,1.17 0.87,0.87 1.46,1.75 1.46,3.2 0,1.45 -0.58,2.33 -1.46,3.2l0 0 0 0c-0.58,0.59 -1.46,0.87 -2.33,1.46 0.29,0.58 0.58,1.17 0.58,1.75 0,1.17 -0.29,2.04 -1.16,2.91l0 0 0 0c-0.29,0.58 -0.59,0.87 -1.17,1.17 -0.58,0.29 -1.17,0.58 -1.75,0.87 -1.46,0.29 -2.91,0.29 -4.08,-0.29 -0.58,-0.29 -0.87,-0.58 -1.17,-0.87l0 15.15c0,0.58 -0.58,0.87 -0.87,0.87l0 0 -3.2 0c-0.58,0 -0.87,-0.29 -0.87,-0.87l0 0 0 -0.29 -11.65 0c-0.58,0 -0.87,-0.58 -0.87,-0.87l0 0c0,-0.29 0,-0.58 0,-0.58 0,-0.58 0,-1.17 0,-1.75 0.29,-0.87 0.87,-1.75 1.46,-2.33l0 0c0.87,-0.87 1.75,-1.17 2.91,-1.46 1.17,-0.29 2.33,0 3.49,0.29 0.87,0.29 1.75,0.87 2.33,1.75l0 0.29c0.29,0 0.29,0 0.29,0.29 0.29,0 0.29,0 0.58,0 0.58,0 0.87,0.29 1.17,0.29l0 0zm-10.19 2.33l10.19 0c-0.29,-0.29 -0.29,-0.29 -0.58,-0.58l0 0 0 0c-0.29,-0.29 -0.58,-0.29 -0.87,-0.29 -0.58,-0.29 -0.87,-0.29 -1.46,-0.58 -0.29,-0.29 -0.29,-0.29 -0.58,-0.58l0 -0.29c-0.58,-0.58 -1.17,-0.87 -1.75,-1.17 -0.58,-0.29 -1.46,-0.29 -2.04,-0.29 -0.87,0.29 -1.46,0.58 -2.04,1.17l0 0 0 0c-0.58,0.29 -0.87,0.87 -0.87,1.46 -0.29,0.29 -0.29,0.87 0,1.17l0 0z"/>
     <path id="_1_120" class="fil1" d="M90.61 50.13l0.87 0.87 0 0c1.46,1.75 2.91,2.91 4.08,4.37 0.29,0.29 0.29,0.58 0.29,0.87 0.29,0.29 0.29,0.58 0.29,0.87l0 0c0,1.75 0,3.5 0,5.54l0 1.75 0 0 0 0 1.17 0c0,-0.29 0,-0.87 0,-1.17l0 0c0,-0.58 0,-1.17 0.29,-1.75 0.29,-0.58 0.58,-0.87 0.87,-1.46 1.46,-1.17 2.33,-2.33 3.49,-3.5l0.87 -0.87 -0.87 -0.87 -2.62 2.91c-0.29,0.29 -0.87,0.58 -1.17,0.29l-0.29 0c-0.29,-0.29 -0.58,-0.58 -0.58,-0.87l0 0 0 -12.23 -1.17 0 0 7.28c0,0.29 -0.29,0.58 -0.87,0.58 -0.29,0 -0.58,0 -0.87,-0.29l-2.91 -2.91 -0.87 0.58 0 0zm-0.58 2.04l-1.45 -1.45 0 0c-0.29,-0.58 -0.29,-0.87 0.29,-1.17l2.33 -1.75c0.29,-0.29 0.87,-0.29 1.46,0l1.46 2.04 0 -5.83 0 0c0,-0.58 0.58,-0.87 1.17,-0.87l2.91 0 0 0c0.58,0 1.16,0.29 1.16,0.87l0 11.07 1.75 -1.75c0.29,-0.58 0.87,-0.58 1.46,-0.29l2.33 1.75 0 0c0.29,0.29 0.58,0.87 0,1.17 -0.58,0.87 -0.87,1.17 -1.46,1.46 -1.17,1.46 -2.33,2.62 -3.49,3.79 -0.29,0.29 -0.29,0.58 -0.59,0.87 0,0.29 0,0.58 0,0.87l0 0c0,0.58 0,1.17 0,1.75 0,0 0,0.29 0,0.58l0 0c0,0 0,0.29 -0.29,0.29 0,0.29 0.29,0.29 0.29,0.29 0.59,1.17 1.17,1.75 2.04,2.33 0.87,0.29 1.75,0.29 2.62,0 0.29,0 0.87,-0.29 1.17,-0.29 0.29,-0.29 0.58,-0.58 0.87,-0.87l0 0c0.58,-0.58 0.87,-1.17 0.58,-1.75 0,-0.87 -0.29,-1.45 -0.58,-2.04 0,0 0,-0.29 0,-0.29 -0.29,-0.29 0,-0.87 0.58,-0.87 0.87,-0.58 1.75,-0.87 2.33,-1.46l0 0c0.58,-0.58 0.87,-1.17 0.87,-2.04 0,-0.87 -0.29,-1.46 -0.87,-2.04 -0.58,-0.58 -1.46,-0.87 -2.33,-1.46 -0.29,0 -0.29,0 -0.29,0 -0.58,-0.29 -0.58,-0.87 0,-1.17l0 -0.29c1.17,-0.87 2.04,-2.04 2.04,-3.2 0,-0.58 -0.29,-1.17 -0.87,-1.75 -0.29,-0.29 -0.87,-0.87 -1.46,-1.17 -0.58,-0.29 -0.58,-0.87 -0.29,-1.17l0.29 -0.29 0 0 0 0c0,-0.29 0.29,-0.58 0.29,-0.87 0.29,-0.58 0.29,-0.87 0.29,-1.46 0,-0.58 -0.29,-1.17 -0.58,-1.75 -0.29,-0.29 -0.87,-0.87 -1.46,-0.87 -0.58,-0.29 -0.87,-0.29 -1.46,-0.29 -0.87,0 -1.46,0 -1.75,-0.29l-0.29 0c-0.29,-0.59 -0.58,-0.87 -0.87,-1.46l0 0 0 0c0,-0.87 -0.58,-1.46 -1.16,-1.75 -0.59,-0.29 -1.46,-0.58 -2.33,-0.58 -0.87,0 -1.46,0.29 -2.33,0.58 -0.58,0.29 -0.87,0.87 -1.17,1.75 0,0.58 -0.29,0.87 -0.87,1.17l0 0 0 0c-0.58,0.29 -1.17,0.58 -1.75,0.58 -0.58,0 -1.17,0 -1.75,0.29 -0.58,0 -1.17,0.58 -1.46,0.87 -0.29,0.58 -0.58,1.16 -0.58,1.75 0,0.58 0,0.87 0.29,1.45l0 0c0.29,0.29 0.29,0.58 0.58,0.87l0 0 0.29 0.29c0,0.29 0,0.87 -0.29,1.17l-0.58 0.29 0 0c-0.29,0.29 -0.58,0.29 -0.87,0.58l0 0c-0.29,0.58 -0.87,1.17 -0.87,1.75 -0.29,0.58 -0.29,1.17 0,1.46 1.75,2.33 2.62,4.95 2.91,7.28 0.29,2.62 0,5.24 -0.87,7.87 0,0 0,0.29 0,0.29l0 0 0 0c0,0 0.29,0 0.29,0l0 0 0 0c0.29,0.58 0.87,0.87 1.46,1.17 0.87,0.29 1.46,0.29 2.33,0.29 0.58,-0.29 1.16,-0.58 1.74,-0.87 0.29,-0.58 0.87,-1.16 1.17,-1.75 0,0 0,0 0,-0.29 0,0 -0.29,-0.29 -0.29,-0.29l0 -0.87 0.29 0 0 -1.75c0,-2.04 0,-3.79 -0.29,-5.54l0 0 0 0c0,-0.29 0,-0.29 0,-0.29 0,-0.29 0,-0.29 0,-0.29 -1.45,-1.75 -2.62,-2.91 -4.07,-4.37l0 0 0 -0zm7.28 13.98l-1.17 0 0 0 0 15.73 0 0c0,0 0,0.29 0,0.29 0,0.29 0,0.29 0,0.58l0 0.29 1.17 0 0 -16.89 0 0c0,0 0,0 0,0zm-3.2 13.4l0 -10.48c-0.58,0.29 -1.46,0.58 -2.33,0.87 -1.17,0.29 -2.33,0.29 -3.2,0 -1.17,-0.58 -2.04,-1.17 -2.62,-2.04l0 0c-0.29,0 -0.29,-0.29 -0.29,-0.58l0 0c0,-0.29 0,-0.58 0,-0.87 0.58,-2.62 0.87,-4.95 0.58,-7.28 -0.29,-2.33 -1.17,-4.66 -2.62,-6.99 -0.29,-0.58 -0.58,-1.45 -0.29,-2.33 0.29,-1.17 0.87,-2.04 1.75,-2.62l0 0c0.29,-0.29 0.59,-0.58 0.87,-0.58 -0.29,-0.29 -0.29,-0.58 -0.58,-0.87l0 0c-0.29,-0.58 -0.58,-1.46 -0.58,-2.04 0.29,-0.87 0.58,-1.75 1.17,-2.62 0.58,-0.58 1.17,-1.17 2.33,-1.75 0.58,-0.29 1.46,-0.29 2.33,-0.29 0.29,0 0.58,0 0.58,0l0 0c0,0 0,-0.29 0.29,-0.58 0.29,-0.87 0.87,-1.75 1.75,-2.33 1.17,-0.87 2.33,-1.17 3.49,-1.17 1.46,0 2.62,0.29 3.5,1.17 0.87,0.58 1.75,1.45 2.04,2.33l0 0c0,0.29 0,0.58 0,0.58l0 0c0.29,0 0.29,0 0.58,0 0.87,0 1.75,0 2.62,0.29 0.87,0.58 1.75,1.17 2.33,1.75 0.59,0.87 0.87,1.75 0.87,2.62 0,0.58 -0.29,1.46 -0.58,2.04 0,0.29 -0.29,0.58 -0.29,0.87 0.59,0.29 0.87,0.58 1.46,1.17 0.58,0.58 0.87,1.46 0.87,2.62 0.29,1.46 -0.58,2.62 -1.75,3.79 0.87,0.29 1.46,0.58 2.04,1.17 0.87,0.87 1.46,1.75 1.46,3.2 0,1.45 -0.58,2.33 -1.46,3.2l0 0 0 0c-0.58,0.59 -1.46,0.87 -2.33,1.46 0.29,0.58 0.58,1.17 0.58,1.75 0,1.17 -0.29,2.04 -1.16,2.91l0 0 0 0c-0.29,0.58 -0.59,0.87 -1.17,1.17 -0.58,0.29 -1.17,0.58 -1.75,0.87 -1.46,0.29 -2.91,0.29 -4.08,-0.29 -0.58,-0.29 -0.87,-0.58 -1.17,-0.87l0 15.15c0,0.58 -0.58,0.87 -0.87,0.87l0 0 -3.2 0c-0.58,0 -0.87,-0.29 -0.87,-0.87l0 0 0 -0.29 -11.65 0c-0.58,0 -0.87,-0.58 -0.87,-0.87l0 0c0,-0.29 0,-0.58 0,-0.58 0,-0.58 0,-1.17 0,-1.75 0.29,-0.87 0.87,-1.75 1.46,-2.33l0 0c0.87,-0.87 1.75,-1.17 2.91,-1.46 1.17,-0.29 2.33,0 3.49,0.29 0.87,0.29 1.75,0.87 2.33,1.75l0 0.29c0.29,0 0.29,0 0.29,0.29 0.29,0 0.29,0 0.58,0 0.58,0 0.87,0.29 1.17,0.29l0 0zm-10.19 2.33l10.19 0c-0.29,-0.29 -0.29,-0.29 -0.58,-0.58l0 0 0 0c-0.29,-0.29 -0.58,-0.29 -0.87,-0.29 -0.58,-0.29 -0.87,-0.29 -1.46,-0.58 -0.29,-0.29 -0.29,-0.29 -0.58,-0.58l0 -0.29c-0.58,-0.58 -1.17,-0.87 -1.75,-1.17 -0.58,-0.29 -1.46,-0.29 -2.04,-0.29 -0.87,0.29 -1.46,0.58 -2.04,1.17l0 0 0 0c-0.58,0.29 -0.87,0.87 -0.87,1.46 -0.29,0.29 -0.29,0.87 0,1.17l0 0z"/>
    </g>
    <g>
     <path class="fil2" d="M72.84 74.01c-1.17,-0.29 -2.04,-0.87 -2.91,-1.46 -0.87,-0.58 -1.46,-1.17 -2.33,-2.04 -2.04,-2.62 -2.91,-6.12 -2.91,-9.61 0,-3.2 1.17,-6.7 3.5,-9.32 0,0 0,-0.29 0.29,-0.29 0,-0.29 0.29,-0.29 0.29,-0.29l0.29 -0.29c0,0 0.29,-0.29 0.29,-0.29 1.75,-1.46 3.78,-2.04 5.53,-2.04 2.04,0 4.08,0.58 5.54,2.04 0.29,0 0.58,0.29 0.58,0.58 1.17,0.87 2.04,2.04 2.62,3.2 0.59,1.46 1.17,2.62 1.46,4.08 0.29,2.04 0.29,4.07 0,6.11 -0.58,2.04 -1.46,3.79 -2.62,5.83 -0.59,0.87 -1.46,1.75 -2.33,2.33 -0.87,0.58 -2.04,0.87 -3.2,1.45 -0.29,0 -0.58,0 -0.87,-0.29 -0.29,0 -0.29,-0.29 -0.58,-0.29 0,-0.29 0,-0.29 0,-0.59l0 -1.75c0,-2.62 0,-4.95 0,-7.28 0,-0.29 0.29,-0.58 0.29,-0.87l0 0 0 0c0,-0.29 0.29,-0.58 0.58,-0.87 1.17,-1.46 2.62,-2.91 4.08,-4.37l0.58 -0.87 -0.87 -0.58 -2.91 3.2c-0.29,0.29 -0.87,0.29 -1.46,0 0,-0.29 -0.29,-0.29 -0.29,-0.58l0 0 0 -3.5 -1.17 0 0 9.32c0,0.58 -0.29,0.87 -0.87,0.87 -0.29,0 -0.58,0 -0.87,-0.29l-2.91 -3.49 -0.87 0.58 0.59 0.87c0.87,1.17 1.75,2.33 2.91,3.2 0.87,1.16 1.46,2.04 1.75,3.2 0.29,1.17 0.59,2.33 0.29,3.5 0,0.29 0,0.58 -0.29,0.58l0 0 0 0c-0.29,0.29 -0.58,0.29 -0.87,0.29 0,0 0,0 -0.29,0l0 0zm-1.46 -2.62c0.29,0.29 0.58,0.29 1.17,0.58 0,-0.58 0,-1.17 -0.29,-1.75 -0.29,-0.87 -0.87,-1.75 -1.75,-2.62 -0.87,-1.17 -1.75,-2.33 -2.62,-3.49 -0.58,-0.59 -0.87,-1.17 -1.17,-1.75l0 0c0,2.62 0.87,5.24 2.62,7.28 0.58,0.58 1.17,1.17 2.04,1.75l0 0zm-4.95 -10.19c0,0 0,0.29 0,0.29 0.29,0 0.29,0 0.58,-0.29l2.33 -1.46 0 0c0.58,0 1.17,0 1.46,0.29l1.75 2.04 0 -7.28 0 -0.29c0,-0.29 0.29,-0.58 0.87,-0.58l2.91 0 0.29 0c0.29,0 0.87,0.29 0.87,0.58l0 2.04 1.75 -2.04c0.29,-0.29 0.87,-0.29 1.45,0l1.46 0.87c0,0 -0.29,-0.29 -0.29,-0.29 -0.58,-1.17 -1.17,-2.04 -2.33,-3.2 0,0 -0.29,0 -0.29,-0.29 -1.46,-0.87 -2.91,-1.46 -4.37,-1.46 -1.46,0 -2.91,0.58 -4.08,1.46 -0.29,0.29 -0.29,0.29 -0.58,0.29l0 0c0,0.29 -0.29,0.29 -0.29,0.58 0,0 -0.29,0 -0.29,0.29 -2.04,2.04 -2.91,5.24 -3.2,8.44l-0 0zm16.6 -2.62c0,-0.29 0,-0.58 -0.29,-0.87l-0.87 1.17c-1.46,1.17 -2.62,2.62 -4.08,4.08 0,0.29 0,0.29 -0.29,0.58l0 0c0,0 0,0.29 0,0.29 0,2.33 0,4.66 0,7.28l0 0.87c0.58,-0.29 0.87,-0.58 1.46,-0.87 0.58,-0.29 1.17,-1.17 1.75,-1.75 1.17,-1.75 2.04,-3.5 2.33,-5.24 0.29,-1.75 0.29,-3.79 0,-5.54z"/>
     <path id="_1_121" class="fil1" d="M72.84 74.01c-1.17,-0.29 -2.04,-0.87 -2.91,-1.46 -0.87,-0.58 -1.46,-1.17 -2.33,-2.04 -2.04,-2.62 -2.91,-6.12 -2.91,-9.61 0,-3.2 1.17,-6.7 3.5,-9.32 0,0 0,-0.29 0.29,-0.29 0,-0.29 0.29,-0.29 0.29,-0.29l0.29 -0.29c0,0 0.29,-0.29 0.29,-0.29 1.75,-1.46 3.78,-2.04 5.53,-2.04 2.04,0 4.08,0.58 5.54,2.04 0.29,0 0.58,0.29 0.58,0.58 1.17,0.87 2.04,2.04 2.62,3.2 0.59,1.46 1.17,2.62 1.46,4.08 0.29,2.04 0.29,4.07 0,6.11 -0.58,2.04 -1.46,3.79 -2.62,5.83 -0.59,0.87 -1.46,1.75 -2.33,2.33 -0.87,0.58 -2.04,0.87 -3.2,1.45 -0.29,0 -0.58,0 -0.87,-0.29 -0.29,0 -0.29,-0.29 -0.58,-0.29 0,-0.29 0,-0.29 0,-0.59l0 -1.75c0,-2.62 0,-4.95 0,-7.28 0,-0.29 0.29,-0.58 0.29,-0.87l0 0 0 0c0,-0.29 0.29,-0.58 0.58,-0.87 1.17,-1.46 2.62,-2.91 4.08,-4.37l0.58 -0.87 -0.87 -0.58 -2.91 3.2c-0.29,0.29 -0.87,0.29 -1.46,0 0,-0.29 -0.29,-0.29 -0.29,-0.58l0 0 0 -3.5 -1.17 0 0 9.32c0,0.58 -0.29,0.87 -0.87,0.87 -0.29,0 -0.58,0 -0.87,-0.29l-2.91 -3.49 -0.87 0.58 0.59 0.87c0.87,1.17 1.75,2.33 2.91,3.2 0.87,1.16 1.46,2.04 1.75,3.2 0.29,1.17 0.59,2.33 0.29,3.5 0,0.29 0,0.58 -0.29,0.58l0 0 0 0c-0.29,0.29 -0.58,0.29 -0.87,0.29 0,0 0,0 -0.29,0l0 0zm-1.46 -2.62c0.29,0.29 0.58,0.29 1.17,0.58 0,-0.58 0,-1.17 -0.29,-1.75 -0.29,-0.87 -0.87,-1.75 -1.75,-2.62 -0.87,-1.17 -1.75,-2.33 -2.62,-3.49 -0.58,-0.59 -0.87,-1.17 -1.17,-1.75l0 0c0,2.62 0.87,5.24 2.62,7.28 0.58,0.58 1.17,1.17 2.04,1.75l0 0zm-4.95 -10.19c0,0 0,0.29 0,0.29 0.29,0 0.29,0 0.58,-0.29l2.33 -1.46 0 0c0.58,0 1.17,0 1.46,0.29l1.75 2.04 0 -7.28 0 -0.29c0,-0.29 0.29,-0.58 0.87,-0.58l2.91 0 0.29 0c0.29,0 0.87,0.29 0.87,0.58l0 2.04 1.75 -2.04c0.29,-0.29 0.87,-0.29 1.45,0l1.46 0.87c0,0 -0.29,-0.29 -0.29,-0.29 -0.58,-1.17 -1.17,-2.04 -2.33,-3.2 0,0 -0.29,0 -0.29,-0.29 -1.46,-0.87 -2.91,-1.46 -4.37,-1.46 -1.46,0 -2.91,0.58 -4.08,1.46 -0.29,0.29 -0.29,0.29 -0.58,0.29l0 0c0,0.29 -0.29,0.29 -0.29,0.58 0,0 -0.29,0 -0.29,0.29 -2.04,2.04 -2.91,5.24 -3.2,8.44l-0 0zm16.6 -2.62c0,-0.29 0,-0.58 -0.29,-0.87l-0.87 1.17c-1.46,1.17 -2.62,2.62 -4.08,4.08 0,0.29 0,0.29 -0.29,0.58l0 0c0,0 0,0.29 0,0.29 0,2.33 0,4.66 0,7.28l0 0.87c0.58,-0.29 0.87,-0.58 1.46,-0.87 0.58,-0.29 1.17,-1.17 1.75,-1.75 1.17,-1.75 2.04,-3.5 2.33,-5.24 0.29,-1.75 0.29,-3.79 0,-5.54z"/>
    </g>
   </g>
  </g>
  <rect class="fil0" width="140" height="140"/>
 </g>
</svg>
