<?xml version="1.0" encoding="UTF-8"?>
<!DOCTYPE svg PUBLIC "-//W3C//DTD SVG 1.1//EN" "http://www.w3.org/Graphics/SVG/1.1/DTD/svg11.dtd">
<!-- Creator: CorelDRAW -->
<svg xmlns="http://www.w3.org/2000/svg" xml:space="preserve" width="0.14in" height="0.14in" version="1.1" style="shape-rendering:geometricPrecision; text-rendering:geometricPrecision; image-rendering:optimizeQuality; fill-rule:evenodd; clip-rule:evenodd"
viewBox="0 0 140 140"
 xmlns:xlink="http://www.w3.org/1999/xlink"
 xmlns:xodm="http://www.corel.com/coreldraw/odm/2003">
 <defs>
  <style type="text/css">
   <![CDATA[
    .str0 {stroke:#1C2335;stroke-width:3.33;stroke-miterlimit:2.61313}
    .fil0 {fill:none}
    .fil1 {fill:#1C2335;fill-rule:nonzero}
   ]]>
  </style>
 </defs>
 <g id="Layer_x0020_1">
  <metadata id="CorelCorpID_0Corel-Layer"/>
  <g id="_1819552308000">
   <g>
    <circle class="fil0 str0" transform="matrix(0.608271 0.180426 -0.180426 0.608271 70 70)" r="107.11"/>
    <g id="_2562641625808">
     <path class="fil1" d="M26.41 101.6c-1.18,-1.48 -1.78,-2.96 -1.48,-4.74 0.59,-2.07 1.78,-3.26 3.85,-3.85 0.3,-0.3 0.89,-0.59 0.89,-0.89 3.56,-5.03 6.81,-9.77 10.07,-14.8 0.3,-0.59 0.59,-1.18 0.59,-1.78 1.78,-6.81 3.55,-13.32 5.03,-20.13 0.89,-3.26 2.67,-5.33 5.92,-6.22 0.89,-0.3 2.07,-0.59 3.26,-0.89 0,-1.48 0,-2.96 0,-4.44 0,-4.74 0,-9.77 0,-14.5 0,-8.88 7.1,-15.98 15.98,-15.69 7.99,0 15.09,6.81 15.09,15.1 0,6.22 0,12.43 0,18.65 0,0.3 0,0.59 0,0.89 1.19,0.3 2.07,0.89 3.26,1.19 2.96,0.59 5.03,2.66 5.63,5.62 1.78,7.11 3.55,13.91 5.33,20.72 0,0.59 0.3,1.19 0.59,1.48 3.26,5.03 6.51,9.77 9.77,14.8 0.3,0.3 0.59,0.59 0.89,0.89 4.15,1.18 5.33,5.03 2.96,8.29 -0.3,0.3 -0.3,0.3 0,0.3 0.59,1.48 1.48,2.66 1.78,4.14 0.89,4.74 -2.67,9.18 -7.4,9.47 -0.3,0 -0.59,0 -0.59,0 -25.16,0 -50.32,0 -75.48,0 -4.44,0 -7.4,-2.66 -8.29,-6.81 -0.3,-2.07 0.3,-4.15 1.78,-6.22 0.3,0 0.3,-0.3 0.59,-0.59l-0 0zm37 11.25l0 0c0.3,0 0.59,0 0.89,0 14.5,0 29.01,0 43.51,0 0.3,0 0.3,0 0.59,0 2.37,-0.3 3.85,-1.48 4.74,-3.55 0.89,-2.07 0.3,-4.14 -1.19,-5.92 -0.3,0 -0.59,-0.3 -1.19,-0.3 -2.07,0.3 -3.85,-0.59 -5.33,-2.37 0,-0.3 -0.59,-0.59 -0.89,-0.89 -5.62,-2.37 -10.95,-4.44 -16.28,-6.81 -0.59,0 -1.19,-0.3 -1.78,-0.3 -10.95,0 -21.91,0 -32.86,0 -0.59,0 -1.18,0.3 -1.78,0.3 -5.33,2.37 -10.95,4.44 -16.28,6.81 -0.59,0.3 -0.89,0.59 -1.19,1.19 -1.19,1.48 -2.96,2.37 -5.03,2.07 -0.59,0 -1.19,0 -1.48,0.59 -1.48,1.78 -1.78,3.55 -0.89,5.63 0.89,2.37 2.66,3.55 5.03,3.55 5.33,0 10.65,0 16.28,0 0,0 0.3,0 0.3,0 0,-0.59 0,-0.59 -0.3,-0.89 -0.89,-2.96 0.59,-5.92 3.55,-6.81 0.59,0 1.48,0 2.07,-0.3 2.07,-0.3 4.15,-0.3 6.22,-0.59 -4.14,-0.89 -8.29,-1.48 -12.43,-1.78 -0.89,-0.3 -1.19,-0.59 -1.19,-1.48 0,-0.59 0.59,-1.19 1.48,-0.89 5.33,0.59 10.65,1.18 15.98,2.07 3.55,0.3 7.1,0.59 10.95,0 5.62,-0.89 11.25,-1.48 16.87,-2.07 1.19,-0.3 1.78,0.3 1.78,0.89 0,0.89 -0.59,1.19 -1.18,1.48 -7.7,0.89 -15.39,1.78 -23.09,2.96 -2.07,0.3 -4.15,0.59 -5.92,0.59 0,2.37 0,4.44 0,6.81l0 -0zm18.06 -64.82l0 0c-0.89,0 -0.89,0 -1.19,0.89 -0.3,1.19 -0.59,2.37 -1.19,3.56 -1.18,4.14 -5.03,6.81 -9.17,6.81 -4.15,0 -7.7,-2.67 -9.18,-6.81 -0.3,-1.19 -0.59,-2.37 -0.89,-3.56 -0.3,-0.89 -0.59,-1.18 -1.48,-0.89 0,0 0,0.3 0,0.3 0,2.07 0,3.85 0,5.92 0.3,2.96 -0.3,5.33 -2.67,7.1 0,0 -0.3,0 -0.3,0 -1.78,2.07 -2.37,4.74 -1.19,7.4 0.89,2.66 3.26,4.14 5.92,4.14 6.51,0 13.02,0 19.54,0 2.96,0 5.03,-1.48 6.22,-4.14 1.19,-2.67 0.59,-5.03 -1.48,-7.4 -0.59,-0.59 -1.19,-1.48 -2.07,-2.07 -0.59,-0.59 -0.89,-1.19 -0.89,-1.78 0.3,-3.26 0,-6.22 0,-9.47l0 0zm-26.64 42.33l0 0c10.36,0 20.13,0 30.19,0 -2.96,-4.74 -4.14,-9.77 -2.96,-15.39 -7.99,0 -15.98,0 -23.98,0 0.89,5.62 -0.3,10.65 -3.26,15.39zm28.42 -44.7l0 0c0,-0.3 0,-0.59 0,-0.59 0,-5.33 0,-10.66 0,-16.28 0,-0.59 -0.3,-1.48 -0.3,-2.37 -1.48,-6.51 -7.7,-10.95 -14.21,-10.36 -6.81,0.89 -11.84,6.22 -11.84,13.32 0,5.03 0,10.06 0,15.39 0,0.3 0,0.59 0,0.89 0.89,0 2.07,0 2.96,0 0.59,0 1.48,0.3 2.37,0.59 -1.48,-2.07 -2.07,-4.15 -2.07,-6.51 0,-2.96 -0.3,-5.63 0,-8.59 0,-0.3 0.3,-1.18 0.59,-1.48 1.19,-1.18 2.67,-2.66 3.85,-3.85 1.19,-1.19 1.48,-1.19 2.67,-0.3 3.26,2.67 7.1,3.85 11.25,4.15 1.19,0 1.48,0.3 1.48,1.78 0,2.07 0,4.15 0,6.22 0.3,2.96 -0.3,5.92 -2.37,8.59 0.3,0 0.59,0 0.89,0 0.59,-0.3 1.19,-0.59 1.78,-0.59 0.89,0 1.78,0 2.96,0l0 -0zm0.89 4.74l0 0c0,2.07 0,4.14 0,5.92 -0.3,0.89 0,1.48 0.59,2.07 2.37,2.07 3.85,4.14 4.15,7.4 0,0.3 0,0.59 0.3,0.89 1.19,4.15 2.66,8.29 4.15,12.43 0,0.3 0.3,0.89 0.59,1.48 3.85,4.44 7.4,8.88 11.25,13.32 0.3,0.3 0.59,0.59 0.89,0.89 0.59,-0.59 1.18,-1.18 1.78,-1.78 0,-0.3 -0.3,-0.59 -0.59,-0.89 -2.96,-4.44 -5.92,-8.88 -8.88,-13.62 -0.3,-0.59 -0.59,-1.19 -0.89,-2.07 -1.78,-6.81 -3.55,-13.62 -5.33,-20.72 -0.3,-1.78 -1.19,-2.96 -2.96,-3.55 -1.48,-0.89 -3.26,-1.19 -5.03,-1.78l0 0zm-28.12 0l0 0c-1.48,0.59 -2.66,0.89 -4.15,1.18 -2.07,0.59 -3.55,2.07 -4.14,4.15 -1.48,7.1 -3.26,13.91 -5.03,20.72 -0.3,0.89 -0.59,1.48 -0.89,2.07 -3.26,4.74 -6.22,9.18 -9.18,13.91 -0.3,0.3 -0.3,0.59 -0.59,0.59 0.89,0.59 1.48,1.19 2.07,1.48 0,0 0.3,0 0.3,0 2.67,-3.26 5.33,-6.51 7.99,-9.77 2.96,-3.26 5.03,-6.81 6.22,-10.95 0.89,-3.26 1.78,-6.81 2.96,-10.06 0.59,-1.19 1.19,-2.37 2.07,-3.56 0.3,-0.89 1.18,-1.48 1.78,-2.07 0.3,-0.3 0.59,-0.89 0.59,-1.19 0,-2.07 0,-4.14 0,-6.51l0 0zm10.06 -22.8l0 0c-1.18,1.19 -2.37,2.37 -3.26,3.55 -0.3,0 -0.3,0.59 -0.3,0.59 0,2.66 0,5.33 0,7.99 0,3.85 2.96,7.1 6.81,7.4 3.85,0.3 7.7,-2.37 7.99,-5.92 0.3,-2.96 0,-6.22 0,-9.18 -4.14,-0.3 -7.69,-1.78 -11.25,-4.44l0 0zm21.91 42.92l0 0c-0.89,0.89 -1.78,1.78 -2.67,2.67 -0.3,0.3 -0.59,0.59 -0.59,1.18 -1.48,5.92 -0.3,11.25 3.55,15.98 0,0.3 0.59,0.3 0.89,0.59 4.44,1.78 9.17,3.85 13.91,5.62 0.59,0.3 1.19,0.59 1.78,0.89 -0.3,-0.59 -0.3,-0.59 -0.59,-0.89 -3.85,-4.74 -7.99,-9.47 -11.84,-14.5 -0.59,-0.59 -1.18,-1.48 -1.48,-2.37 -1.19,-3.26 -2.07,-6.22 -2.96,-9.18l0 0zm-35.81 0l0 0c-0.89,3.26 -2.07,6.22 -3.26,9.47 0,0.59 -0.59,1.19 -0.89,1.78 -3.85,4.74 -7.7,9.18 -11.54,13.91 -0.3,0.59 -0.89,0.89 -1.48,1.78 0.59,-0.3 0.59,-0.3 0.89,-0.3 5.03,-2.07 10.06,-4.15 15.39,-6.22 0.3,-0.3 0.59,-0.59 0.59,-0.59 3.85,-4.74 5.03,-10.06 3.55,-15.98 0,-0.3 -0.3,-0.59 -0.59,-0.89 -0.89,-1.19 -1.78,-2.07 -2.66,-2.96l0 0zm25.75 -21.61l0 0c-1.48,-0.59 -2.67,-0.89 -3.85,-0.3 -2.66,1.48 -5.62,1.48 -8.29,0 -1.48,-0.89 -2.37,-0.3 -3.55,0.3 0.3,0.89 0.59,2.07 0.89,3.26 1.18,2.66 3.85,4.44 6.51,4.73 2.96,0 5.92,-1.48 6.81,-4.14 0.59,-1.48 0.89,-2.67 1.48,-3.85l0 0zm-17.17 57.43l0 0c-2.96,0.59 -5.63,0.89 -8.58,1.19 -1.19,0.3 -1.78,1.48 -1.78,2.67 0,1.48 1.19,2.37 2.37,2.66 2.66,0 5.33,0 7.99,0 0,-2.07 0,-4.15 0,-6.51l0 0zm-30.78 -5.62l0 0c1.78,0 2.96,-1.19 2.96,-2.67 0,-1.48 -1.48,-2.96 -2.96,-2.96 -1.48,0 -2.67,1.48 -2.67,2.96 0,1.48 1.19,2.67 2.67,2.67zm79.92 0l0 0c1.78,0 2.96,-1.19 2.96,-2.67 0,-1.48 -1.48,-2.96 -2.96,-2.96 -1.48,0 -2.67,1.48 -2.67,2.96 0,1.48 1.19,2.67 2.67,2.67z"/>
     <path class="fil1" d="M71.7 85.02c0,0.89 -0.89,1.78 -1.78,1.78 -0.89,0 -1.48,-0.59 -1.48,-1.48 0,-0.89 0.59,-1.78 1.48,-1.78 0.89,0 1.78,0.89 1.78,1.48z"/>
    </g>
   </g>
   <rect class="fil0" width="140" height="140"/>
  </g>
 </g>
</svg>
